<svg xmlns="http://www.w3.org/2000/svg" xmlns:xlink="http://www.w3.org/1999/xlink" viewBox="0 0 998.37 1537.9"><defs><style>.cls-1,.cls-101{fill:#42210b;}.cls-1,.cls-82{opacity:0.11;}.cls-2{fill:url(#Áåçûìÿííûé_ãðàäèåíò_15);}.cls-3{fill:url(#Áåçûìÿííûé_ãðàäèåíò_11);}.cls-4{fill:url(#Áåçûìÿííûé_ãðàäèåíò_11-2);}.cls-5{fill:url(#Áåçûìÿííûé_ãðàäèåíò_11-3);}.cls-6{fill:url(#Áåçûìÿííûé_ãðàäèåíò_11-4);}.cls-7{fill:url(#Áåçûìÿííûé_ãðàäèåíò_15-2);}.cls-8{fill:url(#Áåçûìÿííûé_ãðàäèåíò_15-3);}.cls-9{fill:#cecbc2;}.cls-10{fill:#b2a89f;}.cls-11{fill:#dddad3;}.cls-12,.cls-74{fill:#f08069;}.cls-111,.cls-112,.cls-13,.cls-81,.cls-83,.cls-85,.cls-90,.cls-98{fill:#fff;}.cls-14{fill:#f15f5c;}.cls-15{fill:#f38369;}.cls-16{fill:#381911;}.cls-17{fill:#fa9678;}.cls-18{opacity:0.45;}.cls-19{fill:#f49078;}.cls-20{fill:#f48f77;}.cls-21{fill:#f48e77;}.cls-22{fill:#f48d76;}.cls-23{fill:#f48c75;}.cls-24{fill:#f48b75;}.cls-25{fill:#f48a74;}.cls-26{fill:#f38973;}.cls-27{fill:#f38872;}.cls-28{fill:#f38772;}.cls-29{fill:#f38671;}.cls-30{fill:#f38570;}.cls-31{fill:#f38470;}.cls-32{fill:#f3836f;}.cls-33{fill:#f3826e;}.cls-34{fill:#f3816e;}.cls-35{fill:#f3806d;}.cls-36{fill:#f37f6c;}.cls-37{fill:#f37e6c;}.cls-38{fill:#f37d6b;}.cls-39{fill:#f37c6a;}.cls-40{fill:#f27b69;}.cls-41{fill:#f27a69;}.cls-42{fill:#f27968;}.cls-43{fill:#f27867;}.cls-44{fill:#f27767;}.cls-45{fill:#f27666;}.cls-46{fill:#f27565;}.cls-47{fill:#f27464;}.cls-48{fill:#f27363;}.cls-49{fill:#f27263;}.cls-50{fill:#f27162;}.cls-51{fill:#f27061;}.cls-52{fill:#f26f61;}.cls-53{fill:#f16e60;}.cls-54{fill:#f16d5f;}.cls-55{fill:#f16c5e;}.cls-56{fill:#f16b5e;}.cls-57{fill:#f16a5d;}.cls-58{fill:#f1695c;}.cls-59{fill:#f1685c;}.cls-60{fill:#f1675b;}.cls-61{fill:#f1665a;}.cls-62{fill:#f1655a;}.cls-63{fill:#f16459;}.cls-64{fill:#f16358;}.cls-65{fill:#f16258;}.cls-66{fill:#f16157;}.cls-67{fill:#f06056;}.cls-68{fill:#f05f55;}.cls-69{fill:#f05e55;}.cls-70{fill:#f05d54;}.cls-71{fill:#f05c53;}.cls-72{fill:#f05b53;}.cls-73{fill:#f05a52;}.cls-74{opacity:0.58;}.cls-75{fill:#e1745d;}.cls-76{fill:url(#Áåçûìÿííûé_ãðàäèåíò_4);}.cls-77{fill:url(#Áåçûìÿííûé_ãðàäèåíò_4-2);}.cls-78{fill:#422e26;}.cls-79{fill:#6c332e;}.cls-80{fill:#4f372d;}.cls-81{opacity:0.12;}.cls-82{fill:#dd892f;}.cls-83{opacity:0.82;}.cls-84{fill:#fc9878;}.cls-85{opacity:0.2;}.cls-86{opacity:0.19;}.cls-87{opacity:0.08;}.cls-88,.cls-90{opacity:0.4;}.cls-89{fill:#312a42;}.cls-91{fill:#333347;}.cls-92{fill:#f58569;opacity:0.5;}.cls-93{fill:#9898a0;}.cls-94{fill:#8c8c96;}.cls-95{fill:#e7745d;opacity:0.56;}.cls-96{fill:url(#Áåçûìÿííûé_ãðàäèåíò_6);}.cls-97{fill:url(#Áåçûìÿííûé_ãðàäèåíò_6-2);}.cls-98{opacity:0.15;}.cls-99{fill:url(#Áåçûìÿííûé_ãðàäèåíò_6-3);}.cls-100{fill:#3c3e42;}.cls-101{opacity:0.06;}.cls-102{fill:#3f3735;}.cls-103{fill:#604c45;}.cls-104{fill:#593b2d;}.cls-105{fill:#3e3d54;}.cls-106{fill:#332d2b;}.cls-107{fill:url(#Áåçûìÿííûé_ãðàäèåíò_17);}.cls-108{fill:#603f32;}.cls-109{opacity:0.09;}.cls-110{fill:#604033;}.cls-111{opacity:0.07;}.cls-112{opacity:0.1;}</style><linearGradient id="Áåçûìÿííûé_ãðàäèåíò_15" x1="533.21" y1="448.91" x2="541.96" y2="825.29" gradientUnits="userSpaceOnUse"><stop offset="0" stop-color="#cecbc2"/><stop offset="1" stop-color="#b2a89f"/></linearGradient><linearGradient id="Áåçûìÿííûé_ãðàäèåíò_11" x1="229.42" y1="1413.36" x2="253.51" y2="1235.36" gradientUnits="userSpaceOnUse"><stop offset="0" stop-color="#d7bc90"/><stop offset="1" stop-color="#957963"/></linearGradient><linearGradient id="Áåçûìÿííûé_ãðàäèåíò_11-2" x1="295.89" y1="1469.34" x2="320.75" y2="1285.7" gradientTransform="matrix(1, 0, 0.03, 1, -37.93, 0)" xlink:href="#Áåçûìÿííûé_ãðàäèåíò_11"/><linearGradient id="Áåçûìÿííûé_ãðàäèåíò_11-3" x1="1315.04" y1="1413.36" x2="1339.14" y2="1235.36" gradientTransform="matrix(-1, 0, 0, 1, 2127.12, 0)" xlink:href="#Áåçûìÿííûé_ãðàäèåíò_11"/><linearGradient id="Áåçûìÿííûé_ãðàäèåíò_11-4" x1="1381.51" y1="1469.34" x2="1406.37" y2="1285.7" gradientTransform="matrix(-1, 0, -0.03, 1, 2165.05, 0)" xlink:href="#Áåçûìÿííûé_ãðàäèåíò_11"/><linearGradient id="Áåçûìÿííûé_ãðàäèåíò_15-2" x1="166.37" y1="744.99" x2="220.41" y2="934.99" xlink:href="#Áåçûìÿííûé_ãðàäèåíò_15"/><linearGradient id="Áåçûìÿííûé_ãðàäèåíò_15-3" x1="883.15" y1="735.98" x2="823.79" y2="954.21" xlink:href="#Áåçûìÿííûé_ãðàäèåíò_15"/><linearGradient id="Áåçûìÿííûé_ãðàäèåíò_4" x1="473.64" y1="247.36" x2="484.05" y2="219.61" gradientTransform="translate(-5.37 -9.04) rotate(-1.2)" gradientUnits="userSpaceOnUse"><stop offset="0" stop-color="#5c3333"/><stop offset="1"/></linearGradient><linearGradient id="Áåçûìÿííûé_ãðàäèåíò_4-2" x1="577.81" y1="250.61" x2="587.56" y2="221.06" xlink:href="#Áåçûìÿííûé_ãðàäèåíò_4"/><linearGradient id="Áåçûìÿííûé_ãðàäèåíò_6" x1="527.25" y1="537.76" x2="548.74" y2="695.78" gradientTransform="matrix(1, 0.01, 0, 1, 0, -6.31)" gradientUnits="userSpaceOnUse"><stop offset="0" stop-color="#aab3bc"/><stop offset="1" stop-color="#4c5054"/></linearGradient><linearGradient id="Áåçûìÿííûé_ãðàäèåíò_6-2" x1="523.64" y1="504.99" x2="554.73" y2="753.76" xlink:href="#Áåçûìÿííûé_ãðàäèåíò_6"/><linearGradient id="Áåçûìÿííûé_ãðàäèåíò_6-3" x1="436.86" y1="552.86" x2="437.3" y2="576.08" xlink:href="#Áåçûìÿííûé_ãðàäèåíò_6"/><linearGradient id="Áåçûìÿííûé_ãðàäèåíò_17" x1="442.17" y1="745.42" x2="522.7" y2="937.62" gradientUnits="userSpaceOnUse"><stop offset="0" stop-color="#51516d"/><stop offset="1" stop-color="#3e3d54"/></linearGradient></defs><g id="Layer_2" data-name="Layer 2"><g id="Ñëîé_1" data-name="Ñëîé 1"><path class="cls-1" d="M950.49,1448.68s-209.4-46.87-471.88-46.87S0,1448.68,0,1448.68s176,39.37,407.43,45.94c-18.27,5.58-29,10-29,10s76.59,33.32,174,33.32,178.8-33.32,178.8-33.32-21-9.16-55.11-17.87C837.71,1473.13,950.49,1448.68,950.49,1448.68Z"/><path class="cls-2" d="M855.83,1018.2H200.42L162.5,548.75a97.38,97.38,0,0,1,97-106.08H812a96.56,96.56,0,0,1,95.83,108.41Z"/><path class="cls-3" d="M236.67,1469.28H222.46a6.7,6.7,0,0,1-6.7-6.9l14.33-237.76h49.75L243.1,1463.88A6.52,6.52,0,0,1,236.67,1469.28Z"/><path class="cls-4" d="M316.86,1432.41H302.65a7,7,0,0,1-6.9-6.9l10-245.42H355.5L323.14,1427A6.31,6.31,0,0,1,316.86,1432.41Z"/><path class="cls-5" d="M804.82,1469.28H819a6.7,6.7,0,0,0,6.7-6.9L811.4,1224.62H761.66l36.73,239.26A6.52,6.52,0,0,0,804.82,1469.28Z"/><path class="cls-6" d="M724.63,1432.41h14.22a6.93,6.93,0,0,0,6.89-6.9l-10-245.42H686L718.35,1427A6.31,6.31,0,0,0,724.63,1432.41Z"/><path class="cls-7" d="M149.86,975.52H294.72L263.61,798.61c-8.94-37.89-41.84-62.37-79.74-53.43h0l-69.22.06Z"/><path class="cls-8" d="M899,975.52H754.1l31.1-176.91c8.95-37.89,39.95-57.13,79.22-54.09l2.17,0,67.58.69Z"/><path class="cls-9" d="M814,963c-13.92-6.55-34.39-8.85-48.33-15.34-4.89-2.28-9.83-4.36-14.73-6.5H276.25A14.86,14.86,0,0,1,274,942.4l-3.52,1.54c-3.47,2-90.58,37.13-99.9,40v133.49a11.17,11.17,0,0,0,11.13,11.14H867.83A11.17,11.17,0,0,0,879,1117.45V997.08C854.81,987.84,837.36,974.05,814,963Z"/><path class="cls-9" d="M944.06,747.08a70.51,70.51,0,0,0-84.83,52.43l-49.83,256.3a55.67,55.67,0,0,1-54.28,43.09h-470a55.67,55.67,0,0,1-54.27-43.09L181.05,799.53a70.49,70.49,0,0,0-84.8-52.42h0a70.49,70.49,0,0,0-52.43,84.81L93.65,1088.1a197,197,0,0,0,191.51,151.81h470a197,197,0,0,0,191.51-151.77L996.47,831.9a70.52,70.52,0,0,0-52.41-84.82Z"/><path class="cls-10" d="M230.65,1058.18c6.82,28.92,32.27,50.77,61.88,50.77H747.75c29.61,0,55.06-22,61.89-50.89l18.19-96.92-13.54.67-21.54,91.55c-5,21-23.47,36.59-45,36.59H292.53c-21.53,0-40-15.53-45-36.58l-20.39-91.44-14,3.05Z"/><path class="cls-11" d="M809.78,965.75H231a3.85,3.85,0,0,1-1.4-7.44l35.3-13.82a134.29,134.29,0,0,1,49-9.26H738.35a116.75,116.75,0,0,1,48.25,10.44l25.06,11.38A4.55,4.55,0,0,1,809.78,965.75Z"/><path class="cls-12" d="M605,372.7a398.46,398.46,0,0,0-64.55-5,333.78,333.78,0,0,0-66.14,6.3V480.26H605Z"/><path class="cls-12" d="M538.06,270.51h0c-29.52-.17-51.49,11.12-50,30.33l-2.17,69.67v30.95c1.48,19.21,33.14,11,62.65,11.16s48.37,5.51,46.89-13.71l-2.39-53-3-38.74C588.49,287.92,567.58,270.68,538.06,270.51Z"/><path class="cls-13" d="M615.33,398.41a61.18,61.18,0,0,1-22.48,23.12c-32,19.23-79.68,20.58-107.61-6.14a75.07,75.07,0,0,1-20.64-34.57V825c0,16.69-3.23,37.55.46,53.78,9.4-7.07,20-3.4,28.94,3,7.86,5.65,16.19,12.7,25.82,11.64,7.61-.85,13.76-6.68,21.16-8.64,9.92-2.64,20.3,2,30.57,1.74,8.07-.2,15.8-3.44,23.86-4,12.86-.83,20.91,1.1,20.33-13.06-.2-5-.41-9.87-.41-14.85V398.41Z"/><path class="cls-14" d="M486.91,353.2c-11.58,2.6-28.29,23.33-28.29,23.33-89.63,18.16-141.48,83-141.48,83L326,596.92l38.42,7.28c-.33,18.12-3.94,35.3-4.28,53.42-.16,9-6,72-3.36,79.3,1.54,4.29,6,8,4.86,12.41-2.86,1.66-5.82,3.41-7.66,6.16s-2.18,6.8.13,9.16c1,1.06,2.55,1.75,3.08,3.14,1.52,3.94-6.28,7.67-3.9,11.16.68,1,2,1.37,3,2,4.79,3.17-6.75,59.47-9.29,64.28s-2.82,11.58,1.45,15c2.9,2.29,7.88,3.43,7.74,7.12-.11,2.92-3.68,4.55-4.45,7.36s1.75,5.68,4.58,6.39c2.54.64,5.81-.06,8.32-.47-.74.12,3.35,4.45,3.72,4.71,2.36,1.65,5.74,2.12,8.49,2.73,9.86,2.22,19.67,3.91,29.39,6.73a108.41,108.41,0,0,1,54.18,36.1s10.38-14.72,11.59-16.55c14.31-21.8,11.88-46.73,11.06-71.56-.93-28.32-1.42-56.64-1.7-85-.61-61-.21-122.11.63-183.16q1.05-77.08,3-154.14C485.63,398.07,486.3,375.63,486.91,353.2Z"/><path class="cls-14" d="M593,350.86c.09,8.59.11,17.17.15,25.75q.12,26.56.15,53.14,0,36.71,0,73.42-.1,43.29-.4,86.58-.33,46.34-.95,92.64-.63,45.79-1.67,91.59c-.66,28-1.93,56.06-2.5,84.09s6.84,55,24.57,77.14c4.34-7.3,13.52-18.06,15.2-19.84A117.8,117.8,0,0,1,647,898.63c14.28-9.71,32.15-13.31,49.14-14.18,5.75-.29,21.35,3.32,25.3-.76a7.74,7.74,0,0,0,.82-9.14c-2.18-3.62-7.09-5.73-7.51-9.94a21.34,21.34,0,0,0,7.58-5c2-2.28,6.68-3.13,7.66-6,4.92-14.48-17.18-57.49-11.74-64.77,2.12-2.83,4.93-5.69,4.76-9.23-.21-4.41-5.09-7.84-4.52-12.22.49-3.77,4.78-6,5.7-9.7s-1.91-7.27-4.33-10.29-4.69-7.22-2.68-10.53c1-1.59,2.73-2.53,3.85-4,2.78-3.7.68-8.94-1.48-13-3.86-7.34-1.54-9.6.09-16.36,1.78-7.38-.05-17.25-.14-24.84q-.32-25.57-.62-51.16l30-17.43,9.71-165.21s-30.24-45-129.65-69.94C628.91,374.92,613.14,352.16,593,350.86Z"/><ellipse class="cls-15" cx="426.29" cy="239.26" rx="23.03" ry="33.68" transform="translate(-50.99 133.57) rotate(-16.82)"/><path class="cls-16" d="M486.2,45.45s0-.2-.08-.54Z"/><path class="cls-17" d="M638.32,227.26c-.77-43.31-8.24-97.94-17.73-130-7.7-41.79-126.4-59.13-160-.83C450,123.38,433,173.59,428,223.22c0-.54,0-.85,0-.85s-29.46,132.32,87.85,138.06,129.07-56.32,122.48-133.18Z"/><g class="cls-18"><ellipse class="cls-19" cx="469.42" cy="245.08" rx="42.12" ry="45.88" transform="translate(-1.74 3.36) rotate(-0.41)"/><ellipse class="cls-20" cx="469.42" cy="245.08" rx="41.74" ry="45.46" transform="translate(-1.74 3.36) rotate(-0.41)"/><ellipse class="cls-21" cx="469.42" cy="245.08" rx="41.35" ry="45.05" transform="translate(-1.74 3.36) rotate(-0.41)"/><ellipse class="cls-22" cx="469.42" cy="245.08" rx="40.97" ry="44.63" transform="translate(-1.74 3.36) rotate(-0.41)"/><ellipse class="cls-23" cx="469.42" cy="245.08" rx="40.59" ry="44.21" transform="translate(-1.74 3.36) rotate(-0.41)"/><ellipse class="cls-24" cx="469.42" cy="245.08" rx="40.21" ry="43.79" transform="translate(-1.74 3.36) rotate(-0.41)"/><ellipse class="cls-25" cx="469.42" cy="245.08" rx="39.82" ry="43.38" transform="translate(-1.74 3.35) rotate(-0.41)"/><ellipse class="cls-26" cx="469.42" cy="245.08" rx="39.44" ry="42.96" transform="translate(-1.73 3.35) rotate(-0.41)"/><ellipse class="cls-27" cx="469.42" cy="245.08" rx="39.06" ry="42.54" transform="translate(-1.74 3.36) rotate(-0.41)"/><ellipse class="cls-28" cx="469.42" cy="245.08" rx="38.67" ry="42.13" transform="translate(-1.74 3.36) rotate(-0.41)"/><ellipse class="cls-29" cx="469.42" cy="245.08" rx="38.29" ry="41.71" transform="translate(-1.74 3.36) rotate(-0.41)"/><ellipse class="cls-30" cx="469.42" cy="245.08" rx="37.91" ry="41.29" transform="translate(-1.74 3.35) rotate(-0.41)"/><ellipse class="cls-31" cx="469.42" cy="245.08" rx="37.53" ry="40.87" transform="translate(-1.74 3.36) rotate(-0.41)"/><ellipse class="cls-32" cx="469.42" cy="245.08" rx="37.14" ry="40.46" transform="translate(-1.74 3.36) rotate(-0.41)"/><ellipse class="cls-33" cx="469.42" cy="245.08" rx="36.76" ry="40.04" transform="translate(-1.74 3.36) rotate(-0.41)"/><ellipse class="cls-34" cx="469.42" cy="245.08" rx="36.38" ry="39.62" transform="translate(-1.74 3.36) rotate(-0.41)"/><ellipse class="cls-35" cx="469.42" cy="245.08" rx="35.99" ry="39.21" transform="translate(-1.74 3.36) rotate(-0.41)"/><ellipse class="cls-36" cx="469.42" cy="245.08" rx="35.61" ry="38.79" transform="translate(-1.74 3.36) rotate(-0.41)"/><ellipse class="cls-37" cx="469.42" cy="245.08" rx="35.23" ry="38.37" transform="matrix(1, -0.01, 0.01, 1, -1.74, 3.36)"/><ellipse class="cls-38" cx="469.42" cy="245.08" rx="34.85" ry="37.95" transform="translate(-1.74 3.36) rotate(-0.41)"/><ellipse class="cls-39" cx="469.42" cy="245.08" rx="34.46" ry="37.54" transform="translate(-1.74 3.36) rotate(-0.41)"/><ellipse class="cls-40" cx="469.42" cy="245.08" rx="34.08" ry="37.12" transform="translate(-1.74 3.36) rotate(-0.41)"/><ellipse class="cls-41" cx="469.42" cy="245.08" rx="33.7" ry="36.7" transform="translate(-1.74 3.36) rotate(-0.41)"/><ellipse class="cls-42" cx="469.42" cy="245.08" rx="33.31" ry="36.29" transform="translate(-1.74 3.35) rotate(-0.41)"/><ellipse class="cls-43" cx="469.42" cy="245.08" rx="32.93" ry="35.87" transform="translate(-1.73 3.35) rotate(-0.41)"/><ellipse class="cls-44" cx="469.42" cy="245.08" rx="32.55" ry="35.45" transform="translate(-1.74 3.36) rotate(-0.41)"/><ellipse class="cls-45" cx="469.42" cy="245.08" rx="32.16" ry="35.03" transform="translate(-1.74 3.36) rotate(-0.41)"/><ellipse class="cls-46" cx="469.42" cy="245.08" rx="31.78" ry="34.62" transform="translate(-1.73 3.35) rotate(-0.41)"/><ellipse class="cls-46" cx="469.42" cy="245.08" rx="31.4" ry="34.2" transform="translate(-1.73 3.35) rotate(-0.41)"/><ellipse class="cls-47" cx="469.42" cy="245.08" rx="31.02" ry="33.78" transform="translate(-1.73 3.35) rotate(-0.41)"/><ellipse class="cls-48" cx="469.42" cy="245.08" rx="30.63" ry="33.37" transform="translate(-1.74 3.36) rotate(-0.41)"/><ellipse class="cls-49" cx="469.42" cy="245.08" rx="30.25" ry="32.95" transform="translate(-1.74 3.36) rotate(-0.41)"/><ellipse class="cls-50" cx="469.42" cy="245.08" rx="29.87" ry="32.53" transform="translate(-1.73 3.35) rotate(-0.41)"/><ellipse class="cls-51" cx="469.42" cy="245.08" rx="29.48" ry="32.12" transform="translate(-1.73 3.35) rotate(-0.41)"/><ellipse class="cls-52" cx="469.42" cy="245.08" rx="29.1" ry="31.7" transform="translate(-1.74 3.35) rotate(-0.41)"/><ellipse class="cls-53" cx="469.42" cy="245.08" rx="28.72" ry="31.28" transform="translate(-1.73 3.35) rotate(-0.41)"/><ellipse class="cls-54" cx="469.42" cy="245.08" rx="28.34" ry="30.86" transform="translate(-1.74 3.36) rotate(-0.41)"/><ellipse class="cls-55" cx="469.42" cy="245.08" rx="27.95" ry="30.45" transform="translate(-1.74 3.35) rotate(-0.41)"/><ellipse class="cls-56" cx="469.42" cy="245.08" rx="27.57" ry="30.03" transform="translate(-1.73 3.35) rotate(-0.41)"/><ellipse class="cls-57" cx="469.42" cy="245.08" rx="27.19" ry="29.61" transform="translate(-1.74 3.35) rotate(-0.41)"/><ellipse class="cls-58" cx="469.42" cy="245.08" rx="26.8" ry="29.2" transform="translate(-1.73 3.35) rotate(-0.41)"/><ellipse class="cls-59" cx="469.42" cy="245.08" rx="26.42" ry="28.78" transform="translate(-1.73 3.35) rotate(-0.41)"/><ellipse class="cls-60" cx="469.42" cy="245.08" rx="26.04" ry="28.36" transform="translate(-1.73 3.35) rotate(-0.41)"/><ellipse class="cls-61" cx="469.42" cy="245.08" rx="25.66" ry="27.94" transform="translate(-1.73 3.34) rotate(-0.41)"/><ellipse class="cls-62" cx="469.42" cy="245.08" rx="25.27" ry="27.53" transform="translate(-1.73 3.34) rotate(-0.41)"/><ellipse class="cls-63" cx="469.42" cy="245.08" rx="24.89" ry="27.11" transform="translate(-1.73 3.35) rotate(-0.41)"/><ellipse class="cls-64" cx="469.42" cy="245.08" rx="24.51" ry="26.69" transform="translate(-1.73 3.35) rotate(-0.41)"/><ellipse class="cls-65" cx="469.42" cy="245.08" rx="24.12" ry="26.28" transform="translate(-1.73 3.35) rotate(-0.41)"/><ellipse class="cls-66" cx="469.42" cy="245.08" rx="23.74" ry="25.86" transform="translate(-1.73 3.34) rotate(-0.41)"/><path class="cls-67" d="M469.24,219.64c-12.9.09-23.27,11.55-23.17,25.6s10.63,25.37,23.53,25.28,23.28-11.56,23.18-25.61S482.14,219.54,469.24,219.64Z"/><ellipse class="cls-68" cx="469.42" cy="245.08" rx="22.97" ry="25.02" transform="translate(-1.73 3.35) rotate(-0.41)"/><ellipse class="cls-69" cx="469.42" cy="245.08" rx="22.59" ry="24.61" transform="translate(-1.74 3.35) rotate(-0.41)"/><ellipse class="cls-70" cx="469.42" cy="245.08" rx="22.21" ry="24.19" transform="translate(-1.73 3.35) rotate(-0.41)"/><path class="cls-71" d="M469.25,221.3c-12.05.09-21.75,10.8-21.65,23.93s9.94,23.71,22,23.62,21.75-10.8,21.66-23.93S481.31,221.22,469.25,221.3Z"/><path class="cls-72" d="M469.26,221.72c-11.85.09-21.37,10.61-21.28,23.51s9.77,23.29,21.61,23.2,21.37-10.61,21.28-23.51S481.1,221.64,469.26,221.72Z"/><path class="cls-73" d="M469.26,222.14c-11.63.08-21,10.42-20.9,23.09S458,268.1,469.59,268s21-10.42,20.89-23.09S480.89,222.05,469.26,222.14Z"/></g><g class="cls-18"><circle class="cls-19" cx="585.47" cy="244.86" r="45.88" transform="translate(42.95 574.11) rotate(-53.95)"/><circle class="cls-20" cx="585.47" cy="244.89" r="45.46" transform="translate(-48.76 222.6) rotate(-20.69)"/><circle class="cls-21" cx="585.47" cy="244.91" r="45.05" transform="translate(-41.66 147.62) rotate(-13.88)"/><circle class="cls-22" cx="585.47" cy="244.94" r="44.63" transform="translate(121.74 678.21) rotate(-65.76)"/><circle class="cls-23" cx="585.47" cy="244.96" r="44.21" transform="translate(-24.39 420.62) rotate(-38.77)"/><circle class="cls-24" cx="585.47" cy="244.99" r="43.79" transform="translate(86.3 636.94) rotate(-60.85)"/><circle class="cls-25" cx="585.47" cy="245.01" r="43.38" transform="translate(-1.77 485.75) rotate(-45)"/><circle class="cls-26" cx="585.47" cy="245.04" r="42.96" transform="translate(-1.79 485.76) rotate(-45)"/><circle class="cls-27" cx="585.47" cy="245.06" r="42.54" transform="matrix(0.5, -0.87, 0.87, 0.5, 80.31, 629.31)"/><circle class="cls-28" cx="585.47" cy="245.09" r="42.13" transform="translate(-1.82 485.77) rotate(-45)"/><circle class="cls-29" cx="585.47" cy="245.11" r="41.71"/><circle class="cls-30" cx="585.47" cy="245.14" r="41.29" transform="translate(-22.38 427.86) rotate(-39.45)"/><circle class="cls-31" cx="585.47" cy="245.16" r="40.87" transform="translate(-1.88 485.8) rotate(-45)"/><circle class="cls-32" cx="585.47" cy="245.19" r="40.46" transform="translate(-1.89 485.8) rotate(-45)"/><circle class="cls-33" cx="585.47" cy="245.21" r="40.04" transform="translate(173.75 728.31) rotate(-72.29)"/><circle class="cls-34" cx="585.47" cy="245.24" r="39.62" transform="translate(236.26 775.3) rotate(-79.35)"/><circle class="cls-35" cx="585.47" cy="245.26" r="39.21" transform="translate(229.68 770.95) rotate(-78.64)"/><circle class="cls-36" cx="585.47" cy="245.29" r="38.79" transform="translate(-1.97 485.83) rotate(-45)"/><circle class="cls-37" cx="585.47" cy="245.31" r="38.37" transform="translate(304.05 814.31) rotate(-86.42)"/><circle class="cls-38" cx="585.47" cy="245.34" r="37.95" transform="translate(82.5 632.62) rotate(-60.33)"/><circle class="cls-39" cx="585.47" cy="245.36" r="37.54" transform="translate(-2.02 485.85) rotate(-45)"/><circle class="cls-40" cx="585.47" cy="245.39" r="37.12" transform="translate(-45.99 180.24) rotate(-16.85)"/><circle class="cls-41" cx="585.47" cy="245.41" r="36.7" transform="translate(81.21 631.06) rotate(-60.15)"/><circle class="cls-42" cx="585.47" cy="245.44" r="36.29" transform="translate(238.16 776.84) rotate(-79.58)"/><circle class="cls-43" cx="585.47" cy="245.46" r="35.87" transform="matrix(1, -0.04, 0.04, 1, -9.15, 23.08)"/><circle class="cls-44" cx="585.47" cy="245.49" r="35.45" transform="translate(-47.62 292.83) rotate(-27.03)"/><circle class="cls-45" cx="585.47" cy="245.51" r="35.04" transform="translate(71.75 618.54) rotate(-58.74)"/><circle class="cls-46" cx="585.47" cy="245.54" r="34.62" transform="translate(-2.14 485.9) rotate(-45)"/><circle class="cls-46" cx="585.47" cy="245.57" r="34.2" transform="translate(201.37 751.08) rotate(-75.53)"/><circle class="cls-47" cx="585.47" cy="245.59" r="33.78" transform="translate(124.26 681.91) rotate(-66.17)"/><circle class="cls-48" cx="585.47" cy="245.62" r="33.37" transform="translate(-44.15 163.86) rotate(-15.36)"/><circle class="cls-49" cx="585.47" cy="245.64" r="32.95" transform="translate(-38.92 130.53) rotate(-12.32)"/><circle class="cls-50" cx="585.46" cy="245.67" r="32.53" transform="translate(-47.13 299.92) rotate(-27.67)"/><circle class="cls-51" cx="585.46" cy="245.69" r="32.12" transform="matrix(0.84, -0.55, 0.55, 0.84, -38.86, 361.22)"/><path class="cls-52" d="M585.24,214a31.7,31.7,0,1,0,31.92,31.47A31.69,31.69,0,0,0,585.24,214Z"/><circle class="cls-53" cx="585.46" cy="245.74" r="31.28" transform="translate(289.14 807.3) rotate(-84.95)"/><circle class="cls-54" cx="585.46" cy="245.77" r="30.86" transform="translate(-2.3 485.97) rotate(-45)"/><circle class="cls-55" cx="585.46" cy="245.79" r="30.45" transform="translate(-48.8 275.63) rotate(-25.47)"/><circle class="cls-56" cx="585.46" cy="245.82" r="30.03" transform="translate(93.91 647.77) rotate(-62.05)"/><circle class="cls-57" cx="585.46" cy="245.84" r="29.61" transform="translate(-49.38 259.08) rotate(-23.97)"/><circle class="cls-58" cx="585.46" cy="245.87" r="29.2" transform="translate(-48.2 204.74) rotate(-19.07)"/><circle class="cls-59" cx="585.46" cy="245.89" r="28.78" transform="translate(-49.42 233.64) rotate(-21.68)"/><circle class="cls-60" cx="585.46" cy="245.92" r="28.36" transform="translate(-26 417.27) rotate(-38.44)"/><circle class="cls-61" cx="585.46" cy="245.94" r="27.94" transform="translate(-49.05 271.37) rotate(-25.08)"/><circle class="cls-62" cx="585.46" cy="245.97" r="27.53" transform="translate(-33.32 103.23) rotate(-9.8)"/><circle class="cls-63" cx="585.46" cy="245.99" r="27.11" transform="translate(-44.95 169.46) rotate(-15.87)"/><circle class="cls-64" cx="585.46" cy="246.02" r="26.69" transform="translate(-30.07 402.25) rotate(-37.03)"/><circle class="cls-65" cx="585.46" cy="246.04" r="26.28" transform="translate(-49.54 254.63) rotate(-23.57)"/><circle class="cls-66" cx="585.46" cy="246.07" r="25.86" transform="translate(-45.99 313.81) rotate(-28.92)"/><circle class="cls-67" cx="585.46" cy="246.09" r="25.44" transform="translate(-49.49 233.41) rotate(-21.66)"/><path class="cls-68" d="M585.28,221.09a25,25,0,1,0,25.2,24.85A25,25,0,0,0,585.28,221.09Z"/><path class="cls-69" d="M585.28,221.54A24.61,24.61,0,1,0,610.07,246,24.6,24.6,0,0,0,585.28,221.54Z"/><circle class="cls-70" cx="585.46" cy="246.17" r="24.19" transform="translate(4.4 502.55) rotate(-46.61)"/><circle class="cls-71" cx="585.46" cy="246.19" r="23.77" transform="translate(-2.61 486.09) rotate(-45)"/><circle class="cls-72" cx="585.46" cy="246.22" r="23.36" transform="translate(-49.63 253.62) rotate(-23.48)"/><circle class="cls-73" cx="585.46" cy="246.25" r="22.94" transform="translate(-40.49 353.88) rotate(-32.57)"/></g><path class="cls-17" d="M663.06,205.53c-12.06-4.05-26.3,7.06-31.81,24.82s-.19,35.46,11.88,39.52,26.3-7.06,31.8-24.82S675.12,209.59,663.06,205.53Z"/><path class="cls-15" d="M665.23,247.16c-11.48,7.66-23.9,5.5-33-1.62.52,14.84-2.1,43.08-22.85,72.23-16.65,23.4-53.47,31.74-80.95,31.27-65.55-1.14-83.17-20.83-97.16-47.59,9.81,29.46,33,56.46,84.59,59,95.58,4.67,121.09-35.65,123.7-92.32a16.54,16.54,0,0,0,3.58,1.76c12.06,4.05,26.3-7.06,31.8-24.82a47.52,47.52,0,0,0,2.16-13.48A29.61,29.61,0,0,1,665.23,247.16Z"/><path class="cls-15" d="M643.88,238l11,1.35C654.43,222,667.14,216,667.14,216,646.18,208.91,643.88,238,643.88,238Z"/><path class="cls-74" d="M554,147.15s-21.8,44.48.61,70l54.23-4.35s3-18.3,1.19-29.94S554,147.15,554,147.15Z"/><path class="cls-75" d="M487.58,281.92s-1.8,6.47,1.42,9.57,12.51,11.17,40.79,9.23c26.68-1.83,38.59-11.94,40.86-16.55s-.56-11.17-.56-11.17Z"/><path class="cls-74" d="M452.08,186.2c-3.2,10.5-5.05,28.09-5.05,28.09l50.45,6.25c23.13-26,12-71.86,12-71.86S455.28,175.69,452.08,186.2Z"/><path class="cls-13" d="M585,195.57c-22.77-1.55-30.41,21.61-30.41,21.61s4.79,6.19,28.68,6.17c27.64,0,25.55-10.52,25.55-10.52S607.77,197.13,585,195.57Z"/><path class="cls-13" d="M447,214.29s-2.52,9.31,22.27,9.87c26,.59,28.18-3.62,28.18-3.62S471.9,175.15,447,214.29Z"/><path class="cls-76" d="M481.26,203.93c-5.45-1.67-12,4-14.69,12.65a23.49,23.49,0,0,0-1,7.41c1.18.08,2.43.14,3.77.17a142,142,0,0,0,16.58-.43c.14-.36.29-.71.41-1.09C489,214,486.7,205.6,481.26,203.93Z"/><path class="cls-77" d="M585.83,200.74c-5.45-1.87-12,4.39-14.65,14a32.79,32.79,0,0,0-1,7.86,101.47,101.47,0,0,0,13,.76c2.64,0,5-.1,7.13-.28.18-.52.36-1,.51-1.57C593.55,211.9,591.28,202.61,585.83,200.74Z"/><path class="cls-16" d="M470.54,194.75c-18.72-.4-23.51,19.54-23.51,19.54A31.22,31.22,0,0,1,469.39,204c15.88-.48,28.09,16.56,28.09,16.56S495.83,195.29,470.54,194.75Z"/><path class="cls-78" d="M452.08,186.2c24-15.65,45.6-7.93,56.21-18,4.05-3.84,1.18-19.53,1.18-19.53C451.45,156.17,452.08,186.2,452.08,186.2Z"/><path class="cls-78" d="M554,147.15s-7.47,15.74-4.49,19.87c9.27,12.88,41.64,4.16,60.51,19.17C610,186.19,614,159.78,554,147.15Z"/><path class="cls-16" d="M582.17,192.37c-25.54-1-27.63,24.32-27.63,24.32s5.88-14.3,28-13.14,26.28,9.28,26.28,9.28S606.6,193.32,582.17,192.37Z"/><path class="cls-79" d="M572.87,271.8l0,.09A.66.66,0,0,0,572.87,271.8Z"/><path class="cls-80" d="M536.87,40.09C415.69,50.68,436.14,184.81,436.14,184.81c6.39-40.15,30.34-90.28,49.43-91.66a72.91,72.91,0,0,0,41.74,13.21c22.24,0,52.72-16.83,52.72-16.83,22.16-1,49,67.13,53.08,122.39.94,12.64,11.63-2.2,11.63-2.2S655.62,29.72,536.87,40.09Z"/><path class="cls-80" d="M600.52,49.24c-37-54-153.62-35.66-153.62-35.66C436.86,76,480.59,89,480.59,89S581.44,68.89,597,79.38s47.27,96.74,47.27,96.74,24-91.22,4.2-124.17C634,27.76,600.52,49.24,600.52,49.24Z"/><path class="cls-80" d="M491.87,0c.59,8.22,7.86,16.43,7.86,16.43S624.08,97.17,600.52,49.24,491.87,0,491.87,0Z"/><path class="cls-80" d="M620,32.17c-6.88,1.21-8.43,4.51-8.43,4.51,4.78-9.18,1.09-21.47,1.09-21.47C599.39,23.21,601,33.94,601,33.94c-6.89-13.69-27.31-17.56-27.31-17.56.89,11.42,13.33,22.82,14,23.17l10.88,15.86,21.8-3.9L618,41.79C621.42,36.64,620,32.17,620,32.17Z"/><path class="cls-78" d="M451.19,60.8c-35.43,11.59-22.14,153.42-22.14,153.42,6.39-40.15,37.46-119.69,56.54-121.07C485.59,93.15,467.68,83,451.19,60.8Z"/><path class="cls-81" d="M589.74,48.43s.19,0,0,0Z"/><path class="cls-81" d="M589.66,49h0Z"/><path class="cls-82" d="M634.43,41.22c-4.36.79-8.95,2-13.68,3.15-11.29,2.82-23.2,4.81-34.86,3.49-13.55-1.53-25.53-7.32-37.66-13.14-6.12-2.93-12.23-5.92-18.53-8.47-13.48-5.45-29.37-10.74-44.1-9.95-7.29.4-14.4,2.77-21.05,5.66a45.64,45.64,0,0,0-14.9,10.42,43.61,43.61,0,0,0-4,4.88,76,76,0,0,0,2,13.33c.46-.39.92-.78,1.43-1.19A44.63,44.63,0,0,1,458,44.07a39.93,39.93,0,0,1,12-3.32C487.56,39,504,45.74,520,52c6.54,2.54,13.2,5.52,20.23,8.27a218,218,0,0,0,22,7.63c12.86,3.63,28.48,4.49,41.41.61,1.75-.53,3.48-1,5.15-1.53a118.54,118.54,0,0,0,17.48-7.83c5-2.72,9.31-5.19,13.1-7.06a46.63,46.63,0,0,1,7.12-3A21.59,21.59,0,0,0,634.43,41.22Z"/><path class="cls-81" d="M589.46,48.44h0Z"/><path class="cls-83" d="M469.25,211.54c-4,1.43-6.66,4.17-6,6.13s4.36,2.39,8.32,1,6.65-4.17,6-6.13S473.21,210.12,469.25,211.54Z"/><path class="cls-83" d="M573.16,211.72c-3.51,1.47-5.76,4.1-5,5.88s4.19,2,7.7.55,5.76-4.1,5-5.88S576.67,210.25,573.16,211.72Z"/><path class="cls-84" d="M512.67,232.52s-17.46-12.24-23.17,9.83,38.31,34.36,49.93,11.19-20.51-65.44-20.51-65.44S525.57,214.36,512.67,232.52Z"/><path class="cls-80" d="M633,210c-1.67,22.67-9.08,37.06-17.73,46.2a25.7,25.7,0,0,1-26.81,6.51c-13.89-4.63-34.59-12.82-71.12-8.64,0,0-64.62,36.92-81.07-4.71-4.77-12.08-5.51-35.17-6.05-41.43h-1.63c-13.42,59.89-17.49,159.75,106,157.14,125.38-2.65,106.39-98.55,106.39-98.55-6.46-21,3.86-56.74,3.86-56.74Zm-57.3,82.16c-7.49,9.16-21.6,17.58-42.34,19.25-2,.15-3.88.25-5.74.29-20.29.42-34.5-5.88-43.18-11.64a10.37,10.37,0,0,1-.81-16.75h0s20,5.9,47.78,3.88a113.65,113.65,0,0,0,42.18-11.34C579.47,279.22,580,286.83,575.68,292.11Z"/><path class="cls-85" d="M512.7,232.52s-17-11.51-22.76,8.34a155,155,0,0,0,27.41,3.67c5-12.66,6.57-26.3,6.88-41l-3.59.09C520.78,212.41,519.31,223.2,512.7,232.52Z"/><path class="cls-15" d="M489.18,248.5c2.88,18,39.76,25.95,50.25,5a22.29,22.29,0,0,0,1.51-4A109.06,109.06,0,0,1,489.18,248.5Z"/><path class="cls-86" d="M547.43,317.7a65.91,65.91,0,0,1-21.32,2.57,6.83,6.83,0,0,0-7.12,8.38c1.17,4.73,5.75,9.13,19.58,7.2,13.49-1.88,17.17-6.9,17.48-11.44S551.82,316.48,547.43,317.7Z"/><path class="cls-87" d="M521.87,945.62s-112-19.9,14.86-25.08,16.64,26.06,16.64,26.06Z"/><g class="cls-88"><path class="cls-89" d="M719,745.7V767c0-3.48,4.49-5.69,5.37-9.22.93-3.75-1.79-7.27-4.21-10.29C719.72,746.89,719,746.31,719,745.7Z"/><path class="cls-89" d="M730.17,853.65c3.66-10.77-8.17-37.32-11.17-53.21v62.23c2-.83,2.56-1.8,3.63-3C724.64,857.38,729.19,856.53,730.17,853.65Z"/><path class="cls-89" d="M719,769.37v19.09c3-2.7,4.59-5.45,4.43-8.81C723.25,775.91,719,772.87,719,769.37Z"/><path class="cls-89" d="M669,387.15a321.7,321.7,0,0,0-39.39-12.23A132.52,132.52,0,0,0,617,361.09V929.93c5-6.38,9.81-13.18,11.11-14.56a117.1,117.1,0,0,1,19.25-16.74A71.79,71.79,0,0,1,669,888.72Z"/><path class="cls-89" d="M719,411V707.28a18.66,18.66,0,0,1,.82-3.78c1.78-7.38-.17-17.25-.26-24.84-.21-17-.48-34.11-.68-51.16l30-17.43,9.93-165.21S750,429,719,411Z"/><path class="cls-89" d="M722.44,874.55c-.92-1.53-1.44-2.79-3.44-4v14.63a3.36,3.36,0,0,0,2.74-1.44C724,881.33,724.14,877.37,722.44,874.55Z"/><path class="cls-89" d="M719,717.79v17.52c0-.79,1.52-1.51,2.21-2.42,2.78-3.7.8-8.94-1.36-13A5.26,5.26,0,0,1,719,717.79Z"/></g><g class="cls-88"><path class="cls-89" d="M591.93,682.67c0,.56,0,1.28,0,2.28H719.71c-.14-2-.25-4.31-.27-6-.18-14.79-.36-31-.54-45H592.49C592.33,649,592.15,666.63,591.93,682.67Z"/><path class="cls-89" d="M593.29,489H756l2.54-43.28A44.77,44.77,0,0,0,753,439H593.31C593.33,454,593.31,471,593.29,489Z"/><path class="cls-89" d="M721,733.49c.5-.67.84-1.54,1-1.54H591.15c-.26,13-.55,28.43-.89,42.84-.06,2.19-.13,3.16-.19,6.16H722.9a7.09,7.09,0,0,0,.05-1.09c-.22-4.41-5.1-8-4.53-12.33.49-3.76,4.79-6.06,5.71-9.74s-1.91-7.31-4.33-10.32-4.69-6.94-2.68-10.24C718.09,735.64,719.85,735,721,733.49Z"/><path class="cls-89" d="M606.22,925c1.89,5,3.92,5.7,6.11,8.43,1.53-2.56,3.65-3.43,5.84-8.43Z"/><path class="cls-89" d="M587.76,858.37A142.6,142.6,0,0,0,588.83,879H723.29a7.24,7.24,0,0,0-1.09-4.2c-2.18-3.62-7.09-5.83-7.51-10a21.5,21.5,0,0,0,7.57-5c2-2.28,6.69-3.06,7.67-5.94,1.84-5.42-.11-14.82-3-24.82H588.56C588.25,839,588,848.6,587.76,858.37Z"/><path class="cls-89" d="M593,350.86c.08,8.59.11,17.63.15,26.22,0,4.46,0,7.87,0,13.87h83c-13.67-7-29.36-11.06-47.32-15.57C628.89,375.38,613.11,352.16,593,350.86Z"/><path class="cls-89" d="M593.16,538c-.07,16-.15,33-.26,50H750.24l2.83-50Z"/></g><g class="cls-88"><path class="cls-89" d="M355,870.77c-1,1.23-2.3,2.41-2.72,3.93-.59,2.17,1.72,4.36,2.72,5.57Z"/><path class="cls-89" d="M459,376.41c0,.07.35.12.35.12A244.16,244.16,0,0,0,407,393.78V894.67s-.16.07,0,.12c20.31,5.88,39,17.86,52,34Z"/><path class="cls-89" d="M348.72,860.22c1.78,1.4,5.28,2.37,6.28,3.77V812.13c-3,15.2-6.32,30.71-7.6,33.14C344.86,850.08,344.45,856.85,348.72,860.22Z"/><path class="cls-89" d="M317.39,459.51l9,137.41L355,602.31V424.67C331,443.21,317.39,459.51,317.39,459.51Z"/><path class="cls-89" d="M354.27,755.49c-1.84,2.75-2,6.8.27,9.16.1.11.46.21.46.31V754.87C355,755.08,354.41,755.28,354.27,755.49Z"/><path class="cls-89" d="M353.85,779c.29.43,1.15.74,1.15,1v-5.79C354,775.8,352.79,777.4,353.85,779Z"/></g><g class="cls-88"><path class="cls-89" d="M347,845.36c-2.55,4.81-2.82,11.54,1.45,14.91,2.9,2.28,7.88,3.41,7.74,7.1-.11,2.91-3.68,4.73-4.45,7.55-.37,1.35,0,2,.85,4H483.3c.94-11,.17-23.85-.23-35.87-.15-4.67-.28-9.13-.41-14.13H351.27C349.48,837,347.79,843.85,347,845.36Z"/><path class="cls-89" d="M356.8,737.52c1.54,4.29,6,7.71,4.85,12.11-2.85,1.66-5.81,3.26-7.65,6s-2.18,6.73.13,9.09c1,1,2.55,1.71,3.08,3.1,1.52,3.94-6.28,7.86-3.9,11.36.51.75,1.36,1.76,2.18,1.76H481.64c-.11-7-.2-14.75-.27-22.32-.09-9-.15-18.68-.2-26.68h-125A25.41,25.41,0,0,0,356.8,737.52Z"/><path class="cls-89" d="M458.6,377c-15.93,3.23-30.67,6.95-44.13,13.95h71.39c.35-13,.7-24.78,1-37.05C475.31,356.5,458.6,377,458.6,377Z"/><path class="cls-89" d="M322.19,538l3.13,50H481.85c0-6,.09-8.49.14-12.29.17-12.27.36-26.71.57-37.71Z"/><path class="cls-89" d="M456.92,925c1.2,4,2.37,2.71,3.5,4.12,0,0,1.24.88,2.9-4.12Z"/><path class="cls-89" d="M338,439c-13.69,12-20.9,21.37-20.9,21.37L319,489H483.5c.34-18,.71-35,1.11-50Z"/><path class="cls-89" d="M361.93,634c-.85,9-1.62,16-1.77,23.94-.06,3.32-.88,12.06-1.77,27.06h122.7c0-18,.12-34,.25-51Z"/></g><path class="cls-14" d="M221.7,730.22C221.94,727,266.56,486.48,342,434.77c54.57-37.41,50.33,143.12,38.92,181.36S338.38,697,341,746.82c.88,16.82-27.7,39.7-61.19,39.93C230.51,787.09,219.62,757.74,221.7,730.22Z"/><path class="cls-14" d="M851.8,729.19c.11-3.23-25.59-211.38-95.73-287.49C712.16,394,695.92,577.8,705.81,615.54s23.08,85.12,23.08,130.24c0,17.26,12.45,50.31,59.12,50.31S850.55,765.42,851.8,729.19Z"/><g class="cls-88"><path class="cls-89" d="M341.1,435.27a100.46,100.46,0,0,0-12.67,11.05L228.24,762.8c7,13.14,21,22.91,46.26,24l103.83-328.9C370.73,431.18,359.67,422.34,341.1,435.27Z"/></g><g class="cls-88"><path class="cls-89" d="M234.34,673.84c-5.1,21.89-8.58,39.36-10.37,48.94l113.5,35.83a21.52,21.52,0,0,0,3.5-12.44c-.76-13,1.15-25.3,4-37.39Z"/><path class="cls-89" d="M276.21,535.33,387.11,570c.86-15.61,1.36-33.07.59-50.38l-91.32-28.48A451.42,451.42,0,0,0,276.21,535.33Z"/><path class="cls-89" d="M259.92,580.76c-5.25,16.2-10,32.35-14.16,47.74l115.38,36.43c7-16.18,14.25-31.55,18.88-46.25Z"/><path class="cls-89" d="M247,780.62a59.7,59.7,0,0,0,15.5,4.9Z"/><path class="cls-89" d="M341.75,434.42c-5.24,3.65-10.69,9-15.61,14.35l55,16.36C374.35,436.71,362.19,420.2,341.75,434.42Z"/></g><g class="cls-88"><path class="cls-89" d="M714.07,481c-11.14,46.43-13.8,113.4-8.26,134.54,2.74,10.47,5.74,21.7,8.63,33.4l46,142.28c7.48,3,16.55,4.87,27.53,4.87a77.19,77.19,0,0,0,26.64-4.25Z"/><path class="cls-89" d="M851.53,734c.12-1.6.21-3.2.27-4.82.11-3.21-25.26-208.63-94.35-286Z"/></g><g class="cls-88"><path class="cls-89" d="M758.81,444.77c-.91-1-1.82-2.07-2.74-3.07-14.55-15.8-26.06-6.16-34.6,15.15Z"/><path class="cls-89" d="M806.13,532.48A419,419,0,0,0,786.91,488L708,513.54a511.92,511.92,0,0,0-4.68,52.21Z"/><path class="cls-89" d="M843.08,672.6,726.49,710.33a284.64,284.64,0,0,1,2.4,35.45,47.77,47.77,0,0,0,2.7,15.22L851,722.36C849.85,713.15,847.27,695.3,843.08,672.6Z"/><path class="cls-89" d="M833.56,626.62c-3.57-15.52-7.7-31.86-12.45-48.3L705.83,615.63c3.9,14.87,8.3,31.24,12.21,48.38Z"/><path class="cls-89" d="M835.28,778.15l-54.52,17.64c2.33.18,4.73.3,7.25.3C810.09,796.09,825.27,789.22,835.28,778.15Z"/></g><path class="cls-90" d="M469.91,434.05a32,32,0,0,0-22.16-1.12c-3.86-29.67,12.54-57.61,14.11-60.2-2,2.27-3.26,3.8-3.26,3.8q-4.32.89-8.52,1.9c-6,12.81-14.13,36.18-9.2,60.59l1,5.07,4.58-2.39c.1-.05,10.07-5.13,20.23-.56,7.48,3.37,13.27,11.1,17.29,23,.12-5.73.26-11.46.39-17.19C480.41,440.92,475.57,436.6,469.91,434.05Z"/><path class="cls-90" d="M642.27,433.46c-7.1-1.44-21.68-3-35.06,4.4a42.1,42.1,0,0,0-13.9,12.51q0,8.52,0,17.05c3.72-10.64,9.62-18.27,17.62-22.72,15.14-8.42,33.1-2.81,33.27-2.75l4.15,1.35.87-4.28c5-24.83-3.51-48.56-9.49-61.23q-5-1.38-10.13-2.69C633.89,382.92,645.86,407.54,642.27,433.46Z"/><path class="cls-90" d="M377.54,621.47l-18.08,47.75c-.5,7-1.18,16.09-1.8,25.39l.44.17,26.71-70.56Z"/><path class="cls-90" d="M698.22,622.14,719.45,704c0-.18.09-.34.13-.52,1.78-7.38-.05-17.25-.14-24.84,0-2-.05-4-.07-5.95l-13.62-52.52Z"/><path class="cls-90" d="M389.83,593.19l-.31,3.4c0,.19-1.76,19.32-3.08,38.53-2.82,40.78-1.25,42,.75,43.67,3.29,2.67,35.69,22.88,39.37,25.17l2.18,1.36,2.11-1.47c39.77-27.85,40.74-32.5,41-34,1-4.77,2.35-64.07,2.61-75.9l.1-4.14Zm76.81,4.69c-.11,5.17-.25,10.82-.4,16.59l-70.67,2.65c.44-5.45.9-11,1.39-16.43ZM428.49,696c-12.76-8-31.17-19.58-35.59-22.66-.72-4.89.31-25.17,2.06-48.42L466,622.26c-.57,21.16-1.24,41.94-1.7,45.63C461.91,671.37,444.47,684.72,428.49,696Z"/><path class="cls-90" d="M692.76,635.12c-1.32-19.21-3.06-38.34-3.08-38.53l-.31-3.4-84.78-3.41.1,4.14c.26,11.83,1.61,71.13,2.61,75.9.31,1.53,1.28,6.18,41.05,34l2.11,1.47,2.18-1.36c3.68-2.29,36.08-22.5,39.37-25.17C694,677.17,695.58,675.9,692.76,635.12Zm-10.52-34.43c.49,5.46,1,11,1.39,16.43L613,614.47c-.15-5.77-.29-11.42-.4-16.59Zm4.06,72.65c-4.42,3.08-22.83,14.69-35.59,22.66-16-11.28-33.41-24.62-35.85-28.11-.46-3.73-1.13-24.49-1.7-45.63l71.08,2.66C686,648.16,687,668.44,686.3,673.34Z"/><path class="cls-90" d="M300.34,660.21c-33.08-7.47-55,6.57-68.66,22.38-1.64,7-3.09,13.53-4.33,19.28,10-17.87,31.58-43,71.28-34.07,22.51,5.08,37,20.15,43,44.8.51,2.07.93,4.13,1.28,6.16a158.25,158.25,0,0,1,3.77-16.07C340.32,684.31,327.17,666.27,300.34,660.21Z"/><path class="cls-84" d="M438.09,657.87c-.52,1.14-67.58,16.06-100.55,17.88-33.13,1.83-66.79-20.22-96,9C211,715.38,220.41,770,269,782.4c60.76,15.5,175.64-64.89,180.69-75.35S438.09,657.87,438.09,657.87Z"/><path class="cls-90" d="M848.29,703.23c-.75-4.84-1.63-10.25-2.64-16.14C830.74,669.7,805.9,652,769.52,660.21c-24.78,5.59-37.89,21.42-44.73,38.29,1,6.31,1.86,12.66,2.52,19,3.79-20,14.65-43.11,43.93-49.72C812.32,658.53,836.89,685.38,848.29,703.23Z"/><path class="cls-91" d="M474.44,1344.24s12.22,8.34,74,1.33S612,1327.22,612,1327.22L607,1306l-107.26,3.75-22.18,26.77-3,5.86Z"/><path class="cls-92" d="M438.09,657.87c-.52,1.14-67.58,16.06-100.55,17.88-33.13,1.83-66.79-20.22-96,9C211,715.38,220.41,770,269,782.4c60.76,15.5,175.64-64.89,180.69-75.35S438.09,657.87,438.09,657.87ZM302.93,739.56c-37.09,5.47-71.31-8.21-65.56-32.21a43.55,43.55,0,0,1,27.19-30.69c15-5.77,21.1,2.73,62.36,4.25s94.66-12.45,94.66-12.45l1.36,26.73S340,734.09,302.93,739.56Z"/><path class="cls-93" d="M497.72,1280.09s-5.73,88.26-6.91,96.24-18.61,55.83-19.49,68.06,27.81,53.17,45.87,55.83,74.63-11.07,76.57-12.67,17.76-23.49,16-25.08-26.91-89.33-27.4-90.93-3.57-128.14-3.57-128.14Z"/><path class="cls-94" d="M609.81,1462.47c-1.72-1.6-26.91-89.33-27.4-90.93s-3.57-128.14-3.57-128.14l-81.12,36.69s-5.73,88.26-6.91,96.24-18.61,55.83-19.49,68.06,27.81,53.17,45.87,55.83,74.63-11.07,76.57-12.67S611.52,1464.06,609.81,1462.47Zm-65.4-100.9c-13.5-.29-38.29,10.65-40.61,10.41s.09-37.62.57-37.76c30.09-8.89,62.37-7,64.88-7s2.56,43.26,2.56,43.26S557.91,1361.86,544.41,1361.57Z"/><path class="cls-84" d="M673.22,634.91c.59,1.24,36.18,39,65.22,42.8s61.17-23.15,92.28,9.55c32.53,34.2,10.73,89.24-36.29,102.06S651.89,709,646.19,697.62,673.22,634.91,673.22,634.91Z"/><path class="cls-92" d="M830.72,687.26c-31.11-32.7-63.24-5.73-92.28-9.55s-64.63-41.56-65.22-42.8c0,0-32.74,51.34-27,62.71s101.23,104.53,148.24,91.7S863.25,721.46,830.72,687.26Zm-29.79,48.57c-39.93,10.4-111.19-32.25-113.44-45.6s6.73-25.71,6.73-25.71c8.9,10.48,34.52,19,58.36,20.91s54.74-12.9,66.13,1.24S831,728,800.93,735.83Z"/><path class="cls-95" d="M661.15,714.63c5.16-3.89,8.49-14.09,8.79-17.68.22-2.57,1.24-3.8,3.53-6s4.43-4.51,5.46-7.57c1.13-3.37,1.09-7,1.06-10.16v-.15a9.6,9.6,0,0,1,1.71-6c.46-.67,1-1.32,1.55-2a19.32,19.32,0,0,0,3.39-5.34,28.07,28.07,0,0,0,1.61-7.24c-1.52-1.47-3-2.91-4.28-4.27a24,24,0,0,1-1.4,10.1,15.5,15.5,0,0,1-2.7,4.13c-.58.72-1.18,1.46-1.74,2.26a14,14,0,0,0-2.47,8.43v.15c0,3,.06,6.08-.84,8.77-.76,2.28-2.64,4.2-4.34,5.82-2.54,2.42-4.5,4.59-4.85,8.71-.24,2.8-2.68,11.28-8.44,14C658.36,711.39,659.9,713.82,661.15,714.63Z"/><path class="cls-96" d="M623.46,719.35l-187.41-2.53a5.59,5.59,0,0,1-5.3-5.37L420,547.7c-.37-5.7,3.83-10.48,9.15-10.41l210.33,2.85c5.54.07,9.81,5.35,9.09,11.23L628.72,714.46A5.37,5.37,0,0,1,623.46,719.35Z"/><path class="cls-97" d="M623.46,723.52,436.05,721a5.57,5.57,0,0,1-5.3-5.36L420,551.86c-.37-5.69,3.83-10.47,9.15-10.4l210.33,2.84c5.54.08,9.81,5.36,9.09,11.24L628.72,718.63A5.37,5.37,0,0,1,623.46,723.52Z"/><path class="cls-98" d="M639.42,544.3l-210.14-2.84a2,2,0,0,1-1.95-2v-.28a1.91,1.91,0,0,1,1.95-1.91l210.14,2.83a2,2,0,0,1,1.94,2v.29A1.92,1.92,0,0,1,639.42,544.3Z"/><path class="cls-99" d="M443.94,558.77c0,2.79-3.12,5-7,5s-7-2.36-7-5.15,3.11-5,7-5S443.94,556,443.94,558.77Z"/><path class="cls-100" d="M441.61,558.73c0,1.86-2.07,3.34-4.63,3.31s-4.63-1.57-4.63-3.43,2.07-3.34,4.63-3.31S441.61,556.87,441.61,558.73Z"/><path class="cls-84" d="M642.85,601.22s-16.24,2.86-22.06,4-33.14,3.1-42.77,9.06-8.73,14.79,1.12,16.69c0,0-11,.66-19.55,1.61s-13.15,14.85-1.5,18.43c0,0-9.63,11.2,6.49,14.78,0,0-5.6,6.68,9.18,12.88s56.77,27.66,56.77,27.66l-.63,8.25s26.72-1.1,31-8,2.69-13.36,4.26-14.31,11-10,11-14.31-1.34-11.44,1.35-13.35,10.3-9.06,8.06-16.93-2.32-12.4.4-22.18-9.58-23.37-18.54-28.38-5.31-22.33-4.06-33.22c1.22-10.73-14.35-14-18.16-.21Z"/><path class="cls-92" d="M667.37,597.16c-9-5-5.31-22.33-4.06-33.22,1.22-10.73-14.35-14-18.16-.21l-2.3,37.49s-16.24,2.86-22.06,4-33.14,3.1-42.77,9.06-8.73,14.79,1.12,16.69c0,0-11,.66-19.55,1.61s-13.15,14.85-1.5,18.43c0,0-9.63,11.2,6.49,14.78,0,0-5.6,6.68,9.18,12.88s56.77,27.66,56.77,27.66l-.63,8.25s26.72-1.1,31-8,2.69-13.36,4.26-14.31,11-10,11-14.31-1.34-11.44,1.35-13.35,10.3-9.06,8.06-16.93-2.32-12.4.4-22.18S676.33,602.17,667.37,597.16Zm15.17,52.41c.67,7.15-7.39,12.52-9.74,14.84s.84,7.33,0,13.06-9.41,11.44-10.92,12.34,2.14,7.35-1.34,14-21.16.53-26.37-.9-55.76-24.32-63.32-28.61-2.35-6.8-2.35-6.8c3.92,1.61,83.81,23.25,83.81,23.25l1-3.75s-76.59-20.57-87.17-22.72-9.21-11.54-5.54-11.27,53.07,6.62,53.07,6.62L660,664.23l1.18-4.47L615,655.47s-46.35-5-52.4-5.37-9.23-3.4-9.07-8.05,4.2-7.15,17.14-8,42.69,1.43,61.5,2.32A146.11,146.11,0,0,0,667,633.65v-4.47c-10,4.11-34.22,3.15-34.22,3.15s-41.43-.15-52.18-3.19S575,618,583.85,615.05s48.48-6.26,56.2-7.87,18.31-8,18.31-8c3.11-1.86,10.58,2.15,17.63,9.3s7.39,18.06,5.88,23.07S681.87,642.41,682.54,649.57Z"/><path class="cls-101" d="M621.34,690.64c1.88-7.25,7.79-7.76,7.79-7.76s-5.91-5.66-4.3-13a15.86,15.86,0,0,1,8.06-10.36s-7.52-4.56-6.45-11.77a25,25,0,0,1,5.73-12.17s-9.57-1-8.23-14.72A23.12,23.12,0,0,1,637,602.26c-5.25.94-12.66,2.28-16.21,3-5.82,1.19-33.14,3.1-42.77,9.06s-8.73,14.79,1.12,16.69c0,0-11,.66-19.55,1.61s-13.15,14.85-1.5,18.43c0,0-9.63,11.2,6.49,14.78,0,0-5.6,6.68,9.18,12.88,11.06,4.64,37.36,17.82,49.89,24.17l2.26.1S619.47,697.88,621.34,690.64Z"/><path class="cls-102" d="M616.69,1453c-1.83-6.2-7.56-18.77-14.45-33.07-4.82-10-9.59-20.41-11.77-27l-90.76.88a4.08,4.08,0,0,1-.65,1.85,3.85,3.85,0,0,1-.23.38,6.9,6.9,0,0,1-3.68,2.8,7.48,7.48,0,0,1-5-.11,5.63,5.63,0,0,1-3.15-3.11,3.79,3.79,0,0,1-.3-1.68l-5.45,0c-8.33,14.37-19.5,43.62-20.43,59.08-1.28,21.08,5.14,38.82,31.19,53.66s82.75,13.7,108.54-6.24C615.65,1488.85,622.13,1471.44,616.69,1453Z"/><path class="cls-103" d="M615.06,1447.94c-2.57-6.55-6.3-12.44-12.82-28-4.28-10.22-9.59-20.41-11.77-27l-93.25.91,0,.08h0a3.45,3.45,0,0,0-.12.43,6.2,6.2,0,0,0,.09,1l-.07-.38a5.63,5.63,0,0,1-.61,3.59,6.9,6.9,0,0,1-3.77,3,7.51,7.51,0,0,1-5-.11,5.5,5.5,0,0,1-3.16-3.11,13.08,13.08,0,0,1-.35-4.39l-2.95,0c-8.33,14.37-16.83,41.46-17.94,56.92-1.06,14.7,7.2,35.66,32.09,47.94,29.48,14.55,84.62,9.85,104-5.83C614.22,1481.09,621.61,1464.62,615.06,1447.94Z"/><path class="cls-104" d="M488.51,1373.94l3.35-2.89-2.59,24.42s18.89-23.43,54.58-26.09,40.84,21.5,40.84,21.5l-.87-15.13c1.38-.61,8.15,23,15.8,44.14,5.07,14,12,26.16,12.74,32.21,2.52,19.51-7,30.42-15,37.87-13.23,12.28-74.21,20.92-98.83,6.9s-30.38-30.32-30.81-48.93C467.27,1428.71,488.51,1373.94,488.51,1373.94Z"/><path class="cls-105" d="M364.35,805.82c-21.2,6.78-22.65,17.08-27,38.69-8.5,42,7.81,116.23,17.47,121.24,14.08,7.3,92.35,11.35,92.35,11.35l26.68,367.14s51.36-39.73,138-17c0,0,20.57-409.45,9-437.42C602,844.09,456.69,793.38,432.53,791,419.07,789.59,388.65,798.06,364.35,805.82Z"/><path class="cls-105" d="M440,793.94a67.79,67.79,0,0,0-12.09-3c-14.26-1.43-46.48,8-70.72,16.06-18.81,6.26-23.08,15.15-26.71,34.64-6.94,37.26-1.14,102.9,13.25,122.05,7.59,10.11,62.81,11.09,96.27,12.69Z"/><path class="cls-91" d="M340,1088.33,333.67,1106s6.8,17.35,55.11,30.22c52.24,13.92,87.15-2.25,87.15-2.25s-23.15-48-58.82-57.64S340,1088.33,340,1088.33Z"/><path class="cls-93" d="M396.31,1037.82s-48,105.34-53.28,111-90.66,56.68-94.33,57.5-58.29,5-61.93,10.64-5.23,14.53-5.23,14.53,69.1,36.1,80.53,39.29,150.16,7.46,157.09,7,8.31-50.82,7.46-56.87-9.84-19.35-9.84-19.35l56.27-134.55S431.79,1032.58,396.31,1037.82Z"/><path class="cls-94" d="M416.78,1201.6l56.27-134.55s-41.26-34.47-76.74-29.23c0,0-48,105.34-53.28,111s-90.66,56.68-94.33,57.5-58.29,5-61.93,10.64-5.23,14.53-5.23,14.53,69.1,36.1,80.53,39.29,150.16,7.46,157.09,7,8.31-50.82,7.46-56.87S416.78,1201.6,416.78,1201.6Zm-40.67,3.71s-13.81-20.89-16-28.4-26.38-16.52-26.38-16.52l16.4-12.26s22.88-50.3,24.06-52.8,45.69,5,48,7.51S376.11,1205.31,376.11,1205.31Z"/><path class="cls-106" d="M337.71,1281.68s22.35,10.89,22.89,11,6.88-11.1,6.88-11.1Z"/><path class="cls-104" d="M316.18,1161.79s26.11,2.35,36.79,18.85,19.38,41.48,19.38,41.48l46.47-11.68-.63-6.68,4.28,1.88s8.22,13.69,8.25,18.53-4.65,50-4.65,50l-4.45,7.27s-158.71-7-162.39-8.23-82.17-40.5-81.37-42.92,10.1-19.38,16.62-20.61,53.81-5.38,53.81-5.38Z"/><path class="cls-102" d="M181.5,1223.45l-7.74,1.74s-4,7-3.22,7.8,69.82,44.19,86.14,46.29,106.59,3.33,106.59,3.33-3.49,9.29-2.67,10.09,59.33,3.12,62.31,1.23,7.35-18.91,6.68-20.34a12.12,12.12,0,0,0-3.09-3.6s-3.28,5.66-5.31,6.74-159.12-6.08-162.92-6.34-78.78-41.18-78.78-41.18Z"/><path class="cls-107" d="M333.75,1104.92S434.4,735.28,469.26,707.3s98.55-18.63,115.76-4,156.88,133.91,161.74,151-6.23,89.26-30.66,108.85c-11.15,8.95-41,10.56-89.55,11.07-3.54,0,.34-48.06-7.93-78.67-7.83-29-27.06-36.71-30.07-36.7-7.69,0-20.74,40.56-22.51,46.38-6.62,21.75-22.48,69-22.48,69L475.93,1134s-29.35-42.52-75.41-45S333.75,1104.92,333.75,1104.92Z"/><path class="cls-108" d="M271.58,1216.45A111.46,111.46,0,0,0,237,1205.31c-14.42,1.31-38.05,3.53-42.52,4.37-6.52,1.23-15.81,18.18-16.62,20.61s77.7,41.72,81.37,42.92c.88.29,11.21,1,26.39,1.84C294.8,1261.49,302.63,1232.55,271.58,1216.45Z"/><path class="cls-91" d="M608.51,869.13c-9.3-11.4-16.2-17.18-20.5-17.18-2.54,0-4.22,1.83-9.12,12.67-2.95,6.53-6.91,16.11-11.78,28.47-8.17,20.76-19,49.69-32.26,86C514.27,1035.55,479.41,1124,475.93,1134l-17.09,4.26.52,7.14,20-5S579,872.72,588.56,858.25c6.55,3,27,28.08,29.12,36.15,1.54,5.89,4,51.83,6.71,79.81,2,0,4.34-.1,6.36-.12-1.71-17.47-5.35-74.39-7.23-81.59C622.19,887.45,614.81,876.84,608.51,869.13Z"/><path class="cls-109" d="M422.47,1205.64l-4.28-1.88.63,6.68-46.47,11.68s-.26-.74-.73-2c-5,11.15-15.94,35-18.89,37-3.86,2.67-82.08,4.67-89.68,3.67s-65.91-30-73.94-34.36-2.34-9.48-2.34-9.48l-1.2.44a70.18,70.18,0,0,0-7.71,12.89c-.8,2.42,77.7,41.72,81.37,42.92s163.25,4.63,163.25,4.63l3.59-3.67s4.67-45.17,4.65-50S422.47,1205.64,422.47,1205.64Z"/><path class="cls-103" d="M178.81,1232c1.82,1.13,77.1,42.84,78.71,43.09s167.89,4.33,168.79,4.08c.54-.15,1.74-3.79,2.61-6.63a14,14,0,0,0-2.42-2.51s-3.28,5.66-5.31,6.74-159.12-6.08-162.92-6.34-78.78-41.18-78.78-41.18l2-5.76-7.74,1.74C173.28,1226,177,1230.84,178.81,1232Z"/><path class="cls-110" d="M547.25,1431.34c-66.75.53-74.19,29-74.53,40.16,4.38,9.17,12.22,17.63,25.81,25.37,24.62,14,85.6,5.38,98.83-6.9,8-7.45,17.52-18.36,15-37.87a30.57,30.57,0,0,0-2-6.74C602.92,1437.9,585.71,1431,547.25,1431.34Z"/><path class="cls-111" d="M493.61,1451c-6.72,5.33-.75,20,13,27.82s52.14,3.38,61.79-5.54c3.55-3.29,4.76-33.83-1.49-35S507.78,1439.72,493.61,1451Z"/><path class="cls-112" d="M202.77,1212.76c-4.37,5.17,49.9,29.92,58.53,30.64s24.3-4.21,23-6.37C275,1221.61,241,1211,236.65,1211S206,1208.9,202.77,1212.76Z"/></g></g></svg>