<svg xmlns="http://www.w3.org/2000/svg" xmlns:xlink="http://www.w3.org/1999/xlink" viewBox="0 0 634.54 1475.64"><defs><style>.cls-1{fill:url(#Áåçûìÿííûé_ãðàäèåíò_11);}.cls-2{fill:url(#Áåçûìÿííûé_ãðàäèåíò_487);}.cls-3{fill:url(#Íîâûé_îáðàçåö_ãðàäèåíòà_1);}.cls-4{fill:#2c2c2d;}.cls-5{fill:#333844;}.cls-6{opacity:0.09;}.cls-7{fill:#292d35;}.cls-8{fill:#1c1d1e;}.cls-9{fill:url(#Áåçûìÿííûé_ãðàäèåíò_501);}.cls-10{fill:#3d3d3d;}.cls-11{fill:url(#Áåçûìÿííûé_ãðàäèåíò_486);}.cls-12{fill:url(#Áåçûìÿííûé_ãðàäèåíò_486-2);}.cls-13{fill:url(#Áåçûìÿííûé_ãðàäèåíò_501-2);}.cls-14{fill:url(#Áåçûìÿííûé_ãðàäèåíò_7);}.cls-15{fill:url(#Áåçûìÿííûé_ãðàäèåíò_7-2);}.cls-16{fill:url(#Áåçûìÿííûé_ãðàäèåíò_20);}.cls-17{fill:url(#Áåçûìÿííûé_ãðàäèåíò_20-2);}.cls-18{fill:#8f9299;}.cls-19{fill:#ff9e78;}.cls-20{fill:url(#Áåçûìÿííûé_ãðàäèåíò_487-2);}.cls-21{fill:url(#Áåçûìÿííûé_ãðàäèåíò_487-3);}.cls-22{fill:url(#Áåçûìÿííûé_ãðàäèåíò_487-4);}.cls-23{fill:url(#Áåçûìÿííûé_ãðàäèåíò_487-5);}.cls-24{fill:url(#Áåçûìÿííûé_ãðàäèåíò_440);}.cls-25{fill:url(#Áåçûìÿííûé_ãðàäèåíò_4);}.cls-26{fill:url(#Áåçûìÿííûé_ãðàäèåíò_29);}.cls-27{fill:#cadbef;}.cls-28{fill:url(#Áåçûìÿííûé_ãðàäèåíò_487-6);}.cls-29{fill:url(#Áåçûìÿííûé_ãðàäèåíò_487-7);}.cls-30{fill:url(#Áåçûìÿííûé_ãðàäèåíò_7-3);}.cls-31{fill:url(#Áåçûìÿííûé_ãðàäèåíò_487-8);}.cls-32{fill:url(#Áåçûìÿííûé_ãðàäèåíò_487-9);}.cls-33{fill:url(#Áåçûìÿííûé_ãðàäèåíò_440-2);}.cls-34{fill:url(#Áåçûìÿííûé_ãðàäèåíò_4-2);}.cls-35{fill:url(#Áåçûìÿííûé_ãðàäèåíò_29-2);}.cls-36{fill:#85888e;}.cls-37{fill:url(#Íîâûé_îáðàçåö_ãðàäèåíòà_1-2);}.cls-38{fill:#a8abb2;}.cls-39{fill:url(#Íîâûé_îáðàçåö_ãðàäèåíòà_1-3);}.cls-40{fill:url(#Áåçûìÿííûé_ãðàäèåíò_29-3);}.cls-41{fill:#3e1208;}.cls-42{fill:url(#Áåçûìÿííûé_ãðàäèåíò_16);}.cls-43{opacity:0.44;}.cls-44{fill:#ff9d77;}.cls-45{fill:#ff9c77;}.cls-46{fill:#ff9b76;}.cls-47{fill:#ff9a76;}.cls-48{fill:#ff9975;}.cls-49{fill:#ff9875;}.cls-50{fill:#ff9774;}.cls-51{fill:#ff9674;}.cls-52{fill:#ff9573;}.cls-53{fill:#ff9472;}.cls-54{fill:#ff9372;}.cls-55{fill:#ff9271;}.cls-56{fill:#ff9171;}.cls-57{fill:#ff9070;}.cls-58{fill:#ff8f70;}.cls-59{fill:#ff8e6f;}.cls-60{fill:#ff8d6f;}.cls-61{fill:#ff8c6e;}.cls-62{fill:#ff8b6e;}.cls-63{fill:#ff8a6d;}.cls-64{fill:#ff896c;}.cls-65{fill:#ff886c;}.cls-66{fill:#ff876b;}.cls-67{fill:#ff866b;}.cls-68{fill:#ff856a;}.cls-69{fill:#ff846a;}.cls-70{fill:#ff8369;}.cls-71{fill:#ff8269;}.cls-72{fill:#ff8168;}.cls-73{fill:#ff8067;}.cls-74{fill:#ff7f67;}.cls-75{fill:#ff7e66;}.cls-76{fill:#ff7d66;}.cls-77{fill:#ff7c65;}.cls-78{fill:#ff7b65;}.cls-79{fill:#ff7a64;}.cls-80{fill:#ff7964;}.cls-81{fill:#ff7863;}.cls-82{fill:#ff7762;}.cls-83{fill:#ff7661;}.cls-84{fill:#ff7561;}.cls-85{fill:#ff7460;}.cls-86{fill:#ff7360;}.cls-87{fill:#ff725f;}.cls-88{fill:#ff715f;}.cls-89{fill:#ff705e;}.cls-90{fill:#ff6f5e;}.cls-91{fill:#ff6e5d;}.cls-92{fill:#ff6d5c;}.cls-93{fill:#ff6c5c;}.cls-94{fill:#ff6b5b;}.cls-95{fill:#ff6a5b;}.cls-96{fill:#ff695a;}.cls-97{fill:#ff685a;}.cls-98{fill:#ff6759;}.cls-99{fill:#ff6659;}.cls-100{fill:#ff6558;}.cls-101{fill:#ff6457;}.cls-102{fill:#ff6357;}.cls-103{fill:#ff6256;}.cls-104{fill:#ff6156;}.cls-105{fill:#ff6055;}.cls-106{fill:#ff5f55;}.cls-107{fill:#ff5e54;}.cls-108{fill:#ff5d54;}.cls-109{fill:#ff5c53;}.cls-110{fill:#ff5b53;}.cls-111{fill:#ff5a52;}.cls-112{fill:#ff5951;}.cls-113{fill:#ff5851;}.cls-114{fill:#ff5750;}.cls-115{fill:#ff5650;}.cls-116{fill:#ff554f;}.cls-117{fill:#ff544f;}.cls-118{fill:#ff534e;}.cls-119{fill:#ff524e;}.cls-120{fill:#ff514d;}.cls-121{fill:url(#Áåçûìÿííûé_ãðàäèåíò_29-4);}.cls-122{fill:url(#Áåçûìÿííûé_ãðàäèåíò_29-5);}.cls-123{fill:#7c302a;}.cls-124{fill:url(#Áåçûìÿííûé_ãðàäèåíò_57);}.cls-125{fill:#59352c;}.cls-126,.cls-130,.cls-140,.cls-143{fill:#fff;}.cls-126{opacity:0.12;}.cls-127{fill:#ffbc80;}.cls-127,.cls-145{opacity:0.11;}.cls-128{fill:url(#Áåçûìÿííûé_ãðàäèåíò_16-2);}.cls-129{fill:url(#Áåçûìÿííûé_ãðàäèåíò_16-3);}.cls-131{fill:url(#Áåçûìÿííûé_ãðàäèåíò_12);}.cls-132{fill:url(#Áåçûìÿííûé_ãðàäèåíò_12-2);}.cls-133{fill:#603f37;}.cls-134{fill:url(#Áåçûìÿííûé_ãðàäèåíò_57-2);}.cls-135{fill:url(#Áåçûìÿííûé_ãðàäèåíò_57-3);}.cls-136{fill:url(#Áåçûìÿííûé_ãðàäèåíò_16-4);}.cls-137{fill:#fb755c;}.cls-138{fill:#1e1d1d;}.cls-139{fill:url(#Áåçûìÿííûé_ãðàäèåíò_57-4);}.cls-140{opacity:0.82;}.cls-141{fill:url(#Áåçûìÿííûé_ãðàäèåíò_24);}.cls-142{fill:url(#Áåçûìÿííûé_ãðàäèåíò_29-6);}.cls-143{opacity:0.2;}.cls-144{fill:#cc5c50;opacity:0.34;}</style><linearGradient id="Áåçûìÿííûé_ãðàäèåíò_11" x1="317.27" y1="1486.61" x2="317.27" y2="1404.54" gradientUnits="userSpaceOnUse"><stop offset="0" stop-color="#fff"/><stop offset="1" stop-color="#a5b7c6"/></linearGradient><linearGradient id="Áåçûìÿííûé_ãðàäèåíò_487" x1="316.94" y1="300.97" x2="316.94" y2="327.14" gradientUnits="userSpaceOnUse"><stop offset="0" stop-color="#db7d67"/><stop offset="1" stop-color="#ff9e78"/></linearGradient><linearGradient id="Íîâûé_îáðàçåö_ãðàäèåíòà_1" x1="312.56" y1="330.38" x2="312.56" y2="465.91" gradientUnits="userSpaceOnUse"><stop offset="0" stop-color="#deefff"/><stop offset="1" stop-color="#cadbef"/></linearGradient><linearGradient id="Áåçûìÿííûé_ãðàäèåíò_501" x1="-2414.81" y1="1033.35" x2="-2399.57" y2="859.13" gradientTransform="matrix(-1, 0, 0, 1, -2000.4, 0)" gradientUnits="userSpaceOnUse"><stop offset="0" stop-color="#3d434f"/><stop offset="1" stop-color="#333844"/></linearGradient><linearGradient id="Áåçûìÿííûé_ãðàäèåíò_486" x1="139.28" y1="1405.23" x2="139.77" y2="1432.32" gradientUnits="userSpaceOnUse"><stop offset="0" stop-color="#5b5b60"/><stop offset="1" stop-color="#2c2c2d"/></linearGradient><linearGradient id="Áåçûìÿííûé_ãðàäèåíò_486-2" x1="491.56" y1="1405.19" x2="492.06" y2="1432.41" xlink:href="#Áåçûìÿííûé_ãðàäèåíò_486"/><linearGradient id="Áåçûìÿííûé_ãðàäèåíò_501-2" x1="222.45" y1="1035.14" x2="237.84" y2="859.25" gradientTransform="matrix(1, 0, 0, 1, 0, 0)" xlink:href="#Áåçûìÿííûé_ãðàäèåíò_501"/><linearGradient id="Áåçûìÿííûé_ãðàäèåíò_7" x1="317.92" y1="345.91" x2="317.92" y2="368.31" gradientUnits="userSpaceOnUse"><stop offset="0" stop-color="#b3cbe2"/><stop offset="1" stop-color="#cadbef"/></linearGradient><linearGradient id="Áåçûìÿííûé_ãðàäèåíò_7-2" x1="319.51" y1="574.43" x2="319.51" y2="747.5" xlink:href="#Áåçûìÿííûé_ãðàäèåíò_7"/><linearGradient id="Áåçûìÿííûé_ãðàäèåíò_20" x1="261.44" y1="757.32" x2="293.27" y2="757.32" gradientUnits="userSpaceOnUse"><stop offset="0" stop-color="#5f6163"/><stop offset="1" stop-color="#444749"/></linearGradient><linearGradient id="Áåçûìÿííûé_ãðàäèåíò_20-2" x1="279.52" y1="756.58" x2="293.1" y2="756.58" xlink:href="#Áåçûìÿííûé_ãðàäèåíò_20"/><linearGradient id="Áåçûìÿííûé_ãðàäèåíò_487-2" x1="42.99" y1="786.87" x2="15.74" y2="786.87" xlink:href="#Áåçûìÿííûé_ãðàäèåíò_487"/><linearGradient id="Áåçûìÿííûé_ãðàäèåíò_487-3" x1="61.91" y1="808.45" x2="-1.28" y2="815.26" xlink:href="#Áåçûìÿííûé_ãðàäèåíò_487"/><linearGradient id="Áåçûìÿííûé_ãðàäèåíò_487-4" x1="63.55" y1="823.68" x2="0.36" y2="830.49" xlink:href="#Áåçûìÿííûé_ãðàäèåíò_487"/><linearGradient id="Áåçûìÿííûé_ãðàäèåíò_487-5" x1="53.19" y1="766.16" x2="67.16" y2="761.51" xlink:href="#Áåçûìÿííûé_ãðàäèåíò_487"/><linearGradient id="Áåçûìÿííûé_ãðàäèåíò_440" x1="76.99" y1="798.81" x2="30.68" y2="752.5" gradientUnits="userSpaceOnUse"><stop offset="0" stop-color="#ffb9a4"/><stop offset="1" stop-color="#ff9e78"/></linearGradient><linearGradient id="Áåçûìÿííûé_ãðàäèåíò_4" x1="27.18" y1="819.48" x2="36.94" y2="797.55" gradientUnits="userSpaceOnUse"><stop offset="0" stop-color="#ffb9a4"/><stop offset="0.11" stop-color="#ffb69f"/><stop offset="1" stop-color="#ff9e78"/></linearGradient><linearGradient id="Áåçûìÿííûé_ãðàäèåíò_29" x1="120.51" y1="631.79" x2="23.07" y2="696.53" gradientUnits="userSpaceOnUse"><stop offset="0" stop-color="#f28c70"/><stop offset="1" stop-color="#ff9e78"/></linearGradient><linearGradient id="Áåçûìÿííûé_ãðàäèåíò_487-6" x1="-3024.51" y1="786.87" x2="-3051.76" y2="786.87" gradientTransform="matrix(-1, 0, 0, 1, -2432.8, 0)" xlink:href="#Áåçûìÿííûé_ãðàäèåíò_487"/><linearGradient id="Áåçûìÿííûé_ãðàäèåíò_487-7" x1="-3005.59" y1="808.45" x2="-3068.78" y2="815.26" gradientTransform="matrix(-1, 0, 0, 1, -2432.8, 0)" xlink:href="#Áåçûìÿííûé_ãðàäèåíò_487"/><linearGradient id="Áåçûìÿííûé_ãðàäèåíò_7-3" x1="317.35" y1="483.66" x2="317.35" y2="730.84" xlink:href="#Áåçûìÿííûé_ãðàäèåíò_7"/><linearGradient id="Áåçûìÿííûé_ãðàäèåíò_487-8" x1="-3003.95" y1="823.68" x2="-3067.14" y2="830.49" gradientTransform="matrix(-1, 0, 0, 1, -2432.8, 0)" xlink:href="#Áåçûìÿííûé_ãðàäèåíò_487"/><linearGradient id="Áåçûìÿííûé_ãðàäèåíò_487-9" x1="-3014.31" y1="766.16" x2="-3000.34" y2="761.51" gradientTransform="matrix(-1, 0, 0, 1, -2432.8, 0)" xlink:href="#Áåçûìÿííûé_ãðàäèåíò_487"/><linearGradient id="Áåçûìÿííûé_ãðàäèåíò_440-2" x1="-2990.51" y1="798.81" x2="-3036.82" y2="752.5" gradientTransform="matrix(-1, 0, 0, 1, -2432.8, 0)" xlink:href="#Áåçûìÿííûé_ãðàäèåíò_440"/><linearGradient id="Áåçûìÿííûé_ãðàäèåíò_4-2" x1="-3040.32" y1="819.48" x2="-3030.56" y2="797.55" gradientTransform="matrix(-1, 0, 0, 1, -2432.8, 0)" xlink:href="#Áåçûìÿííûé_ãðàäèåíò_4"/><linearGradient id="Áåçûìÿííûé_ãðàäèåíò_29-2" x1="-2946.99" y1="631.79" x2="-3044.43" y2="696.53" gradientTransform="matrix(-1, 0, 0, 1, -2432.8, 0)" xlink:href="#Áåçûìÿííûé_ãðàäèåíò_29"/><linearGradient id="Íîâûé_îáðàçåö_ãðàäèåíòà_1-2" x1="491.89" y1="526.83" x2="494.17" y2="545.59" xlink:href="#Íîâûé_îáðàçåö_ãðàäèåíòà_1"/><linearGradient id="Íîâûé_îáðàçåö_ãðàäèåíòà_1-3" x1="142.2" y1="518.67" x2="139.08" y2="542.41" xlink:href="#Íîâûé_îáðàçåö_ãðàäèåíòà_1"/><linearGradient id="Áåçûìÿííûé_ãðàäèåíò_29-3" x1="197.1" y1="294.9" x2="236.68" y2="294.9" gradientTransform="matrix(0.97, 0.25, -0.25, 0.97, 87.11, -140.69)" xlink:href="#Áåçûìÿííûé_ãðàäèåíò_29"/><linearGradient id="Áåçûìÿííûé_ãðàäèåíò_16" x1="303.83" y1="174.7" x2="303.83" y2="205.53" gradientTransform="translate(-6.25 -85.85) rotate(-2.6)" gradientUnits="userSpaceOnUse"><stop offset="0" stop-color="#c6664f"/><stop offset="1" stop-color="#ff9e78"/></linearGradient><linearGradient id="Áåçûìÿííûé_ãðàäèåíò_29-4" x1="384.58" y1="327.81" x2="424.7" y2="327.81" gradientTransform="translate(-6.25 -85.85) rotate(-2.6)" xlink:href="#Áåçûìÿííûé_ãðàäèåíò_29"/><linearGradient id="Áåçûìÿííûé_ãðàäèåíò_29-5" x1="397.25" y1="292.83" x2="417.31" y2="292.83" gradientTransform="translate(-6.25 -85.85) rotate(-2.6)" xlink:href="#Áåçûìÿííûé_ãðàäèåíò_29"/><linearGradient id="Áåçûìÿííûé_ãðàäèåíò_57" x1="320.37" y1="41.98" x2="319.89" y2="118.24" gradientTransform="translate(0.68 -31.1) rotate(-0.6)" gradientUnits="userSpaceOnUse"><stop offset="0" stop-color="#75483b"/><stop offset="0.35" stop-color="#704538"/><stop offset="0.75" stop-color="#633c30"/><stop offset="1" stop-color="#563428"/></linearGradient><linearGradient id="Áåçûìÿííûé_ãðàäèåíò_16-2" x1="343.73" y1="192.81" x2="342.42" y2="273.07" xlink:href="#Áåçûìÿííûé_ãðàäèåíò_16"/><linearGradient id="Áåçûìÿííûé_ãðàäèåíò_16-3" x1="263.87" y1="190.1" x2="262.54" y2="271.63" xlink:href="#Áåçûìÿííûé_ãðàäèåíò_16"/><linearGradient id="Áåçûìÿííûé_ãðàäèåíò_12" x1="263.7" y1="190.69" x2="271.73" y2="169.29" gradientUnits="userSpaceOnUse"><stop offset="0" stop-color="#704a3e"/><stop offset="1"/></linearGradient><linearGradient id="Áåçûìÿííûé_ãðàäèåíò_12-2" x1="351.89" y1="183.37" x2="356.78" y2="169.85" xlink:href="#Áåçûìÿííûé_ãðàäèåíò_12"/><linearGradient id="Áåçûìÿííûé_ãðàäèåíò_57-2" x1="279.47" y1="102.23" x2="278.81" y2="125.12" gradientTransform="matrix(1, 0.1, 0.01, 1.01, -9.05, -3.73)" xlink:href="#Áåçûìÿííûé_ãðàäèåíò_57"/><linearGradient id="Áåçûìÿííûé_ãðàäèåíò_57-3" x1="392.66" y1="168.8" x2="392.12" y2="187.47" gradientTransform="matrix(0.97, -0.03, 0.01, 1.03, -32.83, -32.89)" xlink:href="#Áåçûìÿííûé_ãðàäèåíò_57"/><linearGradient id="Áåçûìÿííûé_ãðàäèåíò_16-4" x1="308.99" y1="241.65" x2="309.29" y2="249.41" gradientTransform="matrix(1, 0, 0, 1, 0, 0)" xlink:href="#Áåçûìÿííûé_ãðàäèåíò_16"/><linearGradient id="Áåçûìÿííûé_ãðàäèåíò_57-4" x1="308.55" y1="390.08" x2="309.39" y2="253.26" gradientTransform="translate(-7.98 -54.91) rotate(-2.65)" xlink:href="#Áåçûìÿííûé_ãðàäèåíò_57"/><linearGradient id="Áåçûìÿííûé_ãðàäèåíò_24" x1="284.27" y1="389.05" x2="284.85" y2="404.88" gradientTransform="matrix(0.99, -0.12, 0.12, 0.99, -24.05, -138.41)" gradientUnits="userSpaceOnUse"><stop offset="0" stop-color="#4c2e25"/><stop offset="0.39" stop-color="#513127"/><stop offset="0.83" stop-color="#5e3a2e"/><stop offset="1" stop-color="#663f32"/></linearGradient><linearGradient id="Áåçûìÿííûé_ãðàäèåíò_29-6" x1="290.87" y1="319.78" x2="290.87" y2="306.07" gradientTransform="translate(-6.25 -85.85) rotate(-2.6)" xlink:href="#Áåçûìÿííûé_ãðàäèåíò_29"/></defs><g id="Layer_2" data-name="Layer 2"><g id="Ñëîé_1" data-name="Ñëîé 1"><path class="cls-1" d="M634.54,1448.21s-142,27.43-317.27,27.43S0,1448.21,0,1448.21s142.05-27.43,317.27-27.43S634.54,1448.21,634.54,1448.21Z"/><path class="cls-2" d="M387.3,316.05c-8-1.72-17-5.41-26.42-6.43l1.32-57.32c.47-17.48-18.18-31.45-42.18-31.07h0c-23,.38-43,15-43.43,32.47l-1.43,57.22A231.4,231.4,0,0,0,246.28,317l.69,52.56H387.61Z"/><path class="cls-3" d="M536.6,585.11c-2-12.33-4.61-34.05-6.21-48.79-7-64.41-1.33-134.91-31.16-164.9-27.5-27.63-71.85-41.53-112.61-56.42-2.76-4.2-11-14.41-24.76-14.52,0,0-8.28,22.11-43.12,35.11h-.05c-34.85-13-43.12-35.11-43.12-35.11-13.76.11-22,10.45-24.77,14.65-33.84,11.31-77.39,26.8-108.93,52.95-30.39,25.18-31.46,105-38.48,169.41-1.6,14.73-12.87,32.75-14.87,45.07,1.61.38,49,19.44,80,28.47l4.74-10.46c-2,69.38-4.27,63.3-3.2,103.7.18,6.77,9.75,14.72,10.87,16.9C186.35,731.55,251,736.25,317,736.42h2c66-.17,131.88-4.87,137.26-15.25C457.41,719,467,711,467.21,704.27c1.07-40.4-1.13-34.33-3.13-103.71L468.85,611C499.85,602,535,585.49,536.6,585.11Z"/><path class="cls-4" d="M170.07,1384.09c-1,.52-80.88,44.1-81.77,57.82,0,.56-2.28,1-2.62,1.41l-.12,5.38c42.77,14.39,128.85-2.61,128.85-2.61s.2,3.44,1.06,3.53c17.05,1.73,46-2.2,48-3.81.4-.33,1-5,.84-9.09,0-.39-1.12-1.31-1.12-1.31.93-16.18.9-47.38,1-48.11C267.05,1373.26,176.63,1359.88,170.07,1384.09Z"/><path class="cls-4" d="M461.43,1384.09c1.05.52,80.88,44.1,81.77,57.82,0,.56,2.28,1,2.62,1.41l.12,5.38c-42.77,14.39-128.85-2.61-128.85-2.61s-.2,3.44-1.06,3.53c-17,1.73-46-2.2-48-3.81-.4-.33-1-5-.83-9.09,0-.39,1.11-1.31,1.11-1.31-.93-16.18-.9-47.38-1-48.11C364.45,1373.26,454.87,1359.88,461.43,1384.09Z"/><path class="cls-5" d="M270.48,1407.56c28.47-315.35,41.28-566.43,43.66-636.7L170.59,755c-9.91,110.46-1.22,395.45-18,639,0,0,13.62-7.77,40.9-6.35,26,1.36,55.68,17.52,70.36,22Z"/><path class="cls-5" d="M362,1407.47c-28.46-315.35-42.06-566.34-44.44-636.61L464.1,755c1.39,15.43,7.71,56,7.71,56s-4.18,34.36-4.21,87.51c-.08,123.08,1.32,349.22,11.4,495.55,0,0-13.95-6-40.82-6.41-15.17-.24-55.92,17.52-70.6,22Z"/><g class="cls-6"><path d="M323.06,813.94a28.36,28.36,0,0,1,1.17-9.34l-3.92.58s.12,3.49.33,10.08C321.45,814.82,322.25,814.37,323.06,813.94Z"/></g><path class="cls-5" d="M171.89,723.77c-.88,16.77-3.8,29.26-4.43,42.35C166.77,780.3,162,804.6,162,804.6l4,76.08s84-32.3,174.54-33c58.83-.48,109,3.89,112.87-20,3.46-21.63,8.9-48.2,8.05-102.25,0,0-3.24-5.78-5.65-5.53-14.72,1.51-63.43,7.25-141.92,6.27-86.29-1.08-124.57-6.66-135.48-7.6C176.72,718.35,172,722.13,171.89,723.77Z"/><path class="cls-7" d="M289.09,840.67l-1,6.36c23.9.81,54.84.17,54.84.17l-.13-6.53Z"/><path class="cls-8" d="M313.85,743.43c-75.31,0-122.53-3.41-143.06-5.32-2.51-.05-6.18,26.75-3.33,28,21.91,2,71.22,5.67,146.39,5.67,65.77,0,124.06-4,151.13-6.06,2.37.21-.53-27.62-3.11-27.62C436.67,740,381.88,743.43,313.85,743.43Z"/><polygon class="cls-5" points="249.17 781.55 231.96 780.66 231.44 733.27 248.64 734.16 249.17 781.55"/><polygon class="cls-5" points="389.46 781.55 372.33 780.66 375.59 733.27 392.73 734.16 389.46 781.55"/><path class="cls-7" d="M442.41,791.3l-5.09,3.56,32.34,40.6c.06-3.36,1.1-10.5,1-13.52Z"/><path class="cls-9" d="M457.47,847.34s8,228.07,3.15,233-30.26,25.16-36.95,24.51c-10.83-1.06-62-24.32-64.76-31.83s-14-222.52-10-222.42S457.47,847.34,457.47,847.34Z"/><path class="cls-5" d="M352.45,1297.78c-.18,0,.71,19.33.75,20.44.19,5.21-.86,11-.15,16,.77,5.39,4.63,10,4.23,15.66-.26,3.53-2.27,6.64-3.86,9.8s-2.82,6.91-1.46,10.18c1.14,2.72,3.89,4.56,4.87,7.35,1.29,3.69-.8,7.18-1.05,10.82-.28,4,.88,8.44,1.13,12.56.13,2.05-.49,15,1.62,16.2s7,3.6,9.24,3.13c17.13-3.65,43.51-25.36,65.12-30.44,24.57-5.78,46.11,4.5,46.11,4.5-2.19-.63.37-15.68,1-17.17,1-2.29,2.43-4.46,2.67-6.94.66-6.85-7.94-12.38-6.45-19.09.77-3.43,4.09-6.07,4.14-9.58,0-2.9-2.15-5.27-3.57-7.79-2.74-4.87-1.61-10-1.9-15.27l-.87-16.08c0-.81-.9-15.11-.81-15.12Z"/><path class="cls-5" d="M279.71,1296.89c.18,0-1,21.11-1,22.22-.2,5.2.06,10.1-.65,15.12-.76,5.39-2.75,8.74-2.34,14.38.25,3.53.38,7.92,2,11.08s2.82,6.91,1.45,10.18c-1.14,2.72-3.89,4.56-4.86,7.35-1.3,3.69.79,7.18,1,10.82.28,4-.87,8.44-1.13,12.56-.13,2.05.49,15-1.61,16.2a23.68,23.68,0,0,1-8.67,2.55c-30.94,0-45.28-23.21-65.13-28.29-24.45-6.26-46.67,2.93-46.67,2.93,2.18-.63-.37-15.68-1-17.17-1-2.29-2.44-4.46-2.68-6.94-.66-6.85,7.94-12.38,6.45-19.09-.76-3.43-4.08-6.07-4.14-9.58,0-2.9,2.15-5.27,3.57-7.79,2.75-4.87,1.61-10,1.9-15.27s.58-10.72.87-16.08c0-.81,1.47-16.29,1.39-16.29Z"/><path class="cls-10" d="M213.24,1439.27c-22.83,2.8-48.71,6-70.35,6.35-32.86.56-49-2.59-54.55-4,0,.1,0,.21,0,.31,0,.56-2.28,1-2.62,1.41v.15c2.82.92,16.45,4.74,49.46,4.74q3.74,0,7.79-.07c21.78-.37,47.73-3.56,70.62-6.37,22.14-2.71,41.29-5.06,50.75-4.15,0-.3,0-.61,0-.9s-1.12-1.31-1.12-1.31l0-.41C253.07,1434.38,234.53,1436.66,213.24,1439.27Z"/><path class="cls-10" d="M418.24,1439.27c22.83,2.8,48.7,6,70.34,6.35,32.85.56,49-2.6,54.59-4,0,.11,0,.22,0,.32,0,.56,2.28,1,2.62,1.41v.13c-2.82.93-16.49,4.76-49.5,4.76q-3.72,0-7.79-.07c-21.77-.37-47.71-3.56-70.6-6.37-22.13-2.71-41.28-5.06-50.74-4.15,0-.3,0-.61,0-.9s1.11-1.31,1.11-1.31,0-.28,0-.41C378.42,1434.38,397,1436.66,418.24,1439.27Z"/><path class="cls-11" d="M185.81,1427.18c-28.3-16.8-53.82-15.11-72-9.14-9,6.14-16.79,12.13-21.34,17,6.31,1.49,17.64,3.12,37.7,3.62C170.06,1439.62,192.74,1431.3,185.81,1427.18Z"/><path class="cls-12" d="M539.11,1435.12c-4.61-4.95-12.67-11.1-21.91-17.4-18.09-5.71-43.18-7-71,9.46-6.93,4.12,15.75,12.44,55.62,11.45C521.46,1438.14,532.71,1436.58,539.11,1435.12Z"/><path class="cls-13" d="M179.58,847.34s-9.78,230-5,234.92,31.4,25.65,38.1,25c10.83-1,63-31,65.73-38.53s13.68-218.25,9.64-218.15S179.58,847.34,179.58,847.34Z"/><path class="cls-14" d="M386.62,315c-4.67,10.1-19.14,37.63-25.34,41.08-5.94,3.32-28.82-15-38.1-22.65-2.78,1-4.45,1.68-4.45,1.68-1.45-.52-2.84-1.07-4.2-1.62-9.57,6.26-31,19.62-39.22,19.12-9.19-.55-20.62-29.08-24.51-37.58-1.67.64-5.94,2.06-5.94,2.06,4,9.91,17.24,41.82,24.36,46.48C277.6,369.05,318.3,339,318.3,339s34.06,30.3,44.13,29c8.64-1.11,24.35-39.7,28.56-51.37Z"/><path class="cls-15" d="M323.18,726.14l-2.1-390.39h-5.25s3.06,325,1.14,390.42Z"/><path class="cls-16" d="M338.24,743.28s-52-.53-52,.47c0,0-.45,27,0,27.44s52.31.42,52.31.42,0,4.42-.88,5c-3.18,1.93-56.82,1.36-58.3,0s-.5-36.52.64-38.45,56-1.3,57.07-.51S338.24,743.28,338.24,743.28Z"/><path class="cls-17" d="M281.75,753.68s-.49,5.79-.08,6.2,12.53-.1,12.83-.34.46-5.33.12-6.15C294.38,752.81,282.23,753.27,281.75,753.68Z"/><path class="cls-18" d="M192.29,791.3S61.91,790,60.05,795.17,163,823.46,163,823.46Z"/><path class="cls-7" d="M196.75,794.68l-33.39,36.25c0-3.47-.41-7.76-.41-7.76s23.76-26.54,29.34-31.87Z"/><path class="cls-19" d="M109.24,560.41s-21.07,34.94-35,70-43.44,81-46.6,93c-1.1,4.14,41.8,16.69,43,16.56s56.41-70,75.11-99.06,18.11-32.93,22.78-51.41C169,587.65,109.24,560.41,109.24,560.41Z"/><path class="cls-19" d="M42.76,714.09c-.67-.35-10.68-1.22-10.68-1.22s-27.47,64.45-27,74.7S18.94,807.2,18.94,807.2s8.83,23.8,14,26.06,16.83-.69,16.83-.69,5.33,4,10.66,2.95S80.91,823,78.75,818s-7.56-4.33-7.56-4.33,8.92-7,6.49-11.34-8.86-3.08-8.86-3.08-1.13-3.89-4.43-3.8c0,0,7.5-.08,9.06-6.14s-2.63-12.42-2.63-12.42,7.12-12.05,7.12-19.74-2.75-12.1-3-16.21c-.13-2.67,3.64-10.3,3.64-10.3Z"/><path class="cls-20" d="M68.37,798.14a4.75,4.75,0,0,0-3.14-2.64,45.11,45.11,0,0,1-4.79-.26c-5.74-.58-21.35-21.68-21.35-21.68l-11.19,9-9.34,1.49v2.16s6.68-1,7.61-1,3.19,4,3.19,4A15.8,15.8,0,0,1,39,797.71a28.79,28.79,0,0,1,10.71,2.47s5.76-3.86,9.57-4S68.33,798.13,68.37,798.14Z"/><path class="cls-21" d="M71.05,799.05a12.4,12.4,0,0,0-2.11.15c-.78,1.52-5.09,13.55-5.83,14s-20.42,4.36-24,3.12c-3-1-15.68-6.37-19.85-8.21.34.89.92,2.37,1.65,4.17,5.09,2.05,16.65,6.7,18,7,1.67.41,25.86-4.1,26.35-4.62S70.25,801.32,71.05,799.05Z"/><path class="cls-22" d="M49.76,832.57a17.7,17.7,0,0,0,2.61,1.53c4.35-2.85,16-10.47,16.54-10.93s3.79-6.75,5.09-9.29a8.26,8.26,0,0,0-2.81-.24s-4.36,7.42-4.75,7.94S53.49,830,49.31,832.67Z"/><path class="cls-23" d="M70.82,776.86s1.21-2.05,2.63-5c-2.8-7.75-10.22-27.83-11.77-28-1.92-.21-11,8.54-11,8.54s2.43,7.18,2.84,7.7,14.33,16.49,18.67,19.3A15.64,15.64,0,0,1,70.82,776.86Z"/><path class="cls-24" d="M32.91,746c-.53.19-10.19,20.5-8.73,22.49s14.9,3.74,14.9,3.74,15.43,20.49,20.82,21.13c5,.59,9.87-.23,11.43-2.15,2.12-2.63,1.57-7.75-.28-11.78-.93-2-13.87-13.7-17.28-19C52.19,758,50.65,750,50.65,750S35.16,745.17,32.91,746Z"/><path class="cls-25" d="M9.46,788.94s14-4.5,16.71-3.68,3.19,4,3.19,4,4.39,1.52,6.36,3.81A32.67,32.67,0,0,1,39,797.71s7.49-.29,10.71,2.47c0,0,4.75-4.28,10.55-3.95s7.62.83,8.08,1.91-4.21,14.77-5.26,15.09-21.83,3.7-23.27,3.27S19.7,808,19.29,808.14s-12.61-12.71-13-15.67S9.46,788.94,9.46,788.94Z"/><path class="cls-26" d="M163,609.79c-10.33-11.95-27-30-39.7-42.92-8.1-3.76-14-6.46-14-6.46s-21.07,34.94-35,70c-10.52,26.55-30,59.33-40.23,78.88,9.61-17.45,51.32-93.41,54.47-102.55,0,0,38.64,4.9,46.8,15.23S59.64,722.67,62.05,724.84,72.79,731.53,75,740.91h0c-.13-2.67,3.64-10.3,3.64-10.3l0,0c16.18-20.05,52.68-67.18,67.19-89.71C155.77,625.35,160.25,617,163,609.79Z"/><path class="cls-27" d="M105.54,524.45s-6.92,6.16-7,7.17c-1.62,14.26-2.2,28.79-2.2,28.79s-16,35.43-15.09,37.34S87,601.87,87,601.87s15.61-6.63,36.69,3.54c21.3,10.27,27.69,26.64,27.69,26.64s9.53,2.53,10.66,1.89,13-14.63,13-14.63,6.16-81.35,4.9-81.85C161.38,530.12,105.54,524.45,105.54,524.45Z"/><path class="cls-18" d="M442.41,791.3s130.38-1.31,132.24,3.87-107,25.13-107,25.13Z"/><path class="cls-19" d="M525.47,560.41s21.07,34.94,34.95,70,43.44,81,46.6,93c1.1,4.14-41.8,16.69-43,16.56s-56.41-70-75.11-99.06S470.82,608,466.16,589.47C465.7,587.65,525.47,560.41,525.47,560.41Z"/><path class="cls-19" d="M591.94,714.09c.67-.35,10.69-1.22,10.69-1.22s27.46,64.45,27,74.7-13.82,19.63-13.82,19.63-8.83,23.8-14,26.06-16.82-.69-16.82-.69-5.34,4-10.67,2.95S553.79,823,556,818s7.55-4.33,7.55-4.33-8.92-7-6.49-11.34,8.86-3.08,8.86-3.08,1.13-3.89,4.43-3.8c0,0-7.5-.08-9.06-6.14s2.63-12.42,2.63-12.42-7.12-12.05-7.12-19.74,2.75-12.1,3-16.21c.14-2.67-3.64-10.3-3.64-10.3Z"/><path class="cls-28" d="M566.34,798.14a4.71,4.71,0,0,1,3.13-2.64,45,45,0,0,0,4.79-.26c5.75-.58,21.36-21.68,21.36-21.68l11.18,9,9.34,1.49v2.16s-6.69-1-7.62-1-3.19,4-3.19,4a15.8,15.8,0,0,0-9.67,8.48A28.79,28.79,0,0,0,585,800.18s-5.76-3.86-9.57-4S566.37,798.13,566.34,798.14Z"/><path class="cls-29" d="M563.65,799.05a12.3,12.3,0,0,1,2.11.15c.78,1.52,5.1,13.55,5.84,14s20.41,4.36,24,3.12c3-1,15.68-6.37,19.85-8.21-.34.89-.91,2.37-1.65,4.17-5.09,2.05-16.65,6.7-18,7-1.68.41-25.87-4.1-26.36-4.62S564.45,801.32,563.65,799.05Z"/><path class="cls-30" d="M511.05,605.41c21.09-10.17,36.69-3.54,36.69-3.54s4.78-2.2,5.74-4.12c.62-1.24-5.87-16.5-10.54-27.12,0,0,4.35,18.62,2.93,20.89s-9.67-1.7-35,4-35.28,27-36.42,27.31-19.82-37.63-19.82-37.63l-4.08-47.73c21.56-12.5,67.29-12.37,79.61-12.15a4,4,0,0,0-1-.72h0c-.12-2-.23-2.48-.34-3.62-36.18-7.78-79.19,9.66-79.19,9.66l-6.51-109.77-5.81,1.07s8.5,273.49,5.1,275.28-119.34,6.1-122.1,6.09-124-7.24-128-12.62,8-268.09,8-268.09h-4.59L181.76,531.23c-21.5-14.57-67.4-14.28-76.21-14.06-.27,2.56-.53,5.06-.8,7.59,35.5-4.47,75.15,12.72,75.15,12.72l-2.73,52.13s-19.73,35-20.76,34.22-9-17.75-25.75-25.45-41.86-4.64-42.07-4.89.45-11.15,1-17.84c-4.26,9.86-8.87,21.05-8.35,22.1,1,1.92,5.74,4.12,5.74,4.12s15.61-6.63,36.69,3.54c21.3,10.27,27.69,26.64,27.69,26.64s9.53,2.53,10.66,1.89c.8-.45,7-7.67,10.58-11.79-1.78,47-3.43,46.49-2.49,82.12.18,6.77,9.87,14.72,11,16.9,0,0,82.89,5,139.22,5,53.84,0,136.1-5,136.1-5,1.12-2.18,10.69-10.13,10.87-16.9.92-34.79-.61-35.12-2.33-78.85,3.33,3.86,7.14,8.17,7.76,8.52,1.13.64,10.65-1.89,10.65-1.89S489.76,615.68,511.05,605.41Z"/><path class="cls-31" d="M585,832.57a17.52,17.52,0,0,1-2.62,1.53c-4.35-2.85-16-10.47-16.53-10.93s-3.8-6.75-5.1-9.29a8.26,8.26,0,0,1,2.81-.24s4.36,7.42,4.75,7.94,13,8.44,17.13,11.09Z"/><path class="cls-32" d="M563.88,776.86s-1.21-2.05-2.63-5c2.81-7.75,10.22-27.83,11.77-28,1.93-.21,11,8.54,11,8.54s-2.43,7.18-2.83,7.7-14.33,16.49-18.68,19.3A15.64,15.64,0,0,0,563.88,776.86Z"/><path class="cls-33" d="M601.8,746c.52.19,10.18,20.5,8.73,22.49s-14.9,3.74-14.9,3.74-15.44,20.49-20.82,21.13c-5,.59-9.88-.23-11.43-2.15-2.13-2.63-1.58-7.75.27-11.78.93-2,13.88-13.7,17.28-19,1.58-2.43,3.12-10.44,3.12-10.44S599.55,745.17,601.8,746Z"/><path class="cls-34" d="M625.24,788.94s-14-4.5-16.71-3.68-3.19,4-3.19,4S601,790.75,599,793a32.67,32.67,0,0,0-3.31,4.67s-7.49-.29-10.71,2.47c0,0-4.75-4.28-10.55-3.95s-7.62.83-8.07,1.91,4.2,14.77,5.26,15.09,21.82,3.7,23.26,3.27S615,808,615.41,808.14s12.62-12.71,13-15.67S625.24,788.94,625.24,788.94Z"/><path class="cls-35" d="M471.73,609.79c10.33-11.95,27-30,39.7-42.92,8.11-3.76,14-6.46,14-6.46s21.07,34.94,34.95,70c10.52,26.55,30,59.33,40.23,78.88-9.61-17.45-51.32-93.41-54.46-102.55,0,0-38.65,4.9-46.81,15.23s75.69,100.7,73.27,102.87-10.73,6.69-12.94,16.07h0c.14-2.67-3.64-10.3-3.64-10.3l.06,0c-16.18-20.05-52.69-67.18-67.2-89.71C478.93,625.35,474.45,617,471.73,609.79Z"/><path class="cls-27" d="M529.16,524.45s6.92,6.16,7,7.17c1.62,14.26,2.21,28.79,2.21,28.79s16,35.43,15.08,37.34-5.74,4.12-5.74,4.12-15.6-6.63-36.69,3.54c-21.29,10.27-27.69,26.64-27.69,26.64s-9.52,2.53-10.65,1.89-9-9.92-9-9.92l-9-37.78s-.65-48.5.06-48.78C473.32,530.12,529.16,524.45,529.16,524.45Z"/><path class="cls-36" d="M165.75,812.3c-20-3.45-74.79-12.77-77.23-11.45s51.49,12.2,74,16.4Q164.13,814.78,165.75,812.3Z"/><path class="cls-37" d="M536.19,531.69c-.11-1-7-7.1-7-7.1h0c-46.08-3-79,12.18-79,12.18s0,13.45,1.5,13.91,27.76-10.07,44.22-11.07c12.62-.76,32.54.2,41.17.67Q536.68,536.05,536.19,531.69Z"/><path class="cls-38" d="M170.7,793.14c-26.24.38-51.51-.27-77.09.41,0,.77,0,1.54,0,2.32,25.2,2.17,52.94,2.19,76.71,2.81C170.49,796.83,170.61,795,170.7,793.14Z"/><path class="cls-36" d="M465.37,811.3c20-3.45,74.79-12.77,77.24-11.45s-51.49,12.2-74,16.4Q467,813.78,465.37,811.3Z"/><path class="cls-38" d="M460.42,792.14c26.24.38,51.52-.27,77.09.41,0,.77,0,1.54,0,2.32-25.2,2.17-52.93,2.19-76.71,2.81C460.63,795.83,460.51,794,460.42,792.14Z"/><path class="cls-39" d="M104.78,524.42c0,.27,0,.53-.08.79-1.85,1.68-6.1,5.62-6.19,6.41,0,.39-.09.79-.13,1.19,6.63-.26,25.48-.43,44.22,4.65,23.25,6.31,36.89,16.93,36.89,16.93l.41-16.93S138.85,518.62,104.78,524.42Z"/><ellipse class="cls-40" cx="223.82" cy="198.91" rx="19.12" ry="27.97" transform="translate(-48.39 74.17) rotate(-17.01)"/><path class="cls-41" d="M268.27,37.8s0-.17-.07-.45C268.24,37.64,268.27,37.8,268.27,37.8Z"/><path class="cls-42" d="M380,80.46c-6.51-34.68-105.12-48.75-132.89-.24C238.43,102.61,229,144.3,225,185.52c0-.44,0-.7,0-.7S199.92,292.57,297.4,295.67c93.81,3,107.93-43.57,102.25-107.38h0C398.88,152.34,388,107.05,380,80.46Z"/><g class="cls-43"><ellipse class="cls-19" cx="353.64" cy="207.89" rx="39.67" ry="34.67" transform="translate(83.75 516.81) rotate(-79.31)"/><ellipse class="cls-44" cx="353.64" cy="207.89" rx="39.42" ry="34.45" transform="translate(83.75 516.81) rotate(-79.31)"/><ellipse class="cls-45" cx="353.64" cy="207.89" rx="39.16" ry="34.23" transform="translate(83.75 516.81) rotate(-79.31)"/><ellipse class="cls-46" cx="353.64" cy="207.89" rx="38.91" ry="34" transform="matrix(0.19, -0.98, 0.98, 0.19, 83.75, 516.81)"/><ellipse class="cls-47" cx="353.64" cy="207.89" rx="38.66" ry="33.78" transform="matrix(0.19, -0.98, 0.98, 0.19, 83.75, 516.81)"/><ellipse class="cls-48" cx="353.64" cy="207.89" rx="38.4" ry="33.56" transform="translate(83.75 516.81) rotate(-79.31)"/><ellipse class="cls-49" cx="353.64" cy="207.89" rx="38.15" ry="33.34" transform="translate(83.75 516.81) rotate(-79.31)"/><ellipse class="cls-50" cx="353.64" cy="207.89" rx="37.89" ry="33.12" transform="translate(83.75 516.81) rotate(-79.31)"/><ellipse class="cls-51" cx="353.64" cy="207.89" rx="37.64" ry="32.89" transform="translate(83.75 516.81) rotate(-79.31)"/><ellipse class="cls-52" cx="353.64" cy="207.89" rx="37.38" ry="32.67" transform="translate(83.75 516.81) rotate(-79.31)"/><ellipse class="cls-53" cx="353.64" cy="207.89" rx="37.13" ry="32.45" transform="translate(83.75 516.81) rotate(-79.31)"/><ellipse class="cls-54" cx="353.64" cy="207.89" rx="36.88" ry="32.23" transform="translate(83.75 516.81) rotate(-79.31)"/><ellipse class="cls-55" cx="353.64" cy="207.89" rx="36.62" ry="32" transform="translate(83.75 516.81) rotate(-79.31)"/><ellipse class="cls-56" cx="353.64" cy="207.89" rx="36.37" ry="31.78" transform="translate(83.75 516.81) rotate(-79.31)"/><ellipse class="cls-57" cx="353.64" cy="207.89" rx="36.11" ry="31.56" transform="translate(83.75 516.81) rotate(-79.31)"/><ellipse class="cls-58" cx="353.64" cy="207.89" rx="35.86" ry="31.34" transform="translate(83.75 516.81) rotate(-79.31)"/><ellipse class="cls-59" cx="353.64" cy="207.89" rx="35.6" ry="31.12" transform="translate(83.75 516.81) rotate(-79.31)"/><ellipse class="cls-60" cx="353.64" cy="207.89" rx="35.35" ry="30.89" transform="translate(83.75 516.81) rotate(-79.31)"/><ellipse class="cls-61" cx="353.64" cy="207.89" rx="35.1" ry="30.67" transform="translate(83.75 516.81) rotate(-79.31)"/><ellipse class="cls-62" cx="353.64" cy="207.89" rx="34.84" ry="30.45" transform="translate(83.75 516.81) rotate(-79.31)"/><ellipse class="cls-63" cx="353.64" cy="207.89" rx="34.59" ry="30.23" transform="translate(83.75 516.81) rotate(-79.31)"/><ellipse class="cls-64" cx="353.64" cy="207.89" rx="34.33" ry="30" transform="matrix(0.19, -0.98, 0.98, 0.19, 83.75, 516.81)"/><ellipse class="cls-65" cx="353.64" cy="207.89" rx="34.08" ry="29.78" transform="translate(83.75 516.81) rotate(-79.31)"/><ellipse class="cls-66" cx="353.64" cy="207.89" rx="33.82" ry="29.56" transform="translate(83.75 516.81) rotate(-79.31)"/><ellipse class="cls-67" cx="353.64" cy="207.89" rx="33.57" ry="29.34" transform="matrix(0.19, -0.98, 0.98, 0.19, 83.75, 516.81)"/><ellipse class="cls-68" cx="353.64" cy="207.89" rx="33.32" ry="29.12" transform="translate(83.74 516.81) rotate(-79.31)"/><ellipse class="cls-69" cx="353.64" cy="207.89" rx="33.06" ry="28.89" transform="translate(83.75 516.81) rotate(-79.31)"/><ellipse class="cls-70" cx="353.64" cy="207.89" rx="32.81" ry="28.67" transform="translate(83.75 516.81) rotate(-79.31)"/><ellipse class="cls-71" cx="353.64" cy="207.89" rx="32.55" ry="28.45" transform="translate(83.75 516.81) rotate(-79.31)"/><ellipse class="cls-72" cx="353.64" cy="207.89" rx="32.3" ry="28.23" transform="translate(83.75 516.81) rotate(-79.31)"/><ellipse class="cls-73" cx="353.64" cy="207.89" rx="32.04" ry="28" transform="translate(83.74 516.81) rotate(-79.31)"/><ellipse class="cls-74" cx="353.64" cy="207.89" rx="31.79" ry="27.78" transform="translate(83.75 516.81) rotate(-79.31)"/><ellipse class="cls-75" cx="353.64" cy="207.89" rx="31.53" ry="27.56" transform="translate(83.75 516.81) rotate(-79.31)"/><ellipse class="cls-76" cx="353.64" cy="207.89" rx="31.28" ry="27.34" transform="translate(83.74 516.81) rotate(-79.31)"/><ellipse class="cls-77" cx="353.64" cy="207.89" rx="31.03" ry="27.11" transform="translate(83.74 516.81) rotate(-79.31)"/><ellipse class="cls-78" cx="353.64" cy="207.89" rx="30.77" ry="26.89" transform="translate(83.75 516.81) rotate(-79.31)"/><ellipse class="cls-79" cx="353.64" cy="207.89" rx="30.52" ry="26.67" transform="translate(83.74 516.81) rotate(-79.31)"/><ellipse class="cls-80" cx="353.64" cy="207.89" rx="30.26" ry="26.45" transform="translate(83.75 516.81) rotate(-79.31)"/><ellipse class="cls-81" cx="353.64" cy="207.89" rx="30.01" ry="26.23" transform="translate(83.74 516.81) rotate(-79.31)"/><ellipse class="cls-82" cx="353.64" cy="207.89" rx="29.75" ry="26" transform="translate(83.75 516.81) rotate(-79.31)"/><ellipse class="cls-82" cx="353.64" cy="207.89" rx="29.5" ry="25.78" transform="translate(83.74 516.81) rotate(-79.31)"/><ellipse class="cls-83" cx="353.64" cy="207.89" rx="29.25" ry="25.56" transform="translate(83.74 516.81) rotate(-79.31)"/><ellipse class="cls-84" cx="353.64" cy="207.89" rx="28.99" ry="25.34" transform="translate(83.74 516.81) rotate(-79.31)"/><ellipse class="cls-85" cx="353.64" cy="207.89" rx="28.74" ry="25.11" transform="translate(83.75 516.81) rotate(-79.31)"/><ellipse class="cls-86" cx="353.64" cy="207.89" rx="28.48" ry="24.89" transform="translate(83.75 516.81) rotate(-79.31)"/><ellipse class="cls-87" cx="353.64" cy="207.89" rx="28.23" ry="24.67" transform="translate(83.75 516.81) rotate(-79.31)"/><ellipse class="cls-88" cx="353.64" cy="207.89" rx="27.97" ry="24.45" transform="translate(83.75 516.81) rotate(-79.31)"/><ellipse class="cls-89" cx="353.64" cy="207.89" rx="27.72" ry="24.23" transform="translate(83.75 516.81) rotate(-79.31)"/><ellipse class="cls-90" cx="353.64" cy="207.89" rx="27.47" ry="24" transform="translate(83.75 516.81) rotate(-79.31)"/><ellipse class="cls-91" cx="353.64" cy="207.89" rx="27.21" ry="23.78" transform="matrix(0.19, -0.98, 0.98, 0.19, 83.75, 516.81)"/><ellipse class="cls-92" cx="353.64" cy="207.89" rx="26.96" ry="23.56" transform="translate(83.75 516.81) rotate(-79.31)"/><ellipse class="cls-93" cx="353.64" cy="207.89" rx="26.7" ry="23.34" transform="matrix(0.19, -0.98, 0.98, 0.19, 83.75, 516.81)"/><ellipse class="cls-94" cx="353.64" cy="207.89" rx="26.45" ry="23.11" transform="translate(83.75 516.81) rotate(-79.31)"/><ellipse class="cls-95" cx="353.64" cy="207.89" rx="26.19" ry="22.89" transform="translate(83.75 516.81) rotate(-79.31)"/><ellipse class="cls-96" cx="353.64" cy="207.89" rx="25.94" ry="22.67" transform="translate(83.75 516.81) rotate(-79.31)"/><ellipse class="cls-97" cx="353.64" cy="207.89" rx="25.69" ry="22.45" transform="translate(83.75 516.81) rotate(-79.31)"/><ellipse class="cls-98" cx="353.64" cy="207.89" rx="25.43" ry="22.23" transform="translate(83.75 516.81) rotate(-79.31)"/><ellipse class="cls-99" cx="353.64" cy="207.89" rx="25.18" ry="22" transform="translate(83.75 516.81) rotate(-79.31)"/><ellipse class="cls-100" cx="353.64" cy="207.89" rx="24.92" ry="21.78" transform="translate(83.75 516.81) rotate(-79.31)"/><ellipse class="cls-101" cx="353.64" cy="207.89" rx="24.67" ry="21.56" transform="translate(83.75 516.81) rotate(-79.31)"/><ellipse class="cls-102" cx="353.64" cy="207.89" rx="24.41" ry="21.34" transform="translate(83.75 516.81) rotate(-79.31)"/><ellipse class="cls-103" cx="353.64" cy="207.89" rx="24.16" ry="21.11" transform="translate(83.75 516.81) rotate(-79.31)"/><ellipse class="cls-104" cx="353.64" cy="207.89" rx="23.91" ry="20.89" transform="translate(83.75 516.81) rotate(-79.31)"/><ellipse class="cls-105" cx="353.64" cy="207.89" rx="23.65" ry="20.67" transform="translate(83.75 516.81) rotate(-79.31)"/><ellipse class="cls-106" cx="353.64" cy="207.89" rx="23.4" ry="20.45" transform="translate(83.75 516.81) rotate(-79.31)"/><ellipse class="cls-107" cx="353.64" cy="207.89" rx="23.14" ry="20.23" transform="translate(83.75 516.81) rotate(-79.31)"/><ellipse class="cls-108" cx="353.64" cy="207.89" rx="22.89" ry="20" transform="translate(83.74 516.81) rotate(-79.31)"/><ellipse class="cls-109" cx="353.64" cy="207.89" rx="22.63" ry="19.78" transform="translate(83.74 516.81) rotate(-79.31)"/><ellipse class="cls-110" cx="353.64" cy="207.89" rx="22.38" ry="19.56" transform="translate(83.75 516.81) rotate(-79.31)"/><ellipse class="cls-111" cx="353.64" cy="207.89" rx="22.13" ry="19.34" transform="translate(83.75 516.81) rotate(-79.31)"/><path class="cls-112" d="M372.85,207.12c-.15,12-8.87,22.11-19.48,22.53s-19.1-9-18.95-21,8.87-22.12,19.48-22.54S373,195.09,372.85,207.12Z"/><ellipse class="cls-113" cx="353.64" cy="207.89" rx="21.62" ry="18.89" transform="translate(83.74 516.81) rotate(-79.31)"/><ellipse class="cls-114" cx="353.64" cy="207.89" rx="21.36" ry="18.67" transform="translate(83.75 516.81) rotate(-79.31)"/><ellipse class="cls-115" cx="353.64" cy="207.89" rx="21.11" ry="18.45" transform="translate(83.75 516.81) rotate(-79.31)"/><ellipse class="cls-116" cx="353.64" cy="207.89" rx="20.85" ry="18.22" transform="translate(83.75 516.81) rotate(-79.31)"/><ellipse class="cls-117" cx="353.64" cy="207.89" rx="20.6" ry="18" transform="translate(83.74 516.81) rotate(-79.31)"/><ellipse class="cls-118" cx="353.64" cy="207.89" rx="20.35" ry="17.78" transform="translate(83.75 516.81) rotate(-79.31)"/><ellipse class="cls-119" cx="353.64" cy="207.89" rx="20.09" ry="17.56" transform="translate(83.74 516.81) rotate(-79.31)"/><ellipse class="cls-120" cx="353.64" cy="207.89" rx="19.84" ry="17.34" transform="translate(83.74 516.81) rotate(-79.31)"/></g><ellipse class="cls-19" cx="411.93" cy="196.93" rx="27.97" ry="19.12" transform="matrix(0.27, -0.96, 0.96, 0.27, 110.23, 539.63)"/><path class="cls-121" d="M421.7,204.77c-9.51,6.39-19.83,4.63-27.4-1.26a87.32,87.32,0,0,1-.65,14.21h.18l.39,37c3.84-9.42,5.71-20.33,6.23-32.51a13.27,13.27,0,0,0,3,1.45c10,3.34,21.82-5.93,26.34-20.7a39.57,39.57,0,0,0,1.75-11.19A24.63,24.63,0,0,1,421.7,204.77Z"/><path class="cls-122" d="M404.29,197.17l9.13,1.09c-.41-14.35,10.12-19.37,10.12-19.37C406.11,173.05,404.29,197.17,404.29,197.17Z"/><path class="cls-123" d="M345.42,225.46l0,.08Z"/><path class="cls-124" d="M400.42,44.19c-6.28-10.38-14.13-12-22.75-9.79,4.3-3,2.83-7.13,2.83-7.13a9.58,9.58,0,0,0-8.12,2.9c5.63-6.5,1.73-15.43,1.73-15.43C360.54,21,363.52,27.93,363.52,27.93c-5.76-11.35-22.73-14.51-22.73-14.51A18.07,18.07,0,0,0,342,18.26C313.71.55,277.41,0,277.41,0A13.45,13.45,0,0,0,276,8.85a265.71,265.71,0,0,0-40.44,2.59c-4.29,27.22,3.7,43.1,12.25,52.05,3.09,3.28,7.61,8.8,20.08,13.92a60.55,60.55,0,0,0,34.69,10.86C321,88.19,346.3,74.14,346.3,74.14c18.4-.87,45.4,55.56,49,101.44.82,10.49,9.66-1.86,9.66-1.86a244.4,244.4,0,0,0-.5-27.9C404.46,145.69,416.92,71.48,400.42,44.19Z"/><path class="cls-125" d="M239.18,50.59c-27.38,9.06-15.27,109.25-14.26,125.73a22.77,22.77,0,0,1-.12,3.35c0,.61,2.18.4,2-.22a11.26,11.26,0,0,1,0-3.24c3.07-30.6,25.71-97.67,41-98.83C267.8,77.38,252.94,69,239.18,50.59Z"/><path class="cls-126" d="M354.25,40s.15,0,0,0Z"/><g class="cls-43"><ellipse class="cls-19" cx="263.12" cy="204.59" rx="33.68" ry="40.72" transform="translate(-33.31 52.22) rotate(-10.66)"/><ellipse class="cls-44" cx="263.12" cy="204.59" rx="33.46" ry="40.46" transform="translate(-33.31 52.22) rotate(-10.66)"/><ellipse class="cls-45" cx="263.12" cy="204.59" rx="33.25" ry="40.2" transform="matrix(0.98, -0.19, 0.19, 0.98, -33.31, 52.22)"/><ellipse class="cls-46" cx="263.12" cy="204.59" rx="33.03" ry="39.94" transform="translate(-33.31 52.22) rotate(-10.66)"/><ellipse class="cls-47" cx="263.12" cy="204.59" rx="32.82" ry="39.68" transform="translate(-33.31 52.22) rotate(-10.66)"/><ellipse class="cls-48" cx="263.12" cy="204.59" rx="32.6" ry="39.42" transform="translate(-33.31 52.22) rotate(-10.66)"/><ellipse class="cls-49" cx="263.12" cy="204.59" rx="32.38" ry="39.15" transform="translate(-33.31 52.22) rotate(-10.66)"/><ellipse class="cls-50" cx="263.12" cy="204.59" rx="32.17" ry="38.89" transform="translate(-33.31 52.22) rotate(-10.66)"/><ellipse class="cls-51" cx="263.12" cy="204.59" rx="31.95" ry="38.63" transform="translate(-33.31 52.22) rotate(-10.66)"/><ellipse class="cls-52" cx="263.12" cy="204.59" rx="31.74" ry="38.37" transform="translate(-33.31 52.22) rotate(-10.66)"/><ellipse class="cls-53" cx="263.12" cy="204.59" rx="31.52" ry="38.11" transform="translate(-33.31 52.22) rotate(-10.66)"/><ellipse class="cls-54" cx="263.12" cy="204.59" rx="31.31" ry="37.85" transform="translate(-33.31 52.22) rotate(-10.66)"/><ellipse class="cls-55" cx="263.12" cy="204.59" rx="31.09" ry="37.59" transform="translate(-33.31 52.22) rotate(-10.66)"/><ellipse class="cls-56" cx="263.12" cy="204.59" rx="30.87" ry="37.33" transform="translate(-33.31 52.22) rotate(-10.66)"/><ellipse class="cls-57" cx="263.12" cy="204.59" rx="30.66" ry="37.07" transform="translate(-33.31 52.22) rotate(-10.66)"/><ellipse class="cls-58" cx="263.12" cy="204.59" rx="30.44" ry="36.81" transform="translate(-33.31 52.22) rotate(-10.66)"/><ellipse class="cls-59" cx="263.12" cy="204.59" rx="30.23" ry="36.54" transform="translate(-33.31 52.22) rotate(-10.66)"/><ellipse class="cls-60" cx="263.12" cy="204.59" rx="30.01" ry="36.28" transform="translate(-33.31 52.22) rotate(-10.66)"/><ellipse class="cls-61" cx="263.12" cy="204.59" rx="29.79" ry="36.02" transform="translate(-33.31 52.22) rotate(-10.66)"/><ellipse class="cls-62" cx="263.12" cy="204.59" rx="29.58" ry="35.76" transform="translate(-33.31 52.22) rotate(-10.66)"/><ellipse class="cls-63" cx="263.12" cy="204.59" rx="29.36" ry="35.5" transform="translate(-33.31 52.22) rotate(-10.66)"/><ellipse class="cls-64" cx="263.12" cy="204.59" rx="29.15" ry="35.24" transform="translate(-33.31 52.22) rotate(-10.66)"/><ellipse class="cls-65" cx="263.12" cy="204.59" rx="28.93" ry="34.98" transform="translate(-33.31 52.22) rotate(-10.66)"/><ellipse class="cls-66" cx="263.12" cy="204.59" rx="28.71" ry="34.72" transform="translate(-33.31 52.22) rotate(-10.66)"/><ellipse class="cls-67" cx="263.12" cy="204.59" rx="28.5" ry="34.46" transform="translate(-33.31 52.22) rotate(-10.66)"/><ellipse class="cls-68" cx="263.12" cy="204.59" rx="28.28" ry="34.19" transform="translate(-33.31 52.22) rotate(-10.66)"/><ellipse class="cls-69" cx="263.12" cy="204.59" rx="28.07" ry="33.93" transform="translate(-33.31 52.22) rotate(-10.66)"/><ellipse class="cls-70" cx="263.12" cy="204.59" rx="27.85" ry="33.67" transform="translate(-33.31 52.22) rotate(-10.66)"/><ellipse class="cls-71" cx="263.12" cy="204.59" rx="27.63" ry="33.41" transform="translate(-33.31 52.22) rotate(-10.66)"/><ellipse class="cls-72" cx="263.12" cy="204.59" rx="27.42" ry="33.15" transform="translate(-33.31 52.22) rotate(-10.66)"/><ellipse class="cls-73" cx="263.12" cy="204.59" rx="27.2" ry="32.89" transform="translate(-33.31 52.22) rotate(-10.66)"/><ellipse class="cls-74" cx="263.12" cy="204.59" rx="26.99" ry="32.63" transform="translate(-33.31 52.22) rotate(-10.66)"/><ellipse class="cls-75" cx="263.12" cy="204.59" rx="26.77" ry="32.37" transform="translate(-33.31 52.22) rotate(-10.66)"/><ellipse class="cls-76" cx="263.12" cy="204.59" rx="26.56" ry="32.11" transform="translate(-33.31 52.22) rotate(-10.66)"/><ellipse class="cls-77" cx="263.12" cy="204.59" rx="26.34" ry="31.85" transform="translate(-33.31 52.22) rotate(-10.66)"/><ellipse class="cls-78" cx="263.12" cy="204.59" rx="26.12" ry="31.58" transform="translate(-33.31 52.22) rotate(-10.66)"/><ellipse class="cls-79" cx="263.12" cy="204.59" rx="25.91" ry="31.32" transform="translate(-33.31 52.22) rotate(-10.66)"/><ellipse class="cls-80" cx="263.12" cy="204.59" rx="25.69" ry="31.06" transform="translate(-33.31 52.22) rotate(-10.66)"/><ellipse class="cls-81" cx="263.12" cy="204.59" rx="25.48" ry="30.8" transform="translate(-33.31 52.22) rotate(-10.66)"/><ellipse class="cls-82" cx="263.12" cy="204.59" rx="25.26" ry="30.54" transform="translate(-33.31 52.22) rotate(-10.66)"/><ellipse class="cls-82" cx="263.12" cy="204.59" rx="25.04" ry="30.28" transform="translate(-33.31 52.22) rotate(-10.66)"/><ellipse class="cls-83" cx="263.12" cy="204.59" rx="24.83" ry="30.02" transform="translate(-33.31 52.22) rotate(-10.66)"/><ellipse class="cls-84" cx="263.12" cy="204.59" rx="24.61" ry="29.76" transform="translate(-33.31 52.22) rotate(-10.66)"/><ellipse class="cls-85" cx="263.12" cy="204.59" rx="24.4" ry="29.5" transform="translate(-33.31 52.22) rotate(-10.66)"/><ellipse class="cls-86" cx="263.12" cy="204.59" rx="24.18" ry="29.24" transform="translate(-33.31 52.22) rotate(-10.66)"/><ellipse class="cls-87" cx="263.12" cy="204.59" rx="23.96" ry="28.97" transform="translate(-33.31 52.22) rotate(-10.66)"/><ellipse class="cls-88" cx="263.12" cy="204.59" rx="23.75" ry="28.71" transform="translate(-33.31 52.22) rotate(-10.66)"/><ellipse class="cls-89" cx="263.12" cy="204.59" rx="23.53" ry="28.45" transform="translate(-33.31 52.22) rotate(-10.66)"/><ellipse class="cls-90" cx="263.12" cy="204.59" rx="23.32" ry="28.19" transform="matrix(0.98, -0.19, 0.19, 0.98, -33.31, 52.22)"/><ellipse class="cls-91" cx="263.12" cy="204.59" rx="23.1" ry="27.93" transform="translate(-33.31 52.22) rotate(-10.66)"/><ellipse class="cls-92" cx="263.12" cy="204.59" rx="22.89" ry="27.67" transform="translate(-33.31 52.22) rotate(-10.66)"/><ellipse class="cls-93" cx="263.12" cy="204.59" rx="22.67" ry="27.41" transform="translate(-33.31 52.22) rotate(-10.66)"/><ellipse class="cls-94" cx="263.12" cy="204.59" rx="22.45" ry="27.15" transform="translate(-33.31 52.22) rotate(-10.66)"/><ellipse class="cls-95" cx="263.12" cy="204.59" rx="22.24" ry="26.89" transform="translate(-33.31 52.22) rotate(-10.66)"/><ellipse class="cls-96" cx="263.12" cy="204.59" rx="22.02" ry="26.63" transform="translate(-33.31 52.22) rotate(-10.66)"/><ellipse class="cls-97" cx="263.12" cy="204.59" rx="21.81" ry="26.36" transform="translate(-33.31 52.22) rotate(-10.66)"/><ellipse class="cls-98" cx="263.12" cy="204.59" rx="21.59" ry="26.1" transform="translate(-33.31 52.22) rotate(-10.66)"/><path class="cls-99" d="M284.54,203.63c1.27,14.18-7.3,26.11-19.13,26.64S243,219.73,241.7,205.54s7.3-26.11,19.13-26.64S283.28,189.44,284.54,203.63Z"/><ellipse class="cls-100" cx="263.12" cy="204.59" rx="21.16" ry="25.58" transform="translate(-33.31 52.22) rotate(-10.66)"/><ellipse class="cls-101" cx="263.12" cy="204.59" rx="20.94" ry="25.32" transform="translate(-33.31 52.22) rotate(-10.66)"/><ellipse class="cls-102" cx="263.12" cy="204.59" rx="20.73" ry="25.06" transform="matrix(0.98, -0.19, 0.19, 0.98, -33.31, 52.22)"/><ellipse class="cls-103" cx="263.12" cy="204.59" rx="20.51" ry="24.8" transform="translate(-33.31 52.22) rotate(-10.66)"/><ellipse class="cls-104" cx="263.12" cy="204.59" rx="20.29" ry="24.54" transform="matrix(0.98, -0.19, 0.19, 0.98, -33.31, 52.22)"/><ellipse class="cls-105" cx="263.12" cy="204.59" rx="20.08" ry="24.28" transform="translate(-33.31 52.22) rotate(-10.66)"/><ellipse class="cls-106" cx="263.12" cy="204.59" rx="19.86" ry="24.01" transform="translate(-33.31 52.22) rotate(-10.66)"/><ellipse class="cls-107" cx="263.12" cy="204.59" rx="19.65" ry="23.75" transform="translate(-33.31 52.22) rotate(-10.66)"/><ellipse class="cls-108" cx="263.12" cy="204.59" rx="19.43" ry="23.49" transform="translate(-33.31 52.22) rotate(-10.66)"/><ellipse class="cls-109" cx="263.12" cy="204.59" rx="19.21" ry="23.23" transform="translate(-33.31 52.22) rotate(-10.66)"/><ellipse class="cls-110" cx="263.12" cy="204.59" rx="19" ry="22.97" transform="translate(-33.31 52.22) rotate(-10.66)"/><ellipse class="cls-111" cx="263.12" cy="204.59" rx="18.78" ry="22.71" transform="translate(-33.31 52.22) rotate(-10.66)"/><path class="cls-112" d="M281.73,203.75c1.1,12.33-6.34,22.69-16.62,23.15s-19.49-9.16-20.59-21.48,6.33-22.69,16.61-23.15S280.63,191.43,281.73,203.75Z"/><ellipse class="cls-113" cx="263.12" cy="204.59" rx="18.35" ry="22.19" transform="translate(-33.31 52.22) rotate(-10.66)"/><ellipse class="cls-114" cx="263.12" cy="204.59" rx="18.14" ry="21.93" transform="translate(-33.31 52.22) rotate(-10.66)"/><ellipse class="cls-115" cx="263.12" cy="204.59" rx="17.92" ry="21.67" transform="translate(-33.31 52.22) rotate(-10.66)"/><path class="cls-116" d="M280.86,203.79c1.05,11.75-6,21.63-15.84,22.07s-18.59-8.73-19.64-20.48,6.05-21.63,15.84-22.07S279.82,192,280.86,203.79Z"/><ellipse class="cls-117" cx="263.12" cy="204.59" rx="17.49" ry="21.14" transform="translate(-33.31 52.22) rotate(-10.66)"/><ellipse class="cls-118" cx="263.12" cy="204.59" rx="17.27" ry="20.88" transform="translate(-33.31 52.22) rotate(-10.66)"/><ellipse class="cls-119" cx="263.12" cy="204.59" rx="17.06" ry="20.62" transform="translate(-33.31 52.22) rotate(-10.66)"/><ellipse class="cls-120" cx="263.12" cy="204.59" rx="16.84" ry="20.36" transform="translate(-33.31 52.22) rotate(-10.66)"/></g><path class="cls-126" d="M354.36,41.59h0Z"/><path class="cls-127" d="M398.5,41.38a18.88,18.88,0,0,0-9.35-7.06c-2.95.63-6,1.42-9.16,2.21-9.37,2.38-19.25,4.06-28.94,3-11.25-1.24-21.22-6-31.31-10.81-5.09-2.42-10.17-4.88-15.4-7-11.22-4.48-24.42-8.84-36.65-8.14-6.06.35-11.95,2.34-17.46,4.76a37.71,37.71,0,0,0-12.34,8.69,38.89,38.89,0,0,1-3.44,2.78A63.17,63.17,0,0,0,236.23,42c.57-.37,1.09-.7,1.26-.84a38.08,38.08,0,0,1,7.39-4.45,33.1,33.1,0,0,1,10-2.78c14.54-1.47,28.2,4,41.48,9.15,5.44,2.1,11,4.55,16.82,6.81a178.83,178.83,0,0,0,18.26,6.28c10.68,3,23.65,3.65,34.38.39,1.45-.44,2.89-.81,4.27-1.28a98,98,0,0,0,14.5-6.55c4.15-2.27,7.71-4.33,10.85-5.9C396.49,42.29,397.52,41.8,398.5,41.38Z"/><path class="cls-126" d="M354,40h0Z"/><path class="cls-128" d="M325.13,125.23s-13.94,36.06,5.26,56.72L375.3,177s1.24-21.9-2.28-36.32C370.7,131.22,325.13,125.23,325.13,125.23Z"/><path class="cls-129" d="M247.66,146.38c-3.06,8.47-6.61,35.76-6.61,35.76l42,4c18.57-22.14,10.08-59.56,10.08-59.56S250.76,137.81,247.66,146.38Z"/><path class="cls-130" d="M355.28,163.91c-18.94-.74-24.89,18-24.89,18s5.21,4.34,23.81,2.9c22.05-1.69,21.1-7.81,21.1-7.81S374.21,164.65,355.28,163.91Z"/><path class="cls-130" d="M241.05,182.14s-1.2,4.86,18.82,6c21.57,1.22,23.21-2,23.21-2S260.75,149.05,241.05,182.14Z"/><path class="cls-131" d="M256.71,187.9c1,.09,2,.17,3.16.23a125.14,125.14,0,0,0,13.88.14c2.13-7.76-.21-14.35-4.54-15.55-4.56-1.26-9.88,3.6-11.88,10.85A30.51,30.51,0,0,0,256.71,187.9Z"/><path class="cls-132" d="M354.2,184.85c2.56-.19,4.79-.45,6.76-.75,2.11-7.86-.84-15.24-5-16.55-4.57-1.42-9.86,3.94-11.83,12a40,40,0,0,0-.54,5.54A84.26,84.26,0,0,0,354.2,184.85Z"/><path class="cls-133" d="M264.78,165.82c-15.45-1.61-25.34,10.11-23.73,16.32,0,0,8.29-8.9,21.06-8.21,16.07.87,21,12.18,21,12.18C285.84,180.05,283.6,167.78,264.78,165.82Z"/><path class="cls-134" d="M247.11,150.06c16.27-15.85,36.53-4,43.92-12.68,2.84-3.35,2.13-10.83,2.13-10.83C247.15,121.6,247.11,150.06,247.11,150.06Z"/><path class="cls-135" d="M325.21,124.65s-1.16,7.12,1.34,10.53c7.78,10.61,38-4.07,47.52,10.89C374.07,146.07,374.91,119.69,325.21,124.65Z"/><path class="cls-136" d="M268.12,250.82a6.22,6.22,0,0,0,6,4.75c5,.21,19.53-4.91,35.13-5.63s31.17,2.73,35.9,1.8c3.41-.68,5.2-7.23,5.2-7.23s-8.93-12.34-44.09-11.47C283.33,233.6,268.12,250.82,268.12,250.82Z"/><path class="cls-137" d="M267.12,247.82a6.22,6.22,0,0,0,6,4.75c5,.21,20.28-7.71,35.87-8.43s30.43,5.53,35.16,4.6c3.41-.68,5.2-7.23,5.2-7.23s-11.75-10.4-46.92-9.53A49.16,49.16,0,0,0,267.12,247.82Z"/><path class="cls-133" d="M349.37,162.43c-19.8,1.59-22.08,16.36-19,19.12,0,0,4.15-10.26,22.83-11.13,18.49-.85,22.13,6.62,22.13,6.62C375.42,170.66,370.3,160.74,349.37,162.43Z"/><path class="cls-123" d="M346.89,226.85v.08A.28.28,0,0,0,346.89,226.85Z"/><path class="cls-138" d="M270.76,182.8a3.77,3.77,0,0,0-4.19-3.94,4.9,4.9,0,0,0-4.18,4.85,3.87,3.87,0,0,0,2.44,3.73l2.46.07A5,5,0,0,0,270.76,182.8Z"/><path class="cls-138" d="M357.17,178.88a4.91,4.91,0,0,1-4.18,4.86,3.79,3.79,0,0,1-4.19-4,4.91,4.91,0,0,1,4.18-4.86A3.79,3.79,0,0,1,357.17,178.88Z"/><path class="cls-139" d="M404.93,173.72l-9.78.36c-.84,18.85-7.93,31-13,40.11-8.34,15.07-23.37,21.11-23.37,21.11-4.79-9.66-28.54-26.2-58.75-21.86,0,0-32.13,9.37-39.72,25,0,0-19-3.24-27.68-27-3.72-10.12-5.43-29.06-6-34.24l-1.35,0c-9.69,50-6.55,135.33,90.4,130.12,99.37-5.33,87.22-83.91,87.22-83.91C397,206.2,404.93,173.72,404.93,173.72ZM353.4,253.15c-.07,8-12.34,12.57-23.95,5.46a34.76,34.76,0,0,0-20.11-4.89c-7.5.48-15.93,3.13-22.38,8.49-8.35,7-20.66,3.6-21.52-4.65-.7-6.82,15-20.87,42.13-21.81C337.53,234.72,353.46,247,353.4,253.15Z"/><path class="cls-140" d="M261.93,179.22c-2.08,1.13-3.47,3.22-3.09,4.66s2.36,1.69,4.45.55,3.47-3.22,3.1-4.66S264,178.09,261.93,179.22Z"/><path class="cls-141" d="M304.78,229.87c16.1-1.09,21.8-9.43,23.79-14.58a69,69,0,0,0-25.47-2.22c-1,.11-2,.22-3.07.37a124.23,124.23,0,0,0-21.19,8.77C282.27,225.91,289.74,230.89,304.78,229.87Z"/><path class="cls-140" d="M348.93,176c-2.12,1.3-3.44,3.53-2.95,5s2.61,1.59,4.72.29,3.44-3.53,2.95-5S351,174.65,348.93,176Z"/><path class="cls-19" d="M296.9,192.19s-16.62-2.32-19.93,12.22c-4.19,18.47,32.63,27.6,41.72,8.09s-18.6-53.83-18.6-53.83S307.17,176.81,296.9,192.19Z"/><path class="cls-142" d="M276.86,209.52c2.82,14.86,33.62,20.59,41.83,3a18.16,18.16,0,0,0,1.15-3.35A90.57,90.57,0,0,1,276.86,209.52Z"/><path class="cls-143" d="M306.72,177.51l-4.09,0s-1.55,13.27-5.45,15.29h0c-.63,0-1.28-.06-1.94,0-7.14.07-12.91,2.64-12.87,5.73s5.84,5.36,13,5.29c6.69-.07,12.5-1.52,13.12-5.18C308.48,198.64,311,184.74,306.72,177.51Z"/><path class="cls-144" d="M265.9,192.29c-4.83-.39-9.45-.89-14-2.57-2.68-1-4.71,2.91-2,4,4.94,2.06,10.35,3.42,15.74,3C268,196.52,268.49,192.51,265.9,192.29Z"/><path class="cls-144" d="M365.32,184.9C360,186,354.85,187,349.36,187c-2.93,0-2.53,4.4.32,4.5a42.41,42.41,0,0,0,16.54-2.29C368.42,188.32,367.86,184.39,365.32,184.9Z"/><path class="cls-145" d="M321.46,266.62c.16,3.32-4.47,6.22-10.32,6.49s-10.73-2.2-10.88-5.51,4.47-6.21,10.32-6.48S321.31,263.31,321.46,266.62Z"/><path class="cls-145" d="M361.93,59.79a86.25,86.25,0,0,1-16.35,14.74l.72-.39a12.08,12.08,0,0,1,6.28,1.67,79,79,0,0,0,12.51-13C366.75,60.61,363.77,57.62,361.93,59.79Z"/></g></g></svg>