<svg id="Ñëîé_1" data-name="Ñëîé 1" xmlns="http://www.w3.org/2000/svg" xmlns:xlink="http://www.w3.org/1999/xlink" viewBox="0 0 500 500"><defs><style>.cls-1,.cls-116,.cls-119,.cls-12,.cls-19,.cls-23,.cls-25,.cls-26{fill:#fff;}.cls-2{fill:#363c42;}.cls-3{opacity:0.09;}.cls-117,.cls-25,.cls-4{opacity:0.11;}.cls-5{fill:#6d7db3;}.cls-109,.cls-16,.cls-6{fill:#d78c74;}.cls-7{fill:#3d4041;}.cls-8{fill:#dfe5ea;}.cls-9{fill:#002a3d;opacity:0.08;}.cls-10{fill:#7588bc;}.cls-11{fill:#b0b5c1;}.cls-12{opacity:0.12;}.cls-13{fill:#e5a185;}.cls-14{opacity:0.45;}.cls-15{fill:#d58a73;}.cls-16{opacity:0.54;}.cls-17{fill:#b6bdce;}.cls-18{fill:url(#Áåçûìÿííûé_ãðàäèåíò_7);}.cls-19{opacity:0.27;}.cls-20{fill:#e4a084;}.cls-21{fill:#d68b74;}.cls-21,.cls-28{opacity:0.38;}.cls-22{fill:url(#Áåçûìÿííûé_ãðàäèåíò_6);}.cls-23{opacity:0.22;}.cls-24{fill:#343535;}.cls-26{opacity:0.05;}.cls-27{fill:#381911;}.cls-29{fill:#e5a084;}.cls-30{fill:#e59f83;}.cls-31{fill:#e49e83;}.cls-32{fill:#e49d82;}.cls-33{fill:#e49c81;}.cls-34{fill:#e49b80;}.cls-35{fill:#e49a80;}.cls-36{fill:#e3997f;}.cls-37{fill:#e3987e;}.cls-38{fill:#e3977d;}.cls-39{fill:#e3967c;}.cls-40{fill:#e2957c;}.cls-41{fill:#e2947b;}.cls-42{fill:#e2937a;}.cls-43{fill:#e29279;}.cls-44{fill:#e29179;}.cls-45{fill:#e19078;}.cls-46{fill:#e18f77;}.cls-47{fill:#e18e76;}.cls-48{fill:#e18d75;}.cls-49{fill:#e18c75;}.cls-50{fill:#e08b74;}.cls-51{fill:#e08a73;}.cls-52{fill:#e08972;}.cls-53{fill:#e08872;}.cls-54{fill:#df8771;}.cls-55{fill:#df8670;}.cls-56{fill:#df856f;}.cls-57{fill:#df846f;}.cls-58{fill:#df836e;}.cls-59{fill:#de826d;}.cls-60{fill:#de816c;}.cls-61{fill:#de806b;}.cls-62{fill:#de7f6b;}.cls-63{fill:#de7e6a;}.cls-64{fill:#dd7d69;}.cls-65{fill:#dd7c68;}.cls-66{fill:#dd7b68;}.cls-67{fill:#dd7a67;}.cls-68{fill:#dd7a66;}.cls-69{fill:#dc7965;}.cls-70{fill:#dc7864;}.cls-71{fill:#dc7764;}.cls-72{fill:#dc7663;}.cls-73{fill:#db7562;}.cls-74{fill:#db7461;}.cls-75{fill:#db7361;}.cls-76{fill:#db7260;}.cls-77{fill:#db715f;}.cls-78{fill:#da705e;}.cls-79{fill:#da6f5d;}.cls-80{fill:#da6e5d;}.cls-81{fill:#da6d5c;}.cls-82{fill:#da6c5b;}.cls-83{fill:#d96b5a;}.cls-84{fill:#d96a5a;}.cls-85{fill:#d96959;}.cls-86{fill:#d96858;}.cls-87{fill:#d86757;}.cls-88{fill:#d86657;}.cls-89{fill:#d86556;}.cls-90{fill:#d86455;}.cls-91{fill:#d86354;}.cls-92{fill:#d76253;}.cls-93{fill:#d76153;}.cls-94{fill:#d76052;}.cls-95{fill:#d75f51;}.cls-96{fill:#d75e50;}.cls-97{fill:#d65d50;}.cls-98{fill:#d65c4f;}.cls-99{fill:#d65b4e;}.cls-100{fill:#d65a4d;}.cls-101{fill:#d5594c;}.cls-102{fill:#d5584c;}.cls-103{fill:#d5574b;}.cls-104{fill:#d5564a;}.cls-105{fill:#d55549;}.cls-106{fill:#d45449;}.cls-107{fill:#d45348;}.cls-108{fill:#d45247;}.cls-109{opacity:0.72;}.cls-110{fill:#ce826e;}.cls-111{fill:url(#Áåçûìÿííûé_ãðàäèåíò_9);}.cls-112{fill:url(#Áåçûìÿííûé_ãðàäèåíò_9-2);}.cls-113{fill:#422e26;}.cls-114{fill:#6c332e;}.cls-115{fill:#4f372d;}.cls-116{opacity:0.2;}.cls-117{fill:#e5912f;}.cls-118{opacity:0.19;}.cls-119{opacity:0.82;}</style><linearGradient id="Áåçûìÿííûé_ãðàäèåíò_7" x1="201.52" y1="190.87" x2="206.75" y2="213.93" gradientUnits="userSpaceOnUse"><stop offset="0" stop-color="#fff"/><stop offset="0.03" stop-color="#eaeaea"/><stop offset="1" stop-color="#989da3"/></linearGradient><linearGradient id="Áåçûìÿííûé_ãðàäèåíò_6" x1="190.05" y1="196.39" x2="210.4" y2="237.46" gradientUnits="userSpaceOnUse"><stop offset="0" stop-color="#fff"/><stop offset="0.03" stop-color="#eaeaea"/><stop offset="1" stop-color="#b1b5bc"/></linearGradient><linearGradient id="Áåçûìÿííûé_ãðàäèåíò_9" x1="242.37" y1="115.14" x2="246.93" y2="102.99" gradientUnits="userSpaceOnUse"><stop offset="0" stop-color="#5c3333"/><stop offset="1"/></linearGradient><linearGradient id="Áåçûìÿííûé_ãðàäèåíò_9-2" x1="288" y1="116.57" x2="292.27" y2="103.62" xlink:href="#Áåçûìÿííûé_ãðàäèåíò_9"/></defs><rect class="cls-1" width="500" height="500"/><path class="cls-2" d="M179.3,438.5c-1.13,5.58-6.59,32.56-12.2,61.5h67.06c4.58-19.34,8.8-37.35,11-48.35Z"/><path class="cls-2" d="M325.87,443h0Z"/><path class="cls-2" d="M255.4,453.3s.6,17.45,1.48,46.7H322.3c1.86-32.23,3.47-56.11,3.57-57.14Z"/><g class="cls-3"><path d="M255.59,459c.45-.25.9-.5,1.36-.74a15.85,15.85,0,0,1,.65-5.24l-2.2.33S255.47,455.26,255.59,459Z"/></g><path class="cls-2" d="M176.2,472.87a866.89,866.89,0,0,0,89.23,4.22c30.1-.27,55.79,2.18,57.75-11.23,1.82-12.45,3.22-27.38,4.33-43H179.26C177.64,450.19,176.2,472.87,176.2,472.87Z"/><path class="cls-4" d="M245.33,468.37c-44.81,1.66-9.92,8.42-5.67,8.46,7.56.17,8.64.21,16.69.21,0,0,0,1.82-.1,2.61C256.39,479.59,290,466.72,245.33,468.37Z"/><path class="cls-5" d="M144.57,319.2c7.41,0,14.81.26,22.16.89a194,194,0,0,1,22.91,3.42c6.15-30.31,23.05-67.49,31.23-82.21l7.65-53.62C227,190.46,163.54,186,144.57,319.2Z"/><path class="cls-6" d="M270.38,138.61h0c-11.95-.07-21,4.69-20.59,12.8l-1.24,37.87c.38,8.11,12.52,9.23,24.47,9.3s19.88-.8,19.5-8.91L291,154.07C290.61,146,282.33,138.69,270.38,138.61Z"/><polygon class="cls-7" points="266.7 449.07 279.59 450.47 298.79 419.03 286.41 419.03 266.7 449.07"/><path class="cls-6" d="M226.49,189l-1.35,28.4h84.39L311,186.13C286.07,178.65,251.48,178.72,226.49,189Z"/><path class="cls-8" d="M306.82,184.55c-3.14,14.56-21.61,17.84-41.68,18.17C247,203,239,199.11,236.47,185.21c-6.05,1-21.58,5.91-30.32,11.34L194.48,441.08a245.12,245.12,0,0,0,56.89,5.72c25.84-.33,46-20.83,58-23.92l11.19-234.35a42.3,42.3,0,0,0-7-2.13C311.37,185.77,309.13,185.16,306.82,184.55Z"/><path class="cls-5" d="M242.19,184.08c-10.86,0-32.93,8.83-39.87,15.31-14.84,13.85-16.63,47.86-20.34,97.27-4,53-3.75,47.86-15.49,150.17a413.52,413.52,0,0,0,66,9c-1.55-73.39,21.37-234.59,23.1-246.51C255,205.55,244.11,194.59,242.19,184.08Z"/><path class="cls-5" d="M313.54,186.4c-2.17-.63-12.13-3.27-14.44-3.89-2.7,12.5-7.66,10-23.37,26.53-2.15,14.53-19.39,133.66-22.34,249.51,30.94,8.42,25.41-22.68,44.57-26.3,19.65-3.7,37.45,10.13,37.45,10.13-2.15-57,4.48-161.78,7-211.76C342.63,225.84,345.07,193,313.54,186.4Z"/><path class="cls-9" d="M236.37,184.68h0s-6.68,24.77-1.71,35.55c0,0,2.15-15.49,8.84-12.8,4.44,1.79,8.57,8.24,10.88,12.26.6-5.39,1-9,1.22-10.35-.57-3.67-10.8-14.08-13.18-24.29A32.47,32.47,0,0,0,236.37,184.68Z"/><path class="cls-10" d="M242.46,194.66c-.16.85-15.75,85.58-22.5,157.14-4.49,47.52-5.5,83.6-5.67,102.64,1.77.17,3.57.35,5.39.51.15-18.7,1.12-54.92,5.65-102.89,6.29-66.66,20.28-144.83,22.21-155.45-.28-.45-.56-.9-.83-1.36Z"/><path class="cls-10" d="M289.27,196.71c-.75.6-1.55,1.24-2.41,1.95C284.8,212,274,284.32,270.61,352.45c-2.4,48-2.14,86.81-1.69,106.7a16.8,16.8,0,0,0,5.31-2.74c-.45-19.43-.66-55.44,1.77-104,3.74-74.76,16.4-154.59,16.52-155.39l-3.24-.37Z"/><path class="cls-9" d="M302.79,184.68a32.37,32.37,0,0,0-4.27.15c-2.83,9.93-8.13,8.78-22.79,24.21-.25,1.66-1.25,7-1.9,13.31,4.81-4.78,15.78-13.41,19.67-14.92,6.94-2.69,7.61,12.8,7.61,12.8,6-10.78,1.68-35.54,1.68-35.55Z"/><polygon class="cls-10" points="195.22 233.83 192.22 239.5 239.56 231.6 238.94 226.29 195.22 233.83"/><path class="cls-10" d="M249.23,173.42s-5.7,2.08-13.59,12.19-2.16,31-2.16,31,1.36-4.94,4.23-13.22c4.22-12.16,17.89,5.92,17.89,5.92a67,67,0,0,0-3.6-13.79C248,185.43,249.23,173.42,249.23,173.42Z"/><path class="cls-11" d="M237.65,299.59a3.64,3.64,0,0,0-3.76,3.2,3.23,3.23,0,0,0,3.46,3.2,3.62,3.62,0,0,0,3.76-3.2A3.24,3.24,0,0,0,237.65,299.59Z"/><path class="cls-11" d="M231.3,348.09a3.63,3.63,0,0,0-3.77,3.2,3.24,3.24,0,0,0,3.46,3.2,3.62,3.62,0,0,0,3.76-3.2A3.22,3.22,0,0,0,231.3,348.09Z"/><path class="cls-11" d="M228.15,385.81a3.62,3.62,0,0,0-3.76,3.2,3.23,3.23,0,0,0,3.45,3.2,3.62,3.62,0,0,0,3.76-3.2A3.22,3.22,0,0,0,228.15,385.81Z"/><path class="cls-11" d="M226.28,424.87a3.62,3.62,0,0,0-3.76,3.2,3.23,3.23,0,0,0,3.46,3.2,3.63,3.63,0,0,0,3.76-3.2A3.23,3.23,0,0,0,226.28,424.87Z"/><path class="cls-11" d="M248.12,221.47a3.62,3.62,0,0,0-3.76,3.19,3.22,3.22,0,0,0,3.45,3.2,3.63,3.63,0,0,0,3.77-3.2A3.24,3.24,0,0,0,248.12,221.47Z"/><path class="cls-11" d="M242.78,257.63a3.63,3.63,0,0,0-3.77,3.2,3.24,3.24,0,0,0,3.46,3.2,3.62,3.62,0,0,0,3.76-3.2A3.22,3.22,0,0,0,242.78,257.63Z"/><path class="cls-10" d="M291.88,175.14s.18,4.33-4.79,14.44c-3.28,6.67-10,11.45-11.43,20,0,0,20.95-18.29,24-6.13,2.08,8.28,3,13.22,3,13.22s7.74-20.92.81-31S291.88,175.14,291.88,175.14Z"/><path class="cls-12" d="M249.23,173.42a18.15,18.15,0,0,0-3.86,2.33c-5.61,5.12-5.25,15.45-3.24,23.51,5.64-.24,13.47,10.08,13.47,10.08a67,67,0,0,0-3.6-13.79C248,185.43,249.23,173.42,249.23,173.42Z"/><path class="cls-12" d="M291.88,175.14s.18,4.33-4.79,14.44c-3.28,6.67-10,11.45-11.43,20,0,0,12.13-10.58,19.28-10.28,1.73-8.45,2.21-17-2.95-24.12Z"/><path class="cls-10" d="M186.29,246.58c-1.73,14.22-2.88,31-4.31,50.08-.26,3.51-.51,6.75-.74,9.8,10.45-83.12,28.42-108.85,34.06-115.08a26,26,0,0,0-10.87,5C199.42,205.33,192.15,222.24,186.29,246.58Z"/><path class="cls-10" d="M189,301.22a8,8,0,0,0,3.62,7.77l7.5,4.72a6.61,6.61,0,0,0,7-.06l10.34-6.37a8.62,8.62,0,0,0,4-6.24l3.92-31.61H192.82Z"/><path class="cls-10" d="M287.21,304.42a8.78,8.78,0,0,0,3.55,7.55l6.35,4.63a9.62,9.62,0,0,0,11.6-.41l10-7.87a12.23,12.23,0,0,0,4.7-9.38l.37-25.9h-35.1Z"/><path class="cls-13" d="M343.18,297.94c9.44,19.94,17.62,39.18,17.8,50.05-2.44,12.41-35.3,74-42.43,96.26-5.63,17.59,20.53,21,27.24,11,33.16-49.41,62-89.9,62-106.22.06-13.17-5-32-11.68-51.05Z"/><g class="cls-14"><path class="cls-15" d="M343.18,297.94c9.44,19.94,17.62,39.18,17.8,50.05a42.92,42.92,0,0,1-2.16,6.6c9.33-7.25,24.39-10.91,33.75-9.52a17.44,17.44,0,0,1,13.86,11.39,25.9,25.9,0,0,0,1.41-7.47c.06-13.17-5-32-11.68-51.05Z"/></g><path class="cls-5" d="M355.38,204.44C329,186,306.82,184.55,306.82,184.55c8,20.56,35.91,118.45,45.58,144.42,6.12-4.11,22.74-10.62,51.22-14.29C393.06,273.7,387.37,226.75,355.38,204.44Z"/><path class="cls-13" d="M323.58,435a16,16,0,0,1,.78-3.49c.39-.75-17.36,1.44-24.66,8.11-4.25,3.88-13,7.32-16,12.24-1.44,2.36-2.38,5.12-4.43,7a12.67,12.67,0,0,1-3.17,2.27,3,3,0,0,0-1.11.75,2,2,0,0,0,.38,2.56,4.4,4.4,0,0,0,2.59,1,13.55,13.55,0,0,0,8.69-2c1.77-1.11,2.88-3,4.58-4.16a6.91,6.91,0,0,1,5.72-.64,1.12,1.12,0,0,1,.63.34,1.24,1.24,0,0,1,.13.93c-.58,4.72-1.36,9.33-2.21,14q-.94,5.08-1.88,10.18c-.26,1.42-.49,3,.28,4.2,1,1.56,3.22,1.76,5,1.35a34.41,34.41,0,0,1,6.12-1.12c2.27-.09,4.4.41,6.61-.45,2.45-.95,4.93-2.46,7.67-2a26.19,26.19,0,0,0,3.6.76,10.75,10.75,0,0,0,4.15-1c3.1-1.19,6-.44,9.11-1,3.62-.68,6.17-3.82,7.5-7.23,3.5-8.91,8.6-33,8.6-33-5.7-2.28-12-2.78-17.66-5.06C331,438.05,327.28,436.48,323.58,435Z"/><path class="cls-16" d="M327.27,471c-10.1,2.89-23.49,2.76-27.26-9.27-2.11-6.77-.17-16.75,4-25a20.89,20.89,0,0,0-4.34,2.94c-4.25,3.88-13,7.32-16,12.24-1.44,2.36-2.38,5.12-4.43,7a12.67,12.67,0,0,1-3.17,2.27,3,3,0,0,0-1.11.75,2,2,0,0,0,.38,2.56,4.4,4.4,0,0,0,2.59,1,13.55,13.55,0,0,0,8.69-2c1.77-1.11,2.88-3,4.58-4.16a6.91,6.91,0,0,1,5.72-.64,1.12,1.12,0,0,1,.63.34,1.24,1.24,0,0,1,.13.93c-.58,4.72-1.36,9.33-2.21,14q-.94,5.08-1.88,10.18c-.26,1.42-.49,3,.28,4.2,1,1.56,3.22,1.76,5,1.35a34.41,34.41,0,0,1,6.12-1.12c2.27-.09,4.4.41,6.61-.45,2.45-.95,4.93-2.46,7.67-2a26.19,26.19,0,0,0,3.6.76,10.75,10.75,0,0,0,4.15-1c3.1-1.19,6-.44,9.11-1,3.62-.68,6.17-3.82,7.5-7.23,2.59-6.6,6.06-21.52,7.68-28.83C348.66,460.65,338.72,467.72,327.27,471Z"/><path class="cls-2" d="M288.29,439c-3.5,4.57.55,23.06.55,23.06l6.66.29s.27-16.89,4.2-22.68C301.15,437.51,289.85,436.92,288.29,439Z"/><path class="cls-10" d="M313.21,185.54c5.62,10.62,21.67,71.72,23.26,170.84h0c0-17.57,1.34-35.45,2.19-52.5-2.32-67.63-11.39-103.38-17.59-116.32A24.06,24.06,0,0,0,313.21,185.54Z"/><polygon class="cls-10" points="284.83 230.5 327.99 239.5 329.33 234.23 286.17 225.22 284.83 230.5"/><path class="cls-17" d="M342.63,306.11c-.63,6.1,3.47,19.34,7.29,33,3.29,11.71,10.25,11.82,10.25,11.82,14.63-13,47-10,47-10a6.55,6.55,0,0,0,4.37-4.7c.08-8.26-7.66-41.93-7.66-41.93C395.48,284.09,343.57,296.92,342.63,306.11Z"/><path class="cls-17" d="M167.25,300.44c-15.94,0-31,13.18-26.51,30.61s10.62,36.33,26.51,32.51c23-5.52,31.62-23,28.63-35.63C191.7,310.29,183.19,300.44,167.25,300.44Z"/><path class="cls-18" d="M223,201.74a4.65,4.65,0,0,0-4.54-4L191,197a4.61,4.61,0,0,0-2.69,1c-2,1.4-2.73,2-2.73,2l11.16,53.21a1.52,1.52,0,0,0,1.49,1.31l31.29.8a2.41,2.41,0,0,0,2.27-2.72Z"/><path class="cls-19" d="M220.27,198.16a4.7,4.7,0,0,0-1.85-.43L191,197a4.64,4.64,0,0,0-2.69,1c-2,1.4-2.73,2-2.73,2l.15.74c5.54-.2,11.07-.08,16.61-.16,2.82,0,8-.52,10.84-.36C220.26,200.72,222.69,199.9,220.27,198.16Z"/><path class="cls-20" d="M240,264.35s1.53-1.56.9-5.68-3.39-3.68-3.39-3.68c6.1-5.44.12-10.54-4-9.52s-8.08,4.71-13.74,6.59-19.9,9.29-19.9,9.29a141.34,141.34,0,0,1,15.92-10.75c7.19-3.91,12-4.26,15.37-7.2s2-8-2.45-8.1-14.38,4-19.83,6.22S193,250.25,193,250.25v-4.5a39.55,39.55,0,0,0,2.11-6.95c.41-2.8-3.22-13.13-5.78-13.29s-3.16,2.53-4.21,8.56-3.7,10.59-5.38,15.9,2,23.57,2,23.57c-.79,4-9.45,23.58-13.64,28.51s-6.33,2.24-13.5,5.31-11,7.54-10.05,18.15,5.12,10.15,6.79,15.74,7.08,14.89,10.62,17.87,8,1.86,11.73-2.42,11.73-5,16.94-12.29,11.64-42.22,11.64-42.22a40.1,40.1,0,0,0,4.61-1c4.12-1,18.5-12.15,24.5-16.27s10.13-14.67,10.38-17.25A3.11,3.11,0,0,0,240,264.35Z"/><path class="cls-21" d="M240,264.35s1.53-1.56.9-5.68-3.39-3.68-3.39-3.68c6.1-5.44.12-10.54-4-9.52s-8.08,4.71-13.74,6.59-19.9,9.29-19.9,9.29a141.34,141.34,0,0,1,15.92-10.75c7.19-3.91,12-4.26,15.37-7.2s2-8-2.45-8.1-14.38,4-19.83,6.22S193,250.25,193,250.25v-4.5a39.55,39.55,0,0,0,2.11-6.95c.41-2.8-3.22-13.13-5.78-13.29s-3.16,2.53-4.21,8.56-3.7,10.59-5.38,15.9,2,23.57,2,23.57c-.79,4-9.45,23.58-13.64,28.51s-6.33,2.24-13.5,5.31-11,7.54-10.05,18.15,5.12,10.15,6.79,15.74,7.08,14.89,10.62,17.87,8,1.86,11.73-2.42,11.73-5,16.94-12.29,11.64-42.22,11.64-42.22a40.1,40.1,0,0,0,4.61-1c4.12-1,18.5-12.15,24.5-16.27s10.13-14.67,10.38-17.25A3.11,3.11,0,0,0,240,264.35Z"/><path class="cls-22" d="M220.26,204.25a4.63,4.63,0,0,0-4.54-4L187,199.5a2.42,2.42,0,0,0-2.28,2.72L194,255.81c.14.78,1.22,5.74,2,5.76l31.13-1.42c1.32,0,2.18-3.6,1.95-4.94Z"/><path class="cls-20" d="M241.58,258.28c-.9-3.75-4.1-3.29-4.1-3.29,6.1-5.44.12-10.54-4-9.52s-7.5,3.83-13.74,6.59c-5.45,2.41-18.56,8-18.56,8a165.62,165.62,0,0,1,14.91-8.73c7.9-3.91,11.68-5,15-8s2-8-2.45-8.1-14.38,4-19.83,6.22S193,248.69,193,248.69a25.48,25.48,0,0,1-6.52,3.76c-2.42,1.61-4.7,3.43-7,5.15a155,155,0,0,0,2.25,15.94c-.79,4-9.45,23.58-13.64,28.51s-6.33,2.24-13.5,5.31-11,7.54-10.05,18.15,5.12,10.15,6.79,15.74,7.08,14.89,10.62,17.87,8,1.86,11.73-2.42,11.73-5,16.94-12.29,11.64-42.22,11.64-42.22a40.1,40.1,0,0,0,4.61-1c4.12-1,18.5-12.15,24.5-16.27s10.13-14.67,10.38-17.25a3.11,3.11,0,0,0-1.72-3.35A5.91,5.91,0,0,0,241.58,258.28Z"/><path class="cls-23" d="M215.72,200.24l-13.27-.34-16.55,8.94,2.22,12.87,32.14-17.46A4.63,4.63,0,0,0,215.72,200.24Z"/><path class="cls-24" d="M194,207.48a3.66,3.66,0,0,0-3.72-2.71,2.57,2.57,0,0,0-2.74,2.89l1.21,6.86a3.67,3.67,0,0,0,3.73,2.71,2.57,2.57,0,0,0,2.73-2.89Z"/><path class="cls-25" d="M194,207.48a3.32,3.32,0,0,0-1.94-2.29l-4.52,2a2.06,2.06,0,0,0,0,.43l1.21,6.86a3.67,3.67,0,0,0,3.73,2.71,2.57,2.57,0,0,0,2.73-2.89Z"/><path class="cls-21" d="M241.58,258.28c-.9-3.75-4.1-3.29-4.1-3.29,6.1-5.44.12-10.54-4-9.52s-7.5,3.83-13.74,6.59c-5.45,2.41-18.56,8-18.56,8a165.62,165.62,0,0,1,14.91-8.73c7.9-3.91,11.68-5,15-8s2-8-2.45-8.1-14.38,4-19.83,6.22S193,248.69,193,248.69a25.48,25.48,0,0,1-6.52,3.76c-2.42,1.61-4.7,3.43-7,5.15a155,155,0,0,0,2.25,15.94c-.79,4-9.45,23.58-13.64,28.51s-6.33,2.24-13.5,5.31-11,7.54-10.05,18.15,5.12,10.15,6.79,15.74,7.08,14.89,10.62,17.87,8,1.86,11.73-2.42,11.73-5,16.94-12.29,11.64-42.22,11.64-42.22a40.1,40.1,0,0,0,4.61-1c4.12-1,18.5-12.15,24.5-16.27s10.13-14.67,10.38-17.25a3.11,3.11,0,0,0-1.72-3.35A5.91,5.91,0,0,0,241.58,258.28Zm-49-7.75s11.11-5.94,18.21-8.65,15.15-6.33,18.26-5.49,3.38,4.39,1.5,6.39-14.27,6.59-19.69,9.82-10.59,6.13-14.34,8.71S186.92,254.88,192.63,250.53Zm3.49,22.73c-1.61-1.42-4.52-6-.32-8.65,0,0,4.45-2.39,10.78-5.14s13-5.78,18.6-8.81,9.75-5.3,12.59-2.39-1.74,6.46-4.58,8.33-15.11,8.52-21.38,11.88S197.74,274.68,196.12,273.26Zm41.59,2.58C234,281.91,220.27,291,214,294s-7.94-3.62-8.4-5.94,2.65-2.84,7.62-5.36,20.09-11.63,22.67-14.53c0,0,3.1-2.84,3.62-2.65S241.45,269.77,237.71,275.84Zm-1.94-9.58c-3.68,2.93-18.4,12.75-26.41,16.49s-12.42-3.67-9.49-7c0,0,10.85-4.26,17.43-7.75s15.24-8.78,17.57-10.14,4.13-1.94,5.23.65S239.45,263.32,235.77,266.26Z"/><path class="cls-26" d="M182.82,287.21c-2.57.07-4,3-5.12,5a76.06,76.06,0,0,1-4.47,6.72c-3.18,4.17-7.31,7.89-12.37,9.44-7.94,2.42-11.62,4.24-12.18,11-.59,7.07,6.62,17.64,18.19,11.18a28.7,28.7,0,0,0,6.29-4.9,54.6,54.6,0,0,0,10.5-15.5c2.52-5.4,5.65-13.07,3.39-19.21C186.35,289,184.76,287.16,182.82,287.21Z"/><path class="cls-6" d="M217.39,105.36c-5.29,1.74-7.67,9.48-5.31,17.27s8.56,12.71,13.86,11,7.67-9.48,5.31-17.28S222.69,103.62,217.39,105.36Z"/><path class="cls-27" d="M249.67,35.15s0-.09,0-.24C249.66,35.06,249.67,35.15,249.67,35.15Z"/><path class="cls-13" d="M314.63,116.16c.06-19-2.72-43-6.58-57.09-3-18.37-54.81-27-70.08-1.82-4.86,11.7-12.78,33.53-15.41,55.22v-.37s-14.11,57.67,37.22,61.26,57-23.48,54.85-57.2Z"/><g class="cls-28"><ellipse class="cls-13" cx="240.5" cy="122.42" rx="20.1" ry="18.45" transform="translate(114.78 361.21) rotate(-89.21)"/><ellipse class="cls-29" cx="240.5" cy="122.42" rx="19.97" ry="18.33" transform="translate(114.78 361.21) rotate(-89.21)"/><path class="cls-30" d="M240.77,102.58c-10.06-.14-18.34,8.63-18.49,19.59s7.88,20,17.95,20.09,18.33-8.63,18.49-19.59S250.83,102.71,240.77,102.58Z"/><ellipse class="cls-31" cx="240.5" cy="122.42" rx="19.72" ry="18.1" transform="translate(114.78 361.21) rotate(-89.21)"/><ellipse class="cls-32" cx="240.5" cy="122.42" rx="19.59" ry="17.99" transform="translate(114.78 361.21) rotate(-89.21)"/><path class="cls-33" d="M240.77,103c-9.87-.13-18,8.47-18.14,19.22s7.73,19.58,17.6,19.72,18-8.47,18.14-19.22S250.64,103.09,240.77,103Z"/><ellipse class="cls-34" cx="240.5" cy="122.42" rx="19.34" ry="17.76" transform="translate(114.78 361.21) rotate(-89.21)"/><ellipse class="cls-35" cx="240.5" cy="122.42" rx="19.22" ry="17.64" transform="translate(114.78 361.21) rotate(-89.21)"/><ellipse class="cls-36" cx="240.5" cy="122.42" rx="19.09" ry="17.53" transform="translate(114.79 361.21) rotate(-89.21)"/><ellipse class="cls-37" cx="240.5" cy="122.42" rx="18.97" ry="17.41" transform="translate(114.78 361.21) rotate(-89.21)"/><ellipse class="cls-38" cx="240.5" cy="122.42" rx="18.84" ry="17.3" transform="translate(114.78 361.21) rotate(-89.21)"/><path class="cls-39" d="M240.76,103.71c-9.49-.13-17.3,8.14-17.44,18.47s7.43,18.82,16.92,18.95,17.3-8.14,17.44-18.47S250.24,103.84,240.76,103.71Z"/><ellipse class="cls-40" cx="240.5" cy="122.42" rx="18.59" ry="17.07" transform="translate(114.79 361.21) rotate(-89.21)"/><path class="cls-41" d="M240.75,104c-9.36-.13-17.06,8-17.2,18.23s7.33,18.56,16.69,18.69,17.07-8,17.21-18.23S250.11,104.09,240.75,104Z"/><ellipse class="cls-42" cx="240.5" cy="122.42" rx="18.34" ry="16.84" transform="translate(114.78 361.21) rotate(-89.21)"/><ellipse class="cls-43" cx="240.5" cy="122.42" rx="18.21" ry="16.72" transform="translate(114.78 361.21) rotate(-89.21)"/><ellipse class="cls-44" cx="240.5" cy="122.42" rx="18.09" ry="16.6" transform="translate(114.78 361.21) rotate(-89.21)"/><ellipse class="cls-45" cx="240.5" cy="122.42" rx="17.96" ry="16.49" transform="translate(114.78 361.21) rotate(-89.21)"/><ellipse class="cls-46" cx="240.5" cy="122.42" rx="17.84" ry="16.37" transform="translate(114.78 361.21) rotate(-89.21)"/><path class="cls-47" d="M240.74,104.71c-9-.12-16.36,7.71-16.5,17.49s7,17.8,16,17.93,16.37-7.71,16.51-17.49S249.72,104.83,240.74,104.71Z"/><path class="cls-48" d="M240.74,104.84c-8.91-.13-16.25,7.65-16.38,17.36s7,17.68,15.9,17.8,16.25-7.65,16.38-17.36S249.66,105,240.74,104.84Z"/><ellipse class="cls-49" cx="240.5" cy="122.42" rx="17.46" ry="16.03" transform="translate(114.78 361.21) rotate(-89.21)"/><ellipse class="cls-50" cx="240.5" cy="122.42" rx="17.33" ry="15.91" transform="translate(114.78 361.21) rotate(-89.21)"/><ellipse class="cls-51" cx="240.5" cy="122.42" rx="17.21" ry="15.8" transform="translate(114.78 361.21) rotate(-89.21)"/><ellipse class="cls-52" cx="240.5" cy="122.42" rx="17.08" ry="15.68" transform="translate(114.78 361.21) rotate(-89.21)"/><ellipse class="cls-53" cx="240.5" cy="122.42" rx="16.96" ry="15.57" transform="translate(114.77 361.21) rotate(-89.21)"/><path class="cls-54" d="M240.73,105.59c-8.53-.12-15.55,7.32-15.68,16.62s6.68,16.92,15.22,17,15.55-7.32,15.68-16.62S249.26,105.71,240.73,105.59Z"/><ellipse class="cls-55" cx="240.5" cy="122.42" rx="16.71" ry="15.34" transform="translate(114.78 361.21) rotate(-89.21)"/><ellipse class="cls-56" cx="240.5" cy="122.42" rx="16.58" ry="15.22" transform="translate(114.78 361.21) rotate(-89.21)"/><ellipse class="cls-57" cx="240.5" cy="122.42" rx="16.45" ry="15.11" transform="translate(114.79 361.21) rotate(-89.21)"/><ellipse class="cls-58" cx="240.5" cy="122.42" rx="16.33" ry="14.99" transform="translate(114.78 361.21) rotate(-89.21)"/><ellipse class="cls-59" cx="240.5" cy="122.42" rx="16.2" ry="14.88" transform="translate(114.78 361.21) rotate(-89.21)"/><ellipse class="cls-60" cx="240.5" cy="122.42" rx="16.08" ry="14.76" transform="translate(114.78 361.21) rotate(-89.21)"/><ellipse class="cls-61" cx="240.5" cy="122.42" rx="15.95" ry="14.64" transform="translate(114.78 361.21) rotate(-89.21)"/><ellipse class="cls-62" cx="240.5" cy="122.42" rx="15.83" ry="14.53" transform="translate(114.78 361.21) rotate(-89.21)"/><ellipse class="cls-63" cx="240.5" cy="122.42" rx="15.7" ry="14.41" transform="translate(114.78 361.21) rotate(-89.21)"/><path class="cls-64" d="M240.71,106.85c-7.89-.11-14.39,6.77-14.51,15.37s6.19,15.66,14.08,15.77,14.4-6.77,14.52-15.37S248.61,107,240.71,106.85Z"/><path class="cls-65" d="M240.71,107c-7.83-.11-14.28,6.72-14.39,15.25s6.13,15.54,14,15.65,14.27-6.72,14.39-15.26S248.54,107.08,240.71,107Z"/><ellipse class="cls-66" cx="240.5" cy="122.42" rx="15.32" ry="14.07" transform="translate(114.78 361.21) rotate(-89.21)"/><ellipse class="cls-67" cx="240.5" cy="122.42" rx="15.2" ry="13.95" transform="translate(114.78 361.21) rotate(-89.21)"/><ellipse class="cls-68" cx="240.5" cy="122.42" rx="15.07" ry="13.84" transform="translate(114.78 361.21) rotate(-89.21)"/><ellipse class="cls-69" cx="240.5" cy="122.42" rx="14.95" ry="13.72" transform="translate(114.78 361.21) rotate(-89.21)"/><ellipse class="cls-70" cx="240.5" cy="122.42" rx="14.82" ry="13.61" transform="translate(114.78 361.21) rotate(-89.21)"/><path class="cls-71" d="M240.7,107.73c-7.45-.11-13.58,6.39-13.69,14.5s5.84,14.78,13.29,14.88,13.58-6.39,13.69-14.51S248.15,107.83,240.7,107.73Z"/><ellipse class="cls-72" cx="240.5" cy="122.42" rx="14.57" ry="13.38" transform="translate(114.78 361.21) rotate(-89.21)"/><ellipse class="cls-73" cx="240.5" cy="122.42" rx="14.44" ry="13.26" transform="translate(114.78 361.21) rotate(-89.21)"/><path class="cls-74" d="M240.7,108.1c-7.26-.1-13.24,6.23-13.35,14.14s5.69,14.4,13,14.5,13.23-6.23,13.34-14.14S248,108.2,240.7,108.1Z"/><ellipse class="cls-75" cx="240.5" cy="122.42" rx="14.19" ry="13.03" transform="translate(114.78 361.21) rotate(-89.21)"/><ellipse class="cls-76" cx="240.5" cy="122.42" rx="14.07" ry="12.91" transform="translate(114.77 361.21) rotate(-89.21)"/><ellipse class="cls-77" cx="240.5" cy="122.42" rx="13.94" ry="12.8" transform="translate(114.78 361.21) rotate(-89.21)"/><path class="cls-78" d="M240.69,108.6c-7-.09-12.77,6-12.88,13.64s5.49,13.9,12.5,14,12.77-6,12.87-13.64S247.69,108.7,240.69,108.6Z"/><ellipse class="cls-79" cx="240.5" cy="122.42" rx="13.69" ry="12.57" transform="translate(114.78 361.21) rotate(-89.21)"/><path class="cls-80" d="M240.68,108.86c-6.87-.1-12.53,5.9-12.63,13.39s5.38,13.64,12.26,13.73,12.54-5.9,12.64-13.39S247.56,109,240.68,108.86Z"/><path class="cls-81" d="M240.68,109c-6.81-.09-12.42,5.85-12.52,13.27s5.34,13.51,12.15,13.61,12.42-5.85,12.53-13.27S247.5,109.07,240.68,109Z"/><ellipse class="cls-82" cx="240.5" cy="122.42" rx="13.31" ry="12.22" transform="translate(114.78 361.21) rotate(-89.21)"/><path class="cls-83" d="M240.68,109.23c-6.69-.09-12.19,5.74-12.29,13s5.24,13.26,11.93,13.36,12.18-5.74,12.28-13S247.37,109.32,240.68,109.23Z"/><path class="cls-84" d="M240.68,109.36c-6.62-.09-12.07,5.68-12.17,12.89s5.19,13.14,11.81,13.23,12.07-5.68,12.17-12.9S247.3,109.45,240.68,109.36Z"/><ellipse class="cls-85" cx="240.5" cy="122.42" rx="12.94" ry="11.88" transform="translate(114.78 361.21) rotate(-89.21)"/><path class="cls-86" d="M240.67,109.61c-6.49-.09-11.84,5.57-11.93,12.65s5.09,12.88,11.58,13,11.84-5.57,11.94-12.65S247.17,109.7,240.67,109.61Z"/><path class="cls-87" d="M240.67,109.73c-6.43-.08-11.72,5.52-11.82,12.53s5,12.76,11.47,12.84,11.73-5.51,11.82-12.52S247.1,109.82,240.67,109.73Z"/><path class="cls-88" d="M240.67,109.86c-6.37-.09-11.61,5.46-11.7,12.4s5,12.63,11.36,12.72,11.6-5.47,11.7-12.4S247,110,240.67,109.86Z"/><ellipse class="cls-89" cx="240.5" cy="122.42" rx="12.43" ry="11.42" transform="translate(114.77 361.21) rotate(-89.21)"/><path class="cls-90" d="M240.67,110.11c-6.24-.08-11.38,5.36-11.47,12.15s4.89,12.38,11.13,12.47,11.37-5.36,11.47-12.16S246.91,110.2,240.67,110.11Z"/><path class="cls-91" d="M240.67,110.24c-6.18-.09-11.26,5.3-11.36,12s4.84,12.25,11,12.33,11.26-5.3,11.35-12S246.84,110.32,240.67,110.24Z"/><ellipse class="cls-92" cx="240.5" cy="122.42" rx="12.06" ry="11.07" transform="translate(114.78 361.21) rotate(-89.21)"/><path class="cls-93" d="M240.66,110.49c-6-.08-11,5.19-11.12,11.78s4.74,12,10.79,12.08,11-5.19,11.12-11.78S246.71,110.57,240.66,110.49Z"/><ellipse class="cls-94" cx="240.5" cy="122.42" rx="11.81" ry="10.84" transform="translate(114.78 361.21) rotate(-89.21)"/><ellipse class="cls-95" cx="240.5" cy="122.42" rx="11.68" ry="10.72" transform="translate(114.78 361.21) rotate(-89.21)"/><path class="cls-96" d="M240.66,110.87c-5.86-.09-10.68,5-10.77,11.4s4.59,11.62,10.45,11.7,10.68-5,10.77-11.4S246.52,111,240.66,110.87Z"/><path class="cls-97" d="M240.66,111c-5.8-.08-10.57,5-10.65,11.28s4.54,11.5,10.33,11.58,10.56-5,10.65-11.29S246.45,111.07,240.66,111Z"/><path class="cls-98" d="M240.65,111.12c-5.73-.08-10.44,4.91-10.53,11.16s4.49,11.36,10.22,11.44,10.45-4.92,10.54-11.16S246.38,111.2,240.65,111.12Z"/><path class="cls-99" d="M240.65,111.24c-5.67-.08-10.33,4.86-10.41,11s4.44,11.24,10.1,11.32,10.34-4.87,10.42-11S246.32,111.32,240.65,111.24Z"/><path class="cls-100" d="M240.65,111.37c-5.6-.08-10.21,4.81-10.3,10.91s4.39,11.11,10,11.19,10.21-4.81,10.29-10.91S246.25,111.44,240.65,111.37Z"/><path class="cls-101" d="M240.65,111.49c-5.54-.07-10.1,4.76-10.18,10.79s4.34,11,9.88,11.07,10.1-4.76,10.18-10.79S246.19,111.57,240.65,111.49Z"/><path class="cls-102" d="M240.65,111.62c-5.48-.08-10,4.7-10.07,10.66s4.29,10.86,9.77,10.94,10-4.7,10.06-10.66S246.12,111.69,240.65,111.62Z"/><ellipse class="cls-103" cx="240.5" cy="122.42" rx="10.68" ry="9.8" transform="translate(114.78 361.21) rotate(-89.21)"/><path class="cls-104" d="M240.64,111.87c-5.35-.07-9.75,4.59-9.83,10.42S235,132.9,240.35,133s9.75-4.59,9.83-10.42S246,111.94,240.64,111.87Z"/><path class="cls-105" d="M240.64,112c-5.28-.08-9.63,4.53-9.71,10.29s4.14,10.48,9.42,10.55,9.64-4.53,9.72-10.29S245.93,112.07,240.64,112Z"/><path class="cls-106" d="M240.64,112.12c-5.22-.07-9.52,4.48-9.6,10.17s4.09,10.36,9.32,10.43,9.51-4.48,9.59-10.17S245.86,112.19,240.64,112.12Z"/><path class="cls-107" d="M240.64,112.25c-5.16-.07-9.4,4.42-9.48,10s4,10.23,9.2,10.3,9.4-4.42,9.48-10S245.8,112.32,240.64,112.25Z"/><path class="cls-108" d="M240.64,112.37c-5.1-.07-9.29,4.37-9.37,9.92s4,10.11,9.09,10.18,9.29-4.37,9.36-9.92S245.73,112.44,240.64,112.37Z"/></g><g class="cls-28"><circle class="cls-13" cx="291.3" cy="123.99" r="20.1" transform="translate(-24.91 108.4) rotate(-20.23)"/><circle class="cls-29" cx="291.3" cy="123.99" r="19.97" transform="translate(38.55 314.65) rotate(-60.09)"/><circle class="cls-30" cx="291.3" cy="123.99" r="19.85" transform="matrix(0.97, -0.25, 0.25, 0.97, -21.97, 78.24)"/><circle class="cls-31" cx="291.3" cy="123.99" r="19.72" transform="translate(-7.14 18.34) rotate(-3.56)"/><circle class="cls-32" cx="291.3" cy="123.99" r="19.59" transform="translate(-25.1 135.12) rotate(-25.07)"/><circle class="cls-33" cx="291.3" cy="123.99" r="19.47" transform="translate(-22.38 166.85) rotate(-30.84)"/><circle class="cls-34" cx="291.3" cy="123.99" r="19.34" transform="translate(5.27 259.7) rotate(-48.44)"/><circle class="cls-35" cx="291.3" cy="123.99" r="19.22" transform="translate(83.51 362.85) rotate(-72.03)"/><circle class="cls-36" cx="291.3" cy="123.99" r="19.09" transform="translate(31.04 304.25) rotate(-57.76)"/><circle class="cls-37" cx="291.3" cy="123.99" r="18.97" transform="translate(-22.48 81.89) rotate(-15.41)"/><circle class="cls-38" cx="291.3" cy="123.99" r="18.84" transform="translate(76.49 356.56) rotate(-70.33)"/><circle class="cls-39" cx="291.3" cy="123.99" r="18.71" transform="translate(48.14 326.73) rotate(-62.88)"/><circle class="cls-40" cx="291.3" cy="123.99" r="18.59" transform="translate(-5.95 15.03) rotate(-2.93)"/><circle class="cls-41" cx="291.3" cy="123.99" r="18.46" transform="translate(158.08 411.19) rotate(-88.17)"/><circle class="cls-42" cx="291.3" cy="123.99" r="18.34" transform="translate(20.1 287.34) rotate(-54.12)"/><circle class="cls-43" cx="291.3" cy="123.99" r="18.21" transform="translate(-23.58 156.91) rotate(-29.03)"/><circle class="cls-44" cx="291.3" cy="123.99" r="18.09" transform="translate(-2.36 242.3) rotate(-45)"/><circle class="cls-45" cx="291.3" cy="123.99" r="17.96" transform="translate(75.86 355.97) rotate(-70.17)"/><circle class="cls-46" cx="291.3" cy="123.99" r="17.84" transform="translate(-2.12 5.1) rotate(-1)"/><circle class="cls-47" cx="291.3" cy="123.99" r="17.71" transform="translate(94.89 372.29) rotate(-74.71)"/><circle class="cls-48" cx="291.3" cy="123.99" r="17.58" transform="translate(-25.18 132.34) rotate(-24.57)"/><circle class="cls-49" cx="291.3" cy="123.99" r="17.46" transform="translate(58.14 338.16) rotate(-65.63)"/><circle class="cls-50" cx="291.3" cy="123.99" r="17.33" transform="translate(35.08 309.96) rotate(-59.03)"/><circle class="cls-51" cx="291.3" cy="123.99" r="17.21" transform="translate(31.02 304.23) rotate(-57.76)"/><circle class="cls-52" cx="291.3" cy="123.99" r="17.08" transform="translate(-19.69 64.73) rotate(-12.27)"/><circle class="cls-53" cx="291.3" cy="123.99" r="16.96" transform="translate(-25.07 135.93) rotate(-25.22)"/><circle class="cls-54" cx="291.3" cy="123.99" r="16.83" transform="translate(-4.98 235.56) rotate(-43.69)"/><path class="cls-55" d="M291.53,107.29A16.71,16.71,0,1,0,308,124.22,16.71,16.71,0,0,0,291.53,107.29Z"/><path class="cls-56" d="M291.53,107.42a16.58,16.58,0,1,0,16.35,16.8A16.57,16.57,0,0,0,291.53,107.42Z"/><circle class="cls-57" cx="291.3" cy="123.99" r="16.45" transform="translate(138.35 401.19) rotate(-84.17)"/><circle class="cls-58" cx="291.3" cy="123.99" r="16.33" transform="translate(154.24 409.38) rotate(-87.4)"/><path class="cls-59" d="M291.53,107.79a16.2,16.2,0,1,0,16,16.43A16.21,16.21,0,0,0,291.53,107.79Z"/><circle class="cls-60" cx="291.3" cy="123.99" r="16.08" transform="translate(41.85 318.94) rotate(-61.06)"/><circle class="cls-61" cx="291.3" cy="123.99" r="15.95"/><circle class="cls-62" cx="291.3" cy="123.99" r="15.83" transform="translate(15.17 278.85) rotate(-52.34)"/><circle class="cls-63" cx="291.3" cy="123.99" r="15.7" transform="translate(-9.38 223.09) rotate(-41.3)"/><circle class="cls-64" cx="291.3" cy="123.99" r="15.57" transform="translate(-23.16 160.63) rotate(-29.7)"/><circle class="cls-65" cx="291.3" cy="123.99" r="15.45" transform="translate(43.64 321.22) rotate(-61.59)"/><circle class="cls-66" cx="291.3" cy="123.99" r="15.32" transform="matrix(0.99, -0.15, 0.15, 0.99, -15.33, 45.2)"/><path class="cls-67" d="M291.51,108.8a15.2,15.2,0,1,0,15,15.4A15.18,15.18,0,0,0,291.51,108.8Z"/><path class="cls-68" d="M291.51,108.92a15.07,15.07,0,1,0,14.86,15.28A15.08,15.08,0,0,0,291.51,108.92Z"/><circle class="cls-69" cx="291.3" cy="123.99" r="14.95" transform="translate(86.02 365.01) rotate(-72.64)"/><path class="cls-70" d="M291.51,109.17a14.82,14.82,0,1,0,14.61,15A14.83,14.83,0,0,0,291.51,109.17Z"/><circle class="cls-71" cx="291.3" cy="123.99" r="14.7" transform="translate(-24.91 108.47) rotate(-20.25)"/><circle class="cls-72" cx="291.3" cy="123.99" r="14.57" transform="translate(128.77 395.68) rotate(-82.17)"/><circle class="cls-73" cx="291.3" cy="123.99" r="14.44" transform="translate(-21.89 77.74) rotate(-14.66)"/><circle class="cls-74" cx="291.3" cy="123.99" r="14.32" transform="translate(-23.47 157.86) rotate(-29.2)"/><path class="cls-75" d="M291.5,109.8a14.2,14.2,0,1,0,14,14.39A14.2,14.2,0,0,0,291.5,109.8Z"/><circle class="cls-76" cx="291.3" cy="123.99" r="14.07" transform="translate(-19.97 66.2) rotate(-12.54)"/><circle class="cls-77" cx="291.3" cy="123.99" r="13.94" transform="translate(-2.35 5.67) rotate(-1.11)"/><path class="cls-78" d="M291.49,110.18a13.82,13.82,0,1,0,13.63,14A13.8,13.8,0,0,0,291.49,110.18Z"/><path class="cls-79" d="M291.49,110.3A13.69,13.69,0,1,0,305,124.18,13.7,13.7,0,0,0,291.49,110.3Z"/><path class="cls-80" d="M291.49,110.43a13.57,13.57,0,1,0,13.38,13.75A13.57,13.57,0,0,0,291.49,110.43Z"/><circle class="cls-81" cx="291.3" cy="123.99" r="13.44" transform="matrix(0.34, -0.94, 0.94, 0.34, 75.58, 355.72)"/><path class="cls-82" d="M291.49,110.68a13.32,13.32,0,1,0,13.13,13.5A13.31,13.31,0,0,0,291.49,110.68Z"/><circle class="cls-83" cx="291.3" cy="123.99" r="13.19" transform="matrix(1, -0.08, 0.08, 1, -9.26, 24.53)"/><path class="cls-84" d="M291.48,110.93a13.06,13.06,0,1,0,12.88,13.24A13.06,13.06,0,0,0,291.48,110.93Z"/><path class="cls-85" d="M291.48,111.06a12.94,12.94,0,1,0,12.76,13.11A12.93,12.93,0,0,0,291.48,111.06Z"/><circle class="cls-86" cx="291.3" cy="123.99" r="12.81" transform="translate(-23.93 94.63) rotate(-17.74)"/><path class="cls-87" d="M291.48,111.31A12.69,12.69,0,1,0,304,124.17,12.68,12.68,0,0,0,291.48,111.31Z"/><path class="cls-88" d="M291.48,111.43a12.56,12.56,0,1,0,12.38,12.74A12.57,12.57,0,0,0,291.48,111.43Z"/><path class="cls-89" d="M291.47,111.56a12.44,12.44,0,1,0,12.27,12.6A12.44,12.44,0,0,0,291.47,111.56Z"/><path class="cls-90" d="M291.47,111.69a12.31,12.31,0,1,0,12.14,12.47A12.3,12.3,0,0,0,291.47,111.69Z"/><path class="cls-91" d="M291.47,111.81a12.19,12.19,0,1,0,12,12.35A12.19,12.19,0,0,0,291.47,111.81Z"/><path class="cls-92" d="M291.47,111.94a12.06,12.06,0,1,0,11.89,12.22A12.05,12.05,0,0,0,291.47,111.94Z"/><path class="cls-93" d="M291.47,112.06a11.93,11.93,0,1,0,11.76,12.1A11.94,11.94,0,0,0,291.47,112.06Z"/><circle class="cls-94" cx="291.3" cy="123.99" r="11.81" transform="translate(-23.22 87.86) rotate(-16.5)"/><path class="cls-95" d="M291.46,112.31A11.68,11.68,0,1,0,303,124.15,11.68,11.68,0,0,0,291.46,112.31Z"/><path class="cls-96" d="M291.46,112.44a11.56,11.56,0,1,0,11.4,11.71A11.55,11.55,0,0,0,291.46,112.44Z"/><path class="cls-97" d="M291.46,112.56a11.43,11.43,0,1,0,11.27,11.59A11.44,11.44,0,0,0,291.46,112.56Z"/><path class="cls-98" d="M291.46,112.69a11.31,11.31,0,1,0,11.15,11.46A11.31,11.31,0,0,0,291.46,112.69Z"/><path class="cls-99" d="M291.46,112.82a11.18,11.18,0,1,0,11,11.33A11.17,11.17,0,0,0,291.46,112.82Z"/><circle class="cls-100" cx="291.3" cy="123.99" r="11.05" transform="translate(151.9 408.24) rotate(-86.93)"/><path class="cls-101" d="M291.45,113.07a10.93,10.93,0,1,0,10.78,11.07A10.92,10.92,0,0,0,291.45,113.07Z"/><path class="cls-102" d="M291.45,113.19a10.8,10.8,0,1,0,10.65,11A10.81,10.81,0,0,0,291.45,113.19Z"/><path class="cls-103" d="M291.45,113.32A10.68,10.68,0,1,0,302,124.14,10.67,10.67,0,0,0,291.45,113.32Z"/><circle class="cls-104" cx="291.3" cy="123.99" r="10.55" transform="translate(-15.13 44.43) rotate(-8.5)"/><path class="cls-105" d="M291.45,113.57a10.43,10.43,0,1,0,10.28,10.57A10.42,10.42,0,0,0,291.45,113.57Z"/><path class="cls-106" d="M291.44,113.69a10.3,10.3,0,1,0,10.16,10.45A10.31,10.31,0,0,0,291.44,113.69Z"/><path class="cls-107" d="M291.44,113.82a10.18,10.18,0,1,0,10,10.31A10.18,10.18,0,0,0,291.44,113.82Z"/><path class="cls-108" d="M291.44,114a10,10,0,1,0,9.91,10.18A10,10,0,0,0,291.44,114Z"/></g><path class="cls-13" d="M325.66,106.88c-5.25-1.89-11.58,2.84-14.16,10.57s-.4,15.53,4.84,17.42,11.58-2.85,14.16-10.58S330.9,108.76,325.66,106.88Z"/><path class="cls-6" d="M326.22,125.12a11.91,11.91,0,0,1-14.43-1,51.86,51.86,0,0,1-10.67,31.42c-7.51,10.1-23.71,13.42-35.74,13-28.69-1.1-36.23-9.88-42.11-21.73,4,13,13.94,25,36.51,26.6,41.81,2.92,53.35-14.5,55-39.3a6.93,6.93,0,0,0,1.55.81c5.25,1.88,11.58-2.85,14.16-10.58a21.26,21.26,0,0,0,1.07-5.89A13,13,0,0,1,326.22,125.12Z"/><path class="cls-6" d="M317,120.9l4.8.69c0-7.57,5.58-10.08,5.58-10.08C318.24,108.2,317,120.9,317,120.9Z"/><path class="cls-109" d="M278.43,80.31s-10,19.28-.38,30.67l23.79-1.4s1.47-8,.8-13.1S278.43,80.31,278.43,80.31Z"/><path class="cls-110" d="M248.11,138.72s-.84,2.82.54,4.2,5.37,5,17.78,4.42c11.7-.56,17-4.88,18-6.87s-.14-4.9-.14-4.9Z"/><path class="cls-109" d="M233.44,96.48A85.86,85.86,0,0,0,231,108.73l22,3.2c10.37-11.18,5.91-31.36,5.91-31.36S234.94,91.9,233.44,96.48Z"/><path class="cls-1" d="M291.57,101.8c-10-.89-13.52,9.18-13.52,9.18s2,2.76,12.5,3c12.11.24,11.29-4.37,11.29-4.37S301.52,102.69,291.57,101.8Z"/><path class="cls-1" d="M231,108.73s-1.18,4.06,9.67,4.53c11.38.49,12.37-1.33,12.37-1.33S242.22,91.82,231,108.73Z"/><path class="cls-111" d="M246.06,104.51c-2.37-.78-5.3,1.64-6.55,5.4a10.32,10.32,0,0,0-.52,3.24c.51,0,1.06.08,1.65.11a62,62,0,0,0,7.26,0c.06-.15.14-.3.19-.47C249.34,109,248.43,105.29,246.06,104.51Z"/><path class="cls-112" d="M291.88,104.07c-2.37-.87-5.3,1.81-6.54,6a13.85,13.85,0,0,0-.49,3.43,43.45,43.45,0,0,0,5.7.46c1.16,0,2.2,0,3.13-.06.08-.23.17-.45.24-.68C295.16,109,294.25,104.94,291.88,104.07Z"/><path class="cls-27" d="M241.45,100.39c-8.19-.35-10.48,8.34-10.48,8.34a13.72,13.72,0,0,1,9.89-4.31c7-.06,12.15,7.51,12.15,7.51S252.52,100.86,241.45,100.39Z"/><path class="cls-113" d="M233.44,96.48c10.64-6.64,20-3.06,24.78-7.37,1.81-1.64.7-8.54.7-8.54C233.44,83.32,233.44,96.48,233.44,96.48Z"/><path class="cls-113" d="M278.43,80.31S275,87.13,276.27,89c4,5.72,18.2,2.2,26.33,9C302.6,97.92,304.59,86.39,278.43,80.31Z"/><path class="cls-27" d="M290.35,100.37c-11.17-.67-12.32,10.4-12.32,10.4s2.71-6.21,12.39-5.5,11.42,4.31,11.42,4.31S301.05,101,290.35,100.37Z"/><path class="cls-114" d="M285.56,135.07v0A.16.16,0,0,1,285.56,135.07Z"/><path class="cls-13" d="M259.55,117.32s-7.53-5.53-10.24,4.09,16.47,15.4,21.77,5.36-8.39-28.85-8.39-28.85S265.37,109.48,259.55,117.32Z"/><path class="cls-115" d="M312.44,108.54c-.94,9.91-4.32,16.14-8.19,20.07a11.26,11.26,0,0,1-11.8,2.6c-6-2.16-15-5.93-31.07-4.44,0,0-28.63,15.58-35.46-2.8a52.23,52.23,0,0,1-2.83-15.43c-6.42,26.1-9.27,67,44.81,67,54.93,0,47.49-42.19,47.49-42.19-2.63-9.25,2.21-24.81,2.21-24.81ZM286.59,144c-3.36,3.94-9.62,7.5-18.72,8-.86.05-1.7.08-2.51.08a32.38,32.38,0,0,1-18.8-5.5,4.54,4.54,0,0,1-.21-7.34h0a64.62,64.62,0,0,0,20.89,2.14,49.83,49.83,0,0,0,18.58-4.58C288.37,138.38,288.53,141.72,286.59,144Z"/><path class="cls-116" d="M259.55,117.32s-7.31-5.2-10,3.44a69.16,69.16,0,0,0,12,1.86c2.32-5.5,3.12-11.46,3.39-17.9H263.3A21,21,0,0,1,259.55,117.32Z"/><path class="cls-115" d="M271.91,33.27c-53.17,3.52-45.44,62.45-45.44,62.45C229.64,78.2,240.59,56.46,249,56a31.94,31.94,0,0,0,18.16,6.17c9.74.2,23.24-6.89,23.24-6.89,9.72-.23,20.83,29.85,22.13,54.09.29,5.54,5.11-.86,5.11-.86S324,29.81,271.91,33.27Z"/><path class="cls-115" d="M299.7,37.86c-15.72-24-66.95-17-66.95-17-5,27.22,14.07,33.36,14.07,33.36s44.35-7.9,51.06-3.17,19.81,42.8,19.81,42.8,11.34-39.73,3-54.34C314.54,28.75,299.7,37.86,299.7,37.86Z"/><path class="cls-115" d="M252.57,15.3c.18,3.6,3.29,7.27,3.29,7.27s53.72,36.49,43.84,15.29S252.57,15.3,252.57,15.3Z"/><path class="cls-115" d="M308.41,30.56c-3,.47-3.74,1.9-3.74,1.9,2.18-4,.68-9.39.68-9.39-5.9,3.38-5.32,8.09-5.32,8.09-2.89-6.06-11.8-7.94-11.8-7.94.29,5,5.63,10.12,5.92,10.27l4.62,7L308.35,39l-.94-4.27A5.28,5.28,0,0,0,308.41,30.56Z"/><path class="cls-113" d="M234.19,41.55c-15.62,4.75-11.1,67-11.1,67C226.26,91,240.59,56.46,249,56A55.13,55.13,0,0,1,234.19,41.55Z"/><path class="cls-12" d="M295,37.4h0Z"/><path class="cls-12" d="M295,37Z"/><path class="cls-117" d="M314.62,34.65c-1.91.31-3.93.78-6,1.26-5,1.13-10.21,1.89-15.3,1.21-5.92-.8-11.12-3.44-16.37-6.1-2.66-1.34-5.31-2.71-8-3.88-5.86-2.51-12.76-5-19.22-4.76a27.1,27.1,0,0,0-9.27,2.29,19.81,19.81,0,0,0-6.62,4.42,19.59,19.59,0,0,0-1.8,2.1,32.88,32.88,0,0,0,.77,5.86c.2-.17.41-.34.64-.51a19.65,19.65,0,0,1,3.95-2.25,17.62,17.62,0,0,1,5.29-1.35c7.69-.58,14.82,2.5,21.76,5.36,2.84,1.18,5.73,2.54,8.78,3.81a96.17,96.17,0,0,0,9.55,3.55c5.6,1.7,12.43,2.22,18.13.64.77-.21,1.53-.39,2.27-.62a51.35,51.35,0,0,0,7.72-3.27c2.23-1.14,4.13-2.19,5.8-3a21,21,0,0,1,3.15-1.26A9.46,9.46,0,0,0,314.62,34.65Z"/><path class="cls-12" d="M294.87,37.41h0Z"/><path class="cls-6" d="M249.12,124.1c1.1,7.9,17.17,11.73,22,2.67a10.91,10.91,0,0,0,.7-1.74A47.77,47.77,0,0,1,249.12,124.1Z"/><path class="cls-118" d="M274,154.94a29.25,29.25,0,0,1-9.36.93,3,3,0,0,0-3.2,3.6c.47,2.09,2.43,4.05,8.51,3.34,5.92-.7,7.58-2.87,7.76-4.85A3,3,0,0,0,274,154.94Z"/><path class="cls-119" d="M240.15,107.86c-1.83.72-3.06,1.94-2.75,2.73s2,.83,3.88.11,3.06-1.94,2.75-2.73S242,107.14,240.15,107.86Z"/><path class="cls-119" d="M286.23,108.76c-1.55.61-2.56,1.75-2.25,2.53s1.82.93,3.37.31,2.56-1.74,2.25-2.53S287.78,108.15,286.23,108.76Z"/></svg>