<svg xmlns="http://www.w3.org/2000/svg" xmlns:xlink="http://www.w3.org/1999/xlink" viewBox="0 0 616.05 863.86"><defs><style>.cls-1{fill:url(#Áåçûìÿííûé_ãðàäèåíò_27);}.cls-2{fill:url(#Áåçûìÿííûé_ãðàäèåíò_64);}.cls-3{fill:#ff8068;}.cls-4{fill:#122751;}.cls-5{fill:url(#Áåçûìÿííûé_ãðàäèåíò_14);}.cls-6{fill:#db4b47;}.cls-7{fill:url(#Áåçûìÿííûé_ãðàäèåíò_64-2);}.cls-8{fill:#7a0e00;}.cls-107,.cls-8{opacity:0.11;}.cls-9{fill:url(#Áåçûìÿííûé_ãðàäèåíò_72);}.cls-10{fill:url(#Áåçûìÿííûé_ãðàäèåíò_72-2);}.cls-11{fill:#ff8168;}.cls-12{fill:#3e1208;}.cls-13{fill:#ff9477;}.cls-14{fill:url(#Áåçûìÿííûé_ãðàäèåíò_66);}.cls-15{fill:url(#Áåçûìÿííûé_ãðàäèåíò_34);}.cls-16{opacity:0.44;}.cls-17{fill:#ff9376;}.cls-18{fill:#ff9276;}.cls-19{fill:#ff9175;}.cls-20{fill:#ff9074;}.cls-21{fill:#ff8f74;}.cls-22{fill:#ff8e73;}.cls-23{fill:#ff8d73;}.cls-24{fill:#ff8c72;}.cls-25{fill:#ff8b71;}.cls-26{fill:#ff8a71;}.cls-27{fill:#ff8970;}.cls-28{fill:#ff886f;}.cls-29{fill:#ff876f;}.cls-30{fill:#ff866e;}.cls-31{fill:#ff856d;}.cls-32{fill:#ff846d;}.cls-33{fill:#ff836c;}.cls-34{fill:#ff826c;}.cls-35{fill:#ff816b;}.cls-36{fill:#ff806a;}.cls-37{fill:#ff7f6a;}.cls-38{fill:#ff7e69;}.cls-39{fill:#ff7d68;}.cls-40{fill:#ff7c68;}.cls-41{fill:#ff7b67;}.cls-42{fill:#ff7a67;}.cls-43{fill:#ff7966;}.cls-44{fill:#ff7865;}.cls-45{fill:#ff7765;}.cls-46{fill:#ff7664;}.cls-47{fill:#ff7563;}.cls-48{fill:#ff7463;}.cls-49{fill:#ff7362;}.cls-50{fill:#ff7261;}.cls-51{fill:#ff7161;}.cls-52{fill:#ff7160;}.cls-53{fill:#ff7060;}.cls-54{fill:#ff6f5f;}.cls-55{fill:#ff6e5e;}.cls-56{fill:#ff6d5e;}.cls-57{fill:#ff6c5d;}.cls-58{fill:#ff6b5c;}.cls-59{fill:#ff6a5c;}.cls-60{fill:#ff695b;}.cls-61{fill:#ff685a;}.cls-62{fill:#ff675a;}.cls-63{fill:#ff6659;}.cls-64{fill:#ff6559;}.cls-65{fill:#ff6458;}.cls-66{fill:#ff6357;}.cls-67{fill:#ff6257;}.cls-68{fill:#ff6156;}.cls-69{fill:#ff6055;}.cls-70{fill:#ff5f55;}.cls-71{fill:#ff5e54;}.cls-72{fill:#ff5d54;}.cls-73{fill:#ff5c53;}.cls-74{fill:#ff5b52;}.cls-75{fill:#ff5a52;}.cls-76{fill:#ff5951;}.cls-77{fill:#ff5850;}.cls-78{fill:#ff5750;}.cls-79{fill:#ff564f;}.cls-80{fill:#ff554e;}.cls-81{fill:#ff544e;}.cls-82{fill:#ff534d;}.cls-83{fill:#ff524d;}.cls-84{fill:#ff514c;}.cls-85{fill:#ff504b;}.cls-86{fill:#ff4f4b;}.cls-87{fill:#ff4e4a;}.cls-88{fill:#7c302a;}.cls-128,.cls-134,.cls-89,.cls-93{fill:#fff;}.cls-89{opacity:0.12;}.cls-90{fill:url(#Áåçûìÿííûé_ãðàäèåíò_81);}.cls-91{fill:url(#Áåçûìÿííûé_ãðàäèåíò_64-3);}.cls-92{fill:url(#Áåçûìÿííûé_ãðàäèåíò_64-4);}.cls-94{fill:#603c32;}.cls-95{fill:url(#Áåçûìÿííûé_ãðàäèåíò_75);}.cls-96{fill:url(#Áåçûìÿííûé_ãðàäèåíò_59);}.cls-97{fill:#211e1e;}.cls-98{fill:url(#Áåçûìÿííûé_ãðàäèåíò_59-2);}.cls-99{fill:#603f37;}.cls-100{fill:url(#Áåçûìÿííûé_ãðàäèåíò_72-3);}.cls-101{fill:#ff9377;}.cls-102{fill:url(#Áåçûìÿííûé_ãðàäèåíò_66-2);}.cls-103{fill:#ececec;}.cls-103,.cls-123{opacity:0.22;}.cls-104{fill:url(#Áåçûìÿííûé_ãðàäèåíò_72-4);}.cls-105{fill:url(#Áåçûìÿííûé_ãðàäèåíò_75-2);}.cls-106{fill:url(#Áåçûìÿííûé_ãðàäèåíò_72-5);}.cls-107{fill:#ffb780;}.cls-108{fill:url(#Áåçûìÿííûé_ãðàäèåíò_72-6);}.cls-109{fill:url(#Áåçûìÿííûé_ãðàäèåíò_72-7);}.cls-110{fill:url(#Áåçûìÿííûé_ãðàäèåíò_75-3);}.cls-111{fill:url(#Áåçûìÿííûé_ãðàäèåíò_72-8);}.cls-112{fill:url(#Áåçûìÿííûé_ãðàäèåíò_72-9);}.cls-113{fill:url(#Áåçûìÿííûé_ãðàäèåíò_72-10);}.cls-114{fill:url(#Áåçûìÿííûé_ãðàäèåíò_75-4);}.cls-115{fill:url(#Áåçûìÿííûé_ãðàäèåíò_75-5);}.cls-116{fill:url(#Áåçûìÿííûé_ãðàäèåíò_72-11);}.cls-117{fill:url(#Áåçûìÿííûé_ãðàäèåíò_75-6);}.cls-118{fill:url(#Áåçûìÿííûé_ãðàäèåíò_64-5);}.cls-119{fill:url(#Áåçûìÿííûé_ãðàäèåíò_72-12);}.cls-120{fill:url(#Áåçûìÿííûé_ãðàäèåíò_82);}.cls-121{fill:url(#Áåçûìÿííûé_ãðàäèåíò_57);}.cls-122{fill:url(#Áåçûìÿííûé_ãðàäèåíò_38);}.cls-124{fill:url(#Áåçûìÿííûé_ãðàäèåíò_57-2);}.cls-125{fill:url(#Áåçûìÿííûé_ãðàäèåíò_64-6);}.cls-126{fill:url(#Áåçûìÿííûé_ãðàäèåíò_64-7);}.cls-127{fill:url(#Áåçûìÿííûé_ãðàäèåíò_59-3);}.cls-128{opacity:0.17;}.cls-129{fill:url(#Áåçûìÿííûé_ãðàäèåíò_75-7);}.cls-130{fill:url(#Áåçûìÿííûé_ãðàäèåíò_72-13);}.cls-131{fill:url(#Áåçûìÿííûé_ãðàäèåíò_66-3);}.cls-132{fill:#9aa1b3;}.cls-133{fill:#7d8294;}.cls-134{opacity:0.52;}.cls-135{fill:#c3c9d6;}.cls-136{fill:#e0e6f0;}.cls-137{fill:#8d9099;}.cls-138{fill:url(#Áåçûìÿííûé_ãðàäèåíò_2);}.cls-139{fill:url(#Áåçûìÿííûé_ãðàäèåíò_64-8);}.cls-140{fill:url(#Áåçûìÿííûé_ãðàäèåíò_64-9);}.cls-141{fill:url(#Áåçûìÿííûé_ãðàäèåíò_18);}</style><linearGradient id="Áåçûìÿííûé_ãðàäèåíò_27" x1="483.02" y1="580.57" x2="478.27" y2="561.89" gradientUnits="userSpaceOnUse"><stop offset="0" stop-color="#ff9477"/><stop offset="0.15" stop-color="#ff9175"/><stop offset="1" stop-color="#ff8068"/></linearGradient><linearGradient id="Áåçûìÿííûé_ãðàäèåíò_64" x1="547.33" y1="572.83" x2="535.6" y2="562.62" gradientUnits="userSpaceOnUse"><stop offset="0" stop-color="#ff9477"/><stop offset="0.45" stop-color="#ff8f73"/><stop offset="0.96" stop-color="#ff8269"/><stop offset="1" stop-color="#ff8068"/></linearGradient><linearGradient id="Áåçûìÿííûé_ãðàäèåíò_14" x1="276.97" y1="368.66" x2="292.86" y2="738.13" gradientTransform="matrix(1, -0.03, 0.03, 1, -18.83, 12.55)" gradientUnits="userSpaceOnUse"><stop offset="0" stop-color="#ff5c4b"/><stop offset="1" stop-color="#de4b44"/></linearGradient><linearGradient id="Áåçûìÿííûé_ãðàäèåíò_64-2" x1="62.49" y1="625.87" x2="65.54" y2="589.64" xlink:href="#Áåçûìÿííûé_ãðàäèåíò_64"/><linearGradient id="Áåçûìÿííûé_ãðàäèåíò_72" x1="228.83" y1="530.39" x2="228.83" y2="530.68" gradientTransform="translate(-65.99 -311.39) rotate(0.57)" gradientUnits="userSpaceOnUse"><stop offset="0" stop-color="#603c32"/><stop offset="0.41" stop-color="#5b3930"/><stop offset="0.89" stop-color="#4e2f28"/><stop offset="1" stop-color="#492c26"/></linearGradient><linearGradient id="Áåçûìÿííûé_ãðàäèåíò_72-2" x1="444.46" y1="555.51" x2="444.47" y2="555.51" xlink:href="#Áåçûìÿííûé_ãðàäèåíò_72"/><linearGradient id="Áåçûìÿííûé_ãðàäèåíò_66" x1="283.08" y1="537.91" x2="282.9" y2="549.27" gradientTransform="translate(-21.47 -228.09) rotate(0.26)" gradientUnits="userSpaceOnUse"><stop offset="0" stop-color="#ff9477"/><stop offset="1" stop-color="#ed7961"/></linearGradient><linearGradient id="Áåçûìÿííûé_ãðàäèåíò_34" x1="283.25" y1="533.52" x2="282.54" y2="508.82" gradientTransform="translate(-21.47 -228.09) rotate(0.26)" gradientUnits="userSpaceOnUse"><stop offset="0" stop-color="#ff9c83"/><stop offset="1" stop-color="#cc7265"/></linearGradient><linearGradient id="Áåçûìÿííûé_ãðàäèåíò_81" x1="229.25" y1="544.8" x2="215.6" y2="546.66" gradientTransform="translate(-65.99 -311.39) rotate(0.57)" gradientUnits="userSpaceOnUse"><stop offset="0" stop-color="#dd6756"/><stop offset="1" stop-color="#ff8068"/></linearGradient><linearGradient id="Áåçûìÿííûé_ãðàäèåíò_64-3" x1="380.26" y1="526.87" x2="382.77" y2="487.7" gradientTransform="translate(-65.99 -311.39) rotate(0.57)" xlink:href="#Áåçûìÿííûé_ãðàäèåíò_64"/><linearGradient id="Áåçûìÿííûé_ãðàäèåíò_64-4" x1="283.36" y1="523.4" x2="285.05" y2="497.04" gradientTransform="translate(-65.99 -311.39) rotate(0.57)" xlink:href="#Áåçûìÿííûé_ãðàäèåíò_64"/><linearGradient id="Áåçûìÿííûé_ãðàäèåíò_75" x1="282.7" y1="478.2" x2="282.7" y2="508.5" gradientTransform="translate(-21.47 -228.09) rotate(0.26)" gradientUnits="userSpaceOnUse"><stop offset="0" stop-color="#7c4c41"/><stop offset="0.37" stop-color="#77493e"/><stop offset="0.79" stop-color="#6a4137"/><stop offset="1" stop-color="#603c32"/></linearGradient><linearGradient id="Áåçûìÿííûé_ãðàäèåíò_59" x1="209.69" y1="207.41" x2="208.25" y2="220.5" gradientUnits="userSpaceOnUse"><stop offset="0"/><stop offset="1" stop-color="#b25934"/></linearGradient><linearGradient id="Áåçûìÿííûé_ãðàäèåíò_59-2" x1="337.52" y1="512.49" x2="336.18" y2="524.79" gradientTransform="matrix(1, -0.03, 0.03, 1, -36.61, -292.02)" xlink:href="#Áåçûìÿííûé_ãðàäèåíò_59"/><linearGradient id="Áåçûìÿííûé_ãðàäèåíò_72-3" x1="278.25" y1="479.92" x2="278.25" y2="497.5" gradientTransform="translate(-21.47 -228.09) rotate(0.26)" xlink:href="#Áåçûìÿííûé_ãðàäèåíò_72"/><linearGradient id="Áåçûìÿííûé_ãðàäèåíò_66-2" x1="324.29" y1="555.85" x2="324.29" y2="566.22" gradientTransform="translate(-65.99 -311.39) rotate(0.57)" xlink:href="#Áåçûìÿííûé_ãðàäèåíò_66"/><linearGradient id="Áåçûìÿííûé_ãðàäèåíò_72-4" x1="455.7" y1="459.46" x2="438.81" y2="462.94" xlink:href="#Áåçûìÿííûé_ãðàäèåíò_72"/><linearGradient id="Áåçûìÿííûé_ãðàäèåíò_75-2" x1="450.98" y1="423.97" x2="428.87" y2="432.61" gradientTransform="translate(-65.99 -311.39) rotate(0.57)" xlink:href="#Áåçûìÿííûé_ãðàäèåíò_75"/><linearGradient id="Áåçûìÿííûé_ãðàäèåíò_72-5" x1="437.74" y1="417.51" x2="427.59" y2="405.32" xlink:href="#Áåçûìÿííûé_ãðàäèåíò_72"/><linearGradient id="Áåçûìÿííûé_ãðàäèåíò_72-6" x1="224.24" y1="408.81" x2="281.34" y2="408.81" xlink:href="#Áåçûìÿííûé_ãðàäèåíò_72"/><linearGradient id="Áåçûìÿííûé_ãðàäèåíò_72-7" x1="223.25" y1="446.82" x2="242.23" y2="456.31" xlink:href="#Áåçûìÿííûé_ãðàäèåíò_72"/><linearGradient id="Áåçûìÿííûé_ãðàäèåíò_75-3" x1="232.17" y1="424" x2="251.4" y2="434.7" gradientTransform="translate(-65.99 -311.39) rotate(0.57)" xlink:href="#Áåçûìÿííûé_ãðàäèåíò_75"/><linearGradient id="Áåçûìÿííûé_ãðàäèåíò_72-8" x1="304.61" y1="405.61" x2="294.92" y2="344.8" xlink:href="#Áåçûìÿííûé_ãðàäèåíò_72"/><linearGradient id="Áåçûìÿííûé_ãðàäèåíò_72-9" x1="367.53" y1="394.66" x2="390.08" y2="363.9" xlink:href="#Áåçûìÿííûé_ãðàäèåíò_72"/><linearGradient id="Áåçûìÿííûé_ãðàäèåíò_72-10" x1="352.53" y1="393.95" x2="351.8" y2="402.53" gradientTransform="matrix(1, 0.01, 0, 1, -60.12, -311.99)" xlink:href="#Áåçûìÿííûé_ãðàäèåíò_72"/><linearGradient id="Áåçûìÿííûé_ãðàäèåíò_75-4" x1="267.36" y1="360.46" x2="283.02" y2="395.5" gradientTransform="translate(-65.99 -311.39) rotate(0.57)" xlink:href="#Áåçûìÿííûé_ãðàäèåíò_75"/><linearGradient id="Áåçûìÿííûé_ãðàäèåíò_75-5" x1="334.59" y1="326.31" x2="331.48" y2="378.38" gradientTransform="translate(-65.99 -311.39) rotate(0.57)" xlink:href="#Áåçûìÿííûé_ãðàäèåíò_75"/><linearGradient id="Áåçûìÿííûé_ãðàäèåíò_72-11" x1="352.73" y1="400.76" x2="370.64" y2="355.84" xlink:href="#Áåçûìÿííûé_ãðàäèåíò_72"/><linearGradient id="Áåçûìÿííûé_ãðàäèåíò_75-6" x1="420.62" y1="351.22" x2="404.65" y2="393.28" gradientTransform="translate(-65.99 -311.39) rotate(0.57)" xlink:href="#Áåçûìÿííûé_ãðàäèåíò_75"/><linearGradient id="Áåçûìÿííûé_ãðàäèåíò_64-5" x1="477.64" y1="547.14" x2="457.34" y2="541.84" gradientTransform="translate(-65.99 -311.39) rotate(0.57)" xlink:href="#Áåçûìÿííûé_ãðàäèåíò_64"/><linearGradient id="Áåçûìÿííûé_ãðàäèåíò_72-12" x1="289.95" y1="502.91" x2="292" y2="596.15" gradientTransform="translate(-21.47 -228.09) rotate(0.26)" xlink:href="#Áåçûìÿííûé_ãðàäèåíò_72"/><linearGradient id="Áåçûìÿííûé_ãðàäèåíò_82" x1="288.33" y1="532.49" x2="287.82" y2="586.15" gradientTransform="translate(-21.47 -228.09) rotate(0.26)" gradientUnits="userSpaceOnUse"><stop offset="0" stop-color="#603c32"/><stop offset="0.21" stop-color="#6a4137"/><stop offset="0.63" stop-color="#77493e"/><stop offset="1" stop-color="#7c4c41"/></linearGradient><linearGradient id="Áåçûìÿííûé_ãðàäèåíò_57" x1="331.14" y1="368.22" x2="335.5" y2="406.62" gradientTransform="translate(-21.47 -228.09) rotate(0.26)" gradientUnits="userSpaceOnUse"><stop offset="0" stop-color="#75483b"/><stop offset="0.35" stop-color="#704538"/><stop offset="0.75" stop-color="#633c30"/><stop offset="1" stop-color="#563428"/></linearGradient><linearGradient id="Áåçûìÿííûé_ãðàäèåíò_38" x1="283.18" y1="514.84" x2="283.18" y2="525.88" gradientTransform="translate(-21.47 -228.09) rotate(0.26)" gradientUnits="userSpaceOnUse"><stop offset="0" stop-color="#ff9885"/><stop offset="1" stop-color="#cc7265"/></linearGradient><linearGradient id="Áåçûìÿííûé_ãðàäèåíò_57-2" x1="217.09" y1="168.62" x2="215.49" y2="189.67" gradientTransform="matrix(0.97, 0.14, -0.03, 1.03, 13.84, -40.87)" xlink:href="#Áåçûìÿííûé_ãðàäèåíò_57"/><linearGradient id="Áåçûìÿííûé_ãðàäèåíò_64-6" x1="329.96" y1="292.58" x2="329.56" y2="303.76" xlink:href="#Áåçûìÿííûé_ãðàäèåíò_64"/><linearGradient id="Áåçûìÿííûé_ãðàäèåíò_64-7" x1="312.38" y1="182.45" x2="317.2" y2="149.98" xlink:href="#Áåçûìÿííûé_ãðàäèåíò_64"/><linearGradient id="Áåçûìÿííûé_ãðàäèåíò_59-3" x1="337.73" y1="510.17" x2="336.16" y2="524.5" gradientTransform="matrix(1, -0.03, 0.03, 1, -36.61, -292.02)" xlink:href="#Áåçûìÿííûé_ãðàäèåíò_59"/><linearGradient id="Áåçûìÿííûé_ãðàäèåíò_75-7" x1="272.65" y1="272.09" x2="312.37" y2="272.09" gradientTransform="matrix(1, 0, 0, 1, 0, 0)" xlink:href="#Áåçûìÿííûé_ãðàäèåíò_75"/><linearGradient id="Áåçûìÿííûé_ãðàäèåíò_72-13" x1="272.67" y1="266.64" x2="281.46" y2="266.64" gradientTransform="matrix(1, 0, 0, 1, 0, 0)" xlink:href="#Áåçûìÿííûé_ãðàäèåíò_72"/><linearGradient id="Áåçûìÿííûé_ãðàäèåíò_66-3" x1="264.67" y1="255.25" x2="273.81" y2="255.25" gradientTransform="matrix(1, 0, 0, 1, 0, 0)" xlink:href="#Áåçûìÿííûé_ãðàäèåíò_66"/><linearGradient id="Áåçûìÿííûé_ãðàäèåíò_2" x1="329.95" y1="345.76" x2="345.36" y2="345.76" gradientTransform="translate(5.35 11.65)" gradientUnits="userSpaceOnUse"><stop offset="0" stop-color="#754c24"/><stop offset="0.42" stop-color="#795129"/><stop offset="0.91" stop-color="#835e36"/><stop offset="1" stop-color="#866239"/></linearGradient><linearGradient id="Áåçûìÿííûé_ãðàäèåíò_64-8" x1="440.84" y1="395.19" x2="364.54" y2="375" xlink:href="#Áåçûìÿííûé_ãðàäèåíò_64"/><linearGradient id="Áåçûìÿííûé_ãðàäèåíò_64-9" x1="416.9" y1="419.86" x2="398.84" y2="418.91" xlink:href="#Áåçûìÿííûé_ãðàäèåíò_64"/><linearGradient id="Áåçûìÿííûé_ãðàäèåíò_18" x1="537.01" y1="492.97" x2="496.7" y2="522.18" gradientUnits="userSpaceOnUse"><stop offset="0" stop-color="#ffa088"/><stop offset="0.49" stop-color="#ff9d83"/><stop offset="1" stop-color="#ff9477"/></linearGradient></defs><g id="Layer_2" data-name="Layer 2"><g id="Ñëîé_1" data-name="Ñëîé 1"><path class="cls-1" d="M455.32,567.15s18.74,40.69,69.25,81.38l-34.49-128.9Z"/><path class="cls-2" d="M560.83,526.08s21.48,62.63-3.06,101.06C537,659.65,479.6,529.56,479.6,529.56l72.62-14.44Z"/><path class="cls-3" d="M328.83,360.79a15.63,15.63,0,0,1-13.47-14.15l-4.69-56c-1.34-19.73-23.37-37.08-51-36.22h0c-27.65.87-46.58,15.66-45.25,35.38l-1.76,65.79a13.77,13.77,0,0,1-10.11,12.92A248.92,248.92,0,0,0,160.4,384l-3.24,68,200.24-9.76-.79-76.08C347.69,364,338.38,362.15,328.83,360.79Z"/><path class="cls-4" d="M353.12,358.81h0l.05.14C353.15,358.9,353.13,358.86,353.12,358.81Z"/><path class="cls-5" d="M94.06,847.15c54.16,8.94,116.56,16.51,176.34,16.7,85.46.28,121.45-8.09,177.43-22l-4.51-285,8,14.93,6.72-.66c10.62-12.48,25.38-32.71,39.81-40.53,28.79-15.61,55.8-34,65.33-32.14l3.69-9.81s-49.45-80.35-87.23-106.4c-66-45.5-123.65-22.74-123.65-22.74s-10.63-32.05-41.88-28.24c0,0,10.49,80-48.13,80.41s-49.27-80.08-49.27-80.08-.13-.34-11.79,4.5c-20.4,8.46-24.26,26.71-24.26,26.71s-33,9.25-81.77,38.17C25.46,444.5,0,581.92,0,581.92l5.65,4.16L99.55,601Z"/><path class="cls-6" d="M356,359.47s-.38-1.13-1.2-3l-.22,0c.05.52,4.83,51.23-25.55,70.81a225.62,225.62,0,0,0-26.18-9.94c-20.9-6.35-33.86-5.91-39.59,1.34l5.4,4.27c6.62-8.37,38.56,1.59,59.13,11.33l1.65.78,1.57-.92c30.21-17.77,31.28-59.53,30.72-73.67C358.05,359.83,356,359.47,356,359.47Z"/><path class="cls-6" d="M266.77,416.09c-3.44-2.74-11-5.12-37,5.71-10.9,4.53-20.84,9.64-24.6,11.62-27.32-14.11-25.55-59.65-24.52-70.65-.67.23-3.14.79-7,2.26-1.05,15.86-.57,61.14,30.14,75.38l1.57.73,1.52-.83c22.52-12.22,50-22.86,55.52-18.92,3.91,5.54,3.82,54.25,1.47,98.39l6.87.37c0-.24,1.27-24.12,1.57-48.44C272.91,421,268.91,417.79,266.77,416.09Z"/><path class="cls-6" d="M125.64,522.58l-6.94.71-5,71.33c-.85.43-9,1.55-9,1.55v6.37l15.25-2.84Z"/><path class="cls-7" d="M8.33,571.9S-.4,669.07,1.86,711.47c1.89,35.47,15.69,118.92,15.69,118.92,38.5,11.16,84.91,18.13,84.91,18.13s-.4-85.94.47-127.24c1.11-53.09,7.68-132.15,7.68-132.15-1.32-2-27.92-5.16-53.46-9.23C33.16,576.06,10.16,571.2,8.33,571.9Z"/><path class="cls-8" d="M406.47,382.21c-.87,1.32-82.23-18.77-82.23-18.77L316,367.06c5-6.79,11-15.58,17.46-17.85,3.09-1.09,10.91-.91,15.26-2.79-6.35-8.37-17.33-17.31-34.68-15.19,0,0,.22,1.83.41,4.93L312.71,315c-1.57-.26-3.16-.45-4.74-.6a78.26,78.26,0,0,0-30.22,3.28c-4.95,1.54-9.33,4-14.07,5.95-3.1,1.3-6.49,1.87-9.67,3.23-7.17,3.06-13.77,7.31-20.74,10.77-5.23,2.6-12,6.09-18,4.61-2.26-.56-5.88-3.47-9.48-6.53l-.88.37c-13.15,5.45-20.47,15.74-23.24,23.44,8.7-.08,26.36,1.37,37.36,12.5,0,0,11.21,18.87,46.75,17.56a78.28,78.28,0,0,0,31.93-8.2c-.23,5.27.19,12.6,3.5,17.47,5.68,8.38,41.42,26,41.42,26s2.95,13.25,14.21,13.83a87.16,87.16,0,0,0,20.56-1.45s41.11,156.88,67.25,202l-1.3-82.39,8,14.93,6.72-.66c9.76-11.48,23-29.5,36.33-38.41C458.11,469.75,407,381.35,406.47,382.21Z"/><path class="cls-9" d="M157.63,221.07c0,.17,0,.33-.08.5C157.58,221.38,157.61,221.21,157.63,221.07Z"/><path class="cls-10" d="M373,248.47h0v0Z"/><path class="cls-11" d="M148,202.61c-12.37,4.12-17.87,22.23-12.28,40.45s20.15,29.63,32.52,25.51,17.87-22.24,12.28-40.45S160.33,198.48,148,202.61Z"/><path class="cls-12" d="M220.11,37.91s0-.21-.07-.55C220.08,37.71,220.11,37.91,220.11,37.91Z"/><path class="cls-13" d="M359.22,103.76C352.07,60.82,230.78,41,195.3,100.14c-11.27,27.4-29.47,68.22-35.44,119,0-.54,0-.87,0-.87s-33.62,132.29,86.54,138.55c115.64,6,134.24-51,128.82-129.89h0C375.2,182.53,368.39,136.76,359.22,103.76Z"/><path class="cls-14" d="M212.52,305.2s8.61,15.9,45.6,16.07S306,306.06,306,306.06Z"/><path class="cls-15" d="M214.4,298s-2.94,5.83-2.06,7.5,18.44,5.32,45.46,5.88,47.46-3.92,48.19-5.36.58-9.89-3.09-13.6S282.29,279.81,259,279.7c-24.28-.11-42.7,14-42.7,14Z"/><g class="cls-16"><ellipse class="cls-13" cx="203.04" cy="244.96" rx="48.07" ry="45.3" transform="translate(-51.4 435.99) rotate(-87.25)"/><ellipse class="cls-17" cx="203.04" cy="244.96" rx="47.73" ry="44.98" transform="translate(-51.39 435.99) rotate(-87.25)"/><ellipse class="cls-18" cx="203.04" cy="244.96" rx="47.39" ry="44.66" transform="translate(-51.39 435.99) rotate(-87.25)"/><ellipse class="cls-19" cx="203.04" cy="244.96" rx="47.06" ry="44.34" transform="translate(-51.39 435.99) rotate(-87.25)"/><ellipse class="cls-20" cx="203.04" cy="244.96" rx="46.72" ry="44.02" transform="translate(-51.39 435.99) rotate(-87.25)"/><ellipse class="cls-21" cx="203.04" cy="244.96" rx="46.38" ry="43.71" transform="translate(-51.4 435.98) rotate(-87.25)"/><ellipse class="cls-22" cx="203.04" cy="244.96" rx="46.04" ry="43.39" transform="translate(-51.39 435.99) rotate(-87.25)"/><ellipse class="cls-23" cx="203.04" cy="244.96" rx="45.7" ry="43.07" transform="translate(-51.4 435.99) rotate(-87.25)"/><ellipse class="cls-24" cx="203.04" cy="244.96" rx="45.36" ry="42.75" transform="translate(-51.39 435.99) rotate(-87.25)"/><ellipse class="cls-25" cx="203.04" cy="244.96" rx="45.02" ry="42.43" transform="translate(-51.39 435.99) rotate(-87.25)"/><ellipse class="cls-26" cx="203.04" cy="244.96" rx="44.69" ry="42.11" transform="translate(-51.39 435.99) rotate(-87.25)"/><ellipse class="cls-27" cx="203.04" cy="244.96" rx="44.35" ry="41.79" transform="translate(-51.4 435.99) rotate(-87.25)"/><ellipse class="cls-28" cx="203.04" cy="244.96" rx="44.01" ry="41.47" transform="translate(-51.39 435.99) rotate(-87.25)"/><ellipse class="cls-29" cx="203.04" cy="244.96" rx="43.67" ry="41.15" transform="translate(-51.39 435.99) rotate(-87.25)"/><ellipse class="cls-30" cx="203.04" cy="244.96" rx="43.33" ry="40.83" transform="translate(-51.4 435.99) rotate(-87.25)"/><ellipse class="cls-31" cx="203.04" cy="244.96" rx="42.99" ry="40.52" transform="translate(-51.39 435.99) rotate(-87.25)"/><ellipse class="cls-32" cx="203.04" cy="244.96" rx="42.66" ry="40.2" transform="translate(-51.4 435.98) rotate(-87.25)"/><ellipse class="cls-33" cx="203.04" cy="244.96" rx="42.32" ry="39.88" transform="translate(-51.39 435.99) rotate(-87.25)"/><ellipse class="cls-34" cx="203.04" cy="244.96" rx="41.98" ry="39.56" transform="translate(-51.4 435.99) rotate(-87.25)"/><ellipse class="cls-35" cx="203.04" cy="244.96" rx="41.64" ry="39.24" transform="translate(-51.39 435.99) rotate(-87.25)"/><ellipse class="cls-36" cx="203.04" cy="244.96" rx="41.3" ry="38.92" transform="translate(-51.39 435.99) rotate(-87.25)"/><ellipse class="cls-37" cx="203.04" cy="244.96" rx="40.96" ry="38.6" transform="translate(-51.4 435.98) rotate(-87.25)"/><ellipse class="cls-38" cx="203.04" cy="244.96" rx="40.62" ry="38.28" transform="translate(-51.4 435.99) rotate(-87.25)"/><ellipse class="cls-39" cx="203.04" cy="244.96" rx="40.29" ry="37.96" transform="matrix(0.05, -1, 1, 0.05, -51.4, 435.98)"/><ellipse class="cls-40" cx="203.04" cy="244.96" rx="39.95" ry="37.64" transform="matrix(0.05, -1, 1, 0.05, -51.4, 435.99)"/><ellipse class="cls-41" cx="203.04" cy="244.96" rx="39.61" ry="37.32" transform="translate(-51.4 435.99) rotate(-87.25)"/><ellipse class="cls-42" cx="203.04" cy="244.96" rx="39.27" ry="37.01" transform="translate(-51.39 435.99) rotate(-87.25)"/><ellipse class="cls-43" cx="203.04" cy="244.96" rx="38.93" ry="36.69" transform="translate(-51.4 435.98) rotate(-87.24)"/><ellipse class="cls-44" cx="203.04" cy="244.96" rx="38.59" ry="36.37" transform="translate(-51.39 435.99) rotate(-87.25)"/><ellipse class="cls-45" cx="203.04" cy="244.96" rx="38.25" ry="36.05" transform="translate(-51.4 435.98) rotate(-87.24)"/><ellipse class="cls-46" cx="203.04" cy="244.96" rx="37.92" ry="35.73" transform="translate(-51.4 435.98) rotate(-87.24)"/><ellipse class="cls-47" cx="203.04" cy="244.96" rx="37.58" ry="35.41" transform="translate(-51.39 435.99) rotate(-87.25)"/><ellipse class="cls-48" cx="203.04" cy="244.96" rx="37.24" ry="35.09" transform="translate(-51.4 435.98) rotate(-87.25)"/><ellipse class="cls-49" cx="203.04" cy="244.96" rx="36.9" ry="34.77" transform="translate(-51.4 435.98) rotate(-87.25)"/><ellipse class="cls-50" cx="203.04" cy="244.96" rx="36.56" ry="34.45" transform="translate(-51.4 435.98) rotate(-87.24)"/><ellipse class="cls-51" cx="203.04" cy="244.96" rx="36.22" ry="34.13" transform="translate(-51.4 435.98) rotate(-87.25)"/><ellipse class="cls-52" cx="203.04" cy="244.96" rx="35.88" ry="33.82" transform="translate(-51.4 435.99) rotate(-87.25)"/><ellipse class="cls-53" cx="203.04" cy="244.96" rx="35.55" ry="33.5" transform="translate(-51.39 435.99) rotate(-87.25)"/><ellipse class="cls-54" cx="203.04" cy="244.96" rx="35.21" ry="33.18" transform="translate(-51.4 435.99) rotate(-87.25)"/><ellipse class="cls-55" cx="203.04" cy="244.96" rx="34.87" ry="32.86" transform="translate(-51.4 435.98) rotate(-87.24)"/><ellipse class="cls-56" cx="203.04" cy="244.96" rx="34.53" ry="32.54" transform="translate(-51.4 435.98) rotate(-87.24)"/><ellipse class="cls-57" cx="203.04" cy="244.96" rx="34.19" ry="32.22" transform="matrix(0.05, -1, 1, 0.05, -51.4, 435.98)"/><ellipse class="cls-58" cx="203.04" cy="244.96" rx="33.85" ry="31.9" transform="translate(-51.39 435.99) rotate(-87.25)"/><ellipse class="cls-59" cx="203.04" cy="244.96" rx="33.51" ry="31.58" transform="translate(-51.4 435.98) rotate(-87.24)"/><ellipse class="cls-60" cx="203.04" cy="244.96" rx="33.18" ry="31.26" transform="translate(-51.4 435.98) rotate(-87.24)"/><ellipse class="cls-61" cx="203.04" cy="244.96" rx="32.84" ry="30.94" transform="translate(-51.4 435.98) rotate(-87.24)"/><ellipse class="cls-62" cx="203.04" cy="244.96" rx="32.5" ry="30.63" transform="translate(-51.4 435.98) rotate(-87.24)"/><ellipse class="cls-63" cx="203.04" cy="244.96" rx="32.16" ry="30.31" transform="translate(-51.4 435.98) rotate(-87.25)"/><ellipse class="cls-64" cx="203.04" cy="244.96" rx="31.82" ry="29.99" transform="translate(-51.4 435.98) rotate(-87.24)"/><ellipse class="cls-65" cx="203.04" cy="244.96" rx="31.48" ry="29.67" transform="translate(-51.4 435.99) rotate(-87.25)"/><ellipse class="cls-66" cx="203.04" cy="244.96" rx="31.15" ry="29.35" transform="translate(-51.4 435.98) rotate(-87.24)"/><ellipse class="cls-67" cx="203.04" cy="244.96" rx="30.81" ry="29.03" transform="translate(-51.4 435.98) rotate(-87.24)"/><ellipse class="cls-68" cx="203.04" cy="244.96" rx="30.47" ry="28.71" transform="translate(-51.4 435.98) rotate(-87.24)"/><ellipse class="cls-69" cx="203.04" cy="244.96" rx="30.13" ry="28.39" transform="translate(-51.4 435.99) rotate(-87.25)"/><ellipse class="cls-70" cx="203.04" cy="244.96" rx="29.79" ry="28.07" transform="translate(-51.4 435.98) rotate(-87.24)"/><ellipse class="cls-71" cx="203.04" cy="244.96" rx="29.45" ry="27.75" transform="translate(-51.4 435.97) rotate(-87.24)"/><ellipse class="cls-72" cx="203.04" cy="244.96" rx="29.11" ry="27.44" transform="translate(-51.4 435.98) rotate(-87.24)"/><ellipse class="cls-73" cx="203.04" cy="244.96" rx="28.78" ry="27.12" transform="translate(-51.4 435.98) rotate(-87.24)"/><ellipse class="cls-74" cx="203.04" cy="244.96" rx="28.44" ry="26.8" transform="translate(-51.4 435.98) rotate(-87.24)"/><path class="cls-75" d="M203.38,216.86c-14.63-.11-26.64,12.38-26.82,27.9s11.51,28.18,26.14,28.29,26.63-12.38,26.82-27.89S218,217,203.38,216.86Z"/><ellipse class="cls-76" cx="203.04" cy="244.96" rx="27.76" ry="26.16" transform="translate(-51.4 435.98) rotate(-87.25)"/><path class="cls-77" d="M203.37,217.54c-14.27-.11-26,12.08-26.18,27.22s11.24,27.51,25.51,27.61,26-12.08,26.18-27.22S217.64,217.65,203.37,217.54Z"/><ellipse class="cls-78" cx="203.04" cy="244.96" rx="27.08" ry="25.52" transform="translate(-51.4 435.98) rotate(-87.24)"/><path class="cls-79" d="M203.36,218.22c-13.92-.11-25.35,11.78-25.53,26.55s11,26.82,24.88,26.93,25.35-11.78,25.53-26.55S217.28,218.32,203.36,218.22Z"/><path class="cls-80" d="M203.36,218.56c-13.75-.11-25,11.63-25.21,26.21s10.82,26.48,24.57,26.59,25-11.63,25.2-26.21S217.1,218.66,203.36,218.56Z"/><ellipse class="cls-81" cx="203.04" cy="244.96" rx="26.07" ry="24.56" transform="translate(-51.4 435.98) rotate(-87.24)"/><path class="cls-82" d="M203.35,219.23c-13.39-.1-24.39,11.34-24.56,25.54s10.54,25.81,23.93,25.91,24.39-11.33,24.56-25.54S216.74,219.33,203.35,219.23Z"/><path class="cls-83" d="M203.34,219.57c-13.21-.1-24.06,11.18-24.23,25.21s10.4,25.46,23.62,25.56,24.06-11.18,24.23-25.2S216.56,219.67,203.34,219.57Z"/><path class="cls-84" d="M203.34,219.91c-13-.1-23.75,11-23.91,24.87s10.26,25.13,23.3,25.22,23.75-11,23.91-24.86S216.38,220,203.34,219.91Z"/><path class="cls-85" d="M203.33,220.25c-12.86-.1-23.42,10.88-23.58,24.53s10.12,24.79,23,24.89,23.42-10.89,23.59-24.54S216.2,220.35,203.33,220.25Z"/><path class="cls-86" d="M203.33,220.59c-12.69-.1-23.1,10.73-23.27,24.19s10,24.45,22.68,24.55,23.1-10.74,23.27-24.2S216,220.68,203.33,220.59Z"/><path class="cls-87" d="M203.33,220.92c-12.51-.09-22.79,10.59-23,23.86s9.85,24.11,22.36,24.21,22.79-10.59,22.95-23.86S215.84,221,203.33,220.92Z"/></g><g class="cls-16"><ellipse class="cls-13" cx="318.41" cy="243.96" rx="48.1" ry="48.57" transform="translate(-17.49 24.71) rotate(-4.32)"/><ellipse class="cls-17" cx="318.41" cy="243.96" rx="47.76" ry="48.23" transform="translate(-17.49 24.7) rotate(-4.32)"/><ellipse class="cls-18" cx="318.41" cy="243.96" rx="47.42" ry="47.89" transform="translate(-17.47 24.68) rotate(-4.32)"/><ellipse class="cls-19" cx="318.41" cy="243.96" rx="47.08" ry="47.54" transform="translate(-17.48 24.68) rotate(-4.32)"/><ellipse class="cls-20" cx="318.41" cy="243.96" rx="46.74" ry="47.2" transform="translate(-17.47 24.68) rotate(-4.32)"/><ellipse class="cls-21" cx="318.41" cy="243.96" rx="46.41" ry="46.86" transform="matrix(1, -0.08, 0.08, 1, -17.48, 24.69)"/><ellipse class="cls-22" cx="318.41" cy="243.96" rx="46.07" ry="46.52" transform="matrix(1, -0.08, 0.08, 1, -17.5, 24.72)"/><ellipse class="cls-23" cx="318.41" cy="243.96" rx="45.73" ry="46.18" transform="translate(-17.48 24.69) rotate(-4.32)"/><ellipse class="cls-24" cx="318.41" cy="243.96" rx="45.39" ry="45.83" transform="translate(-17.48 24.7) rotate(-4.32)"/><ellipse class="cls-25" cx="318.41" cy="243.96" rx="45.05" ry="45.49" transform="translate(-17.49 24.7) rotate(-4.32)"/><ellipse class="cls-26" cx="318.41" cy="243.96" rx="44.71" ry="45.15" transform="translate(-17.48 24.69) rotate(-4.32)"/><ellipse class="cls-27" cx="318.41" cy="243.96" rx="44.37" ry="44.81" transform="translate(-17.49 24.71) rotate(-4.32)"/><ellipse class="cls-28" cx="318.41" cy="243.96" rx="44.03" ry="44.47" transform="translate(-17.49 24.71) rotate(-4.33)"/><ellipse class="cls-29" cx="318.41" cy="243.96" rx="43.7" ry="44.12" transform="translate(-17.5 24.72) rotate(-4.33)"/><ellipse class="cls-30" cx="318.41" cy="243.96" rx="43.36" ry="43.78" transform="translate(-17.5 24.72) rotate(-4.33)"/><ellipse class="cls-31" cx="318.41" cy="243.96" rx="43.02" ry="43.44" transform="translate(-17.49 24.71) rotate(-4.33)"/><ellipse class="cls-32" cx="318.41" cy="243.96" rx="42.68" ry="43.1" transform="translate(-17.5 24.72) rotate(-4.33)"/><ellipse class="cls-33" cx="318.41" cy="243.96" rx="42.34" ry="42.76" transform="translate(-17.5 24.72) rotate(-4.33)"/><ellipse class="cls-34" cx="318.41" cy="243.96" rx="42" ry="42.41" transform="translate(-17.51 24.73) rotate(-4.33)"/><ellipse class="cls-35" cx="318.41" cy="243.96" rx="41.66" ry="42.07" transform="translate(-17.5 24.72) rotate(-4.33)"/><ellipse class="cls-36" cx="318.41" cy="243.96" rx="41.32" ry="41.73" transform="matrix(1, -0.08, 0.08, 1, -17.46, 24.67)"/><ellipse class="cls-37" cx="318.41" cy="243.96" rx="40.99" ry="41.39" transform="translate(-17.49 24.71) rotate(-4.33)"/><ellipse class="cls-38" cx="318.41" cy="243.96" rx="40.65" ry="41.05" transform="translate(-17.5 24.71) rotate(-4.33)"/><ellipse class="cls-39" cx="318.41" cy="243.96" rx="40.31" ry="40.7" transform="translate(-17.49 24.71) rotate(-4.33)"/><ellipse class="cls-40" cx="318.41" cy="243.96" rx="39.97" ry="40.36" transform="translate(-17.49 24.7) rotate(-4.32)"/><ellipse class="cls-41" cx="318.41" cy="243.96" rx="39.63" ry="40.02" transform="translate(-17.47 24.68) rotate(-4.32)"/><ellipse class="cls-42" cx="318.41" cy="243.96" rx="39.29" ry="39.68" transform="translate(-17.47 24.68) rotate(-4.32)"/><ellipse class="cls-43" cx="318.41" cy="243.96" rx="38.95" ry="39.34" transform="translate(-17.5 24.73) rotate(-4.33)"/><ellipse class="cls-44" cx="318.41" cy="243.96" rx="38.61" ry="38.99" transform="translate(-17.5 24.72) rotate(-4.33)"/><ellipse class="cls-45" cx="318.41" cy="243.96" rx="38.28" ry="38.65" transform="translate(-17.48 24.7) rotate(-4.32)"/><ellipse class="cls-46" cx="318.41" cy="243.96" rx="37.94" ry="38.31" transform="translate(-17.49 24.7) rotate(-4.32)"/><ellipse class="cls-47" cx="318.41" cy="243.96" rx="37.6" ry="37.97" transform="translate(-17.49 24.7) rotate(-4.32)"/><ellipse class="cls-48" cx="318.41" cy="243.96" rx="37.26" ry="37.63" transform="translate(-17.52 24.75) rotate(-4.33)"/><ellipse class="cls-49" cx="318.41" cy="243.96" rx="36.92" ry="37.28" transform="translate(-17.49 24.71) rotate(-4.33)"/><ellipse class="cls-50" cx="318.41" cy="243.96" rx="36.58" ry="36.94" transform="translate(-17.5 24.71) rotate(-4.33)"/><ellipse class="cls-51" cx="318.41" cy="243.96" rx="36.24" ry="36.6" transform="translate(-17.5 24.72) rotate(-4.33)"/><ellipse class="cls-52" cx="318.41" cy="243.96" rx="35.9" ry="36.26" transform="translate(-17.5 24.72) rotate(-4.33)"/><ellipse class="cls-53" cx="318.41" cy="243.96" rx="35.57" ry="35.92" transform="translate(-17.53 24.76) rotate(-4.33)"/><ellipse class="cls-54" cx="318.41" cy="243.96" rx="35.23" ry="35.57" transform="translate(-17.51 24.73) rotate(-4.33)"/><ellipse class="cls-55" cx="318.41" cy="243.96" rx="34.89" ry="35.23" transform="translate(-17.51 24.73) rotate(-4.33)"/><ellipse class="cls-56" cx="318.41" cy="243.96" rx="34.55" ry="34.89" transform="translate(-17.48 24.7) rotate(-4.32)"/><ellipse class="cls-57" cx="318.41" cy="243.96" rx="34.21" ry="34.55" transform="matrix(1, -0.08, 0.08, 1, -17.49, 24.7)"/><ellipse class="cls-58" cx="318.41" cy="243.96" rx="33.87" ry="34.2" transform="translate(-17.49 24.71) rotate(-4.32)"/><ellipse class="cls-59" cx="318.41" cy="243.96" rx="33.53" ry="33.86" transform="translate(-17.49 24.7) rotate(-4.32)"/><ellipse class="cls-60" cx="318.41" cy="243.96" rx="33.2" ry="33.52" transform="translate(-17.5 24.71) rotate(-4.33)"/><ellipse class="cls-61" cx="318.41" cy="243.96" rx="32.86" ry="33.18" transform="translate(-17.51 24.73) rotate(-4.33)"/><ellipse class="cls-62" cx="318.41" cy="243.96" rx="32.52" ry="32.84" transform="translate(-17.5 24.71) rotate(-4.33)"/><ellipse class="cls-63" cx="318.41" cy="243.96" rx="32.18" ry="32.49" transform="translate(-17.51 24.73) rotate(-4.33)"/><ellipse class="cls-64" cx="318.41" cy="243.96" rx="31.84" ry="32.15" transform="matrix(1, -0.08, 0.08, 1, -17.51, 24.74)"/><ellipse class="cls-65" cx="318.41" cy="243.96" rx="31.5" ry="31.81" transform="translate(-17.51 24.73) rotate(-4.33)"/><ellipse class="cls-66" cx="318.41" cy="243.96" rx="31.16" ry="31.47" transform="translate(-17.5 24.73) rotate(-4.33)"/><ellipse class="cls-67" cx="318.41" cy="243.96" rx="30.82" ry="31.13" transform="translate(-17.49 24.7) rotate(-4.32)"/><ellipse class="cls-68" cx="318.41" cy="243.96" rx="30.49" ry="30.78" transform="translate(-17.48 24.69) rotate(-4.32)"/><ellipse class="cls-69" cx="318.41" cy="243.96" rx="30.15" ry="30.44" transform="translate(-17.52 24.75) rotate(-4.33)"/><ellipse class="cls-70" cx="318.41" cy="243.96" rx="29.81" ry="30.1" transform="translate(-17.53 24.77) rotate(-4.34)"/><ellipse class="cls-71" cx="318.41" cy="243.96" rx="29.47" ry="29.76" transform="translate(-17.52 24.75) rotate(-4.33)"/><ellipse class="cls-72" cx="318.41" cy="243.96" rx="29.13" ry="29.42" transform="translate(-17.5 24.72) rotate(-4.33)"/><ellipse class="cls-73" cx="318.41" cy="243.96" rx="28.79" ry="29.07" transform="translate(-17.51 24.74) rotate(-4.33)"/><ellipse class="cls-74" cx="318.41" cy="243.96" rx="28.45" ry="28.73" transform="translate(-17.55 24.8) rotate(-4.34)"/><ellipse class="cls-75" cx="318.41" cy="243.96" rx="28.11" ry="28.39" transform="translate(-17.54 24.78) rotate(-4.34)"/><ellipse class="cls-76" cx="318.41" cy="243.96" rx="27.78" ry="28.05" transform="translate(-17.48 24.69) rotate(-4.32)"/><ellipse class="cls-77" cx="318.41" cy="243.96" rx="27.44" ry="27.71" transform="translate(-17.49 24.7) rotate(-4.32)"/><ellipse class="cls-78" cx="318.41" cy="243.96" rx="27.1" ry="27.36" transform="translate(-17.48 24.69) rotate(-4.32)"/><ellipse class="cls-79" cx="318.41" cy="243.96" rx="26.76" ry="27.02" transform="translate(-17.53 24.77) rotate(-4.34)"/><ellipse class="cls-80" cx="318.41" cy="243.96" rx="26.42" ry="26.68" transform="translate(-17.53 24.77) rotate(-4.34)"/><ellipse class="cls-81" cx="318.41" cy="243.96" rx="26.08" ry="26.34" transform="translate(-17.49 24.71) rotate(-4.33)"/><ellipse class="cls-82" cx="318.41" cy="243.96" rx="25.74" ry="26" transform="matrix(1, -0.08, 0.08, 1, -17.51, 24.73)"/><ellipse class="cls-83" cx="318.41" cy="243.96" rx="25.4" ry="25.65" transform="translate(-17.51 24.73) rotate(-4.33)"/><ellipse class="cls-84" cx="318.41" cy="243.96" rx="25.07" ry="25.31" transform="translate(-17.53 24.77) rotate(-4.34)"/><ellipse class="cls-85" cx="318.41" cy="243.96" rx="24.73" ry="24.97" transform="translate(-17.51 24.74) rotate(-4.33)"/><ellipse class="cls-86" cx="318.41" cy="243.96" rx="24.39" ry="24.63" transform="translate(-17.52 24.76) rotate(-4.33)"/><ellipse class="cls-87" cx="318.41" cy="243.96" rx="24.05" ry="24.29" transform="translate(-17.53 24.77) rotate(-4.34)"/></g><ellipse class="cls-13" cx="390.18" cy="237.85" rx="34.51" ry="23.6" transform="translate(48.8 541.61) rotate(-73.03)"/><path class="cls-88" d="M307.42,271.39l0,.09A.66.66,0,0,0,307.42,271.39Z"/><path class="cls-89" d="M326.15,42.77c.06,0,.19,0,0,0Z"/><path class="cls-89" d="M326.32,46h0Z"/><path class="cls-89" d="M325.86,42.77h0Z"/><path class="cls-90" d="M161.79,262.7s9.06-46.27-7.74-53.08S132,256.91,161.79,262.7Z"/><path class="cls-91" d="M278.12,148.9s-10.41,45.32,12.77,71.29l55.52-4.94s.2-22.54-1.73-34.44c-.85-5.28-12-16.39-25.88-21.74C301.43,152.35,278.12,148.9,278.12,148.9Z"/><path class="cls-92" d="M188.68,176.17c-5.19,13.48-8.92,39.17-8.92,39.17l51.74,5.94c17.65-18.91,15-38.49,15-38.49S193.76,163,188.68,176.17Z"/><path class="cls-93" d="M318,199.37c-23.34-1.39-29,21.74-29,21.74s4.33,3.87,28.8,3.63c28.32-.27,26.71-8.56,26.71-8.56S341.29,200.76,318,199.37Z"/><path class="cls-93" d="M179.76,215.34s-2,7.69,23.4,8c26.65.37,28.34-2.1,28.34-2.1S204.89,175,179.76,215.34Z"/><path class="cls-94" d="M382.29,208.9l-12.08.34c-1.51,23.23-8.73,40-17.42,48.56-23.61,23.15-39,16.81-58.63,6.22-9.66-5.21-22.11-8.4-35-8.52-14.08-.14-30.1,4.44-41.56,11.75-14.55,9.28-36.35,10.23-48.62-15.94-4.15-8.86-5.47-23.86-5.75-33.84-.12-4.14.75-7,1.06-9.8l-3.55,1.25c-.3,1.42-1.47-1.68-1.54-.2a85.76,85.76,0,0,1-1.19,9.79c-10.82,62.05-1.92,153.21,106.58,152.76,105.82-.45,112.73-100.55,112.73-100.55C365.05,238.08,382.29,208.9,382.29,208.9ZM259.37,326.4c-14.09.09-18.61,11.61-34.09,6.88-18.92-5.78-20.59-23-9.72-35.14,8.69-9.66,26.13-8.78,42.69-8.47,22.19.41,37-2.29,46.75,10.17,7.11,9.1,6.05,29.58-11.06,35.66C279.51,340.64,271.66,326.33,259.37,326.4Z"/><path class="cls-95" d="M294.16,264c-9.66-5.21-22.12-8.4-35-8.52-14.08-.14-30.1,4.44-41.56,11.75-8.4,5.35-19.19,7.92-29.19,4.13,3.09,2.86,16.21,13.82,40.79,19.6,8.55-1.88,18.93-1.5,29-1.31,13.9.26,24.91-.7,33.58,1.6,21-5,32.88-14.22,37.58-18.63C317.27,275.69,306.58,270.7,294.16,264Z"/><path class="cls-88" d="M309.19,273.13l0,.1A.65.65,0,0,0,309.19,273.13Z"/><path class="cls-96" d="M217.57,205l-1-.79a33,33,0,0,0-3.65-2.37,22.09,22.09,0,0,0-2.49-.18c-7.27-.41-14,6.1-14.91,14.43a20.38,20.38,0,0,0,.79,6.94c2,.17,4.31.29,6.88.32,7.53.11,13.06,0,17.13-.24a23.38,23.38,0,0,0,1.51-5.46,15,15,0,0,0-4.05-12.51Z"/><path class="cls-97" d="M209.51,209.47c-3.61-.2-6.91,3-7.39,7.11a7.22,7.22,0,0,0,2.74,6.82c2.42,0,4.62,0,6.63,0a8.38,8.38,0,0,0,3.68-6.08C215.64,213.19,213.11,209.68,209.51,209.47Z"/><path class="cls-93" d="M207.21,214.83a4.33,4.33,0,1,1-4.13-4.54A4.34,4.34,0,0,1,207.21,214.83Z"/><path class="cls-98" d="M328.52,224.14a17.07,17.07,0,0,0,1.14-4.43c1-8.33-4.15-15.41-11.41-15.82s-13.94,6-14.9,14.33a16.51,16.51,0,0,0,.41,6.12c3.72.29,8.32.46,14,.4A104,104,0,0,0,328.52,224.14Z"/><path class="cls-97" d="M323,219.33c.47-4.13-2.06-7.64-5.66-7.84s-6.91,3-7.39,7.11a7.44,7.44,0,0,0,1.92,6.11c1.82,0,3.78,0,5.89,0,.87,0,1.7,0,2.51-.05A8.53,8.53,0,0,0,323,219.33Z"/><path class="cls-93" d="M315.07,216.84a4.33,4.33,0,1,1-4.13-4.53A4.35,4.35,0,0,1,315.07,216.84Z"/><path class="cls-99" d="M205.63,199.13c-20.63-2.3-25.87,16.21-25.87,16.21s6.59-10.79,23.12-9.35c16.11,1.4,28.62,15.29,28.62,15.29S229.24,201.76,205.63,199.13Z"/><path class="cls-99" d="M314.65,193.9c-26.52,1.52-25.71,26.72-25.71,26.72s3.4-17.24,26.44-18.24c22-1,29.12,13.8,29.12,13.8S341.35,192.38,314.65,193.9Z"/><path class="cls-100" d="M222.64,264.39c4.63,4.28,15.37,11.68,34.4,11.77,17.83.08,25.91-9.23,29.38-15.66a80,80,0,0,0-27.21-5A81.4,81.4,0,0,0,222.64,264.39Z"/><path class="cls-101" d="M258.59,211.47a39.61,39.61,0,0,1-6.74,18.36s-20.89-2.5-25.63,16.49c-5.65,22.67,39.6,31.73,51.29,7.89,5.89-12,.38-28.85-6.54-42.63Q264.77,211.39,258.59,211.47Z"/><path class="cls-102" d="M251,253c-9.16-.24-20,.78-24.8-6.41-5.19,22.44,39.71,31.32,51.35,7.59a24.57,24.57,0,0,0,2.34-8.6C275.19,252.38,258.6,253.23,251,253Z"/><path class="cls-103" d="M268.8,236c.18,3.94-7.69,7.55-17.57,8.08s-18-2.24-18.2-6.17,7.69-7.54,17.57-8.07S268.63,232.06,268.8,236Z"/><path class="cls-94" d="M370.08,210.14c.35-.19.81,1.21,1.3,1.14,3.6-.49,7.15-2.09,10.77-2.39C387,157.7,397.47,102.6,373.86,84.76c-6-4.52-16.8-5.67-16.8-5.67s-17.4,21.56-20,28.21c13.55,10.8,13.41,24.57,16.73,39.67,5.55,25.23,15.82,42.61,16.25,62.27C370.1,209.28,370.07,210.11,370.08,210.14Z"/><path class="cls-104" d="M388.34,144.28c-8.78,5.84-22,8.26-33.33,7.68,1,3.92,2.08,7.64,3.21,11.23a43.92,43.92,0,0,0,29.28-6.44C387.85,152.51,388.14,148.35,388.34,144.28Z"/><path class="cls-105" d="M349.17,125.11c1.67,5.24,2.53,10.81,3.61,16.62,13.69.14,27.23-4.08,35.88-12.84-.2-12.22-1.66-23-5.26-31.35C377.92,111.05,364.53,121.83,349.17,125.11Z"/><path class="cls-106" d="M347,119.54c6.36-.91,10.94-3.42,16.4-6.15a39.85,39.85,0,0,0,18.2-19.07h0c-.25-.48-.5-.95-.77-1.42l0,0q-.37-.66-.78-1.29l-.07-.11c-.25-.4-.51-.78-.78-1.16l-.12-.16c-.25-.35-.51-.69-.77-1l-.17-.22c-.25-.31-.51-.61-.77-.9l-.22-.26c-.25-.28-.51-.54-.77-.8l-.27-.28c-.26-.25-.53-.49-.8-.73a3.45,3.45,0,0,0-.28-.26q-.54-.47-1.11-.9h0c-3.37-2.54-8.27-4-11.9-4.83l-1.17-.24c-1.11-.22-2-.37-2.7-.47l-.3,0-.46-.06-.27,0-.78.92c-.25.29-.55.65-.89,1.07-.87,1-2,2.44-3.33,4.06-1,1.29-2.19,2.72-3.38,4.22l-.89,1.13c-.9,1.15-1.81,2.33-2.7,3.5l-.89,1.18c-.59.78-1.16,1.56-1.72,2.32s-1.09,1.52-1.6,2.25c-1.28,1.82-2.38,3.5-3.18,4.92-.48.85-.36,2-.6,2.64A33.89,33.89,0,0,1,347,119.54Z"/><path class="cls-107" d="M373,113.44c3.62,15.89,9,46.3,12.65,62.67,1.08-10.09,2-20,2.59-29.37-1.17-16.74-3.47-35.89-8-44.09C373.29,90.25,360.4,84.84,354.94,83l-2.79,3.42A40.52,40.52,0,0,1,373,113.44Z"/><path class="cls-94" d="M161.7,214h1.39s15-89.73,42.62-107.89c1.95-1.29,3.76-2.41,5.57-3.37-4.05-10.24-22.87-35.41-44-10.44C148.85,114.16,159.63,214,159.63,214Z"/><path class="cls-108" d="M205.71,106.16c1.95-1.29,3.76-2.41,5.57-3.37-4.05-10.24-22.87-35.41-44-10.44A24.32,24.32,0,0,0,164,97.66c4.38,6.85,11.46,12.2,18.2,15.93a49.75,49.75,0,0,0,12.15,4.75C197.86,113.07,201.65,108.84,205.71,106.16Z"/><path class="cls-109" d="M156.94,136.5c-.21,4.14-.34,8.36-.4,12.6,8.06,4.4,16.56,4.24,22.08,3.41q1.65-4.8,3.46-9.46C170.19,142.5,162.14,139.53,156.94,136.5Z"/><path class="cls-110" d="M184.47,118.91a46.11,46.11,0,0,1-23.19-13.75,117.84,117.84,0,0,0-3.41,19.24,37.55,37.55,0,0,0,13.83,5.87,47.47,47.47,0,0,0,15.51.85A113.35,113.35,0,0,1,193,120.5,69,69,0,0,1,184.47,118.91Z"/><path class="cls-107" d="M189.82,88.72c-6.3,2.07-14,11-19.48,16.58-7.66,7.79-11.62,23.8-13.65,37.31-.22,6.66-.23,13.44-.12,20,4-14.69,11.47-38.87,19.73-48.22,7-7.93,16.07-12.89,23.43-14.71C196.69,96.76,193.83,90,189.82,88.72Z"/><path class="cls-94" d="M204.86,106.74c.2-.14.86-.41,1.06-.54,26-17.1,33.46-11.25,60.76-11,23.8.24,41.55-10,63.45,5,2.76,1.89,4.58,4.17,7,7,8.22-5.78,21-20.37,23.06-33.79,4.2-26.86-24.11-44.59-27.55-44.35S323,34.08,323,34.08C309.31,11.11,274.21,0,274.21,0c-30.78,8.4-49.92,29.76-49.92,29.76l-6.75-5.61S177.71,45.83,179,65.64C179.84,79.61,195.32,98.77,204.86,106.74Z"/><path class="cls-111" d="M241.86,94.06c3.35.07,7.94.44,11.91.7C250.88,93.66,196.87,68,225.65,29h0a.83.83,0,0,0-.56.27s-.06-.09-.09-.06-.25.18-.34.28,0,0,0,0-.17.16-.22.21h0l-.07.08-5.6-4.65C212.67,33.94,191.08,70.9,241.86,94.06Z"/><path class="cls-112" d="M320.81,30.72c.61,1.09,5.83,11.32-.79,32.83-6.45,21-25.35,28.8-28.32,29.39h0a44.49,44.49,0,0,1,8.67-.55c2.4-.11,6-.09,8.39-.09,0,0,1-.85,1-.85,7-5.73,16-14.3,20.69-26.24a50,50,0,0,0,.63-35.61v-.06a14.9,14.9,0,0,0-1.94.76l-.12,0-.57.28-.16.08-.55.3-.15.08-.56.32-.1.06c-.85.5-1.63,1-2.27,1.45h0l-.4.28-.1.07-.31.21-.11.09a2.49,2.49,0,0,0-.24.17l-.1.07-.16.11-.1.08-.06,0-.06,0c-.36-.6-.74-1.18-1.12-1.76S321.19,31.25,320.81,30.72Z"/><polygon class="cls-113" points="291.32 89.73 291.32 89.73 291.33 89.73 291.32 89.73"/><path class="cls-114" d="M226.86,95.78c-6.41-5.63-20.56-19.52-24.77-31.48-4.41-12.54,2.12-26.85,6.93-35l-1.2.8-.1.06c-.4.27-.82.55-1.23.84l-.12.08c-.85.58-1.73,1.19-2.62,1.83l-.13.09c-.91.66-1.84,1.34-2.79,2.06l0,0q-.72.54-1.44,1.11h0q-1.46,1.14-2.91,2.34l0,0a82.49,82.49,0,0,0-9.55,9.21c-3.29,7-5.52,16.14-1.06,24.26,6.34,11.55,24,24.13,30.83,27.83A56.55,56.55,0,0,1,226.86,95.78Z"/><path class="cls-115" d="M270.14,1.22l-1.46.46-1.69.6-.95.33-2,.75-.62.23c-.72.29-1.43.59-2.13.89l-.35.14q-1.14.48-2.25,1l-.16.07c-.78.36-1.55.72-2.3,1.09h0L254,7.92c-7.61,8.31-17.32,22.56-16.18,40.45C239.16,69.75,253,88.44,259.47,95c2.25.1,4.64.18,7.21.2,2.22,0,4.38,0,6.49-.17-2.1-9.66-5.5-31.58-1.33-50A80.37,80.37,0,0,1,292,7.64,124.88,124.88,0,0,0,274.21,0c-.95.26-1.88.53-2.81.81Z"/><path class="cls-116" d="M284.8,93.84c7.68-9.62,27.49-40.23,20.95-64.61C302.83,18.31,281,82.69,277.07,94.74,279.71,94.49,282.28,94.17,284.8,93.84Z"/><path class="cls-117" d="M316.57,93.76a44.29,44.29,0,0,1,9.11,3.78C347.83,94.19,358.65,74,360,62h0a36.63,36.63,0,0,0-1.34-5.17,1.18,1.18,0,0,1-.07-.2c-.26-.73-.54-1.46-.83-2.17,0-.11-.1-.23-.14-.34-.3-.69-.61-1.37-.94-2l-.12-.24a45.14,45.14,0,0,0-3.87-6.35l-.17-.23c-.41-.56-.83-1.11-1.26-1.64-.08-.11-.17-.21-.25-.31-.43-.53-.86-1-1.3-1.54a2,2,0,0,0-.19-.22c-1-1.16-2.07-2.25-3.12-3.26l0,0q-.75-.72-1.5-1.38l-.27-.24c-.42-.38-.84-.74-1.26-1.09l-.28-.23c-.45-.36-.88-.71-1.32-1l-.15-.11c-1-.77-2-1.46-2.87-2.05.08.11,10.12,14.83,2.1,34.58C334.52,82.28,321.73,90.83,316.57,93.76Z"/><path class="cls-118" d="M380.34,256.88s.91-45.27,18.76-44.64C420.66,213,400.76,281.39,380.34,256.88Z"/><path class="cls-107" d="M355.1,49.08A53,53,0,0,0,345,36.91c-8.81-1.51-16.67,3.71-22.38,5.83-7,2.59-27-28.14-51.25-30.74s-49.9,30.3-49.9,30.3l-13.37-4.51c-4.43-1.5-9.4.08-14.06,2.85-7.63,6.75-14.33,14.82-15,22.74,4.34-4.16,11.16-9.78,17.63-11.41,10.63-2.68,15.35-1.49,23.28.23s18.67-15.63,44.92-14.4,41.91,15.92,52.53,18.38,15.39-7.16,28.1-7.33C350.07,48.79,353.1,48.91,355.1,49.08Z"/><path class="cls-119" d="M377.37,270.72a66.35,66.35,0,0,1-2.41-7.81c-4.53,21.86-27.17,101.9-115.77,101.49-101.56-.47-104.32-114.58-104.37-116.87-2.77,58,17.35,124.13,109.82,123.74C370.46,370.82,377.37,270.72,377.37,270.72Z"/><path class="cls-120" d="M199.92,296.68c7.48,15.65,1.08,33.28,18.89,40.53s26.65-4.51,39-4.22,24.64,15.05,41.76,5.8,15.51-19.64,21.19-38.38S359.84,286.72,353,308s-41.35,52.11-91.45,51.88-75.69-29.27-84.7-48.21S194.6,285.57,199.92,296.68Z"/><path class="cls-121" d="M278.12,148.9s16.17-15.49,40.86-5c20.61,8.79,23.41,32.29,23.41,32.29s-1.94,2.29-9.33-5.42-15.45-14-31.85-14.1A37.12,37.12,0,0,1,278.12,148.9Z"/><path class="cls-122" d="M306.33,302.62c-.62-.36-1.43-.81-2.46-1.31-1.23-.59-2.76-1.27-4.54-1.93s-3.83-1.35-6.09-2c-1.13-.29-2.3-.63-3.53-.92s-2.5-.55-3.81-.81l-4-.73c-1.39-.23-2.81-.41-4.25-.61s-2.92-.31-4.41-.47-3-.26-4.53-.34c-3.1-.23-6.12-.26-9.18-.33-1.62,0-3.11,0-4.67.05s-3.08.07-4.6.16c-3.05.12-6.05.42-8.94.72-1.45.2-2.87.37-4.26.58s-2.74.48-4.05.71c-2.64.49-5.1,1.08-7.36,1.71s-4.3,1.31-6.09,2a46.72,46.72,0,0,0-4.54,2c-1,.5-1.78,1-2.38,1.33a9.51,9.51,0,0,0-.39,1.79l.62-.21c.66-.22,1.67-.47,2.93-.8s2.85-.62,4.64-1,3.84-.6,6.07-.89,4.65-.49,7.21-.72,5.29-.33,8.09-.5,5.71-.21,8.67-.24,6,0,8.94-.06,6.13.05,9,.15,5.85.21,8.66.33c1.41.09,2.79.18,4.14.24l4,.29c2.56.26,5,.48,7.22.76s4.28.58,6.09.88,3.37.61,4.65.91,2.29.54,2.95.75l.24.07C306.34,303.76,306.35,303.22,306.33,302.62Z"/><g class="cls-123"><path class="cls-93" d="M257,308c-6.54,0-12.57-.22-15.76-.33a2.29,2.29,0,0,1-2.22-2.37h0a2.29,2.29,0,0,1,2.37-2.19c6.33.2,24.29.68,34.24-.07a2.3,2.3,0,0,1,2.45,2h0a2.27,2.27,0,0,1-2.11,2.52C270.79,307.94,263.65,308,257,308Z"/></g><path class="cls-124" d="M192.61,170.25s31.77-23.82,53.89,12.54c0,0-4.57,12.29-17.34,3.68s-28.55-19.29-40.48-10.3C188.68,176.17,190.34,171.74,192.61,170.25Z"/><path class="cls-6" d="M446.19,514.31l-5.57.61,2.84,50.64-.14-8.74,5.49,10.3Z"/><path class="cls-6" d="M550.44,463.64q-1.74-2.55-3.62-5.24a198.22,198.22,0,0,0-37.2,10.52C476.48,482,452.92,502.78,441.48,529l5.25,2.29C468.6,481.17,530.11,467,550.44,463.64Z"/><path class="cls-125" d="M373.08,302.82s-13.66-6-23.26-7.23-31.89-6.35-37.37-4.36-23.18,24.3-26.42,28.28,7.85,12.71,19.81,5.61S373.08,302.82,373.08,302.82Z"/><circle class="cls-13" cx="315.59" cy="216.43" r="63.98" transform="translate(-54.2 117.98) rotate(-19.53)"/><g class="cls-16"><ellipse class="cls-13" cx="322.15" cy="242.63" rx="51.37" ry="34.1" transform="translate(-41.24 67.71) rotate(-11.28)"/><ellipse class="cls-17" cx="322.15" cy="242.63" rx="51.01" ry="33.86" transform="translate(-41.24 67.71) rotate(-11.28)"/><ellipse class="cls-18" cx="322.15" cy="242.63" rx="50.65" ry="33.62" transform="translate(-41.24 67.71) rotate(-11.28)"/><ellipse class="cls-19" cx="322.15" cy="242.63" rx="50.29" ry="33.38" transform="translate(-41.24 67.71) rotate(-11.28)"/><ellipse class="cls-20" cx="322.15" cy="242.63" rx="49.93" ry="33.14" transform="translate(-41.24 67.71) rotate(-11.28)"/><ellipse class="cls-21" cx="322.15" cy="242.63" rx="49.56" ry="32.9" transform="translate(-41.24 67.71) rotate(-11.28)"/><ellipse class="cls-22" cx="322.15" cy="242.63" rx="49.2" ry="32.65" transform="matrix(0.98, -0.2, 0.2, 0.98, -41.24, 67.71)"/><ellipse class="cls-23" cx="322.15" cy="242.63" rx="48.84" ry="32.41" transform="translate(-41.24 67.71) rotate(-11.28)"/><ellipse class="cls-24" cx="322.15" cy="242.63" rx="48.48" ry="32.17" transform="translate(-41.24 67.71) rotate(-11.28)"/><ellipse class="cls-25" cx="322.15" cy="242.63" rx="48.12" ry="31.93" transform="translate(-41.24 67.71) rotate(-11.28)"/><ellipse class="cls-26" cx="322.15" cy="242.63" rx="47.75" ry="31.69" transform="translate(-41.24 67.71) rotate(-11.28)"/><ellipse class="cls-27" cx="322.15" cy="242.63" rx="47.39" ry="31.45" transform="translate(-41.24 67.71) rotate(-11.28)"/><ellipse class="cls-28" cx="322.15" cy="242.63" rx="47.03" ry="31.21" transform="translate(-41.24 67.71) rotate(-11.28)"/><ellipse class="cls-29" cx="322.15" cy="242.63" rx="46.67" ry="30.97" transform="translate(-41.24 67.71) rotate(-11.28)"/><ellipse class="cls-30" cx="322.15" cy="242.63" rx="46.31" ry="30.73" transform="translate(-41.24 67.71) rotate(-11.28)"/><ellipse class="cls-31" cx="322.15" cy="242.63" rx="45.95" ry="30.49" transform="translate(-41.24 67.71) rotate(-11.28)"/><ellipse class="cls-32" cx="322.15" cy="242.63" rx="45.58" ry="30.25" transform="translate(-41.24 67.71) rotate(-11.28)"/><ellipse class="cls-33" cx="322.15" cy="242.63" rx="45.22" ry="30.01" transform="translate(-41.24 67.71) rotate(-11.28)"/><ellipse class="cls-34" cx="322.15" cy="242.63" rx="44.86" ry="29.77" transform="matrix(0.98, -0.2, 0.2, 0.98, -41.24, 67.71)"/><ellipse class="cls-35" cx="322.15" cy="242.63" rx="44.5" ry="29.53" transform="translate(-41.24 67.71) rotate(-11.28)"/><ellipse class="cls-36" cx="322.15" cy="242.63" rx="44.14" ry="29.29" transform="translate(-41.24 67.71) rotate(-11.28)"/><ellipse class="cls-37" cx="322.15" cy="242.63" rx="43.77" ry="29.05" transform="translate(-41.24 67.71) rotate(-11.28)"/><ellipse class="cls-38" cx="322.15" cy="242.63" rx="43.41" ry="28.81" transform="translate(-41.24 67.71) rotate(-11.28)"/><ellipse class="cls-39" cx="322.15" cy="242.63" rx="43.05" ry="28.57" transform="translate(-41.24 67.71) rotate(-11.28)"/><ellipse class="cls-40" cx="322.15" cy="242.63" rx="42.69" ry="28.33" transform="translate(-41.24 67.71) rotate(-11.28)"/><ellipse class="cls-41" cx="322.15" cy="242.63" rx="42.33" ry="28.09" transform="translate(-41.24 67.71) rotate(-11.28)"/><ellipse class="cls-42" cx="322.15" cy="242.63" rx="41.97" ry="27.85" transform="translate(-41.24 67.71) rotate(-11.28)"/><ellipse class="cls-43" cx="322.15" cy="242.63" rx="41.6" ry="27.61" transform="matrix(0.98, -0.2, 0.2, 0.98, -41.24, 67.71)"/><ellipse class="cls-44" cx="322.15" cy="242.63" rx="41.24" ry="27.37" transform="translate(-41.24 67.71) rotate(-11.28)"/><ellipse class="cls-45" cx="322.15" cy="242.63" rx="40.88" ry="27.13" transform="translate(-41.24 67.71) rotate(-11.28)"/><ellipse class="cls-46" cx="322.15" cy="242.63" rx="40.52" ry="26.89" transform="translate(-41.24 67.71) rotate(-11.28)"/><ellipse class="cls-47" cx="322.15" cy="242.63" rx="40.16" ry="26.65" transform="translate(-41.24 67.71) rotate(-11.28)"/><ellipse class="cls-48" cx="322.15" cy="242.63" rx="39.8" ry="26.41" transform="translate(-41.24 67.71) rotate(-11.28)"/><ellipse class="cls-49" cx="322.15" cy="242.63" rx="39.43" ry="26.17" transform="translate(-41.24 67.71) rotate(-11.28)"/><ellipse class="cls-50" cx="322.15" cy="242.63" rx="39.07" ry="25.93" transform="translate(-41.24 67.71) rotate(-11.28)"/><ellipse class="cls-51" cx="322.15" cy="242.63" rx="38.71" ry="25.69" transform="translate(-41.24 67.71) rotate(-11.28)"/><ellipse class="cls-52" cx="322.15" cy="242.63" rx="38.35" ry="25.45" transform="translate(-41.24 67.71) rotate(-11.28)"/><ellipse class="cls-53" cx="322.15" cy="242.63" rx="37.99" ry="25.21" transform="translate(-41.24 67.71) rotate(-11.28)"/><ellipse class="cls-54" cx="322.15" cy="242.63" rx="37.62" ry="24.97" transform="translate(-41.24 67.71) rotate(-11.28)"/><ellipse class="cls-55" cx="322.15" cy="242.63" rx="37.26" ry="24.73" transform="translate(-41.24 67.71) rotate(-11.28)"/><ellipse class="cls-56" cx="322.15" cy="242.63" rx="36.9" ry="24.49" transform="translate(-41.24 67.71) rotate(-11.28)"/><ellipse class="cls-57" cx="322.15" cy="242.63" rx="36.54" ry="24.25" transform="translate(-41.24 67.71) rotate(-11.28)"/><ellipse class="cls-58" cx="322.15" cy="242.63" rx="36.18" ry="24.01" transform="translate(-41.24 67.71) rotate(-11.28)"/><ellipse class="cls-59" cx="322.15" cy="242.63" rx="35.82" ry="23.77" transform="translate(-41.24 67.71) rotate(-11.28)"/><ellipse class="cls-60" cx="322.15" cy="242.63" rx="35.45" ry="23.53" transform="translate(-41.24 67.71) rotate(-11.28)"/><ellipse class="cls-61" cx="322.15" cy="242.63" rx="35.09" ry="23.29" transform="translate(-41.24 67.71) rotate(-11.28)"/><ellipse class="cls-62" cx="322.15" cy="242.63" rx="34.73" ry="23.05" transform="translate(-41.24 67.71) rotate(-11.28)"/><ellipse class="cls-63" cx="322.15" cy="242.63" rx="34.37" ry="22.81" transform="translate(-41.24 67.71) rotate(-11.28)"/><ellipse class="cls-64" cx="322.15" cy="242.63" rx="34.01" ry="22.57" transform="translate(-41.24 67.71) rotate(-11.28)"/><ellipse class="cls-65" cx="322.15" cy="242.63" rx="33.65" ry="22.33" transform="translate(-41.24 67.71) rotate(-11.28)"/><ellipse class="cls-66" cx="322.15" cy="242.63" rx="33.28" ry="22.09" transform="translate(-41.24 67.71) rotate(-11.28)"/><ellipse class="cls-67" cx="322.15" cy="242.63" rx="32.92" ry="21.85" transform="translate(-41.24 67.71) rotate(-11.28)"/><ellipse class="cls-68" cx="322.15" cy="242.63" rx="32.56" ry="21.61" transform="translate(-41.24 67.71) rotate(-11.28)"/><ellipse class="cls-69" cx="322.15" cy="242.63" rx="32.2" ry="21.37" transform="translate(-41.24 67.71) rotate(-11.28)"/><ellipse class="cls-70" cx="322.15" cy="242.63" rx="31.84" ry="21.13" transform="translate(-41.24 67.71) rotate(-11.28)"/><ellipse class="cls-71" cx="322.15" cy="242.63" rx="31.47" ry="20.89" transform="translate(-41.24 67.71) rotate(-11.28)"/><ellipse class="cls-72" cx="322.15" cy="242.63" rx="31.11" ry="20.65" transform="translate(-41.24 67.71) rotate(-11.28)"/><ellipse class="cls-73" cx="322.15" cy="242.63" rx="30.75" ry="20.41" transform="translate(-41.24 67.71) rotate(-11.28)"/><ellipse class="cls-74" cx="322.15" cy="242.63" rx="30.39" ry="20.17" transform="translate(-41.24 67.71) rotate(-11.28)"/><ellipse class="cls-75" cx="322.15" cy="242.63" rx="30.03" ry="19.93" transform="translate(-41.24 67.71) rotate(-11.28)"/><ellipse class="cls-76" cx="322.15" cy="242.63" rx="29.67" ry="19.69" transform="translate(-41.24 67.71) rotate(-11.28)"/><ellipse class="cls-77" cx="322.15" cy="242.63" rx="29.3" ry="19.45" transform="translate(-41.24 67.71) rotate(-11.28)"/><ellipse class="cls-78" cx="322.15" cy="242.63" rx="28.94" ry="19.21" transform="translate(-41.24 67.71) rotate(-11.28)"/><ellipse class="cls-79" cx="322.15" cy="242.63" rx="28.58" ry="18.97" transform="translate(-41.24 67.71) rotate(-11.28)"/><ellipse class="cls-80" cx="322.15" cy="242.63" rx="28.22" ry="18.73" transform="translate(-41.24 67.71) rotate(-11.28)"/><path class="cls-81" d="M322.91,223.87c-15.22,1.38-27.89,10.9-28.31,21.27s11.58,17.64,26.79,16.26,27.89-10.91,28.3-21.28S338.12,222.48,322.91,223.87Z"/><ellipse class="cls-82" cx="322.15" cy="242.63" rx="27.49" ry="18.25" transform="translate(-41.24 67.71) rotate(-11.28)"/><ellipse class="cls-83" cx="322.15" cy="242.63" rx="27.13" ry="18.01" transform="translate(-41.24 67.71) rotate(-11.28)"/><ellipse class="cls-84" cx="322.15" cy="242.63" rx="26.77" ry="17.77" transform="matrix(0.98, -0.2, 0.2, 0.98, -41.24, 67.71)"/><ellipse class="cls-85" cx="322.15" cy="242.63" rx="26.41" ry="17.53" transform="translate(-41.24 67.71) rotate(-11.28)"/><ellipse class="cls-86" cx="322.15" cy="242.63" rx="26.05" ry="17.29" transform="translate(-41.24 67.71) rotate(-11.28)"/><ellipse class="cls-87" cx="322.15" cy="242.63" rx="25.69" ry="17.05" transform="translate(-41.24 67.71) rotate(-11.28)"/></g><path class="cls-126" d="M351.35,213.9s.24-26.26-2-40.13c-.74-4.59-8.2-13-18.64-19.52a64,64,0,0,0-60.28,16.89c-.07,15.34,3.22,33.92,16.25,48.51Z"/><path class="cls-93" d="M318.19,195.4c-27.19-1.62-33.74,25.34-33.74,25.34s5.05,4.5,33.56,4.22c33-.32,31.12-10,31.12-10S345.38,197,318.19,195.4Z"/><path class="cls-127" d="M330.51,224.26a20,20,0,0,0,1.33-5.16c1.12-9.71-4.83-18-13.3-18.44s-16.24,7-17.36,16.71a19,19,0,0,0,.49,7.12c4.33.34,9.69.54,16.34.47A121.06,121.06,0,0,0,330.51,224.26Z"/><path class="cls-97" d="M324.11,218.66c.56-4.81-2.4-8.9-6.59-9.14s-8.06,3.47-8.61,8.28a8.69,8.69,0,0,0,2.23,7.13c2.13,0,4.41.06,6.87,0l2.92-.05A10,10,0,0,0,324.11,218.66Z"/><path class="cls-93" d="M314.83,215.76a5,5,0,1,1-4.8-5.28A5,5,0,0,1,314.83,215.76Z"/><path class="cls-99" d="M314.34,189c-30.89,1.77-29.95,31.13-29.95,31.13s4-20.09,30.81-21.26c25.63-1.11,33.93,16.09,33.93,16.09S345.46,187.25,314.34,189Z"/><path class="cls-99" d="M314.24,152.47c11,2.58,17.9,8.38,24.24,15,8.6,9,10.86,6.31,10.86,6.31a53.75,53.75,0,0,0-4.24-14.1A63.79,63.79,0,0,0,314.24,152.47Z"/><path class="cls-128" d="M373.88,242.79a63.85,63.85,0,0,0,5.19-18.37,57.09,57.09,0,0,0-2.64,6.6A59.14,59.14,0,0,0,373.88,242.79Z"/><path class="cls-128" d="M290.48,270.72a81.1,81.1,0,0,0-17.83-6.88,64,64,0,0,0,39.65,16.49C305.22,278.4,298.13,274.84,290.48,270.72Z"/><path class="cls-99" d="M379.63,209.06c0-.35-.34-.7-.39-1-1.91,26.48-10.35,45.68-20.33,55.46-.65.64-1.1,1.24-1.74,1.84a64.9,64.9,0,0,0,22.46-41.51Z"/><path class="cls-129" d="M290.48,270.72a81.1,81.1,0,0,0-17.83-6.88,64,64,0,0,0,39.72,16.49C305.27,278.42,298.16,274.86,290.48,270.72Z"/><path class="cls-130" d="M281.46,266.63a87.53,87.53,0,0,0-8.79-2.77,63.42,63.42,0,0,0,7.1,5.56C280.41,268.46,281,267.52,281.46,266.63Z"/><path class="cls-13" d="M263.45,209.63c-3.82-.13-7.64-.16-11.46-.14a63.94,63.94,0,0,0,18,51.8c.38-.64.75-1.3,1.09-2C277.94,245.32,271.52,225.69,263.45,209.63Z"/><path class="cls-131" d="M264.67,255.06a65.73,65.73,0,0,0,5.35,6.17c.38-.63.73-1.27,1.06-1.93a28.84,28.84,0,0,0,2.73-10C272,251.9,268.66,253.76,264.67,255.06Z"/><rect class="cls-132" x="327.96" y="280.78" width="9.28" height="17.91" transform="translate(-53.76 76.9) rotate(-12.21)"/><path class="cls-133" d="M336.84,287.37l-1.6-7.37-9.07,2,1.25,5.79A13.53,13.53,0,0,1,336.84,287.37Z"/><path class="cls-134" d="M368.57,206.05c6.27,29-92.77-34.84-63.8-41.11A53.67,53.67,0,0,1,368.57,206.05Z"/><path class="cls-132" d="M331.38,284.09a69.23,69.23,0,1,1,53-82.3A69.3,69.3,0,0,1,331.38,284.09ZM304.32,159a58.73,58.73,0,1,0,69.82,45A58.79,58.79,0,0,0,304.32,159Z"/><path class="cls-135" d="M330.9,281.89a67,67,0,1,1,51.3-79.62A67,67,0,0,1,330.9,281.89ZM303.24,154.05a63.83,63.83,0,1,0,75.88,48.88A63.9,63.9,0,0,0,303.24,154.05Z"/><path class="cls-136" d="M379.94,207.78a63.84,63.84,0,0,1-17.34,53,1.56,1.56,0,0,0-.14,2l0,0a1.57,1.57,0,0,0,2.37.17,67,67,0,0,0,18.21-55.65,1.55,1.55,0,0,0-1.93-1.28h0A1.56,1.56,0,0,0,379.94,207.78Z"/><path class="cls-136" d="M354.11,268.15A63.37,63.37,0,0,1,339.53,276a1.57,1.57,0,0,0-.95,1.9v0a1.56,1.56,0,0,0,2,1,66.18,66.18,0,0,0,15.35-8.3,1.56,1.56,0,0,0,.32-2.19l0,0A1.56,1.56,0,0,0,354.11,268.15Z"/><path class="cls-137" d="M329.79,276.74a61.71,61.71,0,1,1,47.26-73.36A61.76,61.76,0,0,1,329.79,276.74ZM304.57,160.23a57.51,57.51,0,1,0,68.37,44A57.56,57.56,0,0,0,304.57,160.23Z"/><rect class="cls-138" x="336.6" y="291.04" width="21.28" height="132.74" rx="6.61" transform="translate(-67.74 81.53) rotate(-12.21)"/><path class="cls-13" d="M309.4,302.94c17.14-6.14,40.76-6.44,58.83-2.45s68.59,55.94,79.6,72.87l-55.89,41.78s-24.46,2.2-40.33-1.39-36.83-22-37.3-26.41a15,15,0,0,1,1.51-8s-6.26-6-8.34-12.17a9,9,0,0,1,2.2-9.76s-6.72-2.05-10-8.08-.93-15.64,8.57-19.92c0,0-6.84-.12-8.69-10.08S302.2,305.52,309.4,302.94Z"/><path class="cls-3" d="M301.18,324.13c2.7,5.2,5.16,6.28,4.31,6.86a88.78,88.78,0,0,0,43.13-.22l-1.47-5.7A86.08,86.08,0,0,1,301.18,324.13Z"/><path class="cls-3" d="M303.33,353.77l1.05.84c2.73,2,3.83,4.06,3,6.33a93.8,93.8,0,0,0,21.68,2.64,71.89,71.89,0,0,0,16.58-1.85L344.31,356C324.74,360.66,303.53,353.84,303.33,353.77Z"/><path class="cls-3" d="M311.87,374.85l.93,1.17a8.85,8.85,0,0,1,1.74,7.11,57.4,57.4,0,0,0,26.52,6.43,60.27,60.27,0,0,0,8.39-.59l-.82-5.83A54.84,54.84,0,0,1,311.87,374.85Z"/><path class="cls-13" d="M447.83,373.36c49,78.46,147.88,135.23,165.89,196.94,9.06,31.06-10.27,74-23.76,82.49-21.32,13.37-57.66,8.48-72.51-11.47-35.19-47.27-69.62-145.42-125.51-226.18-4.72-6.81,21.07-25.58,21.07-25.58S442.75,365.22,447.83,373.36Z"/><path class="cls-139" d="M420.42,398.38C438.06,371.53,458,388.7,458,388.7v-.11c-3.6-4.95-7-10-10.22-15.17-11-16.94-61.54-68.91-79.6-72.9-3.36-.74-6.91-1.35-10.58-1.78,4.78,1.13,10.41,3.86,13.28,10.56C376.3,321.83,378,402,370.25,407s-34.73-.39-34.79-.4c5.34,3.29,11,6,16.15,7.17,15.87,3.59,40.33,1.81,40.33,1.81A512.66,512.66,0,0,1,423.06,466h0S402.77,425.23,420.42,398.38Z"/><path class="cls-140" d="M391.94,415.32q3.27,4.73,6.43,9.53l12.95-2.17s2.48-6.45.29-8.54-20.23,1.22-20.25,1.22Z"/><path class="cls-141" d="M467.26,407.57C489,435.94,583.87,519,598.19,549.75c19.36,41.52-28.3,89-62.4,58.65s-74.29-142.49-97.44-177C427.54,415.23,458.9,396.65,467.26,407.57Z"/><path class="cls-6" d="M11.37,537.94q-.88,2.82-1.69,5.52c15,2.76,68.62,12.12,110.66,13.12l.13-5.73C79.42,549.87,27.06,540.81,11.37,537.94Z"/></g></g></svg>