<svg xmlns="http://www.w3.org/2000/svg" xmlns:xlink="http://www.w3.org/1999/xlink" viewBox="0 0 634.54 1439.48"><defs><style>.cls-1{fill:url(#Áåçûìÿííûé_ãðàäèåíò_11);}.cls-2{fill:url(#Áåçûìÿííûé_ãðàäèåíò_487);}.cls-3{fill:url(#Áåçûìÿííûé_ãðàäèåíò_6);}.cls-4{fill:#2c2c2d;}.cls-5{fill:#333844;}.cls-6{opacity:0.09;}.cls-7{fill:#292d35;}.cls-8{fill:#1c1d1e;}.cls-9{fill:url(#Áåçûìÿííûé_ãðàäèåíò_501);}.cls-10{fill:#3d3d3d;}.cls-11{fill:url(#Áåçûìÿííûé_ãðàäèåíò_486);}.cls-12{fill:url(#Áåçûìÿííûé_ãðàäèåíò_486-2);}.cls-13{fill:url(#Áåçûìÿííûé_ãðàäèåíò_501-2);}.cls-14{fill:#cadbef;}.cls-15{fill:url(#Áåçûìÿííûé_ãðàäèåíò_7);}.cls-16{fill:url(#Áåçûìÿííûé_ãðàäèåíò_7-2);}.cls-17{fill:url(#Áåçûìÿííûé_ãðàäèåíò_487-2);}.cls-18{fill:#ff9e78;}.cls-19{fill:url(#Áåçûìÿííûé_ãðàäèåíò_29);}.cls-20{fill:#e4856b;}.cls-21{fill:url(#Áåçûìÿííûé_ãðàäèåíò_29-2);}.cls-22{fill:url(#Áåçûìÿííûé_ãðàäèåíò_487-3);}.cls-23{fill:#d37762;}.cls-24{fill:url(#Áåçûìÿííûé_ãðàäèåíò_29-3);}.cls-25{fill:url(#Áåçûìÿííûé_ãðàäèåíò_29-4);}.cls-26{fill:url(#Áåçûìÿííûé_ãðàäèåíò_7-3);}.cls-27{fill:url(#Áåçûìÿííûé_ãðàäèåíò_20);}.cls-28{fill:url(#Áåçûìÿííûé_ãðàäèåíò_20-2);}.cls-29{fill:url(#Áåçûìÿííûé_ãðàäèåíò_6-2);}.cls-30{fill:url(#Áåçûìÿííûé_ãðàäèåíò_6-3);}.cls-31{fill:url(#Áåçûìÿííûé_ãðàäèåíò_29-5);}.cls-32{fill:#3e1208;}.cls-33{fill:url(#Áåçûìÿííûé_ãðàäèåíò_16);}.cls-127,.cls-34{opacity:0.44;}.cls-35{fill:#ff9d77;}.cls-36{fill:#ff9c77;}.cls-37{fill:#ff9b76;}.cls-38{fill:#ff9a76;}.cls-39{fill:#ff9975;}.cls-40{fill:#ff9875;}.cls-41{fill:#ff9774;}.cls-42{fill:#ff9674;}.cls-43{fill:#ff9573;}.cls-44{fill:#ff9472;}.cls-45{fill:#ff9372;}.cls-46{fill:#ff9271;}.cls-47{fill:#ff9171;}.cls-48{fill:#ff9070;}.cls-49{fill:#ff8f70;}.cls-50{fill:#ff8e6f;}.cls-51{fill:#ff8d6f;}.cls-52{fill:#ff8c6e;}.cls-53{fill:#ff8b6e;}.cls-54{fill:#ff8a6d;}.cls-55{fill:#ff896c;}.cls-56{fill:#ff886c;}.cls-57{fill:#ff876b;}.cls-58{fill:#ff866b;}.cls-59{fill:#ff856a;}.cls-60{fill:#ff846a;}.cls-61{fill:#ff8369;}.cls-62{fill:#ff8269;}.cls-63{fill:#ff8168;}.cls-64{fill:#ff8067;}.cls-65{fill:#ff7f67;}.cls-66{fill:#ff7e66;}.cls-67{fill:#ff7d66;}.cls-68{fill:#ff7c65;}.cls-69{fill:#ff7b65;}.cls-70{fill:#ff7a64;}.cls-71{fill:#ff7964;}.cls-72{fill:#ff7863;}.cls-73{fill:#ff7762;}.cls-74{fill:#ff7661;}.cls-75{fill:#ff7561;}.cls-76{fill:#ff7460;}.cls-77{fill:#ff7360;}.cls-78{fill:#ff725f;}.cls-79{fill:#ff715f;}.cls-80{fill:#ff705e;}.cls-81{fill:#ff6f5e;}.cls-82{fill:#ff6e5d;}.cls-83{fill:#ff6d5c;}.cls-84{fill:#ff6c5c;}.cls-85{fill:#ff6b5b;}.cls-86{fill:#ff6a5b;}.cls-87{fill:#ff695a;}.cls-88{fill:#ff685a;}.cls-89{fill:#ff6759;}.cls-90{fill:#ff6659;}.cls-91{fill:#ff6558;}.cls-92{fill:#ff6457;}.cls-93{fill:#ff6357;}.cls-94{fill:#ff6256;}.cls-95{fill:#ff6156;}.cls-96{fill:#ff6055;}.cls-97{fill:#ff5f55;}.cls-98{fill:#ff5e54;}.cls-99{fill:#ff5d54;}.cls-100{fill:#ff5c53;}.cls-101{fill:#ff5b53;}.cls-102{fill:#ff5a52;}.cls-103{fill:#ff5951;}.cls-104{fill:#ff5851;}.cls-105{fill:#ff5750;}.cls-106{fill:#ff5650;}.cls-107{fill:#ff554f;}.cls-108{fill:#ff544f;}.cls-109{fill:#ff534e;}.cls-110{fill:#ff524e;}.cls-111{fill:#ff514d;}.cls-112{fill:url(#Áåçûìÿííûé_ãðàäèåíò_29-6);}.cls-113{fill:url(#Áåçûìÿííûé_ãðàäèåíò_29-7);}.cls-114{fill:#7c302a;}.cls-115{fill:url(#Áåçûìÿííûé_ãðàäèåíò_57);}.cls-116{fill:#59352c;}.cls-117,.cls-126,.cls-130,.cls-136{fill:#fff;}.cls-117{opacity:0.12;}.cls-118{fill:url(#Áåçûìÿííûé_ãðàäèåíò_16-2);}.cls-119{fill:#fb755c;}.cls-120{fill:url(#Áåçûìÿííûé_ãðàäèåíò_3);}.cls-121{fill:url(#Áåçûìÿííûé_ãðàäèåíò_57-2);}.cls-122{fill:#ffbc80;}.cls-122,.cls-123{opacity:0.11;}.cls-124{fill:url(#Áåçûìÿííûé_ãðàäèåíò_24);}.cls-125{fill:url(#Áåçûìÿííûé_ãðàäèåíò_29-8);}.cls-126{opacity:0.2;}.cls-127{fill:#ed6954;}.cls-128{fill:url(#Áåçûìÿííûé_ãðàäèåíò_16-3);}.cls-129{fill:url(#Áåçûìÿííûé_ãðàäèåíò_16-4);}.cls-131{fill:#603f37;}.cls-132{fill:url(#Áåçûìÿííûé_ãðàäèåíò_57-3);}.cls-133{fill:url(#Áåçûìÿííûé_ãðàäèåíò_57-4);}.cls-134{fill:url(#Áåçûìÿííûé_ãðàäèåíò_12);}.cls-135{fill:#1e1d1d;}.cls-136{opacity:0.82;}.cls-137{fill:url(#Áåçûìÿííûé_ãðàäèåíò_12-2);}.cls-138{fill:url(#Áåçûìÿííûé_ãðàäèåíò_30);}</style><linearGradient id="Áåçûìÿííûé_ãðàäèåíò_11" x1="317.27" y1="1450.46" x2="317.27" y2="1368.39" gradientUnits="userSpaceOnUse"><stop offset="0" stop-color="#fff"/><stop offset="1" stop-color="#a5b7c6"/></linearGradient><linearGradient id="Áåçûìÿííûé_ãðàäèåíò_487" x1="321.93" y1="294.06" x2="321.93" y2="322.93" gradientUnits="userSpaceOnUse"><stop offset="0" stop-color="#db7d67"/><stop offset="1" stop-color="#ff9e78"/></linearGradient><linearGradient id="Áåçûìÿííûé_ãðàäèåíò_6" x1="323.32" y1="313.44" x2="323.32" y2="442.57" gradientUnits="userSpaceOnUse"><stop offset="0" stop-color="#deefff"/><stop offset="1" stop-color="#cadbef"/></linearGradient><linearGradient id="Áåçûìÿííûé_ãðàäèåíò_501" x1="3012.82" y1="997.55" x2="3027.99" y2="824.19" gradientTransform="matrix(-1, 0, 0, 1, 3425.26, 0)" gradientUnits="userSpaceOnUse"><stop offset="0" stop-color="#3d434f"/><stop offset="1" stop-color="#333844"/></linearGradient><linearGradient id="Áåçûìÿííûé_ãðàäèåíò_486" x1="141.28" y1="1369.07" x2="141.77" y2="1396.17" gradientUnits="userSpaceOnUse"><stop offset="0" stop-color="#5b5b60"/><stop offset="1" stop-color="#2c2c2d"/></linearGradient><linearGradient id="Áåçûìÿííûé_ãðàäèåíò_486-2" x1="493.56" y1="1369.04" x2="494.06" y2="1396.26" xlink:href="#Áåçûìÿííûé_ãðàäèåíò_486"/><linearGradient id="Áåçûìÿííûé_ãðàäèåíò_501-2" x1="223.72" y1="997.44" x2="239.02" y2="822.58" gradientTransform="matrix(1, 0, 0, 1, 0, 0)" xlink:href="#Áåçûìÿííûé_ãðàäèåíò_501"/><linearGradient id="Áåçûìÿííûé_ãðàäèåíò_7" x1="322.87" y1="359.72" x2="322.87" y2="400.14" gradientUnits="userSpaceOnUse"><stop offset="0" stop-color="#b3cbe2"/><stop offset="1" stop-color="#cadbef"/></linearGradient><linearGradient id="Áåçûìÿííûé_ãðàäèåíò_7-2" x1="322.09" y1="563.33" x2="322.09" y2="754.11" xlink:href="#Áåçûìÿííûé_ãðàäèåíò_7"/><linearGradient id="Áåçûìÿííûé_ãðàäèåíò_487-2" x1="172.59" y1="896.33" x2="187.1" y2="883.78" xlink:href="#Áåçûìÿííûé_ãðàäèåíò_487"/><linearGradient id="Áåçûìÿííûé_ãðàäèåíò_29" x1="175.72" y1="899.89" x2="127.1" y2="814.88" gradientUnits="userSpaceOnUse"><stop offset="0" stop-color="#f28c70"/><stop offset="1" stop-color="#ff9e78"/></linearGradient><linearGradient id="Áåçûìÿííûé_ãðàäèåíò_29-2" x1="203.14" y1="633.63" x2="121.84" y2="699.91" xlink:href="#Áåçûìÿííûé_ãðàäèåíò_29"/><linearGradient id="Áåçûìÿííûé_ãðàäèåíò_487-3" x1="477.87" y1="887.76" x2="455.83" y2="864.28" xlink:href="#Áåçûìÿííûé_ãðàäèåíò_487"/><linearGradient id="Áåçûìÿííûé_ãðàäèåíò_29-3" x1="491.85" y1="889.4" x2="515.82" y2="799.77" xlink:href="#Áåçûìÿííûé_ãðàäèåíò_29"/><linearGradient id="Áåçûìÿííûé_ãðàäèåíò_29-4" x1="566.31" y1="621.23" x2="463.72" y2="704.88" xlink:href="#Áåçûìÿííûé_ãðàäèåíò_29"/><linearGradient id="Áåçûìÿííûé_ãðàäèåíò_7-3" x1="324.33" y1="570.07" x2="325.69" y2="768.53" xlink:href="#Áåçûìÿííûé_ãðàäèåíò_7"/><linearGradient id="Áåçûìÿííûé_ãðàäèåíò_20" x1="266.44" y1="721.17" x2="298.27" y2="721.17" gradientUnits="userSpaceOnUse"><stop offset="0" stop-color="#5f6163"/><stop offset="1" stop-color="#444749"/></linearGradient><linearGradient id="Áåçûìÿííûé_ãðàäèåíò_20-2" x1="284" y1="720.27" x2="298.04" y2="720.27" xlink:href="#Áåçûìÿííûé_ãðàäèåíò_20"/><linearGradient id="Áåçûìÿííûé_ãðàäèåíò_6-2" x1="146.18" y1="536.86" x2="145.42" y2="545.55" gradientTransform="matrix(1, 0, 0.02, 1, -17.02, -2.59)" xlink:href="#Áåçûìÿííûé_ãðàäèåíò_6"/><linearGradient id="Áåçûìÿííûé_ãðàäèåíò_6-3" x1="502.23" y1="536.79" x2="500.86" y2="552.39" xlink:href="#Áåçûìÿííûé_ãðàäèåíò_6"/><linearGradient id="Áåçûìÿííûé_ãðàäèåíò_29-5" x1="-4162.66" y1="362.51" x2="-4123.08" y2="362.51" gradientTransform="translate(4339.41 877.26) rotate(14.41)" xlink:href="#Áåçûìÿííûé_ãðàäèåíò_29"/><linearGradient id="Áåçûìÿííûé_ãðàäèåíò_16" x1="-4055.92" y1="240.3" x2="-4055.92" y2="271.13" gradientTransform="translate(4383.36 -117.7) rotate(0.65)" gradientUnits="userSpaceOnUse"><stop offset="0" stop-color="#c6664f"/><stop offset="1" stop-color="#ff9e78"/></linearGradient><linearGradient id="Áåçûìÿííûé_ãðàäèåíò_29-6" x1="-3975.14" y1="393.85" x2="-3935.01" y2="393.85" gradientTransform="translate(4383.36 -117.7) rotate(0.65)" xlink:href="#Áåçûìÿííûé_ãðàäèåíò_29"/><linearGradient id="Áåçûìÿííûé_ãðàäèåíò_29-7" x1="-3962.49" y1="358.44" x2="-3942.42" y2="358.44" gradientTransform="translate(4383.36 -117.7) rotate(0.65)" xlink:href="#Áåçûìÿííûé_ãðàäèåíò_29"/><linearGradient id="Áåçûìÿííûé_ãðàäèåíò_57" x1="-4031.61" y1="354.44" x2="-4032.08" y2="430.69" gradientTransform="translate(4388.76 -156.94) rotate(2.66)" gradientUnits="userSpaceOnUse"><stop offset="0" stop-color="#75483b"/><stop offset="0.35" stop-color="#704538"/><stop offset="0.75" stop-color="#633c30"/><stop offset="1" stop-color="#563428"/></linearGradient><linearGradient id="Áåçûìÿííûé_ãðàäèåíò_16-2" x1="318.7" y1="123.73" x2="317.97" y2="134.83" gradientTransform="matrix(1, -0.05, 0.05, 1, -5.5, 125.45)" xlink:href="#Áåçûìÿííûé_ãðàäèåíò_16"/><linearGradient id="Áåçûìÿííûé_ãðàäèåíò_3" x1="319.81" y1="262.23" x2="319.81" y2="256.47" gradientUnits="userSpaceOnUse"><stop offset="0" stop-color="#7c302a"/><stop offset="0.21" stop-color="#772f29"/><stop offset="0.45" stop-color="#692b26"/><stop offset="0.7" stop-color="#532421"/><stop offset="0.96" stop-color="#331c1a"/><stop offset="1" stop-color="#2d1a19"/></linearGradient><linearGradient id="Áåçûìÿííûé_ãðàäèåíò_57-2" x1="339.19" y1="258.19" x2="339.92" y2="138.79" gradientTransform="matrix(1, 0.01, -0.02, 1.13, -10.39, 24.7)" xlink:href="#Áåçûìÿííûé_ãðàäèåíò_57"/><linearGradient id="Áåçûìÿííûé_ãðàäèåíò_24" x1="317.14" y1="100.69" x2="316.96" y2="113.19" gradientTransform="matrix(1, -0.05, 0.05, 1, -5.5, 125.45)" gradientUnits="userSpaceOnUse"><stop offset="0" stop-color="#4c2e25"/><stop offset="0.39" stop-color="#513127"/><stop offset="0.83" stop-color="#5e3a2e"/><stop offset="1" stop-color="#663f32"/></linearGradient><linearGradient id="Áåçûìÿííûé_ãðàäèåíò_29-8" x1="-4068.74" y1="376.39" x2="-4068.74" y2="362.68" gradientTransform="translate(4383.36 -117.7) rotate(0.65)" xlink:href="#Áåçûìÿííûé_ãðàäèåíò_29"/><linearGradient id="Áåçûìÿííûé_ãðàäèåíò_16-3" x1="-4019.51" y1="190.13" x2="-4020.71" y2="264.03" gradientTransform="translate(4385.19 -40.52) rotate(0.73)" xlink:href="#Áåçûìÿííûé_ãðàäèåíò_16"/><linearGradient id="Áåçûìÿííûé_ãðàäèåíò_16-4" x1="-4099.53" y1="185.16" x2="-4100.81" y2="263.47" gradientTransform="translate(4385.19 -40.52) rotate(0.73)" xlink:href="#Áåçûìÿííûé_ãðàäèåíò_16"/><linearGradient id="Áåçûìÿííûé_ãðàäèåíò_57-3" x1="-3686.22" y1="325.45" x2="-3686.91" y2="349.28" gradientTransform="matrix(1.02, 0.04, 0.12, 0.98, 4019.4, -40.57)" xlink:href="#Áåçûìÿííûé_ãðàäèåíò_57"/><linearGradient id="Áåçûìÿííûé_ãðàäèåíò_57-4" x1="-3609.9" y1="326.23" x2="-3610.61" y2="351.18" gradientTransform="matrix(1.02, 0.04, 0.12, 0.98, 4019.4, -40.57)" xlink:href="#Áåçûìÿííûé_ãðàäèåíò_57"/><linearGradient id="Áåçûìÿííûé_ãðàäèåíò_12" x1="368.66" y1="171.64" x2="372.19" y2="163.91" gradientUnits="userSpaceOnUse"><stop offset="0" stop-color="#704a3e"/><stop offset="1"/></linearGradient><linearGradient id="Áåçûìÿííûé_ãðàäèåíò_12-2" x1="280.66" y1="170.64" x2="284.19" y2="162.91" xlink:href="#Áåçûìÿííûé_ãðàäèåíò_12"/><linearGradient id="Áåçûìÿííûé_ãðàäèåíò_30" x1="320.53" y1="248.42" x2="320.53" y2="266.24" gradientUnits="userSpaceOnUse"><stop offset="0" stop-color="#ce4d4d"/><stop offset="1" stop-color="#6c2c27"/></linearGradient></defs><g id="Layer_2" data-name="Layer 2"><g id="Ñëîé_1" data-name="Ñëîé 1"><path class="cls-1" d="M634.54,1412.06s-142,27.42-317.27,27.42S0,1412.06,0,1412.06s142.05-27.43,317.27-27.43S634.54,1412.06,634.54,1412.06Z"/><path class="cls-2" d="M391.81,299a242.42,242.42,0,0,0-25.93-4.43l1.23-57.36c.47-17.48-18.26-31.49-42.26-31.11h0c-23,.38-42.87,15-43.34,32.46l-1.39,57.23A230.24,230.24,0,0,0,251.26,302l.71,67.73H392.61Z"/><path class="cls-3" d="M532.71,464.58c-9.23-76.21-25.16-83.78-49.51-111.18-21.53-24.22-68.58-50.73-92.43-55.17l-.24-.91c-6.63-19.9-24.21-19-24.21-19-7.51,55-42.59,82.68-42.59,82.68-36.59-11.93-43.16-75.88-43.16-75.88-13.76.11-22,10.57-24.77,14.77-.66,1-8.67,1.56-10.16,1.92-44.61,10.77-88.47,45.94-110.71,85.8a137.8,137.8,0,0,0-10.26,23.26c-4.44,13.26-10.73,49.68-10.73,49.68,1.89.44,44.71,14.14,66.73,18.36-4.62,67.46-9.32,154.26-5.82,189.25.68,6.73,9.81,14.72,10.93,16.89,11.23,21.66,276.49,18.67,277.07,1.43.1-3,9.1-10.72,9.53-16.6,2.7-36.56,5.11-119.06,3.32-193.81C498,471.81,521.85,465.15,532.71,464.58Z"/><path class="cls-4" d="M172.07,1347.93c-1,.53-80.88,44.11-81.77,57.83,0,.56-2.28,1-2.62,1.4l-.12,5.39c42.77,14.38,128.85-2.61,128.85-2.61s.2,3.44,1.06,3.52c17.05,1.74,46-2.19,48-3.8.4-.33,1-5,.83-9.1,0-.38-1.11-1.3-1.11-1.3.93-16.18.9-47.39,1-48.11C269.05,1337.1,178.63,1323.73,172.07,1347.93Z"/><path class="cls-4" d="M463.43,1347.93c1.05.53,80.88,44.11,81.77,57.83,0,.56,2.28,1,2.62,1.4l.12,5.39c-42.77,14.38-128.85-2.61-128.85-2.61s-.2,3.44-1.06,3.52c-17,1.74-46-2.19-48-3.8-.4-.33-1-5-.83-9.1,0-.38,1.11-1.3,1.11-1.3-.93-16.18-.9-47.39-1-48.11C366.45,1337.1,456.87,1323.73,463.43,1347.93Z"/><path class="cls-5" d="M272.48,1371.41C301,1056.06,316.76,805,319.14,734.71L175.59,718.8c-9.91,110.46-4.22,395.45-21,639,0,0,13.62-7.77,40.9-6.35,26,1.36,55.68,17.52,70.36,22Z"/><path class="cls-5" d="M364,1371.32C335.52,1056,324.93,805,322.55,734.71L466.1,718.8c9.91,110.46-1.87,395.51,14.9,639,0,0-13.95-6-40.82-6.41-15.17-.24-55.92,17.52-70.6,22Z"/><g class="cls-6"><path d="M328.06,777.79a28.46,28.46,0,0,1,1.17-9.35l-3.92.58s.12,3.5.33,10.09C326.45,778.67,327.25,778.22,328.06,777.79Z"/></g><path class="cls-5" d="M176.89,687.62c-4.22,80.14-5.39,117.74-5.39,117.74s83.48,6.87,174,6.12c58.83-.48,109,3.89,112.87-20,3.46-21.62,6-47.43,8.05-102.25a4,4,0,0,0-4.37-4.14c-14.73,1.51-64.71,5.87-143.2,4.89-86.29-1.08-124.57-6.66-135.48-7.6C181.72,682.2,177,686,176.89,687.62Z"/><path class="cls-7" d="M294.09,804.52l-1,6.36c23.9.81,54.84.17,54.84.17l-.13-6.54Z"/><path class="cls-7" d="M200.4,762.83c-8.89,8.18-22.55,17.84-28.53,21.63.16-4.36.32-8.24.32-8.24S192,763.16,197.63,759C198.56,760.26,199.48,761.55,200.4,762.83Z"/><path class="cls-8" d="M318.85,707.27c-75.31,0-122-3.35-142.54-5.26-2.51,0-4.09,27.13-1.24,28.39,21.91,2,68.61,5.24,143.78,5.24,65.77,0,121.07-3.81,148.14-5.81,2.37.21,1.5-27.87-1.08-27.87C440.71,703.89,386.88,707.27,318.85,707.27Z"/><polygon class="cls-5" points="252.24 745.4 235.11 744.51 238.37 697.12 255.5 698.01 252.24 745.4"/><polygon class="cls-5" points="394.46 745.4 377.33 744.51 380.59 697.12 397.73 698.01 394.46 745.4"/><path class="cls-7" d="M440.25,758.51c-1.05,2.52-.71,1.72-1.71,4.25,8.24,7.06,23,16.13,30.84,21,.06-3.35-.16-4.51-.21-7.53Z"/><path class="cls-9" d="M455.47,811.19s8,228.07,3.15,233-30.26,25.17-36.95,24.52c-10.83-1.06-62-24.32-64.76-31.83s-14.46-221.2-10.42-221.09S455.47,811.19,455.47,811.19Z"/><path class="cls-5" d="M354.54,1261.21c0,2.36.62,19.75.66,20.86.19,5.21-.86,11-.15,16,.77,5.39,4.63,10,4.23,15.66-.26,3.53-2.27,6.64-3.86,9.8s-2.82,6.91-1.46,10.17c1.14,2.73,3.89,4.57,4.87,7.36,1.29,3.68-.8,7.18-1.05,10.81-.28,4,.88,8.45,1.13,12.57.13,2-.49,15,1.62,16.2s7,3.6,9.24,3.13c17.13-3.65,43.51-25.36,65.12-30.44,24.57-5.79,46.11,4.5,46.11,4.5-2.19-.63.37-15.69,1-17.17,1-2.29,2.43-4.46,2.67-6.94.66-6.85-7.94-12.38-6.45-19.1.77-3.43,4.09-6.06,4.14-9.57,0-2.9-2.15-5.27-3.57-7.79-2.74-4.87-1.61-10-1.9-15.27l-.87-16.08c0-.81-.9-15.11-.81-15.12Z"/><path class="cls-5" d="M281.71,1260.73c.18,0-1,21.11-1,22.22-.2,5.21.06,10.11-.65,15.13-.76,5.39-2.75,8.74-2.34,14.38.25,3.53.38,7.92,2,11.08s2.82,6.91,1.45,10.17c-1.14,2.73-3.89,4.57-4.86,7.36-1.3,3.68.79,7.18,1,10.81.28,4-.87,8.45-1.13,12.57-.13,2,.49,15-1.61,16.2a23.68,23.68,0,0,1-8.67,2.55c-30.94,0-45.28-23.21-65.13-28.29-24.45-6.26-46.67,2.93-46.67,2.93,2.18-.63-.37-15.69-1-17.17-1-2.29-2.44-4.46-2.68-6.94-.66-6.85,7.94-12.38,6.45-19.1-.76-3.43-4.08-6.06-4.14-9.57,0-2.9,2.15-5.27,3.57-7.79,2.75-4.87,1.61-10,1.9-15.27s.58-10.72.87-16.08c0-.81,1.47-16.29,1.39-16.29Z"/><path class="cls-10" d="M215.24,1403.12c-22.83,2.8-48.71,6-70.35,6.35-32.86.55-49-2.59-54.55-4,0,.1,0,.21,0,.31,0,.56-2.28,1-2.62,1.4v.15c2.82.93,16.45,4.75,49.46,4.75,2.49,0,5.09,0,7.79-.07,21.78-.37,47.73-3.56,70.62-6.37,22.14-2.72,41.29-5.06,50.75-4.15,0-.31,0-.61,0-.91s-1.11-1.3-1.11-1.3l0-.41C255.07,1398.23,236.53,1400.51,215.24,1403.12Z"/><path class="cls-10" d="M420.24,1403.12c22.83,2.8,48.7,6,70.34,6.35,32.85.55,49-2.6,54.59-4,0,.1,0,.22,0,.32,0,.56,2.28,1,2.62,1.4v.14c-2.82.93-16.49,4.76-49.5,4.76-2.48,0-5.08,0-7.79-.07-21.77-.37-47.71-3.56-70.6-6.37-22.13-2.72-41.28-5.06-50.74-4.15l0-.91c0-.38,1.11-1.3,1.11-1.3s0-.28,0-.41C380.42,1398.23,399,1400.51,420.24,1403.12Z"/><path class="cls-11" d="M187.81,1391c-28.31-16.8-53.82-15.11-72-9.14-9,6.14-16.79,12.12-21.34,17,6.31,1.49,17.64,3.12,37.7,3.62C172.06,1403.47,194.74,1395.15,187.81,1391Z"/><path class="cls-12" d="M541.11,1399c-4.61-4.94-12.67-11.09-21.91-17.39-18.09-5.71-43.18-7-71,9.46-6.93,4.12,15.75,12.44,55.62,11.45C523.46,1402,534.71,1400.43,541.11,1399Z"/><path class="cls-13" d="M180.58,811.19s-9.78,230-5,234.92,42.23,24.59,48.93,23.94c10.83-1.06,52.17-30,54.9-37.48s17.73-218.36,13.68-218.26S180.58,811.19,180.58,811.19Z"/><path class="cls-14" d="M180.72,598.22c5.67-65.78,7.44-135.78,8.54-149.37.14-1.69-71.11-10.25-71.11-10.25C109.21,472.29,108,536.67,108,536.67s-3.62,21.15-7.57,51.24C125.84,591.27,154,593.86,180.72,598.22Z"/><path class="cls-14" d="M545.51,590.62c-3.59-34.81-6.38-57.48-6.38-57.48s-4.16-62.9-11-98.93c0,0-90.89,13-90.71,14.64,1.37,13,11.28,85.35,20.54,152.22C484.74,593.44,508,588.11,545.51,590.62Z"/><path class="cls-15" d="M250.84,301.08c-3.74,22.82,16.26,83.68,23.38,88.34,8.38,5.47,49.08-24.59,49.08-24.59s34.06,30.29,44.13,29c8.64-1.11,30.16-54.45,27.74-94.61-1.54-.4-3-.74-4.4-1,.41,26-18.29,80.25-24.49,83.7-5.88,3.28-29.33-16.43-38.83-24.3-2.3,2.21-3.72,3.33-3.72,3.33a35.19,35.19,0,0,1-4-1.56c-.08,0-1.4-.66-1.47-.69-9.58,6.26-29.8,20.24-38,19.75-9.19-.56-25.85-63.14-24.51-78.61C255,300,251.58,301,250.84,301.08Z"/><path class="cls-14" d="M102.62,531.43c-.83,1.23-7.8,73.16-4.87,75.64.4.34,6,1.26,6,1.26,18.68-3.2,62.68,4.18,74.3,8.58a2.65,2.65,0,0,0,3.3-.89c1.71-4.22,4.89-74.55,5-79.77S105.06,527.81,102.62,531.43Z"/><path class="cls-14" d="M542.86,533.14c.84,1.22,6.32,73.31,3.49,75.78-.39.34-5.82,1.26-5.82,1.26-18.42-3.17-61.47,4.21-72.79,8.59a2.63,2.63,0,0,1-3.26-.88c-1.77-4.2-6.36-74.28-6.63-79.48S540.38,529.54,542.86,533.14Z"/><path class="cls-16" d="M541.89,594.64c-2.47,3.32-71.36,7-73,6.46s-11.12-57.86-9.46-61.73c1.4-3.27,65.65-5.92,82.39-6.74a20.4,20.4,0,0,0-2.74-.45c-.12-1.76-.41-5.89-.86-11.59-20.11.09-75.46,2-77,1.55-1.93-.55-11.11-79.37-11.11-79.37h-6.68s4.77,207.37-1.73,213.35-111,17.67-116.36,18.36-116.64-19.2-120.38-24.72-4.52-207-4.52-207H195l-15.14,83.72-71.3-5.1c-.16,3.57-.27,6.38-.36,9.38h0c14.28,1,66.37,6,68.43,7.46,2.4,1.71,0,58.72-2.76,58.72s-65.39-6.44-69.9-6.35-5.14-17.66-5.2-20.77c-1.43,18.11-2.38,36-.94,37.26.4.33,6,1.25,6,1.25,16.89-2.9,54.49,2.86,70.12,7.24-.42,21.81-.2,40.33,1,52.54.68,6.74,10.15,16.94,11.28,19.11,0,0,72.36,4.28,139.18,4.23,68.81-.06,136.9-3.26,136.9-3.26.1-3,9.74-12.48,10.17-18.36.41-5.53.81-12.11,1.19-19.55-.3-10-.64-21.23-.62-33.92a70.21,70.21,0,0,1,9.11-1.39c17.77-3.72,44.85-7.15,58.47-4.8,0,0,5.43-.92,5.82-1.26,1.3-1.14.84-17.13-.13-34.13C545.48,582,543.44,592.55,541.89,594.64Z"/><path class="cls-17" d="M162.94,888.5s7.29-4.34,12.19-3.82,6,3.34,6,3.34a12.68,12.68,0,0,1,8.33,1.64c4.12,2.48,2.92,6.09,2.15,6.35s-5.5,2.92-5.5,2.92S163.62,890.27,162.94,888.5Z"/><path class="cls-18" d="M176.69,614.36c0,40.14-22.39,161.32-17.67,168.21s19.29,18.23,24.43,27.58S193.5,869,197,873.25s-8.88,11-16.59,4-12.86-26.64-12.86-26.64-7.94,6.54-8.41,9.58,5.84,28.28,7.48,29.69S189.68,895,192.41,901s0,11.09-1,11.41-29.9-3.22-29.9-3.22-25.72.33-28.29-.8-7.72-6.91-7.72-6.91-7.71-3.7-11.09-6-14.79-39.22-17.2-43.4-.49-196.41,7.62-246.94C105.14,603.48,176.69,608.09,176.69,614.36Z"/><path class="cls-19" d="M183.45,810.15c-5.14-9.35-19.71-20.68-24.43-27.58a4.71,4.71,0,0,1-.55-1.33c-3.72,17.76-11.61,67.23-11.61,67.23s-42.14,5-45,3.57a36.3,36.3,0,0,1-5.11-3.46,13.68,13.68,0,0,0,.49,3.53c2.41,4.18,13.82,41.15,17.2,43.4s11.09,6,11.09,6,5.15,5.78,7.72,6.91,28.29.8,28.29.8,28.93,3.54,29.9,3.22,3.69-5.47,1-11.41-24.15-9.73-25.79-11.13-8-26.65-7.48-29.69,8.41-9.58,8.41-9.58,5.15,19.63,12.86,26.64,20.1.24,16.59-4S188.59,819.5,183.45,810.15Z"/><path class="cls-20" d="M162.15,834.28c.15,2.65,1.6,12.75,2.5,18.87,1.59-1.48,2.9-2.57,2.9-2.57s.68,2.58,1.91,6.2c-.18-.55-2.43-18.44-3.09-23.74C165,833.44,163.55,833.85,162.15,834.28Z"/><path class="cls-20" d="M165,909.59c-1.69-.66-18.2-7.14-19.86-8.6s-11.49-22.43-13.77-27.27l-3.36.72c1.55,4.62,11.48,28.14,12.79,29.64.82.93,6.15,3.25,10.72,5.13,5.47,0,10,0,10,0Z"/><path class="cls-20" d="M120.8,899.09c2.55,1.32,4.74,2.37,4.74,2.37s.31.35.82.89h0c-.49-.51-7.27-18.77-9.78-25.73-1,.16-2.06.29-3.09.41C115,881.9,118.76,893.09,120.8,899.09Z"/><path class="cls-21" d="M158.38,778.77h0c-.59-20,18.31-127.62,18.31-164.5,0-6.26-71.55-10.83-71.82-9.14-3,18.77-5.06,55.85-6.46,94.92.19-1.85,7.48-74.78,11.68-79.76,1.79-2.13,49.33-1.16,49.86,8.32C160.2,633.23,156.41,777.77,158.38,778.77Z"/><path class="cls-22" d="M499.3,881c-.27,0-18.3-5.27-23.66-2.4s-14.41,20-12.66,22.73,8.14,3,8.41,3.14,25.51-5.36,25.51-5.36Z"/><path class="cls-18" d="M470.15,615.16c0,37.62,17.76,143.85,13.46,160.69S463.9,803.8,461.93,816s-5.51,66.82-8.89,74.71,13.2,11.74,19,4.34,12.07-34.59,15.29-38.29,9.65,7.88,9.65,7.88-2.81,28.16-3.78,28.44-27,5.44-32.78,11.31.47,13.85,1.87,14.08,28.64-1.41,33.93-3.05,13.73-5.28,13.73-5.28,9.74-2.23,12.21-4.35,26.53-37.91,27.7-48-10.68-68.91-10.68-72.19,4.37-175.84,1.79-179.36S470.15,612,470.15,615.16Z"/><path class="cls-23" d="M468.23,887.3c7.3.92,24.26,3,29.82,3.21l.37-2.84c-5.73-.85-22.23-3.26-28-3.73C469.7,885,469,886.12,468.23,887.3Z"/><path class="cls-24" d="M547.49,834.57c-.45,6.16,0,11.27-.83,12.62-1.48,2.38-35.75,3.51-40.95,1-4.63-2.25-24.84-48.43-27.18-60.4-6.23,10.68-15.13,19.15-16.6,28.21-2,12.18-5.51,66.82-8.89,74.71s13.2,11.74,19,4.34,12.07-34.59,15.29-38.29,9.65,7.88,9.65,7.88-2.81,28.16-3.78,28.44-27,5.44-32.78,11.31.47,13.85,1.87,14.08,28.64-1.41,33.93-3.05,13.73-5.28,13.73-5.28,9.74-2.23,12.21-4.34,26.53-37.92,27.7-48C550.25,854.32,549.14,845.21,547.49,834.57Z"/><path class="cls-20" d="M491.52,842.46c-.35.12-2.66,8.91-3.95,14,1.25-1.1,2.92-.17,4.5,1.39,1.31-5.38,3.13-14.32,2.95-14.6S492,842.3,491.52,842.46Z"/><path class="cls-20" d="M509.94,910.12s2.87-.66,5.89-1.6c4.92-8.88,17.91-35.53,17.71-36s-2.44-1.59-3.42-1.59-17.88,32.48-21.68,39.86Z"/><path class="cls-25" d="M534.05,615.28c4.2,5,6.6,84.81,6.89,85.6.88-44.48,1.41-92.76,0-94.66-2.59-3.52-70.71,5.82-70.71,8.94,0,35.84,15.83,134.75,13.83,157.66h0c2-.92,0-144.68.21-149.31C484.82,614,532.26,613.15,534.05,615.28Z"/><path class="cls-26" d="M328.18,691.26l-2.1-330.49h-1.14c-.77,1-1.21,1-1.21,1-.94-.31-1.94-1-2.76-1h-.14s3.06,268.78,1.14,330.72Z"/><path class="cls-27" d="M343.24,707.13s-52-.54-52,.46c0,0-.45,27,0,27.45s52.31.42,52.31.42,0,4.42-.88,5c-3.18,1.93-56.82,1.35-58.3,0s-.5-36.52.64-38.45,56-1.31,57.07-.51S343.24,707.13,343.24,707.13Z"/><path class="cls-28" d="M286.43,717s-.65,6.22-.24,6.63,13,0,13.31-.24.46-5.34.12-6.15C299.38,716.65,286.9,716.59,286.43,717Z"/><path class="cls-29" d="M176.55,538c-2.14-2.12-66.9-11.6-73.93-6.55-.27.2-.69,4.16-1.32,10a309.12,309.12,0,0,1,76.23,8.89S179.07,540.48,176.55,538Z"/><path class="cls-30" d="M544.27,546.49c-.64-7.7-1.19-13-1.41-13.35-.47-.67-3.75-1.09-8.78-1.29-21.35,1-73.08,5.08-75,7.51,0,0,1.08,12.77,1.09,13.35S529.71,548.47,544.27,546.49Z"/><ellipse class="cls-31" cx="236.78" cy="197.55" rx="19.12" ry="27.97" transform="translate(-40.18 61.96) rotate(-13.75)"/><path class="cls-32" d="M290.33,37.22s0-.17,0-.45C290.31,37.06,290.33,37.22,290.33,37.22Z"/><path class="cls-33" d="M399.46,86.15c-4.52-35-102.18-54.63-132.66-7.78-9.94,21.86-21.73,62.95-28.06,103.88,0-.44,0-.7,0-.7s-31.15,106.15,66,114.78C398.27,304.63,415,259,413,194.92h0C414.24,159,405.91,113.15,399.46,86.15Z"/><g class="cls-34"><ellipse class="cls-18" cx="366.03" cy="206.88" rx="39.67" ry="34.67" transform="translate(77.04 512.26) rotate(-76.05)"/><ellipse class="cls-35" cx="366.03" cy="206.86" rx="39.42" ry="34.45" transform="translate(77.05 512.25) rotate(-76.05)"/><ellipse class="cls-36" cx="366.03" cy="206.85" rx="39.16" ry="34.23" transform="translate(77.07 512.24) rotate(-76.05)"/><ellipse class="cls-37" cx="366.03" cy="206.83" rx="38.91" ry="34" transform="translate(77.09 512.23) rotate(-76.05)"/><ellipse class="cls-38" cx="366.03" cy="206.81" rx="38.66" ry="33.78" transform="translate(77.1 512.21) rotate(-76.05)"/><ellipse class="cls-39" cx="366.03" cy="206.8" rx="38.4" ry="33.56" transform="translate(77.12 512.2) rotate(-76.05)"/><ellipse class="cls-40" cx="366.03" cy="206.78" rx="38.15" ry="33.34" transform="translate(77.13 512.19) rotate(-76.05)"/><ellipse class="cls-41" cx="366.03" cy="206.76" rx="37.89" ry="33.12" transform="translate(77.15 512.18) rotate(-76.05)"/><ellipse class="cls-42" cx="366.03" cy="206.75" rx="37.64" ry="32.89" transform="translate(77.17 512.16) rotate(-76.05)"/><ellipse class="cls-43" cx="366.03" cy="206.73" rx="37.38" ry="32.67" transform="translate(77.18 512.15) rotate(-76.05)"/><ellipse class="cls-44" cx="366.03" cy="206.71" rx="37.13" ry="32.45" transform="translate(77.2 512.14) rotate(-76.05)"/><ellipse class="cls-45" cx="366.03" cy="206.7" rx="36.88" ry="32.23" transform="translate(77.21 512.13) rotate(-76.05)"/><ellipse class="cls-46" cx="366.03" cy="206.68" rx="36.62" ry="32" transform="translate(77.23 512.11) rotate(-76.05)"/><ellipse class="cls-47" cx="366.04" cy="206.66" rx="36.37" ry="31.78" transform="translate(77.25 512.1) rotate(-76.05)"/><ellipse class="cls-48" cx="366.04" cy="206.65" rx="36.11" ry="31.56" transform="translate(77.26 512.09) rotate(-76.05)"/><ellipse class="cls-49" cx="366.04" cy="206.63" rx="35.86" ry="31.34" transform="translate(77.28 512.08) rotate(-76.05)"/><ellipse class="cls-50" cx="366.04" cy="206.61" rx="35.6" ry="31.12" transform="translate(77.3 512.07) rotate(-76.05)"/><ellipse class="cls-51" cx="366.04" cy="206.6" rx="35.35" ry="30.89" transform="translate(77.31 512.05) rotate(-76.05)"/><ellipse class="cls-52" cx="366.04" cy="206.58" rx="35.1" ry="30.67" transform="translate(77.33 512.04) rotate(-76.05)"/><ellipse class="cls-53" cx="366.04" cy="206.56" rx="34.84" ry="30.45" transform="translate(77.34 512.03) rotate(-76.05)"/><ellipse class="cls-54" cx="366.04" cy="206.55" rx="34.59" ry="30.23" transform="translate(77.36 512.02) rotate(-76.05)"/><ellipse class="cls-55" cx="366.04" cy="206.53" rx="34.33" ry="30" transform="translate(77.38 512) rotate(-76.05)"/><ellipse class="cls-56" cx="366.04" cy="206.52" rx="34.08" ry="29.78" transform="translate(77.39 511.99) rotate(-76.05)"/><ellipse class="cls-57" cx="366.04" cy="206.5" rx="33.82" ry="29.56" transform="translate(77.41 511.98) rotate(-76.05)"/><ellipse class="cls-58" cx="366.04" cy="206.48" rx="33.57" ry="29.34" transform="translate(77.42 511.97) rotate(-76.05)"/><ellipse class="cls-59" cx="366.04" cy="206.47" rx="33.32" ry="29.12" transform="translate(77.44 511.95) rotate(-76.05)"/><ellipse class="cls-60" cx="366.04" cy="206.45" rx="33.06" ry="28.89" transform="translate(77.46 511.94) rotate(-76.05)"/><ellipse class="cls-61" cx="366.04" cy="206.43" rx="32.81" ry="28.67" transform="translate(77.47 511.93) rotate(-76.05)"/><ellipse class="cls-62" cx="366.04" cy="206.42" rx="32.55" ry="28.45" transform="translate(77.49 511.92) rotate(-76.05)"/><ellipse class="cls-63" cx="366.04" cy="206.4" rx="32.3" ry="28.23" transform="translate(77.5 511.91) rotate(-76.05)"/><ellipse class="cls-64" cx="366.04" cy="206.38" rx="32.04" ry="28" transform="translate(77.52 511.89) rotate(-76.05)"/><ellipse class="cls-65" cx="366.04" cy="206.37" rx="31.79" ry="27.78" transform="translate(77.54 511.88) rotate(-76.05)"/><ellipse class="cls-66" cx="366.04" cy="206.35" rx="31.53" ry="27.56" transform="translate(77.55 511.87) rotate(-76.05)"/><ellipse class="cls-67" cx="366.04" cy="206.33" rx="31.28" ry="27.34" transform="translate(77.57 511.85) rotate(-76.05)"/><ellipse class="cls-68" cx="366.04" cy="206.32" rx="31.03" ry="27.11" transform="translate(77.59 511.84) rotate(-76.05)"/><ellipse class="cls-69" cx="366.04" cy="206.3" rx="30.77" ry="26.89" transform="translate(77.6 511.83) rotate(-76.05)"/><ellipse class="cls-70" cx="366.04" cy="206.28" rx="30.52" ry="26.67" transform="translate(77.62 511.82) rotate(-76.05)"/><ellipse class="cls-71" cx="366.04" cy="206.27" rx="30.26" ry="26.45" transform="translate(77.63 511.81) rotate(-76.05)"/><ellipse class="cls-72" cx="366.04" cy="206.25" rx="30.01" ry="26.23" transform="translate(77.65 511.79) rotate(-76.05)"/><ellipse class="cls-73" cx="366.04" cy="206.24" rx="29.75" ry="26" transform="translate(77.66 511.78) rotate(-76.05)"/><ellipse class="cls-73" cx="366.04" cy="206.22" rx="29.5" ry="25.78" transform="translate(77.68 511.77) rotate(-76.05)"/><ellipse class="cls-74" cx="366.04" cy="206.2" rx="29.25" ry="25.56" transform="translate(77.7 511.76) rotate(-76.05)"/><ellipse class="cls-75" cx="366.04" cy="206.19" rx="28.99" ry="25.34" transform="translate(77.71 511.75) rotate(-76.05)"/><ellipse class="cls-76" cx="366.04" cy="206.17" rx="28.74" ry="25.11" transform="translate(77.73 511.73) rotate(-76.05)"/><ellipse class="cls-77" cx="366.04" cy="206.15" rx="28.48" ry="24.89" transform="translate(77.75 511.72) rotate(-76.05)"/><ellipse class="cls-78" cx="366.04" cy="206.14" rx="28.23" ry="24.67" transform="translate(77.76 511.71) rotate(-76.05)"/><ellipse class="cls-79" cx="366.04" cy="206.12" rx="27.97" ry="24.45" transform="translate(77.78 511.69) rotate(-76.05)"/><ellipse class="cls-80" cx="366.04" cy="206.1" rx="27.72" ry="24.23" transform="translate(77.79 511.68) rotate(-76.05)"/><ellipse class="cls-81" cx="366.04" cy="206.09" rx="27.47" ry="24" transform="translate(77.81 511.67) rotate(-76.05)"/><ellipse class="cls-82" cx="366.04" cy="206.07" rx="27.21" ry="23.78" transform="translate(77.83 511.66) rotate(-76.05)"/><ellipse class="cls-83" cx="366.04" cy="206.05" rx="26.96" ry="23.56" transform="translate(77.84 511.64) rotate(-76.05)"/><ellipse class="cls-84" cx="366.04" cy="206.04" rx="26.7" ry="23.34" transform="translate(77.86 511.64) rotate(-76.05)"/><ellipse class="cls-85" cx="366.04" cy="206.02" rx="26.45" ry="23.11" transform="translate(77.87 511.62) rotate(-76.05)"/><ellipse class="cls-86" cx="366.04" cy="206" rx="26.19" ry="22.89" transform="translate(77.89 511.61) rotate(-76.05)"/><ellipse class="cls-87" cx="366.04" cy="205.99" rx="25.94" ry="22.67" transform="translate(77.9 511.59) rotate(-76.05)"/><ellipse class="cls-88" cx="366.04" cy="205.97" rx="25.69" ry="22.45" transform="translate(77.92 511.58) rotate(-76.05)"/><ellipse class="cls-89" cx="366.04" cy="205.96" rx="25.43" ry="22.23" transform="translate(77.94 511.57) rotate(-76.05)"/><ellipse class="cls-90" cx="366.04" cy="205.94" rx="25.18" ry="22" transform="translate(77.96 511.56) rotate(-76.05)"/><ellipse class="cls-91" cx="366.04" cy="205.92" rx="24.92" ry="21.78" transform="translate(77.97 511.55) rotate(-76.05)"/><ellipse class="cls-92" cx="366.04" cy="205.91" rx="24.67" ry="21.56" transform="translate(77.99 511.54) rotate(-76.05)"/><ellipse class="cls-93" cx="366.04" cy="205.89" rx="24.41" ry="21.34" transform="translate(78 511.52) rotate(-76.05)"/><ellipse class="cls-94" cx="366.04" cy="205.87" rx="24.16" ry="21.11" transform="translate(78.02 511.51) rotate(-76.05)"/><ellipse class="cls-95" cx="366.04" cy="205.86" rx="23.91" ry="20.89" transform="translate(78.04 511.5) rotate(-76.05)"/><ellipse class="cls-96" cx="366.04" cy="205.84" rx="23.65" ry="20.67" transform="translate(78.05 511.49) rotate(-76.05)"/><ellipse class="cls-97" cx="366.04" cy="205.82" rx="23.4" ry="20.45" transform="translate(78.07 511.47) rotate(-76.05)"/><ellipse class="cls-98" cx="366.04" cy="205.81" rx="23.14" ry="20.23" transform="translate(78.09 511.46) rotate(-76.05)"/><ellipse class="cls-99" cx="366.04" cy="205.79" rx="22.89" ry="20" transform="translate(78.1 511.45) rotate(-76.05)"/><ellipse class="cls-100" cx="366.04" cy="205.77" rx="22.63" ry="19.78" transform="translate(78.12 511.44) rotate(-76.05)"/><ellipse class="cls-101" cx="366.04" cy="205.76" rx="22.38" ry="19.56" transform="translate(78.14 511.43) rotate(-76.05)"/><ellipse class="cls-102" cx="366.04" cy="205.74" rx="22.13" ry="19.34" transform="translate(78.15 511.41) rotate(-76.05)"/><ellipse class="cls-103" cx="366.04" cy="205.72" rx="21.87" ry="19.11" transform="translate(78.17 511.4) rotate(-76.05)"/><ellipse class="cls-104" cx="366.04" cy="205.71" rx="21.62" ry="18.89" transform="translate(78.18 511.39) rotate(-76.05)"/><ellipse class="cls-105" cx="366.05" cy="205.69" rx="21.36" ry="18.67" transform="translate(78.2 511.38) rotate(-76.05)"/><ellipse class="cls-106" cx="366.05" cy="205.68" rx="21.11" ry="18.45" transform="translate(78.21 511.36) rotate(-76.05)"/><ellipse class="cls-107" cx="366.05" cy="205.66" rx="20.85" ry="18.22" transform="translate(78.23 511.35) rotate(-76.05)"/><ellipse class="cls-108" cx="366.05" cy="205.64" rx="20.6" ry="18" transform="translate(78.24 511.33) rotate(-76.05)"/><ellipse class="cls-109" cx="366.05" cy="205.63" rx="20.35" ry="17.78" transform="translate(78.26 511.33) rotate(-76.05)"/><ellipse class="cls-110" cx="366.05" cy="205.61" rx="20.09" ry="17.56" transform="translate(78.28 511.31) rotate(-76.05)"/><path class="cls-111" d="M383.48,205.88c-.75,10.88-9.17,19.57-18.8,19.41s-16.82-9.11-16.07-20,9.17-19.57,18.8-19.4S384.24,195,383.48,205.88Z"/></g><ellipse class="cls-18" cx="424.74" cy="204.25" rx="27.97" ry="19.12" transform="translate(92.97 538.98) rotate(-70.94)"/><path class="cls-112" d="M434.06,213.06c-9.86,5.84-20.06,3.5-27.28-2.81a88.71,88.71,0,0,1-1.46,14.15h.18l-1.71,37c4.37-9.19,6.85-20,8.06-32.1a13.61,13.61,0,0,0,2.89,1.61c9.83,3.9,22.13-4.68,27.48-19.16a39.28,39.28,0,0,0,2.38-11.08A24.57,24.57,0,0,1,434.06,213.06Z"/><path class="cls-113" d="M417.09,204.05l9.05,1.61c.4-14.35,11.21-18.76,11.21-18.76C420.28,180.07,417.09,204.05,417.09,204.05Z"/><path class="cls-114" d="M356.71,229V229A.28.28,0,0,0,356.71,229Z"/><path class="cls-115" d="M421.91,51.1C416.23,40.38,408.48,38.3,399.75,40c4.46-2.76,3.23-7,3.23-7a9.6,9.6,0,0,0-8.27,2.44c6-6.16,2.6-15.31,2.6-15.31C383.41,25.7,386,32.77,386,32.77,380.89,21.11,364.12,17,364.12,17a17.74,17.74,0,0,0,.88,4.89C337.81,2.61,301.6,0,301.6,0a13.5,13.5,0,0,0-1.92,8.75,264.7,264.7,0,0,0-40.52.3c-5.83,26.93,1.25,43.24,9.28,52.66,2.9,3.45,7.1,9.21,19.26,15,0,0,12.84,7.9,33.45,9,18.44,1,45-7.8,45-7.8,18.42.17,42.17,58,43.13,104,.22,10.53,9.75-1.3,9.75-1.3a244.37,244.37,0,0,0,1.08-27.89C420.18,152.67,436.83,79.28,421.91,51.1Z"/><path class="cls-116" d="M260.69,48.68c-27.84,7.49-21.55,108.3-21.48,124.81a21.4,21.4,0,0,1-.31,3.34c-.07.61,2.16.52,2-.1a11.56,11.56,0,0,1,.19-3.24c4.79-30.38,31.52-96.3,46.82-96.59C288,76.9,273.39,67.8,260.69,48.68Z"/><path class="cls-117" d="M376.05,44.29c.05,0,.16,0,0,0Z"/><g class="cls-34"><ellipse class="cls-18" cx="275.85" cy="198.45" rx="33.68" ry="40.72" transform="translate(-23.29 37.23) rotate(-7.41)"/><ellipse class="cls-35" cx="275.85" cy="198.45" rx="33.46" ry="40.46" transform="translate(-23.29 37.23) rotate(-7.41)"/><ellipse class="cls-36" cx="275.85" cy="198.45" rx="33.25" ry="40.2" transform="translate(-23.29 37.24) rotate(-7.41)"/><ellipse class="cls-37" cx="275.85" cy="198.45" rx="33.03" ry="39.94" transform="translate(-23.29 37.24) rotate(-7.41)"/><ellipse class="cls-38" cx="275.85" cy="198.45" rx="32.82" ry="39.68" transform="translate(-23.29 37.23) rotate(-7.41)"/><ellipse class="cls-39" cx="275.85" cy="198.45" rx="32.6" ry="39.42" transform="matrix(0.99, -0.13, 0.13, 0.99, -23.29, 37.23)"/><ellipse class="cls-40" cx="275.85" cy="198.45" rx="32.38" ry="39.15" transform="translate(-23.29 37.24) rotate(-7.41)"/><ellipse class="cls-41" cx="275.85" cy="198.45" rx="32.17" ry="38.89" transform="translate(-23.29 37.24) rotate(-7.41)"/><ellipse class="cls-42" cx="275.85" cy="198.45" rx="31.95" ry="38.63" transform="translate(-23.29 37.24) rotate(-7.41)"/><ellipse class="cls-43" cx="275.85" cy="198.45" rx="31.74" ry="38.37" transform="translate(-23.29 37.23) rotate(-7.41)"/><ellipse class="cls-44" cx="275.85" cy="198.45" rx="31.52" ry="38.11" transform="matrix(0.99, -0.13, 0.13, 0.99, -23.29, 37.23)"/><ellipse class="cls-45" cx="275.85" cy="198.45" rx="31.31" ry="37.85" transform="translate(-23.29 37.24) rotate(-7.41)"/><ellipse class="cls-46" cx="275.85" cy="198.45" rx="31.09" ry="37.59" transform="translate(-23.29 37.24) rotate(-7.41)"/><ellipse class="cls-47" cx="275.85" cy="198.45" rx="30.87" ry="37.33" transform="translate(-23.29 37.23) rotate(-7.41)"/><ellipse class="cls-48" cx="275.85" cy="198.45" rx="30.66" ry="37.07" transform="translate(-23.29 37.24) rotate(-7.41)"/><ellipse class="cls-49" cx="275.85" cy="198.45" rx="30.44" ry="36.81" transform="translate(-23.29 37.23) rotate(-7.41)"/><ellipse class="cls-50" cx="275.85" cy="198.45" rx="30.23" ry="36.54" transform="translate(-23.29 37.23) rotate(-7.41)"/><ellipse class="cls-51" cx="275.85" cy="198.45" rx="30.01" ry="36.28" transform="matrix(0.99, -0.13, 0.13, 0.99, -23.29, 37.23)"/><ellipse class="cls-52" cx="275.85" cy="198.45" rx="29.79" ry="36.02" transform="matrix(0.99, -0.13, 0.13, 0.99, -23.29, 37.23)"/><ellipse class="cls-53" cx="275.85" cy="198.45" rx="29.58" ry="35.76" transform="translate(-23.29 37.23) rotate(-7.41)"/><ellipse class="cls-54" cx="275.85" cy="198.45" rx="29.36" ry="35.5" transform="translate(-23.29 37.23) rotate(-7.41)"/><ellipse class="cls-55" cx="275.85" cy="198.45" rx="29.15" ry="35.24" transform="translate(-23.29 37.23) rotate(-7.41)"/><ellipse class="cls-56" cx="275.85" cy="198.45" rx="28.93" ry="34.98" transform="translate(-23.29 37.24) rotate(-7.41)"/><ellipse class="cls-57" cx="275.85" cy="198.45" rx="28.71" ry="34.72" transform="translate(-23.29 37.23) rotate(-7.41)"/><ellipse class="cls-58" cx="275.85" cy="198.45" rx="28.5" ry="34.46" transform="translate(-23.29 37.23) rotate(-7.41)"/><ellipse class="cls-59" cx="275.85" cy="198.45" rx="28.28" ry="34.19" transform="translate(-23.29 37.23) rotate(-7.41)"/><ellipse class="cls-60" cx="275.85" cy="198.45" rx="28.07" ry="33.93" transform="translate(-23.29 37.24) rotate(-7.41)"/><ellipse class="cls-61" cx="275.85" cy="198.45" rx="27.85" ry="33.67" transform="matrix(0.99, -0.13, 0.13, 0.99, -23.29, 37.23)"/><ellipse class="cls-62" cx="275.85" cy="198.45" rx="27.63" ry="33.41" transform="translate(-23.29 37.23) rotate(-7.41)"/><ellipse class="cls-63" cx="275.85" cy="198.45" rx="27.42" ry="33.15" transform="translate(-23.29 37.23) rotate(-7.41)"/><ellipse class="cls-64" cx="275.85" cy="198.45" rx="27.2" ry="32.89" transform="translate(-23.29 37.23) rotate(-7.41)"/><ellipse class="cls-65" cx="275.85" cy="198.45" rx="26.99" ry="32.63" transform="translate(-23.29 37.23) rotate(-7.41)"/><ellipse class="cls-66" cx="275.85" cy="198.45" rx="26.77" ry="32.37" transform="translate(-23.29 37.23) rotate(-7.41)"/><ellipse class="cls-67" cx="275.85" cy="198.45" rx="26.56" ry="32.11" transform="translate(-23.29 37.23) rotate(-7.41)"/><ellipse class="cls-68" cx="275.85" cy="198.45" rx="26.34" ry="31.85" transform="translate(-23.29 37.23) rotate(-7.41)"/><ellipse class="cls-69" cx="275.85" cy="198.45" rx="26.12" ry="31.58" transform="translate(-23.29 37.23) rotate(-7.41)"/><ellipse class="cls-70" cx="275.85" cy="198.45" rx="25.91" ry="31.32" transform="translate(-23.29 37.24) rotate(-7.41)"/><ellipse class="cls-71" cx="275.85" cy="198.45" rx="25.69" ry="31.06" transform="translate(-23.29 37.23) rotate(-7.41)"/><ellipse class="cls-72" cx="275.85" cy="198.45" rx="25.48" ry="30.8" transform="translate(-23.29 37.24) rotate(-7.41)"/><ellipse class="cls-73" cx="275.85" cy="198.45" rx="25.26" ry="30.54" transform="translate(-23.29 37.24) rotate(-7.41)"/><ellipse class="cls-73" cx="275.85" cy="198.45" rx="25.04" ry="30.28" transform="matrix(0.99, -0.13, 0.13, 0.99, -23.29, 37.24)"/><ellipse class="cls-74" cx="275.85" cy="198.45" rx="24.83" ry="30.02" transform="matrix(0.99, -0.13, 0.13, 0.99, -23.29, 37.24)"/><ellipse class="cls-75" cx="275.85" cy="198.45" rx="24.61" ry="29.76" transform="translate(-23.29 37.24) rotate(-7.41)"/><ellipse class="cls-76" cx="275.85" cy="198.45" rx="24.4" ry="29.5" transform="translate(-23.29 37.23) rotate(-7.41)"/><ellipse class="cls-77" cx="275.85" cy="198.45" rx="24.18" ry="29.24" transform="translate(-23.29 37.23) rotate(-7.41)"/><ellipse class="cls-78" cx="275.85" cy="198.45" rx="23.96" ry="28.97" transform="translate(-23.29 37.24) rotate(-7.41)"/><ellipse class="cls-79" cx="275.85" cy="198.45" rx="23.75" ry="28.71" transform="translate(-23.29 37.24) rotate(-7.41)"/><ellipse class="cls-80" cx="275.85" cy="198.45" rx="23.53" ry="28.45" transform="matrix(0.99, -0.13, 0.13, 0.99, -23.29, 37.23)"/><ellipse class="cls-81" cx="275.85" cy="198.45" rx="23.32" ry="28.19" transform="translate(-23.29 37.23) rotate(-7.41)"/><ellipse class="cls-82" cx="275.85" cy="198.45" rx="23.1" ry="27.93" transform="translate(-23.29 37.23) rotate(-7.41)"/><ellipse class="cls-83" cx="275.85" cy="198.45" rx="22.89" ry="27.67" transform="translate(-23.29 37.24) rotate(-7.41)"/><ellipse class="cls-84" cx="275.85" cy="198.45" rx="22.67" ry="27.41" transform="translate(-23.29 37.23) rotate(-7.41)"/><ellipse class="cls-85" cx="275.85" cy="198.45" rx="22.45" ry="27.15" transform="translate(-23.29 37.23) rotate(-7.41)"/><ellipse class="cls-86" cx="275.85" cy="198.45" rx="22.24" ry="26.89" transform="translate(-23.29 37.23) rotate(-7.41)"/><ellipse class="cls-87" cx="275.85" cy="198.45" rx="22.02" ry="26.63" transform="translate(-23.29 37.24) rotate(-7.41)"/><ellipse class="cls-88" cx="275.85" cy="198.45" rx="21.81" ry="26.36" transform="translate(-23.29 37.24) rotate(-7.41)"/><ellipse class="cls-89" cx="275.85" cy="198.45" rx="21.59" ry="26.1" transform="matrix(0.99, -0.13, 0.13, 0.99, -23.29, 37.23)"/><ellipse class="cls-90" cx="275.85" cy="198.45" rx="21.37" ry="25.84" transform="translate(-23.29 37.23) rotate(-7.41)"/><ellipse class="cls-91" cx="275.85" cy="198.45" rx="21.16" ry="25.58" transform="matrix(0.99, -0.13, 0.13, 0.99, -23.29, 37.24)"/><ellipse class="cls-92" cx="275.85" cy="198.45" rx="20.94" ry="25.32" transform="translate(-23.29 37.23) rotate(-7.41)"/><ellipse class="cls-93" cx="275.85" cy="198.45" rx="20.73" ry="25.06" transform="translate(-23.29 37.23) rotate(-7.41)"/><ellipse class="cls-94" cx="275.85" cy="198.45" rx="20.51" ry="24.8" transform="translate(-23.29 37.23) rotate(-7.41)"/><ellipse class="cls-95" cx="275.85" cy="198.45" rx="20.29" ry="24.54" transform="translate(-23.29 37.23) rotate(-7.41)"/><ellipse class="cls-96" cx="275.85" cy="198.45" rx="20.08" ry="24.28" transform="translate(-23.29 37.24) rotate(-7.41)"/><ellipse class="cls-97" cx="275.85" cy="198.45" rx="19.86" ry="24.01" transform="translate(-23.29 37.23) rotate(-7.41)"/><ellipse class="cls-98" cx="275.85" cy="198.45" rx="19.65" ry="23.75" transform="translate(-23.29 37.23) rotate(-7.41)"/><ellipse class="cls-99" cx="275.85" cy="198.45" rx="19.43" ry="23.49" transform="matrix(0.99, -0.13, 0.13, 0.99, -23.29, 37.23)"/><ellipse class="cls-100" cx="275.85" cy="198.45" rx="19.21" ry="23.23" transform="translate(-23.29 37.23) rotate(-7.41)"/><ellipse class="cls-101" cx="275.85" cy="198.45" rx="19" ry="22.97" transform="translate(-23.29 37.23) rotate(-7.41)"/><ellipse class="cls-102" cx="275.85" cy="198.45" rx="18.78" ry="22.71" transform="translate(-23.29 37.23) rotate(-7.41)"/><ellipse class="cls-103" cx="275.85" cy="198.45" rx="18.57" ry="22.45" transform="translate(-23.29 37.23) rotate(-7.41)"/><ellipse class="cls-104" cx="275.85" cy="198.45" rx="18.35" ry="22.19" transform="translate(-23.29 37.24) rotate(-7.41)"/><ellipse class="cls-105" cx="275.85" cy="198.45" rx="18.14" ry="21.93" transform="translate(-23.29 37.24) rotate(-7.41)"/><ellipse class="cls-106" cx="275.85" cy="198.45" rx="17.92" ry="21.67" transform="translate(-23.29 37.24) rotate(-7.41)"/><path class="cls-107" d="M293.61,198.66c.38,11.79-7.26,21.25-17.07,21.13S258.48,210,258.1,198.23s7.26-21.25,17.07-21.13S293.23,186.87,293.61,198.66Z"/><ellipse class="cls-108" cx="275.85" cy="198.45" rx="17.49" ry="21.14" transform="translate(-23.29 37.24) rotate(-7.41)"/><ellipse class="cls-109" cx="275.85" cy="198.45" rx="17.27" ry="20.88" transform="translate(-23.29 37.24) rotate(-7.41)"/><ellipse class="cls-110" cx="275.85" cy="198.45" rx="17.06" ry="20.62" transform="translate(-23.29 37.23) rotate(-7.41)"/><path class="cls-111" d="M292.75,198.65c.36,11.22-6.91,20.21-16.24,20.1s-17.19-9.29-17.55-20.51,6.91-20.21,16.24-20.1S292.38,187.44,292.75,198.65Z"/></g><path class="cls-117" d="M376.15,42.77Z"/><path class="cls-118" d="M281.32,240.56s-.05,6.06,4.58,8.64c4.21,2.34,21.33-4.59,32.4-4.41,10.72.17,29.37,5.92,32.71,4.47,2.83-1.22,4.53-8.73,4.53-8.73s-17.25-10.67-36.35-11.59C300.94,228.07,281.32,240.56,281.32,240.56Z"/><path class="cls-119" d="M287.8,257.24c1.72,5.34,15.89,14.31,32,13.66,15.76-.64,28.79-6,32.17-14.55,1.3-3.31-10.53-24.53-31.38-24.93C294.89,230.91,286.91,254.48,287.8,257.24Z"/><path class="cls-120" d="M293.37,256.65c1.24.71,7.83,5.81,25.76,5.81,13.25,0,26-2.79,27.39-6.25,1.16-3-10.88-16.67-27.28-17S290.8,255.2,293.37,256.65Z"/><path class="cls-121" d="M419.06,180.68l-9.79-.2c-1.9,18.77-8.58,33-16.26,41-11.35,11.75-27.95,15.81-27.95,15.81-8-17.95-31.51-29-50.83-28.15-16.6.73-33.75,14.61-41.78,29.14,0,0-20.83-4.87-27.56-29.65-2.82-10.4-3.55-29.33-3.85-34.54l-1.83-.07c-12.52,49.41-13.09,135.94,83.71,133.12,93.73-2.74,91.26-76.87,91.26-76.87C409.3,212.66,419.06,180.68,419.06,180.68Zm-59.33,88.13c-3.35,7-18.22,8.42-40.05,8.78-21.51.36-37.2-3.1-40.12-9.69-5-11.18,16.15-34,38.75-33.54C346,234.91,364.71,258.47,359.73,268.81Z"/><path class="cls-122" d="M420.16,48.19a18.93,18.93,0,0,0-8.94-7.58c-3,.46-6.09,1.07-9.28,1.69-9.48,1.84-19.44,3-29.05,1.34-11.17-1.87-20.85-7.2-30.65-12.56-4.95-2.71-9.88-5.45-15-7.84C316.31,18.12,303.38,13,291.13,13c-6.07,0-12.06,1.65-17.71,3.76a37.85,37.85,0,0,0-12.81,8A39.07,39.07,0,0,1,257,27.34a63.49,63.49,0,0,0,1.09,12.27c.59-.33,1.12-.63,1.3-.76a37.62,37.62,0,0,1,7.63-4,33.19,33.19,0,0,1,10.11-2.22c14.59-.64,27.92,5.64,40.89,11.5,5.31,2.4,10.69,5.16,16.41,7.75a181.12,181.12,0,0,0,17.86,7.31c10.5,3.58,23.42,5,34.31,2.34,1.47-.36,2.93-.65,4.34-1a97.66,97.66,0,0,0,14.84-5.72c4.28-2,7.95-3.89,11.17-5.27C418.09,49,419.15,48.55,420.16,48.19Z"/><path class="cls-117" d="M375.82,44.29h0Z"/><path class="cls-114" d="M358.09,230.43a.73.73,0,0,1,0,.08A.33.33,0,0,0,358.09,230.43Z"/><path class="cls-123" d="M387.54,66.05c-11,8.18-23.09,12.9-36.33,16a2.72,2.72,0,0,0-.43.15c8.85-2.06,15.4-4.22,15.4-4.22a12.62,12.62,0,0,1,6.88,2.49,86.54,86.54,0,0,0,17-10.26C392.5,68.29,390.05,64.18,387.54,66.05Z"/><path class="cls-124" d="M293.68,216.11c3.68,4,10.31,7.57,22.32,7.62,12.71.05,19.14-5.08,22.39-10.16a60.75,60.75,0,0,0-18.75-4.39c-1.38.13-2.61.22-3.64.25a31.46,31.46,0,0,1-3.88-.15A44.47,44.47,0,0,0,293.68,216.11Z"/><path class="cls-123" d="M326.41,284.16a25,25,0,0,0-14.62.63c-5,2-6.29,7.48.16,9.2,5.18,1.38,22.24,1.59,19.76-6.19C331.05,285.72,328.65,284.71,326.41,284.16Z"/><path class="cls-18" d="M310.4,184s-16.47-3.26-20.59,11.07c-5.24,18.2,31,29.4,41.18,10.44s-15.51-54.79-15.51-54.79S321.52,169.22,310.4,184Z"/><path class="cls-125" d="M289.4,200.15c2,15,32.4,22.47,41.59,5.35a18.85,18.85,0,0,0,1.35-3.28A90.51,90.51,0,0,1,289.4,200.15Z"/><path class="cls-126" d="M321,169.89l-4.09-.19s-2.3,13.16-6.3,15h0c-.64-.07-1.28-.13-1.94-.16-7.14-.33-13,1.91-13.18,5s5.53,5.68,12.67,6c6.68.31,12.56-.81,13.39-4.42C321.59,191.09,324.94,177.35,321,169.89Z"/><path class="cls-127" d="M280,189.08c-3.93,0-7.68-.91-11.57-1.1-2.11-.1-2.74,3-1,3.91,3.92,2.17,8.9,2.05,13.19,1.4C283.12,192.92,282.38,189.07,280,189.08Z"/><path class="cls-127" d="M374.72,190.22a86.24,86.24,0,0,1-11.8.94c-2.44,0-3,4-.52,4.37a27.44,27.44,0,0,0,13-1C377.56,193.76,377.37,189.91,374.72,190.22Z"/><path class="cls-128" d="M337,125.39s-10.88,30.83,7.1,52.57l45.12-2.3c2.25-7.38-.28-15.91-3.15-27.52C383.77,138.65,337,125.39,337,125.39Z"/><path class="cls-129" d="M261.81,144.63c-4.17,8.8-6.87,28.33-6.87,28.33l41.72,6.41c19.83-21,9-56.67,9-56.67S265.71,136.39,261.81,144.63Z"/><path class="cls-130" d="M368.65,161.49C349.79,159.65,344.14,178,344.14,178s2.73,10.38,23.36,9.37c22.08-1.07,21.76-11.67,21.76-11.67S387.51,163.33,368.65,161.49Z"/><path class="cls-130" d="M254.94,173s-.36,9.48,18.27,11.8c20.83,2.59,23.45-5.39,23.45-5.39a20.76,20.76,0,0,0-10.06-16.69C278.42,157.77,263.63,157.19,254.94,173Z"/><path class="cls-131" d="M279.79,154.59c-16.27-1.33-25.75,11-24.85,18.37,0,0,8-12.65,22.62-11.6,17.25,1.24,19.1,18,19.1,18C300.12,172.71,298.82,156.14,279.79,154.59Z"/><path class="cls-132" d="M260.27,148.58c16.35-15.18,38.86-6.23,45.36-15.15,3.19-4.38-.26-11.29-.26-11.29C264.8,119.42,260.27,148.58,260.27,148.58Z"/><path class="cls-133" d="M337.34,121.06s-2.29,9.33.73,12.76c9.4,10.68,32.39,2.5,48.86,17.61C386.93,151.43,381.24,116.88,337.34,121.06Z"/><path class="cls-131" d="M366.05,154.6c-20.42.61-24.64,18.26-21.91,23.36,0,0,6.88-15.71,23.78-15.78,18.38-.07,21.34,13.48,21.34,13.48C391.24,168.74,385.74,154,366.05,154.6Z"/><path class="cls-134" d="M375.7,175c-.95,5.37-5.57,9.73-10.32,9.73s-7.81-4.36-6.85-9.74,5.57-9.73,10.32-9.73S376.66,169.65,375.7,175Z"/><path class="cls-135" d="M370.63,174.78a4.64,4.64,0,0,1-4.05,4.46c-2.1.11-3.7-1.7-3.58-4.05a4.63,4.63,0,0,1,4.05-4.46C369.15,170.62,370.75,172.43,370.63,174.78Z"/><path class="cls-136" d="M363.59,172.73c-1.89.91-3.22,2.72-3,4s2,1.64,3.88.73,3.22-2.72,3-4S365.48,171.81,363.59,172.73Z"/><path class="cls-137" d="M287.7,174c-.95,5.37-5.57,9.73-10.32,9.73s-7.81-4.36-6.85-9.74,5.57-9.73,10.32-9.73S288.66,168.65,287.7,174Z"/><path class="cls-135" d="M282.63,173.78a4.64,4.64,0,0,1-4.05,4.46c-2.1.11-3.7-1.7-3.58-4.05a4.63,4.63,0,0,1,4.05-4.46C281.15,169.62,282.75,171.43,282.63,173.78Z"/><path class="cls-136" d="M275.59,171.73c-1.89.91-3.22,2.72-3,4s2,1.64,3.88.73,3.22-2.72,3-4S277.48,170.81,275.59,171.73Z"/><path class="cls-138" d="M301.24,259.34c0,.34,5.56,2.27,18.44,2.31s20.14-1.92,20.14-2.49S336.48,256,319.68,256,301.24,258.91,301.24,259.34Z"/></g></g></svg>