<svg xmlns="http://www.w3.org/2000/svg" xmlns:xlink="http://www.w3.org/1999/xlink" viewBox="0 0 706.68 1448.84"><defs><style>.cls-1{fill:url(#Áåçûìÿííûé_ãðàäèåíò_487);}.cls-2{fill:url(#Áåçûìÿííûé_ãðàäèåíò_487-2);}.cls-3{fill:#ff9e78;}.cls-4{fill:url(#Áåçûìÿííûé_ãðàäèåíò_11);}.cls-5{fill:#2c2c2d;}.cls-6{fill:#333844;}.cls-7{fill:#292d35;}.cls-8{fill:url(#Áåçûìÿííûé_ãðàäèåíò_6);}.cls-9{fill:#1c1d1e;}.cls-10{fill:url(#Áåçûìÿííûé_ãðàäèåíò_501);}.cls-11{fill:#3d3d3d;}.cls-12{fill:url(#Áåçûìÿííûé_ãðàäèåíò_486);}.cls-13{fill:url(#Áåçûìÿííûé_ãðàäèåíò_486-2);}.cls-14{fill:url(#Áåçûìÿííûé_ãðàäèåíò_501-2);}.cls-15{fill:url(#Áåçûìÿííûé_ãðàäèåíò_20);}.cls-16{fill:url(#Áåçûìÿííûé_ãðàäèåíò_20-2);}.cls-17{fill:url(#Áåçûìÿííûé_ãðàäèåíò_7);}.cls-18{fill:url(#Áåçûìÿííûé_ãðàäèåíò_7-2);}.cls-19{fill:url(#Áåçûìÿííûé_ãðàäèåíò_29);}.cls-20{fill:url(#Áåçûìÿííûé_ãðàäèåíò_29-2);}.cls-21{fill:#cadbef;}.cls-22{fill:url(#Áåçûìÿííûé_ãðàäèåíò_7-3);}.cls-23{fill:url(#Áåçûìÿííûé_ãðàäèåíò_6-2);}.cls-24{fill:url(#Áåçûìÿííûé_ãðàäèåíò_41);}.cls-25{fill:url(#Áåçûìÿííûé_ãðàäèåíò_41-2);}.cls-26{fill:url(#Áåçûìÿííûé_ãðàäèåíò_41-3);}.cls-27{fill:url(#Áåçûìÿííûé_ãðàäèåíò_440);}.cls-28{fill:url(#Áåçûìÿííûé_ãðàäèåíò_29-3);}.cls-29{fill:url(#Áåçûìÿííûé_ãðàäèåíò_29-4);}.cls-30{fill:#59352c;}.cls-31{fill:#3e1208;}.cls-32{fill:url(#Áåçûìÿííûé_ãðàäèåíò_16);}.cls-33{fill:url(#Áåçûìÿííûé_ãðàäèåíò_57);}.cls-34{opacity:0.44;}.cls-35{fill:#ff9d77;}.cls-36{fill:#ff9c77;}.cls-37{fill:#ff9b76;}.cls-38{fill:#ff9a76;}.cls-39{fill:#ff9975;}.cls-40{fill:#ff9875;}.cls-41{fill:#ff9774;}.cls-42{fill:#ff9674;}.cls-43{fill:#ff9573;}.cls-44{fill:#ff9472;}.cls-45{fill:#ff9372;}.cls-46{fill:#ff9271;}.cls-47{fill:#ff9171;}.cls-48{fill:#ff9070;}.cls-49{fill:#ff8f70;}.cls-50{fill:#ff8e6f;}.cls-51{fill:#ff8d6f;}.cls-52{fill:#ff8c6e;}.cls-53{fill:#ff8b6e;}.cls-54{fill:#ff8a6d;}.cls-55{fill:#ff896c;}.cls-56{fill:#ff886c;}.cls-57{fill:#ff876b;}.cls-58{fill:#ff866b;}.cls-59{fill:#ff856a;}.cls-60{fill:#ff846a;}.cls-61{fill:#ff8369;}.cls-62{fill:#ff8269;}.cls-63{fill:#ff8168;}.cls-64{fill:#ff8067;}.cls-65{fill:#ff7f67;}.cls-66{fill:#ff7e66;}.cls-67{fill:#ff7d66;}.cls-68{fill:#ff7c65;}.cls-69{fill:#ff7b65;}.cls-70{fill:#ff7a64;}.cls-71{fill:#ff7964;}.cls-72{fill:#ff7863;}.cls-73{fill:#ff7762;}.cls-74{fill:#ff7661;}.cls-75{fill:#ff7561;}.cls-76{fill:#ff7460;}.cls-77{fill:#ff7360;}.cls-78{fill:#ff725f;}.cls-79{fill:#ff715f;}.cls-80{fill:#ff705e;}.cls-81{fill:#ff6f5e;}.cls-82{fill:#ff6e5d;}.cls-83{fill:#ff6d5c;}.cls-84{fill:#ff6c5c;}.cls-85{fill:#ff6b5b;}.cls-86{fill:#ff6a5b;}.cls-87{fill:#ff695a;}.cls-88{fill:#ff685a;}.cls-89{fill:#ff6759;}.cls-90{fill:#ff6659;}.cls-91{fill:#ff6558;}.cls-92{fill:#ff6457;}.cls-93{fill:#ff6357;}.cls-94{fill:#ff6256;}.cls-95{fill:#ff6156;}.cls-96{fill:#ff6055;}.cls-97{fill:#ff5f55;}.cls-98{fill:#ff5e54;}.cls-99{fill:#ff5d54;}.cls-100{fill:#ff5c53;}.cls-101{fill:#ff5b53;}.cls-102{fill:#ff5a52;}.cls-103{fill:#ff5951;}.cls-104{fill:#ff5851;}.cls-105{fill:#ff5750;}.cls-106{fill:#ff5650;}.cls-107{fill:#ff554f;}.cls-108{fill:#ff544f;}.cls-109{fill:#ff534e;}.cls-110{fill:#ff524e;}.cls-111{fill:#ff514d;}.cls-112{fill:url(#Áåçûìÿííûé_ãðàäèåíò_29-5);}.cls-113{fill:url(#Áåçûìÿííûé_ãðàäèåíò_29-6);}.cls-114{fill:#7c302a;}.cls-115{fill:#ffbc80;}.cls-115,.cls-131{opacity:0.11;}.cls-116{fill:url(#Áåçûìÿííûé_ãðàäèåíò_16-2);}.cls-117{fill:url(#Áåçûìÿííûé_ãðàäèåíò_16-3);}.cls-118,.cls-128,.cls-130{fill:#fff;}.cls-119{fill:#fb755c;}.cls-120{fill:url(#Áåçûìÿííûé_ãðàäèåíò_12);}.cls-121{fill:url(#Áåçûìÿííûé_ãðàäèåíò_12-2);}.cls-122{fill:#603f37;}.cls-123{fill:url(#Áåçûìÿííûé_ãðàäèåíò_57-2);}.cls-124{fill:url(#Áåçûìÿííûé_ãðàäèåíò_57-3);}.cls-125{fill:url(#Áåçûìÿííûé_ãðàäèåíò_57-4);}.cls-126{fill:#1e1d1d;}.cls-127{fill:url(#Áåçûìÿííûé_ãðàäèåíò_24);}.cls-128{opacity:0.82;}.cls-129{fill:url(#Áåçûìÿííûé_ãðàäèåíò_29-7);}.cls-130{opacity:0.2;}.cls-132{opacity:0.08;}</style><linearGradient id="Áåçûìÿííûé_ãðàäèåíò_487" x1="130.99" y1="576.17" x2="90.65" y2="569.32" gradientTransform="matrix(1.01, 0, -0.01, 0.99, 30.02, 5.18)" gradientUnits="userSpaceOnUse"><stop offset="0" stop-color="#db7d67"/><stop offset="1" stop-color="#ff9e78"/></linearGradient><linearGradient id="Áåçûìÿííûé_ãðàäèåíò_487-2" x1="439.05" y1="299.47" x2="439.05" y2="325.65" gradientTransform="matrix(1, 0, 0.02, 1, -43.03, 0)" xlink:href="#Áåçûìÿííûé_ãðàäèåíò_487"/><linearGradient id="Áåçûìÿííûé_ãðàäèåíò_11" x1="389.41" y1="1459.82" x2="389.41" y2="1377.75" gradientUnits="userSpaceOnUse"><stop offset="0" stop-color="#fff"/><stop offset="1" stop-color="#a5b7c6"/></linearGradient><linearGradient id="Áåçûìÿííûé_ãðàäèåíò_6" x1="413.43" y1="319.23" x2="413.43" y2="476.29" gradientUnits="userSpaceOnUse"><stop offset="0" stop-color="#deefff"/><stop offset="1" stop-color="#cadbef"/></linearGradient><linearGradient id="Áåçûìÿííûé_ãðàäèåíò_501" x1="-2437.34" y1="1006.55" x2="-2422.1" y2="832.34" gradientTransform="matrix(-1, 0, 0, 1, -1948.78, 0)" gradientUnits="userSpaceOnUse"><stop offset="0" stop-color="#3d434f"/><stop offset="1" stop-color="#333844"/></linearGradient><linearGradient id="Áåçûìÿííûé_ãðàäèåíò_486" x1="213.41" y1="1378.43" x2="213.91" y2="1405.52" gradientUnits="userSpaceOnUse"><stop offset="0" stop-color="#5b5b60"/><stop offset="1" stop-color="#2c2c2d"/></linearGradient><linearGradient id="Áåçûìÿííûé_ãðàäèåíò_486-2" x1="565.7" y1="1378.4" x2="566.2" y2="1405.61" xlink:href="#Áåçûìÿííûé_ãðàäèåíò_486"/><linearGradient id="Áåçûìÿííûé_ãðàäèåíò_501-2" x1="292.59" y1="1008.34" x2="307.97" y2="832.46" gradientTransform="matrix(1, 0, 0, 1, 0, 0)" xlink:href="#Áåçûìÿííûé_ãðàäèåíò_501"/><linearGradient id="Áåçûìÿííûé_ãðàäèåíò_20" x1="321.44" y1="730.53" x2="349.82" y2="730.53" gradientUnits="userSpaceOnUse"><stop offset="0" stop-color="#5f6163"/><stop offset="1" stop-color="#444749"/></linearGradient><linearGradient id="Áåçûìÿííûé_ãðàäèåíò_20-2" x1="337.1" y1="729.63" x2="349.61" y2="729.63" xlink:href="#Áåçûìÿííûé_ãðàäèåíò_20"/><linearGradient id="Áåçûìÿííûé_ãðàäèåíò_7" x1="398.03" y1="334.47" x2="398.03" y2="353.3" gradientUnits="userSpaceOnUse"><stop offset="0" stop-color="#b3cbe2"/><stop offset="1" stop-color="#cadbef"/></linearGradient><linearGradient id="Áåçûìÿííûé_ãðàäèåíò_7-2" x1="372.2" y1="544.78" x2="372.2" y2="695.39" xlink:href="#Áåçûìÿííûé_ãðàäèåíò_7"/><linearGradient id="Áåçûìÿííûé_ãðàäèåíò_29" x1="615.72" y1="617.58" x2="659.72" y2="585.79" gradientUnits="userSpaceOnUse"><stop offset="0" stop-color="#f28c70"/><stop offset="1" stop-color="#ff9e78"/></linearGradient><linearGradient id="Áåçûìÿííûé_ãðàäèåíò_29-2" x1="559.12" y1="660.4" x2="559.13" y2="660.4" xlink:href="#Áåçûìÿííûé_ãðàäèåíò_29"/><linearGradient id="Áåçûìÿííûé_ãðàäèåíò_7-3" x1="460.05" y1="418.85" x2="460.05" y2="719.09" xlink:href="#Áåçûìÿííûé_ãðàäèåíò_7"/><linearGradient id="Áåçûìÿííûé_ãðàäèåíò_6-2" x1="628.92" y1="507.23" x2="624.71" y2="546.3" xlink:href="#Áåçûìÿííûé_ãðàäèåíò_6"/><linearGradient id="Áåçûìÿííûé_ãðàäèåíò_41" x1="235.14" y1="955.47" x2="255.12" y2="896.61" gradientUnits="userSpaceOnUse"><stop offset="0" stop-color="#e0d5ce"/><stop offset="1" stop-color="#f7f1ed"/></linearGradient><linearGradient id="Áåçûìÿííûé_ãðàäèåíò_41-2" x1="204.91" y1="436.88" x2="202.66" y2="553.33" xlink:href="#Áåçûìÿííûé_ãðàäèåíò_41"/><linearGradient id="Áåçûìÿííûé_ãðàäèåíò_41-3" x1="157.23" y1="576.97" x2="131.08" y2="386.83" xlink:href="#Áåçûìÿííûé_ãðàäèåíò_41"/><linearGradient id="Áåçûìÿííûé_ãðàäèåíò_440" x1="53.03" y1="520.55" x2="94.13" y2="520.76" gradientTransform="matrix(1.01, 0, -0.01, 0.99, 30.02, 5.18)" gradientUnits="userSpaceOnUse"><stop offset="0" stop-color="#ffb9a4"/><stop offset="1" stop-color="#ff9e78"/></linearGradient><linearGradient id="Áåçûìÿííûé_ãðàäèåíò_29-3" x1="148.5" y1="541.67" x2="79.19" y2="521.9" gradientTransform="matrix(1.01, 0, -0.01, 0.99, 30.02, 5.18)" xlink:href="#Áåçûìÿííûé_ãðàäèåíò_29"/><linearGradient id="Áåçûìÿííûé_ãðàäèåíò_29-4" x1="509.46" y1="731.16" x2="563.99" y2="691.76" xlink:href="#Áåçûìÿííûé_ãðàäèåíò_29"/><linearGradient id="Áåçûìÿííûé_ãðàäèåíò_16" x1="2171.3" y1="374.84" x2="2171.3" y2="405.59" gradientTransform="matrix(0.99, -0.12, 0.15, 0.99, -1860.43, -31.25)" gradientUnits="userSpaceOnUse"><stop offset="0" stop-color="#c6664f"/><stop offset="1" stop-color="#ff9e78"/></linearGradient><linearGradient id="Áåçûìÿííûé_ãðàäèåíò_57" x1="2201.09" y1="176.59" x2="2200.62" y2="252.43" gradientTransform="matrix(1, -0.09, 0.12, 0.99, -1848.91, 23.21)" gradientUnits="userSpaceOnUse"><stop offset="0" stop-color="#75483b"/><stop offset="0.35" stop-color="#704538"/><stop offset="0.75" stop-color="#633c30"/><stop offset="1" stop-color="#563428"/></linearGradient><linearGradient id="Áåçûìÿííûé_ãðàäèåíò_29-5" x1="2250.77" y1="514.31" x2="2294.24" y2="514.31" gradientTransform="matrix(0.99, -0.12, 0.15, 0.99, -1860.43, -31.25)" xlink:href="#Áåçûìÿííûé_ãðàäèåíò_29"/><linearGradient id="Áåçûìÿííûé_ãðàäèåíò_29-6" x1="2266.79" y1="493.04" x2="2286.85" y2="493.04" gradientTransform="matrix(0.99, -0.12, 0.15, 0.99, -1860.43, -31.25)" xlink:href="#Áåçûìÿííûé_ãðàäèåíò_29"/><linearGradient id="Áåçûìÿííûé_ãðàäèåíò_16-2" x1="383.69" y1="133.7" x2="390.01" y2="174.77" gradientTransform="matrix(1, 0, 0, 1, 0, 0)" xlink:href="#Áåçûìÿííûé_ãðàäèåíò_16"/><linearGradient id="Áåçûìÿííûé_ãðàäèåíò_16-3" x1="305.91" y1="139.89" x2="312.72" y2="173.23" gradientTransform="matrix(1, 0, 0, 1, 0, 0)" xlink:href="#Áåçûìÿííûé_ãðàäèåíò_16"/><linearGradient id="Áåçûìÿííûé_ãðàäèåíò_12" x1="305.13" y1="187.23" x2="312.68" y2="167.09" gradientUnits="userSpaceOnUse"><stop offset="0" stop-color="#704a3e"/><stop offset="1"/></linearGradient><linearGradient id="Áåçûìÿííûé_ãðàäèåíò_12-2" x1="390.52" y1="179.26" x2="397.92" y2="156.81" xlink:href="#Áåçûìÿííûé_ãðàäèåíò_12"/><linearGradient id="Áåçûìÿííûé_ãðàäèåíò_57-2" x1="2177.02" y1="-103.14" x2="2176.32" y2="-78.6" gradientTransform="matrix(0.89, 0.1, 0.08, 1.04, -1616.67, 19.98)" xlink:href="#Áåçûìÿííûé_ãðàäèåíò_57"/><linearGradient id="Áåçûìÿííûé_ãðàäèåíò_57-3" x1="2134.88" y1="311.01" x2="2134.32" y2="330.71" gradientTransform="matrix(1.06, -0.11, 0.25, 0.98, -1957.71, 67.39)" xlink:href="#Áåçûìÿííûé_ãðàäèåíò_57"/><linearGradient id="Áåçûìÿííûé_ãðàäèåíò_57-4" x1="374.13" y1="318.32" x2="375.02" y2="173.13" gradientTransform="matrix(1, 0, 0, 1, 0, 0)" xlink:href="#Áåçûìÿííûé_ãðàäèåíò_57"/><linearGradient id="Áåçûìÿííûé_ãðàäèåíò_24" x1="344.7" y1="212.64" x2="344.7" y2="227.61" gradientUnits="userSpaceOnUse"><stop offset="0" stop-color="#4c2e25"/><stop offset="0.39" stop-color="#513127"/><stop offset="0.83" stop-color="#5e3a2e"/><stop offset="1" stop-color="#663f32"/></linearGradient><linearGradient id="Áåçûìÿííûé_ãðàäèåíò_29-7" x1="2084.51" y1="517.28" x2="2084.15" y2="506.52" gradientTransform="matrix(0.99, -0.12, 0.15, 0.99, -1806.68, -37.94)" xlink:href="#Áåçûìÿííûé_ãðàäèåíò_29"/></defs><g id="Layer_2" data-name="Layer 2"><g id="Ñëîé_1" data-name="Ñëîé 1"><path class="cls-1" d="M109.5,554.68c.21.88,1.6,28.17,11.64,45.36s63.11,8.46,71.75-.21C216.69,576,174,544.74,173,542.09S109.5,554.68,109.5,554.68Z"/><path class="cls-2" d="M468.87,312.24a250,250,0,0,0-26.13-4.13l.57-64.14c.14-17.48-18.48-24.65-42.48-24.26h0c-23,.38-43,15-43.13,32.47l-.5,57.23a228.08,228.08,0,0,0-28.84,6.13L336,368.12H476.6Z"/><path class="cls-3" d="M519,319.69s59.27,30.79,77.17,57.48,75,156.79,75.72,177.17c.64,18.62-64.6,145.9-85.26,175.27-11.09,15.76-44.91-23.2-39.47-35.23,5.95-13.15,42.16-123.94,41.8-143.37-.32-17.48-79.31-112.62-79.31-112.62Z"/><path class="cls-4" d="M706.68,1421.41s-142,27.43-317.27,27.43-317.28-27.43-317.28-27.43S214.18,1394,389.41,1394,706.68,1421.41,706.68,1421.41Z"/><path class="cls-5" d="M244.21,1357.29c-1.06.53-80.88,44.11-81.78,57.83,0,.56-2.28,1-2.62,1.4l-.11,5.39c42.76,14.38,128.84-2.61,128.84-2.61s.2,3.43,1.06,3.52c17,1.74,46-2.19,48-3.8.4-.34,1-5,.84-9.1,0-.39-1.11-1.31-1.11-1.31.92-16.17.9-47.38,1-48.11C341.19,1346.46,250.77,1333.09,244.21,1357.29Z"/><path class="cls-5" d="M535.56,1357.29c1.06.53,80.88,44.11,81.78,57.83,0,.56,2.28,1,2.61,1.4l.12,5.39c-42.77,14.38-128.85-2.61-128.85-2.61s-.19,3.43-1.05,3.52c-17.05,1.74-46-2.19-48-3.8-.41-.34-1-5-.84-9.1,0-.39,1.11-1.31,1.11-1.31-.93-16.17-.9-47.38-1.05-48.11C438.58,1346.46,529,1333.09,535.56,1357.29Z"/><path class="cls-6" d="M344.61,1380.76c28.47-315.35,41.28-566.42,43.67-636.7l-143.56-15.9c-9.9,110.46-1.22,395.45-18,639,0,0,13.62-7.76,40.9-6.34,26,1.35,55.68,17.51,70.36,22Z"/><path class="cls-6" d="M436.13,1380.68c-28.47-315.35-42.07-566.34-44.45-636.62l143.55-15.9c9.91,110.46,1.14,395.51,17.9,639,0,0-14-6-40.82-6.4-15.17-.24-55.92,17.51-70.6,22Z"/><path class="cls-6" d="M246,697c-4.22,80.14-5.39,117.74-5.39,117.74s83.48,6.86,174,6.12c58.83-.48,109,3.89,112.87-20,3.45-21.62,6-47.43,8-102.25l-6-5.44c-14.72,1.51-63,7.17-141.53,6.19-86.29-1.08-124.56-6.67-135.48-7.61C250.86,691.55,246.11,695.33,246,697Z"/><path class="cls-7" d="M363.23,813.88l-1,6.36c23.89.81,54.83.17,54.83.17l-.12-6.54Z"/><path class="cls-8" d="M617.47,398.94c-41.79-70.77-157.56-104.13-157.56-104.13s-.35-12.14-16.74-22l-.33,6.2c-8.93,8.29-49.76,40.25-64.85,40.2-13.95,0-20.45-32-20.45-32s-16.46,5-23.59,17.12c0,0-62.05,18.74-80.63,47.36C231,386.07,121.14,538.89,159.13,579.47c28.85,30.82,86.26,24.09,86.26,24.09s-2.07,73.17.54,78.26,6.9,13.88,13,17.06c7.9,4.11,242.08,4.94,265.93.78,7.6-1.32,12.53-26.29,13.86-29.65,2.17-5.49-.36-127.16-2.09-182.59,6.29,7.36,10.82,12.65,10.82,12.62,0-1.09,39.23,55.4,39.23,55.4,42.09,2.87,89-5.36,89-5.36S633.24,425.66,617.47,398.94Z"/><path class="cls-7" d="M241.22,793.5c6.76-4.41,20.14-13.79,28.31-21.31-.91-1.29-1.84-2.57-2.76-3.85-4.71,3.48-20.24,14.22-25.3,17.71C241.39,788.5,241.3,791,241.22,793.5Z"/><path class="cls-9" d="M388,716.63c-75.31,0-122-3.35-142.54-5.27-2.51-.05-4.09,27.14-1.24,28.4,21.91,2,68.62,5.24,143.78,5.24,65.77,0,121.07-3.81,148.14-5.81,2.37.2,1.5-27.8-1.08-27.8C509.84,713.32,456,716.63,388,716.63Z"/><polygon class="cls-6" points="313.37 754.76 296.24 753.87 299.5 706.48 316.63 707.36 313.37 754.76"/><polygon class="cls-6" points="458.14 753.48 440.65 754.3 439.19 707.76 456.67 706.93 458.14 753.48"/><path class="cls-7" d="M509.39,767.87c-1.06,2.51-.71,1.71-1.72,4.25,8.25,7.06,23.22,16,31,20.87.06-3.35-.19-4.27-.24-7.29Z"/><path class="cls-10" d="M531.61,820.55s8,228.07,3.14,233S504.5,1078.68,497.8,1078c-10.83-1-62-24.32-64.75-31.83s-14-222.52-10-222.41S531.61,820.55,531.61,820.55Z"/><path class="cls-6" d="M426.59,1271c-.18,0,.7,19.34.74,20.45.2,5.2-.86,11-.15,16,.77,5.4,4.64,10,4.23,15.66-.25,3.53-2.26,6.65-3.86,9.81s-2.82,6.91-1.46,10.17c1.14,2.73,3.89,4.57,4.87,7.36,1.29,3.68-.79,7.18-1,10.81-.28,4,.88,8.44,1.14,12.57.13,2-.5,15,1.61,16.19s7,3.61,9.25,3.14c17.12-3.65,43.5-25.36,65.11-30.45,24.57-5.78,46.11,4.5,46.11,4.5-2.18-.62.37-15.68,1-17.16,1-2.29,2.43-4.47,2.67-7,.66-6.84-7.93-12.37-6.44-19.09.76-3.43,4.08-6.06,4.13-9.58,0-2.9-2.14-5.26-3.57-7.79-2.74-4.87-1.61-10-1.9-15.26s-.57-10.73-.86-16.09c0-.8-.9-15.1-.82-15.11Z"/><path class="cls-6" d="M353.85,1270.09c.18,0-1,21.11-1,22.22-.19,5.21.07,10.1-.64,15.12-.77,5.4-2.76,8.75-2.35,14.38.25,3.53.38,7.93,2,11.09s2.82,6.91,1.46,10.17c-1.14,2.73-3.89,4.57-4.87,7.36-1.29,3.68.79,7.18,1.05,10.81.28,4-.88,8.44-1.14,12.57-.12,2,.5,15-1.61,16.19a23.51,23.51,0,0,1-8.67,2.56c-30.93,0-45.27-23.21-65.12-28.29-24.46-6.26-46.68,2.92-46.68,2.92,2.18-.62-.37-15.68-1-17.16-1-2.29-2.43-4.47-2.67-7-.66-6.84,7.94-12.37,6.44-19.09-.76-3.43-4.08-6.06-4.13-9.58,0-2.9,2.14-5.26,3.57-7.79,2.74-4.87,1.61-10,1.9-15.26s.58-10.73.86-16.09c0-.8,1.48-16.28,1.39-16.29Z"/><path class="cls-11" d="M287.38,1412.48c-22.84,2.8-48.71,6-70.36,6.34-32.86.56-49-2.58-54.54-4,0,.11,0,.22,0,.32,0,.56-2.28,1-2.62,1.4v.15c2.83.93,16.45,4.74,49.47,4.74q3.72,0,7.79-.07c21.77-.37,47.72-3.55,70.61-6.36,22.15-2.72,41.29-5.07,50.76-4.16l0-.9c0-.39-1.11-1.31-1.11-1.31s0-.27,0-.4C327.21,1407.59,308.67,1409.86,287.38,1412.48Z"/><path class="cls-11" d="M492.37,1412.48c22.83,2.8,48.7,6,70.34,6.34,32.86.56,49-2.59,54.59-4,0,.1,0,.22,0,.32,0,.56,2.28,1,2.61,1.4v.14c-2.83.93-16.5,4.75-49.51,4.75-2.48,0-5.08,0-7.78-.07-21.77-.37-47.72-3.55-70.6-6.36-22.14-2.72-41.28-5.07-50.74-4.16,0-.3,0-.6,0-.9s1.11-1.31,1.11-1.31,0-.27,0-.4C452.55,1407.59,471.09,1409.86,492.37,1412.48Z"/><path class="cls-12" d="M259.94,1400.39c-28.3-16.8-53.81-15.12-72-9.15-9,6.15-16.79,12.13-21.33,17,6.3,1.49,17.63,3.12,37.69,3.62C244.19,1412.83,266.87,1404.5,259.94,1400.39Z"/><path class="cls-13" d="M613.24,1408.32c-4.61-5-12.66-11.1-21.9-17.4-18.1-5.7-43.19-7-71,9.47-6.93,4.11,15.75,12.44,55.62,11.45C595.59,1411.35,606.85,1409.78,613.24,1408.32Z"/><path class="cls-14" d="M249.71,820.55s-9.78,230-5,234.92,31.41,25.64,38.1,25c10.83-1.06,63-31,65.73-38.53s13.69-218.26,9.64-218.15S249.71,820.55,249.71,820.55Z"/><path class="cls-15" d="M389.91,716.49s-46.33-.54-46.33.46c0,0-.4,27,0,27.45s46.64.42,46.64.42,0,4.41-.79,5c-2.83,1.92-50.66,1.35-52,0s-.44-36.53.57-38.46,50-1.3,50.88-.5S389.91,716.49,389.91,716.49Z"/><path class="cls-16" d="M339.26,726.36s-.58,6.21-.21,6.63,11.6,0,11.87-.24a22.52,22.52,0,0,0,.11-6.15C350.81,726,339.68,725.94,339.26,726.36Z"/><path class="cls-17" d="M329.59,305.76c.23,13.73,2,41.24,13.66,42.28,9.48.85,26.94-18.18,35-28.54,7.54,11.44,24.42,31.78,34.85,32.2h.38c13.67,0,45.17-39.05,53-54.83-4.18-1.38-6.56-2.06-6.56-2.06a8.74,8.74,0,0,0-.13-1.11c0-.07,0-.13,0-.21-6.62,13.9-40.18,47.89-46.24,47.5-6.44-.42-19.1-12.48-27.58-23.59a23.62,23.62,0,0,1-7.93,1.81,9.83,9.83,0,0,1-4.94-1.42c-9.7,11.83-22.52,23.27-28,22.77-5.69-.51-10.19-18.7-10.66-36.9-.15.23-.3.45-.43.68,0,0-1.67.53-4.32,1.4Z"/><path class="cls-18" d="M380.6,318.94a14.74,14.74,0,0,1-2.61.27,8.9,8.9,0,0,1-2.91-.51c-4.67,22.2-9.28,69.87-10.84,93.41-1.82,27.7,2.66,243.47,1.54,290.47,1.39-.22,4.21.54,5.89.54h0c1.12-47-3.87-261.3-2.05-288.9C371.16,390.84,376.36,341.06,380.6,318.94Z"/><path class="cls-19" d="M663.69,580.65c-23.59-7.45-59-16-76-19.55-3.19,16.86-12.06,47.41-20.78,75.15,7.13-21.48,17.11-49.59,20.58-50,7.77-1,47,8.67,50.07,13.43S602.2,704.08,602.19,704.1C622,669.39,650,614.12,663.69,580.65Z"/><path class="cls-20" d="M559.12,660.42h0v0Z"/><path class="cls-21" d="M575.23,532.35s-3.31,2.93-3.31,6.11,10.51,16.77,10.51,16.77-5.53,19.92-4.52,22.47a8.86,8.86,0,0,0,4.83,5.39l1-3.65s13.81-.16,37.44,5.58c24.76,6,34.13,12.22,34.13,12.22l-1.69,6.32s8.79-2,9.35-2.06,18.33-44.28,18.59-50.26-11.83-32.88-15.27-34.59-5.78-1.16-5.78-1.16S600.18,519.1,575.23,532.35Z"/><path class="cls-22" d="M659.17,590.64c-2.52,1.33-72.28-17.77-72.94-18.7s2.65-12.6,3.31-13.79,45.75,5,46.42,4.91,2-6.9,1.06-8.36-46.95-2.25-48.11-3-11.7-20.5-11.57-21.7,88.9-13.38,88.9-13.38h0a13.13,13.13,0,0,0-2.57-.95c-.84-2.37-1.71-4.82-2.61-7.33-15,.95-88.38,12.12-88.38,12.12s-32.78-47.65-34.85-49.31-7.44-45.71-7.7-47.8c-.12-1-10.07.27-10.07.27S512.2,670,507.67,671.24,377.46,682,368.78,682.09s-88-21.7-88-21.7l-34.86,5.07c-.59,8.37-.73,14.85.05,16.36,2.6,5.09,6.9,13.88,13,17.06,7.9,4.11,242.08,4.94,265.93.78,7.6-1.32,12.53-26.29,13.86-29.65,2.17-5.49-.36-127.16-2.09-182.59,6.29,7.36,10.82,12.65,10.82,12.62,0-.65,14,19.3,25.32,35.44a6.31,6.31,0,0,0-.85,3c0,3.18,10.51,16.77,10.51,16.77s-5.53,19.92-4.52,22.47a8.86,8.86,0,0,0,4.83,5.39l1-3.65s13.81-.15,37.44,5.58c24.76,6,34.13,12.22,34.13,12.22l-1.69,6.32s8.79-2,9.35-2.06c.27,0,6.59-15.39,11.78-29.24C669.8,578.33,661,589.68,659.17,590.64Z"/><path class="cls-23" d="M675.32,532.48c-3.43-7.73-7.35-15-9.08-15.83-3.44-1.71-5.78-1.16-5.78-1.16s-57.62,1.69-83.12,14.54c1.76,3.79,5.48,11.75,5.48,11.75C585.48,541.8,647.18,527.47,675.32,532.48Z"/><path class="cls-24" d="M245.16,909.11s55.51-1.06,58.08,0c15.91,6.57,11,68.25-25.75,68.25S160,966.09,159.8,965.43,245.16,909.11,245.16,909.11Z"/><path class="cls-25" d="M18.3,428.7S27,388.42,55.91,381.41s198.14-2.94,214.77,0c26.41,4.7,111.26,143.86,116.52,271.35s-133.54,225.78-138.65,271,29.61,53.56,29.61,53.56l-222.91.76s-34.64-11.6-33.63-54.23c1-43.25,129.76-176.72,135.89-272.26S75.12,422.74,68.1,424.5,18.3,428.7,18.3,428.7Z"/><path class="cls-26" d="M271.15,381.58c-23.8-7.39-194.26-7.63-221.86.25C12.41,392.36,0,457.45,0,457.45l243.29-7.09C233.6,408.34,258.13,382.78,271.15,381.58Z"/><path class="cls-3" d="M182.72,513.57c-2.83-9-17.62-6.83-17.62-6.83,5.67-4.24,5.91-11.52-3.21-14s-32.19,1.32-32.19,1.32,6.49-4.47,3.23-9.83-27.83-2.74-39,2.31S88.6,504.4,88.6,504.4s-3.13,7.6-3.92,12S88.32,525,88.32,525s-.55,3.18-1.39,9.25,4.64,8,5,12.43a8.33,8.33,0,0,1-.17,1.84A18.14,18.14,0,0,0,110,569.7s20.17,4,28.73,0c3.14-1.48,9.07-14.19,9-15.84s20.47-9.43,27.47-16.48.3-11.07.3-11.07S185.55,522.54,182.72,513.57Z"/><path class="cls-27" d="M153.77,545c1.9-2.28-.79-32.75-8.41-52.8-8.15.6-15.66,1.84-15.66,1.84s6.49-4.47,3.23-9.83-27.83-2.74-39,2.31S88.6,504.4,88.6,504.4s-3.13,7.6-3.92,12S88.32,525,88.32,525s-.55,3.18-1.39,9.25,4.64,8,5,12.43a5.73,5.73,0,0,1-.06,1.1,9,9,0,0,0,3.19,8,16.71,16.71,0,0,0,5.78,3.19C114.2,563.13,151,548.35,153.77,545Z"/><path class="cls-28" d="M182.72,513.57c-2.83-9-17.62-6.83-17.62-6.83,5.67-4.24,5.91-11.52-3.21-14s-32.19,1.32-32.19,1.32,6.49-4.47,3.23-9.83c-.72-1.19-2.48-2-4.91-2.45,0,0,4.49,1.71,3.8,5.49s-40.46,14.24-41,15-.89,2.11,0,2.32,56.92-13.19,67.65-10.87,8.7,9.59,3.92,12.86-68,15-68.15,15.93a6.12,6.12,0,0,0,.83,2.64s65-16.57,73.64-16.14,15.74,6.64,8.23,13S102.5,538.81,102,539.44s1.32,3.27,1.32,3.27S173,527,174.45,527.66s4.17,2.32,2.08,5.9-49.35,27-66.31,28.17-18.27-15-18.27-15a8.33,8.33,0,0,1-.17,1.84A18.14,18.14,0,0,0,110,569.7s19.57,3.82,28.73,0c3.21-1.34,9.07-14.19,9-15.84s20.47-9.43,27.47-16.48.3-11.07.3-11.07S185.55,522.54,182.72,513.57Z"/><path class="cls-3" d="M545.9,696.73c-.95-.73-12.43-8.72-14-7.07S521.63,699,521.63,699s-19.64-6.34-27.25-7.43-20.06.26-23.77,1.8c-6,2.48-30.68,22.67-30,31.83.35,4.56,8.71,5.94,13,4.48,5.84-2,18.41-15.23,21.74-15.59s7.61,1.28,7.61,1.28-19.18,10.44-21.24,14.1-18.53,39.28-15.82,44a9.68,9.68,0,0,0,10.37,4.78s2.07,7.65,5.69,8.09c6.29.76,11.62-5,11.62-5s7.32,4.11,11.47,3c8.47-2.31,16.15-19.09,16.94-19.09s40.89,6.11,53.09-.85,39-43,37.47-46.27S553.36,681.24,552.7,683C551.79,685.4,545.9,696.73,545.9,696.73Z"/><path class="cls-29" d="M592.56,718.16c-1.59-3.29-40.17-37.74-40.83-36-.92,2.43-6.48,13-6.48,13-1-.74-11.78-7.11-13.36-5.46S521.63,699,521.63,699s-19.64-6.34-27.25-7.43-20.06.26-23.77,1.8c-6,2.48-30.68,22.67-30,31.83.35,4.56,8.71,5.94,13,4.48,5.84-2,18.41-15.23,21.74-15.59s7.61,1.28,7.61,1.28-19.18,10.44-21.24,14.1-18.53,39.28-15.82,44a9.68,9.68,0,0,0,10.37,4.78s2.07,7.65,5.69,8.09c6.29.76,11.62-5,11.62-5s7.32,4.11,11.47,3c8.47-2.31,16.15-19.09,16.94-19.09s40.89,6.11,53.09-.85S594.14,721.46,592.56,718.16Zm-47.43,45.49c-7,2.51-41.39-1.07-41.39-1.07a53.12,53.12,0,0,0-.48-5.61c-.23-.47-2.14.72-2.14.72l-.6,5S490.1,781.41,485,782.62s-8.46-2-8.34-3,14.19-31.85,14.9-32.45,22.07-11.93,22.31-12.5-1.43-2.53-2-3.24-22.06,12.88-22.42,12.88-15.27,33.4-16.34,34.83-7.28,5.72-10.38,4.89-4.65-5.49-4.29-7.75,17.17-38.77,17.65-39,25.88-13.83,26.48-14.43-2-2.51-2.86-3.1-25.05,13.6-26,14.26-16.7,41.56-18.25,42.16-8.25-.86-8.35-5.25,14.56-37.69,17.66-41.75,30.65-16.82,30.65-16.82l-2.15-2.74s-17.17,1.19-18.48,1.31-16.34,14.67-21.12,16.82-10.85-.6-11.68-4.65,23.25-25.53,29.7-28.27,20.87-1.79,26.12-1,34.35,11.81,34.35,11.81,2.74-4.29,2.27-4.53-7.88-2.86-8.59-3,4.86-6.5,5.41-6.43c7.29.92,47,36.56,46.85,37.83S552.17,761.15,545.13,763.65Z"/><path class="cls-30" d="M285.13,158.79s2.21-67.65,15.69-85.3c0,0-8.9-19.75-11.84-16.08C275.2,74.63,276.27,126.7,285.13,158.79Z"/><path class="cls-31" d="M312.13,36.89s0-.16-.11-.44C312.09,36.74,312.13,36.89,312.13,36.89Z"/><path class="cls-32" d="M428.38,70.45C418.09,36.54,318.07,30.33,295.65,80.67,286.11,106.56,284.49,145,285,186.25h0S272.19,299.38,369.45,290.6c86.28-7.8,103-51.75,90.36-114.64h0C455.11,140.33,439.25,96.23,428.38,70.45Z"/><path class="cls-33" d="M461.19,36.55a27.36,27.36,0,0,0-18.34-14.36,6.16,6.16,0,0,0,2-7.3,9.36,9.36,0,0,0-7.8,3.52c4.92-6.89,0-15.46,0-15.46C424.28,10.25,428,16.89,428,16.89,421,6.07,403.73,4.27,403.73,4.27c.31,1.61-.29,6.72.49,8.24C374.08-2.85,304.22.26,304.22.26a13.18,13.18,0,0,0-.45,8.89c-22.7,1.54-27.2,4.15-27.2,4.15-1.3,27.36,2.28,39.93,10.88,50,3.22,3.9,18.12,26.06,48.09,23,18.39-1.85,45.78-19.12,56.67-18.64,13.21.59,21.24,27.38,25.4,38.44,2.3,6.14,29.85,39.3,30.15,56.85.18,10.48,21-.3,21-.3a156.12,156.12,0,0,0,4.09-28.46C474.54,102.58,471.57,56.44,461.19,36.55Z"/><g class="cls-34"><ellipse class="cls-3" cx="396.85" cy="199.47" rx="34.86" ry="39.46" transform="translate(-4.36 8.93) rotate(-1.28)"/><ellipse class="cls-35" cx="396.85" cy="199.47" rx="34.64" ry="39.2" transform="translate(-4.37 8.93) rotate(-1.28)"/><ellipse class="cls-36" cx="396.85" cy="199.47" rx="34.41" ry="38.95" transform="translate(-4.36 8.93) rotate(-1.28)"/><ellipse class="cls-37" cx="396.85" cy="199.47" rx="34.19" ry="38.7" transform="translate(-4.36 8.93) rotate(-1.28)"/><ellipse class="cls-38" cx="396.85" cy="199.47" rx="33.97" ry="38.44" transform="translate(-4.36 8.93) rotate(-1.28)"/><ellipse class="cls-39" cx="396.85" cy="199.47" rx="33.74" ry="38.19" transform="translate(-4.36 8.93) rotate(-1.28)"/><ellipse class="cls-40" cx="396.85" cy="199.47" rx="33.52" ry="37.94" transform="translate(-4.36 8.93) rotate(-1.28)"/><ellipse class="cls-41" cx="396.85" cy="199.47" rx="33.3" ry="37.69" transform="translate(-4.36 8.93) rotate(-1.28)"/><ellipse class="cls-42" cx="396.85" cy="199.47" rx="33.07" ry="37.43" transform="translate(-4.36 8.93) rotate(-1.28)"/><ellipse class="cls-43" cx="396.85" cy="199.47" rx="32.85" ry="37.18" transform="translate(-4.36 8.93) rotate(-1.28)"/><ellipse class="cls-44" cx="396.85" cy="199.47" rx="32.63" ry="36.93" transform="translate(-4.36 8.93) rotate(-1.28)"/><ellipse class="cls-45" cx="396.85" cy="199.47" rx="32.4" ry="36.67" transform="translate(-4.36 8.93) rotate(-1.28)"/><ellipse class="cls-46" cx="396.85" cy="199.47" rx="32.18" ry="36.42" transform="translate(-4.36 8.92) rotate(-1.28)"/><ellipse class="cls-47" cx="396.85" cy="199.47" rx="31.96" ry="36.17" transform="translate(-4.36 8.93) rotate(-1.28)"/><ellipse class="cls-48" cx="396.85" cy="199.47" rx="31.73" ry="35.92" transform="translate(-4.36 8.93) rotate(-1.28)"/><ellipse class="cls-49" cx="396.85" cy="199.47" rx="31.51" ry="35.66" transform="translate(-4.36 8.93) rotate(-1.28)"/><ellipse class="cls-50" cx="396.85" cy="199.47" rx="31.29" ry="35.41" transform="translate(-4.36 8.93) rotate(-1.28)"/><ellipse class="cls-51" cx="396.85" cy="199.47" rx="31.06" ry="35.16" transform="translate(-4.36 8.93) rotate(-1.28)"/><ellipse class="cls-52" cx="396.85" cy="199.47" rx="30.84" ry="34.9" transform="translate(-4.36 8.93) rotate(-1.28)"/><ellipse class="cls-53" cx="396.85" cy="199.47" rx="30.62" ry="34.65" transform="translate(-4.36 8.93) rotate(-1.28)"/><ellipse class="cls-54" cx="396.85" cy="199.47" rx="30.39" ry="34.4" transform="translate(-4.36 8.93) rotate(-1.28)"/><ellipse class="cls-55" cx="396.85" cy="199.47" rx="30.17" ry="34.14" transform="translate(-4.36 8.93) rotate(-1.28)"/><ellipse class="cls-56" cx="396.85" cy="199.47" rx="29.95" ry="33.89" transform="translate(-4.36 8.93) rotate(-1.28)"/><ellipse class="cls-57" cx="396.85" cy="199.47" rx="29.72" ry="33.64" transform="translate(-4.36 8.93) rotate(-1.28)"/><ellipse class="cls-58" cx="396.85" cy="199.47" rx="29.5" ry="33.39" transform="translate(-4.36 8.92) rotate(-1.28)"/><ellipse class="cls-59" cx="396.85" cy="199.47" rx="29.27" ry="33.13" transform="translate(-4.36 8.93) rotate(-1.28)"/><ellipse class="cls-60" cx="396.85" cy="199.47" rx="29.05" ry="32.88" transform="translate(-4.36 8.93) rotate(-1.28)"/><ellipse class="cls-61" cx="396.85" cy="199.47" rx="28.83" ry="32.63" transform="translate(-4.36 8.93) rotate(-1.28)"/><ellipse class="cls-62" cx="396.85" cy="199.47" rx="28.6" ry="32.37" transform="translate(-4.37 8.93) rotate(-1.28)"/><ellipse class="cls-63" cx="396.85" cy="199.47" rx="28.38" ry="32.12" transform="translate(-4.36 8.93) rotate(-1.28)"/><ellipse class="cls-64" cx="396.85" cy="199.47" rx="28.16" ry="31.87" transform="matrix(1, -0.02, 0.02, 1, -4.36, 8.93)"/><ellipse class="cls-65" cx="396.85" cy="199.47" rx="27.93" ry="31.62" transform="translate(-4.37 8.93) rotate(-1.28)"/><ellipse class="cls-66" cx="396.85" cy="199.47" rx="27.71" ry="31.36" transform="matrix(1, -0.02, 0.02, 1, -4.36, 8.93)"/><ellipse class="cls-67" cx="396.85" cy="199.47" rx="27.49" ry="31.11" transform="translate(-4.36 8.93) rotate(-1.28)"/><ellipse class="cls-68" cx="396.85" cy="199.47" rx="27.26" ry="30.86" transform="translate(-4.36 8.93) rotate(-1.28)"/><ellipse class="cls-69" cx="396.85" cy="199.47" rx="27.04" ry="30.6" transform="translate(-4.36 8.93) rotate(-1.28)"/><ellipse class="cls-70" cx="396.85" cy="199.47" rx="26.82" ry="30.35" transform="matrix(1, -0.02, 0.02, 1, -4.36, 8.93)"/><ellipse class="cls-71" cx="396.85" cy="199.47" rx="26.59" ry="30.1" transform="translate(-4.36 8.93) rotate(-1.28)"/><ellipse class="cls-72" cx="396.85" cy="199.47" rx="26.37" ry="29.85" transform="translate(-4.36 8.93) rotate(-1.28)"/><ellipse class="cls-73" cx="396.85" cy="199.47" rx="26.15" ry="29.59" transform="translate(-4.36 8.93) rotate(-1.28)"/><ellipse class="cls-73" cx="396.85" cy="199.47" rx="25.92" ry="29.34" transform="translate(-4.36 8.93) rotate(-1.28)"/><ellipse class="cls-74" cx="396.85" cy="199.47" rx="25.7" ry="29.09" transform="translate(-4.36 8.92) rotate(-1.28)"/><ellipse class="cls-75" cx="396.85" cy="199.47" rx="25.48" ry="28.83" transform="translate(-4.36 8.93) rotate(-1.28)"/><ellipse class="cls-76" cx="396.85" cy="199.47" rx="25.25" ry="28.58" transform="translate(-4.36 8.93) rotate(-1.28)"/><ellipse class="cls-77" cx="396.85" cy="199.47" rx="25.03" ry="28.33" transform="translate(-4.36 8.93) rotate(-1.28)"/><ellipse class="cls-78" cx="396.85" cy="199.47" rx="24.81" ry="28.07" transform="translate(-4.37 8.93) rotate(-1.28)"/><ellipse class="cls-79" cx="396.85" cy="199.47" rx="24.58" ry="27.82" transform="translate(-4.36 8.92) rotate(-1.28)"/><ellipse class="cls-80" cx="396.85" cy="199.47" rx="24.36" ry="27.57" transform="translate(-4.36 8.93) rotate(-1.28)"/><ellipse class="cls-81" cx="396.85" cy="199.47" rx="24.14" ry="27.32" transform="translate(-4.37 8.93) rotate(-1.28)"/><ellipse class="cls-82" cx="396.85" cy="199.47" rx="23.91" ry="27.06" transform="translate(-4.36 8.93) rotate(-1.28)"/><ellipse class="cls-83" cx="396.85" cy="199.47" rx="23.69" ry="26.81" transform="translate(-4.36 8.92) rotate(-1.28)"/><ellipse class="cls-84" cx="396.85" cy="199.47" rx="23.46" ry="26.56" transform="translate(-4.36 8.93) rotate(-1.28)"/><ellipse class="cls-85" cx="396.85" cy="199.47" rx="23.24" ry="26.3" transform="translate(-4.36 8.93) rotate(-1.28)"/><ellipse class="cls-86" cx="396.85" cy="199.47" rx="23.02" ry="26.05" transform="translate(-4.36 8.93) rotate(-1.28)"/><ellipse class="cls-87" cx="396.85" cy="199.47" rx="22.79" ry="25.8" transform="translate(-4.36 8.93) rotate(-1.28)"/><ellipse class="cls-88" cx="396.85" cy="199.47" rx="22.57" ry="25.55" transform="matrix(1, -0.02, 0.02, 1, -4.36, 8.93)"/><ellipse class="cls-89" cx="396.85" cy="199.47" rx="22.35" ry="25.29" transform="translate(-4.36 8.92) rotate(-1.28)"/><ellipse class="cls-90" cx="396.85" cy="199.47" rx="22.12" ry="25.04" transform="translate(-4.36 8.93) rotate(-1.28)"/><ellipse class="cls-91" cx="396.85" cy="199.47" rx="21.9" ry="24.79" transform="translate(-4.37 8.93) rotate(-1.28)"/><ellipse class="cls-92" cx="396.85" cy="199.47" rx="21.68" ry="24.53" transform="translate(-4.36 8.92) rotate(-1.28)"/><ellipse class="cls-93" cx="396.85" cy="199.47" rx="21.45" ry="24.28" transform="translate(-4.37 8.93) rotate(-1.28)"/><ellipse class="cls-94" cx="396.85" cy="199.47" rx="21.23" ry="24.03" transform="translate(-4.36 8.93) rotate(-1.28)"/><ellipse class="cls-95" cx="396.85" cy="199.47" rx="21.01" ry="23.78" transform="translate(-4.36 8.93) rotate(-1.28)"/><ellipse class="cls-96" cx="396.85" cy="199.47" rx="20.78" ry="23.52" transform="translate(-4.36 8.93) rotate(-1.28)"/><ellipse class="cls-97" cx="396.85" cy="199.47" rx="20.56" ry="23.27" transform="translate(-4.36 8.93) rotate(-1.28)"/><ellipse class="cls-98" cx="396.85" cy="199.47" rx="20.34" ry="23.02" transform="translate(-4.36 8.93) rotate(-1.28)"/><ellipse class="cls-99" cx="396.85" cy="199.47" rx="20.11" ry="22.76" transform="translate(-4.36 8.93) rotate(-1.28)"/><ellipse class="cls-100" cx="396.85" cy="199.47" rx="19.89" ry="22.51" transform="translate(-4.36 8.92) rotate(-1.28)"/><ellipse class="cls-101" cx="396.85" cy="199.47" rx="19.67" ry="22.26" transform="translate(-4.36 8.93) rotate(-1.28)"/><ellipse class="cls-102" cx="396.85" cy="199.47" rx="19.44" ry="22" transform="translate(-4.36 8.93) rotate(-1.28)"/><ellipse class="cls-103" cx="396.85" cy="199.47" rx="19.22" ry="21.75" transform="translate(-4.36 8.93) rotate(-1.28)"/><ellipse class="cls-104" cx="396.85" cy="199.47" rx="19" ry="21.5" transform="translate(-4.36 8.93) rotate(-1.28)"/><ellipse class="cls-105" cx="396.85" cy="199.47" rx="18.77" ry="21.25" transform="translate(-4.36 8.93) rotate(-1.28)"/><ellipse class="cls-106" cx="396.85" cy="199.47" rx="18.55" ry="20.99" transform="translate(-4.36 8.93) rotate(-1.28)"/><ellipse class="cls-107" cx="396.85" cy="199.47" rx="18.32" ry="20.74" transform="translate(-4.36 8.93) rotate(-1.28)"/><ellipse class="cls-108" cx="396.85" cy="199.47" rx="18.1" ry="20.49" transform="translate(-4.37 8.93) rotate(-1.28)"/><ellipse class="cls-109" cx="396.85" cy="199.47" rx="17.88" ry="20.23" transform="translate(-4.36 8.92) rotate(-1.28)"/><ellipse class="cls-110" cx="396.85" cy="199.47" rx="17.65" ry="19.98" transform="translate(-4.36 8.92) rotate(-1.28)"/><ellipse class="cls-111" cx="396.85" cy="199.47" rx="17.43" ry="19.73" transform="matrix(1, -0.02, 0.02, 1, -4.37, 8.93)"/></g><ellipse class="cls-3" cx="475.01" cy="183.32" rx="27.72" ry="19.3" transform="translate(224.76 626.74) rotate(-81.66)"/><path class="cls-112" d="M485.62,190.33c-8.79,7.1-21.56,6.31-29.76,1.06-2.27,8.12.22,24.06.22,24.06s12.26-5.14,13.37-4.9c12.25,2.63,21.14-7.61,24-22.62a38.85,38.85,0,0,0,.52-11.26A23.49,23.49,0,0,1,485.62,190.33Z"/><path class="cls-113" d="M467.41,184.16l9.23.36c-2-14.21,8-20,8-20C466.59,160.07,467.41,184.16,467.41,184.16Z"/><path class="cls-114" d="M409.73,217.13l0,.07A.31.31,0,0,0,409.73,217.13Z"/><g class="cls-34"><ellipse class="cls-3" cx="316.62" cy="206.26" rx="29.91" ry="39.25" transform="translate(-46.31 101.03) rotate(-16.91)"/><ellipse class="cls-35" cx="316.62" cy="206.26" rx="29.72" ry="39" transform="translate(-46.31 101.02) rotate(-16.91)"/><ellipse class="cls-36" cx="316.62" cy="206.26" rx="29.53" ry="38.75" transform="translate(-46.31 101.02) rotate(-16.91)"/><ellipse class="cls-37" cx="316.62" cy="206.26" rx="29.34" ry="38.5" transform="translate(-46.31 101.02) rotate(-16.91)"/><ellipse class="cls-38" cx="316.62" cy="206.26" rx="29.15" ry="38.25" transform="translate(-46.31 101.02) rotate(-16.91)"/><ellipse class="cls-39" cx="316.62" cy="206.26" rx="28.96" ry="38" transform="translate(-46.31 101.03) rotate(-16.91)"/><ellipse class="cls-40" cx="316.62" cy="206.26" rx="28.76" ry="37.74" transform="translate(-46.31 101.02) rotate(-16.91)"/><ellipse class="cls-41" cx="316.62" cy="206.26" rx="28.57" ry="37.49" transform="matrix(0.96, -0.29, 0.29, 0.96, -46.31, 101.02)"/><ellipse class="cls-42" cx="316.62" cy="206.26" rx="28.38" ry="37.24" transform="translate(-46.31 101.02) rotate(-16.91)"/><ellipse class="cls-43" cx="316.62" cy="206.26" rx="28.19" ry="36.99" transform="translate(-46.31 101.03) rotate(-16.91)"/><ellipse class="cls-44" cx="316.62" cy="206.26" rx="28" ry="36.74" transform="translate(-46.31 101.03) rotate(-16.91)"/><ellipse class="cls-45" cx="316.62" cy="206.26" rx="27.8" ry="36.49" transform="translate(-46.31 101.02) rotate(-16.91)"/><ellipse class="cls-46" cx="316.62" cy="206.26" rx="27.61" ry="36.23" transform="translate(-46.31 101.02) rotate(-16.91)"/><ellipse class="cls-47" cx="316.62" cy="206.26" rx="27.42" ry="35.98" transform="translate(-46.31 101.02) rotate(-16.91)"/><ellipse class="cls-48" cx="316.62" cy="206.26" rx="27.23" ry="35.73" transform="translate(-46.31 101.02) rotate(-16.91)"/><ellipse class="cls-49" cx="316.62" cy="206.26" rx="27.04" ry="35.48" transform="translate(-46.31 101.02) rotate(-16.91)"/><ellipse class="cls-50" cx="316.62" cy="206.26" rx="26.85" ry="35.23" transform="translate(-46.31 101.03) rotate(-16.91)"/><ellipse class="cls-51" cx="316.62" cy="206.26" rx="26.65" ry="34.98" transform="translate(-46.31 101.02) rotate(-16.91)"/><ellipse class="cls-52" cx="316.62" cy="206.26" rx="26.46" ry="34.72" transform="matrix(0.96, -0.29, 0.29, 0.96, -46.31, 101.02)"/><ellipse class="cls-53" cx="316.62" cy="206.26" rx="26.27" ry="34.47" transform="translate(-46.31 101.03) rotate(-16.91)"/><ellipse class="cls-54" cx="316.62" cy="206.26" rx="26.08" ry="34.22" transform="translate(-46.31 101.02) rotate(-16.91)"/><ellipse class="cls-55" cx="316.62" cy="206.26" rx="25.89" ry="33.97" transform="translate(-46.31 101.02) rotate(-16.91)"/><ellipse class="cls-56" cx="316.62" cy="206.26" rx="25.7" ry="33.72" transform="translate(-46.31 101.02) rotate(-16.91)"/><ellipse class="cls-57" cx="316.62" cy="206.26" rx="25.5" ry="33.47" transform="translate(-46.31 101.03) rotate(-16.91)"/><ellipse class="cls-58" cx="316.62" cy="206.26" rx="25.31" ry="33.21" transform="matrix(0.96, -0.29, 0.29, 0.96, -46.31, 101.03)"/><ellipse class="cls-59" cx="316.62" cy="206.26" rx="25.12" ry="32.96" transform="matrix(0.96, -0.29, 0.29, 0.96, -46.31, 101.02)"/><ellipse class="cls-60" cx="316.62" cy="206.26" rx="24.93" ry="32.71" transform="translate(-46.31 101.02) rotate(-16.91)"/><ellipse class="cls-61" cx="316.62" cy="206.26" rx="24.74" ry="32.46" transform="translate(-46.31 101.02) rotate(-16.91)"/><ellipse class="cls-62" cx="316.62" cy="206.26" rx="24.55" ry="32.21" transform="translate(-46.31 101.02) rotate(-16.91)"/><ellipse class="cls-63" cx="316.62" cy="206.26" rx="24.35" ry="31.96" transform="translate(-46.31 101.02) rotate(-16.91)"/><ellipse class="cls-64" cx="316.62" cy="206.26" rx="24.16" ry="31.71" transform="translate(-46.31 101.03) rotate(-16.91)"/><ellipse class="cls-65" cx="316.62" cy="206.26" rx="23.97" ry="31.45" transform="translate(-46.31 101.02) rotate(-16.91)"/><ellipse class="cls-66" cx="316.62" cy="206.26" rx="23.78" ry="31.2" transform="translate(-46.31 101.02) rotate(-16.91)"/><ellipse class="cls-67" cx="316.62" cy="206.26" rx="23.59" ry="30.95" transform="matrix(0.96, -0.29, 0.29, 0.96, -46.31, 101.03)"/><ellipse class="cls-68" cx="316.62" cy="206.26" rx="23.39" ry="30.7" transform="translate(-46.31 101.03) rotate(-16.91)"/><ellipse class="cls-69" cx="316.62" cy="206.26" rx="23.2" ry="30.45" transform="translate(-46.31 101.02) rotate(-16.91)"/><ellipse class="cls-70" cx="316.62" cy="206.26" rx="23.01" ry="30.2" transform="translate(-46.31 101.02) rotate(-16.91)"/><ellipse class="cls-71" cx="316.62" cy="206.26" rx="22.82" ry="29.94" transform="translate(-46.31 101.02) rotate(-16.91)"/><ellipse class="cls-72" cx="316.62" cy="206.26" rx="22.63" ry="29.69" transform="translate(-46.31 101.03) rotate(-16.91)"/><ellipse class="cls-73" cx="316.62" cy="206.26" rx="22.44" ry="29.44" transform="translate(-46.31 101.02) rotate(-16.91)"/><ellipse class="cls-73" cx="316.62" cy="206.26" rx="22.24" ry="29.19" transform="translate(-46.31 101.02) rotate(-16.91)"/><ellipse class="cls-74" cx="316.62" cy="206.26" rx="22.05" ry="28.94" transform="matrix(0.96, -0.29, 0.29, 0.96, -46.31, 101.03)"/><ellipse class="cls-75" cx="316.62" cy="206.26" rx="21.86" ry="28.69" transform="translate(-46.31 101.02) rotate(-16.91)"/><ellipse class="cls-76" cx="316.62" cy="206.26" rx="21.67" ry="28.43" transform="matrix(0.96, -0.29, 0.29, 0.96, -46.31, 101.02)"/><ellipse class="cls-77" cx="316.62" cy="206.26" rx="21.48" ry="28.18" transform="translate(-46.31 101.03) rotate(-16.91)"/><ellipse class="cls-78" cx="316.62" cy="206.26" rx="21.29" ry="27.93" transform="translate(-46.31 101.02) rotate(-16.91)"/><ellipse class="cls-79" cx="316.62" cy="206.26" rx="21.09" ry="27.68" transform="translate(-46.31 101.02) rotate(-16.91)"/><ellipse class="cls-80" cx="316.62" cy="206.26" rx="20.9" ry="27.43" transform="translate(-46.31 101.02) rotate(-16.91)"/><ellipse class="cls-81" cx="316.62" cy="206.26" rx="20.71" ry="27.18" transform="translate(-46.31 101.03) rotate(-16.91)"/><ellipse class="cls-82" cx="316.62" cy="206.26" rx="20.52" ry="26.92" transform="translate(-46.31 101.02) rotate(-16.91)"/><ellipse class="cls-83" cx="316.62" cy="206.26" rx="20.33" ry="26.67" transform="translate(-46.31 101.02) rotate(-16.91)"/><ellipse class="cls-84" cx="316.62" cy="206.26" rx="20.13" ry="26.42" transform="matrix(0.96, -0.29, 0.29, 0.96, -46.31, 101.02)"/><ellipse class="cls-85" cx="316.62" cy="206.26" rx="19.94" ry="26.17" transform="translate(-46.31 101.03) rotate(-16.91)"/><ellipse class="cls-86" cx="316.62" cy="206.26" rx="19.75" ry="25.92" transform="matrix(0.96, -0.29, 0.29, 0.96, -46.31, 101.02)"/><ellipse class="cls-87" cx="316.62" cy="206.26" rx="19.56" ry="25.67" transform="translate(-46.31 101.02) rotate(-16.91)"/><ellipse class="cls-88" cx="316.62" cy="206.26" rx="19.37" ry="25.41" transform="translate(-46.31 101.03) rotate(-16.91)"/><ellipse class="cls-89" cx="316.62" cy="206.26" rx="19.18" ry="25.16" transform="translate(-46.31 101.02) rotate(-16.91)"/><ellipse class="cls-90" cx="316.62" cy="206.26" rx="18.98" ry="24.91" transform="translate(-46.31 101.03) rotate(-16.91)"/><ellipse class="cls-91" cx="316.62" cy="206.26" rx="18.79" ry="24.66" transform="translate(-46.31 101.03) rotate(-16.91)"/><ellipse class="cls-92" cx="316.62" cy="206.26" rx="18.6" ry="24.41" transform="translate(-46.31 101.02) rotate(-16.91)"/><ellipse class="cls-93" cx="316.62" cy="206.26" rx="18.41" ry="24.16" transform="translate(-46.31 101.02) rotate(-16.91)"/><ellipse class="cls-94" cx="316.62" cy="206.26" rx="18.22" ry="23.9" transform="translate(-46.31 101.02) rotate(-16.91)"/><ellipse class="cls-95" cx="316.62" cy="206.26" rx="18.03" ry="23.65" transform="translate(-46.31 101.03) rotate(-16.91)"/><ellipse class="cls-96" cx="316.62" cy="206.26" rx="17.83" ry="23.4" transform="translate(-46.31 101.02) rotate(-16.91)"/><ellipse class="cls-97" cx="316.62" cy="206.26" rx="17.64" ry="23.15" transform="translate(-46.31 101.02) rotate(-16.91)"/><ellipse class="cls-98" cx="316.62" cy="206.26" rx="17.45" ry="22.9" transform="translate(-46.31 101.02) rotate(-16.91)"/><ellipse class="cls-99" cx="316.62" cy="206.26" rx="17.26" ry="22.65" transform="translate(-46.31 101.03) rotate(-16.91)"/><ellipse class="cls-100" cx="316.62" cy="206.26" rx="17.07" ry="22.39" transform="translate(-46.31 101.02) rotate(-16.91)"/><ellipse class="cls-101" cx="316.62" cy="206.26" rx="16.87" ry="22.14" transform="translate(-46.31 101.02) rotate(-16.91)"/><ellipse class="cls-102" cx="316.62" cy="206.26" rx="16.68" ry="21.89" transform="matrix(0.96, -0.29, 0.29, 0.96, -46.31, 101.03)"/><ellipse class="cls-103" cx="316.62" cy="206.26" rx="16.49" ry="21.64" transform="translate(-46.31 101.02) rotate(-16.91)"/><ellipse class="cls-104" cx="316.62" cy="206.26" rx="16.3" ry="21.39" transform="matrix(0.96, -0.29, 0.29, 0.96, -46.31, 101.03)"/><ellipse class="cls-105" cx="316.62" cy="206.26" rx="16.11" ry="21.14" transform="translate(-46.31 101.02) rotate(-16.91)"/><ellipse class="cls-106" cx="316.62" cy="206.26" rx="15.92" ry="20.89" transform="translate(-46.31 101.02) rotate(-16.91)"/><ellipse class="cls-107" cx="316.62" cy="206.26" rx="15.72" ry="20.63" transform="translate(-46.31 101.02) rotate(-16.91)"/><path class="cls-108" d="M332.13,204.33c2.17,11-3,20.79-11.58,21.85s-17.27-7-19.44-18,3-20.79,11.58-21.85S330,193.33,332.13,204.33Z"/><ellipse class="cls-109" cx="316.62" cy="206.26" rx="15.34" ry="20.13" transform="translate(-46.31 101.03) rotate(-16.91)"/><ellipse class="cls-110" cx="316.62" cy="206.26" rx="15.15" ry="19.88" transform="translate(-46.31 101.02) rotate(-16.91)"/><path class="cls-111" d="M331.56,204.41c2.09,10.59-2.9,20-11.15,21s-16.63-6.74-18.72-17.34,2.9-20,11.14-21S329.46,193.81,331.56,204.41Z"/></g><path class="cls-115" d="M449.29,24.9l.33-.19a27.9,27.9,0,0,0-6.77-2.52c-3.13.88-4.39,1.62-7.71,2.68-9.89,3.17-23.47,3.58-34.95,2.54-12.3-1.11-22.89-6.13-34.32-10-5.78-2-11.54-4-17.43-5.61-12.63-3.49-27.39-6.67-40.55-4.92a42.61,42.61,0,0,0-4.48.85,8.92,8.92,0,0,0,.36,1.44c-2.4.16-4.58.34-6.58.52a79.18,79.18,0,0,0-7.68,3.41,39.74,39.74,0,0,0-12.42,9.69,10.55,10.55,0,0,1-.78,1.21,109.66,109.66,0,0,0,.71,13.3,70.61,70.61,0,0,1,8.69-5.49,37.74,37.74,0,0,1,10.49-3.63c15.57-2.71,30.95,1.59,45.88,5.52,6.11,1.61,12.37,3.57,18.95,5.31s13.37,3.46,20.43,4.67c11.89,2,26,1.58,37.26-2.58,1.52-.56,15.2-6.81,19.46-9.39S446.06,26.72,449.29,24.9Z"/><path class="cls-116" d="M357.3,130.36s-6.5,23.4,16.27,45.46L417,168.87s-.3-13.48-4.68-24.82C408.81,134.92,357.3,130.36,357.3,130.36Z"/><path class="cls-117" d="M287.33,155.65c-2,10.71.94,23.11.94,23.11l39.41,2c12.85-20,1.34-48.52,1.34-48.52S288.94,147.15,287.33,155.65Z"/><path class="cls-118" d="M396.89,156.09c-19,.15-23.24,19.31-23.24,19.31s4.27,4.66,24,2.8c18.2-1.71,19.33-9.33,19.33-9.33S415.91,155.93,396.89,156.09Z"/><path class="cls-118" d="M288.27,178.76S291.2,185,305,185.21c18.93.24,22.66-4.41,22.66-4.41a50.92,50.92,0,0,0-11.61-11.94C308,163.27,291.94,164.62,288.27,178.76Z"/><path class="cls-119" d="M329,245.81s1.78,5,5.07,5.67c4,.76,14.29-2.27,22.63-3.56,7.72-1.2,19.11-.15,23.9-3.39,3.79-2.56,3.71-7.66,3.3-8.16s-10.6-9.83-32.09-6.31C332.81,233.17,329,245.81,329,245.81Z"/><path class="cls-120" d="M315,184.8c1-5.39-.31-10.54-2.55-12.94-.73-.55-1.48-1.09-2.25-1.59a4.81,4.81,0,0,0-.84-.26c-4.46-1-9.2,3.87-10.58,10.87a18.23,18.23,0,0,0-.34,3.69,35.58,35.58,0,0,0,6.55.64A85.14,85.14,0,0,0,315,184.8Z"/><path class="cls-121" d="M397.69,178.2c.94-.09,1.82-.2,2.67-.32,1.6-8.28-1.89-15.11-6.31-16.25-4.69-1.19-9.58,4.39-10.92,12.47a22,22,0,0,0-.21,4.22A72.31,72.31,0,0,0,397.69,178.2Z"/><path class="cls-122" d="M302.62,163c-15,.83-14.35,15.81-14.35,15.81s3-6.94,14.49-8.16c12.59-1.34,25,10.18,25,10.18S322.91,161.83,302.62,163Z"/><path class="cls-123" d="M287.16,158.43c15-8.7,37.18-4.67,43.91-12.35,2.57-2.93-2.05-13.8-2.05-13.8C285,136.84,287.16,158.43,287.16,158.43Z"/><path class="cls-124" d="M357.3,130.36s-3.6,13.62,0,17c7,6.58,40.1-6,56.51,1.17C413.85,148.55,416.34,127.42,357.3,130.36Z"/><path class="cls-122" d="M392.63,154.73c-21.47,1.24-19,20.67-19,20.67s2.33-11.84,21-12.87S417,168.87,417,168.87C416.94,166,414.44,153.46,392.63,154.73Z"/><path class="cls-125" d="M463.24,163.21,447.76,163c1.23,18.78-.57,27.8-7,38.4-11.5,19-34.4,25.52-35,24.72-6.45-8.14-19.8-18.42-59.59-14.91-30.27,2.66-39.25,18.18-41.22,24.42-.17.54-11.18-4.23-16.63-13.88-3.57-6.32-3.83-21.89-3.83-21.89l-.73.37c-6.14,54,5.9,111.75,86.8,103.19,93-9.84,96.63-92.25,96.63-92.25C449.65,188.4,463.24,163.21,463.24,163.21Zm-71.95,86.4c-4.93,8.85-23.51,9.64-32,10.92-10.22,1.55-32.71,10.29-32.81-5-.06-9.16,11.07-17.76,29-20.06C379.83,232.36,396.21,240.75,391.29,249.61Z"/><path class="cls-114" d="M411.34,218.39l0,.07A.14.14,0,0,0,411.34,218.39Z"/><path class="cls-126" d="M311.63,179.54a4.52,4.52,0,0,1-3.65,4.82,3.75,3.75,0,0,1-4.31-3.57,4.53,4.53,0,0,1,3.65-4.82A3.76,3.76,0,0,1,311.63,179.54Z"/><path class="cls-126" d="M396.17,172.84a4.72,4.72,0,0,1-3.81,5,3.92,3.92,0,0,1-4.5-3.73,4.72,4.72,0,0,1,3.81-5A3.92,3.92,0,0,1,396.17,172.84Z"/><path class="cls-127" d="M320.77,218.16c2.66,4.18,9.82,11.4,26.52,8.28,15.41-2.88,20-10.84,21.35-15.77a151.62,151.62,0,0,0-22.51.49c-1.95.2-3.82.43-5.61.67A59.46,59.46,0,0,0,320.77,218.16Z"/><path class="cls-128" d="M302.84,177c-1.7,1.11-2.74,3.06-2.31,4.35s2.14,1.43,3.84.32,2.73-3.06,2.31-4.35S304.54,175.92,302.84,177Z"/><path class="cls-128" d="M386.85,171.57c-1.85,1.28-2.91,3.38-2.35,4.68s2.51,1.34,4.36.07,2.91-3.38,2.35-4.69S388.71,170.3,386.85,171.57Z"/><path class="cls-3" d="M344,170.43c.12,5.36.15,14-5.87,17.09-5.15,2.64-17.82.71-20,15.33-2.76,18.57,36.19,23.71,43.78,3.87,4.24-11.09-2.1-26.11-9.66-37.32Z"/><path class="cls-129" d="M334.22,207.78a76.44,76.44,0,0,1-16-.84c3,15.13,36.7,18.07,43.7-.22a19.75,19.75,0,0,0,1-3.91C354,206.22,343.53,207.39,334.22,207.78Z"/><path class="cls-130" d="M348.75,173.84l-4.29.53s.05,10.14-3,13.22c-1.12,1.13-3.67,2.06-6.06,2.33-7.1.78-12.73,3.14-12.46,6.22s6.27,5,13.41,4.6c6.7-.38,11.33-2.55,13.61-5.39C353.09,191.48,352.34,179.44,348.75,173.84Z"/><path class="cls-131" d="M428.18,42.79a112.2,112.2,0,0,1-47.21,26,53.93,53.93,0,0,1,11.24-1.15,12,12,0,0,1,6.89,2.82,102.06,102.06,0,0,0,33.75-23.37C435.25,44.54,430.79,40.42,428.18,42.79Z"/><path class="cls-132" d="M370.22,270.17c0,3.24-4.5,6.19-10.08,6.58S350,274.85,350,271.61s4.51-6.2,10.09-6.59S370.21,266.92,370.22,270.17Z"/></g></g></svg>