<svg xmlns="http://www.w3.org/2000/svg" xmlns:xlink="http://www.w3.org/1999/xlink" viewBox="0 0 2110.27 1688.04"><defs><style>.cls-1{fill:#ff4a4a;}.cls-2{fill:#ff8468;}.cls-3{fill:#d6dae5;}.cls-4{fill:#ff5f5c;}.cls-5,.cls-8{opacity:0.4;}.cls-6{fill:#302641;}.cls-109,.cls-114,.cls-122,.cls-14,.cls-7,.cls-8{fill:#fff;}.cls-9{fill:#e6e6e6;}.cls-10{fill:url(#Áåçûìÿííûé_ãðàäèåíò_5);}.cls-11{opacity:0.07;}.cls-12{fill:#563428;}.cls-13{opacity:0.18;}.cls-110,.cls-14{opacity:0.11;}.cls-15{fill:url(#Áåçûìÿííûé_ãðàäèåíò_10);}.cls-16{fill:#3b3b3b;}.cls-17{fill:url(#Áåçûìÿííûé_ãðàäèåíò_10-2);}.cls-18{fill:url(#Áåçûìÿííûé_ãðàäèåíò_10-3);}.cls-19{fill:#d6a98c;}.cls-20{opacity:0.1;}.cls-21{fill:#e9c5a6;}.cls-22{fill:#7c302a;}.cls-117,.cls-123,.cls-23{fill:#ff8768;}.cls-24{fill:#3e1208;}.cls-25{fill:#ff9a77;}.cls-26{opacity:0.44;}.cls-27{fill:#ff9976;}.cls-28{fill:#ff9876;}.cls-29{fill:#ff9775;}.cls-30{fill:#ff9675;}.cls-31{fill:#ff9574;}.cls-32{fill:#ff9473;}.cls-33{fill:#fe9373;}.cls-34{fill:#fe9272;}.cls-35{fill:#fe9172;}.cls-36{fill:#fe9071;}.cls-37{fill:#fe8f70;}.cls-38{fill:#fe8e70;}.cls-39{fill:#fe8d6f;}.cls-40{fill:#fe8c6f;}.cls-41{fill:#fe8b6e;}.cls-42{fill:#fe8a6d;}.cls-43{fill:#fe896d;}.cls-44{fill:#fe886c;}.cls-45{fill:#fe876c;}.cls-46{fill:#fe866b;}.cls-47{fill:#fd856a;}.cls-48{fill:#fd846a;}.cls-49{fill:#fd8369;}.cls-50{fill:#fd8268;}.cls-51{fill:#fd8168;}.cls-52{fill:#fd8067;}.cls-53{fill:#fd7f67;}.cls-54{fill:#fd7e66;}.cls-55{fill:#fd7d65;}.cls-56{fill:#fd7c65;}.cls-57{fill:#fd7b64;}.cls-58{fill:#fd7a64;}.cls-59{fill:#fd7963;}.cls-60{fill:#fc7862;}.cls-61{fill:#fc7762;}.cls-62{fill:#fc7661;}.cls-63{fill:#fc7561;}.cls-64{fill:#fc7460;}.cls-65{fill:#fc735f;}.cls-66{fill:#fc725f;}.cls-67{fill:#fc725e;}.cls-68{fill:#fc715e;}.cls-69{fill:#fc705d;}.cls-70{fill:#fc6f5c;}.cls-71{fill:#fc6e5c;}.cls-72{fill:#fc6d5b;}.cls-73{fill:#fc6c5b;}.cls-74{fill:#fb6b5a;}.cls-75{fill:#fb6a59;}.cls-76{fill:#fb6959;}.cls-77{fill:#fb6858;}.cls-78{fill:#fb6758;}.cls-79{fill:#fb6657;}.cls-80{fill:#fb6556;}.cls-81{fill:#fb6456;}.cls-82{fill:#fb6355;}.cls-83{fill:#fb6255;}.cls-84{fill:#fb6154;}.cls-85{fill:#fb6053;}.cls-86{fill:#fb5f53;}.cls-87{fill:#fa5e52;}.cls-88{fill:#fa5d51;}.cls-89{fill:#fa5c51;}.cls-90{fill:#fa5b50;}.cls-91{fill:#fa5a50;}.cls-92{fill:#fa594f;}.cls-93{fill:#fa584e;}.cls-94{fill:#fa574e;}.cls-95{fill:#fa564d;}.cls-96{fill:#fa554d;}.cls-97{fill:#fa544c;}.cls-98{fill:#fa534b;}.cls-99{fill:#fa524b;}.cls-100{fill:#fa514a;}.cls-101{fill:#f9504a;}.cls-102{fill:#f94f49;}.cls-103{fill:#f94e48;}.cls-104{fill:#f94d48;}.cls-105{fill:#f94c47;}.cls-106{fill:#f94b47;}.cls-107{fill:#f94a46;}.cls-108{fill:#472a21;}.cls-109{opacity:0.12;}.cls-110{fill:#fc901e;}.cls-111{fill:url(#Áåçûìÿííûé_ãðàäèåíò_29);}.cls-112{fill:#ff294b;opacity:0.17;}.cls-113{fill:#b7a595;opacity:0.33;}.cls-114{opacity:0.2;}.cls-115{fill:#59362d;}.cls-116{opacity:0.16;}.cls-117{opacity:0.53;}.cls-118,.cls-121{opacity:0.15;}.cls-119{fill:url(#Áåçûìÿííûé_ãðàäèåíò_9);}.cls-120{fill:url(#Áåçûìÿííûé_ãðàäèåíò_9-2);}.cls-122{opacity:0.8;}.cls-123{opacity:0.35;}</style><linearGradient id="Áåçûìÿííûé_ãðàäèåíò_5" x1="1727.29" y1="1399.75" x2="1934.07" y2="1399.75" gradientUnits="userSpaceOnUse"><stop offset="0" stop-color="#4ca674"/><stop offset="1" stop-color="#397353"/></linearGradient><linearGradient id="Áåçûìÿííûé_ãðàäèåíò_10" x1="1683.75" y1="1522.13" x2="837.56" y2="1572.23" gradientUnits="userSpaceOnUse"><stop offset="0" stop-color="#a4b1ba"/><stop offset="1" stop-color="#494f53"/></linearGradient><linearGradient id="Áåçûìÿííûé_ãðàäèåíò_10-2" x1="406.13" y1="1241.41" x2="573.14" y2="1675.64" xlink:href="#Áåçûìÿííûé_ãðàäèåíò_10"/><linearGradient id="Áåçûìÿííûé_ãðàäèåíò_10-3" x1="179.11" y1="1081.58" x2="765.56" y2="1681.73" xlink:href="#Áåçûìÿííûé_ãðàäèåíò_10"/><radialGradient id="Áåçûìÿííûé_ãðàäèåíò_29" cx="1186.28" cy="652.76" r="155.19" gradientUnits="userSpaceOnUse"><stop offset="0" stop-color="#931c2d"/><stop offset="0.12" stop-color="#851929"/><stop offset="0.35" stop-color="#5f121d"/><stop offset="0.66" stop-color="#24070b"/><stop offset="0.84"/></radialGradient><linearGradient id="Áåçûìÿííûé_ãðàäèåíò_9" x1="1076.2" y1="475.96" x2="1113.51" y2="437.73" gradientUnits="userSpaceOnUse"><stop offset="0" stop-color="#673030"/><stop offset="1"/></linearGradient><linearGradient id="Áåçûìÿííûé_ãðàäèåíò_9-2" x1="1282.26" y1="476.05" x2="1319.58" y2="437.8" xlink:href="#Áåçûìÿííûé_ãðàäèåíò_9"/></defs><g id="Layer_2" data-name="Layer 2"><g id="Ñëîé_1" data-name="Ñëîé 1"><path class="cls-1" d="M1145.75,733.44s153.12-47.21,206.7-24.43,16,82.28,16,82.28Z"/><path class="cls-2" d="M1358,943.45V757.18a813.08,813.08,0,0,0-112.73-10c-70-1-134.56,14.4-189.28,35.65V943.45Z"/><path class="cls-3" d="M1371.94,756.54c-14.67-2.22-24.84-3.33-39.38-4.46-.41,14.49,4.32,64.92-19.85,93.23-37,43.32-139.43,64.08-189.25,27.59-42.4-31-11.85-97.5-9.86-108.88-25.42,3.82-52.61,13.88-75.69,24.7l11,811.92,334,6Z"/><path class="cls-4" d="M1634.16,866.54c-13.43-19.63-25.22-77.95-144.72-101.59-16.43-3.25-77.24-12.47-77.24-12.47s-29.08-47.78-89.4-57.1c34,45.89,22.22,123.81,11.21,159.77-63.49,207.38-81.27,422.79-109.47,737.69l381.79,13.69S1655.4,897.58,1634.16,866.54Z"/><path class="cls-4" d="M1634.16,866.54c-13.43-19.63-25.22-77.95-144.72-101.59-16.43-3.25-77.24-12.47-77.24-12.47s-29.08-47.78-89.4-57.1c34,45.89,22.22,123.81,11.21,159.77-63.49,207.38-81.27,422.79-109.47,737.69l381.79,13.69S1655.4,897.58,1634.16,866.54Z"/><path class="cls-4" d="M1112.42,731.41c-48.8,2.75-109.29,60.58-109.29,60.58-13.6,6.1-32.51,14.81-44.54,21.28-59.87,32.23-99.2,66.58-107.86,78.58-18.1,25,4.16,714.68,4.16,714.68l249.86-15.64c1.42-174.84,2.47-244.39-2.11-317.7-10.91-137.38-48.08-274.81-53.59-421.7-2.08-55.67,66-88,66-88S1115,743,1112.42,731.41Z"/><path class="cls-4" d="M1049.05,851.49c-2.08-55.67,66-88,66-88s0-20.49-2.6-32.12c-48.8,2.75-109.29,60.58-109.29,60.58-.09.24-15.06-.13-16.38-.37-6.92-1.26-13.06-8-18.56-12.24-2.74-2.09-5.64-4.25-9.06-4.7-12.91-1.74-20.14,20.55-32.87,17.77-5.92-1.29-9.61-7.83-15.53-9.07-10-2.09-17.41,11.71-27.61,11.22-6.31-.3-11.16-6.06-17.4-7.1-5.16-.86-7.38,2-11.29,4.34-4.54,2.68-5.87-4.57-12.5-4.76C804.8,786,625,656.39,569.8,650c-160-18.4-265.86,141.25-170.59,245,68,74.06,285.71,190,445,241.47,2.23,207.07,10.72,470,10.72,470l249.86-15.64c1.42-174.84,2.47-244.39-2.11-317.7C1091.73,1135.81,1054.56,998.38,1049.05,851.49Z"/><g class="cls-5"><path class="cls-6" d="M1112.59,731.41a81.63,81.63,0,0,0-17.45,3.09v41.32a132.77,132.77,0,0,1,20.13-12.29S1115.19,743,1112.59,731.41Z"/><path class="cls-6" d="M366.14,780a114.08,114.08,0,0,0,0,52Z"/><path class="cls-6" d="M574.14,650.69c-2-.27-2.74-.51-4-.65-36.8-4.23-71,1-100,12.71V953.17a1151.46,1151.46,0,0,0,104,63.62Z"/><path class="cls-6" d="M782.14,760.79c-31-17.14-69-40-104-60.61v369.51c35,16.32,70,31.47,104,44.59Z"/><path class="cls-6" d="M1102.8,1273.19c-1.9-24-4.66-48.06-7.66-72.15v390.47l9.86-.62C1106.42,1416.05,1107.39,1346.5,1102.8,1273.19Z"/><path class="cls-6" d="M991.14,791.85c-2-.07-3.83-.16-4.22-.23-6.93-1.26-13.14-8-18.65-12.24-2.74-2.09-5.68-4.25-9.09-4.7-12.92-1.74-20.17,20.55-32.9,17.77-5.92-1.29-9.45-7.83-15.38-9.07-8.75-1.83-15.76,8.53-23.76,10.8v810.35l104-6.51Z"/></g><g class="cls-5"><path class="cls-6" d="M848.44,1372h257.38c-.32-37.72-1.25-68-3.18-98.85-.17-2-.35-4.15-.53-6.15H846.18C846.87,1303,847.65,1338.23,848.44,1372Z"/><path class="cls-6" d="M399.21,895c16.56,18,42,38.55,73.31,60h585.1c-4.13-34.07-7.25-68.54-8.57-103.55V851H371.46A139,139,0,0,0,399.21,895Z"/><path class="cls-6" d="M851.08,1476c1.21,45,2.28,81,3,104h250.78c.32-40,.63-74,.83-104Z"/><path class="cls-6" d="M1066.67,746h47.67a113,113,0,0,0-1.92-14.63C1097.57,732.25,1081.65,738,1066.67,746Z"/><path class="cls-6" d="M655.48,1059c63.91,31,130.23,58.59,188.69,77.46q.15,13.14.32,26.54h244.9c-5.19-34.46-11-69-16.68-104Z"/><path class="cls-6" d="M377.51,746H756c-66.9-39-151.33-92-186.16-96C480,639.71,407.19,685,377.51,746Z"/></g><path class="cls-4" d="M1899.12,652.59c-28.41,11.39-40.89,37.3-68.8,49.86-39.59,17.82-79.67,34.71-120.81,48.63a669.32,669.32,0,0,1-64.35,18.54c-15.72,3.62-44.26,13-57.11-1.16-2-2.22-3.73-5-6.51-6.11-7.75-3.21-15,8.18-23.27,7-.71-10.14-13.67-17.13-22.53-12.14-2.91,1.64-5.23,4.21-8.2,5.73s-7.2,1.6-9.09-1.15a16.61,16.61,0,0,1-1.33-3c-2.62-6.17-10.41-8.59-17-7.63s-12.57,4.46-18.75,7.06c-13.46,5.66-28.79.45-42.66-1.72q-13.23-2.07-26.47-4.08s-29.08-47.78-89.4-57.11c34,45.9,22.22,123.82,11.21,159.78-63.49,207.38-81.27,422.79-109.47,737.69l381.79,13.69s19.36-292.38,28.86-504.08c16.89,4.19,350.28-51.08,432.95-238.41,31.24-70.8,25.91-106.66-11.34-157C1999.8,630,1928.33,640.88,1899.12,652.59Z"/><g class="cls-5"><path class="cls-6" d="M1330.14,869.15v727.47l104,3.73V755.81c-8-1.12-14.4-2.24-21.6-3.33,0,0-27.4-44.07-82.4-55.82v9.75c25,46.51,14.37,115.52,4.2,148.74C1332.92,859.81,1331.14,864.48,1330.14,869.15Z"/><path class="cls-6" d="M1643.14,770.18c-16,3.91-42.69,11.74-54.92-1.72-2-2.22-3.82-5-6.6-6.12-7.74-3.2-14.84,8.19-23.15,7-.62-9-11.33-15.54-19.33-13.36v848.08l67.36,2.42s19.44-292.38,28.94-504.08c1.14.28,3.7.29,7.7,0Z"/><path class="cls-6" d="M1851.14,689.39a89.13,89.13,0,0,1-20.48,13.06c-27.54,12.39-55.52,24.34-83.52,35.15v343.77a900,900,0,0,0,104-35.87Z"/><path class="cls-6" d="M2060.14,881V711.17c-1-1.37-2-2.74-3-4.13-32.82-44.35-71-59.56-102-62.25V990.16C1998.14,960.81,2036.14,924.76,2060.14,881Z"/></g><g class="cls-5"><path class="cls-6" d="M1830.32,702.45c-39.59,17.82-79.67,34.71-120.81,48.63a669.32,669.32,0,0,1-64.35,18.54c-15.72,3.62-44.26,13-57.11-1.16-2-2.22-3.73-5-6.51-6.12-7.75-3.2-15,8.19-23.27,7-.71-10.14-13.67-17.13-22.53-12.14-2.91,1.64-5.23,4.21-8.2,5.73s-7.2,1.6-9.09-1.15a16.61,16.61,0,0,1-1.33-3c-2.62-6.17-10.41-8.59-17-7.63s-12.57,4.46-18.75,7.06c-13.46,5.66-28.79.45-42.66-1.72q-13.23-2.07-26.47-4.08S1384.36,707,1326.66,696h-3.38c20.65,28,24.06,69,21.06,104h743.38c3.91-34-6.8-60.4-30.92-93a108.12,108.12,0,0,0-8.74-11h-206.2C1838.29,698,1834.48,700.58,1830.32,702.45Z"/><path class="cls-6" d="M1319.64,905c-9.22,34-17.34,69-24.61,104h629.6c47.19-27,90.31-62,120.17-104Z"/><path class="cls-6" d="M1248.82,1426h368.85q3-49.5,6.17-105H1250c-8.61,83-16.49,172.21-25.41,271.8l381.79,13.69s2-29.49,4.92-76.49H1248.31c.14-30,.28-59.17.43-88.82C1248.77,1436.13,1248.79,1431,1248.82,1426Z"/><path class="cls-6" d="M1276.28,1113c-5.29,34-10.08,68-14.54,104h367.82c1.87-36,3.62-71,5.15-104Z"/></g><g class="cls-5"><path class="cls-7" d="M498.47,899.49h-1.55c-44.51-.27-77.95-12.23-96.71-34.58s-27.11-47-24.46-73c5.53-54.12,56.18-94.73,58.33-96.44l7.45,9.41h0c-.65.52-48.87,39.34-53.84,88.29-2.29,22.58,5,44.11,21.72,64,20.75,24.73,59.09,30.13,87.59,30.3,66.35.41,148.69-27.34,176.26-59.38,40.08-46.57,20.08-93.81,19.87-94.28l11-4.82c.25.56,6,14,6.22,33.92.17,18.27-4.55,45.78-28,73-14.09,16.38-42.22,32.69-77.17,44.76C570,892.82,532.16,899.49,498.47,899.49Z"/></g><g class="cls-5"><path class="cls-7" d="M670.62,907.67,663,898.41c40.8-33.6,61-71.47,59.93-112.53-.76-30.44-13.36-51.11-13.48-51.31l10.2-6.32c.59,1,14.43,23.68,15.28,57.32C735.7,816.47,725.17,862.74,670.62,907.67Z"/></g><path class="cls-8" d="M991.43,791.87c-12.07,24.68-34.2,79.31-26.21,135.24l.69,4.85,4.89-.39c.67-.05,61.13-3.55,96.84,95.42q-3-19.17-5.66-38.49c-12.43-22.79-27.48-40.23-45.12-52C998.7,924.32,982.77,921.7,975,921.22c-6.17-54.75,17.83-109,28.12-129.23C1003,792.15,996.25,792,991.43,791.87Z"/><path class="cls-8" d="M1365.57,955.62c33.14-15.64,63.44-14.19,63.73-14.18l4.7.27.75-4.65c15-93,1.3-152.6-9.88-182.64l-12-1.84c10.54,25.9,26.67,84.25,12.31,178.38a160.09,160.09,0,0,0-63.58,15c-21.37,10-46.76,28.1-66,60.73q-5.16,24.94-9.79,50.46C1299.07,1008.51,1325.85,974.36,1365.57,955.62Z"/><path class="cls-8" d="M2074.79,797.86c-3-44.37-24.19-73-41.45-89.21-18.7-17.55-36.63-24.57-37.38-24.86l-4.31,11.2c.66.25,66,26.26,71.17,103.68,2.59,38.59-17.47,78-51.1,100.48-24.29,16.21-76.8,37.59-155.51-1.48-51.68-25.65-84.6-58.55-95.21-95.14a91.28,91.28,0,0,1-3.58-30.36C1764.34,759,1772.5,753,1772.61,753l-6.87-9.84a54.54,54.54,0,0,0-10,9.82l-.94-.35-5.61-2.13a72.92,72.92,0,0,0-3.62,18.52,93.24,93.24,0,0,0-5.27,13.55c-10.69,35.43-2.77,79.05,23.54,129.68l10.65-5.53c-20.49-39.43-29.33-75.14-26-104.42.23.92.48,1.85.74,2.78,5.07,18,14.86,35.19,29.11,51.06,17.54,19.54,42,37.14,72.53,52.32,31.13,15.46,61.5,23.28,90.34,23.28q2,0,4.08-.06c26.8-.69,52.07-8.47,73.09-22.5A128.68,128.68,0,0,0,2062,859.81,120.58,120.58,0,0,0,2074.79,797.86Z"/><path class="cls-8" d="M844.55,1151c0-57,5.05-127.14,5.1-127.83l-10.4-.8c0,.62-4.16,57-5,110.83q5,1.66,9.91,3.26.08,7.23.17,14.53h.21Z"/><path class="cls-8" d="M1645.33,1102.25c-.55-38.71-1.33-69.63-1.34-97.66l-10.44.27c0,28.05.86,61.59,1.42,102.52.07-1.65.14-3.29.22-4.93C1636.56,1102.79,1640.06,1102.74,1645.33,1102.25Z"/><path class="cls-2" d="M1197.8,543h0c-59.57,1.48-102,24.36-95.71,60.93,0,0,12.93,139.6,3.36,188.1-7.18,36.41,76.86,51.15,136.43,49.66s87.29-21.19,90.45-58.17c5.07-59.3-23.55-173.81-23.55-173.81C1302.52,573.08,1257.37,541.47,1197.8,543Z"/><path class="cls-8" d="M1060.62,1214.42l-.1-4.06-163.48,5,.21,4.37c2.12,44.25,7.81,148,14.65,155.21s60.22,28.74,70.85,33l1.66.66,1.65-.76c20.91-9.7,70-33.2,73.87-42.1C1063.68,1357.14,1061.4,1247.75,1060.62,1214.42Zm-8.26,4.53c.18,8.22.37,17.13.53,26.36l-145.66,5c-.51-9-1-18-1.42-26.92Zm-.07,143.57c-3.53,5-36.84,22.49-67.89,37-25.39-10.17-61.43-25.73-66.17-30.22-3.13-6.15-7.32-56.15-10.52-110.58l145.32-5C1053.83,1302.13,1054.1,1356,1052.29,1362.52Z"/><path class="cls-8" d="M1518.73,1211.63l-183.94-.82-.3,3.85c-5.42,71.17-11.31,157-8.6,162.29.88,1.71,3.56,6.86,95.08,32.37l1.71.46,1.61-.9c11.8-6.45,71-39.06,77.22-49.94,4.11-7.21,9.63-61.9,13.34-100.9h.23l.5-8h0c1.31-16,2.37-28.15,2.85-34.18Zm-24.62,143c-3.24,5.69-38.89,27.78-72.08,46-39.37-11-81.73-24.55-88.35-28.64-.85-8.81,2.63-64.68,6.26-116l166.4.74C1502.22,1301.91,1497.09,1349.16,1494.11,1354.65ZM1340.52,1247.8c.74-10.27,1.5-20.53,2.13-28.74l166.93.74c-.69,8.21-1.56,18.48-2.49,28.74Z"/><polygon class="cls-9" points="1725.37 1272.04 1750.53 1571.05 1909.27 1572.17 1936.01 1272.04 1725.37 1272.04"/><polygon class="cls-10" points="1918.72 1485.83 1934.07 1313.72 1727.29 1313.67 1741.81 1485.79 1918.72 1485.83"/><polygon class="cls-11" points="1934.03 1295.04 1935.72 1278.04 1725.64 1278.04 1727.24 1295.04 1934.03 1295.04"/><path class="cls-12" d="M1932.24,1263.69H1729.41l6.78-35.22a14.31,14.31,0,0,1,14-11.59h163.58a12.64,12.64,0,0,1,12.51,10.6Z"/><polygon class="cls-13" points="1732.25 1248.94 1729.4 1263.69 1932.24 1263.69 1929.82 1248.94 1732.25 1248.94"/><path class="cls-12" d="M1943.59,1277.62H1717.24a4.12,4.12,0,0,1-4.08-4.7l1.91-13.49a4.13,4.13,0,0,1,4.09-3.54h222.89a4.12,4.12,0,0,1,4.1,3.65l1.54,13.49A4.12,4.12,0,0,1,1943.59,1277.62Z"/><polygon class="cls-14" points="1853.54 1486.06 1842.57 1313.48 1760.45 1313.48 1771.46 1486.06 1853.54 1486.06"/><path class="cls-15" d="M1321.25,1548.59l-460.48-4.43a13,13,0,0,0-.15,26l461.55,0c7.15,0,12.56-3.11,12.61-10.27S1328.41,1548.63,1321.25,1548.59Z"/><path class="cls-16" d="M930.92,1550.15l-24.17-.14a6,6,0,0,0-.07,12.08l24.17.14a6,6,0,1,0,.07-12.08Z"/><path class="cls-16" d="M988.09,1550.48l-24.17-.14a6,6,0,1,0-.07,12.08l24.17.15a6,6,0,0,0,.07-12.09Z"/><path class="cls-16" d="M1099.84,1557.18a6.06,6.06,0,0,0-6-6.08l-53.45-.31a6,6,0,1,0-.07,12.08l53.45.31a6.06,6.06,0,0,0,6.08-6Z"/><path class="cls-17" d="M664.33,1122.58a22.63,22.63,0,0,0-20.3-12.64l-608.77-.58A22.67,22.67,0,0,0,14.91,1142l204.51,415a22.67,22.67,0,0,0,20.31,12.64l612.94.57A22.66,22.66,0,0,0,873,1537.53Z"/><path class="cls-18" d="M656,1122.57a22.68,22.68,0,0,0-20.31-12.65l-612.94-.57A22.67,22.67,0,0,0,2.36,1142l204.51,415a22.66,22.66,0,0,0,20.31,12.65l612.94.57a22.66,22.66,0,0,0,20.34-32.68Z"/><path class="cls-19" d="M28.19,1625.89v49A13.11,13.11,0,0,0,41.3,1688H2097.86a12.4,12.4,0,0,0,12.41-12.41v-50.44a12.41,12.41,0,0,0-12.41-12.41H41.3A13.11,13.11,0,0,0,28.19,1625.89Z"/><path class="cls-20" d="M28.19,1625.89v49A13.11,13.11,0,0,0,41.3,1688H2097.86a12.4,12.4,0,0,0,12.41-12.41v-50.44a12.41,12.41,0,0,0-12.41-12.41H41.3A13.11,13.11,0,0,0,28.19,1625.89Z"/><path class="cls-19" d="M28.19,1580.29v65a13.11,13.11,0,0,0,13.11,13.11H2097.86a12.41,12.41,0,0,0,12.41-12.42V1579.6a12.4,12.4,0,0,0-12.41-12.41H41.3A13.11,13.11,0,0,0,28.19,1580.29Z"/><path class="cls-21" d="M1910.4,1567.19H41.3a13.11,13.11,0,0,0-13.11,13.1v65a13.11,13.11,0,0,0,13.11,13.11H1910.4a14.42,14.42,0,0,0,14.38-14.38v-62.43A14.42,14.42,0,0,0,1910.4,1567.19Z"/><path class="cls-22" d="M1270.76,570.93a1.09,1.09,0,0,1,0,.19A.88.88,0,0,0,1270.76,570.93Z"/><path class="cls-23" d="M972.48,435.66c-24.23,7.82-35.3,43.09-24.72,78.76s38.79,58.26,63,50.43,35.3-43.09,24.72-78.77S996.71,427.83,972.48,435.66Z"/><path class="cls-24" d="M1119.72,110.64s0-.41-.11-1.08C1119.67,110.25,1119.72,110.64,1119.72,110.64Z"/><path class="cls-25" d="M1416.36,479.34c.75-86.65-13.3-193.32-30.59-257.94-13.17-84-249.67-124.95-320-10.12-22.52,53.32-57.23,149.84-69.82,248.83,0-1.06,0-1.69,0-1.69S930,721.52,1164.35,739.21s261.13-105.8,252-259.89Z"/><g class="cls-26"><ellipse class="cls-25" cx="1077.57" cy="510.08" rx="91.8" ry="84.28" transform="translate(546.75 1577.59) rotate(-88.89)"/><ellipse class="cls-27" cx="1077.57" cy="510.08" rx="91.23" ry="83.76" transform="matrix(0.02, -1, 1, 0.02, 546.75, 1577.59)"/><ellipse class="cls-28" cx="1077.57" cy="510.08" rx="90.66" ry="83.23" transform="translate(546.75 1577.59) rotate(-88.89)"/><ellipse class="cls-29" cx="1077.57" cy="510.08" rx="90.1" ry="82.71" transform="translate(546.75 1577.59) rotate(-88.89)"/><ellipse class="cls-30" cx="1077.57" cy="510.08" rx="89.53" ry="82.19" transform="translate(546.75 1577.59) rotate(-88.89)"/><ellipse class="cls-31" cx="1077.57" cy="510.08" rx="88.96" ry="81.67" transform="translate(546.75 1577.59) rotate(-88.89)"/><ellipse class="cls-32" cx="1077.57" cy="510.08" rx="88.4" ry="81.15" transform="matrix(0.02, -1, 1, 0.02, 546.75, 1577.59)"/><ellipse class="cls-33" cx="1077.57" cy="510.08" rx="87.83" ry="80.63" transform="matrix(0.02, -1, 1, 0.02, 546.75, 1577.59)"/><ellipse class="cls-34" cx="1077.57" cy="510.08" rx="87.26" ry="80.11" transform="translate(546.75 1577.59) rotate(-88.89)"/><ellipse class="cls-35" cx="1077.57" cy="510.08" rx="86.7" ry="79.59" transform="translate(546.75 1577.59) rotate(-88.89)"/><ellipse class="cls-36" cx="1077.57" cy="510.08" rx="86.13" ry="79.07" transform="translate(546.75 1577.59) rotate(-88.89)"/><ellipse class="cls-37" cx="1077.57" cy="510.08" rx="85.56" ry="78.55" transform="translate(546.75 1577.59) rotate(-88.89)"/><ellipse class="cls-38" cx="1077.57" cy="510.08" rx="85" ry="78.03" transform="translate(546.74 1577.59) rotate(-88.89)"/><ellipse class="cls-39" cx="1077.57" cy="510.08" rx="84.43" ry="77.51" transform="translate(546.74 1577.58) rotate(-88.89)"/><ellipse class="cls-40" cx="1077.57" cy="510.08" rx="83.86" ry="76.99" transform="translate(546.75 1577.59) rotate(-88.89)"/><ellipse class="cls-41" cx="1077.57" cy="510.08" rx="83.3" ry="76.47" transform="translate(546.75 1577.59) rotate(-88.89)"/><ellipse class="cls-42" cx="1077.57" cy="510.08" rx="82.73" ry="75.95" transform="translate(546.75 1577.59) rotate(-88.89)"/><ellipse class="cls-43" cx="1077.57" cy="510.08" rx="82.16" ry="75.43" transform="translate(546.75 1577.59) rotate(-88.89)"/><ellipse class="cls-44" cx="1077.57" cy="510.08" rx="81.6" ry="74.91" transform="translate(546.75 1577.59) rotate(-88.89)"/><ellipse class="cls-45" cx="1077.57" cy="510.08" rx="81.03" ry="74.39" transform="translate(546.74 1577.59) rotate(-88.89)"/><ellipse class="cls-46" cx="1077.57" cy="510.08" rx="80.46" ry="73.87" transform="matrix(0.02, -1, 1, 0.02, 546.74, 1577.59)"/><ellipse class="cls-47" cx="1077.57" cy="510.08" rx="79.9" ry="73.35" transform="matrix(0.02, -1, 1, 0.02, 546.74, 1577.59)"/><ellipse class="cls-48" cx="1077.57" cy="510.08" rx="79.33" ry="72.83" transform="translate(546.75 1577.59) rotate(-88.89)"/><ellipse class="cls-49" cx="1077.57" cy="510.08" rx="78.76" ry="72.31" transform="translate(546.74 1577.58) rotate(-88.89)"/><ellipse class="cls-50" cx="1077.57" cy="510.08" rx="78.2" ry="71.79" transform="translate(546.74 1577.59) rotate(-88.89)"/><ellipse class="cls-51" cx="1077.57" cy="510.08" rx="77.63" ry="71.27" transform="translate(546.74 1577.58) rotate(-88.89)"/><ellipse class="cls-52" cx="1077.57" cy="510.08" rx="77.06" ry="70.75" transform="translate(546.73 1577.58) rotate(-88.89)"/><ellipse class="cls-53" cx="1077.57" cy="510.08" rx="76.5" ry="70.23" transform="translate(546.74 1577.58) rotate(-88.89)"/><ellipse class="cls-54" cx="1077.57" cy="510.08" rx="75.93" ry="69.71" transform="translate(546.74 1577.59) rotate(-88.89)"/><ellipse class="cls-55" cx="1077.57" cy="510.08" rx="75.36" ry="69.19" transform="translate(546.75 1577.59) rotate(-88.89)"/><ellipse class="cls-56" cx="1077.57" cy="510.08" rx="74.8" ry="68.67" transform="translate(546.74 1577.58) rotate(-88.89)"/><ellipse class="cls-57" cx="1077.57" cy="510.08" rx="74.23" ry="68.15" transform="matrix(0.02, -1, 1, 0.02, 546.74, 1577.58)"/><ellipse class="cls-58" cx="1077.57" cy="510.08" rx="73.66" ry="67.63" transform="translate(546.74 1577.59) rotate(-88.89)"/><ellipse class="cls-59" cx="1077.57" cy="510.08" rx="73.1" ry="67.11" transform="translate(546.73 1577.58) rotate(-88.89)"/><ellipse class="cls-60" cx="1077.57" cy="510.08" rx="72.53" ry="66.59" transform="translate(546.74 1577.58) rotate(-88.89)"/><ellipse class="cls-61" cx="1077.57" cy="510.08" rx="71.96" ry="66.07" transform="translate(546.73 1577.58) rotate(-88.89)"/><ellipse class="cls-62" cx="1077.57" cy="510.08" rx="71.4" ry="65.55" transform="translate(546.74 1577.58) rotate(-88.89)"/><ellipse class="cls-63" cx="1077.57" cy="510.08" rx="70.83" ry="65.03" transform="translate(546.73 1577.58) rotate(-88.89)"/><ellipse class="cls-64" cx="1077.57" cy="510.08" rx="70.26" ry="64.51" transform="translate(546.73 1577.58) rotate(-88.89)"/><ellipse class="cls-65" cx="1077.57" cy="510.08" rx="69.7" ry="63.99" transform="translate(546.73 1577.58) rotate(-88.89)"/><ellipse class="cls-66" cx="1077.57" cy="510.08" rx="69.13" ry="63.47" transform="translate(546.72 1577.58) rotate(-88.89)"/><ellipse class="cls-67" cx="1077.57" cy="510.08" rx="68.56" ry="62.95" transform="translate(546.74 1577.58) rotate(-88.89)"/><ellipse class="cls-68" cx="1077.57" cy="510.08" rx="68" ry="62.43" transform="translate(546.74 1577.58) rotate(-88.89)"/><ellipse class="cls-69" cx="1077.57" cy="510.08" rx="67.43" ry="61.91" transform="matrix(0.02, -1, 1, 0.02, 546.74, 1577.58)"/><ellipse class="cls-70" cx="1077.57" cy="510.08" rx="66.86" ry="61.39" transform="translate(546.73 1577.58) rotate(-88.89)"/><ellipse class="cls-71" cx="1077.57" cy="510.08" rx="66.3" ry="60.87" transform="translate(546.73 1577.58) rotate(-88.89)"/><ellipse class="cls-72" cx="1077.57" cy="510.08" rx="65.73" ry="60.35" transform="translate(546.73 1577.58) rotate(-88.89)"/><ellipse class="cls-73" cx="1077.57" cy="510.08" rx="65.16" ry="59.83" transform="translate(546.73 1577.58) rotate(-88.89)"/><ellipse class="cls-74" cx="1077.57" cy="510.08" rx="64.6" ry="59.3" transform="translate(546.72 1577.58) rotate(-88.89)"/><ellipse class="cls-75" cx="1077.57" cy="510.08" rx="64.03" ry="58.78" transform="translate(546.73 1577.58) rotate(-88.89)"/><ellipse class="cls-76" cx="1077.57" cy="510.08" rx="63.46" ry="58.26" transform="translate(546.72 1577.58) rotate(-88.89)"/><ellipse class="cls-77" cx="1077.57" cy="510.08" rx="62.9" ry="57.74" transform="translate(546.72 1577.58) rotate(-88.89)"/><ellipse class="cls-78" cx="1077.57" cy="510.08" rx="62.33" ry="57.22" transform="translate(546.72 1577.57) rotate(-88.89)"/><ellipse class="cls-79" cx="1077.57" cy="510.08" rx="61.76" ry="56.7" transform="translate(546.73 1577.58) rotate(-88.89)"/><ellipse class="cls-80" cx="1077.57" cy="510.08" rx="61.2" ry="56.18" transform="translate(546.74 1577.58) rotate(-88.89)"/><ellipse class="cls-81" cx="1077.57" cy="510.08" rx="60.63" ry="55.66" transform="translate(546.72 1577.58) rotate(-88.89)"/><ellipse class="cls-82" cx="1077.57" cy="510.08" rx="60.06" ry="55.14" transform="translate(546.73 1577.58) rotate(-88.89)"/><ellipse class="cls-83" cx="1077.57" cy="510.08" rx="59.5" ry="54.62" transform="translate(546.72 1577.58) rotate(-88.89)"/><ellipse class="cls-84" cx="1077.57" cy="510.08" rx="58.93" ry="54.1" transform="translate(546.72 1577.57) rotate(-88.89)"/><ellipse class="cls-85" cx="1077.57" cy="510.08" rx="58.36" ry="53.58" transform="translate(546.72 1577.58) rotate(-88.89)"/><ellipse class="cls-86" cx="1077.57" cy="510.08" rx="57.8" ry="53.06" transform="translate(546.72 1577.57) rotate(-88.89)"/><ellipse class="cls-87" cx="1077.57" cy="510.08" rx="57.23" ry="52.54" transform="translate(546.72 1577.58) rotate(-88.89)"/><ellipse class="cls-88" cx="1077.57" cy="510.08" rx="56.66" ry="52.02" transform="translate(546.71 1577.57) rotate(-88.89)"/><ellipse class="cls-89" cx="1077.57" cy="510.08" rx="56.1" ry="51.5" transform="translate(546.71 1577.57) rotate(-88.89)"/><ellipse class="cls-90" cx="1077.57" cy="510.08" rx="55.53" ry="50.98" transform="translate(546.72 1577.57) rotate(-88.89)"/><ellipse class="cls-91" cx="1077.57" cy="510.08" rx="54.96" ry="50.46" transform="translate(546.71 1577.57) rotate(-88.89)"/><ellipse class="cls-92" cx="1077.57" cy="510.08" rx="54.4" ry="49.94" transform="translate(546.72 1577.57) rotate(-88.89)"/><ellipse class="cls-93" cx="1077.57" cy="510.08" rx="53.83" ry="49.42" transform="matrix(0.02, -1, 1, 0.02, 546.72, 1577.57)"/><ellipse class="cls-94" cx="1077.57" cy="510.08" rx="53.26" ry="48.9" transform="translate(546.72 1577.58) rotate(-88.89)"/><ellipse class="cls-95" cx="1077.57" cy="510.08" rx="52.7" ry="48.38" transform="translate(546.71 1577.57) rotate(-88.89)"/><path class="cls-96" d="M1078.58,458c-26.43-.51-48.3,22.41-48.86,51.2s20.42,52.53,46.85,53,48.3-22.41,48.85-51.19S1105,458.47,1078.58,458Z"/><ellipse class="cls-97" cx="1077.57" cy="510.08" rx="51.56" ry="47.34" transform="translate(546.71 1577.57) rotate(-88.89)"/><path class="cls-98" d="M1078.56,459.09c-25.85-.5-47.25,21.93-47.8,50.09s20,51.39,45.83,51.89,47.25-21.92,47.79-50.08S1104.41,459.59,1078.56,459.09Z"/><path class="cls-99" d="M1078.55,459.66c-25.57-.49-46.73,21.68-47.27,49.53S1051,560,1076.6,560.5s46.73-21.68,47.26-49.52S1104.12,460.15,1078.55,459.66Z"/><ellipse class="cls-100" cx="1077.57" cy="510.08" rx="49.86" ry="45.78" transform="translate(546.71 1577.57) rotate(-88.89)"/><ellipse class="cls-101" cx="1077.57" cy="510.08" rx="49.3" ry="45.26" transform="translate(546.71 1577.57) rotate(-88.89)"/><path class="cls-102" d="M1078.52,461.36c-24.71-.48-45.16,20.95-45.68,47.86s19.09,49.11,43.79,49.58,45.15-20.94,45.67-47.85S1103.22,461.84,1078.52,461.36Z"/><path class="cls-103" d="M1078.51,461.93c-24.42-.48-44.63,20.7-45.15,47.3s18.86,48.53,43.28,49,44.63-20.71,45.14-47.3S1102.92,462.4,1078.51,461.93Z"/><path class="cls-104" d="M1078.49,462.49c-24.12-.46-44.1,20.46-44.61,46.75s18.64,48,42.77,48.43,44.11-20.46,44.61-46.74S1102.62,463,1078.49,462.49Z"/><path class="cls-105" d="M1078.48,463.06c-23.84-.46-43.57,20.22-44.08,46.19s18.42,47.39,42.26,47.85,43.58-20.21,44.08-46.18S1102.33,463.52,1078.48,463.06Z"/><path class="cls-106" d="M1078.47,463.63c-23.55-.46-43,20-43.55,45.63s18.2,46.82,41.75,47.28,43.06-20,43.55-45.63S1102,464.08,1078.47,463.63Z"/><path class="cls-107" d="M1078.46,464.19c-23.27-.45-42.53,19.73-43,45.08s18,46.25,41.25,46.7,42.52-19.73,43-45.07S1101.73,464.64,1078.46,464.19Z"/></g><g class="cls-26"><circle class="cls-25" cx="1305.57" cy="514.49" r="91.8" transform="translate(18.59 1073.87) rotate(-45)"/><circle class="cls-27" cx="1305.57" cy="514.49" r="91.23" transform="translate(18.59 1073.87) rotate(-45)"/><circle class="cls-28" cx="1305.57" cy="514.49" r="90.66" transform="translate(-91.21 649.48) rotate(-27.03)"/><circle class="cls-29" cx="1305.57" cy="514.49" r="90.1" transform="translate(18.59 1073.87) rotate(-45)"/><circle class="cls-30" cx="1305.57" cy="514.49" r="89.53" transform="translate(18.59 1073.87) rotate(-45)"/><circle class="cls-31" cx="1305.57" cy="514.49" r="88.96" transform="translate(-96.3 577.61) rotate(-24.09)"/><circle class="cls-32" cx="1305.57" cy="514.49" r="88.4" transform="translate(18.59 1073.87) rotate(-45)"/><circle class="cls-33" cx="1305.57" cy="514.49" r="87.83" transform="translate(-88.79 672.57) rotate(-27.98)"/><circle class="cls-34" cx="1305.57" cy="514.49" r="87.26" transform="matrix(0.86, -0.51, 0.51, 0.86, -78.84, 743.87)"/><circle class="cls-35" cx="1305.57" cy="514.49" r="86.7" transform="translate(18.59 1073.87) rotate(-45)"/><circle class="cls-36" cx="1305.57" cy="514.49" r="86.13" transform="translate(-76.54 757.38) rotate(-31.48)"/><circle class="cls-37" cx="1305.57" cy="514.49" r="85.56" transform="translate(-75.19 764.93) rotate(-31.79)"/><circle class="cls-38" cx="1305.57" cy="514.49" r="85" transform="translate(18.59 1073.87) rotate(-45)"/><circle class="cls-39" cx="1305.57" cy="514.49" r="84.43" transform="translate(18.59 1073.87) rotate(-45)"/><circle class="cls-40" cx="1305.57" cy="514.49" r="83.86" transform="translate(18.59 1073.87) rotate(-45)"/><circle class="cls-41" cx="1305.57" cy="514.49" r="83.3" transform="translate(18.59 1073.87) rotate(-45)"/><circle class="cls-42" cx="1305.57" cy="514.49" r="82.73" transform="translate(18.59 1073.87) rotate(-45)"/><circle class="cls-43" cx="1305.57" cy="514.49" r="82.16" transform="translate(18.59 1073.87) rotate(-45)"/><circle class="cls-44" cx="1305.57" cy="514.49" r="81.6" transform="translate(18.59 1073.87) rotate(-45)"/><circle class="cls-45" cx="1305.57" cy="514.49" r="81.03" transform="translate(18.59 1073.87) rotate(-45)"/><circle class="cls-46" cx="1305.57" cy="514.49" r="80.46" transform="translate(18.59 1073.87) rotate(-45)"/><circle class="cls-47" cx="1305.57" cy="514.49" r="79.9" transform="translate(18.59 1073.87) rotate(-45)"/><circle class="cls-48" cx="1305.57" cy="514.49" r="79.33" transform="translate(18.59 1073.87) rotate(-45)"/><circle class="cls-49" cx="1305.57" cy="514.49" r="78.76" transform="translate(18.59 1073.87) rotate(-45)"/><circle class="cls-50" cx="1305.57" cy="514.49" r="78.2" transform="translate(18.59 1073.87) rotate(-45)"/><circle class="cls-51" cx="1305.57" cy="514.49" r="77.63" transform="translate(18.59 1073.87) rotate(-45)"/><circle class="cls-52" cx="1305.57" cy="514.49" r="77.06" transform="translate(18.59 1073.87) rotate(-45)"/><circle class="cls-53" cx="1305.57" cy="514.49" r="76.5" transform="translate(18.59 1073.87) rotate(-45)"/><circle class="cls-54" cx="1305.57" cy="514.49" r="75.93" transform="translate(18.59 1073.87) rotate(-45)"/><circle class="cls-55" cx="1305.57" cy="514.49" r="75.36" transform="translate(18.59 1073.87) rotate(-45)"/><circle class="cls-56" cx="1305.57" cy="514.49" r="74.8" transform="translate(18.59 1073.87) rotate(-45)"/><circle class="cls-57" cx="1305.57" cy="514.49" r="74.23" transform="translate(18.59 1073.87) rotate(-45)"/><circle class="cls-58" cx="1305.57" cy="514.49" r="73.66" transform="translate(18.59 1073.87) rotate(-45)"/><circle class="cls-59" cx="1305.57" cy="514.49" r="73.1" transform="translate(18.59 1073.87) rotate(-45)"/><circle class="cls-60" cx="1305.57" cy="514.49" r="72.53" transform="translate(18.59 1073.87) rotate(-45)"/><circle class="cls-61" cx="1305.57" cy="514.49" r="71.96" transform="translate(18.59 1073.87) rotate(-45)"/><circle class="cls-62" cx="1305.57" cy="514.49" r="71.4" transform="translate(279.45 1471.72) rotate(-64.52)"/><circle class="cls-63" cx="1305.57" cy="514.49" r="70.83" transform="translate(18.59 1073.87) rotate(-45)"/><circle class="cls-64" cx="1305.57" cy="514.49" r="70.26" transform="translate(18.59 1073.87) rotate(-45)"/><circle class="cls-65" cx="1305.57" cy="514.49" r="69.7" transform="translate(314.42 1507.89) rotate(-66.57)"/><circle class="cls-66" cx="1305.57" cy="514.49" r="69.13"/><circle class="cls-67" cx="1305.57" cy="514.49" r="68.56" transform="translate(18.59 1073.87) rotate(-45)"/><circle class="cls-68" cx="1305.57" cy="514.49" r="68" transform="translate(160.51 1325.7) rotate(-56.82)"/><circle class="cls-69" cx="1305.57" cy="514.49" r="67.43" transform="translate(18.59 1073.87) rotate(-45)"/><circle class="cls-70" cx="1305.57" cy="514.49" r="66.86" transform="translate(18.59 1073.87) rotate(-45)"/><circle class="cls-71" cx="1305.57" cy="514.49" r="66.3" transform="translate(18.59 1073.87) rotate(-45)"/><circle class="cls-72" cx="1305.57" cy="514.49" r="65.73" transform="translate(508.91 1669.72) rotate(-76.92)"/><circle class="cls-73" cx="1305.57" cy="514.49" r="65.16"/><circle class="cls-74" cx="1305.57" cy="514.49" r="64.6"/><circle class="cls-75" cx="1305.57" cy="514.49" r="64.03" transform="translate(703.47 1782.05) rotate(-86.1)"/><circle class="cls-76" cx="1305.57" cy="514.49" r="63.46" transform="translate(18.59 1073.87) rotate(-45)"/><circle class="cls-77" cx="1305.57" cy="514.49" r="62.9" transform="translate(262.25 1452.95) rotate(-63.48)"/><circle class="cls-78" cx="1305.57" cy="514.49" r="62.33" transform="translate(427.7 1609.28) rotate(-72.78)"/><circle class="cls-79" cx="1305.57" cy="514.49" r="61.76" transform="translate(18.59 1073.87) rotate(-45)"/><circle class="cls-80" cx="1305.57" cy="514.49" r="61.2" transform="translate(-97.62 498.31) rotate(-20.85)"/><circle class="cls-81" cx="1305.57" cy="514.49" r="60.63" transform="translate(-83.9 710.96) rotate(-29.56)"/><circle class="cls-82" cx="1305.57" cy="514.49" r="60.06" transform="translate(-51.47 157.19) rotate(-6.76)"/><circle class="cls-83" cx="1305.57" cy="514.49" r="59.5" transform="translate(-40.92 119.3) rotate(-5.15)"/><circle class="cls-84" cx="1305.57" cy="514.49" r="58.93" transform="translate(-94.09 413.72) rotate(-17.39)"/><circle class="cls-85" cx="1305.57" cy="514.49" r="58.36" transform="translate(607.24 1731.68) rotate(-81.66)"/><circle class="cls-86" cx="1305.57" cy="514.49" r="57.8" transform="translate(-92.62 394.98) rotate(-16.62)"/><circle class="cls-87" cx="1305.57" cy="514.49" r="57.23" transform="translate(552.54 1698.62) rotate(-79.05)"/><circle class="cls-88" cx="1305.57" cy="514.49" r="56.66" transform="translate(-48.33 145.5) rotate(-6.26)"/><circle class="cls-89" cx="1305.57" cy="514.49" r="56.1" transform="translate(-83.41 714.35) rotate(-29.7)"/><circle class="cls-90" cx="1305.57" cy="514.49" r="55.53" transform="translate(-91.52 646.25) rotate(-26.9)"/><circle class="cls-91" cx="1305.57" cy="514.49" r="54.96" transform="translate(488.5 1655.37) rotate(-75.9)"/><circle class="cls-92" cx="1305.57" cy="514.49" r="54.4" transform="translate(-94.09 413.61) rotate(-17.39)"/><circle class="cls-93" cx="1305.57" cy="514.49" r="53.83" transform="translate(-84.56 322.79) rotate(-13.66)"/><circle class="cls-94" cx="1305.57" cy="514.49" r="53.26" transform="translate(-71.38 243.87) rotate(-10.39)"/><circle class="cls-95" cx="1305.57" cy="514.49" r="52.7" transform="translate(-86.43 336.83) rotate(-14.23)"/><circle class="cls-96" cx="1305.57" cy="514.49" r="52.13" transform="translate(-97.46 487.75) rotate(-20.42)"/><circle class="cls-97" cx="1305.57" cy="514.49" r="51.56" transform="translate(-97.03 470.62) rotate(-19.72)"/><circle class="cls-98" cx="1305.57" cy="514.49" r="51" transform="translate(-84.26 320.6) rotate(-13.57)"/><circle class="cls-99" cx="1305.57" cy="514.49" r="50.43" transform="translate(-94.62 607.66) rotate(-25.31)"/><circle class="cls-100" cx="1305.57" cy="514.49" r="49.86" transform="translate(-95.62 591.17) rotate(-24.64)"/><circle class="cls-101" cx="1305.57" cy="514.49" r="49.3" transform="translate(-29.99 83.82) rotate(-3.64)"/><circle class="cls-102" cx="1305.57" cy="514.49" r="48.73" transform="translate(-94.43 418.47) rotate(-17.58)"/><circle class="cls-103" cx="1305.57" cy="514.49" r="48.16" transform="translate(-85.71 331.33) rotate(-14.01)"/><circle class="cls-104" cx="1305.57" cy="514.49" r="47.6" transform="translate(-96.16 580.52) rotate(-24.21)"/><circle class="cls-105" cx="1305.57" cy="514.49" r="47.03" transform="translate(-93.61 621.8) rotate(-25.89)"/><circle class="cls-106" cx="1305.57" cy="514.49" r="46.46" transform="translate(-96.84 464.8) rotate(-19.48)"/><circle class="cls-107" cx="1305.57" cy="514.49" r="45.9" transform="translate(-96.66 459.95) rotate(-19.28)"/></g><ellipse class="cls-25" cx="1445.34" cy="501.01" rx="67.39" ry="46.08" transform="translate(532.53 1728.53) rotate(-72.48)"/><path class="cls-23" d="M1469.07,520.68c-23.36,14.71-48.07,9.73-65.89-5,.25,29.71-6.48,86.05-49.52,143.26-34.55,45.92-108.63,60.66-163.56,58.25-131.06-5.75-165.26-46.05-191.82-100.32,18.06,59.44,63,114.66,166.07,122.44,190.92,14.41,244.07-64.89,252.29-178.1a32.41,32.41,0,0,0,7.07,3.71c23.91,8.76,53-12.71,64.93-47.95a95.1,95.1,0,0,0,5-26.85A59.26,59.26,0,0,1,1469.07,520.68Z"/><path class="cls-23" d="M1426.92,501l21.9,3.29c0-34.59,25.78-45.92,25.78-45.92C1433,443.07,1426.92,501,1426.92,501Z"/><path class="cls-22" d="M1283.09,565s0,.08,0,.19A1.9,1.9,0,0,0,1283.09,565Z"/><path class="cls-12" d="M1221.36,102.61c-242.94,14.75-207.14,281.12-207.14,281.12,14.9-80,63.48-176,101.73-177.71,0,0,33,27.35,82.78,28.64,44.47,1.15,106.33-30.89,106.33-30.89,44.39-.78,96.38,133.87,101.69,244.61,1.21,25.34,23.38-3.77,23.38-3.77S1459.42,88.16,1221.36,102.61Z"/><path class="cls-12" d="M1348.25,123.07c-3-.16-4.57-5.56-5.89-7.65a41.64,41.64,0,0,0-9.86-10.63,109.9,109.9,0,0,1-21.69-23.11c-4.49-6.71-7.16-2.58-10-10.14-10-26.5-15.1-41.51-24.5-57a58.62,58.62,0,0,0-20.41,9.11A47,47,0,0,0,1249.4,0c-33.36,5.3-61.79,26-88.19,45.6,0,0-10.93-18.33-10.41-18.56-28.41,12.52-96.67,47.23-115.37,101.58-6.71,19.53-4.55,33.61,21.78,44,9.19,3.62,17.1,5.22,25.25,11.38,5.86,4.42,15.56,15,23.74,13.55.53-.09,202.82-34.95,233.32-13.17s91.75,210.32,91.75,210.32,47-181.56,10-249c-15.17-27.67-36.73-40.93-61.16-34.59a129.19,129.19,0,0,0-26.08,10C1351.24,122.53,1349.5,123.14,1348.25,123.07Z"/><path class="cls-12" d="M1388.13,91.17c-13.83,2.06-17.11,8.57-17.11,8.57,10-18.1,3.33-42.87,3.33-42.87-27,15.3-24.49,36.84-24.49,36.84-13.06-27.75-26.06-44-26.06-44-46,30.79-2.18,53.78-.87,54.5l20.93,32.3,43.81-6.64-4.21-19.56C1390.66,100.19,1388.13,91.17,1388.13,91.17Z"/><path class="cls-108" d="M1048.84,139.59c-71.48,21.3-51.63,307.62-51.63,307.62-.23,1,.87.36.87.36,16.14-81.05,80.18-239.72,117.87-241.45C1116,206.12,1080.66,184.8,1048.84,139.59Z"/><path class="cls-109" d="M1326.62,122.07l0,0C1326.77,122.08,1327,122.05,1326.62,122.07Z"/><path class="cls-109" d="M1326.64,126h0Z"/><path class="cls-110" d="M1378.24,124.88c3.52-1,7-1.76,10.39-2.78a205.87,205.87,0,0,0,21.86-8.33,43.41,43.41,0,0,0-27-3.39v-.07c7.19-10.12,4.67-19.14,4.67-19.14-13.83,2.06-17.11,8.57-17.11,8.57a44.86,44.86,0,0,0,5-16.2,158.26,158.26,0,0,1-24.92,0,27.9,27.9,0,0,0-1.27,10.19c-1.82-3.87-3.64-7.5-5.42-10.91-.15,0-.3,0-.44-.06-14-2-27.19-6.22-39.94-11.57a21.43,21.43,0,0,0-1,4.27,11.23,11.23,0,0,1-2.21-3.9c-.27-.71-.53-1.41-.79-2.11-10.35-4.55-20.47-9.74-30.65-15-12.09-6.19-24.14-12.49-36.6-17.91a358.07,358.07,0,0,0-38-14.38c-11.65,7.25-22.76,15.43-33.53,23.42,0,0-10.93-18.33-10.41-18.56-18.92,8.34-55.51,26.52-83.37,53.79v0c.93-.75,1.88-1.52,2.91-2.3a90.65,90.65,0,0,1,18.12-10.19,80.21,80.21,0,0,1,24.21-6c35.11-2.49,67.61,11.77,99.23,25,12.95,5.43,26.1,11.74,40,17.61a434.89,434.89,0,0,0,43.51,16.44C1321,129.41,1352.17,132,1378.24,124.88Z"/><path class="cls-109" d="M1326.1,122.1h0Z"/><path class="cls-111" d="M1123,573.12s-29.6,41.66-9.54,62.62,50.54-10.72,83-9.21,46.26,26,63,16.41,14.08-50.9,4.08-62.9S1146.43,561.52,1123,573.12Z"/><path class="cls-112" d="M1115.79,638.05c20,16.34,49.42-12.87,80.59-11.41,32.42,1.51,46.26,26,63,16.4a17.11,17.11,0,0,0,5-4.49C1240.8,596.4,1142.47,603.71,1115.79,638.05Z"/><path class="cls-25" d="M1164.77,478.2s-34.28-25.41-46.88,18.45,74.8,70.74,99.27,25-37.55-132-37.55-132S1191.53,442.57,1164.77,478.2Z"/><path class="cls-7" d="M1123.81,574.57s-5.45,13.29,6.55,18.17,113,5.87,123-3.25,0-23.62,0-23.62l-82.6-14.8Z"/><path class="cls-113" d="M1253.4,566l-82.6-14.81-47,23.5s-5.45,13.3,6.55,18.18a35.23,35.23,0,0,0,7.69,1.55c.2-.15.4-.31.62-.46,7-4.64,15.3-7,23.51-8.26s16.77-2.25,25.1-1.72c13,.83,25,5,35.92,11.39,15.22-1.07,27.07-2.93,30.2-5.75C1263.47,580.48,1253.4,566,1253.4,566Z"/><path class="cls-114" d="M1164.77,478.31s-33.29-23.92-46,15.48a312.07,312.07,0,0,0,54.64,8.79c10.72-25.05,14.52-52.25,15.93-81.64-2.4,0-4.79,0-7.19-.11C1182,438.45,1178.52,460,1164.77,478.31Z"/><path class="cls-12" d="M1430.13,444.71l-23.59-.16c-12.25,122.1-132.11,137.54-133.26,135.62,29.92,29.84,11.39,98.43-27.81,84.64-18-6.33-26.11-15.85-53.86-16.51-28.85-.69-48.53,9.33-56.14,13.56-31.18,17.34-68.33-38.31-26.25-89.36,0,0-50.19-9-63.07-16.1-24.54-13.57-36.61-41.42-42.54-67.56a214.63,214.63,0,0,1-4.72-32.79c-.18-2.6-.72-5.88-.83-9l-.8-.07C967.92,566.4,950.36,755.19,1198,752.62,1448.87,750,1419.41,558,1419.41,558,1407.61,515.64,1430.13,444.71,1430.13,444.71Z"/><path class="cls-115" d="M1174.89,521.45s-28.69-12.38-71.94,12.69c-33.1,19.18-43.64,55.3-43.64,55.3s47.55,12.9,124.49-14.07c76.62,36.54,133.29,9.45,133.29,9.45S1288.87,506.25,1174.89,521.45Z"/><path class="cls-23" d="M1116.93,508.92c4.81,36.12,78.14,54,100.23,12.75a44.7,44.7,0,0,0,3.24-7.91C1185.82,520.81,1149.89,518.44,1116.93,508.92Z"/><path class="cls-116" d="M1191.7,663.84c-16.32-.09-29.59,7.72-29.64,17.44s13.13,17.69,29.45,17.78,29.59-7.72,29.64-17.45S1208,663.93,1191.7,663.84Z"/><path class="cls-117" d="M1208.71,314.22c-5.75-1.38-19.89,36.88-19,55.54,0,0-7.06-37.33-11.57-36.34s1.71,50.15,10.11,53.92S1214.47,315.61,1208.71,314.22Z"/><path class="cls-117" d="M1052,391.15c-16.2,29.64-15.11,58.78-15.11,58.78l101.4,14.26c29.1-53.72,22.26-100.36,22.26-100.36C1132.17,354.76,1052,391.15,1052,391.15Z"/><path class="cls-117" d="M1262.14,368.71l-23.12-20c-11.88,69.54,13.37,107.2,13.37,107.2l108.76.51s13.26-47.91-5.83-77.92C1339.47,353.64,1262.14,368.71,1262.14,368.71Z"/><path class="cls-108" d="M1071.33,374.79c-14.75,6.37-19.33,16.36-19.33,16.36,57.87,8.78,93.62.61,104-13,12-15.88-1.8-42.47-1.8-42.47C1134.46,363,1101.28,361.86,1071.33,374.79Z"/><path class="cls-7" d="M1313.21,419.6c-55.41-6.36-60.82,36.35-60.82,36.35s2,19.76,50.75,18.76c56.34-1.16,58-18.8,58-18.8S1353.7,424.25,1313.21,419.6Z"/><g class="cls-118"><path d="M1431.12,394.21c.1.31.15.48.15.48s35.54-137.41,20.43-217.54c-9.79-4.2-20.89-8.89-23-11-3.57-3.57-48.94-41.08-64.3-49.3l-.47-.25q-5,2.09-9.89,4.55c-2.77,1.41-4.51,2-5.76,1.95-3-.16-4.57-5.56-5.89-7.65a41.64,41.64,0,0,0-9.86-10.63c-1.58-1.26-3.17-2.61-4.75-4-17.42-7-34.56-13.37-38-14-6.43-1.07-41.22-20.71-49.8-20s-15.86,8-12.29,13.69c0,0-8.81,5.54-6.25,22.11,1.74,11.31,109.43,103.16,110.86,107.09s10.36,20,14.29,24.65-8.93,113.25,26.43,162.91c12,16.83,40.64,32.65,57.59,41C1431,430.05,1431.55,414.42,1431.12,394.21Z"/><path d="M1493.75,486.77c0-23.56-9.79-43.35-26.77-49.57-10-3.65-20.85-2-31,3.66,4.79,2.25,7.79,3.51,7.79,3.51S1466.73,462.65,1493.75,486.77Z"/></g><path class="cls-7" d="M1112.27,427.4c-21.7-10.91-50.24-18.24-75.38,22.53,0,0-2.47,23.14,49.54,24.05s51.86-9.79,51.86-9.79S1135.8,439.24,1112.27,427.4Z"/><path class="cls-7" d="M1112.27,427.4c-21.7-10.91-50.24-18.24-75.38,22.53,0,0-2.47,23.14,49.54,24.05s51.86-9.79,51.86-9.79S1135.8,439.24,1112.27,427.4Z"/><path class="cls-108" d="M1340.56,364.29c-31.77-11.46-75.16-4.58-94.4-39.25,0,0-15.83,37.55-4.56,52.76,5.9,8,27.35,12,55.43,11.38,17.9-.42,51.78-8.14,62.88.3C1359.91,389.48,1354.53,369.33,1340.56,364.29Z"/><path class="cls-119" d="M1109.82,473.47a51.3,51.3,0,0,0,4.17-9.57c5.49-17.13,1.43-33.75-9.08-37.12s-23.48,7.78-29,24.91a46.1,46.1,0,0,0-1.9,21.57c3.75.39,7.86.64,12.4.72C1095.83,474.14,1103.52,473.93,1109.82,473.47Z"/><path class="cls-120" d="M1320,463.9c5.49-17.13,1.43-33.75-9.08-37.12s-23.48,7.78-29,24.91a46.09,46.09,0,0,0-1.9,21.6,125.1,125.1,0,0,0,23.11,1.42c4.43-.1,8.52-.29,12.3-.57A51.4,51.4,0,0,0,1320,463.9Z"/><path class="cls-121" d="M1197.8,122.06c3.4-10.92-3.52-24.52-3.52-24.52,2-8.11-4.8-13.75-13-14.78s-35,11.12-41.21,11.95-57.4,19.64-72.36,27.3c-7.41,3.79-22.1,14.5-35.48,24.76a24.61,24.61,0,0,0,.45,3.34c-45.79,49.75-38.56,240.94-36.11,287-8-3.28-16.27-4-24.14-1.42-20.56,6.64-31.63,33-28.06,62.66C997,440,1019.07,421.1,1036.47,398c36.16-47.92,40.1-153.43,44-157.93s13-20.24,14.54-24.12S1190.49,145.54,1197.8,122.06Z"/><path class="cls-122" d="M1273.47,450.86l1.4,8.74s35.69.74,32.27-13.14S1273.47,450.86,1273.47,450.86Z"/><path class="cls-122" d="M1069.66,453.61l.12,5.82s32,.49,28.62-13.4S1069.66,453.61,1069.66,453.61Z"/><path class="cls-108" d="M1089.47,413.24c-41.51,4.37-52.58,36.69-52.58,36.69s10.32-14.54,45.25-21.22c45.08-8.64,56.15,35.48,56.15,35.48S1143.77,407.53,1089.47,413.24Z"/><path class="cls-108" d="M1307.75,410.71c-56-7.07-55.36,45.24-55.36,45.24s8.08-37,58.52-29.17c38.54,6,50.24,29.13,50.24,29.13S1354.77,416.64,1307.75,410.71Z"/><path class="cls-25" d="M2016.1,693.34c-26.87-52-177.28-140.37-229.3-175-29.35-19.51-97.52-53.85-162-95.41,0-.18,0-.28,0-.28s-87.48-61.52-96-73.95c-13.22-19.29-21.68-141.19-29.54-146.9s-13.57-6.43-15-10-5-24.3-10.72-27.87-34.29-14.29-37.87-17.86-48.94-41.08-64.3-49.3-68.23-28.94-74.67-30-48.22-.71-56.8,0-10.71,10-7.14,15.72c0,0-7.86,2.14-7.5,13.57s112.53,89.67,114,93.6,10.36,20,14.29,24.65-8.93,113.25,26.43,162.91c17.55,24.64,70.82,47.11,70.82,47.11s42,33.44,79.26,69.58c19.29,21.79,42.43,49.76,72.21,83.83,69.38,79.34,130.08,216,229,286.57,53.7,38.3,186.36,44.72,214.42-16.6S2043,745.32,2016.1,693.34Z"/><path class="cls-23" d="M1246.87,77.35c-10.63-2.68-10.27-5.78-7-10.54-8.57.71-10.71,10-7.14,15.72a10.19,10.19,0,0,0-3.15,1.86c3.1-1.37,8.08-2.19,15.74-.07,15.54,4.28,75.56,28.93,83.06,33.22s49,36.71,73.15,46.89l8.57-5.09s-54.39-31.62-74.75-45S1257.49,80,1246.87,77.35Z"/><path class="cls-25" d="M1187.57,98.73c3.62-5.58,1.91-14.94-6.24-16s-48-2.88-54.21-2.05-57.4,19.64-72.36,27.3-59.64,43.51-63.18,47-31.21,13.12-36.8,16.48S945,195.38,943.53,198.9s-7,4-14.68,9.46S918.62,321,906.5,340.62c-.67,1.08-1.47,2.25-2.35,3.48-14.46,16.71-36.82,40.18-63.84,65.67-30,27.61-58.17,51.83-58.17,51.83h0a832.5,832.5,0,0,1-75.44,56.74c-124,82.49-267.07,129-295.8,215.61-8.43,25.44-30.22,86.45,9.08,118.82s131.35,13.14,131.35,13.14S650.42,860.74,713,757.83c34.14-56.18,117.11-156.91,185.18-235.89,77.34-89,104.64-110.48,125.33-137.9,36.16-47.92,40.1-153.43,44-157.93s13-20.24,14.54-24.12,111.44-78,112.2-89.42S1187.57,98.73,1187.57,98.73Z"/><path class="cls-23" d="M1181.33,82.76c3,4.88,3.2,8-7,10.28s-65.9,21.11-85.82,33.76-73,42.29-73,42.29l8,5.39c23.38-9.3,64.21-40.2,71.53-44.21s65.5-26.49,80.48-30.21c7.39-1.84,12.12-.84,15,.64a9.53,9.53,0,0,0-2.93-2C1191.19,93.15,1189.48,83.79,1181.33,82.76Z"/><path class="cls-123" d="M2016.1,693.34c-26.87-52-177.28-140.37-229.3-175-29.35-19.51-97.52-53.85-162-95.41,0-.18,0-.28,0-.28s-87.48-61.52-96-73.95c-13.22-19.29-21.68-141.19-29.54-146.9s-13.57-6.43-15-10-5-24.3-10.72-27.87-34.29-14.29-37.87-17.86-48.94-41.08-64.3-49.3-68.23-28.94-74.67-30-48.22-.71-56.8,0-10.71,10-7.14,15.72c0,0-7.86,2.14-7.5,13.57s112.53,89.67,114,93.6,10.36,20,14.29,24.65-8.93,113.25,26.43,162.91c17.55,24.64,70.82,47.11,70.82,47.11s42,33.44,79.26,69.58c19.29,21.79,42.43,49.76,72.21,83.83,69.38,79.34,130.08,216,229,286.57,53.7,38.3,186.36,44.72,214.42-16.6S2043,745.32,2016.1,693.34ZM1946.8,787c-48,27-139-3-240.91-138.46S1467.8,418.29,1467.8,418.29s-53-16.25-79.24-47.75S1361.15,212,1361.15,212s-10.35-26-12.85-28.5-117.41-85.47-115-91.76c4-10.49,61,17.09,74.07,25s74.84,46,92.65,70.83S1429.14,292,1473.14,344s379.66,235,453.94,293S1994.8,760,1946.8,787Z"/><path class="cls-123" d="M1187.57,98.73c3.62-5.58,1.91-14.94-6.24-16s-48-2.88-54.21-2.05-57.4,19.64-72.36,27.3-59.64,43.51-63.18,47-31.21,13.12-36.8,16.48S945,195.38,943.53,198.9s-7,4-14.68,9.46S918.62,321,906.5,340.62c-.67,1.08-1.47,2.25-2.35,3.48-14.46,16.71-36.82,40.18-63.84,65.67-30,27.61-58.17,51.83-58.17,51.83h0a832.5,832.5,0,0,1-75.44,56.74c-124,82.49-267.07,129-295.8,215.61-8.43,25.44-30.22,86.45,9.08,118.82s131.35,13.14,131.35,13.14S650.42,860.74,713,757.83c34.14-56.18,117.11-156.91,185.18-235.89,77.34-89,104.64-110.48,125.33-137.9,36.16-47.92,40.1-153.43,44-157.93s13-20.24,14.54-24.12,111.44-78,112.2-89.42S1187.57,98.73,1187.57,98.73Zm.63,14.31c-5.42,4.94-129.89,90.5-128.89,94s-22.42,133-53.51,177.5c-20.27,29-247.5,242.37-340.5,346.87S455.69,745.56,499.57,684.9C566.74,592,684.31,555,786.3,484.54s162-97.06,180.5-140.5c13.45-31.58,46-123,57.21-143.32,9.32-16.91,138.71-89.34,152.6-94.68S1193.11,108.56,1188.2,113Z"/></g></g></svg>