<svg id="Ñëîé_1" data-name="Ñëîé 1" xmlns="http://www.w3.org/2000/svg" xmlns:xlink="http://www.w3.org/1999/xlink" viewBox="0 0 500 500"><defs><style>.cls-1{fill:#edebe6;}.cls-116,.cls-2,.cls-6{fill:#42210b;}.cls-104,.cls-2{opacity:0.11;}.cls-3{fill:#d18b74;}.cls-4{fill:#de9e8b;}.cls-5{fill:#c9b193;}.cls-6{opacity:0.09;}.cls-7{fill:#54453e;}.cls-8{fill:#604f48;}.cls-9{fill:#3d4041;}.cls-10{fill:#604e45;}.cls-11{opacity:0.1;}.cls-12{fill:#e09178;}.cls-13{fill:#d58a73;}.cls-14{fill:#d78c74;}.cls-15{fill:#dbdbdb;}.cls-16{fill:#f2f2f2;}.cls-17{fill:#381911;}.cls-18{fill:#e5a185;}.cls-19{opacity:0.38;}.cls-20{fill:#e5a084;}.cls-21{fill:#e59f83;}.cls-22{fill:#e49e83;}.cls-23{fill:#e49d82;}.cls-24{fill:#e49c81;}.cls-25{fill:#e49b80;}.cls-26{fill:#e49a80;}.cls-27{fill:#e3997f;}.cls-28{fill:#e3987e;}.cls-29{fill:#e3977d;}.cls-30{fill:#e3967c;}.cls-31{fill:#e2957c;}.cls-32{fill:#e2947b;}.cls-33{fill:#e2937a;}.cls-34{fill:#e29279;}.cls-35{fill:#e29179;}.cls-36{fill:#e19078;}.cls-37{fill:#e18f77;}.cls-38{fill:#e18e76;}.cls-39{fill:#e18d75;}.cls-40{fill:#e18c75;}.cls-41{fill:#e08b74;}.cls-42{fill:#e08a73;}.cls-43{fill:#e08972;}.cls-44{fill:#e08872;}.cls-45{fill:#df8771;}.cls-46{fill:#df8670;}.cls-47{fill:#df856f;}.cls-48{fill:#df846f;}.cls-49{fill:#df836e;}.cls-50{fill:#de826d;}.cls-51{fill:#de816c;}.cls-52{fill:#de806b;}.cls-53{fill:#de7f6b;}.cls-54{fill:#de7e6a;}.cls-55{fill:#dd7d69;}.cls-56{fill:#dd7c68;}.cls-57{fill:#dd7b68;}.cls-58{fill:#dd7a67;}.cls-59{fill:#dd7a66;}.cls-60{fill:#dc7965;}.cls-61{fill:#dc7864;}.cls-62{fill:#dc7764;}.cls-63{fill:#dc7663;}.cls-64{fill:#db7562;}.cls-65{fill:#db7461;}.cls-66{fill:#db7361;}.cls-67{fill:#db7260;}.cls-68{fill:#db715f;}.cls-69{fill:#da705e;}.cls-70{fill:#da6f5d;}.cls-71{fill:#da6e5d;}.cls-72{fill:#da6d5c;}.cls-73{fill:#da6c5b;}.cls-74{fill:#d96b5a;}.cls-75{fill:#d96a5a;}.cls-76{fill:#d96959;}.cls-77{fill:#d96858;}.cls-78{fill:#d86757;}.cls-79{fill:#d86657;}.cls-80{fill:#d86556;}.cls-81{fill:#d86455;}.cls-82{fill:#d86354;}.cls-83{fill:#d76253;}.cls-84{fill:#d76153;}.cls-85{fill:#d76052;}.cls-86{fill:#d75f51;}.cls-87{fill:#d75e50;}.cls-88{fill:#d65d50;}.cls-89{fill:#d65c4f;}.cls-90{fill:#d65b4e;}.cls-91{fill:#d65a4d;}.cls-92{fill:#d5594c;}.cls-93{fill:#d5584c;}.cls-94{fill:#d5574b;}.cls-95{fill:#d5564a;}.cls-96{fill:#d55549;}.cls-97{fill:#d45449;}.cls-98{fill:#d45348;}.cls-99{fill:#d45247;}.cls-100{fill:#6c332e;}.cls-101{fill:#4f372d;}.cls-102{fill:#422e26;}.cls-103,.cls-105,.cls-107,.cls-110{fill:#fff;}.cls-103{opacity:0.12;}.cls-104{fill:#e5912f;}.cls-106{fill:url(#Áåçûìÿííûé_ãðàäèåíò_9);}.cls-107{opacity:0.84;}.cls-108{fill:url(#Áåçûìÿííûé_ãðàäèåíò_9-2);}.cls-109{fill:#c77762;}.cls-110{opacity:0.2;}.cls-111{fill:#776258;}.cls-112{opacity:0.25;}.cls-113{fill:#ddc8c0;}.cls-114{fill:#eab778;}.cls-115{fill:#ffcb80;}.cls-116{opacity:0.06;}.cls-117{fill:#f2b770;}</style><linearGradient id="Áåçûìÿííûé_ãðàäèåíò_9" x1="232.89" y1="85.83" x2="237.91" y2="73.99" gradientUnits="userSpaceOnUse"><stop offset="0" stop-color="#5c3333"/><stop offset="1"/></linearGradient><linearGradient id="Áåçûìÿííûé_ãðàäèåíò_9-2" x1="259.42" y1="85.73" x2="263.71" y2="72.73" xlink:href="#Áåçûìÿííûé_ãðàäèåíò_9"/></defs><rect class="cls-1" width="500" height="500" transform="translate(500 0) rotate(90)"/><path class="cls-2" d="M372.05,465.84s-54.65,15.31-122,15.31-122-15.31-122-15.31S182.6,450.52,250,450.52,372.05,465.84,372.05,465.84Z"/><path class="cls-3" d="M336.72,240.22s-12.84-1-15.59,2.84.25,12.07.25,12.07-3.56,2.53-4.24,3.92c0,0-3.05-.66-3.75.89s2.47,2.54,2.47,2.54a4.53,4.53,0,0,0-2.27,2.84c-.26,1.79,3.46,1.56,5.05,1.28l5.65-3.45s-1.48,2.73-2.12,3.08-4.35,2-4.8,3.63,1.6,2.4,2.53,2.17a2.55,2.55,0,0,0,1.94,1.22c1.18,0,6.48-3.22,8.26-3.49,0,0,4.89-6.77,5.68-8.79s1.07-8.83,1.08-12.44C336.87,242.22,336.72,240.22,336.72,240.22Z"/><polygon class="cls-4" points="162.96 234.41 162.18 241 176.04 241.36 176.81 233.84 162.96 234.41"/><path class="cls-3" d="M162.28,240.22s12.84-1,15.59,2.84-.25,12.07-.25,12.07,3.56,2.53,4.24,3.92c0,0,3-.66,3.75.89s-2.47,2.54-2.47,2.54a4.53,4.53,0,0,1,2.27,2.84c.26,1.79-3.46,1.56-5,1.28l-5.65-3.45s1.48,2.73,2.12,3.08,4.35,2,4.8,3.63-1.6,2.4-2.53,2.17a2.55,2.55,0,0,1-1.94,1.22c-1.18,0-6.48-3.22-8.26-3.49,0,0-4.89-6.77-5.68-8.79s-1.07-8.83-1.08-12.44C162.13,242.22,162.28,240.22,162.28,240.22Z"/><path class="cls-5" d="M242.17,468A2.31,2.31,0,0,1,240,470l-7.36.28a207,207,0,0,0-18.86-19.52c2.63-2,6.06-5.35,8-7.07,2.52-2.19,2.37-18.16,2.37-18.16l14-1.45s-.26,14.93.37,16.47c1.22,3,2.24,4.49,3.39,7.52a17.35,17.35,0,0,1,.8,4.86,66.39,66.39,0,0,1-.17,11.19C242.43,465.42,242.3,466.69,242.17,468Z"/><path class="cls-6" d="M223.64,436.88l.24,0a61,61,0,0,0,8.33.3c2-.07,4-.22,6-.42-.16-4.91,0-12.68,0-12.68l-14,1.45S224.2,431.69,223.64,436.88Z"/><path class="cls-7" d="M241.69,447c-2.84,3-13.7,12.47-22.67-.24a1.39,1.39,0,0,0-2.06-.28c-6.61,5.7-15.29,13.57-20,11.91-7-2.44-10.55.89-10.61,5.82l-.06,4.92s14.27,6.35,26.91,2.43l12.65-3.92,0,1.32a1.63,1.63,0,0,0,1.69,1.57L240,470a2.31,2.31,0,0,0,2.22-2.06c.4-3.87,1.91-14.11.25-20.65C242.34,447,241.92,446.73,241.69,447Z"/><path class="cls-8" d="M242.63,464.68c-17.19-.54-27,6.44-38.35,6.15a65.75,65.75,0,0,1-18.13-3.55,1.29,1.29,0,0,0-1.71,1.1l-.05.52A1,1,0,0,0,185,470c15.23,6,30.46,2.38,34.52,1.32,3.34-.87,17.27-.06,22.48.28a2,2,0,0,0,2.1-1.85l.18-3.2A1.75,1.75,0,0,0,242.63,464.68Z"/><path class="cls-5" d="M304.31,468A2.3,2.3,0,0,1,302.1,470l-7.37.28a208.17,208.17,0,0,0-18.85-19.52c2.63-2,6.05-5.35,8-7.07,2.52-2.19.25-18.16.25-18.16l12.48-1.45s3.39,14.93,4,16.47c1.22,3,2.24,4.49,3.39,7.52a17.36,17.36,0,0,1,.81,4.86,66.4,66.4,0,0,1-.18,11.19C304.57,465.42,304.44,466.69,304.31,468Z"/><path class="cls-6" d="M291,437.94a50.79,50.79,0,0,0,8.81-.37c-1.21-4.81-3.18-13.46-3.18-13.46l-12.48,1.45a100.49,100.49,0,0,1,.94,12.06C287.14,437.84,289.25,437.86,291,437.94Z"/><path class="cls-7" d="M303.84,447c-2.85,3-13.71,12.47-22.68-.24a1.38,1.38,0,0,0-2.05-.28c-6.62,5.7-15.3,13.57-20,11.91-7-2.44-10.55.89-10.61,5.82l-.06,4.92s14.27,6.35,26.92,2.43L288,467.61l0,1.32a1.64,1.64,0,0,0,1.69,1.57L302.1,470a2.3,2.3,0,0,0,2.21-2.06c.4-3.87,1.91-14.11.25-20.65C304.48,447,304.06,446.73,303.84,447Z"/><path class="cls-8" d="M304.77,464.68c-17.19-.54-27,6.44-38.35,6.15a65.84,65.84,0,0,1-18.13-3.55,1.29,1.29,0,0,0-1.71,1.1l-.05.52a1,1,0,0,0,.65,1.07c15.23,6,30.46,2.38,34.52,1.32,3.34-.87,17.28-.06,22.48.28a2,2,0,0,0,2.1-1.85l.19-3.2A1.76,1.76,0,0,0,304.77,464.68Z"/><polygon class="cls-9" points="265.92 261.34 255.62 278.27 262.92 279.06 272.9 261.34 265.92 261.34"/><path class="cls-10" d="M281.84,259l-.61,26.39S207.45,292.07,208,283c.34-5.41.77-22,.77-22Z"/><path class="cls-10" d="M234,284.93c-.09.35-2.72,45.3,10.6,143.53a2.77,2.77,0,0,1-2.18,3.36l-20.89,1.65a3.7,3.7,0,0,1-4.08-2.81c-14.13-97.9-9.29-148.12-8.94-154.55Z"/><path class="cls-10" d="M281.36,269.78c-.09.35-4.12,73,24,159a2.75,2.75,0,0,1-2.31,3.63l-21.69,2a3.37,3.37,0,0,1-3.48-2.27c-35-104.26-21-154.88-19.79-158.92Z"/><g class="cls-11"><path d="M218.71,343.75a16.89,16.89,0,0,0,16.93.72c1.55,21.71,4.26,49.58,8.92,84a2.77,2.77,0,0,1-2.18,3.36l-20.89,1.65a3.7,3.7,0,0,1-4.08-2.81c-5.92-41.08-8.51-73.73-9.49-98.31A33.83,33.83,0,0,0,218.71,343.75Z"/></g><g class="cls-11"><path d="M267.24,344.54c6.06,1.77,13.32,1.8,18.37-2.08a498.62,498.62,0,0,0,19.71,86.33,2.75,2.75,0,0,1-2.31,3.63l-21.69,2a3.37,3.37,0,0,1-3.48-2.27c-13.3-39.61-19.52-71.46-22.06-96A21.62,21.62,0,0,0,267.24,344.54Z"/></g><path class="cls-12" d="M273.52,140.64V123c-14.27-4.22-33.76-4.18-47.57,1.59v16Z"/><path class="cls-13" d="M236,264.62c2.84.1,5.84.16,9,.16,2.46,0,5-.06,7.6-.16Z"/><path class="cls-14" d="M238.47,111.24l-.23,14.21c-.07,4.74,5.23,6.5,11.85,6.62s12.18-1.47,12.25-6.2l.23-14.63Z"/><path class="cls-15" d="M230.64,126.17a173.76,173.76,0,0,1,39.86-.27S260.31,146,245.28,140.77,230.64,126.17,230.64,126.17Z"/><path class="cls-16" d="M238.36,117.85s-6.22,3.5-7.72,7C228,131,239.12,138,239.12,138s1-8.46,9.34-8.67,11.79,8.82,11.79,8.82S270.9,131,270.5,124.88c0,0-.91-3.16-8-6.6,0,0-3.51,6.2-12.81,6.18S238.36,117.85,238.36,117.85Z"/><path class="cls-14" d="M219.53,75.33c-3,1-4.35,5.37-3,9.79s4.85,7.2,7.85,6.21,4.35-5.37,3-9.79S222.53,74.34,219.53,75.33Z"/><path class="cls-17" d="M238.83,35.54a.72.72,0,0,0,0-.14C238.82,35.49,238.83,35.54,238.83,35.54Z"/><path class="cls-18" d="M271.92,49.1c-1.7-10.42-31.07-15.34-39.72-1-2.76,6.63-7.24,19-8.74,31.3a1.66,1.66,0,0,1,0-.21s-8,32.69,21.09,34.72,32.32-13.31,31.09-32.42h0C275.68,70.7,274.11,57.1,271.92,49.1Z"/><g class="cls-19"><ellipse class="cls-18" cx="233.63" cy="85.5" rx="11.39" ry="10.46" transform="translate(144.92 317.93) rotate(-89.21)"/><ellipse class="cls-20" cx="233.63" cy="85.5" rx="11.32" ry="10.39" transform="translate(144.92 317.93) rotate(-89.21)"/><path class="cls-21" d="M233.78,74.25c-5.7-.07-10.39,4.9-10.47,11.11s4.46,11.31,10.17,11.39,10.39-4.9,10.48-11.11S239.49,74.33,233.78,74.25Z"/><path class="cls-22" d="M233.78,74.33c-5.66-.08-10.32,4.86-10.41,11s4.44,11.24,10.11,11.32,10.32-4.87,10.41-11S239.45,74.4,233.78,74.33Z"/><path class="cls-23" d="M233.78,74.4c-5.63-.08-10.26,4.83-10.34,11s4.41,11.17,10,11.24,10.26-4.83,10.34-11S239.41,74.47,233.78,74.4Z"/><ellipse class="cls-24" cx="233.63" cy="85.5" rx="11.03" ry="10.13" transform="translate(144.92 317.93) rotate(-89.21)"/><ellipse class="cls-25" cx="233.63" cy="85.5" rx="10.96" ry="10.06" transform="translate(144.92 317.93) rotate(-89.21)"/><path class="cls-26" d="M233.78,74.61c-5.52-.08-10.07,4.74-10.15,10.75s4.33,11,9.85,11,10.07-4.74,10.15-10.75S239.3,74.69,233.78,74.61Z"/><path class="cls-27" d="M233.78,74.68c-5.49-.07-10,4.71-10.08,10.68s4.3,10.88,9.78,11,10-4.71,10.08-10.68S239.26,74.76,233.78,74.68Z"/><path class="cls-28" d="M233.78,74.75c-5.45-.07-9.94,4.68-10,10.61s4.27,10.81,9.72,10.89,9.94-4.68,10-10.61S239.23,74.83,233.78,74.75Z"/><path class="cls-29" d="M233.78,74.82c-5.42-.07-9.87,4.65-9.95,10.55s4.24,10.73,9.65,10.81,9.87-4.65,10-10.54S239.19,74.9,233.78,74.82Z"/><path class="cls-30" d="M233.78,74.89c-5.38-.07-9.81,4.62-9.89,10.48s4.22,10.66,9.59,10.74,9.81-4.62,9.89-10.48S239.15,75,233.78,74.89Z"/><path class="cls-31" d="M233.78,75c-5.35-.08-9.74,4.58-9.82,10.4S228.14,96,233.49,96s9.73-4.58,9.81-10.4S239.12,75,233.78,75Z"/><path class="cls-32" d="M233.77,75c-5.3-.08-9.67,4.55-9.75,10.33s4.16,10.52,9.47,10.59,9.67-4.55,9.75-10.33S239.08,75.11,233.77,75Z"/><path class="cls-33" d="M233.77,75.11c-5.27-.07-9.6,4.52-9.68,10.26s4.13,10.45,9.4,10.52,9.6-4.52,9.68-10.26S239,75.18,233.77,75.11Z"/><path class="cls-34" d="M233.77,75.18c-5.23-.07-9.54,4.49-9.62,10.19s4.1,10.38,9.34,10.45,9.54-4.49,9.62-10.19S239,75.25,233.77,75.18Z"/><ellipse class="cls-35" cx="233.63" cy="85.5" rx="10.25" ry="9.41" transform="translate(144.92 317.93) rotate(-89.21)"/><path class="cls-36" d="M233.77,75.32c-5.16-.07-9.41,4.43-9.48,10.05s4,10.24,9.2,10.31,9.41-4.43,9.49-10.05S238.93,75.39,233.77,75.32Z"/><path class="cls-37" d="M233.77,75.39c-5.13-.07-9.34,4.4-9.42,10s4,10.17,9.14,10.24,9.34-4.4,9.42-10S238.89,75.46,233.77,75.39Z"/><ellipse class="cls-38" cx="233.63" cy="85.5" rx="10.04" ry="9.21" transform="translate(144.93 317.93) rotate(-89.21)"/><ellipse class="cls-39" cx="233.63" cy="85.5" rx="9.97" ry="9.15" transform="translate(144.92 317.93) rotate(-89.21)"/><ellipse class="cls-40" cx="233.63" cy="85.5" rx="9.89" ry="9.08" transform="translate(144.92 317.93) rotate(-89.21)"/><ellipse class="cls-41" cx="233.63" cy="85.5" rx="9.82" ry="9.02" transform="translate(144.92 317.93) rotate(-89.21)"/><path class="cls-42" d="M233.76,75.75c-4.94-.07-9,4.24-9.08,9.63s3.87,9.8,8.82,9.87,9-4.24,9.08-9.63S238.71,75.82,233.76,75.75Z"/><ellipse class="cls-43" cx="233.63" cy="85.5" rx="9.68" ry="8.89" transform="translate(144.92 317.93) rotate(-89.21)"/><path class="cls-44" d="M233.76,75.89c-4.87-.07-8.88,4.18-8.95,9.49s3.82,9.66,8.69,9.73,8.88-4.18,8.95-9.49S238.63,76,233.76,75.89Z"/><path class="cls-45" d="M233.76,76c-4.83-.06-8.81,4.15-8.89,9.42S228.66,95,233.5,95s8.81-4.15,8.89-9.42S238.6,76,233.76,76Z"/><ellipse class="cls-46" cx="233.63" cy="85.5" rx="9.47" ry="8.69" transform="translate(144.92 317.93) rotate(-89.21)"/><path class="cls-47" d="M233.76,76.1C229,76,225.08,80.19,225,85.38s3.74,9.45,8.5,9.52,8.68-4.09,8.76-9.28S238.52,76.17,233.76,76.1Z"/><path class="cls-48" d="M233.76,76.18c-4.73-.07-8.62,4-8.69,9.2s3.7,9.38,8.43,9.44,8.62-4,8.69-9.2S238.49,76.24,233.76,76.18Z"/><ellipse class="cls-49" cx="233.63" cy="85.5" rx="9.25" ry="8.5" transform="translate(144.92 317.93) rotate(-89.21)"/><path class="cls-50" d="M233.76,76.32c-4.66-.07-8.49,4-8.56,9.06s3.65,9.24,8.3,9.3,8.49-4,8.56-9.06S238.41,76.38,233.76,76.32Z"/><path class="cls-51" d="M233.76,76.39c-4.62-.06-8.43,4-8.49,9s3.62,9.16,8.23,9.22,8.43-4,8.49-9S238.38,76.45,233.76,76.39Z"/><path class="cls-52" d="M233.75,76.46c-4.58-.06-8.35,3.93-8.42,8.93s3.59,9.09,8.18,9.15,8.35-3.93,8.42-8.93S238.34,76.52,233.75,76.46Z"/><path class="cls-53" d="M233.75,76.53c-4.54-.06-8.29,3.9-8.35,8.86s3.56,9,8.11,9.08,8.29-3.9,8.35-8.86S238.3,76.59,233.75,76.53Z"/><ellipse class="cls-54" cx="233.63" cy="85.5" rx="8.9" ry="8.17" transform="translate(144.92 317.93) rotate(-89.21)"/><path class="cls-55" d="M233.75,76.67c-4.47-.06-8.16,3.84-8.22,8.72s3.5,8.87,8,8.94,8.16-3.84,8.22-8.72S238.23,76.74,233.75,76.67Z"/><ellipse class="cls-56" cx="233.63" cy="85.5" rx="8.76" ry="8.04" transform="translate(144.92 317.93) rotate(-89.21)"/><ellipse class="cls-57" cx="233.63" cy="85.5" rx="8.68" ry="7.97" transform="translate(144.93 317.93) rotate(-89.21)"/><path class="cls-58" d="M233.75,76.89c-4.37-.06-8,3.74-8,8.5s3.42,8.66,7.79,8.72,8-3.74,8-8.5S238.12,77,233.75,76.89Z"/><path class="cls-59" d="M233.75,77c-4.33-.06-7.9,3.72-8,8.43S229.18,94,233.51,94s7.9-3.71,8-8.43S238.08,77,233.75,77Z"/><path class="cls-60" d="M233.75,77c-4.3-.06-7.83,3.69-7.9,8.36s3.37,8.52,7.66,8.58,7.83-3.68,7.9-8.36S238,77.09,233.75,77Z"/><path class="cls-61" d="M233.75,77.1c-4.26-.06-7.77,3.66-7.83,8.29s3.34,8.45,7.59,8.51,7.77-3.65,7.83-8.29S238,77.16,233.75,77.1Z"/><path class="cls-62" d="M233.74,77.17c-4.22-.06-7.69,3.63-7.76,8.23s3.31,8.37,7.54,8.43,7.69-3.63,7.76-8.22S238,77.23,233.74,77.17Z"/><path class="cls-63" d="M233.74,77.24c-4.18,0-7.63,3.6-7.69,8.16s3.28,8.3,7.47,8.36,7.63-3.6,7.69-8.16S237.93,77.3,233.74,77.24Z"/><path class="cls-64" d="M233.74,77.31c-4.15,0-7.56,3.57-7.62,8.09s3.25,8.23,7.4,8.29,7.56-3.57,7.63-8.09S237.89,77.37,233.74,77.31Z"/><ellipse class="cls-65" cx="233.63" cy="85.5" rx="8.12" ry="7.45" transform="translate(144.93 317.93) rotate(-89.21)"/><path class="cls-66" d="M233.74,77.46c-4.08-.06-7.43,3.5-7.49,7.94s3.19,8.09,7.27,8.14S241,90,241,85.6,237.82,77.51,233.74,77.46Z"/><path class="cls-67" d="M233.74,77.53c-4-.06-7.37,3.47-7.43,7.87s3.17,8,7.21,8.07S240.89,90,241,85.6,237.78,77.58,233.74,77.53Z"/><path class="cls-68" d="M233.74,77.6c-4-.06-7.3,3.44-7.36,7.8s3.14,7.95,7.14,8,7.3-3.44,7.36-7.8S237.74,77.65,233.74,77.6Z"/><path class="cls-69" d="M233.74,77.67c-4,0-7.24,3.41-7.3,7.73s3.11,7.88,7.08,7.93,7.24-3.41,7.3-7.73S237.71,77.73,233.74,77.67Z"/><path class="cls-70" d="M233.74,77.74c-3.94,0-7.17,3.38-7.23,7.66s3.08,7.8,7,7.86,7.17-3.38,7.23-7.66S237.67,77.8,233.74,77.74Z"/><path class="cls-71" d="M233.74,77.81c-3.9,0-7.11,3.35-7.17,7.59s3.06,7.73,7,7.79,7.11-3.35,7.17-7.59S237.63,77.87,233.74,77.81Z"/><path class="cls-72" d="M233.73,77.88c-3.86,0-7,3.32-7.09,7.52s3,7.66,6.89,7.72,7-3.32,7.09-7.52S237.6,77.94,233.73,77.88Z"/><path class="cls-73" d="M233.73,78c-3.82-.06-7,3.28-7,7.44s3,7.59,6.83,7.65,7-3.29,7-7.45S237.56,78,233.73,78Z"/><path class="cls-74" d="M233.73,78c-3.79-.06-6.9,3.25-7,7.38s3,7.51,6.76,7.56,6.91-3.25,7-7.38S237.52,78.08,233.73,78Z"/><ellipse class="cls-75" cx="233.63" cy="85.5" rx="7.4" ry="6.8" transform="translate(144.92 317.93) rotate(-89.21)"/><path class="cls-76" d="M233.73,78.17c-3.72,0-6.77,3.19-6.83,7.24s2.91,7.37,6.63,7.42,6.78-3.19,6.83-7.24S237.45,78.22,233.73,78.17Z"/><path class="cls-77" d="M233.73,78.24c-3.68,0-6.71,3.16-6.77,7.17s2.89,7.3,6.57,7.35,6.71-3.16,6.77-7.17S237.41,78.29,233.73,78.24Z"/><path class="cls-78" d="M233.73,78.31c-3.65,0-6.65,3.13-6.7,7.1s2.86,7.23,6.5,7.28,6.65-3.13,6.7-7.1S237.37,78.36,233.73,78.31Z"/><path class="cls-79" d="M233.73,78.38c-3.61,0-6.58,3.1-6.63,7s2.82,7.16,6.43,7.21,6.58-3.1,6.63-7S237.34,78.43,233.73,78.38Z"/><path class="cls-80" d="M233.73,78.45a6.78,6.78,0,0,0-6.57,7c0,3.89,2.8,7.09,6.37,7.14a6.78,6.78,0,0,0,6.57-7C240.15,81.7,237.3,78.5,233.73,78.45Z"/><path class="cls-81" d="M233.73,78.52a7,7,0,1,0,6.3,7.07A6.71,6.71,0,0,0,233.73,78.52Z"/><path class="cls-82" d="M233.73,78.6a6.93,6.93,0,1,0,6.24,7C240,81.77,237.23,78.64,233.73,78.6Z"/><path class="cls-83" d="M233.72,78.67a6.86,6.86,0,1,0,6.18,6.92A6.56,6.56,0,0,0,233.72,78.67Z"/><path class="cls-84" d="M233.72,78.74a6.78,6.78,0,1,0,6.12,6.85A6.5,6.5,0,0,0,233.72,78.74Z"/><ellipse class="cls-85" cx="233.63" cy="85.5" rx="6.69" ry="6.14" transform="translate(144.92 317.93) rotate(-89.21)"/><path class="cls-86" d="M233.72,78.88a6.64,6.64,0,1,0,6,6.7A6.36,6.36,0,0,0,233.72,78.88Z"/><path class="cls-87" d="M233.72,79a6.57,6.57,0,1,0,5.92,6.63A6.3,6.3,0,0,0,233.72,79Z"/><path class="cls-88" d="M233.72,79a6.5,6.5,0,1,0,5.86,6.56A6.24,6.24,0,0,0,233.72,79Z"/><path class="cls-89" d="M233.72,79.09a6.43,6.43,0,1,0,5.79,6.49A6.17,6.17,0,0,0,233.72,79.09Z"/><path class="cls-90" d="M233.72,79.17a6.36,6.36,0,1,0,5.73,6.41A6.09,6.09,0,0,0,233.72,79.17Z"/><path class="cls-91" d="M233.72,79.24a6.28,6.28,0,1,0,5.66,6.34A6,6,0,0,0,233.72,79.24Z"/><path class="cls-92" d="M233.72,79.31a6.21,6.21,0,1,0,5.6,6.27A6,6,0,0,0,233.72,79.31Z"/><path class="cls-93" d="M233.71,79.38a6.14,6.14,0,1,0,5.54,6.2A5.89,5.89,0,0,0,233.71,79.38Z"/><path class="cls-94" d="M233.71,79.45a6.07,6.07,0,1,0,5.47,6.13A5.81,5.81,0,0,0,233.71,79.45Z"/><path class="cls-95" d="M233.71,79.52a6,6,0,1,0,5.41,6.06A5.75,5.75,0,0,0,233.71,79.52Z"/><path class="cls-96" d="M233.71,79.59a5.93,5.93,0,1,0,5.34,6A5.68,5.68,0,0,0,233.71,79.59Z"/><path class="cls-97" d="M233.71,79.66A5.86,5.86,0,1,0,239,85.57,5.62,5.62,0,0,0,233.71,79.66Z"/><path class="cls-98" d="M233.71,79.73a5.79,5.79,0,1,0,5.21,5.84A5.55,5.55,0,0,0,233.71,79.73Z"/><path class="cls-99" d="M233.71,79.81a5.71,5.71,0,1,0,5.15,5.76A5.48,5.48,0,0,0,233.71,79.81Z"/></g><g class="cls-19"><path class="cls-18" d="M262.08,74.5a11.39,11.39,0,1,0,11.23,11.55A11.39,11.39,0,0,0,262.08,74.5Z"/><path class="cls-20" d="M262.08,74.57a11.32,11.32,0,1,0,11.16,11.48A11.33,11.33,0,0,0,262.08,74.57Z"/><path class="cls-21" d="M262.08,74.64A11.25,11.25,0,1,0,273.17,86,11.25,11.25,0,0,0,262.08,74.64Z"/><circle class="cls-22" cx="261.92" cy="85.89" r="11.18" transform="translate(8.65 194.68) rotate(-41.4)"/><path class="cls-23" d="M262.07,74.79A11.1,11.1,0,1,0,273,86,11.09,11.09,0,0,0,262.07,74.79Z"/><circle class="cls-24" cx="261.92" cy="85.89" r="11.03" transform="translate(35.84 243.58) rotate(-53.05)"/><path class="cls-25" d="M262.07,74.93A11,11,0,1,0,272.88,86,11,11,0,0,0,262.07,74.93Z"/><circle class="cls-26" cx="261.92" cy="85.89" r="10.89" transform="translate(171.42 346.25) rotate(-88.99)"/><circle class="cls-27" cx="261.92" cy="85.89" r="10.82" transform="translate(15.98 210.36) rotate(-45)"/><path class="cls-28" d="M262.07,75.14A10.75,10.75,0,1,0,272.67,86,10.76,10.76,0,0,0,262.07,75.14Z"/><circle class="cls-29" cx="261.92" cy="85.89" r="10.68" transform="matrix(0.54, -0.84, 0.84, 0.54, 47.67, 259.31)"/><path class="cls-30" d="M262.07,75.28A10.61,10.61,0,1,0,272.53,86,10.61,10.61,0,0,0,262.07,75.28Z"/><circle class="cls-31" cx="261.92" cy="85.89" r="10.54" transform="translate(150.88 338.18) rotate(-84.4)"/><circle class="cls-32" cx="261.92" cy="85.89" r="10.46" transform="translate(15.98 210.36) rotate(-45)"/><circle class="cls-33" cx="261.92" cy="85.89" r="10.39" transform="translate(-9.82 39.69) rotate(-8.51)"/><circle class="cls-34" cx="261.92" cy="85.89" r="10.32" transform="translate(41.87 251.89) rotate(-55.19)"/><path class="cls-35" d="M262.06,75.64A10.25,10.25,0,1,0,272.17,86,10.25,10.25,0,0,0,262.06,75.64Z"/><path class="cls-36" d="M262.06,75.71A10.18,10.18,0,1,0,272.1,86,10.18,10.18,0,0,0,262.06,75.71Z"/><path class="cls-37" d="M262.06,75.78A10.11,10.11,0,1,0,272,86,10.12,10.12,0,0,0,262.06,75.78Z"/><circle class="cls-38" cx="261.92" cy="85.89" r="10.04" transform="translate(-12.05 55.61) rotate(-11.85)"/><path class="cls-39" d="M262.06,75.92A10,10,0,1,0,271.89,86,10,10,0,0,0,262.06,75.92Z"/><path class="cls-40" d="M262.06,76a9.89,9.89,0,1,0,9.76,10A9.88,9.88,0,0,0,262.06,76Z"/><path class="cls-41" d="M262.06,76.07a9.82,9.82,0,1,0,9.68,10A9.81,9.81,0,0,0,262.06,76.07Z"/><path class="cls-42" d="M262.06,76.14A9.75,9.75,0,1,0,271.67,86,9.75,9.75,0,0,0,262.06,76.14Z"/><path class="cls-43" d="M262.06,76.21A9.68,9.68,0,1,0,271.6,86,9.69,9.69,0,0,0,262.06,76.21Z"/><path class="cls-44" d="M262.05,76.28A9.61,9.61,0,1,0,271.53,86,9.62,9.62,0,0,0,262.05,76.28Z"/><path class="cls-45" d="M262.05,76.35A9.54,9.54,0,1,0,271.46,86,9.55,9.55,0,0,0,262.05,76.35Z"/><path class="cls-46" d="M262.05,76.42a9.47,9.47,0,1,0,9.34,9.6A9.48,9.48,0,0,0,262.05,76.42Z"/><path class="cls-47" d="M262.05,76.49A9.4,9.4,0,1,0,271.32,86,9.39,9.39,0,0,0,262.05,76.49Z"/><path class="cls-48" d="M262.05,76.57a9.32,9.32,0,1,0,9.2,9.45A9.31,9.31,0,0,0,262.05,76.57Z"/><path class="cls-49" d="M262.05,76.64A9.25,9.25,0,1,0,271.18,86,9.25,9.25,0,0,0,262.05,76.64Z"/><path class="cls-50" d="M262.05,76.71A9.18,9.18,0,1,0,271.1,86,9.18,9.18,0,0,0,262.05,76.71Z"/><path class="cls-51" d="M262.05,76.78A9.11,9.11,0,1,0,271,86,9.11,9.11,0,0,0,262.05,76.78Z"/><path class="cls-52" d="M262.05,76.85A9,9,0,1,0,271,86,9,9,0,0,0,262.05,76.85Z"/><path class="cls-53" d="M262.05,76.92A9,9,0,1,0,270.89,86,9,9,0,0,0,262.05,76.92Z"/><path class="cls-54" d="M262,77a8.9,8.9,0,1,0,8.78,9A8.9,8.9,0,0,0,262,77Z"/><path class="cls-55" d="M262,77.06a8.83,8.83,0,1,0,8.71,9A8.82,8.82,0,0,0,262,77.06Z"/><circle class="cls-56" cx="261.92" cy="85.89" r="8.76" transform="translate(-12.55 60.47) rotate(-12.86)"/><path class="cls-57" d="M262,77.21a8.68,8.68,0,1,0,8.57,8.8A8.67,8.67,0,0,0,262,77.21Z"/><circle class="cls-58" cx="261.92" cy="85.89" r="8.61" transform="translate(130.59 328.24) rotate(-79.7)"/><path class="cls-59" d="M262,77.35A8.54,8.54,0,1,0,270.46,86,8.54,8.54,0,0,0,262,77.35Z"/><circle class="cls-60" cx="261.92" cy="85.89" r="8.47" transform="translate(-10.42 43.36) rotate(-9.28)"/><circle class="cls-61" cx="261.92" cy="85.89" r="8.4" transform="translate(-7.16 26.11) rotate(-5.63)"/><path class="cls-62" d="M262,77.56A8.33,8.33,0,1,0,270.25,86,8.35,8.35,0,0,0,262,77.56Z"/><path class="cls-63" d="M262,77.63A8.26,8.26,0,1,0,270.18,86,8.26,8.26,0,0,0,262,77.63Z"/><path class="cls-64" d="M262,77.7a8.19,8.19,0,1,0,8.08,8.3A8.19,8.19,0,0,0,262,77.7Z"/><circle class="cls-65" cx="261.92" cy="85.89" r="8.12" transform="translate(-4.57 15.45) rotate(-3.35)"/><circle class="cls-66" cx="261.92" cy="85.89" r="8.04" transform="translate(-1.91 6.05) rotate(-1.32)"/><circle class="cls-67" cx="261.92" cy="85.89" r="7.97" transform="translate(-1.31 4.1) rotate(-0.89)"/><path class="cls-68" d="M262,78a7.9,7.9,0,1,0,7.79,8A7.9,7.9,0,0,0,262,78Z"/><path class="cls-69" d="M262,78.06A7.83,7.83,0,1,0,269.75,86,7.84,7.84,0,0,0,262,78.06Z"/><path class="cls-70" d="M262,78.13A7.76,7.76,0,1,0,269.68,86,7.76,7.76,0,0,0,262,78.13Z"/><path class="cls-71" d="M262,78.2a7.69,7.69,0,1,0,7.58,7.8A7.69,7.69,0,0,0,262,78.2Z"/><circle class="cls-72" cx="261.92" cy="85.89" r="7.62" transform="translate(-8.63 33.13) rotate(-7.12)"/><path class="cls-73" d="M262,78.34A7.55,7.55,0,1,0,269.47,86,7.55,7.55,0,0,0,262,78.34Z"/><path class="cls-74" d="M262,78.42A7.47,7.47,0,1,0,269.4,86,7.46,7.46,0,0,0,262,78.42Z"/><path class="cls-75" d="M262,78.49a7.4,7.4,0,1,0,7.3,7.5A7.4,7.4,0,0,0,262,78.49Z"/><path class="cls-76" d="M262,78.56A7.33,7.33,0,1,0,269.25,86,7.33,7.33,0,0,0,262,78.56Z"/><path class="cls-77" d="M262,78.63A7.26,7.26,0,1,0,269.18,86,7.26,7.26,0,0,0,262,78.63Z"/><path class="cls-78" d="M262,78.7A7.19,7.19,0,1,0,269.11,86,7.2,7.2,0,0,0,262,78.7Z"/><path class="cls-79" d="M262,78.77A7.12,7.12,0,1,0,269,86,7.13,7.13,0,0,0,262,78.77Z"/><path class="cls-80" d="M262,78.84A7.05,7.05,0,1,0,269,86,7,7,0,0,0,262,78.84Z"/><path class="cls-81" d="M262,78.91A7,7,0,1,0,268.9,86,7,7,0,0,0,262,78.91Z"/><path class="cls-82" d="M262,79a6.9,6.9,0,1,0,6.81,7A6.89,6.89,0,0,0,262,79Z"/><path class="cls-83" d="M262,79.06A6.83,6.83,0,1,0,268.76,86,6.82,6.82,0,0,0,262,79.06Z"/><path class="cls-84" d="M262,79.13A6.76,6.76,0,1,0,268.68,86,6.76,6.76,0,0,0,262,79.13Z"/><path class="cls-85" d="M262,79.2a6.69,6.69,0,1,0,6.6,6.78A6.69,6.69,0,0,0,262,79.2Z"/><path class="cls-86" d="M262,79.27A6.62,6.62,0,1,0,268.54,86,6.62,6.62,0,0,0,262,79.27Z"/><path class="cls-87" d="M262,79.34A6.55,6.55,0,1,0,268.47,86,6.55,6.55,0,0,0,262,79.34Z"/><path class="cls-88" d="M262,79.41A6.48,6.48,0,1,0,268.4,86,6.48,6.48,0,0,0,262,79.41Z"/><path class="cls-89" d="M262,79.48a6.41,6.41,0,1,0,6.32,6.5A6.4,6.4,0,0,0,262,79.48Z"/><path class="cls-90" d="M262,79.55A6.34,6.34,0,1,0,268.26,86,6.34,6.34,0,0,0,262,79.55Z"/><path class="cls-91" d="M262,79.63A6.26,6.26,0,1,0,268.19,86,6.26,6.26,0,0,0,262,79.63Z"/><path class="cls-92" d="M262,79.7a6.19,6.19,0,1,0,6.1,6.28A6.19,6.19,0,0,0,262,79.7Z"/><path class="cls-93" d="M262,79.77a6.12,6.12,0,1,0,6,6.2A6.12,6.12,0,0,0,262,79.77Z"/><path class="cls-94" d="M262,79.84A6.05,6.05,0,1,0,268,86,6.05,6.05,0,0,0,262,79.84Z"/><path class="cls-95" d="M262,79.91A6,6,0,1,0,267.9,86,6,6,0,0,0,262,79.91Z"/><path class="cls-96" d="M262,80a5.91,5.91,0,1,0,5.83,6A5.92,5.92,0,0,0,262,80Z"/><path class="cls-97" d="M262,80.05A5.84,5.84,0,1,0,267.76,86,5.84,5.84,0,0,0,262,80.05Z"/><path class="cls-98" d="M262,80.12A5.77,5.77,0,1,0,267.69,86,5.77,5.77,0,0,0,262,80.12Z"/><path class="cls-99" d="M262,80.2A5.69,5.69,0,1,0,267.62,86,5.69,5.69,0,0,0,262,80.2Z"/></g><ellipse class="cls-18" cx="279.26" cy="84.12" rx="8.36" ry="5.72" transform="translate(116.33 326.02) rotate(-72.8)"/><path class="cls-14" d="M282.21,86.53A6.76,6.76,0,0,1,274,86a29.34,29.34,0,0,1-6,17.81c-4.26,5.72-13.44,7.6-20.26,7.34-16.26-.63-20.53-5.6-23.86-12.32,2.28,7.36,7.9,14.19,20.69,15.08,23.69,1.66,30.23-8.22,31.18-22.27a4,4,0,0,0,.87.45c3,1.07,6.57-1.61,8-6a11.84,11.84,0,0,0,.6-3.34A7.35,7.35,0,0,1,282.21,86.53Z"/><path class="cls-14" d="M277,84.14l2.72.39a6.1,6.1,0,0,1,3.17-5.72C277.69,76.94,277,84.14,277,84.14Z"/><path class="cls-100" d="M259.17,92.17v0Z"/><path class="cls-101" d="M251.43,34.47c-30.13,2-25.75,35.4-25.75,35.4,1.8-9.94,8-22.25,12.75-22.5a18.13,18.13,0,0,0,10.29,3.5C254.24,51,261.89,47,261.89,47c5.51-.12,11.8,16.92,12.54,30.66.17,3.14,2.9-.49,2.9-.49S281,32.51,251.43,34.47Z"/><path class="cls-101" d="M267.18,37.07c-8.91-13.6-37.94-9.65-37.94-9.65-2.82,15.43,8,18.91,8,18.91s25.14-4.48,28.94-1.8,11.23,24.26,11.23,24.26,6.43-22.52,1.69-30.8C275.59,31.91,267.18,37.07,267.18,37.07Z"/><path class="cls-101" d="M240.47,24.29a8.38,8.38,0,0,0,1.87,4.11s30.44,20.69,24.84,8.67S240.47,24.29,240.47,24.29Z"/><path class="cls-101" d="M272.12,32.93C270.4,33.2,270,34,270,34c1.24-2.25.39-5.32.39-5.32-3.35,1.92-3,4.59-3,4.59-1.64-3.44-6.69-4.5-6.69-4.5.17,2.83,3.19,5.73,3.36,5.82l2.62,4,5.43-.85-.54-2.43A3,3,0,0,0,272.12,32.93Z"/><path class="cls-102" d="M230.05,39.16c-8.85,2.7-6.29,38-6.29,38,1.8-9.93,9.92-29.51,14.67-29.76A31.23,31.23,0,0,1,230.05,39.16Z"/><path class="cls-103" d="M264.51,36.81Z"/><path class="cls-103" d="M264.51,37Z"/><path class="cls-104" d="M275.64,35.26c-1.08.17-2.23.44-3.41.71a24.61,24.61,0,0,1-8.67.68c-3.35-.45-6.3-1.95-9.28-3.45-1.5-.76-3-1.54-4.55-2.2-3.32-1.42-7.24-2.82-10.9-2.7a15.18,15.18,0,0,0-5.25,1.3,11.28,11.28,0,0,0-3.75,2.5,10.63,10.63,0,0,0-1,1.19,18.15,18.15,0,0,0,.44,3.32l.36-.29a11.61,11.61,0,0,1,2.24-1.27,9.71,9.71,0,0,1,3-.76c4.35-.34,8.39,1.41,12.33,3,1.61.67,3.24,1.44,5,2.16a51.84,51.84,0,0,0,5.42,2,19.27,19.27,0,0,0,10.27.37c.44-.13.87-.23,1.29-.36a29.3,29.3,0,0,0,4.38-1.85c1.25-.65,2.33-1.24,3.28-1.68a13.11,13.11,0,0,1,1.79-.72A5.39,5.39,0,0,0,275.64,35.26Z"/><path class="cls-103" d="M264.44,36.82h0Z"/><path class="cls-17" d="M231.08,69.34s2.23-4.77,8.94-7.45L241.63,66a88.69,88.69,0,0,0-10.17,5.14Z"/><path class="cls-17" d="M268.35,69.91a20.72,20.72,0,0,0-9.64-8l-1.34,4a89,89,0,0,1,10.12,5.23Z"/><path class="cls-105" d="M254.7,79s2.33-6,8.19-4.88a7.1,7.1,0,0,1,5.92,6.79s-2.56,2.1-7.94,1.33C254.69,81.31,254.7,79,254.7,79Z"/><path class="cls-105" d="M241.23,79.1s-7.42-12.61-12.83.6c0,0,.35,1.63,5.23,1.89C240.3,81.93,241.23,79.1,241.23,79.1Z"/><path class="cls-106" d="M237.73,81.32a16.34,16.34,0,0,0,.63-1.7,4.78,4.78,0,0,0-.35-4.15,5.86,5.86,0,0,0-1.63-.72c-1.22.13-2.5,1.42-3.08,3.27a6.36,6.36,0,0,0,0,3.55l.29,0A15.31,15.31,0,0,0,237.73,81.32Z"/><path class="cls-107" d="M233,79.1s3.53-2.69,4-.89-4,2.39-4,2.39Z"/><path class="cls-108" d="M262.81,82.39A5.84,5.84,0,0,0,264,80.22c.7-2.22.14-4.37-1.26-4.81s-3.09,1-3.79,3.22a5.54,5.54,0,0,0-.12,3.18c.59.14,1.26.27,2,.38S262.21,82.35,262.81,82.39Z"/><path class="cls-107" d="M258,79.71s3.76-2.69,4.22-.9-4.22,2.4-4.22,2.4Z"/><path class="cls-17" d="M241.23,79.1s-3-5-7.42-3.7c-4.73,1.4-5.41,4.3-5.41,4.3a6.41,6.41,0,0,1,5.41-6.93C240.59,71.49,241.23,79.1,241.23,79.1Z"/><path class="cls-17" d="M254.7,79s2.15-4.26,7.87-2.78a10.07,10.07,0,0,1,6.24,4.69,7.79,7.79,0,0,0-5.38-7.45C257.12,71.25,254.7,79,254.7,79Z"/><path class="cls-109" d="M237.71,100.5l-.06-.06a1.24,1.24,0,0,1,.1-1.67c2.68-2.61,5.57-3.93,8.61-3.93,4.53,0,8.09,3,9.61,4.47a1.2,1.2,0,0,1,0,1.67l-.07.07a1,1,0,0,1-1.38,0c-1.31-1.28-4.44-3.89-8.24-3.89a10.18,10.18,0,0,0-7.1,3.3A1,1,0,0,1,237.71,100.5Z"/><path class="cls-101" d="M277.33,77.13H274.4a46.65,46.65,0,0,1-1.2,5.48,17.26,17.26,0,0,1-2.8,5.12,10.79,10.79,0,0,1-10,3.73c-4.3-.71-8.14-3.27-12.58-3.29a14.77,14.77,0,0,0-7.19,1.6c-1.74.92-3.39,2-5.38,2.19a9.53,9.53,0,0,1-9.66-5.23,19.47,19.47,0,0,1-1.5-5c-.23-1.33-.69-3.3-.37-4.64-3.64,14.8-5.73,38.46,25.4,38S276.08,91.2,276.08,91.2C274.58,86,277.33,77.13,277.33,77.13Zm-26.8,23.17a7.43,7.43,0,0,0-6.16-.89c-2.13.63-3.82,2.77-6,3-1.88.16-2.88-1.89-2.45-3.51,1.6-6.17,11.05-6.76,15.92-5,2.64.94,9.12,5.17,5.42,8.45C254.84,104.38,252.42,101.53,250.53,100.3Z"/><path class="cls-18" d="M244.43,82.1s-4.27-3.12-5.8,2.33,9.33,8.72,12.33,3-4.75-16.35-4.75-16.35S247.73,77.67,244.43,82.1Z"/><path class="cls-110" d="M244.43,82.1s-4.15-2.94-5.69,2a38.72,38.72,0,0,0,6.78,1,29.52,29.52,0,0,0,1.95-10.65l-.93-.26A12.29,12.29,0,0,1,244.43,82.1Z"/><path class="cls-14" d="M238.52,86c.62,4.48,9.73,6.65,12.44,1.51a5.6,5.6,0,0,0,.4-1A27,27,0,0,1,238.52,86Z"/><path class="cls-111" d="M207.7,269.4l2.43-.48a27.26,27.26,0,0,1,.12,23.46l-2.86-.85Z"/><path class="cls-112" d="M243,101.94s2.28-2.38,6.41-.15a3,3,0,0,1-3.18,2.47C243.19,104.26,243,101.94,243,101.94Z"/><path class="cls-111" d="M281.22,289.4l-3,1.41a23.51,23.51,0,0,1-3.57-11.75,32.76,32.76,0,0,1,2.94-12.81l2.5,1.15Z"/><path class="cls-113" d="M208.39,269.26h0a39.54,39.54,0,0,1,1.11,12.24,32.28,32.28,0,0,1-2.11,10s-39.76-16.91-34.72-22.75C176.71,264.09,208.39,269.26,208.39,269.26Z"/><path class="cls-113" d="M280.65,267.35l-.52,0a29.53,29.53,0,0,0-1.8,12.1c.5,6.5,2.65,9.9,2.65,9.9s48.31-15.94,43.27-21.77C320.2,262.94,280.65,267.35,280.65,267.35Z"/><path class="cls-114" d="M204.89,253l3.71,14.94s13.8,3.94,36,3.94c23.81,0,37.9-5.88,37.9-5.88l4.22-13Z"/><path class="cls-115" d="M292.15,138.59c-.56-7.51-8.39-13.08-19.78-16.07-.75,1.71-2.42,3.37-3.67,5a23.68,23.68,0,0,1-16.62,8.83c-9.61.79-21.19-5.29-24.28-13.79-4,.68-9.4,4.18-13.13,7.83-16.68,16.3-13.5,104.28-12.59,125.33a6.43,6.43,0,0,0,5.28,6.05,215.39,215.39,0,0,0,37.59,3c13.45,0,29.63-1.75,37.81-2.76a6.35,6.35,0,0,0,5.59-6C289.48,235.65,293.39,155.32,292.15,138.59Z"/><path class="cls-116" d="M292.35,143.7a112.3,112.3,0,0,1-2.27,17.59q-.52,2.81-1.13,5.58c-.58,4.16-9.7,66.13-51.92,65.61-9-.11-18.21-6.63-23.59-13.88-5.2-7-6.68-15.61-8.45-23.94l-.09-.43c0,.24-.23-.9-.83-3.42a38.54,38.54,0,0,1-.75-7.5c0-4-.12-8.07-.16-12.1-3.12,31.68-1.65,71.26-1.08,84.47a6.43,6.43,0,0,0,5.28,6.05,215.39,215.39,0,0,0,37.59,3c13.45,0,29.63-1.75,37.81-2.76a6.35,6.35,0,0,0,5.59-6C289.39,237.27,292.79,167.67,292.35,143.7Z"/><polygon class="cls-117" points="160.92 231.54 161.56 238 178 238 179.06 230.81 160.92 231.54"/><path class="cls-4" d="M165.7,259.19c1.57,3.43,4.53,5.91,7.25,8.33a6.72,6.72,0,0,1,1.75,2,5.62,5.62,0,0,1,.48,2.28,3.56,3.56,0,0,0,.35,1.81,1.67,1.67,0,0,0,1.87.67,2.29,2.29,0,0,0,1.37-1.5,5.09,5.09,0,0,0,.17-2.17,18.51,18.51,0,0,0-3.94-8.81,8.75,8.75,0,0,1-1.39-1.71,5.69,5.69,0,0,1-.46-2.92,7.18,7.18,0,0,1,.7-3.27,8.26,8.26,0,0,1,2.44-2.45c1.55-1.19,3.76-5.44,1.58-8.4-4-5.49-15.59-2.84-15.59-2.84S160.93,248.78,165.7,259.19Z"/><path class="cls-115" d="M161.78,233a4.38,4.38,0,0,1-4.38-4.54,243.38,243.38,0,0,1,2.49-25.71c3.19-21.91,12.35-43.91,28.7-59.27.59-.54,1.22-1.06,1.82-1.59,10.24-9.08,22.69-15.33,35.79-19.08l1.1-.31s0,27.32,0,27.33c0,.52-6.26,2.27-6.82,2.48A56.73,56.73,0,0,0,209.14,158a55.66,55.66,0,0,0-18.09,20.22c-4.75,8.93-6.48,18.74-7.81,28.66a190,190,0,0,0-1.85,22,4.22,4.22,0,0,1-4.22,4.13Z"/><polygon class="cls-4" points="336.04 234.41 336.82 241 322.96 241.36 322.19 233.84 336.04 234.41"/><polygon class="cls-117" points="338.08 231.54 337.44 238 321.77 237.94 320.71 230.75 338.08 231.54"/><path class="cls-4" d="M333.3,259.19c-1.57,3.43-4.53,5.91-7.25,8.33a6.72,6.72,0,0,0-1.75,2,5.62,5.62,0,0,0-.48,2.28,3.56,3.56,0,0,1-.35,1.81,1.67,1.67,0,0,1-1.87.67,2.29,2.29,0,0,1-1.37-1.5,5.09,5.09,0,0,1-.17-2.17,18.51,18.51,0,0,1,3.94-8.81,8.75,8.75,0,0,0,1.39-1.71,5.69,5.69,0,0,0,.46-2.92,7.18,7.18,0,0,0-.7-3.27,8.26,8.26,0,0,0-2.44-2.45c-1.55-1.19-3.76-5.44-1.58-8.4,4-5.49,15.59-2.84,15.59-2.84S338.07,248.78,333.3,259.19Z"/><path class="cls-115" d="M337.22,233a4.38,4.38,0,0,0,4.38-4.54,243.38,243.38,0,0,0-2.49-25.71c-3.19-21.91-12.36-43.91-28.7-59.27-.59-.54-1.2-1.07-1.82-1.59-14.34-12.06-33.83-18.84-34.2-18.94,0,0-2.67,26.87-2.67,26.88,0,.52,27.2,14.34,34.94,28.15,4.95,8.82,7.77,19,9.1,28.93a190,190,0,0,1,1.85,22,4.22,4.22,0,0,0,4.22,4.13Z"/><path class="cls-117" d="M233.94,120.93s.32,15,14.93,15.4c17.25.51,18.62-15.15,18.62-15.15s4.32-.67,6.9,1.77c0,0,1,20.49-25.51,20.3-22.82-.16-21.58-20.83-21.58-20.83S229.34,120.93,233.94,120.93Z"/></svg>