<svg id="Ñëîé_1" data-name="Ñëîé 1" xmlns="http://www.w3.org/2000/svg" xmlns:xlink="http://www.w3.org/1999/xlink" viewBox="0 0 2560 1920"><defs><style>.cls-1,.cls-109,.cls-114,.cls-122,.cls-14,.cls-8{fill:#fff;}.cls-2{fill:#ff4a4a;}.cls-3{fill:#ff8468;}.cls-4{fill:#d6dae5;}.cls-5{fill:#ff5f5c;}.cls-6,.cls-8{opacity:0.4;}.cls-7{fill:#302641;}.cls-9{fill:#e6e6e6;}.cls-10{fill:url(#Áåçûìÿííûé_ãðàäèåíò_5);}.cls-11{opacity:0.07;}.cls-12{fill:#563428;}.cls-13{opacity:0.18;}.cls-110,.cls-14{opacity:0.11;}.cls-15{fill:url(#Áåçûìÿííûé_ãðàäèåíò_10);}.cls-16{fill:#3b3b3b;}.cls-17{fill:url(#Áåçûìÿííûé_ãðàäèåíò_10-2);}.cls-18{fill:url(#Áåçûìÿííûé_ãðàäèåíò_10-3);}.cls-19{fill:#d6a98c;}.cls-20{opacity:0.1;}.cls-21{fill:#e9c5a6;}.cls-22{fill:#7c302a;}.cls-117,.cls-123,.cls-23{fill:#ff8768;}.cls-24{fill:#3e1208;}.cls-25{fill:#ff9a77;}.cls-26{opacity:0.44;}.cls-27{fill:#ff9976;}.cls-28{fill:#ff9876;}.cls-29{fill:#ff9775;}.cls-30{fill:#ff9675;}.cls-31{fill:#ff9574;}.cls-32{fill:#ff9473;}.cls-33{fill:#fe9373;}.cls-34{fill:#fe9272;}.cls-35{fill:#fe9172;}.cls-36{fill:#fe9071;}.cls-37{fill:#fe8f70;}.cls-38{fill:#fe8e70;}.cls-39{fill:#fe8d6f;}.cls-40{fill:#fe8c6f;}.cls-41{fill:#fe8b6e;}.cls-42{fill:#fe8a6d;}.cls-43{fill:#fe896d;}.cls-44{fill:#fe886c;}.cls-45{fill:#fe876c;}.cls-46{fill:#fe866b;}.cls-47{fill:#fd856a;}.cls-48{fill:#fd846a;}.cls-49{fill:#fd8369;}.cls-50{fill:#fd8268;}.cls-51{fill:#fd8168;}.cls-52{fill:#fd8067;}.cls-53{fill:#fd7f67;}.cls-54{fill:#fd7e66;}.cls-55{fill:#fd7d65;}.cls-56{fill:#fd7c65;}.cls-57{fill:#fd7b64;}.cls-58{fill:#fd7a64;}.cls-59{fill:#fd7963;}.cls-60{fill:#fc7862;}.cls-61{fill:#fc7762;}.cls-62{fill:#fc7661;}.cls-63{fill:#fc7561;}.cls-64{fill:#fc7460;}.cls-65{fill:#fc735f;}.cls-66{fill:#fc725f;}.cls-67{fill:#fc725e;}.cls-68{fill:#fc715e;}.cls-69{fill:#fc705d;}.cls-70{fill:#fc6f5c;}.cls-71{fill:#fc6e5c;}.cls-72{fill:#fc6d5b;}.cls-73{fill:#fc6c5b;}.cls-74{fill:#fb6b5a;}.cls-75{fill:#fb6a59;}.cls-76{fill:#fb6959;}.cls-77{fill:#fb6858;}.cls-78{fill:#fb6758;}.cls-79{fill:#fb6657;}.cls-80{fill:#fb6556;}.cls-81{fill:#fb6456;}.cls-82{fill:#fb6355;}.cls-83{fill:#fb6255;}.cls-84{fill:#fb6154;}.cls-85{fill:#fb6053;}.cls-86{fill:#fb5f53;}.cls-87{fill:#fa5e52;}.cls-88{fill:#fa5d51;}.cls-89{fill:#fa5c51;}.cls-90{fill:#fa5b50;}.cls-91{fill:#fa5a50;}.cls-92{fill:#fa594f;}.cls-93{fill:#fa584e;}.cls-94{fill:#fa574e;}.cls-95{fill:#fa564d;}.cls-96{fill:#fa554d;}.cls-97{fill:#fa544c;}.cls-98{fill:#fa534b;}.cls-99{fill:#fa524b;}.cls-100{fill:#fa514a;}.cls-101{fill:#f9504a;}.cls-102{fill:#f94f49;}.cls-103{fill:#f94e48;}.cls-104{fill:#f94d48;}.cls-105{fill:#f94c47;}.cls-106{fill:#f94b47;}.cls-107{fill:#f94a46;}.cls-108{fill:#472a21;}.cls-109{opacity:0.12;}.cls-110{fill:#fc901e;}.cls-111{fill:url(#Áåçûìÿííûé_ãðàäèåíò_29);}.cls-112{fill:#ff294b;opacity:0.17;}.cls-113{fill:#b7a595;opacity:0.33;}.cls-114{opacity:0.2;}.cls-115{fill:#59362d;}.cls-116{opacity:0.16;}.cls-117{opacity:0.53;}.cls-118,.cls-121{opacity:0.15;}.cls-119{fill:url(#Áåçûìÿííûé_ãðàäèåíò_9);}.cls-120{fill:url(#Áåçûìÿííûé_ãðàäèåíò_9-2);}.cls-122{opacity:0.8;}.cls-123{opacity:0.35;}</style><linearGradient id="Áåçûìÿííûé_ãðàäèåíò_5" x1="1952.16" y1="1515.71" x2="2158.93" y2="1515.71" gradientUnits="userSpaceOnUse"><stop offset="0" stop-color="#4ca674"/><stop offset="1" stop-color="#397353"/></linearGradient><linearGradient id="Áåçûìÿííûé_ãðàäèåíò_10" x1="1908.61" y1="1638.09" x2="1062.42" y2="1688.19" gradientUnits="userSpaceOnUse"><stop offset="0" stop-color="#a4b1ba"/><stop offset="1" stop-color="#494f53"/></linearGradient><linearGradient id="Áåçûìÿííûé_ãðàäèåíò_10-2" x1="630.99" y1="1357.37" x2="798" y2="1791.6" xlink:href="#Áåçûìÿííûé_ãðàäèåíò_10"/><linearGradient id="Áåçûìÿííûé_ãðàäèåíò_10-3" x1="403.97" y1="1197.54" x2="990.43" y2="1797.69" xlink:href="#Áåçûìÿííûé_ãðàäèåíò_10"/><radialGradient id="Áåçûìÿííûé_ãðàäèåíò_29" cx="1411.15" cy="768.72" r="155.19" gradientUnits="userSpaceOnUse"><stop offset="0" stop-color="#931c2d"/><stop offset="0.12" stop-color="#851929"/><stop offset="0.35" stop-color="#5f121d"/><stop offset="0.66" stop-color="#24070b"/><stop offset="0.84"/></radialGradient><linearGradient id="Áåçûìÿííûé_ãðàäèåíò_9" x1="1301.07" y1="591.93" x2="1338.38" y2="553.69" gradientUnits="userSpaceOnUse"><stop offset="0" stop-color="#673030"/><stop offset="1"/></linearGradient><linearGradient id="Áåçûìÿííûé_ãðàäèåíò_9-2" x1="1507.13" y1="592.01" x2="1544.45" y2="553.76" xlink:href="#Áåçûìÿííûé_ãðàäèåíò_9"/></defs><rect class="cls-1" width="2560" height="1920"/><path class="cls-2" d="M1370.61,849.4s153.12-47.21,206.7-24.43,16,82.28,16,82.28Z"/><path class="cls-3" d="M1582.88,1059.41V873.14a812.81,812.81,0,0,0-112.73-10c-70-1-134.56,14.4-189.28,35.65v160.59Z"/><path class="cls-4" d="M1596.8,872.5c-14.66-2.22-24.83-3.33-39.37-4.46-.41,14.49,4.31,64.92-19.86,93.23-37,43.32-139.42,64.08-189.24,27.59-42.41-31.05-11.86-97.5-9.87-108.88-25.42,3.82-52.6,13.88-75.68,24.7l11,811.92,334,6Z"/><path class="cls-5" d="M1859,982.5c-13.43-19.63-25.22-78-144.72-101.59-16.43-3.25-77.23-12.47-77.23-12.47s-29.09-47.78-89.41-57.1c34,45.89,22.22,123.81,11.21,159.77-63.49,207.38-81.26,422.79-109.46,737.7l381.78,13.68S1880.27,1013.54,1859,982.5Z"/><path class="cls-5" d="M1859,982.5c-13.43-19.63-25.22-78-144.72-101.59-16.43-3.25-77.23-12.47-77.23-12.47s-29.09-47.78-89.41-57.1c34,45.89,22.22,123.81,11.21,159.77-63.49,207.38-81.26,422.79-109.46,737.7l381.78,13.68S1880.27,1013.54,1859,982.5Z"/><path class="cls-5" d="M1337.28,847.37C1288.48,850.13,1228,908,1228,908c-13.6,6.1-32.51,14.81-44.53,21.28-59.88,32.23-99.2,66.58-107.87,78.58-18.09,25,4.16,714.68,4.16,714.68l249.86-15.64c1.43-174.84,2.47-244.39-2.11-317.7-10.9-137.38-48.08-274.81-53.58-421.7-2.09-55.67,66-88,66-88S1339.88,859,1337.28,847.37Z"/><path class="cls-5" d="M1273.92,967.45c-2.09-55.67,66-88,66-88s0-20.49-2.6-32.12C1288.48,850.13,1228,908,1228,908c-.09.24-15.06-.13-16.38-.37-6.92-1.26-13-8-18.56-12.24-2.74-2.08-5.64-4.25-9-4.7-12.92-1.74-20.15,20.55-32.88,17.77-5.92-1.29-9.6-7.83-15.53-9.07-10-2.09-17.41,11.71-27.6,11.22-6.31-.3-11.17-6.06-17.4-7.1-5.17-.85-7.39,2-11.3,4.34-4.54,2.68-5.86-4.57-12.5-4.76-37.12-1-216.93-130.69-272.12-137-160-18.4-265.87,141.25-170.59,245,68,74.06,285.7,190,444.95,241.47,2.23,207.07,10.72,470,10.72,470l249.86-15.64c1.43-174.84,2.47-244.39-2.11-317.7C1316.6,1251.77,1279.42,1114.34,1273.92,967.45Z"/><g class="cls-6"><path class="cls-7" d="M1337.45,847.37a81.63,81.63,0,0,0-17.45,3.09v41.32a132.77,132.77,0,0,1,20.13-12.29S1340.05,859,1337.45,847.37Z"/><path class="cls-7" d="M591,896a114.08,114.08,0,0,0,0,52Z"/><path class="cls-7" d="M799,766.65c-2-.27-2.74-.5-4-.65-36.79-4.23-71,1-100,12.71v290.42a1151.46,1151.46,0,0,0,104,63.62Z"/><path class="cls-7" d="M1007,876.75c-31-17.14-69-40-104-60.61v369.51c35,16.33,70,31.47,104,44.59Z"/><path class="cls-7" d="M1327.67,1389.15c-1.91-24-4.67-48.06-7.67-72.15v390.47l9.86-.62C1331.29,1532,1332.25,1462.46,1327.67,1389.15Z"/><path class="cls-7" d="M1216,907.81c-2-.07-3.83-.16-4.22-.23-6.92-1.26-13.14-8-18.65-12.24-2.73-2.09-5.68-4.25-9.09-4.7-12.92-1.74-20.17,20.55-32.9,17.77-5.92-1.29-9.44-7.83-15.37-9.07-8.76-1.83-15.77,8.53-23.77,10.8v810.35l104-6.51Z"/></g><g class="cls-6"><path class="cls-7" d="M1073.31,1488h257.38c-.33-37.72-1.26-68-3.19-98.85-.16-2.05-.35-4.15-.52-6.15H1071.05C1071.73,1419,1072.51,1454.2,1073.31,1488Z"/><path class="cls-7" d="M624.08,1011c16.56,18,42,38.55,73.3,60h585.1c-4.13-34.07-7.25-68.54-8.56-103.55,0-.15,0-.3,0-.45H596.32A138.87,138.87,0,0,0,624.08,1011Z"/><path class="cls-7" d="M1075.94,1592c1.21,45,2.29,81,3,104H1329.7c.33-40,.63-74,.84-104Z"/><path class="cls-7" d="M1291.53,862h47.67a111.27,111.27,0,0,0-1.92-14.63C1322.44,848.21,1306.51,854,1291.53,862Z"/><path class="cls-7" d="M880.34,1175c63.91,31,130.24,58.59,188.69,77.46q.15,13.14.32,26.54h244.91c-5.19-34.46-11-69-16.68-104Z"/><path class="cls-7" d="M602.37,862H980.83c-66.91-39-151.34-92-186.16-96C704.82,755.67,632.05,801,602.37,862Z"/></g><path class="cls-5" d="M2124,768.55c-28.42,11.39-40.9,37.3-68.81,49.86-39.59,17.82-79.66,34.71-120.81,48.63A665.64,665.64,0,0,1,1870,885.58c-15.72,3.62-44.25,13-57.11-1.15-2-2.23-3.73-5-6.51-6.12-7.74-3.21-15,8.18-23.27,7-.71-10.14-13.67-17.12-22.53-12.14-2.91,1.64-5.22,4.21-8.2,5.74s-7.2,1.59-9.09-1.16a16.61,16.61,0,0,1-1.33-3c-2.62-6.16-10.41-8.59-17-7.63s-12.57,4.46-18.75,7.06c-13.46,5.66-28.79.45-42.66-1.72q-13.23-2.07-26.46-4.08s-29.09-47.78-89.41-57.1c34,45.89,22.22,123.81,11.21,159.77-63.49,207.38-81.26,422.79-109.46,737.7l381.78,13.68s19.36-292.38,28.86-504.08c16.89,4.19,350.28-51.08,433-238.41,31.24-70.8,25.91-106.66-11.33-157C2224.67,746,2153.19,756.84,2124,768.55Z"/><g class="cls-6"><path class="cls-7" d="M1555,985.11v727.47l104,3.73V871.77c-8-1.12-14.4-2.24-21.6-3.33,0,0-27.4-44.07-82.4-55.82v9.75c25,46.51,14.37,115.52,4.21,148.74C1557.78,975.77,1556,980.44,1555,985.11Z"/><path class="cls-7" d="M1868,886.14c-16,3.91-42.68,11.74-54.92-1.71-2-2.23-3.81-5-6.59-6.12-7.75-3.21-14.85,8.18-23.15,7-.63-9-11.34-15.54-19.34-13.36v848.08l67.36,2.42s19.44-292.38,28.94-504.08c1.15.28,3.7.29,7.7,0Z"/><path class="cls-7" d="M2076,805.35a88.92,88.92,0,0,1-20.48,13.06C2028,830.8,2000,842.75,1972,853.56v343.77a900,900,0,0,0,104-35.87Z"/><path class="cls-7" d="M2285,996.93V827.13c-1-1.37-2-2.74-3-4.13-32.81-44.35-71-59.56-102-62.25v345.38C2223,1076.77,2261,1040.72,2285,996.93Z"/></g><g class="cls-6"><path class="cls-7" d="M2055.18,818.41c-39.59,17.82-79.66,34.71-120.81,48.63A665.64,665.64,0,0,1,1870,885.58c-15.72,3.62-44.25,13-57.11-1.15-2-2.23-3.73-5-6.51-6.12-7.74-3.21-15,8.18-23.27,7-.71-10.14-13.67-17.12-22.53-12.14-2.91,1.64-5.22,4.21-8.2,5.74s-7.2,1.59-9.09-1.16a16.61,16.61,0,0,1-1.33-3c-2.62-6.16-10.41-8.59-17-7.63s-12.57,4.46-18.75,7.06c-13.46,5.66-28.79.45-42.66-1.72q-13.23-2.07-26.46-4.08S1609.22,823,1551.53,812h-3.39c20.66,28,24.06,69,21.06,104h743.39c3.91-34-6.81-60.4-30.92-93a108.15,108.15,0,0,0-8.75-11h-206.2C2063.15,814,2059.34,816.54,2055.18,818.41Z"/><path class="cls-7" d="M1544.51,1021c-9.23,34-17.35,69-24.62,104h629.6c47.19-27,90.32-62,120.18-104Z"/><path class="cls-7" d="M1473.68,1542h368.85q3-49.5,6.17-105H1474.81c-8.61,83-16.48,172.21-25.4,271.8l381.78,13.69s2-29.49,4.92-76.49H1473.17c.14-30,.29-59.17.43-88.82C1473.63,1552.09,1473.66,1547,1473.68,1542Z"/><path class="cls-7" d="M1501.14,1229c-5.29,34-10.08,68-14.53,104h367.81c1.87-36,3.62-71,5.15-104Z"/></g><g class="cls-6"><path class="cls-1" d="M723.34,1015.45h-1.56c-44.51-.27-77.95-12.23-96.71-34.58s-27.1-47.05-24.45-73c5.52-54.12,56.17-94.73,58.32-96.44l7.45,9.41h0c-.66.52-48.88,39.34-53.84,88.29-2.29,22.58,5,44.11,21.71,64,20.76,24.73,59.09,30.13,87.59,30.3,66.36.42,148.69-27.34,176.27-59.38,40.07-46.57,20.07-93.81,19.86-94.28L929,845c.25.56,6,14,6.23,33.92.16,18.27-4.56,45.78-28,73C893.12,968.26,865,984.57,830,996.64,794.85,1008.79,757,1015.45,723.34,1015.45Z"/></g><g class="cls-6"><path class="cls-1" d="M895.48,1023.63l-7.63-9.26c40.8-33.6,61-71.47,59.94-112.53-.77-30.43-13.36-51.11-13.49-51.31l10.2-6.32c.59.95,14.43,23.68,15.28,57.32C960.56,932.44,950,978.7,895.48,1023.63Z"/></g><path class="cls-8" d="M1216.3,907.83c-12.08,24.68-34.21,79.31-26.22,135.24l.7,4.85,4.88-.38c.67-.06,61.13-3.56,96.85,95.41q-3-19.17-5.67-38.49c-12.42-22.79-27.48-40.23-45.12-52-18.16-12.15-34.09-14.76-41.87-15.25-6.17-54.75,17.83-109,28.13-129.23C1227.84,908.11,1221.11,908,1216.3,907.83Z"/><path class="cls-8" d="M1590.44,1071.58c33.14-15.64,63.44-14.19,63.73-14.18l4.7.27.75-4.65c15-93,1.3-152.6-9.89-182.64l-12-1.84c10.55,25.9,26.67,84.25,12.32,178.38a160.09,160.09,0,0,0-63.59,15c-21.36,10-46.76,28.1-66.05,60.74q-5.16,24.93-9.78,50.45C1523.94,1124.47,1550.71,1090.32,1590.44,1071.58Z"/><path class="cls-8" d="M2299.65,913.83c-3-44.38-24.19-73-41.45-89.22-18.7-17.55-36.63-24.57-37.38-24.86l-4.31,11.2c.66.25,66,26.26,71.17,103.68,2.59,38.59-17.46,78-51.1,100.48-24.29,16.21-76.79,37.59-155.51-1.48-51.68-25.65-84.6-58.55-95.21-95.14a91.54,91.54,0,0,1-3.58-30.36c6.92-13.21,15.09-19.14,15.19-19.22l-6.87-9.84a55,55,0,0,0-10,9.82l-.93-.35-5.62-2.13a73.45,73.45,0,0,0-3.62,18.52,93,93,0,0,0-5.26,13.56c-10.7,35.42-2.78,79,23.53,129.67l10.65-5.53c-20.49-39.43-29.33-75.14-26-104.42.24.92.48,1.85.74,2.78,5.07,18,14.87,35.19,29.11,51.06,17.54,19.54,42,37.14,72.53,52.32,31.14,15.46,61.5,23.28,90.34,23.28,1.36,0,2.73,0,4.08-.06,26.8-.69,52.08-8.47,73.1-22.5a128.74,128.74,0,0,0,43.58-49.32A120.57,120.57,0,0,0,2299.65,913.83Z"/><path class="cls-8" d="M1069.41,1267c0-57,5.06-127.14,5.11-127.83l-10.41-.8c0,.62-4.16,57-5,110.83q5,1.66,9.91,3.26.09,7.23.17,14.53h.21Z"/><path class="cls-8" d="M1870.2,1218.21c-.56-38.71-1.34-69.63-1.35-97.66l-10.43.27c0,28,.86,61.59,1.41,102.52.07-1.64.15-3.29.22-4.93C1861.43,1218.75,1864.92,1218.7,1870.2,1218.21Z"/><path class="cls-3" d="M1422.66,658.91h0c-59.57,1.48-102,24.36-95.71,60.93,0,0,12.93,139.6,3.36,188.1-7.18,36.41,76.86,51.15,136.44,49.66s87.29-21.19,90.45-58.17c5.06-59.3-23.55-173.81-23.55-173.81C1527.38,689.05,1482.24,657.43,1422.66,658.91Z"/><path class="cls-8" d="M1285.48,1330.38l-.1-4.06-163.48,5,.21,4.37c2.13,44.25,7.81,148,14.66,155.21s60.21,28.75,70.85,33l1.65.66,1.66-.76c20.91-9.7,70-33.2,73.86-42.1C1288.54,1473.1,1286.27,1363.71,1285.48,1330.38Zm-8.26,4.53c.19,8.22.37,17.13.53,26.36l-145.66,5c-.5-9-1-18-1.42-26.92Zm-.07,143.57c-3.53,5-36.84,22.49-67.89,37-25.39-10.17-61.43-25.73-66.17-30.22-3.13-6.15-7.32-56.15-10.52-110.58l145.33-5C1278.69,1418.09,1279,1471.94,1277.15,1478.48Z"/><path class="cls-8" d="M1743.6,1327.59l-183.95-.82-.29,3.85c-5.43,71.17-11.32,157-8.61,162.29.88,1.71,3.56,6.86,95.08,32.37l1.71.46,1.61-.9c11.8-6.45,71-39.06,77.22-49.94,4.11-7.21,9.63-61.9,13.35-100.9h.22l.5-8h0c1.3-16,2.36-28.15,2.84-34.18Zm-24.62,143c-3.24,5.69-38.9,27.78-72.08,46-39.37-11-81.74-24.55-88.36-28.64-.84-8.8,2.63-64.68,6.26-116l166.41.74C1727.08,1417.87,1722,1465.12,1719,1470.61Zm-153.6-106.85c.74-10.27,1.5-20.53,2.14-28.74l166.93.74c-.69,8.21-1.57,18.48-2.5,28.74Z"/><polygon class="cls-9" points="1950.23 1388 1975.39 1687.01 2134.14 1688.13 2160.87 1388 1950.23 1388"/><polygon class="cls-10" points="2143.58 1601.79 2158.93 1429.68 1952.16 1429.63 1966.67 1601.75 2143.58 1601.79"/><polygon class="cls-11" points="2158.9 1411 2160.59 1394 1950.5 1394 1952.1 1411 2158.9 1411"/><path class="cls-12" d="M2157.11,1379.65H1954.27l6.78-35.22a14.32,14.32,0,0,1,14-11.59h163.58a12.64,12.64,0,0,1,12.51,10.6Z"/><polygon class="cls-13" points="1957.11 1364.9 1954.27 1379.65 2157.11 1379.65 2154.68 1364.9 1957.11 1364.9"/><path class="cls-12" d="M2168.45,1393.58H1942.1a4.12,4.12,0,0,1-4.08-4.7l1.92-13.49a4.12,4.12,0,0,1,4.08-3.54h222.9a4.11,4.11,0,0,1,4.09,3.66l1.54,13.48A4.12,4.12,0,0,1,2168.45,1393.58Z"/><polygon class="cls-14" points="2078.4 1602.02 2067.43 1429.45 1985.32 1429.45 1996.32 1602.02 2078.4 1602.02"/><path class="cls-15" d="M1546.11,1664.55l-460.47-4.43a13,13,0,0,0-.16,26l461.55,0c7.16,0,12.57-3.11,12.61-10.27S1553.27,1664.59,1546.11,1664.55Z"/><path class="cls-16" d="M1155.79,1666.11l-24.17-.14a6,6,0,1,0-.07,12.08l24.17.14a6,6,0,0,0,.07-12.08Z"/><path class="cls-16" d="M1213,1666.44l-24.16-.14a6,6,0,0,0-.08,12.08l24.17.15a6,6,0,0,0,.07-12.09Z"/><path class="cls-16" d="M1324.7,1673.14a6.06,6.06,0,0,0-6-6.08l-53.45-.31a6,6,0,0,0-.07,12.08l53.45.31a6.05,6.05,0,0,0,6.08-6Z"/><path class="cls-17" d="M889.19,1238.54a22.63,22.63,0,0,0-20.3-12.64l-608.77-.58A22.66,22.66,0,0,0,239.78,1258l204.5,415a22.69,22.69,0,0,0,20.31,12.64l612.94.57a22.66,22.66,0,0,0,20.35-32.68Z"/><path class="cls-18" d="M880.82,1238.53a22.66,22.66,0,0,0-20.31-12.65l-612.94-.57A22.66,22.66,0,0,0,227.23,1258l204.5,415A22.68,22.68,0,0,0,452,1685.59l612.94.57a22.66,22.66,0,0,0,20.35-32.68Z"/><path class="cls-19" d="M253.06,1741.85v49.05a13.1,13.1,0,0,0,13.11,13.1H2322.72a12.41,12.41,0,0,0,12.42-12.41v-50.43a12.42,12.42,0,0,0-12.42-12.42H266.17A13.11,13.11,0,0,0,253.06,1741.85Z"/><path class="cls-20" d="M253.06,1741.85v49.05a13.1,13.1,0,0,0,13.11,13.1H2322.72a12.41,12.41,0,0,0,12.42-12.41v-50.44a12.42,12.42,0,0,0-12.42-12.41H266.17A13.11,13.11,0,0,0,253.06,1741.85Z"/><path class="cls-19" d="M253.06,1696.26v65a13.11,13.11,0,0,0,13.11,13.11H2322.72a12.42,12.42,0,0,0,12.42-12.41v-66.37a12.41,12.41,0,0,0-12.42-12.41H266.17A13.11,13.11,0,0,0,253.06,1696.26Z"/><path class="cls-21" d="M2135.26,1683.15H266.17a13.11,13.11,0,0,0-13.11,13.11v65a13.11,13.11,0,0,0,13.11,13.11H2135.26a14.42,14.42,0,0,0,14.38-14.38v-62.43A14.42,14.42,0,0,0,2135.26,1683.15Z"/><path class="cls-22" d="M1495.62,686.89a1.9,1.9,0,0,1,0,.19A1.3,1.3,0,0,0,1495.62,686.89Z"/><path class="cls-23" d="M1197.34,551.62c-24.23,7.82-35.3,43.09-24.72,78.76s38.8,58.26,63,50.43,35.3-43.09,24.72-78.76S1221.57,543.79,1197.34,551.62Z"/><path class="cls-24" d="M1344.59,226.6s0-.4-.12-1.08C1344.54,226.21,1344.59,226.6,1344.59,226.6Z"/><path class="cls-25" d="M1641.22,595.3c.76-86.65-13.3-193.32-30.58-257.94-13.18-84-249.68-125-320.06-10.12-22.52,53.32-57.23,149.84-69.82,248.83,0-1.06,0-1.69,0-1.69s-65.93,263.1,168.4,280.79,261.13-105.8,252-259.89Z"/><g class="cls-26"><ellipse class="cls-25" cx="1302.44" cy="626.04" rx="91.8" ry="84.28" transform="translate(651.33 1916.13) rotate(-88.89)"/><ellipse class="cls-27" cx="1302.44" cy="626.04" rx="91.23" ry="83.76" transform="matrix(0.02, -1, 1, 0.02, 651.33, 1916.13)"/><ellipse class="cls-28" cx="1302.44" cy="626.04" rx="90.66" ry="83.23" transform="translate(651.33 1916.13) rotate(-88.89)"/><ellipse class="cls-29" cx="1302.44" cy="626.04" rx="90.1" ry="82.71" transform="translate(651.33 1916.13) rotate(-88.89)"/><ellipse class="cls-30" cx="1302.44" cy="626.04" rx="89.53" ry="82.19" transform="translate(651.33 1916.13) rotate(-88.89)"/><ellipse class="cls-31" cx="1302.44" cy="626.04" rx="88.96" ry="81.67" transform="translate(651.33 1916.13) rotate(-88.89)"/><ellipse class="cls-32" cx="1302.44" cy="626.04" rx="88.4" ry="81.15" transform="matrix(0.02, -1, 1, 0.02, 651.32, 1916.13)"/><ellipse class="cls-33" cx="1302.44" cy="626.04" rx="87.83" ry="80.63" transform="matrix(0.02, -1, 1, 0.02, 651.33, 1916.13)"/><ellipse class="cls-34" cx="1302.44" cy="626.04" rx="87.26" ry="80.11" transform="translate(651.32 1916.13) rotate(-88.89)"/><ellipse class="cls-35" cx="1302.44" cy="626.04" rx="86.7" ry="79.59" transform="translate(651.32 1916.13) rotate(-88.89)"/><ellipse class="cls-36" cx="1302.44" cy="626.04" rx="86.13" ry="79.07" transform="translate(651.32 1916.13) rotate(-88.89)"/><ellipse class="cls-37" cx="1302.44" cy="626.04" rx="85.56" ry="78.55" transform="translate(651.32 1916.13) rotate(-88.89)"/><ellipse class="cls-38" cx="1302.44" cy="626.04" rx="85" ry="78.03" transform="translate(651.32 1916.13) rotate(-88.89)"/><ellipse class="cls-39" cx="1302.44" cy="626.04" rx="84.43" ry="77.51" transform="translate(651.31 1916.12) rotate(-88.89)"/><ellipse class="cls-40" cx="1302.44" cy="626.04" rx="83.86" ry="76.99" transform="translate(651.32 1916.13) rotate(-88.89)"/><ellipse class="cls-41" cx="1302.44" cy="626.04" rx="83.3" ry="76.47" transform="translate(651.32 1916.13) rotate(-88.89)"/><ellipse class="cls-42" cx="1302.44" cy="626.04" rx="82.73" ry="75.95" transform="translate(651.32 1916.13) rotate(-88.89)"/><ellipse class="cls-43" cx="1302.44" cy="626.04" rx="82.16" ry="75.43" transform="translate(651.33 1916.13) rotate(-88.89)"/><ellipse class="cls-44" cx="1302.44" cy="626.04" rx="81.6" ry="74.91" transform="translate(651.32 1916.13) rotate(-88.89)"/><ellipse class="cls-45" cx="1302.44" cy="626.04" rx="81.03" ry="74.39" transform="translate(651.32 1916.12) rotate(-88.89)"/><ellipse class="cls-46" cx="1302.44" cy="626.04" rx="80.46" ry="73.87" transform="matrix(0.02, -1, 1, 0.02, 651.31, 1916.12)"/><ellipse class="cls-47" cx="1302.44" cy="626.04" rx="79.9" ry="73.35" transform="matrix(0.02, -1, 1, 0.02, 651.32, 1916.12)"/><ellipse class="cls-48" cx="1302.44" cy="626.04" rx="79.33" ry="72.83" transform="translate(651.32 1916.13) rotate(-88.89)"/><ellipse class="cls-49" cx="1302.44" cy="626.04" rx="78.76" ry="72.31" transform="translate(651.31 1916.12) rotate(-88.89)"/><ellipse class="cls-50" cx="1302.44" cy="626.04" rx="78.2" ry="71.79" transform="translate(651.31 1916.12) rotate(-88.89)"/><ellipse class="cls-51" cx="1302.44" cy="626.04" rx="77.63" ry="71.27" transform="translate(651.31 1916.12) rotate(-88.89)"/><ellipse class="cls-52" cx="1302.44" cy="626.04" rx="77.06" ry="70.75" transform="translate(651.31 1916.12) rotate(-88.89)"/><ellipse class="cls-53" cx="1302.44" cy="626.04" rx="76.5" ry="70.23" transform="translate(651.31 1916.12) rotate(-88.89)"/><ellipse class="cls-54" cx="1302.44" cy="626.04" rx="75.93" ry="69.71" transform="translate(651.32 1916.12) rotate(-88.89)"/><ellipse class="cls-55" cx="1302.44" cy="626.04" rx="75.36" ry="69.19" transform="translate(651.32 1916.13) rotate(-88.89)"/><ellipse class="cls-56" cx="1302.44" cy="626.04" rx="74.8" ry="68.67" transform="translate(651.31 1916.12) rotate(-88.89)"/><ellipse class="cls-57" cx="1302.44" cy="626.04" rx="74.23" ry="68.15" transform="matrix(0.02, -1, 1, 0.02, 651.31, 1916.12)"/><ellipse class="cls-58" cx="1302.44" cy="626.04" rx="73.66" ry="67.63" transform="translate(651.32 1916.12) rotate(-88.89)"/><ellipse class="cls-59" cx="1302.44" cy="626.04" rx="73.1" ry="67.11" transform="translate(651.31 1916.12) rotate(-88.89)"/><ellipse class="cls-60" cx="1302.44" cy="626.04" rx="72.53" ry="66.59" transform="translate(651.31 1916.12) rotate(-88.89)"/><ellipse class="cls-61" cx="1302.44" cy="626.04" rx="71.96" ry="66.07" transform="translate(651.31 1916.12) rotate(-88.89)"/><ellipse class="cls-62" cx="1302.44" cy="626.04" rx="71.4" ry="65.55" transform="translate(651.31 1916.12) rotate(-88.89)"/><ellipse class="cls-63" cx="1302.44" cy="626.04" rx="70.83" ry="65.03" transform="translate(651.31 1916.12) rotate(-88.89)"/><ellipse class="cls-64" cx="1302.44" cy="626.04" rx="70.26" ry="64.51" transform="translate(651.3 1916.12) rotate(-88.89)"/><ellipse class="cls-65" cx="1302.44" cy="626.04" rx="69.7" ry="63.99" transform="translate(651.31 1916.12) rotate(-88.89)"/><ellipse class="cls-66" cx="1302.44" cy="626.04" rx="69.13" ry="63.47" transform="translate(651.29 1916.11) rotate(-88.89)"/><ellipse class="cls-67" cx="1302.44" cy="626.04" rx="68.56" ry="62.95" transform="translate(651.31 1916.12) rotate(-88.89)"/><ellipse class="cls-68" cx="1302.44" cy="626.04" rx="68" ry="62.43" transform="translate(651.31 1916.12) rotate(-88.89)"/><ellipse class="cls-69" cx="1302.44" cy="626.04" rx="67.43" ry="61.91" transform="matrix(0.02, -1, 1, 0.02, 651.31, 1916.12)"/><ellipse class="cls-70" cx="1302.44" cy="626.04" rx="66.86" ry="61.39" transform="translate(651.31 1916.12) rotate(-88.89)"/><ellipse class="cls-71" cx="1302.44" cy="626.04" rx="66.3" ry="60.87" transform="translate(651.3 1916.12) rotate(-88.89)"/><ellipse class="cls-72" cx="1302.44" cy="626.04" rx="65.73" ry="60.35" transform="translate(651.31 1916.12) rotate(-88.89)"/><ellipse class="cls-73" cx="1302.44" cy="626.04" rx="65.16" ry="59.83" transform="translate(651.31 1916.12) rotate(-88.89)"/><ellipse class="cls-74" cx="1302.44" cy="626.04" rx="64.6" ry="59.3" transform="translate(651.29 1916.11) rotate(-88.89)"/><ellipse class="cls-75" cx="1302.44" cy="626.04" rx="64.03" ry="58.78" transform="translate(651.3 1916.12) rotate(-88.89)"/><ellipse class="cls-76" cx="1302.44" cy="626.04" rx="63.46" ry="58.26" transform="translate(651.3 1916.11) rotate(-88.89)"/><ellipse class="cls-77" cx="1302.44" cy="626.04" rx="62.9" ry="57.74" transform="translate(651.29 1916.11) rotate(-88.89)"/><ellipse class="cls-78" cx="1302.44" cy="626.04" rx="62.33" ry="57.22" transform="translate(651.29 1916.11) rotate(-88.89)"/><ellipse class="cls-79" cx="1302.44" cy="626.04" rx="61.76" ry="56.7" transform="translate(651.3 1916.12) rotate(-88.89)"/><ellipse class="cls-80" cx="1302.44" cy="626.04" rx="61.2" ry="56.18" transform="translate(651.31 1916.12) rotate(-88.89)"/><ellipse class="cls-81" cx="1302.44" cy="626.04" rx="60.63" ry="55.66" transform="translate(651.29 1916.11) rotate(-88.89)"/><ellipse class="cls-82" cx="1302.44" cy="626.04" rx="60.06" ry="55.14" transform="translate(651.3 1916.11) rotate(-88.89)"/><ellipse class="cls-83" cx="1302.44" cy="626.04" rx="59.5" ry="54.62" transform="translate(651.29 1916.11) rotate(-88.89)"/><ellipse class="cls-84" cx="1302.44" cy="626.04" rx="58.93" ry="54.1" transform="translate(651.29 1916.11) rotate(-88.89)"/><ellipse class="cls-85" cx="1302.44" cy="626.04" rx="58.36" ry="53.58" transform="translate(651.29 1916.11) rotate(-88.89)"/><ellipse class="cls-86" cx="1302.44" cy="626.04" rx="57.8" ry="53.06" transform="translate(651.29 1916.11) rotate(-88.89)"/><ellipse class="cls-87" cx="1302.44" cy="626.04" rx="57.23" ry="52.54" transform="translate(651.29 1916.11) rotate(-88.89)"/><ellipse class="cls-88" cx="1302.44" cy="626.04" rx="56.66" ry="52.02" transform="translate(651.28 1916.1) rotate(-88.89)"/><ellipse class="cls-89" cx="1302.44" cy="626.04" rx="56.1" ry="51.5" transform="translate(651.28 1916.11) rotate(-88.89)"/><ellipse class="cls-90" cx="1302.44" cy="626.04" rx="55.53" ry="50.98" transform="translate(651.29 1916.11) rotate(-88.89)"/><ellipse class="cls-91" cx="1302.44" cy="626.04" rx="54.96" ry="50.46" transform="translate(651.27 1916.1) rotate(-88.89)"/><ellipse class="cls-92" cx="1302.44" cy="626.04" rx="54.4" ry="49.94" transform="translate(651.29 1916.11) rotate(-88.89)"/><ellipse class="cls-93" cx="1302.44" cy="626.04" rx="53.83" ry="49.42" transform="matrix(0.02, -1, 1, 0.02, 651.28, 1916.11)"/><ellipse class="cls-94" cx="1302.44" cy="626.04" rx="53.26" ry="48.9" transform="translate(651.29 1916.11) rotate(-88.89)"/><ellipse class="cls-95" cx="1302.44" cy="626.04" rx="52.7" ry="48.38" transform="translate(651.28 1916.11) rotate(-88.89)"/><path class="cls-96" d="M1303.45,573.92c-26.43-.51-48.31,22.41-48.86,51.2s20.41,52.53,46.84,53,48.3-22.41,48.86-51.19S1329.87,574.43,1303.45,573.92Z"/><ellipse class="cls-97" cx="1302.44" cy="626.04" rx="51.56" ry="47.34" transform="translate(651.28 1916.1) rotate(-88.89)"/><path class="cls-98" d="M1303.42,575.05c-25.85-.5-47.25,21.93-47.79,50.09s20,51.39,45.82,51.89,47.25-21.92,47.8-50.08S1329.28,575.55,1303.42,575.05Z"/><path class="cls-99" d="M1303.41,575.62c-25.56-.49-46.73,21.68-47.26,49.53s19.75,50.82,45.31,51.31,46.73-21.68,47.27-49.52S1329,576.12,1303.41,575.62Z"/><ellipse class="cls-100" cx="1302.44" cy="626.04" rx="49.86" ry="45.78" transform="translate(651.28 1916.1) rotate(-88.89)"/><ellipse class="cls-101" cx="1302.44" cy="626.04" rx="49.3" ry="45.26" transform="translate(651.27 1916.1) rotate(-88.89)"/><path class="cls-102" d="M1303.38,577.32c-24.7-.48-45.15,20.95-45.67,47.86s19.08,49.11,43.78,49.58,45.16-20.94,45.68-47.85S1328.08,577.8,1303.38,577.32Z"/><path class="cls-103" d="M1303.37,577.89c-24.42-.48-44.63,20.7-45.14,47.3s18.86,48.53,43.27,49,44.63-20.71,45.15-47.3S1327.79,578.36,1303.37,577.89Z"/><path class="cls-104" d="M1303.36,578.45c-24.13-.46-44.1,20.46-44.61,46.75s18.64,48,42.77,48.43,44.1-20.46,44.61-46.74S1327.49,578.92,1303.36,578.45Z"/><path class="cls-105" d="M1303.35,579c-23.85-.46-43.58,20.22-44.08,46.19s18.41,47.39,42.26,47.85,43.57-20.21,44.08-46.18S1327.19,579.48,1303.35,579Z"/><path class="cls-106" d="M1303.34,579.59c-23.56-.46-43.06,20-43.55,45.63S1278,672,1301.54,672.5s43-20,43.55-45.63S1326.89,580,1303.34,579.59Z"/><path class="cls-107" d="M1303.32,580.15c-23.26-.45-42.52,19.73-43,45.08s18,46.25,41.24,46.7,42.53-19.73,43-45.07S1326.59,580.6,1303.32,580.15Z"/></g><g class="cls-26"><circle class="cls-25" cx="1530.43" cy="630.45" r="91.8" transform="translate(2.45 1266.83) rotate(-45)"/><circle class="cls-27" cx="1530.43" cy="630.45" r="91.23" transform="translate(2.45 1266.83) rotate(-45)"/><circle class="cls-28" cx="1530.43" cy="630.45" r="90.66" transform="translate(-119.35 764.33) rotate(-27.03)"/><circle class="cls-29" cx="1530.43" cy="630.45" r="90.1" transform="translate(2.45 1266.83) rotate(-45)"/><circle class="cls-30" cx="1530.43" cy="630.45" r="89.53" transform="translate(2.45 1266.83) rotate(-45)"/><circle class="cls-31" cx="1530.43" cy="630.45" r="88.96" transform="translate(-124.04 679.48) rotate(-24.09)"/><circle class="cls-32" cx="1530.43" cy="630.45" r="88.4" transform="translate(2.45 1266.83) rotate(-45)"/><circle class="cls-33" cx="1530.43" cy="630.45" r="87.83" transform="translate(-116.91 791.6) rotate(-27.98)"/><circle class="cls-34" cx="1530.43" cy="630.45" r="87.26" transform="matrix(0.86, -0.51, 0.51, 0.86, -106.47, 875.87)"/><circle class="cls-35" cx="1530.43" cy="630.45" r="86.7" transform="translate(2.45 1266.83) rotate(-45)"/><circle class="cls-36" cx="1530.43" cy="630.45" r="86.13" transform="translate(-104 891.85) rotate(-31.48)"/><circle class="cls-37" cx="1530.43" cy="630.45" r="85.56" transform="translate(-102.55 900.78) rotate(-31.79)"/><circle class="cls-38" cx="1530.43" cy="630.45" r="85" transform="translate(2.45 1266.83) rotate(-45)"/><circle class="cls-39" cx="1530.43" cy="630.45" r="84.43" transform="translate(2.45 1266.83) rotate(-45)"/><circle class="cls-40" cx="1530.43" cy="630.45" r="83.86" transform="translate(2.45 1266.83) rotate(-45)"/><circle class="cls-41" cx="1530.43" cy="630.45" r="83.3" transform="translate(2.45 1266.83) rotate(-45)"/><circle class="cls-42" cx="1530.43" cy="630.45" r="82.73" transform="translate(2.45 1266.83) rotate(-45)"/><circle class="cls-43" cx="1530.43" cy="630.45" r="82.16" transform="translate(2.45 1266.83) rotate(-45)"/><circle class="cls-44" cx="1530.43" cy="630.45" r="81.6" transform="translate(2.45 1266.83) rotate(-45)"/><circle class="cls-45" cx="1530.43" cy="630.45" r="81.03" transform="translate(2.45 1266.83) rotate(-45)"/><circle class="cls-46" cx="1530.43" cy="630.45" r="80.46" transform="translate(2.45 1266.83) rotate(-45)"/><circle class="cls-47" cx="1530.43" cy="630.45" r="79.9" transform="translate(2.45 1266.83) rotate(-45)"/><circle class="cls-48" cx="1530.43" cy="630.45" r="79.33" transform="translate(2.45 1266.83) rotate(-45)"/><circle class="cls-49" cx="1530.43" cy="630.45" r="78.76" transform="translate(2.45 1266.83) rotate(-45)"/><circle class="cls-50" cx="1530.43" cy="630.45" r="78.2" transform="translate(2.45 1266.83) rotate(-45)"/><circle class="cls-51" cx="1530.43" cy="630.45" r="77.63" transform="translate(2.45 1266.83) rotate(-45)"/><circle class="cls-52" cx="1530.43" cy="630.45" r="77.06" transform="translate(2.45 1266.83) rotate(-45)"/><circle class="cls-53" cx="1530.43" cy="630.45" r="76.5" transform="translate(2.45 1266.83) rotate(-45)"/><circle class="cls-54" cx="1530.43" cy="630.45" r="75.93" transform="translate(2.45 1266.83) rotate(-45)"/><circle class="cls-55" cx="1530.43" cy="630.45" r="75.36" transform="translate(2.45 1266.83) rotate(-45)"/><circle class="cls-56" cx="1530.43" cy="630.45" r="74.8" transform="translate(2.45 1266.83) rotate(-45)"/><circle class="cls-57" cx="1530.43" cy="630.45" r="74.23" transform="translate(2.45 1266.83) rotate(-45)"/><circle class="cls-58" cx="1530.43" cy="630.45" r="73.66" transform="translate(2.45 1266.83) rotate(-45)"/><circle class="cls-59" cx="1530.43" cy="630.45" r="73.1" transform="translate(2.45 1266.83) rotate(-45)"/><circle class="cls-60" cx="1530.43" cy="630.45" r="72.53" transform="translate(2.45 1266.83) rotate(-45)"/><circle class="cls-61" cx="1530.43" cy="630.45" r="71.96" transform="translate(2.45 1266.83) rotate(-45)"/><circle class="cls-62" cx="1530.43" cy="630.45" r="71.4" transform="translate(302.89 1740.79) rotate(-64.52)"/><circle class="cls-63" cx="1530.43" cy="630.45" r="70.83" transform="translate(2.45 1266.83) rotate(-45)"/><circle class="cls-64" cx="1530.43" cy="630.45" r="70.26" transform="translate(2.45 1266.83) rotate(-45)"/><circle class="cls-65" cx="1530.43" cy="630.45" r="69.7" transform="translate(343.48 1784.08) rotate(-66.57)"/><circle class="cls-66" cx="1530.43" cy="630.45" r="69.13"/><circle class="cls-67" cx="1530.43" cy="630.45" r="68.56" transform="translate(2.45 1266.83) rotate(-45)"/><circle class="cls-68" cx="1530.43" cy="630.45" r="68" transform="translate(165.27 1566.41) rotate(-56.82)"/><circle class="cls-69" cx="1530.43" cy="630.45" r="67.43" transform="translate(2.45 1266.83) rotate(-45)"/><circle class="cls-70" cx="1530.43" cy="630.45" r="66.86" transform="translate(2.45 1266.83) rotate(-45)"/><circle class="cls-71" cx="1530.43" cy="630.45" r="66.3" transform="translate(2.45 1266.83) rotate(-45)"/><circle class="cls-72" cx="1530.43" cy="630.45" r="65.73" transform="translate(569.92 1978.46) rotate(-76.92)"/><circle class="cls-73" cx="1530.43" cy="630.45" r="65.16"/><circle class="cls-74" cx="1530.43" cy="630.45" r="64.6"/><circle class="cls-75" cx="1530.43" cy="630.45" r="64.03" transform="translate(797.35 2114.46) rotate(-86.1)"/><circle class="cls-76" cx="1530.43" cy="630.45" r="63.46" transform="translate(2.45 1266.83) rotate(-45)"/><circle class="cls-77" cx="1530.43" cy="630.45" r="62.9" transform="translate(282.95 1718.33) rotate(-63.48)"/><circle class="cls-78" cx="1530.43" cy="630.45" r="62.33" transform="translate(475.24 1905.7) rotate(-72.78)"/><circle class="cls-79" cx="1530.43" cy="630.45" r="61.76" transform="translate(2.45 1266.83) rotate(-45)"/><circle class="cls-80" cx="1530.43" cy="630.45" r="61.2" transform="translate(-124.17 585.93) rotate(-20.85)"/><circle class="cls-81" cx="1530.43" cy="630.45" r="60.63" transform="translate(-111.84 836.97) rotate(-29.56)"/><circle class="cls-82" cx="1530.43" cy="630.45" r="60.06" transform="translate(-63.55 184.46) rotate(-6.76)"/><circle class="cls-83" cx="1530.43" cy="630.45" r="59.5" transform="translate(-50.42 139.95) rotate(-5.15)"/><circle class="cls-84" cx="1530.43" cy="630.45" r="58.93" transform="translate(-118.47 486.23) rotate(-17.39)"/><circle class="cls-85" cx="1530.43" cy="630.45" r="58.36" transform="translate(684.77 2053.32) rotate(-81.66)"/><circle class="cls-86" cx="1530.43" cy="630.45" r="57.8" transform="translate(-116.39 464.15) rotate(-16.62)"/><circle class="cls-87" cx="1530.43" cy="630.45" r="57.23" transform="translate(620.85 2013.33) rotate(-79.05)"/><circle class="cls-88" cx="1530.43" cy="630.45" r="56.66" transform="translate(-59.64 170.72) rotate(-6.26)"/><circle class="cls-89" cx="1530.43" cy="630.45" r="56.1" transform="translate(-111.33 840.98) rotate(-29.7)"/><circle class="cls-90" cx="1530.43" cy="630.45" r="55.53" transform="translate(-119.65 760.51) rotate(-26.9)"/><circle class="cls-91" cx="1530.43" cy="630.45" r="54.96" transform="translate(546.11 1961.17) rotate(-75.9)"/><circle class="cls-92" cx="1530.43" cy="630.45" r="54.4" transform="translate(-118.46 486.1) rotate(-17.39)"/><circle class="cls-93" cx="1530.43" cy="630.45" r="53.83" transform="translate(-105.58 379.16) rotate(-13.66)"/><circle class="cls-94" cx="1530.43" cy="630.45" r="53.26" transform="translate(-88.6 286.32) rotate(-10.39)"/><circle class="cls-95" cx="1530.43" cy="630.45" r="52.7" transform="translate(-108.04 395.69) rotate(-14.23)"/><circle class="cls-96" cx="1530.43" cy="630.45" r="52.13" transform="translate(-123.79 573.48) rotate(-20.42)"/><circle class="cls-97" cx="1530.43" cy="630.45" r="51.56" transform="translate(-122.97 553.28) rotate(-19.72)"/><circle class="cls-98" cx="1530.43" cy="630.45" r="51" transform="translate(-105.18 376.58) rotate(-13.57)"/><circle class="cls-99" cx="1530.43" cy="630.45" r="50.43" transform="translate(-122.61 714.94) rotate(-25.31)"/><circle class="cls-100" cx="1530.43" cy="630.45" r="49.86" transform="translate(-123.49 695.49) rotate(-24.64)"/><circle class="cls-101" cx="1530.43" cy="630.45" r="49.3" transform="translate(-36.89 98.31) rotate(-3.64)"/><circle class="cls-102" cx="1530.43" cy="630.45" r="48.73" transform="translate(-118.95 491.82) rotate(-17.58)"/><circle class="cls-103" cx="1530.43" cy="630.45" r="48.16" transform="translate(-107.1 389.21) rotate(-14.01)"/><circle class="cls-104" cx="1530.43" cy="630.45" r="47.6" transform="translate(-123.94 682.91) rotate(-24.21)"/><circle class="cls-105" cx="1530.43" cy="630.45" r="47.03" transform="translate(-121.67 731.64) rotate(-25.89)"/><circle class="cls-106" cx="1530.43" cy="630.45" r="46.46" transform="translate(-122.64 546.41) rotate(-19.48)"/><circle class="cls-107" cx="1530.43" cy="630.45" r="45.9" transform="translate(-122.33 540.7) rotate(-19.28)"/></g><ellipse class="cls-25" cx="1670.21" cy="616.97" rx="67.39" ry="46.08" transform="translate(579.13 2024.02) rotate(-72.48)"/><path class="cls-23" d="M1693.94,636.64c-23.36,14.71-48.08,9.73-65.9-5,.26,29.71-6.48,86.05-49.52,143.26C1544,820.82,1469.89,835.56,1415,833.15c-131.06-5.74-165.25-46-191.82-100.32,18.06,59.44,63,114.67,166.07,122.44,190.92,14.42,244.08-64.89,252.29-178.1a32.21,32.21,0,0,0,7.07,3.71c23.91,8.76,53-12.71,64.93-48a95.1,95.1,0,0,0,5-26.85A59.24,59.24,0,0,1,1693.94,636.64Z"/><path class="cls-23" d="M1651.78,617l21.91,3.29c0-34.59,25.77-45.92,25.77-45.92C1657.9,559,1651.78,617,1651.78,617Z"/><path class="cls-22" d="M1508,680.92s0,.08,0,.19A1.9,1.9,0,0,0,1508,680.92Z"/><path class="cls-12" d="M1446.22,218.57c-242.94,14.75-207.14,281.12-207.14,281.12,14.91-80,63.48-176,101.73-177.71,0,0,33.06,27.35,82.78,28.64,44.47,1.15,106.33-30.89,106.33-30.89,44.39-.78,96.38,133.87,101.69,244.61,1.22,25.34,23.38-3.77,23.38-3.77S1684.28,204.12,1446.22,218.57Z"/><path class="cls-12" d="M1573.12,239c-3-.16-4.58-5.56-5.9-7.65a41.46,41.46,0,0,0-9.86-10.63,109.86,109.86,0,0,1-21.68-23.11c-4.5-6.71-7.16-2.58-10-10.14-10-26.5-15.11-41.51-24.5-57a58.73,58.73,0,0,0-20.42,9.11,46.86,46.86,0,0,0-6.49-23.65c-33.36,5.3-61.79,26-88.19,45.6,0,0-10.93-18.33-10.4-18.56-28.42,12.52-96.67,47.23-115.37,101.58-6.72,19.53-4.56,33.61,21.77,44,9.19,3.62,17.1,5.22,25.25,11.38,5.87,4.42,15.57,15,23.74,13.55.53-.09,202.83-34.94,233.32-13.17s91.76,210.32,91.76,210.32,46.95-181.55,10-249c-15.17-27.67-36.73-40.93-61.15-34.59a129.27,129.27,0,0,0-26.09,10C1576.1,238.49,1574.36,239.1,1573.12,239Z"/><path class="cls-12" d="M1613,207.13c-13.83,2.06-17.1,8.57-17.1,8.57,10-18.1,3.32-42.87,3.32-42.87-27,15.3-24.49,36.84-24.49,36.84-13.06-27.75-26-44-26-44-46,30.79-2.19,53.78-.88,54.5l20.94,32.3,43.8-6.64-4.21-19.56C1615.52,216.15,1613,207.13,1613,207.13Z"/><path class="cls-108" d="M1273.71,255.55c-71.48,21.3-51.63,307.62-51.63,307.62-.24,1,.86.36.86.36,16.15-81,80.19-239.72,117.87-241.45C1340.81,322.08,1305.52,300.76,1273.71,255.55Z"/><path class="cls-109" d="M1551.48,238l0,0C1551.63,238,1551.9,238,1551.48,238Z"/><path class="cls-109" d="M1551.5,242h0Z"/><path class="cls-110" d="M1603.1,240.84c3.53-1,7-1.76,10.39-2.78a205,205,0,0,0,21.86-8.33,43.45,43.45,0,0,0-27-3.39l0-.07c7.2-10.12,4.67-19.14,4.67-19.14-13.83,2.06-17.1,8.57-17.1,8.57a45,45,0,0,0,5-16.2,158.26,158.26,0,0,1-24.92,0,28.17,28.17,0,0,0-1.27,10.19c-1.82-3.87-3.64-7.5-5.42-10.91l-.44,0c-14-2-27.19-6.23-39.93-11.58a21.48,21.48,0,0,0-1.06,4.27,11.24,11.24,0,0,1-2.2-3.9l-.8-2.1c-10.35-4.56-20.47-9.75-30.64-15-12.09-6.19-24.15-12.49-36.61-17.91a358.07,358.07,0,0,0-38-14.38c-11.64,7.25-22.76,15.43-33.53,23.42,0,0-10.93-18.33-10.4-18.56-18.93,8.34-55.52,26.52-83.38,53.79v.05c.93-.75,1.88-1.52,2.91-2.3a90.65,90.65,0,0,1,18.12-10.19,80.51,80.51,0,0,1,24.21-6c35.11-2.49,67.62,11.77,99.24,25,12.94,5.43,26.09,11.74,40,17.61a436,436,0,0,0,43.52,16.44C1545.83,245.37,1577,247.92,1603.1,240.84Z"/><path class="cls-109" d="M1551,238.06h0Z"/><path class="cls-111" d="M1347.81,689.08s-29.6,41.66-9.54,62.62,50.55-10.72,83-9.21,46.26,26,63,16.41,14.08-50.9,4.08-62.9S1371.29,677.48,1347.81,689.08Z"/><path class="cls-112" d="M1340.66,754c20,16.34,49.41-12.87,80.58-11.41,32.43,1.51,46.26,26,63,16.4a17.27,17.27,0,0,0,5-4.49C1465.67,712.36,1367.33,719.67,1340.66,754Z"/><path class="cls-25" d="M1389.63,594.16s-34.28-25.41-46.88,18.45,74.81,70.74,99.28,25-37.56-132-37.56-132S1416.4,558.53,1389.63,594.16Z"/><path class="cls-1" d="M1348.67,690.53s-5.45,13.29,6.55,18.17,113,5.87,123-3.25,0-23.62,0-23.62L1395.67,667Z"/><path class="cls-113" d="M1478.26,681.94l-82.59-14.8-47,23.49s-5.45,13.3,6.55,18.18a35.37,35.37,0,0,0,7.69,1.55c.2-.15.41-.31.63-.46,7-4.64,15.3-7,23.5-8.26s16.77-2.25,25.1-1.72c13,.83,24.95,5,35.92,11.39,15.23-1.07,27.08-2.93,30.2-5.75C1488.33,696.44,1478.26,681.94,1478.26,681.94Z"/><path class="cls-114" d="M1389.63,594.27s-33.29-23.92-46,15.48a312.07,312.07,0,0,0,54.64,8.79c10.72-25,14.53-52.25,15.93-81.63q-3.6,0-7.18-.12C1406.87,554.41,1403.38,576,1389.63,594.27Z"/><path class="cls-12" d="M1655,560.67l-23.59-.16c-12.25,122.1-132.1,137.54-133.26,135.62,29.92,29.84,11.39,98.43-27.81,84.64-18-6.33-26.11-15.85-53.86-16.51a108.63,108.63,0,0,0-56.14,13.56c-31.17,17.34-68.33-38.31-26.24-89.35,0,0-50.2-9-63.07-16.11-24.54-13.57-36.62-41.42-42.54-67.56a213.42,213.42,0,0,1-4.73-32.79c-.17-2.59-.72-5.88-.82-9l-.81-.07c-29.34,119.4-46.89,308.18,200.71,305.61C1673.74,866,1644.27,674,1644.27,674,1632.47,631.61,1655,560.67,1655,560.67Z"/><path class="cls-115" d="M1399.75,637.41s-28.68-12.38-71.94,12.69c-33.1,19.19-43.64,55.3-43.64,55.3s47.55,12.9,124.5-14.07c76.61,36.54,133.28,9.45,133.28,9.45S1513.73,622.21,1399.75,637.41Z"/><path class="cls-23" d="M1341.79,624.88c4.81,36.12,78.15,54,100.24,12.75a45.43,45.43,0,0,0,3.23-7.91C1410.68,636.77,1374.75,634.4,1341.79,624.88Z"/><path class="cls-116" d="M1416.57,779.8c-16.32-.09-29.6,7.72-29.65,17.44s13.13,17.69,29.45,17.78S1446,807.3,1446,797.57,1432.89,779.89,1416.57,779.8Z"/><path class="cls-117" d="M1433.58,430.18c-5.76-1.38-19.9,36.88-19,55.54,0,0-7-37.33-11.56-36.34s1.7,50.15,10.11,53.92S1439.33,431.57,1433.58,430.18Z"/><path class="cls-117" d="M1276.86,507.11c-16.19,29.64-15.1,58.78-15.1,58.78l101.39,14.27c29.1-53.73,22.26-100.37,22.26-100.37C1357,470.72,1276.86,507.11,1276.86,507.11Z"/><path class="cls-117" d="M1487,484.67l-23.12-20c-11.88,69.54,13.37,107.2,13.37,107.2l108.76.51s13.26-47.91-5.83-77.91C1564.34,469.6,1487,484.67,1487,484.67Z"/><path class="cls-108" d="M1296.2,490.75c-14.76,6.37-19.34,16.36-19.34,16.36,57.87,8.78,93.63.61,104-13,12-15.88-1.79-42.47-1.79-42.47C1359.32,479,1326.14,477.82,1296.2,490.75Z"/><path class="cls-1" d="M1538.07,535.56c-55.4-6.36-60.82,36.35-60.82,36.35s2,19.76,50.75,18.76c56.34-1.16,58-18.8,58-18.8S1578.56,540.21,1538.07,535.56Z"/><g class="cls-118"><path d="M1656,510.17c.1.31.16.48.16.48s35.53-137.41,20.42-217.54c-9.79-4.19-20.89-8.89-23-11-3.58-3.57-49-41.08-64.31-49.3l-.47-.25q-5,2.08-9.89,4.55c-2.77,1.41-4.51,2-5.75,1.95-3-.16-4.58-5.56-5.9-7.65a41.46,41.46,0,0,0-9.86-10.63c-1.57-1.26-3.17-2.61-4.75-4-17.41-7-34.56-13.37-38-13.95-6.43-1.07-41.23-20.71-49.8-20s-15.87,8-12.3,13.69c0,0-8.8,5.54-6.25,22.11,1.74,11.31,109.43,103.16,110.86,107.09s10.36,20,14.29,24.65-8.93,113.25,26.44,162.91c12,16.83,40.63,32.65,57.59,41C1655.84,546,1656.42,530.38,1656,510.17Z"/><path d="M1718.61,602.73c0-23.56-9.79-43.35-26.76-49.57-10-3.65-20.86-2-31,3.66,4.8,2.25,7.79,3.51,7.79,3.51S1691.59,578.61,1718.61,602.73Z"/></g><path class="cls-1" d="M1337.13,543.36c-21.7-10.91-50.23-18.24-75.37,22.53,0,0-2.48,23.15,49.54,24.05s51.85-9.78,51.85-9.78S1360.67,555.2,1337.13,543.36Z"/><path class="cls-1" d="M1337.13,543.36c-21.7-10.91-50.23-18.24-75.37,22.53,0,0-2.48,23.15,49.54,24.05s51.85-9.78,51.85-9.78S1360.67,555.2,1337.13,543.36Z"/><path class="cls-108" d="M1565.43,480.25c-31.78-11.46-75.16-4.58-94.41-39.25,0,0-15.83,37.55-4.56,52.76,5.91,8,27.35,12,55.44,11.38,17.9-.41,51.78-8.14,62.87.3C1584.77,505.44,1579.39,485.29,1565.43,480.25Z"/><path class="cls-119" d="M1334.68,589.43a51.3,51.3,0,0,0,4.17-9.57c5.49-17.13,1.43-33.75-9.08-37.12s-23.48,7.78-29,24.91a46.1,46.1,0,0,0-1.9,21.57c3.75.39,7.87.64,12.41.72C1320.7,590.11,1328.38,589.89,1334.68,589.43Z"/><path class="cls-120" d="M1544.85,579.86c5.49-17.13,1.43-33.75-9.08-37.12s-23.48,7.78-29,24.91a46.22,46.22,0,0,0-1.9,21.6,125.16,125.16,0,0,0,23.11,1.42c4.43-.09,8.52-.29,12.3-.57A51.4,51.4,0,0,0,1544.85,579.86Z"/><path class="cls-121" d="M1422.67,238c3.4-10.91-3.52-24.52-3.52-24.52,2-8.11-4.8-13.75-13-14.78s-35,11.12-41.21,12-57.4,19.63-72.36,27.29c-7.41,3.79-22.1,14.5-35.48,24.76a24.4,24.4,0,0,0,.45,3.34c-45.79,49.75-38.56,241-36.11,287-8-3.28-16.26-4-24.14-1.42-20.56,6.64-31.63,33-28.06,62.66,52.57-58.32,74.65-77.22,92-100.28,36.16-47.92,40.1-153.43,44-157.93s13-20.24,14.55-24.12S1415.35,261.5,1422.67,238Z"/><path class="cls-122" d="M1498.33,566.82l1.4,8.74s35.69.75,32.27-13.14S1498.33,566.82,1498.33,566.82Z"/><path class="cls-122" d="M1294.53,569.57l.12,5.82s32,.49,28.61-13.4S1294.53,569.57,1294.53,569.57Z"/><path class="cls-108" d="M1314.33,529.2c-41.51,4.37-52.57,36.69-52.57,36.69s10.31-14.54,45.24-21.22c45.08-8.64,56.15,35.49,56.15,35.49S1368.64,523.49,1314.33,529.2Z"/><path class="cls-108" d="M1532.61,526.67c-55.94-7.06-55.36,45.24-55.36,45.24s8.08-37,58.52-29.17c38.54,6,50.24,29.13,50.24,29.13S1579.63,532.6,1532.61,526.67Z"/><path class="cls-25" d="M2241,809.3c-26.87-52-177.28-140.37-229.29-174.95-29.36-19.51-97.53-53.85-162-95.41,0-.18,0-.28,0-.28s-87.49-61.52-96-73.95c-13.22-19.29-21.68-141.18-29.54-146.9s-13.58-6.43-15-10-5-24.3-10.72-27.87-34.29-14.29-37.86-17.86-49-41.08-64.31-49.3-68.23-28.94-74.66-30-48.23-.71-56.8,0-10.72,10-7.15,15.72c0,0-7.86,2.14-7.5,13.57s112.53,89.67,114,93.6,10.36,20,14.29,24.65-8.93,113.25,26.44,162.91c17.55,24.64,70.81,47.11,70.81,47.11s42,33.44,79.27,69.58c19.28,21.79,42.42,49.76,72.2,83.83,69.38,79.34,130.08,216,229,286.57,53.7,38.3,186.37,44.72,214.42-16.6S2267.84,861.28,2241,809.3Z"/><path class="cls-23" d="M1471.73,193.31c-10.63-2.68-10.27-5.78-7-10.54-8.58.71-10.72,10-7.15,15.72a10.21,10.21,0,0,0-3.14,1.86c3.09-1.37,8.08-2.19,15.73-.07,15.54,4.28,75.56,28.93,83.06,33.22s49,36.71,73.15,46.89l8.57-5.09s-54.39-31.62-74.75-45S1482.36,196,1471.73,193.31Z"/><path class="cls-25" d="M1412.43,214.69c3.62-5.58,1.92-14.94-6.24-16s-48-2.88-54.21-2-57.4,19.63-72.36,27.29-59.64,43.51-63.18,47-31.21,13.12-36.79,16.48-9.76,23.94-11.25,27.46-7,4-14.69,9.46S1143.49,437,1131.36,456.58c-.67,1.08-1.46,2.25-2.34,3.48-14.47,16.71-36.82,40.18-63.85,65.67-30,27.61-58.17,51.83-58.17,51.83h0a833.78,833.78,0,0,1-75.43,56.74c-124,82.49-267.08,129-295.8,215.61-8.44,25.44-30.23,86.45,9.07,118.82s131.35,13.14,131.35,13.14,99.09-5.17,161.63-108.08C972,817.61,1054.93,716.88,1123,637.9,1200.34,549,1227.64,527.42,1248.34,500c36.15-47.92,40.09-153.43,44-157.93s13-20.24,14.55-24.12,111.43-78,112.19-89.42S1412.43,214.69,1412.43,214.69Z"/><path class="cls-23" d="M1406.19,198.72c3,4.88,3.21,8-7,10.28s-65.91,21.11-85.83,33.76-73,42.29-73,42.29l8,5.39c23.39-9.3,64.21-40.2,71.53-44.21s65.5-26.49,80.49-30.21c7.38-1.83,12.11-.84,15,.64a9.53,9.53,0,0,0-2.93-2C1416.05,209.11,1414.35,199.75,1406.19,198.72Z"/><path class="cls-123" d="M2241,809.3c-26.87-52-177.28-140.37-229.29-174.95-29.36-19.51-97.53-53.85-162-95.41,0-.18,0-.28,0-.28s-87.49-61.52-96-73.95c-13.22-19.29-21.68-141.18-29.54-146.9s-13.58-6.43-15-10-5-24.3-10.72-27.87-34.29-14.29-37.86-17.86-49-41.08-64.31-49.3-68.23-28.94-74.66-30-48.23-.71-56.8,0-10.72,10-7.15,15.72c0,0-7.86,2.14-7.5,13.57s112.53,89.67,114,93.6,10.36,20,14.29,24.65-8.93,113.25,26.44,162.91c17.55,24.64,70.81,47.11,70.81,47.11s42,33.44,79.27,69.58c19.28,21.79,42.42,49.76,72.2,83.83,69.38,79.34,130.08,216,229,286.57,53.7,38.3,186.37,44.72,214.42-16.6S2267.84,861.28,2241,809.3ZM2171.67,903c-48,27-139-3-240.91-138.46s-238.09-230.29-238.09-230.29-53-16.25-79.25-47.75S1586,328,1586,328s-10.34-26-12.84-28.5-117.42-85.47-115-91.76c4-10.49,61,17.09,74.06,25s74.84,46,92.65,70.83S1654,408,1698,460s379.67,235,453.94,293S2219.67,876,2171.67,903Z"/><path class="cls-123" d="M1412.43,214.69c3.62-5.58,1.92-14.94-6.24-16s-48-2.88-54.21-2-57.4,19.63-72.36,27.29-59.64,43.51-63.18,47-31.21,13.12-36.79,16.48-9.76,23.94-11.25,27.46-7,4-14.69,9.46S1143.49,437,1131.36,456.58c-.67,1.08-1.46,2.25-2.34,3.48-14.47,16.71-36.82,40.18-63.85,65.67-30,27.61-58.17,51.83-58.17,51.83h0a833.78,833.78,0,0,1-75.43,56.74c-124,82.49-267.08,129-295.8,215.61-8.44,25.44-30.23,86.45,9.07,118.82s131.35,13.14,131.35,13.14,99.09-5.17,161.63-108.08C972,817.61,1054.93,716.88,1123,637.9,1200.34,549,1227.64,527.42,1248.34,500c36.15-47.92,40.09-153.43,44-157.93s13-20.24,14.55-24.12,111.43-78,112.19-89.42S1412.43,214.69,1412.43,214.69Zm.63,14.31c-5.42,4.94-129.89,90.5-128.89,94s-22.41,133-53.5,177.5c-20.28,29-247.5,242.37-340.5,346.87s-209.62,14.15-165.74-46.51C791.6,708,909.17,671,1011.17,600.5s162-97.06,180.5-140.5c13.44-31.58,46-123,57.2-143.32,9.32-16.9,138.71-89.34,152.6-94.68S1418,224.52,1413.06,229Z"/></svg>