<svg id="Ñëîé_1" data-name="Ñëîé 1" xmlns="http://www.w3.org/2000/svg" viewBox="0 0 2500 2500"><defs><style>.cls-1,.cls-15,.cls-4,.cls-96{fill:#fff;}.cls-2{fill:#fe9a78;}.cls-3{fill:#6d7db3;}.cls-4{opacity:0.07;}.cls-5{fill:#363c42;}.cls-6,.cls-95{opacity:0.11;}.cls-100,.cls-7,.cls-8,.cls-99{fill:#f78769;}.cls-7{opacity:0.5;}.cls-100,.cls-9{opacity:0.7;}.cls-10{fill:#3d4041;}.cls-11{fill:#dfe5ea;}.cls-12{fill:#002a3d;opacity:0.08;}.cls-13{fill:#7588bc;}.cls-14{fill:#b0b5c1;}.cls-15{opacity:0.12;}.cls-16{fill:#b6bdce;}.cls-17{fill:#6c332e;}.cls-18{fill:#381911;}.cls-19{opacity:0.4;}.cls-20{fill:#fd9977;}.cls-21{fill:#fd9877;}.cls-22{fill:#fc9776;}.cls-23{fill:#fc9675;}.cls-24{fill:#fb9575;}.cls-25{fill:#fa9474;}.cls-26{fill:#fa9373;}.cls-27{fill:#f99273;}.cls-28{fill:#f99172;}.cls-29{fill:#f89071;}.cls-30{fill:#f88f71;}.cls-31{fill:#f78e70;}.cls-32{fill:#f68d6f;}.cls-33{fill:#f68c6f;}.cls-34{fill:#f58b6e;}.cls-35{fill:#f58a6d;}.cls-36{fill:#f4896d;}.cls-37{fill:#f3886c;}.cls-38{fill:#f3876b;}.cls-39{fill:#f2866b;}.cls-40{fill:#f2856a;}.cls-41{fill:#f18469;}.cls-42{fill:#f08369;}.cls-43{fill:#f08268;}.cls-44{fill:#ef8167;}.cls-45{fill:#ef8067;}.cls-46{fill:#ee7f66;}.cls-47{fill:#ee7e65;}.cls-48{fill:#ed7d65;}.cls-49{fill:#ec7c64;}.cls-50{fill:#ec7b63;}.cls-51{fill:#eb7a63;}.cls-52{fill:#eb7962;}.cls-53{fill:#ea7861;}.cls-54{fill:#e97761;}.cls-55{fill:#e97660;}.cls-56{fill:#e8765f;}.cls-57{fill:#e8755e;}.cls-58{fill:#e7745e;}.cls-59{fill:#e6735d;}.cls-60{fill:#e6725c;}.cls-61{fill:#e5715c;}.cls-62{fill:#e5705b;}.cls-63{fill:#e46f5a;}.cls-64{fill:#e36e5a;}.cls-65{fill:#e36d59;}.cls-66{fill:#e26c58;}.cls-67{fill:#e26b58;}.cls-68{fill:#e16a57;}.cls-69{fill:#e16956;}.cls-70{fill:#e06856;}.cls-71{fill:#df6755;}.cls-72{fill:#df6654;}.cls-73{fill:#de6554;}.cls-74{fill:#de6453;}.cls-75{fill:#dd6352;}.cls-76{fill:#dc6252;}.cls-77{fill:#dc6151;}.cls-78{fill:#db6050;}.cls-79{fill:#db5f50;}.cls-80{fill:#da5e4f;}.cls-81{fill:#d95d4e;}.cls-82{fill:#d95c4e;}.cls-83{fill:#d85b4d;}.cls-84{fill:#d85a4c;}.cls-85{fill:#d7594c;}.cls-86{fill:#d7584b;}.cls-87{fill:#d6574a;}.cls-88{fill:#d5564a;}.cls-89{fill:#d55549;}.cls-90{fill:#d45448;}.cls-91{fill:#d45348;}.cls-92{fill:#d35247;}.cls-93{fill:#4f372d;}.cls-94{fill:#422e26;}.cls-95{fill:#e4902f;}.cls-101,.cls-96{opacity:0.2;}.cls-97{fill:#e8745d;}.cls-98{opacity:0.16;}.cls-99{opacity:0.53;}.cls-101{fill:#4f0000;}</style></defs><rect class="cls-1" width="2500" height="2500"/><path class="cls-2" d="M1107.53,549.09C1128.6,524.57,1041,438.24,1041,438.24S761.33,656,661.08,795s-67.65,194.19,1.86,252.66c79.75,67.08,365.61,129.07,365.61,129.07l169.54-272.56L873.54,880.71S951.66,730.52,1107.53,549.09Z"/><path class="cls-3" d="M750.21,1009.76c-104.55,26.14-148.7-19.64-151-88.91-8.68,55.08,20.32,90.28,63.69,126.77,79.75,67.08,365.61,129.07,365.61,129.07l177.54-277.64c-4.93,7.71-23.14-6.35-26.39-8.84-7.39-5.66-19-4.9-25.55,1.68-.58-5.42-7.84-6.65-13.28-6.44l-20.51.81-51.38,2c-28.28,1.11-56.69-1.66-84.91-5.27-13.51-1.73-27.69-6.72-41.31-6.61a55.59,55.59,0,0,1-7.07,0c-2.19-.26-4.29-1-6.44-1.46a27.57,27.57,0,0,0-20.2,3.46c-1.43-5.34-7.59-8.26-13.1-7.88-15.29,1-19.16,18.62-25.78,30.16a345.62,345.62,0,0,1-27.25,40.76C819.26,971.78,788.47,1000.2,750.21,1009.76Z"/><path class="cls-4" d="M937.68,539.09s-198.87,172.48-261.77,270,88.39,128,130.18,77.6,156.08-255.62,193.2-305S1001.43,481.68,937.68,539.09Z"/><path class="cls-5" d="M1278.71,2200.85c-1.13-.07-25.41,4.58-26.58,4.42-91.58-12.8-176.48-123.44-267.81-137.66-8.68,77.17-13.23,238.18-10.07,432.39h272.18C1257.78,2343.36,1273.35,2230,1278.71,2200.85Z"/><path class="cls-5" d="M1664.45,2090.22l-295.6,46.58c-35.79,3.1-33.52,170.1-9.1,363.2h295.72C1649.84,2295.7,1664.16,2094.23,1664.45,2090.22Z"/><path class="cls-5" d="M974.34,2228.55S1172.2,2250,1385.75,2248c138.78-1.25,257.22,10.05,266.25-51.77,8.39-57.42,14.84-126.27,20-198.19H988.46C981,2124,974.34,2228.55,974.34,2228.55Z"/><path class="cls-6" d="M1293.09,2207.83c-206.6,7.62-43.43,40.06-23.8,40.26,34.85.8,35.25,1,72.37,1a80.38,80.38,0,0,1,.1,10.7C1342.4,2259.56,1499.22,2200.22,1293.09,2207.83Z"/><path class="cls-2" d="M1635.71,2340.32c-16,27.1,17.78,27.1,29.73,10.43S1701.71,2250,1701.71,2250l12.91-149.11s-56.67,56.71-66.4,106.73S1651.69,2313.23,1635.71,2340.32Z"/><path class="cls-7" d="M1635.71,2340.32c-16,27.1,17.78,27.1,29.73,10.43S1701.71,2250,1701.71,2250l12.91-149.11s-56.67,56.71-66.4,106.73S1651.69,2313.23,1635.71,2340.32Z"/><path class="cls-8" d="M1362.25,683.93h0c-53.66-.93-92.7,26-93.31,64.32l-19.24,174.2c-.6,38.37,53.62,44.26,107.28,45.18s97.58-5.46,98.18-43.82V758.91C1455.76,720.54,1415.92,684.85,1362.25,683.93Z"/><path class="cls-2" d="M1728.81,2076.32s-61,100.68-63.29,142.62,49.18,181.22,57.51,195.43,13.1,24.13,23.8,21.82c0,0,2.85,9.47,11.55,24.25s27.52,6.11,27.47-6.6,3-47.48,1-69.42c0,0,3.33,29.44,7.15,45.5,5,21,27.63,16.39,29.48-2.22.61-6.12,1.66-27.14,2.79-52.6.12-2.72.2-5.15.27-7.4,3.11,17.39,19.39,13.58,24,2.69,4.94-11.64,11-35.54,13.75-59.67,2.11-18.26,8.34-64.68,9.31-86.83,1.15-26.31,13.47-82.79-9.57-118.59S1728.81,2076.32,1728.81,2076.32Z"/><path class="cls-7" d="M1729.31,2241.15a107.56,107.56,0,0,1-54.66-57.71c-5.11,13.6-8.62,26-9.13,35.5-2.28,41.93,49.18,181.22,57.51,195.43s13.1,24.13,23.8,21.82c0,0,2.85,9.47,11.55,24.25s27.52,6.11,27.47-6.6,3-47.48,1-69.42c0,0,3.33,29.44,7.15,45.5,5,21,27.63,16.39,29.48-2.22.61-6.12,1.66-27.14,2.79-52.6.12-2.72.2-5.15.27-7.4,3.11,17.39,19.39,13.58,24,2.69,4.94-11.64,11-35.54,13.75-59.67,2.11-18.26,8.34-64.68,9.31-86.83.51-11.51,3.14-28.78,4-47.58a140.35,140.35,0,0,1-19.42,33.77C1828.23,2248.11,1773.34,2261.27,1729.31,2241.15Z"/><path class="cls-2" d="M1539.41,904.7l23.44,247.21c40.66,80,130.35,304,132.45,450.34,2.87,199.28,75.19,196.87,10,547.86l154.08-51c19.28-126.41,54.79-324.94,43.91-512.14C1863.13,895.36,1546.2,918,1539.41,904.7Z"/><g class="cls-9"><path class="cls-8" d="M1539.41,904.7l23.44,247.21c40.66,80,130.35,304,132.45,450.34.15,10,.48,19.57,1,28.67,31.19-28.11,76.46-42,117.15-33.61,43.95,9,74.53,36.24,91.81,73,.22-27.87-.28-55.75-1.89-83.38C1863.13,895.36,1546.2,918,1539.41,904.7Z"/></g><path class="cls-3" d="M1539.41,904.7l23.44,247.21c34.49,67.86,104.21,239.29,125.89,379a909.73,909.73,0,0,1,106.37-15.79c34-2.92,68.2-4.05,102.4-4.09C1839.39,896.76,1545.94,917.53,1539.41,904.7Z"/><polygon class="cls-10" points="1399.32 2118.81 1459.07 2125.29 1540.66 1980.31 1483.56 1980.31 1399.32 2118.81"/><path class="cls-8" d="M1156.67,919.58v130.93h389.08v-144C1429.07,872,1269.63,872.35,1156.67,919.58Z"/><path class="cls-11" d="M1526.06,899.23c-11.27,67.12-95.73,82.29-188.16,83.78-83.44,1.36-121.34-16.66-136.06-80.7-27.65,4.78-98.18,27.24-137.28,52.27V2082c62,13.9,152.7,27.83,263.58,26.41,119.07-1.53,207.47-18.07,262.26-32.35V917.61a200.31,200.31,0,0,0-33-9.83C1547.29,904.88,1536.85,902.06,1526.06,899.23Z"/><path class="cls-3" d="M1228,897.07c-50.08,0-149.92,40.73-180.46,70.58-65.38,63.89-66.15,220.66-72.37,448.49-6.68,244.47-6.75,220.67-38.34,692.34,0,0,137.27,32.42,306.3,41.63-23.29-338.37,46.87-1081.6,52.22-1136.56C1291.8,996.07,1239.13,945.55,1228,897.07Z"/><path class="cls-3" d="M1700.27,1111.67c0-22,4-173.43-142.85-203.89-10.13-2.9-56.64-15.1-67.42-17.93-9.68,57.63-33.09,46.07-101.91,122.3-6.68,67-59.95,616.26-48.07,1150.38,205.16-4.42,374.6-74.53,374.6-74.53C1692.19,1825.08,1699.67,1342.11,1700.27,1111.67Z"/><path class="cls-12" d="M1201.28,900h0s-25.36,114.13-.07,163.82c0,0,6.5-71.46,37.93-59,20.87,8.26,41.34,37.94,52.89,56.51,1.57-24.86,2.72-41.54,3.32-47.73-3.43-16.94-52.9-64.85-66.09-111.93A144,144,0,0,0,1201.28,900Z"/><path class="cls-13" d="M1231.53,945.87c-.53,3.91-53.76,394.57-69.14,724.51-10.2,219.09-6.92,385.42-3.51,473.19q12.28,1.24,24.95,2.35c-3.43-86.19-6.93-253.17,3.38-474.38,14.32-307.34,61.63-667.74,68.18-716.68-1.4-2.07-2.77-4.16-4.13-6.28Z"/><path class="cls-13" d="M1462.89,957l-15-1.69c-3.33,2.76-6.91,5.74-10.74,9-6.54,61.64-40.33,394.94-41,709.07-.52,227.53,8.66,395.83,15.08,485q12.51-1.17,24.72-2.58c-6.37-88.83-15.47-256.16-15-482.41C1421.7,1328.73,1462.48,960.65,1462.89,957Z"/><path class="cls-12" d="M1507.52,900a134.23,134.23,0,0,0-19.67.62c-10.89,45.75-35.56,40.45-99.76,111.56-.76,7.67-4.23,32.09-5.81,61.37,21.12-22.06,69.79-61.84,87.39-68.8,31.42-12.42,37.92,59.07,37.92,59.07,25.29-49.69-.07-163.82-.07-163.82Z"/><polygon class="cls-13" points="1022.34 1126.45 1009.76 1152.62 1226.28 1116.2 1222.28 1091.68 1022.34 1126.45"/><path class="cls-13" d="M1258.09,847.93s-25.84,9.58-60,56.2-3.1,143.06-3.1,143.06,5.17-22.77,16.59-60.92c16.77-56.07,83.76,27.28,83.76,27.28s-6-32.86-19.61-63.59C1255,903.31,1258.09,847.93,1258.09,847.93Z"/><ellipse class="cls-14" cx="1232.48" cy="1444.42" rx="16.64" ry="14.75"/><ellipse class="cls-14" cx="1213.85" cy="1668" rx="16.64" ry="14.75"/><ellipse class="cls-14" cx="1207.64" cy="1841.9" rx="16.64" ry="14.75"/><ellipse class="cls-14" cx="1207.64" cy="2022.02" rx="16.64" ry="14.75"/><ellipse class="cls-14" cx="1263.54" cy="1084.2" rx="16.64" ry="14.75"/><ellipse class="cls-14" cx="1246.86" cy="1250.93" rx="16.64" ry="14.75"/><rect class="cls-13" x="1525.35" y="1017.08" width="24.84" height="205.23" transform="translate(130.21 2399.24) rotate(-78.33)"/><path class="cls-13" d="M1455.1,855.85s1.77,20-18.93,66.61c-13.64,30.73-43.47,52.79-48.29,92.07,0,0,92.57-84.33,109.34-28.26,11.41,38.15,16.59,60.92,16.59,60.92s31-96.43-3.11-143.06S1455.1,855.85,1455.1,855.85Z"/><path class="cls-15" d="M1258.09,847.93s-6.54,2.49-17.29,10.74c-24.75,23.6-20.8,71.24-9.75,108.41,25.93-1.13,64.29,46.47,64.29,46.47s-6-32.86-19.61-63.59C1255,903.31,1258.09,847.93,1258.09,847.93Z"/><path class="cls-15" d="M1455.1,855.85s1.77,20-18.93,66.61c-13.64,30.73-43.47,52.79-48.29,92.07,0,0,53.6-48.8,86.62-47.41,6.14-38.94,6.46-78.22-18.88-111.19C1455.31,855.87,1455.1,855.85,1455.1,855.85Z"/><path class="cls-13" d="M1140.71,885.46l-20.35.8-16.72.66c-37,46.25-97.42,179.82-119.1,290.78-5.26,67.11-6.89,147-9.38,238.44-.44,16.15-.85,31.12-1.25,45.15,29.87-389.71,145-546.2,169.66-575.4C1142.68,885.74,1141.71,885.6,1140.71,885.46Z"/><path class="cls-13" d="M1557.42,907.78l-3.69-1c21.3,18.75,84.21,115.07,115.36,604.16l25-1.59c-23.92-375.65-66.91-528.93-101-590.68A199.11,199.11,0,0,0,1557.42,907.78Z"/><path class="cls-16" d="M1644.38,1392.21c-4.4,29.25,3.73,82.37,15.58,148,10.17,56.35,39,67.81,39,67.81,64.45-61.4,202.88-45.09,202.88-45.09,15.28-4.8,19.45-22.29,19.45-22.29,2.79-39.6-19.45-201.47-19.45-201.47C1869.84,1289.88,1651,1348.24,1644.38,1392.21Z"/><path class="cls-13" d="M1008.36,1437.18a38.66,38.66,0,0,0,18.39,35.81l35.62,21.75a30.42,30.42,0,0,0,32.16-.27l46.29-29.36a37.48,37.48,0,0,0,17.28-28.78l11.1-145.75H1019.14Z"/><path class="cls-13" d="M1623.89,1307.25H1462v144.66a42.6,42.6,0,0,0,18,34.8l30.28,21.36a44.21,44.21,0,0,0,53.42-1.88l44.47-36.3a53.45,53.45,0,0,0,19.64-43.22Z"/><path class="cls-17" d="M1398.41,693.61a1.81,1.81,0,0,0,0-.2S1398.39,693.49,1398.41,693.61Z"/><path class="cls-8" d="M1110.68,553.27c-25.1,8.11-36.57,44.64-25.61,81.6s40.19,60.35,65.3,52.25,36.57-44.65,25.61-81.61S1135.78,545.17,1110.68,553.27Z"/><path class="cls-18" d="M1244,213.45s0-.42-.12-1.12C1243.92,213.05,1244,213.45,1244,213.45Z"/><path class="cls-2" d="M1549.21,598.53c.79-89.77-11.7-203.38-29.61-270.33-13.65-87-258.66-129.45-331.58-10.49-23.33,55.24-61.36,158.34-74.4,260.9,0-1.1,0-1.76,0-1.76s-68.3,272.57,174.47,290.9,270.53-109.61,261.1-269.25Z"/><g class="cls-19"><path class="cls-2" d="M1200,543c-48.21-.91-88.1,39.23-89.11,89.66s37.26,92,85.47,92.94,88.11-39.24,89.12-89.66S1248.24,543.9,1200,543Z"/><path class="cls-20" d="M1200,543.62c-47.88-.9-87.5,39-88.5,89s37,91.4,84.89,92.3,87.5-39,88.5-89S1247.9,544.52,1200,543.62Z"/><path class="cls-21" d="M1200,544.24c-47.55-.89-86.9,38.7-87.89,88.43s36.75,90.77,84.3,91.67,86.9-38.7,87.89-88.43S1247.56,545.14,1200,544.24Z"/><ellipse class="cls-22" cx="1198.21" cy="634.29" rx="89.44" ry="85.51" transform="translate(526.16 1811.74) rotate(-88.18)"/><ellipse class="cls-23" cx="1198.21" cy="634.29" rx="88.82" ry="84.92" transform="translate(526.15 1811.73) rotate(-88.18)"/><ellipse class="cls-24" cx="1198.21" cy="634.29" rx="88.19" ry="84.32" transform="translate(526.15 1811.73) rotate(-88.18)"/><path class="cls-25" d="M1200,546.74c-46.23-.87-84.49,37.62-85.45,86s35.73,88.26,82,89.12,84.49-37.62,85.45-86S1246.19,547.61,1200,546.74Z"/><ellipse class="cls-26" cx="1198.21" cy="634.29" rx="86.94" ry="83.12" transform="translate(526.15 1811.73) rotate(-88.18)"/><path class="cls-27" d="M1199.93,548c-45.57-.85-83.28,37.09-84.23,84.75s35.23,87,80.79,87.84,83.28-37.08,84.23-84.74S1245.5,548.85,1199.93,548Z"/><ellipse class="cls-28" cx="1198.21" cy="634.29" rx="85.69" ry="81.93" transform="translate(526.14 1811.72) rotate(-88.18)"/><ellipse class="cls-29" cx="1198.21" cy="634.29" rx="85.06" ry="81.33" transform="translate(526.15 1811.73) rotate(-88.18)"/><ellipse class="cls-30" cx="1198.21" cy="634.29" rx="84.44" ry="80.73" transform="translate(526.14 1811.73) rotate(-88.18)"/><ellipse class="cls-31" cx="1198.21" cy="634.29" rx="83.81" ry="80.13" transform="translate(526.15 1811.73) rotate(-88.18)"/><ellipse class="cls-32" cx="1198.21" cy="634.29" rx="83.19" ry="79.53" transform="translate(526.15 1811.73) rotate(-88.18)"/><ellipse class="cls-33" cx="1198.21" cy="634.29" rx="82.56" ry="78.94" transform="translate(526.15 1811.73) rotate(-88.18)"/><ellipse class="cls-34" cx="1198.21" cy="634.29" rx="81.94" ry="78.34" transform="translate(526.14 1811.73) rotate(-88.18)"/><ellipse class="cls-35" cx="1198.21" cy="634.29" rx="81.31" ry="77.74" transform="matrix(0.03, -1, 1, 0.03, 526.15, 1811.73)"/><ellipse class="cls-36" cx="1198.21" cy="634.29" rx="80.68" ry="77.14" transform="translate(526.15 1811.73) rotate(-88.18)"/><ellipse class="cls-37" cx="1198.21" cy="634.29" rx="80.06" ry="76.54" transform="translate(526.15 1811.73) rotate(-88.18)"/><ellipse class="cls-38" cx="1198.21" cy="634.29" rx="79.43" ry="75.95" transform="translate(526.13 1811.72) rotate(-88.18)"/><ellipse class="cls-39" cx="1198.21" cy="634.29" rx="78.81" ry="75.35" transform="translate(526.14 1811.72) rotate(-88.18)"/><ellipse class="cls-40" cx="1198.21" cy="634.29" rx="78.18" ry="74.75" transform="translate(526.13 1811.72) rotate(-88.18)"/><ellipse class="cls-41" cx="1198.21" cy="634.29" rx="77.56" ry="74.15" transform="translate(526.13 1811.72) rotate(-88.18)"/><ellipse class="cls-42" cx="1198.21" cy="634.29" rx="76.93" ry="73.55" transform="translate(526.14 1811.72) rotate(-88.18)"/><ellipse class="cls-43" cx="1198.21" cy="634.29" rx="76.31" ry="72.96" transform="matrix(0.03, -1, 1, 0.03, 526.13, 1811.72)"/><ellipse class="cls-44" cx="1198.21" cy="634.29" rx="75.68" ry="72.36" transform="translate(526.12 1811.71) rotate(-88.18)"/><ellipse class="cls-45" cx="1198.21" cy="634.29" rx="75.06" ry="71.76" transform="translate(526.13 1811.72) rotate(-88.18)"/><ellipse class="cls-46" cx="1198.21" cy="634.29" rx="74.43" ry="71.16" transform="translate(526.11 1811.71) rotate(-88.18)"/><ellipse class="cls-47" cx="1198.21" cy="634.29" rx="73.8" ry="70.56" transform="translate(526.14 1811.72) rotate(-88.18)"/><ellipse class="cls-48" cx="1198.21" cy="634.29" rx="73.18" ry="69.97" transform="translate(526.12 1811.71) rotate(-88.18)"/><ellipse class="cls-49" cx="1198.21" cy="634.29" rx="72.55" ry="69.37" transform="matrix(0.03, -1, 1, 0.03, 526.13, 1811.72)"/><ellipse class="cls-50" cx="1198.21" cy="634.29" rx="71.93" ry="68.77" transform="translate(526.12 1811.72) rotate(-88.18)"/><ellipse class="cls-51" cx="1198.21" cy="634.29" rx="71.3" ry="68.17" transform="translate(526.11 1811.71) rotate(-88.18)"/><ellipse class="cls-52" cx="1198.21" cy="634.29" rx="70.68" ry="67.57" transform="translate(526.11 1811.71) rotate(-88.18)"/><ellipse class="cls-53" cx="1198.21" cy="634.29" rx="70.05" ry="66.98" transform="translate(526.12 1811.71) rotate(-88.18)"/><ellipse class="cls-54" cx="1198.21" cy="634.29" rx="69.43" ry="66.38" transform="translate(526.11 1811.71) rotate(-88.18)"/><ellipse class="cls-55" cx="1198.21" cy="634.29" rx="68.8" ry="65.78" transform="translate(526.12 1811.71) rotate(-88.18)"/><ellipse class="cls-56" cx="1198.21" cy="634.29" rx="68.17" ry="65.18" transform="translate(526.1 1811.7) rotate(-88.18)"/><ellipse class="cls-57" cx="1198.21" cy="634.29" rx="67.55" ry="64.58" transform="translate(526.11 1811.71) rotate(-88.18)"/><ellipse class="cls-58" cx="1198.21" cy="634.29" rx="66.92" ry="63.99" transform="translate(526.1 1811.7) rotate(-88.18)"/><ellipse class="cls-59" cx="1198.21" cy="634.29" rx="66.3" ry="63.39" transform="translate(526.11 1811.71) rotate(-88.18)"/><ellipse class="cls-60" cx="1198.21" cy="634.29" rx="65.67" ry="62.79" transform="translate(526.1 1811.7) rotate(-88.18)"/><ellipse class="cls-61" cx="1198.21" cy="634.29" rx="65.05" ry="62.19" transform="translate(526.09 1811.7) rotate(-88.18)"/><ellipse class="cls-62" cx="1198.21" cy="634.29" rx="64.42" ry="61.59" transform="translate(526.1 1811.7) rotate(-88.18)"/><ellipse class="cls-63" cx="1198.21" cy="634.29" rx="63.8" ry="61" transform="translate(526.08 1811.69) rotate(-88.17)"/><ellipse class="cls-64" cx="1198.21" cy="634.29" rx="63.17" ry="60.4" transform="matrix(0.03, -1, 1, 0.03, 526.11, 1811.71)"/><ellipse class="cls-65" cx="1198.21" cy="634.29" rx="62.55" ry="59.8" transform="matrix(0.03, -1, 1, 0.03, 526.1, 1811.7)"/><ellipse class="cls-66" cx="1198.21" cy="634.29" rx="61.92" ry="59.2" transform="translate(526.1 1811.7) rotate(-88.18)"/><ellipse class="cls-67" cx="1198.21" cy="634.29" rx="61.29" ry="58.6" transform="matrix(0.03, -1, 1, 0.03, 526.09, 1811.69)"/><ellipse class="cls-68" cx="1198.21" cy="634.29" rx="60.67" ry="58.01" transform="translate(526.08 1811.69) rotate(-88.17)"/><ellipse class="cls-69" cx="1198.21" cy="634.29" rx="60.04" ry="57.41" transform="translate(526.09 1811.7) rotate(-88.18)"/><ellipse class="cls-70" cx="1198.21" cy="634.29" rx="59.42" ry="56.81" transform="translate(526.1 1811.7) rotate(-88.18)"/><ellipse class="cls-71" cx="1198.21" cy="634.29" rx="58.79" ry="56.21" transform="translate(526.07 1811.69) rotate(-88.17)"/><ellipse class="cls-72" cx="1198.21" cy="634.29" rx="58.17" ry="55.61" transform="translate(526.09 1811.69) rotate(-88.17)"/><ellipse class="cls-73" cx="1198.21" cy="634.29" rx="57.54" ry="55.02" transform="matrix(0.03, -1, 1, 0.03, 526.06, 1811.68)"/><ellipse class="cls-74" cx="1198.21" cy="634.29" rx="56.92" ry="54.42" transform="translate(526.07 1811.68) rotate(-88.17)"/><ellipse class="cls-75" cx="1198.21" cy="634.29" rx="56.29" ry="53.82" transform="matrix(0.03, -1, 1, 0.03, 526.08, 1811.69)"/><ellipse class="cls-76" cx="1198.21" cy="634.29" rx="55.67" ry="53.22" transform="translate(526.07 1811.68) rotate(-88.17)"/><ellipse class="cls-77" cx="1198.21" cy="634.29" rx="55.04" ry="52.62" transform="translate(526.07 1811.68) rotate(-88.17)"/><path class="cls-78" d="M1199.3,579.88c-28.73-.54-52.5,23.38-53.1,53.43s22.2,54.84,50.93,55.38,52.5-23.38,53.1-53.42S1228,580.42,1199.3,579.88Z"/><path class="cls-79" d="M1199.28,580.51c-28.39-.53-51.89,23.11-52.49,52.81s22,54.21,50.35,54.75,51.9-23.11,52.49-52.81S1227.68,581,1199.28,580.51Z"/><ellipse class="cls-80" cx="1198.21" cy="634.29" rx="53.16" ry="50.83" transform="matrix(0.03, -1, 1, 0.03, 526.08, 1811.69)"/><path class="cls-81" d="M1199.26,581.76c-27.74-.52-50.69,22.57-51.27,51.58s21.44,52.95,49.18,53.48,50.69-22.58,51.27-51.59S1227,582.28,1199.26,581.76Z"/><ellipse class="cls-82" cx="1198.21" cy="634.29" rx="51.91" ry="49.63" transform="translate(526.07 1811.68) rotate(-88.17)"/><path class="cls-83" d="M1199.23,583c-27.07-.51-49.48,22-50,50.36s20.92,51.69,48,52.2,49.49-22,50-50.36S1226.31,583.52,1199.23,583Z"/><path class="cls-84" d="M1199.22,583.64c-26.74-.51-48.88,21.76-49.44,49.74s20.68,51.06,47.42,51.56,48.89-21.77,49.44-49.74S1226,584.14,1199.22,583.64Z"/><path class="cls-85" d="M1199.21,584.26c-26.42-.49-48.28,21.5-48.83,49.13s20.42,50.43,46.84,50.92,48.27-21.49,48.82-49.12S1225.63,584.76,1199.21,584.26Z"/><path class="cls-86" d="M1199.2,584.89c-26.09-.49-47.68,21.23-48.22,48.51s20.16,49.8,46.25,50.29,47.67-21.23,48.22-48.51S1225.28,585.38,1199.2,584.89Z"/><path class="cls-87" d="M1199.19,585.51c-25.76-.48-47.08,21-47.61,47.9s19.91,49.17,45.66,49.65,47.07-21,47.61-47.89S1224.94,586,1199.19,585.51Z"/><path class="cls-88" d="M1199.17,586.14c-25.42-.48-46.46,20.69-47,47.28s19.65,48.54,45.07,49,46.47-20.69,47-47.29S1224.6,586.62,1199.17,586.14Z"/><path class="cls-89" d="M1199.16,586.76c-25.1-.47-45.86,20.43-46.39,46.67s19.4,47.91,44.5,48.38,45.86-20.42,46.38-46.67S1224.26,587.24,1199.16,586.76Z"/><path class="cls-90" d="M1199.15,587.39c-24.77-.47-45.26,20.15-45.78,46.06s19.14,47.27,43.91,47.74,45.26-20.16,45.78-46.06S1223.91,587.85,1199.15,587.39Z"/><path class="cls-91" d="M1199.14,588c-24.44-.46-44.66,19.89-45.17,45.45s18.89,46.64,43.32,47.1,44.66-19.88,45.17-45.44S1223.57,588.47,1199.14,588Z"/><path class="cls-92" d="M1199.12,588.64c-24.1-.45-44,19.62-44.55,44.83s18.63,46,42.73,46.47,44.06-19.62,44.56-44.83S1223.23,589.09,1199.12,588.64Z"/></g><g class="cls-19"><ellipse class="cls-2" cx="1434.41" cy="638.73" rx="91.32" ry="95.1" transform="translate(787.73 2069.58) rotate(-89.68)"/><ellipse class="cls-20" cx="1434.41" cy="638.73" rx="90.69" ry="94.45" transform="translate(787.73 2069.57) rotate(-89.68)"/><ellipse class="cls-21" cx="1434.41" cy="638.73" rx="90.06" ry="93.8" transform="translate(787.71 2069.57) rotate(-89.68)"/><ellipse class="cls-22" cx="1434.41" cy="638.73" rx="89.44" ry="93.15" transform="translate(787.74 2069.58) rotate(-89.68)"/><ellipse class="cls-23" cx="1434.41" cy="638.73" rx="88.81" ry="92.49" transform="translate(787.72 2069.57) rotate(-89.68)"/><ellipse class="cls-24" cx="1434.41" cy="638.73" rx="88.19" ry="91.84" transform="translate(787.71 2069.57) rotate(-89.68)"/><ellipse class="cls-25" cx="1434.41" cy="638.73" rx="87.56" ry="91.19" transform="translate(787.72 2069.57) rotate(-89.68)"/><ellipse class="cls-26" cx="1434.41" cy="638.73" rx="86.94" ry="90.54" transform="translate(787.72 2069.57) rotate(-89.68)"/><ellipse class="cls-27" cx="1434.41" cy="638.73" rx="86.31" ry="89.89" transform="translate(787.73 2069.58) rotate(-89.68)"/><ellipse class="cls-28" cx="1434.41" cy="638.73" rx="85.69" ry="89.24" transform="translate(787.72 2069.57) rotate(-89.68)"/><ellipse class="cls-29" cx="1434.41" cy="638.73" rx="85.06" ry="88.59" transform="translate(787.71 2069.56) rotate(-89.68)"/><ellipse class="cls-30" cx="1434.41" cy="638.73" rx="84.44" ry="87.93" transform="translate(787.71 2069.57) rotate(-89.68)"/><ellipse class="cls-31" cx="1434.41" cy="638.73" rx="83.81" ry="87.28" transform="translate(787.7 2069.56) rotate(-89.68)"/><ellipse class="cls-32" cx="1434.41" cy="638.73" rx="83.18" ry="86.63" transform="translate(787.72 2069.57) rotate(-89.68)"/><ellipse class="cls-33" cx="1434.41" cy="638.73" rx="82.56" ry="85.98" transform="translate(787.71 2069.57) rotate(-89.68)"/><ellipse class="cls-34" cx="1434.41" cy="638.73" rx="81.93" ry="85.33" transform="translate(787.69 2069.56) rotate(-89.68)"/><ellipse class="cls-35" cx="1434.41" cy="638.73" rx="81.31" ry="84.68" transform="translate(787.72 2069.57) rotate(-89.68)"/><ellipse class="cls-36" cx="1434.41" cy="638.73" rx="80.68" ry="84.03" transform="translate(787.71 2069.57) rotate(-89.68)"/><ellipse class="cls-37" cx="1434.41" cy="638.73" rx="80.06" ry="83.37" transform="translate(787.71 2069.57) rotate(-89.68)"/><ellipse class="cls-38" cx="1434.41" cy="638.73" rx="79.43" ry="82.72" transform="translate(787.72 2069.57) rotate(-89.68)"/><ellipse class="cls-39" cx="1434.41" cy="638.73" rx="78.81" ry="82.07" transform="translate(787.71 2069.57) rotate(-89.68)"/><ellipse class="cls-40" cx="1434.41" cy="638.73" rx="78.18" ry="81.42" transform="translate(787.71 2069.57) rotate(-89.68)"/><ellipse class="cls-41" cx="1434.41" cy="638.73" rx="77.56" ry="80.77" transform="matrix(0.01, -1, 1, 0.01, 787.72, 2069.57)"/><ellipse class="cls-42" cx="1434.41" cy="638.73" rx="76.93" ry="80.12" transform="translate(787.71 2069.56) rotate(-89.68)"/><ellipse class="cls-43" cx="1434.41" cy="638.73" rx="76.3" ry="79.47" transform="translate(787.71 2069.57) rotate(-89.68)"/><ellipse class="cls-44" cx="1434.41" cy="638.73" rx="75.68" ry="78.82" transform="translate(787.72 2069.57) rotate(-89.68)"/><ellipse class="cls-45" cx="1434.41" cy="638.73" rx="75.05" ry="78.16" transform="translate(787.71 2069.56) rotate(-89.68)"/><ellipse class="cls-46" cx="1434.41" cy="638.73" rx="74.43" ry="77.51" transform="translate(787.69 2069.56) rotate(-89.68)"/><ellipse class="cls-47" cx="1434.41" cy="638.73" rx="73.8" ry="76.86" transform="translate(787.7 2069.56) rotate(-89.68)"/><ellipse class="cls-48" cx="1434.41" cy="638.73" rx="73.18" ry="76.21" transform="translate(787.7 2069.56) rotate(-89.68)"/><ellipse class="cls-49" cx="1434.41" cy="638.73" rx="72.55" ry="75.56" transform="translate(787.69 2069.56) rotate(-89.68)"/><ellipse class="cls-50" cx="1434.41" cy="638.73" rx="71.93" ry="74.91" transform="translate(787.7 2069.56) rotate(-89.68)"/><ellipse class="cls-51" cx="1434.41" cy="638.73" rx="71.3" ry="74.26" transform="translate(787.7 2069.56) rotate(-89.68)"/><ellipse class="cls-52" cx="1434.41" cy="638.73" rx="70.68" ry="73.6" transform="translate(787.69 2069.56) rotate(-89.68)"/><ellipse class="cls-53" cx="1434.41" cy="638.73" rx="70.05" ry="72.95" transform="translate(787.69 2069.56) rotate(-89.68)"/><ellipse class="cls-54" cx="1434.41" cy="638.73" rx="69.42" ry="72.3" transform="translate(787.71 2069.57) rotate(-89.68)"/><ellipse class="cls-55" cx="1434.41" cy="638.73" rx="68.8" ry="71.65" transform="translate(787.69 2069.56) rotate(-89.68)"/><ellipse class="cls-56" cx="1434.41" cy="638.73" rx="68.17" ry="71" transform="translate(787.69 2069.56) rotate(-89.68)"/><ellipse class="cls-57" cx="1434.41" cy="638.73" rx="67.55" ry="70.35" transform="translate(787.7 2069.56) rotate(-89.68)"/><ellipse class="cls-58" cx="1434.41" cy="638.73" rx="66.92" ry="69.7" transform="matrix(0.01, -1, 1, 0.01, 787.7, 2069.56)"/><ellipse class="cls-59" cx="1434.41" cy="638.73" rx="66.3" ry="69.04" transform="translate(787.7 2069.56) rotate(-89.68)"/><ellipse class="cls-60" cx="1434.41" cy="638.73" rx="65.67" ry="68.39" transform="translate(787.68 2069.55) rotate(-89.68)"/><ellipse class="cls-61" cx="1434.41" cy="638.73" rx="65.05" ry="67.74" transform="matrix(0.01, -1, 1, 0.01, 787.68, 2069.55)"/><ellipse class="cls-62" cx="1434.41" cy="638.73" rx="64.42" ry="67.09" transform="translate(787.67 2069.55) rotate(-89.68)"/><ellipse class="cls-63" cx="1434.41" cy="638.73" rx="63.8" ry="66.44" transform="translate(787.69 2069.56) rotate(-89.68)"/><ellipse class="cls-64" cx="1434.41" cy="638.73" rx="63.17" ry="65.79" transform="translate(787.68 2069.55) rotate(-89.68)"/><ellipse class="cls-65" cx="1434.41" cy="638.73" rx="62.54" ry="65.14" transform="translate(787.66 2069.55) rotate(-89.68)"/><ellipse class="cls-66" cx="1434.41" cy="638.73" rx="61.92" ry="64.49" transform="translate(787.69 2069.56) rotate(-89.68)"/><ellipse class="cls-67" cx="1434.41" cy="638.73" rx="61.29" ry="63.83" transform="translate(787.68 2069.55) rotate(-89.68)"/><ellipse class="cls-68" cx="1434.41" cy="638.73" rx="60.67" ry="63.18" transform="translate(787.68 2069.55) rotate(-89.68)"/><ellipse class="cls-69" cx="1434.41" cy="638.73" rx="60.04" ry="62.53" transform="translate(787.7 2069.56) rotate(-89.68)"/><ellipse class="cls-70" cx="1434.41" cy="638.73" rx="59.42" ry="61.88" transform="matrix(0.01, -1, 1, 0.01, 787.67, 2069.55)"/><ellipse class="cls-71" cx="1434.41" cy="638.73" rx="58.79" ry="61.23" transform="translate(787.68 2069.55) rotate(-89.68)"/><ellipse class="cls-72" cx="1434.41" cy="638.73" rx="58.17" ry="60.58" transform="translate(787.69 2069.56) rotate(-89.68)"/><ellipse class="cls-73" cx="1434.41" cy="638.73" rx="57.54" ry="59.93" transform="translate(787.68 2069.55) rotate(-89.68)"/><ellipse class="cls-74" cx="1434.41" cy="638.73" rx="56.92" ry="59.27" transform="translate(787.69 2069.56) rotate(-89.68)"/><ellipse class="cls-75" cx="1434.41" cy="638.73" rx="56.29" ry="58.62" transform="translate(787.67 2069.55) rotate(-89.68)"/><ellipse class="cls-76" cx="1434.41" cy="638.73" rx="55.66" ry="57.97" transform="translate(787.67 2069.55) rotate(-89.68)"/><ellipse class="cls-77" cx="1434.41" cy="638.73" rx="55.04" ry="57.32" transform="translate(787.65 2069.54) rotate(-89.68)"/><ellipse class="cls-78" cx="1434.41" cy="638.73" rx="54.41" ry="56.67" transform="translate(787.63 2069.53) rotate(-89.68)"/><ellipse class="cls-79" cx="1434.41" cy="638.73" rx="53.79" ry="56.02" transform="translate(787.67 2069.55) rotate(-89.68)"/><ellipse class="cls-80" cx="1434.41" cy="638.73" rx="53.16" ry="55.37" transform="translate(787.65 2069.54) rotate(-89.68)"/><ellipse class="cls-81" cx="1434.41" cy="638.73" rx="52.54" ry="54.71" transform="translate(787.65 2069.54) rotate(-89.68)"/><ellipse class="cls-82" cx="1434.41" cy="638.73" rx="51.91" ry="54.06" transform="translate(787.67 2069.55) rotate(-89.68)"/><ellipse class="cls-83" cx="1434.41" cy="638.73" rx="51.29" ry="53.41" transform="translate(787.64 2069.54) rotate(-89.68)"/><ellipse class="cls-84" cx="1434.41" cy="638.73" rx="50.66" ry="52.76" transform="translate(787.66 2069.54) rotate(-89.68)"/><ellipse class="cls-85" cx="1434.41" cy="638.73" rx="50.04" ry="52.11" transform="translate(787.66 2069.54) rotate(-89.68)"/><ellipse class="cls-86" cx="1434.41" cy="638.73" rx="49.41" ry="51.46" transform="translate(787.67 2069.55) rotate(-89.68)"/><ellipse class="cls-87" cx="1434.41" cy="638.73" rx="48.79" ry="50.81" transform="translate(787.65 2069.54) rotate(-89.68)"/><ellipse class="cls-88" cx="1434.41" cy="638.73" rx="48.16" ry="50.16" transform="translate(787.66 2069.54) rotate(-89.68)"/><ellipse class="cls-89" cx="1434.41" cy="638.73" rx="47.53" ry="49.5" transform="translate(787.68 2069.55) rotate(-89.68)"/><ellipse class="cls-90" cx="1434.41" cy="638.73" rx="46.91" ry="48.85" transform="translate(787.61 2069.52) rotate(-89.68)"/><ellipse class="cls-91" cx="1434.41" cy="638.73" rx="46.28" ry="48.2" transform="matrix(0.01, -1, 1, 0.01, 787.64, 2069.53)"/><ellipse class="cls-92" cx="1434.41" cy="638.73" rx="45.66" ry="47.55" transform="translate(787.63 2069.53) rotate(-89.68)"/></g><ellipse class="cls-2" cx="1579.24" cy="620.98" rx="69.82" ry="47.74" transform="translate(511.72 1940.07) rotate(-72.48)"/><path class="cls-8" d="M1603.82,641.24c-24.2,15.25-49.8,10.08-68.26-5.17.26,30.78-6.72,89.15-51.3,148.41-35.8,47.57-112.55,62.84-169.45,60.35-135.78-6-171.2-47.71-198.73-103.93,18.72,61.58,65.31,118.79,172.05,126.85,197.8,14.93,252.86-67.23,261.37-184.52a33.87,33.87,0,0,0,7.32,3.85c24.78,9.07,54.89-13.17,67.27-49.68a98.41,98.41,0,0,0,5.21-27.81A61.32,61.32,0,0,1,1603.82,641.24Z"/><path class="cls-8" d="M1560.15,621l22.69,3.41c0-35.84,26.71-47.58,26.71-47.58C1566.49,561,1560.15,621,1560.15,621Z"/><path class="cls-17" d="M1411.18,687.43a1.12,1.12,0,0,0,0-.2S1411.16,687.31,1411.18,687.43Z"/><path class="cls-93" d="M1349.26,205.13c-251.68,15.28-216.66,294.34-216.66,294.34,15.44-82.84,67.83-185.39,107.46-187.21,0,0,34.25,28.34,85.76,29.67,46.07,1.19,110.16-32,110.16-32,46-.81,97.77,141.8,103.28,256.53,1.26,26.25,24.22-3.92,24.22-3.92S1595.89,190.16,1349.26,205.13Z"/><path class="cls-93" d="M1480.65,227.58c-73.77-113.94-316.36-82.33-316.36-82.33C1140.06,273.94,1230,303.48,1230,303.48s210.08-36.24,241.72-13.64,92.63,203.06,92.63,203.06,54.71-187.7,15.54-257.08C1551.09,184.9,1480.65,227.58,1480.65,227.58Z"/><path class="cls-93" d="M1258.22,119.59c.77,17.06,15.38,34.48,15.38,34.48s253.24,174.12,207.05,73.51S1258.22,119.59,1258.22,119.59Z"/><path class="cls-93" d="M1522,193.28c-14.33,2.13-17.72,8.88-17.72,8.88,10.4-18.75,3.45-44.41,3.45-44.41-28,15.84-25.38,38.16-25.38,38.16-13.53-28.75-55.63-37.89-55.63-37.89,1.23,23.7,26.37,48,27.73,48.77l21.69,33.46,45.38-6.88-4.36-20.26C1524.66,202.62,1522,193.28,1522,193.28Z"/><path class="cls-94" d="M1170.54,243.33c-74,22.07-54.29,316.69-54.29,316.69,15.44-82.84,84.18-245.94,123.81-247.76C1240.06,312.26,1203.5,290.17,1170.54,243.33Z"/><path class="cls-15" d="M1458.32,225.29l0,0C1458.47,225.3,1458.75,225.27,1458.32,225.29Z"/><path class="cls-15" d="M1458.34,230h0Z"/><path class="cls-95" d="M1551.35,212.82c-9.07,1.39-18.64,3.59-28.51,5.78-23.55,5.23-48.34,8.69-72.42,5.32-28-3.92-52.51-16.58-77.32-29.29-12.53-6.42-25-12.94-37.92-18.56-27.65-12-60.28-23.88-90.85-23-15.13.41-30,4.94-43.92,10.57A94.48,94.48,0,0,0,1169,184.36a88.54,88.54,0,0,0-8.56,9.9,156.11,156.11,0,0,0,3.5,27.73c1-.78,1.95-1.58,3-2.39a93.74,93.74,0,0,1,18.78-10.55,83,83,0,0,1,25.07-6.22c36.37-2.58,70,12.2,102.81,25.94,13.41,5.63,27,12.17,41.47,18.24a447,447,0,0,0,45.08,17c26.43,8.23,58.76,10.87,85.76,3.53,3.65-1,7.26-1.82,10.77-2.88a242.78,242.78,0,0,0,36.64-15.27c10.54-5.35,19.57-10.23,27.53-13.91a98.86,98.86,0,0,1,14.91-5.87A44.85,44.85,0,0,0,1551.35,212.82Z"/><path class="cls-15" d="M1457.77,225.33l.17,0h0Z"/><path class="cls-2" d="M1288.57,602.53s-35.52-26.33-48.57,19.11,77.5,73.29,102.85,25.92-38.91-136.73-38.91-136.73S1316.29,565.61,1288.57,602.53Z"/><path class="cls-96" d="M1288.57,602.53s-34.49-24.78-47.62,16a323.93,323.93,0,0,0,56.61,9.11c11.1-26,15-54.14,16.5-84.58q-3.72,0-7.44-.12C1306.43,561.24,1302.81,583.56,1288.57,602.53Z"/><path class="cls-93" d="M1539,562.38c-12.69,126.49-141,142.48-142.21,140.49,31,30.92,7.2,82.26-32.27,65.08-13.34-5.8-26.71-19.33-55.46-20-29.88-.71-46.19,12.49-54.07,16.87-32.3,18-71.43-12.26-32.3-69.86,0,0-43.71-9.32-57-16.69-25.42-14-37.93-42.91-44.07-70a222.25,222.25,0,0,1-4.89-34c-.29-4.19-1.52-10.12-.47-14.27C1085.16,683.4,1063,883.2,1323,880.5s229.4-200.6,229.4-200.6c-12.22-43.87,11.11-117.36,11.11-117.36Z"/><path class="cls-97" d="M1377.05,726.41c-14.38-10.41-39.12-27.67-72.3-27.29-33.47.54-60.59,19.29-73.24,30.47a12.51,12.51,0,0,0-.51,18.31l1,1a12.44,12.44,0,0,0,16.19,1.15c10.75-8,31.38-20.28,57.17-20.69,25.57-.45,45.9,10.43,56.69,17.8a12.58,12.58,0,0,0,16.25-1.58l.41-.43A12.48,12.48,0,0,0,1377.05,726.41Z"/><path class="cls-93" d="M1297,647.34s-29.72-12.83-74.53,13.14c-34.29,19.88-47.34,63.24-47.34,63.24s47.48,9.91,127.19-18c79.37,37.86,142,21.16,142,21.16S1415.06,631.59,1297,647.34Z"/><path class="cls-8" d="M1239,634.35c5,37.42,81,56,103.84,13.21a47.1,47.1,0,0,0,3.35-8.19C1310.38,646.67,1273.15,644.21,1239,634.35Z"/><ellipse class="cls-98" cx="1309.12" cy="783.05" rx="18.24" ry="30.61" transform="translate(518.77 2087.77) rotate(-89.68)"/><path class="cls-99" d="M1334.09,427.47c-6-1.44-20.6,38.21-19.71,57.53,0,0-7.31-38.67-12-37.65s1.77,52,10.48,55.87S1340.06,428.91,1334.09,427.47Z"/><path class="cls-100" d="M1170.7,504.68c-14.15,31.32-10.56,54.65-10.56,54.65s32.5,28.86,45.95,30c12.77,1.11,54.88-12.17,54.88-12.17,32.6-55.65,22.22-96.67,22.22-96.67C1253.79,471.12,1170.7,504.68,1170.7,504.68Z"/><path class="cls-100" d="M1386.88,496.88l-17.11-31.76c-24,54.59,9.57,109.17,9.57,109.17l107.18,0s20.24-25.66.46-56.75C1470.57,491.7,1386.88,496.88,1386.88,496.88Z"/><path class="cls-94" d="M1190.44,495.59c-15.49,5.81-20.32,15.82-20.32,15.82,60.64,11.77,98.15,5.12,109-8.33,12.68-15.68-1.75-43.57-1.75-43.57C1250.34,485.42,1221.87,483.8,1190.44,495.59Z"/><path class="cls-94" d="M1466.22,500.36c-31.43-11.79-69.38-9.32-96.45-35.24,0,0-14.42,27.89-1.74,43.57,10.88,13.45,58.31,20.58,119,8.81C1487,517.5,1481.71,506.17,1466.22,500.36Z"/><path class="cls-18" d="M1202.27,234.25s0-.41-.13-1.1C1202.21,233.85,1202.27,234.25,1202.27,234.25Z"/><path class="cls-15" d="M1412.59,238.72l0,0C1412.74,238.72,1413,238.68,1412.59,238.72Z"/><path class="cls-15" d="M1412.66,242h0Z"/><path class="cls-15" d="M1412.06,238.77l.16,0h0Z"/><path class="cls-101" d="M1434.43,334.71s2.88-.72,2.35-10-85-27.48-85-27.48L1152.9,411.78c-13.82,42.21-27.08,90.71-35.33,140.06a33.12,33.12,0,0,0-6.89,1.43c-18.78,6.07-29.92,28-29.76,54.19,70.06-60.74,147.44-90.8,180.71-137.63,15-21.18,134.44,4.27,159.15-5s23.3-37.69,23.3-37.69,13.26-18.07,16.28-24.68.44-17.28.44-17.28,15.06-13.16,12.61-20.63C1468.65,350.05,1434.43,334.71,1434.43,334.71Z"/><path class="cls-2" d="M1455.24,353.45c-9.51-7.61-35.77-19.78-35.77-19.78s11.8-14.46,5.71-22.83-97.41-39.57-114.15-40.33-119.48,12.17-133.17,19-152,166-152,166l68.63,104.58s5.71-.7,13.36-11.5,28.87-7.15,64.26-28.46,65.06-68.49,86-74.95,124.81,11,153,0,16-28.54,16-28.54c6.47-1.14,22.07-9.51,22.45-19.41a15.53,15.53,0,0,0-7.61-14.08C1459.05,379.33,1464.75,361.06,1455.24,353.45Z"/><path class="cls-8" d="M1455.24,353.45c-9.51-7.61-35.77-19.78-35.77-19.78s11.8-14.46,5.71-22.83-97.41-39.57-114.15-40.33c-13.83-.63-86.33,8.09-118.86,15L1309.26,273c61.38,7.61,96.9,30.95,106.54,37s2,14.71-1.53,15.22-82.18-34.5-87.26-35.52-102,5.59-102,5.59l3,6.08s89.8-4.06,96.4-3.55,118.52,47.75,124.8,57.84-2,16.74-8.62,18.26-111.11-41.6-119.74-43.63-80.66,0-80.66,0l1,10.15s70.52-.51,75.09,0,119.22,37,125.31,48.19-4.57,20.3-12.18,20.81-87.26-27.91-98.42-28.92-97.41-3.55-97.41-3.55l-2.87,8.11s181,26.89,185,30.11,5.07,7.44,0,15.05S1239.24,408,1239.24,408c-21.81,44.19-72.47,108.78-94.74,126.49a205.83,205.83,0,0,0,27.65-14.37c35.39-21.3,65.06-68.49,86-74.95s124.81,11,153,0,16-28.54,16-28.54c6.47-1.14,22.07-9.51,22.45-19.41a15.53,15.53,0,0,0-7.61-14.08C1459.05,379.33,1464.75,361.06,1455.24,353.45Z"/><path class="cls-18" d="M1207.72,581.36c-35.66-2.46-47.63-26.2-47.63-26.2s-2.64,46,43,48c56.51,2.45,67.84-46.46,67.84-46.46S1244.83,583.93,1207.72,581.36Z"/><path class="cls-18" d="M1423.93,584.91c-44.65-7.15-56.06-36.85-56.06-36.85s-4.1,52,49.65,58.21c52.74,6.09,71.46-36.56,71.46-36.56S1456.68,590.16,1423.93,584.91Z"/><path class="cls-16" d="M864.49,895.48c-37.21,75.55-97.31,121-155.24,120.46-95.47-.93-118.86-76.29-95.17-142.49,7.35-20.53,42.16-71.69,42.16-71.69s-26.4,11.89-58.53,63.23c-21.12,33.75-45.21,131.49,49.81,178.25,102.72,50.56,179.19-23.56,221.09-93.89,30.34-50.93,20.74-97,20.74-97A364,364,0,0,0,864.49,895.48Z"/></svg>