<svg id="Ñëîé_1" data-name="Ñëîé 1" xmlns="http://www.w3.org/2000/svg" xmlns:xlink="http://www.w3.org/1999/xlink" viewBox="0 0 2100 2100"><defs><style>.cls-1,.cls-113,.cls-115,.cls-120,.cls-15{fill:#fff;}.cls-2{fill:#303940;}.cls-3,.cls-98{opacity:0.11;}.cls-4{fill:#fd9477;}.cls-5{fill:url(#Áåçûìÿííûé_ãðàäèåíò_6);}.cls-6{fill:#fd9677;}.cls-7{fill:#667eb5;}.cls-8{fill:#fd8468;}.cls-9{fill:#393e3f;}.cls-10{fill:#dde5ea;}.cls-11{fill:#00263b;}.cls-11,.cls-120{opacity:0.08;}.cls-12{fill:#6d88be;}.cls-13{fill:#fb7258;}.cls-14{fill:#acb3c0;}.cls-15{opacity:0.12;}.cls-16{fill:#7c302a;}.cls-17{fill:#ff8768;}.cls-18{fill:#3e1208;}.cls-19{fill:#fd9777;}.cls-20{opacity:0.44;}.cls-21{fill:#fd9676;}.cls-22{fill:#fd9576;}.cls-23{fill:#fd9475;}.cls-24{fill:#fd9375;}.cls-25{fill:#fd9274;}.cls-26{fill:#fd9173;}.cls-27{fill:#fd9073;}.cls-28{fill:#fd8f72;}.cls-29{fill:#fd8e71;}.cls-30{fill:#fd8d71;}.cls-31{fill:#fd8c70;}.cls-32{fill:#fd8b70;}.cls-33{fill:#fd8a6f;}.cls-34{fill:#fd896e;}.cls-35{fill:#fd886e;}.cls-36{fill:#fd876d;}.cls-37{fill:#fd866c;}.cls-38{fill:#fd856c;}.cls-39{fill:#fd846b;}.cls-40{fill:#fd836b;}.cls-41{fill:#fd826a;}.cls-42{fill:#fd8169;}.cls-43{fill:#fd8069;}.cls-44{fill:#fd7f68;}.cls-45{fill:#fd7e67;}.cls-46{fill:#fd7d67;}.cls-47{fill:#fd7c66;}.cls-48{fill:#fd7b66;}.cls-49{fill:#fd7a65;}.cls-50{fill:#fd7964;}.cls-51{fill:#fd7864;}.cls-52{fill:#fd7763;}.cls-53{fill:#fd7662;}.cls-54{fill:#fd7562;}.cls-55{fill:#fd7461;}.cls-56{fill:#fd7361;}.cls-57{fill:#fd7260;}.cls-58{fill:#fd725f;}.cls-59{fill:#fd715f;}.cls-60{fill:#fd705e;}.cls-61{fill:#fd6f5e;}.cls-62{fill:#fd6e5d;}.cls-63{fill:#fd6d5c;}.cls-64{fill:#fd6c5c;}.cls-65{fill:#fd6b5b;}.cls-66{fill:#fd6a5a;}.cls-67{fill:#fd695a;}.cls-68{fill:#fd6859;}.cls-69{fill:#fd6759;}.cls-70{fill:#fd6658;}.cls-71{fill:#fd6557;}.cls-72{fill:#fd6457;}.cls-73{fill:#fd6356;}.cls-74{fill:#fd6255;}.cls-75{fill:#fd6155;}.cls-76{fill:#fd6054;}.cls-77{fill:#fd5f54;}.cls-78{fill:#fd5e53;}.cls-79{fill:#fd5d52;}.cls-80{fill:#fd5c52;}.cls-81{fill:#fd5b51;}.cls-82{fill:#fd5a50;}.cls-83{fill:#fd5950;}.cls-84{fill:#fd584f;}.cls-85{fill:#fd574f;}.cls-86{fill:#fd564e;}.cls-87{fill:#fd554d;}.cls-88{fill:#fd544d;}.cls-89{fill:#fd534c;}.cls-90{fill:#fd524b;}.cls-91{fill:#fd514b;}.cls-92{fill:#fd504a;}.cls-93{fill:#fd4f4a;}.cls-94{fill:#fd4e49;}.cls-95{fill:url(#Áåçûìÿííûé_ãðàäèåíò_57);}.cls-96{fill:#5a352c;}.cls-97{fill:url(#Áåçûìÿííûé_ãðàäèåíò_4);}.cls-98{fill:#fdba7f;}.cls-99{fill:#e3d7cd;}.cls-100{fill:#ba9e89;opacity:0.53;}.cls-101{fill:url(#Áåçûìÿííûé_ãðàäèåíò_57-2);}.cls-102{fill:url(#Áåçûìÿííûé_ãðàäèåíò_57-3);}.cls-103{fill:#43271e;}.cls-104,.cls-114{fill:#fd8368;}.cls-104{opacity:0.5;}.cls-105{fill:#472a21;}.cls-106{fill:#442121;}.cls-106,.cls-115{opacity:0.2;}.cls-107{fill:url(#Áåçûìÿííûé_ãðàäèåíò_6-2);}.cls-108{fill:#b4bdcf;}.cls-109{fill:url(#Áåçûìÿííûé_ãðàäèåíò_12);}.cls-110{fill:url(#Áåçûìÿííûé_ãðàäèåíò_12-2);}.cls-111{fill:#613f37;}.cls-112{fill:#231a1a;}.cls-113{opacity:0.82;}.cls-116{fill:url(#Áåçûìÿííûé_ãðàäèåíò_6-3);}.cls-117{fill:#667eb2;}.cls-118{fill:#6d85bb;}.cls-119{fill:url(#Áåçûìÿííûé_ãðàäèåíò_6-4);}.cls-121{fill:#899bc1;}.cls-122{fill:#f67f67;}.cls-123{fill:#9bb0d4;}</style><linearGradient id="Áåçûìÿííûé_ãðàäèåíò_6" x1="1383.11" y1="1633.99" x2="1341.68" y2="1592.55" gradientUnits="userSpaceOnUse"><stop offset="0" stop-color="#fd8268"/><stop offset="1" stop-color="#fd9677"/></linearGradient><linearGradient id="Áåçûìÿííûé_ãðàäèåíò_57" x1="1101.66" y1="154.11" x2="1087.07" y2="308.46" gradientUnits="userSpaceOnUse"><stop offset="0" stop-color="#75473b"/><stop offset="0.35" stop-color="#704438"/><stop offset="0.75" stop-color="#633c30"/><stop offset="1" stop-color="#563428"/></linearGradient><linearGradient id="Áåçûìÿííûé_ãðàäèåíò_4" x1="1040.11" y1="625.35" x2="1040.11" y2="636.26" gradientUnits="userSpaceOnUse"><stop offset="0" stop-color="#140c0a"/><stop offset="1" stop-color="#39160a"/></linearGradient><linearGradient id="Áåçûìÿííûé_ãðàäèåíò_57-2" x1="1058.9" y1="708.14" x2="1058.9" y2="526.33" xlink:href="#Áåçûìÿííûé_ãðàäèåíò_57"/><linearGradient id="Áåçûìÿííûé_ãðàäèåíò_57-3" x1="1037.54" y1="646.37" x2="1037.54" y2="580.11" xlink:href="#Áåçûìÿííûé_ãðàäèåíò_57"/><linearGradient id="Áåçûìÿííûé_ãðàäèåíò_6-2" x1="997.52" y1="755.67" x2="687.9" y2="397.07" xlink:href="#Áåçûìÿííûé_ãðàäèåíò_6"/><linearGradient id="Áåçûìÿííûé_ãðàäèåíò_12" x1="958.72" y1="478.16" x2="976.83" y2="429.88" gradientTransform="matrix(0.99, 0.03, -0.04, 1, 24.16, -15.75)" gradientUnits="userSpaceOnUse"><stop offset="0" stop-color="#704a3e"/><stop offset="1"/></linearGradient><linearGradient id="Áåçûìÿííûé_ãðàäèåíò_12-2" x1="1139.83" y1="491.04" x2="1156.32" y2="441.08" gradientTransform="matrix(1, 0, 0, 1, 0, 0)" xlink:href="#Áåçûìÿííûé_ãðàäèåíò_12"/><linearGradient id="Áåçûìÿííûé_ãðàäèåíò_6-3" x1="1699.11" y1="1617.24" x2="1488.09" y2="1406.22" xlink:href="#Áåçûìÿííûé_ãðàäèåíò_6"/><linearGradient id="Áåçûìÿííûé_ãðàäèåíò_6-4" x1="1455.58" y1="1870.29" x2="1220.91" y2="1635.63" xlink:href="#Áåçûìÿííûé_ãðàäèåíò_6"/></defs><rect class="cls-1" width="2100" height="2100"/><path class="cls-2" d="M987.37,2100c9.9-133.28,23.22-229.47,27.82-254.52-1-.06-33.69,3.56-34.7,3.42-79.66-11.13-153.5-107.37-233-119.74-7.47,66.43-11.42,204.27-8.83,370.84Z"/><path class="cls-2" d="M1331.18,2100c-4.52-175.88,7.69-347.72,8-351.17L1082,1789.35c-14.8,1.28-31,33.89-32.29,86.77-1.43,57.27,5.77,137.41,18.35,223.88Z"/><path class="cls-2" d="M751.15,1668.67c-6.5,109.55-12.28,200.48-12.28,200.48s172.09,18.61,357.84,16.94c120.71-1.09,223.73,8.74,231.59-45,7.29-49.94,12.91-109.82,17.39-172.38Z"/><path class="cls-3" d="M1010.24,1851.06c-173.54,6.41-18.84,43.62-2.35,43.79l1.25-9.42c13,.45,17.44.76,40.4.76,0,0,0,5.64,0,9C1050.08,1895,1183.39,1844.67,1010.24,1851.06Z"/><path class="cls-4" d="M1386.92,1620c-12.35-7.89-15.17-26.82-27.46-29.06s-26,3.8-26,3.8l2.65,19.67L1387.3,1629l10.46-7.73S1389,1621.33,1386.92,1620Z"/><path class="cls-5" d="M1386.92,1620c-12.35-7.89-15.17-26.82-27.46-29.06s-26,3.8-26,3.8l2.65,19.67L1387.3,1629l10.46-7.73S1389,1621.33,1386.92,1620Z"/><path class="cls-6" d="M871.17,462.76c17.7-20.6-55.92-93.11-55.92-93.11S580.36,552.53,496.16,669.3s-56.83,163.11,1.56,212.22c67,56.35,307.11,108.42,307.11,108.42L947.25,761,674.62,741.32S740.24,615.16,871.17,462.76Z"/><path class="cls-7" d="M571,849.73c-87.82,21.95-124.91-16.5-126.8-74.69-7.29,46.27,17.06,75.84,53.5,106.48,67,56.35,307.11,108.42,307.11,108.42L954,756.72c-4.14,6.49-19.43-5.32-22.16-7.41a16.88,16.88,0,0,0-21.46,1.4c-.5-4.55-6.59-5.58-11.16-5.4L882,746l-43.16,1.7c-23.75.93-47.62-1.4-71.32-4.43-11.35-1.45-23.26-5.64-34.71-5.55a46.93,46.93,0,0,1-5.93,0c-1.84-.22-3.6-.83-5.41-1.23a23.17,23.17,0,0,0-17,2.91c-1.2-4.48-6.37-6.93-11-6.62-12.84.87-16.09,15.64-21.65,25.34a290.78,290.78,0,0,1-22.89,34.24C629,817.82,603.16,841.69,571,849.73Z"/><path class="cls-8" d="M1085.14,576h0c-45.08-.77-77.87,21.81-78.38,54L990.6,776.39c-.51,32.22,45,37.17,90.11,38s82-4.59,82.47-36.81V639C1163.69,606.78,1130.22,576.8,1085.14,576Z"/><polygon class="cls-9" points="1116.28 1781.33 1166.47 1786.77 1235 1664.99 1187.04 1664.99 1116.28 1781.33"/><path class="cls-8" d="M912.45,774V884h326.83V763C1141.27,734,1007.34,734.3,912.45,774Z"/><path class="cls-10" d="M1222.74,756.88c-9.47,56.38-80.41,69.12-158,70.38-70.1,1.13-101.93-14-114.29-67.79-23.24,4-82.48,22.88-115.32,43.9v947c52.12,11.68,128.27,23.38,221.41,22.19,100-1.29,174.27-15.18,220.3-27.17V772.32a168,168,0,0,0-27.71-8.26C1240.57,761.63,1231.8,759.26,1222.74,756.88Z"/><path class="cls-7" d="M972.36,755.07c-42.07,0-125.93,34.21-151.59,59.29C765.85,868,765.2,999.71,760,1191.08c-5.61,205.36-5.67,185.36-32.21,581.57,0,0,115.31,27.23,257.3,35-19.56-284.23,39.37-908.54,43.86-954.71C1026,838.23,981.72,795.79,972.36,755.07Z"/><path class="cls-7" d="M1369.07,935.33c0-18.51,3.36-145.68-120-171.27-8.51-2.43-47.57-12.68-56.63-15.06-8.14,48.41-27.8,38.7-85.61,102.73-5.61,56.28-50.35,517.66-40.38,966.32,172.34-3.71,314.67-62.6,314.67-62.6-4.83-56.55-36.69-89.45-38.74-163.58C1336.44,1376.51,1368.7,1079.33,1369.07,935.33Z"/><path class="cls-11" d="M949.92,758h0s-21.31,95.64-.07,137.37c0,0,5.47-60.14,31.86-49.71,17.54,6.93,34.73,31.81,44.44,47.41,1.31-20.88,2.28-34.92,2.78-40.13-2.88-14.22-44.43-54.25-55.52-93.79A109.91,109.91,0,0,0,949.92,758Z"/><path class="cls-12" d="M975.34,796.06c-.46,3.28-45.17,331.44-58.08,608.59-8.58,184-5.82,323.75-3,397.48q10.32,1,21,2c-2.88-72.4-5.81-212.66,2.85-398.48,12-258.16,51.76-560.9,57.26-602-1.17-1.74-2.32-3.5-3.47-5.28Z"/><path class="cls-13" d="M1059.57,768.53c30-1.07,65.89-6.91,105.41-22a31.34,31.34,0,0,1-.76-5.95l.47-18.87c-75.46,30.23-138.32,28.9-169.4,22.29l-.73,9a25.87,25.87,0,0,1-3.11,9.8A276.7,276.7,0,0,0,1059.57,768.53Z"/><path class="cls-12" d="M1169.68,805.38,1157.05,804c-2.8,2.32-5.81,4.83-9,7.57-5.5,51.78-33.88,331.75-34.48,595.62-.43,191.12,7.28,332.5,12.67,407.43q10.5-1,20.77-2.16c-5.36-74.62-13-215.18-12.57-405.23C1135.08,1117.66,1169.33,808.47,1169.68,805.38Z"/><path class="cls-11" d="M1207.16,758a91.64,91.64,0,0,0-16.52.29c-9.14,38.42-29.87,33.85-83.8,93.59-.64,6.43-3.55,26.89-4.87,51.49,17.73-18.53,58.62-52,73.4-57.82,26.4-10.44,31.86,49.84,31.86,49.84,21.24-41.74-.06-137.39-.07-137.39Z"/><polygon class="cls-12" points="799.61 947.74 789.04 969.73 970.92 939.13 967.56 918.54 799.61 947.74"/><path class="cls-12" d="M997.64,713.79s-21.7,8-50.39,47.21-2.61,120.17-2.61,120.17S949,862,958.57,830c14.09-47.09,70.36,22.92,70.36,22.92s-5-27.61-16.47-53.42C995.07,760.31,997.64,713.79,997.64,713.79Z"/><ellipse class="cls-14" cx="971.09" cy="1270.28" rx="13.98" ry="12.39"/><ellipse class="cls-14" cx="960.48" cy="1443.81" rx="13.98" ry="12.39"/><ellipse class="cls-14" cx="956.95" cy="1616.77" rx="13.98" ry="12.39"/><ellipse class="cls-14" cx="998.02" cy="934.93" rx="13.98" ry="12.39"/><ellipse class="cls-14" cx="984.85" cy="1094.31" rx="13.98" ry="12.39"/><path class="cls-12" d="M1163.13,720.44s1.49,16.77-15.9,55.95c-11.45,25.81-36.52,44.35-40.57,77.34,0,0,77.76-70.83,91.85-23.74,9.59,32,13.93,51.18,13.93,51.18s26.09-81-2.6-120.17S1163.13,720.44,1163.13,720.44Z"/><path class="cls-15" d="M997.64,713.79s-5.49,2.09-14.52,9c-20.79,19.82-17.48,59.84-8.19,91.06,21.78-1,54,39,54,39s-5-27.61-16.47-53.42C995.07,760.31,997.64,713.79,997.64,713.79Z"/><path class="cls-15" d="M1163.13,720.44s1.49,16.77-15.9,55.95c-11.45,25.81-36.52,44.35-40.57,77.34,0,0,45-41,72.76-39.82,5.16-32.72,5.44-65.71-15.85-93.41Z"/><path class="cls-12" d="M899,745.31,882,746l-14,.55c-31.07,38.85-81.84,151.05-100,244.25-4.42,56.38-5.78,123.53-7.88,200.29-.37,13.57-.72,26.15-1.05,37.93C784,901.65,880.76,770.2,901.45,745.67Z"/><path class="cls-12" d="M781.31,1217.78a32.46,32.46,0,0,0,15.45,30.08l29.91,18.27a25.58,25.58,0,0,0,27-.23l38.87-24.66a31.47,31.47,0,0,0,14.52-24.17l9.32-122.44h-126Z"/><path class="cls-12" d="M1309.83,1100.54l-137.21-.24-6,120.4a33.44,33.44,0,0,0,13.86,29l24.79,17.82c13.27,9.54,31.82,8.93,45.36-1.49l39.2-30.14a46.55,46.55,0,0,0,18.43-36Z"/><path class="cls-16" d="M1115.51,584.16a.83.83,0,0,0,0-.17S1115.49,584.06,1115.51,584.16Z"/><path class="cls-17" d="M873.82,466.28c-21.09,6.81-30.72,37.49-21.52,68.54s33.77,50.69,54.85,43.88,30.72-37.49,21.52-68.54S894.91,459.47,873.82,466.28Z"/><path class="cls-18" d="M985.79,180.82s0-.35-.11-.94C985.74,180.49,985.79,180.82,985.79,180.82Z"/><path class="cls-6" d="M1242.18,504.29c.66-75.41-9.83-170.84-24.87-227.08-11.47-73.08-217.28-108.74-278.52-8.81-19.6,46.4-51.55,133-62.5,219.16,0-.93,0-1.48,0-1.48S819,715,1022.88,730.43s227.24-92.06,219.32-226.16Z"/><ellipse class="cls-19" cx="1267.41" cy="523.15" rx="58.65" ry="40.1" transform="matrix(0.3, -0.95, 0.95, 0.3, 387.04, 1574.32)"/><path class="cls-8" d="M1288.06,540.17c-17.08,10.76-35,9.41-49.48,1.11v65.24a292.87,292.87,0,0,0,3.85-31.08,27.76,27.76,0,0,0,6.15,3.23c20.81,7.62,46.11-11.06,56.51-41.73a82.84,82.84,0,0,0,4.37-23.36A51.54,51.54,0,0,1,1288.06,540.17Z"/><path class="cls-8" d="M1251.37,523.17l19.07,2.86c0-30.11,22.43-40,22.43-40C1256.7,472.72,1251.37,523.17,1251.37,523.17Z"/><path class="cls-16" d="M1126.24,579a.83.83,0,0,0,0-.17S1126.22,578.87,1126.24,579Z"/><g class="cls-20"><circle class="cls-19" cx="1137.41" cy="542.51" r="81.28" transform="translate(-120.81 612.54) rotate(-28.69)"/><circle class="cls-21" cx="1137.41" cy="542.51" r="80.73" transform="translate(-50.48 963.17) rotate(-45)"/><circle class="cls-22" cx="1137.41" cy="542.51" r="80.18" transform="translate(-50.48 963.17) rotate(-45)"/><circle class="cls-23" cx="1137.41" cy="542.51" r="79.63" transform="translate(-50.48 963.17) rotate(-45)"/><circle class="cls-24" cx="1137.41" cy="542.51" r="79.08" transform="translate(-118.53 645.64) rotate(-30.19)"/><circle class="cls-25" cx="1137.41" cy="542.51" r="78.54" transform="translate(-103.72 760.72) rotate(-35.47)"/><circle class="cls-26" cx="1137.41" cy="542.51" r="77.99" transform="translate(-50.48 963.17) rotate(-45)"/><circle class="cls-27" cx="1137.41" cy="542.51" r="77.44" transform="translate(-122.65 559.16) rotate(-26.26)"/><circle class="cls-28" cx="1137.41" cy="542.51" r="76.89" transform="translate(-50.48 963.17) rotate(-45)"/><circle class="cls-29" cx="1137.41" cy="542.51" r="76.34" transform="translate(-50.48 963.17) rotate(-45)"/><circle class="cls-30" cx="1137.41" cy="542.51" r="75.79" transform="translate(-122.73 534.27) rotate(-25.13)"/><circle class="cls-31" cx="1137.41" cy="542.51" r="75.24" transform="translate(-50.48 963.17) rotate(-45)"/><circle class="cls-32" cx="1137.41" cy="542.51" r="74.69" transform="translate(-108.45 731.88) rotate(-34.14)"/><circle class="cls-33" cx="1137.41" cy="542.51" r="74.14" transform="translate(-50.48 963.17) rotate(-45)"/><circle class="cls-34" cx="1137.41" cy="542.51" r="73.59" transform="translate(-50.48 963.17) rotate(-45)"/><circle class="cls-35" cx="1137.41" cy="542.51" r="73.04" transform="translate(-112.47 703.18) rotate(-32.82)"/><circle class="cls-36" cx="1137.41" cy="542.51" r="72.49" transform="translate(-50.48 963.17) rotate(-45)"/><circle class="cls-37" cx="1137.41" cy="542.51" r="71.94" transform="translate(-50.48 963.17) rotate(-45)"/><circle class="cls-38" cx="1137.41" cy="542.51" r="71.4" transform="translate(-50.48 963.17) rotate(-45)"/><circle class="cls-39" cx="1137.41" cy="542.51" r="70.85" transform="translate(-50.48 963.17) rotate(-45)"/><circle class="cls-40" cx="1137.41" cy="542.51" r="70.3" transform="translate(-50.48 963.17) rotate(-45)"/><circle class="cls-41" cx="1137.41" cy="542.51" r="69.75" transform="translate(-50.48 963.17) rotate(-45)"/><circle class="cls-42" cx="1137.41" cy="542.51" r="69.2" transform="translate(-50.48 963.17) rotate(-45)"/><circle class="cls-43" cx="1137.41" cy="542.51" r="68.65" transform="translate(-112.52 702.84) rotate(-32.81)"/><circle class="cls-44" cx="1137.41" cy="542.51" r="68.1" transform="translate(-50.48 963.17) rotate(-45)"/><circle class="cls-45" cx="1137.41" cy="542.51" r="67.55" transform="translate(-50.48 963.17) rotate(-45)"/><circle class="cls-46" cx="1137.41" cy="542.51" r="67" transform="translate(-50.48 963.17) rotate(-45)"/><circle class="cls-47" cx="1137.41" cy="542.51" r="66.45" transform="translate(-97.67 792.71) rotate(-36.95)"/><circle class="cls-48" cx="1137.41" cy="542.51" r="65.9" transform="translate(374.32 1545.36) rotate(-78.23)"/><circle class="cls-49" cx="1137.41" cy="542.51" r="65.35" transform="translate(-50.48 963.17) rotate(-45)"/><circle class="cls-50" cx="1137.41" cy="542.51" r="64.81" transform="translate(-100.42 778.75) rotate(-36.3)"/><circle class="cls-51" cx="1137.41" cy="542.51" r="64.26" transform="translate(-50.48 963.17) rotate(-45)"/><circle class="cls-52" cx="1137.41" cy="542.51" r="63.71" transform="translate(-50.48 963.17) rotate(-45)"/><circle class="cls-53" cx="1137.41" cy="542.51" r="63.16" transform="translate(97.35 1254.06) rotate(-59.88)"/><circle class="cls-54" cx="1137.41" cy="542.51" r="62.61" transform="translate(-105.77 748.7) rotate(-34.92)"/><circle class="cls-55" cx="1137.41" cy="542.51" r="62.06" transform="translate(-50.48 963.17) rotate(-45)"/><circle class="cls-56" cx="1137.41" cy="542.51" r="61.51" transform="translate(-20.18 44.52) rotate(-2.22)"/><circle class="cls-57" cx="1137.41" cy="542.51" r="60.96" transform="translate(-109.76 723.06) rotate(-33.74)"/><circle class="cls-58" cx="1137.41" cy="542.51" r="60.41" transform="translate(-50.48 963.17) rotate(-45)"/><circle class="cls-59" cx="1137.41" cy="542.51" r="59.86" transform="translate(-50.48 963.17) rotate(-45)"/><circle class="cls-60" cx="1137.41" cy="542.51" r="59.31" transform="translate(-40.97 95.92) rotate(-4.74)"/><circle class="cls-61" cx="1137.41" cy="542.51" r="58.76" transform="translate(30.32 1144.48) rotate(-54.03)"/><circle class="cls-62" cx="1137.41" cy="542.51" r="58.21" transform="translate(-50.48 963.17) rotate(-45)"/><circle class="cls-63" cx="1137.41" cy="542.51" r="57.67" transform="translate(267.7 1454.45) rotate(-71.86)"/><circle class="cls-64" cx="1137.41" cy="542.51" r="57.12" transform="translate(-105.84 336.69) rotate(-16.1)"/><circle class="cls-65" cx="1137.41" cy="542.51" r="56.57" transform="translate(-50.48 963.17) rotate(-45)"/><circle class="cls-66" cx="1137.41" cy="542.51" r="56.02" transform="translate(501.07 1630.21) rotate(-85.17)"/><circle class="cls-67" cx="1137.41" cy="542.51" r="55.47" transform="translate(42.59 1166.53) rotate(-55.18)"/><circle class="cls-68" cx="1137.41" cy="542.51" r="54.92" transform="translate(-122.72 551.56) rotate(-25.91)"/><circle class="cls-69" cx="1137.41" cy="542.51" r="54.37" transform="translate(132.15 1302.43) rotate(-62.59)"/><circle class="cls-70" cx="1137.41" cy="542.51" r="53.82" transform="translate(391.26 1558.03) rotate(-79.19)"/><circle class="cls-71" cx="1137.41" cy="542.51" r="53.27" transform="translate(519.64 1640.86) rotate(-86.14)"/><circle class="cls-72" cx="1137.41" cy="542.51" r="52.72" transform="translate(160.21 1338.19) rotate(-64.65)"/><circle class="cls-73" cx="1137.41" cy="542.51" r="52.17" transform="translate(99.1 1256.61) rotate(-60.02)"/><circle class="cls-74" cx="1137.41" cy="542.51" r="51.62" transform="translate(573.46 1669.45) rotate(-88.92)"/><circle class="cls-75" cx="1137.41" cy="542.51" r="51.08" transform="translate(341.98 1519.91) rotate(-76.36)"/><circle class="cls-76" cx="1137.41" cy="542.51" r="50.53" transform="translate(220.34 1406.81) rotate(-68.8)"/><circle class="cls-77" cx="1137.41" cy="542.51" r="49.98" transform="translate(247.94 1435.18) rotate(-70.6)"/><circle class="cls-78" cx="1137.41" cy="542.51" r="49.43" transform="translate(-83.95 232.18) rotate(-11.24)"/><circle class="cls-79" cx="1137.41" cy="542.51" r="48.88" transform="translate(-54.46 133.27) rotate(-6.55)"/><circle class="cls-80" cx="1137.41" cy="542.51" r="48.33" transform="translate(411.39 1572.52) rotate(-80.32)"/><circle class="cls-81" cx="1137.41" cy="542.51" r="47.78" transform="translate(263.48 1450.4) rotate(-71.59)"/><circle class="cls-82" cx="1137.41" cy="542.51" r="47.23" transform="translate(-92.62 268.55) rotate(-12.94)"/><circle class="cls-83" cx="1137.41" cy="542.51" r="46.68" transform="translate(-82.65 227.13) rotate(-11.01)"/><circle class="cls-84" cx="1137.41" cy="542.51" r="46.13" transform="translate(418.43 1577.44) rotate(-80.71)"/><circle class="cls-85" cx="1137.41" cy="542.51" r="45.58" transform="translate(-97.96 293.77) rotate(-14.12)"/><circle class="cls-86" cx="1137.41" cy="542.51" r="45.03" transform="translate(-98.25 295.19) rotate(-14.18)"/><circle class="cls-87" cx="1137.41" cy="542.51" r="44.48" transform="translate(432.56 1587.12) rotate(-81.49)"/><circle class="cls-88" cx="1137.41" cy="542.51" r="43.94" transform="translate(-42.52 100.04) rotate(-4.94)"/><circle class="cls-89" cx="1137.41" cy="542.51" r="43.39" transform="translate(-10.89 23.45) rotate(-1.18)"/><circle class="cls-90" cx="1137.41" cy="542.51" r="42.84" transform="translate(-122.75 538.83) rotate(-25.33)"/><circle class="cls-91" cx="1137.41" cy="542.51" r="42.29" transform="translate(-15.2 33.08) rotate(-1.66)"/><circle class="cls-92" cx="1137.41" cy="542.51" r="41.74" transform="translate(-76.55 204.4) rotate(-9.94)"/><circle class="cls-93" cx="1137.41" cy="542.51" r="41.19" transform="translate(-72.71 190.9) rotate(-9.3)"/><circle class="cls-94" cx="1137.41" cy="542.51" r="40.64" transform="translate(-118.81 442.87) rotate(-20.96)"/></g><g class="cls-20"><ellipse class="cls-19" cx="950.73" cy="537.98" rx="81.28" ry="74.62" transform="translate(379.9 1469.36) rotate(-88)"/><ellipse class="cls-21" cx="950.73" cy="537.98" rx="80.73" ry="74.12" transform="translate(379.9 1469.36) rotate(-88)"/><ellipse class="cls-22" cx="950.73" cy="537.98" rx="80.18" ry="73.61" transform="translate(379.89 1469.36) rotate(-88)"/><ellipse class="cls-23" cx="950.73" cy="537.98" rx="79.63" ry="73.11" transform="matrix(0.03, -1, 1, 0.03, 379.9, 1469.36)"/><ellipse class="cls-24" cx="950.73" cy="537.98" rx="79.08" ry="72.61" transform="translate(379.9 1469.36) rotate(-88)"/><ellipse class="cls-25" cx="950.73" cy="537.98" rx="78.54" ry="72.1" transform="matrix(0.03, -1, 1, 0.03, 379.89, 1469.36)"/><ellipse class="cls-26" cx="950.73" cy="537.98" rx="77.99" ry="71.6" transform="translate(379.9 1469.36) rotate(-88)"/><ellipse class="cls-27" cx="950.73" cy="537.98" rx="77.44" ry="71.09" transform="translate(379.9 1469.36) rotate(-88)"/><ellipse class="cls-28" cx="950.73" cy="537.98" rx="76.89" ry="70.59" transform="matrix(0.03, -1, 1, 0.03, 379.9, 1469.36)"/><ellipse class="cls-29" cx="950.73" cy="537.98" rx="76.34" ry="70.08" transform="translate(379.89 1469.36) rotate(-88)"/><ellipse class="cls-30" cx="950.73" cy="537.98" rx="75.79" ry="69.58" transform="translate(379.9 1469.36) rotate(-88)"/><ellipse class="cls-31" cx="950.73" cy="537.98" rx="75.24" ry="69.08" transform="translate(379.89 1469.36) rotate(-88)"/><ellipse class="cls-32" cx="950.73" cy="537.98" rx="74.69" ry="68.57" transform="translate(379.89 1469.36) rotate(-88)"/><ellipse class="cls-33" cx="950.73" cy="537.98" rx="74.14" ry="68.07" transform="translate(379.9 1469.36) rotate(-88)"/><ellipse class="cls-34" cx="950.73" cy="537.98" rx="73.59" ry="67.56" transform="translate(379.9 1469.36) rotate(-88)"/><ellipse class="cls-35" cx="950.73" cy="537.98" rx="73.04" ry="67.06" transform="translate(379.9 1469.36) rotate(-88)"/><ellipse class="cls-36" cx="950.73" cy="537.98" rx="72.49" ry="66.56" transform="translate(379.89 1469.36) rotate(-88)"/><ellipse class="cls-37" cx="950.73" cy="537.98" rx="71.94" ry="66.05" transform="translate(379.89 1469.36) rotate(-88)"/><ellipse class="cls-38" cx="950.73" cy="537.98" rx="71.4" ry="65.55" transform="translate(379.9 1469.36) rotate(-88)"/><ellipse class="cls-39" cx="950.73" cy="537.98" rx="70.85" ry="65.04" transform="matrix(0.03, -1, 1, 0.03, 379.89, 1469.36)"/><ellipse class="cls-40" cx="950.73" cy="537.98" rx="70.3" ry="64.54" transform="translate(379.9 1469.36) rotate(-88)"/><ellipse class="cls-41" cx="950.73" cy="537.98" rx="69.75" ry="64.03" transform="translate(379.89 1469.36) rotate(-88)"/><ellipse class="cls-42" cx="950.73" cy="537.98" rx="69.2" ry="63.53" transform="translate(379.89 1469.36) rotate(-88)"/><ellipse class="cls-43" cx="950.73" cy="537.98" rx="68.65" ry="63.03" transform="translate(379.89 1469.36) rotate(-88)"/><ellipse class="cls-44" cx="950.73" cy="537.98" rx="68.1" ry="62.52" transform="translate(379.9 1469.36) rotate(-88)"/><ellipse class="cls-45" cx="950.73" cy="537.98" rx="67.55" ry="62.02" transform="translate(379.9 1469.36) rotate(-88)"/><ellipse class="cls-46" cx="950.73" cy="537.98" rx="67" ry="61.51" transform="translate(379.89 1469.36) rotate(-88)"/><ellipse class="cls-47" cx="950.73" cy="537.98" rx="66.45" ry="61.01" transform="matrix(0.03, -1, 1, 0.03, 379.89, 1469.36)"/><ellipse class="cls-48" cx="950.73" cy="537.98" rx="65.9" ry="60.5" transform="translate(379.89 1469.36) rotate(-88)"/><ellipse class="cls-49" cx="950.73" cy="537.98" rx="65.35" ry="60" transform="translate(379.88 1469.35) rotate(-88)"/><ellipse class="cls-50" cx="950.73" cy="537.98" rx="64.81" ry="59.5" transform="translate(379.89 1469.36) rotate(-88)"/><ellipse class="cls-51" cx="950.73" cy="537.98" rx="64.26" ry="58.99" transform="translate(379.89 1469.36) rotate(-88)"/><ellipse class="cls-52" cx="950.73" cy="537.98" rx="63.71" ry="58.49" transform="translate(379.89 1469.36) rotate(-88)"/><ellipse class="cls-53" cx="950.73" cy="537.98" rx="63.16" ry="57.98" transform="translate(379.89 1469.36) rotate(-88)"/><ellipse class="cls-54" cx="950.73" cy="537.98" rx="62.61" ry="57.48" transform="matrix(0.03, -1, 1, 0.03, 379.89, 1469.35)"/><ellipse class="cls-55" cx="950.73" cy="537.98" rx="62.06" ry="56.98" transform="translate(379.89 1469.36) rotate(-88)"/><ellipse class="cls-56" cx="950.73" cy="537.98" rx="61.51" ry="56.47" transform="translate(379.89 1469.36) rotate(-88)"/><ellipse class="cls-57" cx="950.73" cy="537.98" rx="60.96" ry="55.97" transform="translate(379.89 1469.35) rotate(-88)"/><ellipse class="cls-58" cx="950.73" cy="537.98" rx="60.41" ry="55.46" transform="translate(379.89 1469.36) rotate(-88)"/><ellipse class="cls-59" cx="950.73" cy="537.98" rx="59.86" ry="54.96" transform="translate(379.89 1469.36) rotate(-88)"/><ellipse class="cls-60" cx="950.73" cy="537.98" rx="59.31" ry="54.45" transform="translate(379.88 1469.35) rotate(-88)"/><ellipse class="cls-61" cx="950.73" cy="537.98" rx="58.76" ry="53.95" transform="translate(379.88 1469.35) rotate(-88)"/><ellipse class="cls-62" cx="950.73" cy="537.98" rx="58.21" ry="53.45" transform="translate(379.89 1469.36) rotate(-88)"/><ellipse class="cls-63" cx="950.73" cy="537.98" rx="57.67" ry="52.94" transform="translate(379.89 1469.36) rotate(-88)"/><ellipse class="cls-64" cx="950.73" cy="537.98" rx="57.12" ry="52.44" transform="translate(379.89 1469.35) rotate(-88)"/><ellipse class="cls-65" cx="950.73" cy="537.98" rx="56.57" ry="51.93" transform="translate(379.88 1469.35) rotate(-88)"/><ellipse class="cls-66" cx="950.73" cy="537.98" rx="56.02" ry="51.43" transform="translate(379.89 1469.36) rotate(-88)"/><ellipse class="cls-67" cx="950.73" cy="537.98" rx="55.47" ry="50.92" transform="translate(379.88 1469.35) rotate(-88)"/><ellipse class="cls-68" cx="950.73" cy="537.98" rx="54.92" ry="50.42" transform="translate(379.89 1469.36) rotate(-88)"/><ellipse class="cls-69" cx="950.73" cy="537.98" rx="54.37" ry="49.92" transform="translate(379.89 1469.36) rotate(-88)"/><ellipse class="cls-70" cx="950.73" cy="537.98" rx="53.82" ry="49.41" transform="translate(379.88 1469.35) rotate(-88)"/><ellipse class="cls-71" cx="950.73" cy="537.98" rx="53.27" ry="48.91" transform="translate(379.88 1469.35) rotate(-88)"/><ellipse class="cls-72" cx="950.73" cy="537.98" rx="52.72" ry="48.4" transform="translate(379.88 1469.35) rotate(-88)"/><ellipse class="cls-73" cx="950.73" cy="537.98" rx="52.17" ry="47.9" transform="matrix(0.03, -1, 1, 0.03, 379.88, 1469.35)"/><ellipse class="cls-74" cx="950.73" cy="537.98" rx="51.62" ry="47.4" transform="translate(379.88 1469.35) rotate(-88)"/><ellipse class="cls-75" cx="950.73" cy="537.98" rx="51.08" ry="46.89" transform="translate(379.88 1469.35) rotate(-88)"/><ellipse class="cls-76" cx="950.73" cy="537.98" rx="50.53" ry="46.39" transform="translate(379.88 1469.35) rotate(-88)"/><ellipse class="cls-77" cx="950.73" cy="537.98" rx="49.98" ry="45.88" transform="translate(379.87 1469.35) rotate(-88)"/><ellipse class="cls-78" cx="950.73" cy="537.98" rx="49.43" ry="45.38" transform="matrix(0.03, -1, 1, 0.03, 379.88, 1469.35)"/><ellipse class="cls-79" cx="950.73" cy="537.98" rx="48.88" ry="44.87" transform="translate(379.88 1469.35) rotate(-88)"/><ellipse class="cls-80" cx="950.73" cy="537.98" rx="48.33" ry="44.37" transform="translate(379.87 1469.35) rotate(-88)"/><ellipse class="cls-81" cx="950.73" cy="537.98" rx="47.78" ry="43.87" transform="translate(379.88 1469.35) rotate(-88)"/><ellipse class="cls-82" cx="950.73" cy="537.98" rx="47.23" ry="43.36" transform="translate(379.87 1469.35) rotate(-88)"/><ellipse class="cls-83" cx="950.73" cy="537.98" rx="46.68" ry="42.86" transform="matrix(0.03, -1, 1, 0.03, 379.88, 1469.35)"/><ellipse class="cls-84" cx="950.73" cy="537.98" rx="46.13" ry="42.35" transform="translate(379.87 1469.34) rotate(-88)"/><path class="cls-85" d="M952.32,492.43c-23.09-.81-42.53,18.93-43.41,44.09s17.13,46.21,40.23,47,42.54-18.94,43.42-44.1S975.42,493.23,952.32,492.43Z"/><ellipse class="cls-86" cx="950.73" cy="537.98" rx="45.03" ry="41.34" transform="matrix(0.03, -1, 1, 0.03, 379.88, 1469.35)"/><ellipse class="cls-87" cx="950.73" cy="537.98" rx="44.48" ry="40.84" transform="translate(379.87 1469.34) rotate(-88)"/><ellipse class="cls-88" cx="950.73" cy="537.98" rx="43.94" ry="40.34" transform="translate(379.87 1469.35) rotate(-88)"/><ellipse class="cls-89" cx="950.73" cy="537.98" rx="43.39" ry="39.83" transform="translate(379.87 1469.35) rotate(-88)"/><ellipse class="cls-90" cx="950.73" cy="537.98" rx="42.84" ry="39.33" transform="translate(379.87 1469.35) rotate(-88)"/><ellipse class="cls-91" cx="950.73" cy="537.98" rx="42.29" ry="38.82" transform="translate(379.86 1469.34) rotate(-88)"/><ellipse class="cls-92" cx="950.73" cy="537.98" rx="41.74" ry="38.32" transform="translate(379.87 1469.35) rotate(-88)"/><ellipse class="cls-93" cx="950.73" cy="537.98" rx="41.19" ry="37.82" transform="translate(379.88 1469.35) rotate(-88)"/><path class="cls-94" d="M952.15,497.37c-20.59-.72-37.92,16.88-38.71,39.31s15.28,41.2,35.87,41.92,37.93-16.88,38.71-39.31S972.75,498.09,952.15,497.37Z"/></g><path class="cls-95" d="M1267.92,199.62c-12.51-22.15-34.4-23.22-52.61-19.1,6.24-8.8,4-16.64,4-16.64-12,1.79-14.89,7.46-14.89,7.46,8.74-15.75,2.9-37.31,2.9-37.31-23.54,13.31-21.32,32.06-21.32,32.06-11.36-24.15-46.73-31.82-46.73-31.82a37.2,37.2,0,0,0,2.12,10.18C1083.36,105.57,997.75,102,997.75,102c.3,6.64,3.1,13.35,6,18.63a555.19,555.19,0,0,0-84.92,2.93c-10.69,56.76,5.06,90.54,22.42,109.85-63.38,73.33-49,187.69-49,187.69,13-69.58,57-155.73,90.27-157.26,0,0,28.76,23.81,72,24.93,38.71,1,92.54-26.88,92.54-26.88,38.63-.68,82.13,119.11,86.75,215.48,1.06,22,20.35-3.29,20.35-3.29s2.09-24,.7-58.51C1255,415,1300.77,257.79,1267.92,199.62Z"/><path class="cls-96" d="M924.1,205.92c-62.2,18.54-45.6,266-45.6,266,13-69.59,70.71-206.59,104-208.12C982.5,263.82,951.79,245.27,924.1,205.92Z"/><path class="cls-15" d="M1165.83,190.77l0,0C1166,190.78,1166.19,190.75,1165.83,190.77Z"/><path class="cls-15" d="M1165.85,195h0Z"/><path class="cls-97" d="M973.29,605.08s-15.23,24.29-7.4,35.67c10.74,15.6,40.87-6.39,72.76-6.69,36.2-.34,66.38,20.47,73.34,12.36,9.93-11.55,1.3-32.08-3.65-36.54s-54.74-26.43-77.73-25.06S973.29,605.08,973.29,605.08Z"/><path class="cls-98" d="M1244,180.3c-7.62,1.17-15.66,3-24,4.85-19.78,4.4-40.6,7.3-60.83,4.47-23.52-3.29-44.11-13.93-65-24.6-10.52-5.4-21-10.88-31.86-15.6-23.22-10.11-50.62-20-76.3-19.35-12.71.35-25.19,4.15-36.9,8.88a79.48,79.48,0,0,0-26.41,17.44,73.87,73.87,0,0,0-7.19,8.32A131.43,131.43,0,0,0,918.53,188c.8-.65,1.64-1.32,2.53-2a79.23,79.23,0,0,1,15.77-8.87,69.89,69.89,0,0,1,21.06-5.21c30.56-2.18,58.85,10.24,86.36,21.78,11.27,4.73,22.72,10.22,34.84,15.33a376.92,376.92,0,0,0,37.86,14.3c22.21,6.91,49.36,9.13,72,3,3.06-.83,6.1-1.53,9-2.41A205,205,0,0,0,1228.82,211c8.86-4.49,16.44-8.6,23.12-11.69a85.53,85.53,0,0,1,12.53-4.93A37.7,37.7,0,0,0,1244,180.3Z"/><path class="cls-99" d="M979.17,601.1s-1,7.13,7.46,9.46,97.74,3.59,104.38.4,7.17-15.34,7.17-15.34l-62.21-15Z"/><path class="cls-100" d="M1036,580.59l-56.8,20.51s-1,7.13,7.46,9.46a50,50,0,0,0,7.39.88,5.47,5.47,0,0,1,2-1.47c22.6-10,53.48-13,74.42,2.61l.08.07c10.77-.28,18.73-.82,20.54-1.69,6.63-3.19,7.17-15.34,7.17-15.34Z"/><path class="cls-15" d="M1165.38,190.8h0Z"/><path class="cls-101" d="M1233.64,473.92c-10.66,106.26-118.44,119.69-119.45,118,33,30.8,6,83.38-27.11,68.95-11.21-4.88-22.44-16.24-46.59-16.82-25.1-.6-38.79,10.49-45.42,14.17-27.13,15.09-67.13-20.31-27.13-73,0,0-36.71-7.82-47.92-14-21.35-11.81-31.86-36-37-58.79a185.68,185.68,0,0,1-4.11-28.54,139.36,139.36,0,0,1,.24-15.31l-.8-.18c-25.82,104.07-42.46,290.7,174.36,288.44,218.35-2.27,192.15-184.24,192.15-184.24-10.27-36.85,9.33-98.58,9.33-98.58Z"/><path class="cls-102" d="M1030.31,545.29S1009.44,535,971.8,556.82c-28.8,16.7-43.86,56.06-43.86,56.06s39.88,4.9,106.84-18.57c67.53,30.62,112.36,20.85,112.36,20.85S1120.27,533.64,1030.31,545.29Z"/><path class="cls-103" d="M980.56,552.17l.77.74c17.48,16.33,41.79,20.43,64.85,17,10.5-1.58,20.93-4.58,29.75-10.64a40.6,40.6,0,0,0,8.86-8.6c-14.84-5.55-32.83-8.15-54.48-5.35a37.27,37.27,0,0,0-9-2.15C1013,542.26,999.24,543.12,980.56,552.17Z"/><path class="cls-3" d="M1039.75,668.32c-14.2-.08-25.75,6.72-25.8,15.18s11.43,15.39,25.63,15.47,25.75-6.72,25.8-15.18S1054,668.4,1039.75,668.32Z"/><path class="cls-104" d="M1061.49,360.6c-5-1.21-17.32,32.09-16.56,48.33,0,0-6.14-32.49-10.07-31.63s1.49,43.64,8.8,46.93S1066.5,361.81,1061.49,360.6Z"/><path class="cls-104" d="M924.23,425.46C912.35,451.77,915,473,915,473s26.46,10.54,37.76,11.52c10.72.93,47.84,0,47.84,0,27.4-46.75,19-95.11,19-95.11C995,381.53,924.23,425.46,924.23,425.46Z"/><path class="cls-104" d="M1109.63,409.83l-20.71-31.65c-20.17,45.85,10.57,105.75,10.57,105.75l90.47-9s7.76-32.54-2.82-54.06C1175.8,397.78,1109.63,409.83,1109.63,409.83Z"/><path class="cls-105" d="M940.82,404.38c-13,4.88-17.08,13.29-17.08,13.29,50.94,9.89,82.45,4.3,91.59-7,10.65-13.17-.85-35.31-.85-35.31C991.74,397.12,967.22,394.48,940.82,404.38Z"/><path class="cls-105" d="M1168.68,393.71c-25.27-15.81-57.89,1-79.36-34,0,0-12.57,23.14-1.62,37.3,20.92,27.08,80.68,10.48,97.54,20.37C1185.24,417.4,1180.83,401.32,1168.68,393.71Z"/><path class="cls-18" d="M950.75,198.29s0-.34-.11-.92Z"/><path class="cls-15" d="M1127.42,202.05l0,0C1127.55,202.05,1127.78,202,1127.42,202.05Z"/><path class="cls-15" d="M1127.48,205h0Z"/><path class="cls-15" d="M1127,202.09h0Z"/><path class="cls-106" d="M1145.77,282.69l-48.42-24.12s68.6-11.35,65-28.7c-4.64-22.31-93-18.17-93-18.17L1052,236.91,909.28,347.42c-11.6,35.46-22.74,76.2-29.67,117.65a27.76,27.76,0,0,0-5.79,1.21c-15.78,5.09-25.14,23.55-25,45.52,58.85-51,123.85-76.28,151.8-115.61,12.64-17.8,112.93,3.58,133.68-4.19s19.57-31.66,19.57-31.66,11.14-15.17,13.68-20.73.37-14.52.37-14.52,12.65-11,10.59-17.32C1174.51,295.57,1145.77,282.69,1145.77,282.69Z"/><path class="cls-6" d="M1163.25,298.43c-5.28-4.22-16.68-10.11-23.82-13.63h0c-1.71-.95-7.36-3.78-14.91-7.51-14.2-7.34-43-22-64.81-31.7,34.36-2.32,90.2-4.09,91.35-19.73,1.2-16.3-57.56-15.31-94.87-13.51S932.78,244,932.78,244h0a5.6,5.6,0,0,0-2.53.84c-11.51,5.75-127.64,139.35-127.64,139.35L860.25,472s4.79-.6,11.23-9.67,24.25-6,54-23.91,54.66-57.54,72.24-63,104.83,9.27,128.48,0,13.43-24,13.43-24c5.43-1,18.54-8,18.86-16.3a13.06,13.06,0,0,0-6.4-11.83C1166.45,320.16,1171.24,304.82,1163.25,298.43Z"/><path class="cls-107" d="M1163.25,298.43c-5.28-4.22-16.68-10.11-23.82-13.63h0c-1.71-.95-7.36-3.78-14.91-7.51-14.2-7.34-43-22-64.81-31.7,34.36-2.32,90.2-4.09,91.35-19.73,1.2-16.3-57.56-15.42-94.87-13.61s-123.41,31.54-123.41,31.54h0a16.58,16.58,0,0,0-2.53.94c-9.16,4.58-84.58,90.16-115,124.92,0,0-234.89,182.88-319.09,299.65C429.27,762,432.79,810.36,466.33,850.93a63.15,63.15,0,0,0,19,10.71c9,3.12,18.35,4.41,27.77,5.36,21.31,2.16,43.24,2.09,63.64-5.23,16.68-6,30-17.88,43.18-29.32,14.39-12.49,28.78-25.24,39.63-41.05a201.92,201.92,0,0,0,14.9-25.93c2.39-4.9,4.61-9.87,7-14.75a46.62,46.62,0,0,0,3.53-8.65l-10.34-.75S738.8,617.94,866.86,467.81a38.59,38.59,0,0,0,4.26-5l0-.06a10.37,10.37,0,0,0,.81-1.07c6.81-8.29,24.48-5.81,53.47-23.27,29.73-17.9,54.66-57.53,72.24-63s104.83,9.27,128.48,0,13.43-24,13.43-24c5.43-1,18.54-8,18.86-16.31a13,13,0,0,0-6.4-11.82C1166.45,320.16,1171.24,304.82,1163.25,298.43Zm-195.44,57.1c-9,41.61-67.43,87.21-94.66,93.1,0,0-182.78,203.07-233.14,293.94s-197.43,46.25-139.88-58.92S817.49,375.36,817.49,375.36,918.67,249.81,936.16,248.92C945.07,248.46,976.86,313.92,967.81,355.53Z"/><path class="cls-108" d="M667,753.73c-31.25,63.46-81.74,101.66-130.41,101.18-80.19-.78-99.84-64.08-79.93-119.69C462.85,718,492.09,675,492.09,675s-22.17,10-49.16,53.11c-17.75,28.35-42.12,113.77,37.69,153,86.29,42.46,154.66-23.12,189.86-82.19C696,756.2,687.9,717.54,687.9,717.54A304.74,304.74,0,0,0,667,753.73Z"/><path class="cls-1" d="M1150,444.06c-38.62-3.3-52.26,36.3-52.26,36.3s7.48,10.17,48.06,10.19c44.35,0,44.15-16.15,44.15-16.15S1188.58,447.36,1150,444.06Z"/><path class="cls-1" d="M915.13,472.4S910.6,488.34,952.67,490c44.15,1.73,48-5.45,48-5.45S958.46,405.79,915.13,472.4Z"/><path class="cls-109" d="M973.54,455.54c-9.2-3-20.52,6.52-25.28,21.34a40.67,40.67,0,0,0-2,12.72c2,.16,4.13.3,6.4.39a239.65,239.65,0,0,0,28.17-.27c.24-.62.52-1.21.73-1.87C986.33,473,982.74,458.57,973.54,455.54Z"/><path class="cls-110" d="M1145.76,490.55c4.89,0,9.24-.19,13.11-.54.13-.4.27-.8.39-1.21,4.76-16.43,1.16-32.48-8-35.84s-20.52,7.22-25.28,23.65a55.84,55.84,0,0,0-1.81,12.75A176.37,176.37,0,0,0,1145.76,490.55Z"/><path class="cls-111" d="M956.88,439.18c-31.77-1.21-41.75,33.22-41.75,33.22s15.89-18.46,40.5-18.81c27-.37,45,31,45,31S999.81,440.81,956.88,439.18Z"/><path class="cls-111" d="M1144.53,433.86c-43.33-2.41-46.83,46.5-46.83,46.5s10.52-34.27,48.06-31.65c37.76,2.64,44.15,25.69,44.15,25.69S1186,436.18,1144.53,433.86Z"/><ellipse class="cls-112" cx="965.69" cy="478.43" rx="10.19" ry="8.55" transform="translate(147.77 1180.19) rotate(-66.98)"/><path class="cls-112" d="M1152.32,478.14c-.47,5.5-4.78,10.08-9.63,10.24s-8.39-4.16-7.92-9.66,4.79-10.08,9.63-10.24S1152.8,472.65,1152.32,478.14Z"/><path class="cls-113" d="M957.07,469.92c-5,2.08-8.49,6.15-7.75,9.1s5.42,3.65,10.44,1.58,8.49-6.15,7.75-9.1S962.09,467.85,957.07,469.92Z"/><path class="cls-113" d="M1133.78,470.87c-5.3,2.48-8.75,7-7.69,10.07s6.22,3.58,11.52,1.11,8.76-7,7.7-10.06S1139.09,468.4,1133.78,470.87Z"/><path class="cls-6" d="M1026.7,495.31s-35.21-6.55-43.65,24.12c-10.73,39,66.86,62,88.12,21.27s-34.43-116.52-34.43-116.52S1050.08,463.52,1026.7,495.31Z"/><path class="cls-114" d="M982.3,530.3c4.59,32,69.68,47.14,88.87,10.4a39.89,39.89,0,0,0,2.79-7C1043.41,540.22,1011.57,538.44,982.3,530.3Z"/><path class="cls-115" d="M1049.05,465l-8.73-.3s-4.59,28.12-13.09,32.05h0c-1.35-.13-2.73-.24-4.14-.29-15.23-.54-27.76,4.38-28,11s11.94,12,27.16,12.52c14.27.5,26.78-2,28.47-9.76C1050.76,510.18,1057.56,480.8,1049.05,465Z"/><path class="cls-6" d="M1623.41,1168.36H1432.34c27,35,47.92,64.48,50.71,75.25,8.62,33.25-16.5,253.81-100.92,377.52-18.81,27.56,70.92,143.75,84.57,123.1,90.85-137.33,204-372.27,191.64-465.87C1655.93,1260.05,1637.85,1200.44,1623.41,1168.36Z"/><path class="cls-116" d="M1658.34,1277.68c-2.41-18.31-20.49-76.68-34.93-110.68H1432.34c27,38,47.92,65.16,50.71,75.93,8.62,33.25-16.5,254.15-100.92,377.86-18.81,27.56,70.92,143.58,84.57,122.93C1557.55,1606.39,1670.66,1371.28,1658.34,1277.68Zm-166.9,370.82c-23.39,27.63-95.63-30.84-87.34-45.3,64.76-112.84,72.92-227.83,81.27-235.11,30.74-26.8,101.7-5.53,115.34,19.28S1529.14,1604,1491.44,1648.5Z"/><path class="cls-117" d="M1336.44,1111.44c3.76,4.26,126.75,140.58,133,160.63s181.76-61.56,181.76-61.56S1507.08,889.67,1422.94,837c-91.42-57.18-182.66-75.39-182.66-75.39Z"/><path class="cls-118" d="M1386.84,1168.36c-2.16-130.43-17.73-301.5-52-376.32-3.12-1.55-26.68-10.61-31.13-11.92,38.63,65.27,54.17,223.58,56.53,358C1364,1141.89,1383.26,1164.42,1386.84,1168.36Z"/><path class="cls-6" d="M1399.25,1624.79l-28-6s-27.66-6.35-60.13,1.84-74.06,40.37-89.71,54.79-17.6,25.85-13.91,33.56,23.21,5.48,33.22-1.48,51.17-43.49,76.1-38c0,0-30.71,12.67-47.95,26.09s-58.29,60.64-65.5,76.55,9.34,29.1,24.63,19.4c0,0-11.07,9.45-12.76,22.63s14.94,16.16,29.17,9c0,0-4.22,31.08,39.73,11.2s67.68-51.19,97.39-52.17,63-4.68,87.14-40.85S1399.25,1624.79,1399.25,1624.79Z"/><path class="cls-119" d="M1399.25,1624.79l-28-6s-27.66-6.35-60.13,1.84c-1.36.34-2.75.78-4.13,1.2,37.79-9.75,115.46,114.18,110.55,132-4.6,16.65-32.71,17.88-54.64,25.58s-72.54,48.7-90.1,55.16-28.1-5.28-24.2-11.45,60.88-46.22,75.65-55.66,37.23-19.38,37.23-19.38l-2.47-5.72s-15,7.2-31.61,15.9-71,55.66-86.45,61.13-22.14-2.25-17.2-13.93,33.11-35.3,59.09-59.15,47.8-28.83,47.8-28.83l-1.42-6.21c-41.72,8.18-80.8,65.11-97.65,73.55s-27-1-22.75-12.94,43.27-56.92,59.38-71.08,63.82-34.54,63.82-34.54l-.81-5.22s-6.87-.25-30.36,3-59.09,41.21-72.56,42.67-26.17-.19-9.68-23.06c16.16-22.43,84.19-59.88,87.45-61.51-31.61,10-69.8,39.63-84.65,53.31-15.65,14.41-17.6,25.85-13.91,33.56s23.21,5.48,33.22-1.48,51.17-43.49,76.1-38c0,0-30.71,12.67-47.95,26.09s-58.29,60.64-65.5,76.55,9.34,29.1,24.63,19.4c0,0-11.07,9.45-12.76,22.63s14.94,16.16,29.17,9c0,0-4.22,31.08,39.73,11.2s67.68-51.19,97.39-52.17,63-4.68,87.14-40.85S1399.25,1624.79,1399.25,1624.79Z"/><path class="cls-120" d="M1266,1649.68c-18.26,6.37-46.39,38.21-46.39,38.21-4.54,7.28-1.12,15.77,11.28,12.91s42-27.76,48.9-32S1284.26,1643.32,1266,1649.68Z"/><path class="cls-120" d="M1266.79,1707c-11.64,6.36-52.08,61.56-52.08,61.56-2.12,9.66,4.33,15.47,14.64,12.44s52.14-47.91,56.92-52.3S1278.43,1700.65,1266.79,1707Z"/><path class="cls-120" d="M1235.36,1795.88c-7.68,9.08-7.21,24.82,7,19.12s56.84-41.23,63.29-47-11.61-26.77-11.61-26.77C1287.89,1744.2,1243.05,1786.79,1235.36,1795.88Z"/><path class="cls-120" d="M1255.28,1820.47c-2.72,2.42-1.62,10.31,10.63,10.92s52.29-27.88,55.11-33.47-8.45-18.61-8.45-18.61C1307.7,1782.11,1258,1818,1255.28,1820.47Z"/><path class="cls-121" d="M1460.27,1245.32s-7.66,22.93-6.57,27.83,19.25,27.93,19.25,27.93-13.3,43.34-11.12,47.7,11.37,15.57,11.37,15.57,27.88-20.33,81.81-14.88,82.56,51,82.56,51,14.22-1.89,17.88-5.72c5.8-6.08,20.89-62.84,19.44-111.91-1-32.17-22.91-77.72-30.54-82.08S1494.87,1214.36,1460.27,1245.32Z"/><path class="cls-122" d="M1446.75,1661.74c-22.22-15-42.63-30-58-51q-2.26,3.6-4.59,7.11a30.28,30.28,0,0,1-2.77-2.78c15,22.87,37.41,41.16,61.65,53.35C1447.52,1670.72,1450.8,1664.47,1446.75,1661.74Z"/><path class="cls-123" d="M1579.24,1265c-37.58,2.29-77,11.88-108.87,32.74,1.56,2,2.58,3.32,2.58,3.32s-.78,2.54-1.93,6.44c32.47-21.4,69.86-28.73,108.42-34.63C1584.29,1272.15,1584.44,1264.71,1579.24,1265Z"/><polygon class="cls-12" points="1146.05 934.86 1362.22 979.78 1356.3 955.33 1150.27 914.42 1146.05 934.86"/><path class="cls-122" d="M1139.6,351.49c5.43-1,18.54-8,18.86-16.31a13,13,0,0,0-6.4-11.82c14.39-3.2,19.18-18.54,11.19-24.93-5.28-4.22-16.68-10.11-23.82-13.63h0c-1.71-.95-7.36-3.78-14.91-7.51-14.2-7.34-43-22-64.81-31.7,34.36-2.32,90.2-4.09,91.35-19.73,1.2-16.3-57.56-15.42-94.87-13.61-12.75.62-31.21,4.5-50,9.34,13.18-2.61,31.46-6,41.82-6.72,17.48-1.27,88.45-3,97.37,5.95s-86.61,18.44-86.61,18.44-68.8,8.06-68.8,9.33v2.57s70,.45,71.28,0,76.84,38.49,80.12,38.52c9.19,4.72,15.62,8.61,16.9,10.67,5.27,8.47-1.73,14.06-7.27,15.34s-93.35-34.95-100.59-36.65c-6.52-1.54-56.16-.31-66.05-.05l.47,7.31c9.24-.06,58.26.88,61.73,1.26,3.84.43,100.15,31.11,105.26,40.49s-3.84,17-10.23,17.47-73.3-23.44-82.67-24.29c-7.62-.69-55.91-4.07-74.1-4.62l-.77,6.44c30.29,4.53,143.08,25,146,27.3,3.41,2.71,4.26,6.25,0,12.64s-148.31-18.75-148.31-18.75c-2.06,37.57-42.35,79.77-76.94,104.39a135.23,135.23,0,0,0,20.58-10.21c29.73-17.9,54.66-57.53,72.24-63s104.83,9.27,128.48,0S1139.6,351.49,1139.6,351.49Z"/></svg>