<svg xmlns="http://www.w3.org/2000/svg" xmlns:xlink="http://www.w3.org/1999/xlink" viewBox="0 0 634.54 1451.55"><defs><style>.cls-1{fill:url(#Áåçûìÿííûé_ãðàäèåíò_487);}.cls-2{fill:url(#Áåçûìÿííûé_ãðàäèåíò_487-2);}.cls-3{fill:url(#Áåçûìÿííûé_ãðàäèåíò_11);}.cls-4{fill:#2c2c2d;}.cls-5{fill:#333844;}.cls-6{opacity:0.09;}.cls-7{fill:#292d35;}.cls-8{fill:#1c1d1e;}.cls-9{fill:url(#Áåçûìÿííûé_ãðàäèåíò_501);}.cls-10{fill:#3d3d3d;}.cls-11{fill:url(#Áåçûìÿííûé_ãðàäèåíò_486);}.cls-12{fill:url(#Áåçûìÿííûé_ãðàäèåíò_486-2);}.cls-13{fill:url(#Áåçûìÿííûé_ãðàäèåíò_501-2);}.cls-14{fill:url(#Áåçûìÿííûé_ãðàäèåíò_20);}.cls-15{fill:url(#Áåçûìÿííûé_ãðàäèåíò_20-2);}.cls-16{fill:url(#Áåçûìÿííûé_ãðàäèåíò_6);}.cls-17{fill:url(#Áåçûìÿííûé_ãðàäèåíò_7);}.cls-18{fill:url(#Áåçûìÿííûé_ãðàäèåíò_6-2);}.cls-19{fill:url(#Áåçûìÿííûé_ãðàäèåíò_7-2);}.cls-20{fill:url(#Áåçûìÿííûé_ãðàäèåíò_7-3);}.cls-21{fill:#ff9e78;}.cls-22{fill:url(#Áåçûìÿííûé_ãðàäèåíò_29);}.cls-23{fill:url(#Áåçûìÿííûé_ãðàäèåíò_29-2);}.cls-24{fill:url(#Áåçûìÿííûé_ãðàäèåíò_6-3);}.cls-25{fill:#59352c;}.cls-26{fill:#3e1208;}.cls-27{fill:url(#Áåçûìÿííûé_ãðàäèåíò_16);}.cls-28{fill:url(#Áåçûìÿííûé_ãðàäèåíò_57);}.cls-29{opacity:0.44;}.cls-30{fill:#ff9d77;}.cls-31{fill:#ff9c77;}.cls-32{fill:#ff9b76;}.cls-33{fill:#ff9a76;}.cls-34{fill:#ff9975;}.cls-35{fill:#ff9875;}.cls-36{fill:#ff9774;}.cls-37{fill:#ff9674;}.cls-38{fill:#ff9573;}.cls-39{fill:#ff9472;}.cls-40{fill:#ff9372;}.cls-41{fill:#ff9271;}.cls-42{fill:#ff9171;}.cls-43{fill:#ff9070;}.cls-44{fill:#ff8f70;}.cls-45{fill:#ff8e6f;}.cls-46{fill:#ff8d6f;}.cls-47{fill:#ff8c6e;}.cls-48{fill:#ff8b6e;}.cls-49{fill:#ff8a6d;}.cls-50{fill:#ff896c;}.cls-51{fill:#ff886c;}.cls-52{fill:#ff876b;}.cls-53{fill:#ff866b;}.cls-54{fill:#ff856a;}.cls-55{fill:#ff846a;}.cls-56{fill:#ff8369;}.cls-57{fill:#ff8269;}.cls-58{fill:#ff8168;}.cls-59{fill:#ff8067;}.cls-60{fill:#ff7f67;}.cls-61{fill:#ff7e66;}.cls-62{fill:#ff7d66;}.cls-63{fill:#ff7c65;}.cls-64{fill:#ff7b65;}.cls-65{fill:#ff7a64;}.cls-66{fill:#ff7964;}.cls-67{fill:#ff7863;}.cls-68{fill:#ff7762;}.cls-69{fill:#ff7661;}.cls-70{fill:#ff7561;}.cls-71{fill:#ff7460;}.cls-72{fill:#ff7360;}.cls-73{fill:#ff725f;}.cls-74{fill:#ff715f;}.cls-75{fill:#ff705e;}.cls-76{fill:#ff6f5e;}.cls-77{fill:#ff6e5d;}.cls-78{fill:#ff6d5c;}.cls-79{fill:#ff6c5c;}.cls-80{fill:#ff6b5b;}.cls-81{fill:#ff6a5b;}.cls-82{fill:#ff695a;}.cls-83{fill:#ff685a;}.cls-84{fill:#ff6759;}.cls-85{fill:#ff6659;}.cls-86{fill:#ff6558;}.cls-87{fill:#ff6457;}.cls-88{fill:#ff6357;}.cls-89{fill:#ff6256;}.cls-90{fill:#ff6156;}.cls-91{fill:#ff6055;}.cls-92{fill:#ff5f55;}.cls-93{fill:#ff5e54;}.cls-94{fill:#ff5d54;}.cls-95{fill:#ff5c53;}.cls-96{fill:#ff5b53;}.cls-97{fill:#ff5a52;}.cls-98{fill:#ff5951;}.cls-99{fill:#ff5851;}.cls-100{fill:#ff5750;}.cls-101{fill:#ff5650;}.cls-102{fill:#ff554f;}.cls-103{fill:#ff544f;}.cls-104{fill:#ff534e;}.cls-105{fill:#ff524e;}.cls-106{fill:#ff514d;}.cls-107{fill:url(#Áåçûìÿííûé_ãðàäèåíò_29-3);}.cls-108{fill:url(#Áåçûìÿííûé_ãðàäèåíò_29-4);}.cls-109{fill:#7c302a;}.cls-110{fill:#ffbc80;}.cls-110,.cls-126{opacity:0.11;}.cls-111{fill:url(#Áåçûìÿííûé_ãðàäèåíò_16-2);}.cls-112{fill:url(#Áåçûìÿííûé_ãðàäèåíò_16-3);}.cls-113,.cls-123,.cls-125,.cls-132{fill:#fff;}.cls-114{fill:url(#Áåçûìÿííûé_ãðàäèåíò_12);}.cls-115{fill:url(#Áåçûìÿííûé_ãðàäèåíò_12-2);}.cls-116{fill:#603f37;}.cls-117{fill:#fb755c;}.cls-118{fill:url(#Áåçûìÿííûé_ãðàäèåíò_57-2);}.cls-119{fill:url(#Áåçûìÿííûé_ãðàäèåíò_57-3);}.cls-120{fill:#1e1d1d;}.cls-121{fill:url(#Áåçûìÿííûé_ãðàäèåíò_57-4);}.cls-122{fill:url(#Áåçûìÿííûé_ãðàäèåíò_24);}.cls-123{opacity:0.82;}.cls-124{fill:url(#Áåçûìÿííûé_ãðàäèåíò_29-5);}.cls-125{opacity:0.2;}.cls-127{fill:url(#Áåçûìÿííûé_ãðàäèåíò_7-4);}.cls-128{fill:url(#Áåçûìÿííûé_ãðàäèåíò_487-3);}.cls-129{fill:url(#Áåçûìÿííûé_ãðàäèåíò_31);}.cls-130{fill:url(#Áåçûìÿííûé_ãðàäèåíò_440);}.cls-131{fill:#e0dfdc;}.cls-132{opacity:0.23;}.cls-133{fill:url(#Áåçûìÿííûé_ãðàäèåíò_29-6);}</style><linearGradient id="Áåçûìÿííûé_ãðàäèåíò_487" x1="575.33" y1="843.49" x2="532.97" y2="867.84" gradientUnits="userSpaceOnUse"><stop offset="0" stop-color="#db7d67"/><stop offset="1" stop-color="#ff9e78"/></linearGradient><linearGradient id="Áåçûìÿííûé_ãðàäèåíò_487-2" x1="-1519.52" y1="169.65" x2="-1519.52" y2="195.73" gradientTransform="matrix(-1.02, -0.16, -0.06, 0.97, -1165.79, -99.86)" xlink:href="#Áåçûìÿííûé_ãðàäèåíò_487"/><linearGradient id="Áåçûìÿííûé_ãðàäèåíò_11" x1="317.27" y1="1462.53" x2="317.27" y2="1380.46" gradientUnits="userSpaceOnUse"><stop offset="0" stop-color="#fff"/><stop offset="1" stop-color="#a5b7c6"/></linearGradient><linearGradient id="Áåçûìÿííûé_ãðàäèåíò_501" x1="-2506.41" y1="1012.11" x2="-2491.18" y2="837.99" gradientTransform="matrix(-1.01, 0, -0.07, 0.99, -2014.9, 4.9)" gradientUnits="userSpaceOnUse"><stop offset="0" stop-color="#3d434f"/><stop offset="1" stop-color="#333844"/></linearGradient><linearGradient id="Áåçûìÿííûé_ãðàäèåíò_486" x1="140.28" y1="1381.14" x2="140.77" y2="1408.23" gradientUnits="userSpaceOnUse"><stop offset="0" stop-color="#5b5b60"/><stop offset="1" stop-color="#2c2c2d"/></linearGradient><linearGradient id="Áåçûìÿííûé_ãðàäèåíò_486-2" x1="489.56" y1="1381.11" x2="490.06" y2="1408.32" xlink:href="#Áåçûìÿííûé_ãðàäèåíò_486"/><linearGradient id="Áåçûìÿííûé_ãðàäèåíò_501-2" x1="223.78" y1="984.06" x2="239.16" y2="808.18" gradientTransform="matrix(1.06, 0.04, -0.08, 0.94, 92.72, 64.12)" xlink:href="#Áåçûìÿííûé_ãðàäèåíò_501"/><linearGradient id="Áåçûìÿííûé_ãðàäèåíò_20" x1="317.44" y1="733.24" x2="349.27" y2="733.24" gradientUnits="userSpaceOnUse"><stop offset="0" stop-color="#5f6163"/><stop offset="1" stop-color="#444749"/></linearGradient><linearGradient id="Áåçûìÿííûé_ãðàäèåíò_20-2" x1="335" y1="732.34" x2="349.04" y2="732.34" xlink:href="#Áåçûìÿííûé_ãðàäèåíò_20"/><linearGradient id="Áåçûìÿííûé_ãðàäèåíò_6" x1="364.86" y1="260.98" x2="364.86" y2="376.7" gradientTransform="matrix(1, 0.06, -0.06, 1, 21.04, 54.71)" gradientUnits="userSpaceOnUse"><stop offset="0" stop-color="#deefff"/><stop offset="1" stop-color="#cadbef"/></linearGradient><linearGradient id="Áåçûìÿííûé_ãðàäèåíò_7" x1="357.04" y1="481.73" x2="357.04" y2="735.82" gradientUnits="userSpaceOnUse"><stop offset="0" stop-color="#b3cbe2"/><stop offset="1" stop-color="#cadbef"/></linearGradient><linearGradient id="Áåçûìÿííûé_ãðàäèåíò_6-2" x1="184.11" y1="505.37" x2="191.36" y2="538.48" gradientTransform="matrix(1, 0, 0, 1, 0, 0)" xlink:href="#Áåçûìÿííûé_ãðàäèåíò_6"/><linearGradient id="Áåçûìÿííûé_ãðàäèåíò_7-2" x1="341.31" y1="329.46" x2="344.56" y2="363.3" xlink:href="#Áåçûìÿííûé_ãðàäèåíò_7"/><linearGradient id="Áåçûìÿííûé_ãðàäèåíò_7-3" x1="411.32" y1="325.31" x2="414.73" y2="360.71" xlink:href="#Áåçûìÿííûé_ãðàäèåíò_7"/><linearGradient id="Áåçûìÿííûé_ãðàäèåíò_29" x1="538.42" y1="906.07" x2="575.97" y2="788.2" gradientUnits="userSpaceOnUse"><stop offset="0" stop-color="#f28c70"/><stop offset="1" stop-color="#ff9e78"/></linearGradient><linearGradient id="Áåçûìÿííûé_ãðàäèåíò_29-2" x1="473.54" y1="506.12" x2="543.31" y2="569.65" gradientTransform="matrix(1, 0.06, -0.06, 1, 21.04, 54.71)" xlink:href="#Áåçûìÿííûé_ãðàäèåíò_29"/><linearGradient id="Áåçûìÿííûé_ãðàäèåíò_6-3" x1="539.24" y1="429.94" x2="540.37" y2="449.63" xlink:href="#Áåçûìÿííûé_ãðàäèåíò_6"/><linearGradient id="Áåçûìÿííûé_ãðàäèåíò_16" x1="-2845.94" y1="85.21" x2="-2850.55" y2="125.87" gradientTransform="matrix(-1, 0.03, 0.03, 1, -2497.18, 72.16)" gradientUnits="userSpaceOnUse"><stop offset="0" stop-color="#c6664f"/><stop offset="1" stop-color="#ff9e78"/></linearGradient><linearGradient id="Áåçûìÿííûé_ãðàäèåíò_57" x1="-1443.84" y1="6.49" x2="-1444.32" y2="83.29" gradientTransform="matrix(-1, 0.07, 0.03, 1, -1096.03, 113.71)" gradientUnits="userSpaceOnUse"><stop offset="0" stop-color="#75483b"/><stop offset="0.35" stop-color="#704538"/><stop offset="0.75" stop-color="#633c30"/><stop offset="1" stop-color="#563428"/></linearGradient><linearGradient id="Áåçûìÿííûé_ãðàäèåíò_29-3" x1="-1385.37" y1="219.83" x2="-1341.9" y2="219.83" gradientTransform="matrix(-1, 0.04, 0, 1, -1091.61, 56.95)" xlink:href="#Áåçûìÿííûé_ãðàäèåíò_29"/><linearGradient id="Áåçûìÿííûé_ãðàäèåíò_29-4" x1="-1369.35" y1="198.55" x2="-1349.29" y2="198.55" gradientTransform="matrix(-1, 0.04, 0, 1, -1091.61, 56.95)" xlink:href="#Áåçûìÿííûé_ãðàäèåíò_29"/><linearGradient id="Áåçûìÿííûé_ãðàäèåíò_16-2" x1="-1483.69" y1="222.23" x2="-1484.96" y2="300.01" gradientTransform="matrix(-1, 0.07, 0.03, 1, -1143.13, -25.4)" xlink:href="#Áåçûìÿííûé_ãðàäèåíò_16"/><linearGradient id="Áåçûìÿííûé_ãðàäèåíò_16-3" x1="-1562.58" y1="219.38" x2="-1563.86" y2="297.52" gradientTransform="matrix(-1, 0.07, 0.03, 1, -1143.13, -25.4)" xlink:href="#Áåçûìÿííûé_ãðàäèåíò_16"/><linearGradient id="Áåçûìÿííûé_ãðàäèåíò_12" x1="428.51" y1="170.48" x2="425.68" y2="162.48" gradientUnits="userSpaceOnUse"><stop offset="0" stop-color="#704a3e"/><stop offset="1"/></linearGradient><linearGradient id="Áåçûìÿííûé_ãðàäèåíò_12-2" x1="341.46" y1="174.95" x2="340.89" y2="167.41" xlink:href="#Áåçûìÿííûé_ãðàäèåíò_12"/><linearGradient id="Áåçûìÿííûé_ãðàäèåíò_57-2" x1="-1927.86" y1="251.61" x2="-1928.58" y2="276.64" gradientTransform="matrix(-0.92, 0.1, 0.06, 1, -1358.88, 53.99)" xlink:href="#Áåçûìÿííûé_ãðàäèåíò_57"/><linearGradient id="Áåçûìÿííûé_ãðàäèåíò_57-3" x1="-1263.17" y1="63.43" x2="-1263.79" y2="85.08" gradientTransform="matrix(-1.05, 0.06, 0.06, 1.01, -987.25, 139.41)" xlink:href="#Áåçûìÿííûé_ãðàäèåíò_57"/><linearGradient id="Áåçûìÿííûé_ãðàäèåíò_57-4" x1="367.9" y1="337.67" x2="368.66" y2="214.48" gradientTransform="matrix(1, -0.03, 0.03, 1, -4.21, -9.41)" xlink:href="#Áåçûìÿííûé_ãðàäèåíò_57"/><linearGradient id="Áåçûìÿííûé_ãðàäèåíò_24" x1="400.76" y1="207.54" x2="400.76" y2="221.88" gradientUnits="userSpaceOnUse"><stop offset="0" stop-color="#4c2e25"/><stop offset="0.39" stop-color="#513127"/><stop offset="0.83" stop-color="#5e3a2e"/><stop offset="1" stop-color="#663f32"/></linearGradient><linearGradient id="Áåçûìÿííûé_ãðàäèåíò_29-5" x1="-1550" y1="212.83" x2="-1550.35" y2="202.07" gradientTransform="matrix(-1, 0.04, 0, 1, -1145.71, 59.09)" xlink:href="#Áåçûìÿííûé_ãðàäèåíò_29"/><linearGradient id="Áåçûìÿííûé_ãðàäèåíò_7-4" x1="380.18" y1="590.81" x2="385.1" y2="753.68" xlink:href="#Áåçûìÿííûé_ãðàäèåíò_7"/><linearGradient id="Áåçûìÿííûé_ãðàäèåíò_487-3" x1="369.77" y1="388.31" x2="366.25" y2="407.78" xlink:href="#Áåçûìÿííûé_ãðàäèåíò_487"/><linearGradient id="Áåçûìÿííûé_ãðàäèåíò_31" x1="404.73" y1="345.64" x2="406.97" y2="380.72" gradientUnits="userSpaceOnUse"><stop offset="0" stop-color="#ef5848"/><stop offset="0.39" stop-color="#ea5344"/><stop offset="0.85" stop-color="#dd4639"/><stop offset="1" stop-color="#d64034"/></linearGradient><linearGradient id="Áåçûìÿííûé_ãðàäèåíò_440" x1="384.62" y1="427.96" x2="322.99" y2="415.91" gradientUnits="userSpaceOnUse"><stop offset="0" stop-color="#ffb9a4"/><stop offset="1" stop-color="#ff9e78"/></linearGradient><linearGradient id="Áåçûìÿííûé_ãðàäèåíò_29-6" x1="312.83" y1="499.9" x2="222.39" y2="492.71" xlink:href="#Áåçûìÿííûé_ãðàäèåíò_29"/></defs><g id="Layer_2" data-name="Layer 2"><g id="Ñëîé_1" data-name="Ñëîé 1"><path class="cls-1" d="M553.77,829.08s-7.29,2.45-10,7.77c0,0-12,1.17-16,7.67s6.37,8.83,6.37,8.83-4.52,4.37-1.62,8.95,16.78,1.59,16.78,1.59-9.84,3.52-9.61,9.16,7.41,5.53,8.11,5.43,22.68-4.05,25-5.75,18.52-22.36,18.4-22.89-11.46-26.51-13.42-27.78S553.77,829.08,553.77,829.08Z"/><path class="cls-2" d="M301.45,309c8.23-.39,13.87-4.51,23.57-4l4.75-51.59c.62-17,21.2-27.57,44.2-23.4h0c24,4.07,43.66,21.47,43,38.51l-.43,51.85c10.61,3.19,19.05,10.46,27.95,14.31l-3.91,50.71L297.19,363Z"/><path class="cls-3" d="M634.54,1424.12s-142,27.43-317.27,27.43S0,1424.12,0,1424.12s142.05-27.43,317.27-27.43S634.54,1424.12,634.54,1424.12Z"/><path class="cls-4" d="M171.07,1360c-1,.53-80.88,44.11-81.77,57.83,0,.56-2.28,1-2.62,1.4l-.12,5.39C129.33,1439,215.41,1422,215.41,1422s.2,3.43,1.06,3.52c17.05,1.74,46-2.19,48-3.8.4-.34,1-5,.83-9.1,0-.39-1.11-1.31-1.11-1.31.93-16.17.9-47.38,1-48.11C268.05,1349.17,177.63,1335.8,171.07,1360Z"/><path class="cls-4" d="M459.43,1360c1.05.53,80.88,44.11,81.77,57.83,0,.56,2.28,1,2.62,1.4l.12,5.39C501.17,1439,415.09,1422,415.09,1422s-.2,3.43-1.06,3.52c-17,1.74-46-2.19-48-3.8-.4-.34-1-5-.83-9.1,0-.39,1.11-1.31,1.11-1.31-.93-16.17-.9-47.38-1-48.11C362.45,1349.17,452.87,1335.8,459.43,1360Z"/><path class="cls-5" d="M271.48,1383.47c28.47-315.34,89.28-566.42,91.66-636.7l-143.55-15.9c-9.91,110.46-49.22,395.45-66,639,0,0,13.62-7.76,40.9-6.34,26,1.35,55.68,17.52,70.36,22Z"/><path class="cls-5" d="M360,1383.39c-9.72-317.28,8.94-566.34,6.56-636.62l143.55-15.9c9.91,110.46-32.57,403.84-33.1,639,0,0-14-7.6-40.82-6.4-34.23,1.52-55.92,17.52-70.6,22Z"/><g class="cls-6"><path d="M372.06,789.86a28.46,28.46,0,0,1,1.17-9.35l-3.92.58s.12,3.5.33,10.09C370.45,790.74,371.25,790.29,372.06,789.86Z"/></g><path class="cls-5" d="M222.61,699.53c-4.22,80.14-7.11,117.9-7.11,117.9s83.48,6.87,174,6.12c58.83-.48,109,3.89,112.87-20,3.46-21.62,7.16-46.43,9.23-101.24l-5.55-5.15c-14.73,1.51-64.71,5.87-143.2,4.89-86.29-1.08-122.67-7.87-133.59-8.81C227.62,693.06,222.69,697.88,222.61,699.53Z"/><path class="cls-7" d="M338.09,816.59l-1,6.36c23.9.81,54.84.17,54.84.17l-.13-6.54Z"/><path class="cls-7" d="M212.77,796.54c6.89-4.49,22.55-14.2,30.63-21.64-.92-1.28-1.84-2.57-2.77-3.85-4.58,3.39-21.46,13.9-27,17.66Q213.22,792.57,212.77,796.54Z"/><path class="cls-8" d="M362.85,719.34c-75.31,0-120.49-3.4-141-5.31-2.51,0-5.61,27.18-2.76,28.44,21.91,2,68.61,5.24,143.78,5.24,65.77,0,121.07-3.81,148.14-5.81,2.37.2,2.63-27.87.05-27.87C485.84,716,430.88,719.34,362.85,719.34Z"/><polygon class="cls-5" points="297.83 757.47 280.7 756.58 283.96 709.19 301.1 710.08 297.83 757.47"/><polygon class="cls-5" points="438.46 757.47 421.33 756.58 424.59 709.19 441.73 710.08 438.46 757.47"/><path class="cls-7" d="M511.44,787.25l-27.19-16.67c-1.05,2.51-.71,1.71-1.71,4.25,7.72,6.61,20.61,14.86,28.74,19.88C511.3,792.31,511.44,789.59,511.44,787.25Z"/><path class="cls-9" d="M500.18,827.23s-14.05,226.42-19.25,231.28-32.2,25-38.89,24.3c-10.84-1.06-60.82-24.19-63.06-31.65s2.41-213.7,2.08-219.38C380.82,827.72,500.18,827.23,500.18,827.23Z"/><path class="cls-5" d="M357.52,1262.34c-.18,0-.84,47.83-1.24,53.47-.26,3.53-2.27,6.64-3.86,9.8s-2.82,6.91-1.46,10.17c1.14,2.73,3.89,4.57,4.87,7.36,1.29,3.68-.8,7.18-1.05,10.81-.28,4,.88,8.45,1.13,12.57.13,2-.49,15,1.62,16.19s8.05,2.78,8.05,2.78c17.12-3.65,44.7-25,66.31-30.08,24.57-5.79,45.11,14.49,45.11,14.49.05-3.64,5.37-12.26,5.78-13.83,2.23-8.56-7.13-9.41-4.8-13.9,7.59-14.6-1.88-18.31-.39-25,.76-3.43,4.87-6.72,4.92-10.23,0-2.9-1.88-8.07-2.63-10.88-1.91-7.15.1-42.13.1-42.13C472.55,1254.39,357.52,1262.34,357.52,1262.34Z"/><path class="cls-5" d="M284.75,1257.91s-6.68,65.54-5.08,68.7,2.82,6.91,1.45,10.17c-1.14,2.73-3.89,4.57-4.86,7.36-1.3,3.68.79,7.18,1,10.81.28,4-.87,8.45-1.13,12.57-.13,2-1.61,16.19-1.61,16.19l-9.69,1.78c-11.22-4.34-44.26-22.43-64.11-27.51-24.45-6.26-46.67,2.92-46.67,2.92,2.18-.62-.37-15.68-1-17.16-1-2.29-2.44-4.46-2.68-7-.66-6.84,7.94-12.37,6.45-19.09-.76-3.43-4.08-6.06-4.14-9.58,0-2.89,2.15-5.26,3.57-7.79,2.75-4.86,7.11-52,7.11-52C170.41,1250.12,284.75,1257.91,284.75,1257.91Z"/><path class="cls-10" d="M214.24,1415.19c-22.83,2.8-48.71,6-70.35,6.34-32.86.56-49-2.58-54.55-4,0,.11,0,.22,0,.32,0,.56-2.28,1-2.62,1.4v.15c2.82.93,16.45,4.74,49.46,4.74q3.74,0,7.79-.06c21.78-.37,47.73-3.56,70.62-6.37,22.14-2.72,41.29-5.07,50.75-4.16q0-.45,0-.9c0-.39-1.11-1.31-1.11-1.31l0-.4C254.07,1410.3,235.53,1412.57,214.24,1415.19Z"/><path class="cls-10" d="M416.24,1415.19c22.83,2.8,48.7,6,70.34,6.34,32.85.56,49-2.59,54.59-4,0,.1,0,.22,0,.32,0,.56,2.28,1,2.62,1.4v.14c-2.82.93-16.49,4.75-49.5,4.75q-3.72,0-7.79-.06c-21.77-.37-47.71-3.56-70.6-6.37-22.13-2.72-41.28-5.07-50.74-4.16l0-.9c0-.39,1.11-1.31,1.11-1.31s0-.27,0-.4C376.42,1410.3,395,1412.57,416.24,1415.19Z"/><path class="cls-11" d="M186.81,1403.1c-28.31-16.8-53.82-15.12-72-9.14-9,6.14-16.79,12.12-21.34,17,6.31,1.49,17.64,3.12,37.7,3.62C171.06,1415.54,193.74,1407.22,186.81,1403.1Z"/><path class="cls-12" d="M537.11,1411c-4.61-5-12.67-11.09-21.91-17.4-18.09-5.7-43.18-7-71,9.47-6.93,4.12,15.75,12.44,55.62,11.45C519.46,1414.06,530.71,1412.5,537.11,1411Z"/><path class="cls-13" d="M222.17,823.49s-32,211-27.26,215.82,34.24,31.32,41.35,31c11.52-.58,63.24-26.62,66.73-33.61s37.73-205.92,33.45-206S222.17,823.49,222.17,823.49Z"/><path class="cls-14" d="M394.24,719.2s-52-.54-52,.46c0,0-.45,27,0,27.45s52.31.42,52.31.42,0,4.41-.88,5c-3.18,1.93-56.82,1.35-58.3,0S334.9,716,336,714s56-1.31,57.07-.51S394.24,719.2,394.24,719.2Z"/><path class="cls-15" d="M337.43,729.07s-.65,6.21-.24,6.63,13,0,13.31-.24.46-5.34.12-6.15C350.38,728.72,337.9,728.65,337.43,729.07Z"/><path class="cls-16" d="M304.28,305.19S235.64,319,206.76,348.42c-15.84,16.14-29,98.59-43.37,161-.34,1.5-5.22,3.13-5.83,4.51-7.49,17.16-13.17,41.58-13.13,49.67,0,5.43,5.77,44,14.9,48.08,6,2.73,46.65,1.64,57.34-2,7-2.38,16.93-14,16.93-14s-5.6,92.93-2.44,101.64,270.4,9.27,274.39,3.41,13.81-101,13.81-101,40.23-8.59,47.87-15.77c6.28-5.9-1.63-63.52-1.63-63.52l-8.16-3.55S535.8,372.6,511.23,353.6c-24.76-19.15-74.1-34.21-74.1-34.21S436,305,417,297.59c0,0-20.42,28.23-37.13,30-21.43,2.22-53.38-40.45-53.38-40.45S312.51,294.33,304.28,305.19Z"/><path class="cls-17" d="M567.23,583.92c2.12-2,2.62-9.84,2.36-19.38-1.84,5.05-3.68,6.83-5,7.65-2.73,1.64-57.71,9.21-58.53,8.12s-4.37-57.64-3.83-59,58.2-3.17,58.2-3.17l-2.95-1.28s-.26-2.12-.76-5.86c-11.42-.14-55.7,2.66-55.7,2.66s-9.86-93.36-10.69-95.18-6.23,0-6.23,0,8.41,232,0,254.77c-.4,1.07-102.66,8.36-106.86,8.77S257.65,671.64,256.4,668.73s5.4-84.33,6.23-87S342,472.65,342,472.65s19.11-4.16,27.22-7.48,7.68-32.41,7.68-32.41,66.05-16.2,69-19.11,0-28.2,0-28.2-74.56-4.59-76.66-4.58S269.3,469,269.3,469L271,400.45l-7.65,0L252.22,538.7l-28.34,50.08s-46.17,15-58.89,8.32c-8.82-4.63-16.3-26.3-20.06-39.19a41.77,41.77,0,0,0-.5,5.73c0,5.43,5.77,44,14.9,48.08,6,2.73,46.65,1.64,57.34-2,7-2.38,16.93-14,16.93-14s-6.83,93.9-3.67,102.61c1.66,4.58,76.94,6.89,148.28,7.62,64.23.66,125.45-2.4,127.34-5.18,4-5.86,13.81-101,13.81-101S559.59,591.11,567.23,583.92Z"/><path class="cls-18" d="M157.56,514a196.83,196.83,0,0,0-12.62,43.88c8.17,10.43,24.89,20.74,24.8,20-.12-1,68.87-55,68.87-55S230.92,503,227.5,501.07s-57.05,5.77-64.11,8.39C163.05,511,158.17,512.59,157.56,514Z"/><path class="cls-19" d="M306.55,302.44c-.79.89-1.55,1.81-2.27,2.75l-1.75.37c2.26,4.41,6.74,12.92,12,21.75,13.26,22.38,19.16,26.08,22.72,26.28a4.73,4.73,0,0,0,.53,0c9.65-.34,30.84-17.11,39.86-26a25.06,25.06,0,0,1-7-1.48c-10.8,10.56-26.59,22.25-33,22.47-.45,0-4.95-.52-18.75-23.81C313.53,315.88,308.82,306.87,306.55,302.44Z"/><path class="cls-20" d="M444.15,321.68c-2.64-1-7-2.29-7-2.29s-.07-.3-.17-1.12c-6.22,13.64-20.77,34.27-27.81,33.87-4.78-.28-16-13.56-24.77-25.64a19.91,19.91,0,0,1-4.49,1,12.85,12.85,0,0,1-1.53.08c7.25,10.17,22.13,29,30.51,29.51C419.08,357.72,437.35,335.9,444.15,321.68Z"/><path class="cls-21" d="M516.27,591.25s43.44-13.34,47.24-8.48S570.36,737,575.17,756.33c2.3,9.25-39,13.78-40,12.68-3.33-3.86-23.23-106.88-23.23-106.88Z"/><path class="cls-21" d="M533.79,764.24s-.63,28.2,4.48,40.38,13,17.31,13,17.31-3.22,37.41.85,42.79,14.36,6.53,17.56,2.12,4.07-24.45,4.07-24.45l2.66-14.19s7.27,19.89,8.34,22.18-16,21.19-18.62,27.55,6.21,11.9,9.22,10.92S602,868,604.26,864.23s4.25-44.83,3-50.87-32.34-61.22-33.52-65.13a60,60,0,0,1-1.71-7.39s-40.29,14.48-40.12,15.29S533.83,763.32,533.79,764.24Z"/><path class="cls-22" d="M579.2,759h0s24.45,52,22.88,53.61-48.48-.85-56.87-7.68-9.1-37-9.1-37.4-3.39-8.53-3.39-8.53l-.05.08a41.79,41.79,0,0,1,1.12,5.16s-.63,28.2,4.48,40.38,13,17.31,13,17.31-3.22,37.41.85,42.79,14.36,6.53,17.56,2.12,4.07-24.45,4.07-24.45l2.66-14.19s7.27,19.89,8.34,22.18-16,21.19-18.62,27.55,6.21,11.9,9.22,10.92S602,868,604.26,864.23s4.25-44.83,3-50.87C606.34,808.82,588.48,776.41,579.2,759Z"/><path class="cls-23" d="M563.51,582.77c-3.8-4.86-50.29,8-50.29,8l-1.29,71.35s14.7,76.13,20.95,100l.25.27s-11.82-101.08-12.62-106-2.64-57.5,4.79-59.78,34-7.52,35.73-5c1.37,2,7,84.52,10.26,120.41C568.49,661.13,566.19,586.19,563.51,582.77Z"/><path class="cls-24" d="M565.6,520.41l-5.21-2.27c-13.12-1.18-36.75,0-58.2,3.17l.52,14.81c1,.44,55.27-.61,64.57-1.83C566.39,526.2,565.6,520.41,565.6,520.41Z"/><path class="cls-25" d="M452.32,155.42S439.85,89,423.84,73.74c0,0,8.09-26.76,11.55-23.61C451.62,64.89,456.18,122.29,452.32,155.42Z"/><path class="cls-26" d="M407.1,39.45s0-.17,0-.46C407.12,39.29,407.1,39.45,407.1,39.45Z"/><path class="cls-27" d="M297.39,91.5C302.39,56.34,400.24,33.93,430,80c13.37,24,20.82,61.72,26.58,102.52h0S489.56,293,392.08,299.1C318.46,303.71,279.46,265,282.4,200.79h0C281.62,164.85,290.57,118.72,297.39,91.5Z"/><path class="cls-28" d="M259.83,63.36A27.79,27.79,0,0,1,275.76,46.2a6.13,6.13,0,0,1-3.14-6.88,9.26,9.26,0,0,1,8.24,2.21c-5.9-6-2.39-15.26-2.39-15.26,13.81,5.12,11.13,12.28,11.13,12.28,5.27-11.82,22.07-16.41,22.07-16.41-.06,1.64,1.31,6.59.77,8.22C352.72,3.67,405.81,0,405.81,0c2.6,1.14,5,4.67,5.28,6.7,19.23-4.54,20.46-2.46,20.46-2.46,12,23.12,10.91,45.93,3.94,57.21A38.78,38.78,0,0,1,424.63,73.1s-15-6.95-40.32-5.37C349,70,336,76.24,328.5,81.81c-10.63,7.91-12.62,31.54-15,43.13-1.35,6.44-23.51,43.66-21.14,61,1.42,10.38-20.77,3.12-20.77,3.12a154.54,154.54,0,0,1-8.37-27.44C256.69,130.73,252.6,84.69,259.83,63.36Z"/><g class="cls-29"><ellipse class="cls-21" cx="351.97" cy="210.52" rx="34.88" ry="39.44" transform="translate(-18 33.53) rotate(-5.32)"/><ellipse class="cls-30" cx="351.97" cy="210.52" rx="34.66" ry="39.18" transform="translate(-18 33.54) rotate(-5.32)"/><ellipse class="cls-31" cx="351.97" cy="210.52" rx="34.43" ry="38.93" transform="translate(-18 33.54) rotate(-5.32)"/><ellipse class="cls-32" cx="351.97" cy="210.52" rx="34.21" ry="38.68" transform="translate(-18 33.54) rotate(-5.32)"/><ellipse class="cls-33" cx="351.97" cy="210.52" rx="33.98" ry="38.43" transform="translate(-18 33.53) rotate(-5.32)"/><ellipse class="cls-34" cx="351.97" cy="210.52" rx="33.76" ry="38.17" transform="translate(-18 33.54) rotate(-5.32)"/><ellipse class="cls-35" cx="351.97" cy="210.52" rx="33.54" ry="37.92" transform="translate(-18 33.54) rotate(-5.32)"/><ellipse class="cls-36" cx="351.97" cy="210.52" rx="33.31" ry="37.67" transform="translate(-18 33.54) rotate(-5.32)"/><ellipse class="cls-37" cx="351.97" cy="210.52" rx="33.09" ry="37.41" transform="translate(-18 33.53) rotate(-5.32)"/><ellipse class="cls-38" cx="351.97" cy="210.52" rx="32.87" ry="37.16" transform="translate(-18 33.54) rotate(-5.32)"/><ellipse class="cls-39" cx="351.97" cy="210.52" rx="32.64" ry="36.91" transform="translate(-18 33.53) rotate(-5.32)"/><ellipse class="cls-40" cx="351.97" cy="210.52" rx="32.42" ry="36.66" transform="translate(-18 33.54) rotate(-5.32)"/><ellipse class="cls-41" cx="351.97" cy="210.52" rx="32.2" ry="36.4" transform="translate(-18 33.53) rotate(-5.32)"/><ellipse class="cls-42" cx="351.97" cy="210.52" rx="31.97" ry="36.15" transform="matrix(1, -0.09, 0.09, 1, -18, 33.53)"/><ellipse class="cls-43" cx="351.97" cy="210.52" rx="31.75" ry="35.9" transform="translate(-18 33.54) rotate(-5.32)"/><ellipse class="cls-44" cx="351.97" cy="210.52" rx="31.53" ry="35.64" transform="translate(-18 33.54) rotate(-5.32)"/><ellipse class="cls-45" cx="351.97" cy="210.52" rx="31.3" ry="35.39" transform="translate(-18 33.54) rotate(-5.32)"/><ellipse class="cls-46" cx="351.97" cy="210.52" rx="31.08" ry="35.14" transform="translate(-18 33.54) rotate(-5.32)"/><ellipse class="cls-47" cx="351.97" cy="210.52" rx="30.85" ry="34.89" transform="translate(-18 33.54) rotate(-5.32)"/><ellipse class="cls-48" cx="351.97" cy="210.52" rx="30.63" ry="34.63" transform="translate(-18 33.54) rotate(-5.32)"/><ellipse class="cls-49" cx="351.97" cy="210.52" rx="30.41" ry="34.38" transform="translate(-18 33.54) rotate(-5.32)"/><ellipse class="cls-50" cx="351.97" cy="210.52" rx="30.18" ry="34.13" transform="matrix(1, -0.09, 0.09, 1, -18, 33.53)"/><ellipse class="cls-51" cx="351.97" cy="210.52" rx="29.96" ry="33.88" transform="translate(-18 33.54) rotate(-5.32)"/><ellipse class="cls-52" cx="351.97" cy="210.52" rx="29.74" ry="33.62" transform="translate(-18 33.54) rotate(-5.32)"/><ellipse class="cls-53" cx="351.97" cy="210.52" rx="29.51" ry="33.37" transform="translate(-18 33.54) rotate(-5.32)"/><ellipse class="cls-54" cx="351.97" cy="210.52" rx="29.29" ry="33.12" transform="translate(-18 33.53) rotate(-5.32)"/><ellipse class="cls-55" cx="351.97" cy="210.52" rx="29.07" ry="32.86" transform="translate(-18 33.53) rotate(-5.32)"/><ellipse class="cls-56" cx="351.97" cy="210.52" rx="28.84" ry="32.61" transform="translate(-18 33.54) rotate(-5.32)"/><ellipse class="cls-57" cx="351.97" cy="210.52" rx="28.62" ry="32.36" transform="translate(-18 33.54) rotate(-5.32)"/><ellipse class="cls-58" cx="351.97" cy="210.52" rx="28.4" ry="32.11" transform="translate(-18 33.54) rotate(-5.32)"/><ellipse class="cls-59" cx="351.97" cy="210.52" rx="28.17" ry="31.85" transform="translate(-18 33.54) rotate(-5.32)"/><ellipse class="cls-60" cx="351.97" cy="210.52" rx="27.95" ry="31.6" transform="translate(-18 33.54) rotate(-5.32)"/><ellipse class="cls-61" cx="351.97" cy="210.52" rx="27.72" ry="31.35" transform="translate(-18 33.54) rotate(-5.32)"/><ellipse class="cls-62" cx="351.97" cy="210.52" rx="27.5" ry="31.09" transform="translate(-18 33.53) rotate(-5.32)"/><ellipse class="cls-63" cx="351.97" cy="210.52" rx="27.28" ry="30.84" transform="translate(-18 33.54) rotate(-5.32)"/><ellipse class="cls-64" cx="351.97" cy="210.52" rx="27.05" ry="30.59" transform="translate(-18 33.54) rotate(-5.32)"/><ellipse class="cls-65" cx="351.97" cy="210.52" rx="26.83" ry="30.34" transform="translate(-18 33.54) rotate(-5.32)"/><ellipse class="cls-66" cx="351.97" cy="210.52" rx="26.61" ry="30.08" transform="translate(-18 33.53) rotate(-5.32)"/><ellipse class="cls-67" cx="351.97" cy="210.52" rx="26.38" ry="29.83" transform="translate(-18 33.53) rotate(-5.32)"/><ellipse class="cls-68" cx="351.97" cy="210.52" rx="26.16" ry="29.58" transform="matrix(1, -0.09, 0.09, 1, -18, 33.54)"/><ellipse class="cls-68" cx="351.97" cy="210.52" rx="25.94" ry="29.32" transform="translate(-18 33.54) rotate(-5.32)"/><ellipse class="cls-69" cx="351.97" cy="210.52" rx="25.71" ry="29.07" transform="translate(-18 33.54) rotate(-5.32)"/><ellipse class="cls-70" cx="351.97" cy="210.52" rx="25.49" ry="28.82" transform="translate(-18 33.54) rotate(-5.32)"/><ellipse class="cls-71" cx="351.97" cy="210.52" rx="25.27" ry="28.57" transform="translate(-18 33.54) rotate(-5.32)"/><ellipse class="cls-72" cx="351.97" cy="210.52" rx="25.04" ry="28.31" transform="translate(-18 33.54) rotate(-5.32)"/><ellipse class="cls-73" cx="351.97" cy="210.52" rx="24.82" ry="28.06" transform="translate(-18 33.54) rotate(-5.32)"/><ellipse class="cls-74" cx="351.97" cy="210.52" rx="24.59" ry="27.81" transform="translate(-18 33.54) rotate(-5.32)"/><ellipse class="cls-75" cx="351.97" cy="210.52" rx="24.37" ry="27.56" transform="translate(-18 33.54) rotate(-5.32)"/><ellipse class="cls-76" cx="351.97" cy="210.52" rx="24.15" ry="27.3" transform="translate(-18 33.54) rotate(-5.32)"/><ellipse class="cls-77" cx="351.97" cy="210.52" rx="23.92" ry="27.05" transform="translate(-18 33.53) rotate(-5.32)"/><ellipse class="cls-78" cx="351.97" cy="210.52" rx="23.7" ry="26.8" transform="translate(-18 33.53) rotate(-5.32)"/><ellipse class="cls-79" cx="351.97" cy="210.52" rx="23.48" ry="26.54" transform="translate(-18 33.53) rotate(-5.32)"/><path class="cls-80" d="M328.74,211.56c.8,14.5,11.85,25.78,24.68,25.21S376,224,375.21,209.48s-11.86-25.78-24.69-25.2S327.93,197.07,328.74,211.56Z"/><ellipse class="cls-81" cx="351.97" cy="210.52" rx="23.03" ry="26.04" transform="translate(-18 33.54) rotate(-5.32)"/><ellipse class="cls-82" cx="351.97" cy="210.52" rx="22.81" ry="25.79" transform="translate(-18 33.54) rotate(-5.32)"/><ellipse class="cls-83" cx="351.97" cy="210.52" rx="22.58" ry="25.53" transform="translate(-18 33.54) rotate(-5.32)"/><ellipse class="cls-84" cx="351.97" cy="210.52" rx="22.36" ry="25.28" transform="translate(-18 33.54) rotate(-5.32)"/><ellipse class="cls-85" cx="351.97" cy="210.52" rx="22.13" ry="25.03" transform="translate(-18 33.54) rotate(-5.32)"/><ellipse class="cls-86" cx="351.97" cy="210.52" rx="21.91" ry="24.77" transform="translate(-18 33.54) rotate(-5.32)"/><ellipse class="cls-87" cx="351.97" cy="210.52" rx="21.69" ry="24.52" transform="translate(-18 33.54) rotate(-5.32)"/><ellipse class="cls-88" cx="351.97" cy="210.52" rx="21.46" ry="24.27" transform="translate(-18 33.54) rotate(-5.32)"/><ellipse class="cls-89" cx="351.97" cy="210.52" rx="21.24" ry="24.02" transform="translate(-18 33.54) rotate(-5.32)"/><ellipse class="cls-90" cx="351.97" cy="210.52" rx="21.02" ry="23.76" transform="translate(-18 33.53) rotate(-5.32)"/><ellipse class="cls-91" cx="351.97" cy="210.52" rx="20.79" ry="23.51" transform="translate(-18 33.53) rotate(-5.32)"/><ellipse class="cls-92" cx="351.97" cy="210.52" rx="20.57" ry="23.26" transform="matrix(1, -0.09, 0.09, 1, -18, 33.53)"/><ellipse class="cls-93" cx="351.97" cy="210.52" rx="20.35" ry="23" transform="matrix(1, -0.09, 0.09, 1, -18, 33.54)"/><ellipse class="cls-94" cx="351.97" cy="210.52" rx="20.12" ry="22.75" transform="translate(-18 33.54) rotate(-5.32)"/><ellipse class="cls-95" cx="351.97" cy="210.52" rx="19.9" ry="22.5" transform="translate(-18 33.54) rotate(-5.32)"/><ellipse class="cls-96" cx="351.97" cy="210.52" rx="19.68" ry="22.25" transform="translate(-18 33.54) rotate(-5.32)"/><ellipse class="cls-97" cx="351.97" cy="210.52" rx="19.45" ry="21.99" transform="translate(-18 33.54) rotate(-5.32)"/><ellipse class="cls-98" cx="351.97" cy="210.52" rx="19.23" ry="21.74" transform="translate(-18 33.53) rotate(-5.32)"/><ellipse class="cls-99" cx="351.97" cy="210.52" rx="19" ry="21.49" transform="matrix(1, -0.09, 0.09, 1, -18, 33.54)"/><ellipse class="cls-100" cx="351.97" cy="210.52" rx="18.78" ry="21.24" transform="translate(-18 33.54) rotate(-5.32)"/><ellipse class="cls-101" cx="351.97" cy="210.52" rx="18.56" ry="20.98" transform="translate(-18 33.54) rotate(-5.32)"/><ellipse class="cls-102" cx="351.97" cy="210.52" rx="18.33" ry="20.73" transform="translate(-18 33.53) rotate(-5.32)"/><ellipse class="cls-103" cx="351.97" cy="210.52" rx="18.11" ry="20.48" transform="translate(-18 33.53) rotate(-5.32)"/><ellipse class="cls-104" cx="351.97" cy="210.52" rx="17.89" ry="20.22" transform="translate(-18 33.53) rotate(-5.32)"/><ellipse class="cls-105" cx="351.97" cy="210.52" rx="17.66" ry="19.97" transform="translate(-18 33.53) rotate(-5.32)"/><ellipse class="cls-106" cx="351.97" cy="210.52" rx="17.44" ry="19.72" transform="translate(-18 33.54) rotate(-5.32)"/></g><ellipse class="cls-21" cx="268.51" cy="210.53" rx="19.34" ry="27.65" transform="translate(-48.97 85.53) rotate(-16.61)"/><path class="cls-107" d="M259.1,219.18c9.76,5.58,22.25,2.72,29.56-3.8,3.47,7.66,3.43,23.79,3.43,23.79s-12.89-3.07-13.94-2.66c-11.7,4.6-22-4.07-27.19-18.42a39.06,39.06,0,0,1-2.23-11A23.17,23.17,0,0,0,259.1,219.18Z"/><path class="cls-108" d="M276.15,210.12,267.08,212c-.2-14.36-10.94-18.47-10.94-18.47C273.29,186.2,276.15,210.12,276.15,210.12Z"/><path class="cls-109" d="M338.13,233.29a.45.45,0,0,1,0,.08A.28.28,0,0,1,338.13,233.29Z"/><g class="cls-29"><ellipse class="cls-21" cx="425.69" cy="198.08" rx="40.08" ry="30.81" transform="translate(160.2 585.33) rotate(-80.52)"/><ellipse class="cls-30" cx="425.69" cy="198.08" rx="39.83" ry="30.62" transform="matrix(0.16, -0.99, 0.99, 0.16, 160.2, 585.33)"/><ellipse class="cls-31" cx="425.69" cy="198.08" rx="39.57" ry="30.42" transform="translate(160.19 585.33) rotate(-80.52)"/><ellipse class="cls-32" cx="425.69" cy="198.08" rx="39.31" ry="30.22" transform="translate(160.2 585.33) rotate(-80.52)"/><ellipse class="cls-33" cx="425.69" cy="198.08" rx="39.06" ry="30.02" transform="translate(160.2 585.33) rotate(-80.52)"/><ellipse class="cls-34" cx="425.69" cy="198.08" rx="38.8" ry="29.83" transform="translate(160.2 585.33) rotate(-80.52)"/><ellipse class="cls-35" cx="425.69" cy="198.08" rx="38.54" ry="29.63" transform="translate(160.2 585.33) rotate(-80.52)"/><ellipse class="cls-36" cx="425.69" cy="198.08" rx="38.29" ry="29.43" transform="translate(160.2 585.33) rotate(-80.52)"/><ellipse class="cls-37" cx="425.69" cy="198.08" rx="38.03" ry="29.23" transform="translate(160.2 585.33) rotate(-80.52)"/><ellipse class="cls-38" cx="425.69" cy="198.08" rx="37.77" ry="29.04" transform="translate(160.2 585.33) rotate(-80.52)"/><ellipse class="cls-39" cx="425.69" cy="198.08" rx="37.51" ry="28.84" transform="translate(160.2 585.33) rotate(-80.52)"/><ellipse class="cls-40" cx="425.69" cy="198.08" rx="37.26" ry="28.64" transform="translate(160.2 585.33) rotate(-80.52)"/><ellipse class="cls-41" cx="425.69" cy="198.08" rx="37" ry="28.44" transform="translate(160.2 585.33) rotate(-80.52)"/><ellipse class="cls-42" cx="425.69" cy="198.08" rx="36.74" ry="28.25" transform="matrix(0.16, -0.99, 0.99, 0.16, 160.2, 585.33)"/><ellipse class="cls-43" cx="425.69" cy="198.08" rx="36.49" ry="28.05" transform="translate(160.2 585.33) rotate(-80.52)"/><ellipse class="cls-44" cx="425.69" cy="198.08" rx="36.23" ry="27.85" transform="translate(160.2 585.33) rotate(-80.52)"/><ellipse class="cls-45" cx="425.69" cy="198.08" rx="35.97" ry="27.65" transform="translate(160.2 585.33) rotate(-80.52)"/><ellipse class="cls-46" cx="425.69" cy="198.08" rx="35.72" ry="27.46" transform="translate(160.2 585.33) rotate(-80.52)"/><ellipse class="cls-47" cx="425.69" cy="198.08" rx="35.46" ry="27.26" transform="translate(160.2 585.33) rotate(-80.52)"/><ellipse class="cls-48" cx="425.69" cy="198.08" rx="35.2" ry="27.06" transform="translate(160.2 585.33) rotate(-80.52)"/><ellipse class="cls-49" cx="425.69" cy="198.08" rx="34.95" ry="26.86" transform="matrix(0.16, -0.99, 0.99, 0.16, 160.2, 585.33)"/><ellipse class="cls-50" cx="425.69" cy="198.08" rx="34.69" ry="26.67" transform="translate(160.2 585.33) rotate(-80.52)"/><ellipse class="cls-51" cx="425.69" cy="198.08" rx="34.43" ry="26.47" transform="translate(160.2 585.33) rotate(-80.52)"/><ellipse class="cls-52" cx="425.69" cy="198.08" rx="34.17" ry="26.27" transform="translate(160.2 585.33) rotate(-80.52)"/><ellipse class="cls-53" cx="425.69" cy="198.08" rx="33.92" ry="26.07" transform="translate(160.2 585.33) rotate(-80.52)"/><ellipse class="cls-54" cx="425.69" cy="198.08" rx="33.66" ry="25.88" transform="translate(160.2 585.33) rotate(-80.52)"/><ellipse class="cls-55" cx="425.69" cy="198.08" rx="33.4" ry="25.68" transform="translate(160.2 585.33) rotate(-80.52)"/><ellipse class="cls-56" cx="425.69" cy="198.08" rx="33.15" ry="25.48" transform="translate(160.2 585.33) rotate(-80.52)"/><ellipse class="cls-57" cx="425.69" cy="198.08" rx="32.89" ry="25.28" transform="translate(160.2 585.33) rotate(-80.52)"/><ellipse class="cls-58" cx="425.69" cy="198.08" rx="32.63" ry="25.09" transform="translate(160.2 585.33) rotate(-80.52)"/><ellipse class="cls-59" cx="425.69" cy="198.08" rx="32.38" ry="24.89" transform="translate(160.2 585.33) rotate(-80.52)"/><ellipse class="cls-60" cx="425.69" cy="198.08" rx="32.12" ry="24.69" transform="translate(160.19 585.33) rotate(-80.52)"/><ellipse class="cls-61" cx="425.69" cy="198.08" rx="31.86" ry="24.49" transform="translate(160.2 585.33) rotate(-80.52)"/><ellipse class="cls-62" cx="425.69" cy="198.08" rx="31.6" ry="24.3" transform="translate(160.2 585.33) rotate(-80.52)"/><ellipse class="cls-63" cx="425.69" cy="198.08" rx="31.35" ry="24.1" transform="translate(160.2 585.33) rotate(-80.52)"/><ellipse class="cls-64" cx="425.69" cy="198.08" rx="31.09" ry="23.9" transform="translate(160.2 585.33) rotate(-80.52)"/><ellipse class="cls-65" cx="425.69" cy="198.08" rx="30.83" ry="23.7" transform="translate(160.2 585.33) rotate(-80.52)"/><ellipse class="cls-66" cx="425.69" cy="198.08" rx="30.58" ry="23.51" transform="translate(160.2 585.33) rotate(-80.52)"/><ellipse class="cls-67" cx="425.69" cy="198.08" rx="30.32" ry="23.31" transform="translate(160.2 585.33) rotate(-80.52)"/><ellipse class="cls-68" cx="425.69" cy="198.08" rx="30.06" ry="23.11" transform="translate(160.2 585.33) rotate(-80.52)"/><ellipse class="cls-68" cx="425.69" cy="198.08" rx="29.81" ry="22.91" transform="translate(160.2 585.33) rotate(-80.52)"/><ellipse class="cls-69" cx="425.69" cy="198.08" rx="29.55" ry="22.72" transform="translate(160.2 585.33) rotate(-80.52)"/><ellipse class="cls-70" cx="425.69" cy="198.08" rx="29.29" ry="22.52" transform="matrix(0.16, -0.99, 0.99, 0.16, 160.2, 585.33)"/><ellipse class="cls-71" cx="425.69" cy="198.08" rx="29.04" ry="22.32" transform="translate(160.2 585.33) rotate(-80.52)"/><ellipse class="cls-72" cx="425.69" cy="198.08" rx="28.78" ry="22.12" transform="translate(160.2 585.33) rotate(-80.52)"/><ellipse class="cls-73" cx="425.69" cy="198.08" rx="28.52" ry="21.93" transform="translate(160.2 585.33) rotate(-80.52)"/><ellipse class="cls-74" cx="425.69" cy="198.08" rx="28.26" ry="21.73" transform="translate(160.2 585.33) rotate(-80.52)"/><ellipse class="cls-75" cx="425.69" cy="198.08" rx="28.01" ry="21.53" transform="translate(160.2 585.33) rotate(-80.52)"/><ellipse class="cls-76" cx="425.69" cy="198.08" rx="27.75" ry="21.33" transform="translate(160.2 585.33) rotate(-80.52)"/><ellipse class="cls-77" cx="425.69" cy="198.08" rx="27.49" ry="21.14" transform="translate(160.2 585.33) rotate(-80.52)"/><ellipse class="cls-78" cx="425.69" cy="198.08" rx="27.24" ry="20.94" transform="translate(160.2 585.33) rotate(-80.52)"/><ellipse class="cls-79" cx="425.69" cy="198.08" rx="26.98" ry="20.74" transform="translate(160.2 585.33) rotate(-80.52)"/><ellipse class="cls-80" cx="425.69" cy="198.08" rx="26.72" ry="20.54" transform="translate(160.19 585.32) rotate(-80.52)"/><ellipse class="cls-81" cx="425.69" cy="198.08" rx="26.47" ry="20.35" transform="translate(160.2 585.33) rotate(-80.52)"/><ellipse class="cls-82" cx="425.69" cy="198.08" rx="26.21" ry="20.15" transform="translate(160.2 585.33) rotate(-80.52)"/><ellipse class="cls-83" cx="425.69" cy="198.08" rx="25.95" ry="19.95" transform="translate(160.2 585.33) rotate(-80.52)"/><ellipse class="cls-84" cx="425.69" cy="198.08" rx="25.69" ry="19.75" transform="translate(160.2 585.33) rotate(-80.52)"/><ellipse class="cls-85" cx="425.69" cy="198.08" rx="25.44" ry="19.56" transform="translate(160.2 585.33) rotate(-80.52)"/><ellipse class="cls-86" cx="425.69" cy="198.08" rx="25.18" ry="19.36" transform="translate(160.2 585.33) rotate(-80.52)"/><ellipse class="cls-87" cx="425.69" cy="198.08" rx="24.92" ry="19.16" transform="translate(160.2 585.33) rotate(-80.52)"/><ellipse class="cls-88" cx="425.69" cy="198.08" rx="24.67" ry="18.96" transform="translate(160.2 585.33) rotate(-80.52)"/><ellipse class="cls-89" cx="425.69" cy="198.08" rx="24.41" ry="18.77" transform="translate(160.2 585.33) rotate(-80.52)"/><ellipse class="cls-90" cx="425.69" cy="198.08" rx="24.15" ry="18.57" transform="translate(160.2 585.33) rotate(-80.52)"/><path class="cls-91" d="M407.18,198.82c-.57,13.12,7.27,23.42,17.49,23s19-11.37,19.54-24.49-7.27-23.42-17.5-23S407.74,185.7,407.18,198.82Z"/><ellipse class="cls-92" cx="425.69" cy="198.08" rx="23.64" ry="18.17" transform="translate(160.2 585.33) rotate(-80.52)"/><ellipse class="cls-93" cx="425.69" cy="198.08" rx="23.38" ry="17.98" transform="matrix(0.16, -0.99, 0.99, 0.16, 160.2, 585.33)"/><ellipse class="cls-94" cx="425.69" cy="198.08" rx="23.13" ry="17.78" transform="translate(160.2 585.33) rotate(-80.52)"/><ellipse class="cls-95" cx="425.69" cy="198.08" rx="22.87" ry="17.58" transform="translate(160.2 585.33) rotate(-80.52)"/><ellipse class="cls-96" cx="425.69" cy="198.08" rx="22.61" ry="17.38" transform="translate(160.2 585.33) rotate(-80.52)"/><ellipse class="cls-97" cx="425.69" cy="198.08" rx="22.35" ry="17.18" transform="translate(160.2 585.33) rotate(-80.52)"/><ellipse class="cls-98" cx="425.69" cy="198.08" rx="22.1" ry="16.99" transform="translate(160.2 585.33) rotate(-80.52)"/><path class="cls-99" d="M408.77,198.75c-.51,12,6.64,21.41,16,21s17.34-10.4,17.85-22.39-6.64-21.4-16-21S409.29,186.76,408.77,198.75Z"/><ellipse class="cls-100" cx="425.69" cy="198.08" rx="21.58" ry="16.59" transform="translate(160.2 585.33) rotate(-80.52)"/><ellipse class="cls-101" cx="425.69" cy="198.08" rx="21.33" ry="16.39" transform="translate(160.19 585.32) rotate(-80.52)"/><ellipse class="cls-102" cx="425.69" cy="198.08" rx="21.07" ry="16.2" transform="translate(160.2 585.33) rotate(-80.52)"/><ellipse class="cls-103" cx="425.69" cy="198.08" rx="20.81" ry="16" transform="translate(160.19 585.32) rotate(-80.52)"/><ellipse class="cls-104" cx="425.69" cy="198.08" rx="20.56" ry="15.8" transform="translate(160.2 585.33) rotate(-80.52)"/><ellipse class="cls-105" cx="425.69" cy="198.08" rx="20.3" ry="15.6" transform="translate(160.2 585.33) rotate(-80.52)"/><ellipse class="cls-106" cx="425.69" cy="198.08" rx="20.04" ry="15.41" transform="translate(160.2 585.33) rotate(-80.52)"/></g><path class="cls-110" d="M269.48,49.77a28.22,28.22,0,0,1,6.28-3.57l0,0c2.61.43,5,1,8.06,1.41,11.73,1.73,23.82.08,35.11-3.25,13.81-4.07,26-11.88,38.43-18.81,23.53-13.08,53.9-23.34,79.07-8.51l.68.42a75.16,75.16,0,0,1,3.31,15.82c-8.92-3.93-19.16-5.95-28.78-4.36-28.84,4.77-52.32,24.21-80.51,30.86C310.05,64.73,288.67,58.31,269.48,49.77Z"/><path class="cls-111" d="M371.41,121s13.66,30.19-5.48,55.67l-45.11.34s.19-16.69,1.23-26.46S371.41,121,371.41,121Z"/><path class="cls-112" d="M448.39,140c2.92,8.12,3.45,25.69,3.45,25.69L412,174.15c-15.74-17.69-6.57-56.31-6.57-56.31S445.47,131.88,448.39,140Z"/><path class="cls-113" d="M339.9,161c18.81-2.94,25.89,15.29,25.89,15.29s-3.67,4.9-23.49,6c-22.58,1.28-21.48-5.28-21.48-5.28S321.09,164,339.9,161Z"/><path class="cls-113" d="M450.63,165.73s-1.94,6.67-15.56,9.09c-18.66,3.32-23.05-.67-23.05-.67S429.47,136.4,450.63,165.73Z"/><path class="cls-114" d="M437,174.43a15.16,15.16,0,0,0-.06-4.79c-1.07-6.28-5.5-11.26-10.07-11.46l-.11,0a30.9,30.9,0,0,0-6.9,6.3,14.58,14.58,0,0,0-.13,5.77,16.89,16.89,0,0,0,2.18,5.85,74.94,74.94,0,0,0,13.17-1.32C435.74,174.7,436.37,174.57,437,174.43Z"/><path class="cls-115" d="M342.3,182.32c2.79-.16,5.24-.39,7.43-.67a14.07,14.07,0,0,0,.36-6.63c-.92-5.45-4.39-9.92-8.28-11.14a22.43,22.43,0,0,0-3.43-.18c-4.09.92-6.51,6-5.49,12a16.7,16.7,0,0,0,2.78,6.79C337.62,182.5,339.8,182.46,342.3,182.32Z"/><path class="cls-116" d="M433.39,151.29c14.95-1.62,17.24,14.44,17.24,14.44s-4.66-8.07-16.19-7.41c-12.65.73-22.55,15.83-22.55,15.83S413.18,153.49,433.39,151.29Z"/><path class="cls-117" d="M428.38,223.74c2.22,2.72,3.92,20-28,20.62-36.21.71-36.4-17-34.57-17.63S418.48,211.6,428.38,223.74Z"/><path class="cls-118" d="M449.2,142.71c-17.58-12.27-33-4.89-41.17-12.2-3.1-2.79-2.46-13.84-2.46-13.84C448.22,119,449.2,142.71,449.2,142.71Z"/><path class="cls-119" d="M370.07,118.46s5.43,10.83,3,14.39c-7.66,11.11-33.94,2.52-50.48,15C322.57,147.81,316.89,130.85,370.07,118.46Z"/><path class="cls-116" d="M342,157.6c21.33-2.92,23.83,18.7,23.83,18.7s-4.47-13.17-23-10.59-22.06,11.34-22.06,11.34S320.31,160.56,342,157.6Z"/><path class="cls-109" d="M336.73,234.8l0,.08Z"/><path class="cls-120" d="M424.34,169.29a4.45,4.45,0,0,0,4.34,4.16,3.81,3.81,0,0,0,3.71-4.23,4.47,4.47,0,0,0-4.34-4.16A3.81,3.81,0,0,0,424.34,169.29Z"/><path class="cls-121" d="M280.5,236.71s20.33,75.9,109.77,66.62c79.25-8.21,84.21-55.06,69.94-107.4l-.66-.33s1.79,15.63-.77,22.44c-3.92,10.42-15,12.1-14.23,10.08,11-30-44.19-21.58-44.19-21.58s-63.65.15-53.91,25c.9,2.3-30.05,4.44-42.64-11.79-7.15-9.21-9.84-15-11.49-33.76l-15.24,2.78S294.33,211.42,280.5,236.71Zm78.66-10.26c3.17-2.52,17.37,8.2,41.35,6.66s28.78-13.21,32.76-10.57c4.34,2.88.34,31.85-33.6,34.17C364.46,259.11,354.42,230.21,359.16,226.45Z"/><path class="cls-120" d="M337.76,175.49a4.66,4.66,0,0,0,4.53,4.35,4,4,0,0,0,3.88-4.41,4.66,4.66,0,0,0-4.53-4.35A4,4,0,0,0,337.76,175.49Z"/><path class="cls-122" d="M400.36,206.54a179.69,179.69,0,0,0-23.31,1.87c2.93,5.11,9.69,12.78,23.31,13.07,17.14.37,22.28-10.77,24.11-15.65A111,111,0,0,0,400.36,206.54Z"/><path class="cls-123" d="M427.62,170.83c-1.09,1.7-3,2.74-4.31,2.32s-1.46-2.15-.37-3.85,3-2.74,4.32-2.32S428.72,169.13,427.62,170.83Z"/><path class="cls-123" d="M341.25,178c-1.66,1.51-3.93,2-5.08,1.19s-.73-2.76.93-4.27,3.94-2,5.08-1.19S342.91,176.52,341.25,178Z"/><path class="cls-21" d="M394.31,166.57c.69,5.32,2,13.87,8.39,15.93,5.49,1.76,17.71-2.2,22.08,11.88,5.56,17.88-32.13,29.29-42.64,10.94-5.89-10.26-1.9-26.12,3.86-38.42Z"/><path class="cls-124" d="M409.66,201.85a76,76,0,0,0,15.67-3.43c-.69,15.44-33.5,23.83-43.19,6.9a20,20,0,0,1-1.63-3.69C389.86,203.55,400.41,203,409.66,201.85Z"/><path class="cls-125" d="M390.14,170.71l4.33-.17s1.49,10,4.95,12.56c1.27.94,3.94,1.44,6.34,1.31,7.13-.38,13.05,1,13.25,4.12s-5.43,6-12.55,6.73c-6.67.71-11.56-.67-14.25-3.11C388.55,188.83,387.45,176.82,390.14,170.71Z"/><path class="cls-126" d="M298.09,70.56c-3.34-1.15-5.91,4.36-2.7,5.77A99.67,99.67,0,0,0,326.08,84a17.43,17.43,0,0,1,2.42-2.23,45.51,45.51,0,0,1,7.93-4.73A116.63,116.63,0,0,1,298.09,70.56Z"/><path class="cls-126" d="M390.64,264.49a45.12,45.12,0,0,0,15-.47,4.65,4.65,0,0,1,5.64,5.17c-.44,3.49-3.26,7.11-13,7.23-9.53.12-12.49-3-13.08-6.23A5,5,0,0,1,390.64,264.49Z"/><path class="cls-127" d="M375.65,705.89l5,.07c3.75-95.35.46-323.26-.41-378.47l-.35.05a17.48,17.48,0,0,1-4.66-.17C376.1,382.22,379.4,610.69,375.65,705.89Z"/><path class="cls-128" d="M352.33,407.11s31.58,2.42,35.88-7.21-1.87-17.14-7.88-16.55-30.63,3.29-31.46,4.37S352.33,407.11,352.33,407.11Z"/><path class="cls-129" d="M360.88,340.92c-1.11.61.5,51.05,2.84,53.93s87.86-4.32,88.36-7.09-2.48-53.3-3.92-54.38S363.15,339.7,360.88,340.92Z"/><path class="cls-21" d="M305.8,379.65s46.64-7.56,54.32-4.51,19.79,25.94,17,33.19-11.19,6.95-14.47,4.59S356.4,404,356.4,404s.8,6.1-2.17,9.22l-3,3.12s2.63,2.34,2.77,7.28-6.17,12.55-6.17,12.55,1.75,8.64-1.75,13.74-18.74,7.69-18.74,7.69-3.64,16.5-13,22.14-10.19,5.23-13.88,6.05c-9.4,2.07-66.31,100-78.21,110.69s-49.32,12.17-58.83,5-6.42-57.71,1.65-65.36,109.31-87.21,109.72-88.73,10.84-49.11,13.45-51.25l2.61-2.14A17,17,0,0,1,305.8,379.65Z"/><path class="cls-130" d="M356.4,404s3,6.52,6.26,8.88,11.69,2.67,14.47-4.59-9.34-30.13-17-33.19-54.32,4.51-54.32,4.51l-.46.08c-1.6,10.91-8.75,62.5-3,75.93,2.78,6.47,13,7.51,23.7,6.6.92-2.73,1.34-4.62,1.34-4.62s15.24-2.59,18.74-7.69,1.75-13.74,1.75-13.74,6.3-7.61,6.17-12.55-2.77-7.28-2.77-7.28l3-3.12C357.2,410.14,356.4,404,356.4,404Z"/><path class="cls-131" d="M369.59,358.6c-.29.52.25,10.83.51,11.11s17.09-1.07,17.29-1.46a105,105,0,0,0-1-10.9C386.12,356.93,369.9,358,369.59,358.6Z"/><path class="cls-132" d="M370.84,373.24c-.65.49.11,7.36.46,7.62s74.24-5.43,74.5-5.78-.47-7.76-.73-8S371.38,372.83,370.84,373.24Z"/><path class="cls-133" d="M377,401.75c-.19,1.12-.41,2.56-.63,4.29-.58,4.5-6,7.29-10.62,5.88s-9.17-15.48-11-16.37-55.27-.2-55.27-.2a16,16,0,0,0,.07,3.48c.26.51,50.59-2.88,53.39.85.91,1.2,1.26,4.44.88,7.38s-3.07,5.12-4.1,6.14-46.42,1.54-47.19,1.79-1,2.69-.38,3.58,44.63-2.17,45.78-1.91,3.59,3.45,3.46,6.39-3.2,8.19-4.61,8.7-42.28,3.35-43.61,3.54-.57,3.61-.19,4.55,41.39-4.36,42.34-4,.38,11-2.09,13.86-42.53,14.24-49.14,9.11-6.49-47.66-5.16-51.45,7-10.64,7-10.64-1.52-.76-1.7-4c-.16-2.61,2.4-8.54,4-10.44A17.17,17.17,0,0,0,290.88,394l-2.61,2.14c-2.61,2.14-13,49.72-13.45,51.25a2.05,2.05,0,0,1-.42.45c2.35,5,7.53,22,7.14,29.47-.47,9.17-60,100.09-72.94,104.8s-34.82,5.17-37.65,1.41c-2.37-3.17-2.58-38.91-2.59-50.23-1.54,1.29-2.66,2.26-3.26,2.83-8.07,7.65-11.17,58.15-1.65,65.36s46.94,5.75,58.83-5,68.81-108.62,78.21-110.69c3.69-.82,4.52-.41,13.88-6.05s13-22.14,13-22.14,15.24-2.59,18.74-7.69,1.75-13.74,1.75-13.74,6.3-7.61,6.17-12.55-2.77-7.28-2.77-7.28l3-3.12c3-3.12,2.17-9.22,2.17-9.22s3,6.52,6.26,8.88,11.69,2.67,14.47-4.59C377.73,406.76,377.63,404.44,377,401.75Z"/></g></g></svg>