<svg xmlns="http://www.w3.org/2000/svg" xmlns:xlink="http://www.w3.org/1999/xlink" viewBox="0 0 1249.97 1998.02"><defs><style>.cls-1{fill:#303940;}.cls-2,.cls-97{opacity:0.11;}.cls-3{fill:#fd9477;}.cls-4{fill:url(#Áåçûìÿííûé_ãðàäèåíò_6);}.cls-5{fill:#fd9677;}.cls-6{fill:#667eb5;}.cls-7{fill:#fd8468;}.cls-8{fill:#393e3f;}.cls-9{fill:#dde5ea;}.cls-10{fill:#00263b;}.cls-10,.cls-120{opacity:0.08;}.cls-11{fill:#6d88be;}.cls-12{fill:#fb7258;}.cls-13{fill:#acb3c0;}.cls-108,.cls-113,.cls-115,.cls-120,.cls-14{fill:#fff;}.cls-14{opacity:0.12;}.cls-15{fill:#7c302a;}.cls-16{fill:#ff8768;}.cls-17{fill:#3e1208;}.cls-18{fill:#fd9777;}.cls-19{opacity:0.44;}.cls-20{fill:#fd9676;}.cls-21{fill:#fd9576;}.cls-22{fill:#fd9475;}.cls-23{fill:#fd9375;}.cls-24{fill:#fd9274;}.cls-25{fill:#fd9173;}.cls-26{fill:#fd9073;}.cls-27{fill:#fd8f72;}.cls-28{fill:#fd8e71;}.cls-29{fill:#fd8d71;}.cls-30{fill:#fd8c70;}.cls-31{fill:#fd8b70;}.cls-32{fill:#fd8a6f;}.cls-33{fill:#fd896e;}.cls-34{fill:#fd886e;}.cls-35{fill:#fd876d;}.cls-36{fill:#fd866c;}.cls-37{fill:#fd856c;}.cls-38{fill:#fd846b;}.cls-39{fill:#fd836b;}.cls-40{fill:#fd826a;}.cls-41{fill:#fd8169;}.cls-42{fill:#fd8069;}.cls-43{fill:#fd7f68;}.cls-44{fill:#fd7e67;}.cls-45{fill:#fd7d67;}.cls-46{fill:#fd7c66;}.cls-47{fill:#fd7b66;}.cls-48{fill:#fd7a65;}.cls-49{fill:#fd7964;}.cls-50{fill:#fd7864;}.cls-51{fill:#fd7763;}.cls-52{fill:#fd7662;}.cls-53{fill:#fd7562;}.cls-54{fill:#fd7461;}.cls-55{fill:#fd7361;}.cls-56{fill:#fd7260;}.cls-57{fill:#fd725f;}.cls-58{fill:#fd715f;}.cls-59{fill:#fd705e;}.cls-60{fill:#fd6f5e;}.cls-61{fill:#fd6e5d;}.cls-62{fill:#fd6d5c;}.cls-63{fill:#fd6c5c;}.cls-64{fill:#fd6b5b;}.cls-65{fill:#fd6a5a;}.cls-66{fill:#fd695a;}.cls-67{fill:#fd6859;}.cls-68{fill:#fd6759;}.cls-69{fill:#fd6658;}.cls-70{fill:#fd6557;}.cls-71{fill:#fd6457;}.cls-72{fill:#fd6356;}.cls-73{fill:#fd6255;}.cls-74{fill:#fd6155;}.cls-75{fill:#fd6054;}.cls-76{fill:#fd5f54;}.cls-77{fill:#fd5e53;}.cls-78{fill:#fd5d52;}.cls-79{fill:#fd5c52;}.cls-80{fill:#fd5b51;}.cls-81{fill:#fd5a50;}.cls-82{fill:#fd5950;}.cls-83{fill:#fd584f;}.cls-84{fill:#fd574f;}.cls-85{fill:#fd564e;}.cls-86{fill:#fd554d;}.cls-87{fill:#fd544d;}.cls-88{fill:#fd534c;}.cls-89{fill:#fd524b;}.cls-90{fill:#fd514b;}.cls-91{fill:#fd504a;}.cls-92{fill:#fd4f4a;}.cls-93{fill:#fd4e49;}.cls-94{fill:url(#Áåçûìÿííûé_ãðàäèåíò_57);}.cls-95{fill:#5a352c;}.cls-96{fill:url(#Áåçûìÿííûé_ãðàäèåíò_4);}.cls-97{fill:#fdba7f;}.cls-98{fill:#e3d7cd;}.cls-99{fill:#ba9e89;opacity:0.53;}.cls-100{fill:url(#Áåçûìÿííûé_ãðàäèåíò_57-2);}.cls-101{fill:url(#Áåçûìÿííûé_ãðàäèåíò_57-3);}.cls-102{fill:#43271e;}.cls-103,.cls-114{fill:#fd8368;}.cls-103{opacity:0.5;}.cls-104{fill:#472a21;}.cls-105{fill:#442121;}.cls-105,.cls-115{opacity:0.2;}.cls-106{fill:url(#Áåçûìÿííûé_ãðàäèåíò_6-2);}.cls-107{fill:#b4bdcf;}.cls-109{fill:url(#Áåçûìÿííûé_ãðàäèåíò_12);}.cls-110{fill:url(#Áåçûìÿííûé_ãðàäèåíò_12-2);}.cls-111{fill:#613f37;}.cls-112{fill:#231a1a;}.cls-113{opacity:0.82;}.cls-116{fill:url(#Áåçûìÿííûé_ãðàäèåíò_6-3);}.cls-117{fill:#667eb2;}.cls-118{fill:#6d85bb;}.cls-119{fill:url(#Áåçûìÿííûé_ãðàäèåíò_6-4);}.cls-121{fill:#899bc1;}.cls-122{fill:#f67f67;}.cls-123{fill:#9bb0d4;}</style><linearGradient id="Áåçûìÿííûé_ãðàäèåíò_6" x1="958.1" y1="1532.01" x2="916.67" y2="1490.57" gradientUnits="userSpaceOnUse"><stop offset="0" stop-color="#fd8268"/><stop offset="1" stop-color="#fd9677"/></linearGradient><linearGradient id="Áåçûìÿííûé_ãðàäèåíò_57" x1="676.65" y1="52.13" x2="662.05" y2="206.48" gradientUnits="userSpaceOnUse"><stop offset="0" stop-color="#75473b"/><stop offset="0.35" stop-color="#704438"/><stop offset="0.75" stop-color="#633c30"/><stop offset="1" stop-color="#563428"/></linearGradient><linearGradient id="Áåçûìÿííûé_ãðàäèåíò_4" x1="615.09" y1="523.37" x2="615.09" y2="534.28" gradientUnits="userSpaceOnUse"><stop offset="0" stop-color="#140c0a"/><stop offset="1" stop-color="#39160a"/></linearGradient><linearGradient id="Áåçûìÿííûé_ãðàäèåíò_57-2" x1="633.89" y1="606.16" x2="633.89" y2="424.35" xlink:href="#Áåçûìÿííûé_ãðàäèåíò_57"/><linearGradient id="Áåçûìÿííûé_ãðàäèåíò_57-3" x1="612.53" y1="544.39" x2="612.53" y2="478.13" xlink:href="#Áåçûìÿííûé_ãðàäèåíò_57"/><linearGradient id="Áåçûìÿííûé_ãðàäèåíò_6-2" x1="572.5" y1="653.69" x2="262.88" y2="295.09" xlink:href="#Áåçûìÿííûé_ãðàäèåíò_6"/><linearGradient id="Áåçûìÿííûé_ãðàäèåíò_12" x1="533.71" y1="376.18" x2="551.81" y2="327.9" gradientTransform="matrix(0.99, 0.03, -0.04, 1, 17.61, -1.02)" gradientUnits="userSpaceOnUse"><stop offset="0" stop-color="#704a3e"/><stop offset="1"/></linearGradient><linearGradient id="Áåçûìÿííûé_ãðàäèåíò_12-2" x1="714.82" y1="389.06" x2="731.3" y2="339.1" gradientTransform="matrix(1, 0, 0, 1, 0, 0)" xlink:href="#Áåçûìÿííûé_ãðàäèåíò_12"/><linearGradient id="Áåçûìÿííûé_ãðàäèåíò_6-3" x1="1274.1" y1="1515.26" x2="1063.08" y2="1304.24" xlink:href="#Áåçûìÿííûé_ãðàäèåíò_6"/><linearGradient id="Áåçûìÿííûé_ãðàäèåíò_6-4" x1="1030.56" y1="1768.31" x2="795.9" y2="1533.65" xlink:href="#Áåçûìÿííûé_ãðàäèåíò_6"/></defs><g id="Layer_2" data-name="Layer 2"><g id="Ñëîé_1" data-name="Ñëîé 1"><path class="cls-1" d="M562.35,1998c9.9-133.28,23.22-229.47,27.83-254.52-1-.07-33.69,3.56-34.71,3.42-79.65-11.13-153.5-107.37-232.94-119.74-7.48,66.43-11.43,204.27-8.84,370.84Z"/><path class="cls-1" d="M906.16,1998c-4.51-175.88,7.7-347.72,8-351.18L657,1687.37c-14.81,1.28-31,33.88-32.3,86.77-1.42,57.27,5.77,137.41,18.35,223.88Z"/><path class="cls-1" d="M326.13,1566.69c-6.49,109.55-12.28,200.48-12.28,200.48s172.1,18.61,357.84,16.94c120.71-1.09,223.74,8.74,231.59-45,7.3-49.94,12.91-109.82,17.39-172.38Z"/><path class="cls-2" d="M585.22,1749.08c-173.53,6.41-18.84,43.62-2.35,43.79l1.26-9.42c12.94.45,17.44.76,40.39.76,0,0,0,5.64,0,9C625.07,1793,758.38,1742.69,585.22,1749.08Z"/><path class="cls-3" d="M961.91,1518c-12.36-7.89-15.18-26.82-27.46-29.06s-26,3.8-26,3.8l2.66,19.67L962.28,1527l10.46-7.73S964,1519.35,961.91,1518Z"/><path class="cls-4" d="M961.91,1518c-12.36-7.89-15.18-26.82-27.46-29.06s-26,3.8-26,3.8l2.66,19.67L962.28,1527l10.46-7.73S964,1519.35,961.91,1518Z"/><path class="cls-5" d="M446.16,360.78c17.69-20.6-55.92-93.11-55.92-93.11S155.35,450.55,71.14,567.32,14.31,730.43,72.7,779.54C139.69,835.89,379.82,888,379.82,888L522.23,659,249.61,639.34S315.22,513.18,446.16,360.78Z"/><path class="cls-6" d="M146,747.75c-87.82,22-124.91-16.5-126.81-74.69-7.29,46.27,17.07,75.84,53.5,106.48C139.69,835.89,379.82,888,379.82,888L529,654.74c-4.15,6.49-19.44-5.32-22.17-7.41a16.88,16.88,0,0,0-21.46,1.4c-.49-4.55-6.58-5.58-11.16-5.4l-17.22.68-43.16,1.7c-23.76.93-47.63-1.4-71.33-4.43-11.34-1.45-23.26-5.64-34.7-5.55a47.09,47.09,0,0,1-5.94,0c-1.84-.22-3.6-.83-5.41-1.23a23.15,23.15,0,0,0-17,2.91c-1.2-4.48-6.38-6.93-11-6.62-12.85.87-16.09,15.64-21.65,25.34a292,292,0,0,1-22.89,34.24C204,715.84,178.15,739.71,146,747.75Z"/><path class="cls-7" d="M660.12,474h0c-45.08-.77-77.87,21.81-78.37,54L565.58,674.41c-.51,32.22,45,37.17,90.12,38s82-4.59,82.47-36.81V537C738.67,504.8,705.2,474.82,660.12,474Z"/><polygon class="cls-8" points="691.26 1679.35 741.46 1684.79 809.99 1563.01 762.02 1563.01 691.26 1679.35"/><path class="cls-7" d="M487.44,672V782H814.26V661C716.25,632.05,582.32,632.32,487.44,672Z"/><path class="cls-9" d="M797.72,654.9c-9.47,56.38-80.41,69.12-158.05,70.38-70.09,1.13-101.92-14-114.29-67.79-23.23,4-82.48,22.88-115.31,43.9v947c52.11,11.68,128.26,23.38,221.4,22.19,100-1.29,174.27-15.18,220.3-27.17V670.34a167.84,167.84,0,0,0-27.7-8.26C815.56,659.65,806.78,657.28,797.72,654.9Z"/><path class="cls-6" d="M547.34,653.09c-42.06,0-125.93,34.21-151.59,59.29C340.84,766,340.19,897.73,335,1089.1c-5.61,205.36-5.67,185.36-32.21,581.57,0,0,115.31,27.23,257.29,35-19.56-284.23,39.38-908.54,43.87-954.71C600.94,736.25,556.7,693.81,547.34,653.09Z"/><path class="cls-6" d="M944.06,833.35c0-18.51,3.36-145.68-120-171.27-8.51-2.43-47.58-12.68-56.64-15.06-8.13,48.41-27.79,38.7-85.6,102.73-5.61,56.28-50.36,517.66-40.38,966.32,172.34-3.71,314.66-62.6,314.66-62.6-4.82-56.55-36.69-89.45-38.74-163.58C911.42,1274.53,943.68,977.35,944.06,833.35Z"/><path class="cls-10" d="M524.9,656h0s-21.3,95.64-.06,137.37c0,0,5.46-60.14,31.86-49.71,17.53,6.93,34.73,31.81,44.43,47.41,1.31-20.88,2.28-34.92,2.79-40.13-2.89-14.22-44.43-54.25-55.52-93.79A110,110,0,0,0,524.9,656Z"/><path class="cls-11" d="M550.32,694.08c-.45,3.28-45.16,331.44-58.08,608.59-8.57,184-5.81,323.75-2.95,397.48q10.32,1,21,2c-2.88-72.4-5.82-212.66,2.84-398.48,12-258.16,51.77-560.9,57.27-602q-1.75-2.61-3.47-5.28Z"/><path class="cls-12" d="M634.56,666.55c30-1.07,65.89-6.91,105.41-22a29.81,29.81,0,0,1-.76-5.95l.46-18.87C664.21,650,601.35,648.63,570.27,642l-.72,9a25.94,25.94,0,0,1-3.11,9.79A276.08,276.08,0,0,0,634.56,666.55Z"/><path class="cls-11" d="M744.66,703.4,732,702c-2.8,2.32-5.81,4.83-9,7.57-5.49,51.78-33.87,331.75-34.47,595.62-.44,191.12,7.28,332.5,12.67,407.43q10.5-1,20.76-2.16c-5.35-74.62-13-215.18-12.56-405.23C710.06,1015.68,744.32,706.49,744.66,703.4Z"/><path class="cls-10" d="M782.15,656a91.76,91.76,0,0,0-16.53.29c-9.14,38.42-29.87,33.85-83.79,93.59-.64,6.43-3.56,26.89-4.88,51.49,17.74-18.53,58.62-52,73.4-57.82,26.4-10.44,31.86,49.84,31.86,49.84,21.24-41.74-.06-137.39-.06-137.39Z"/><polygon class="cls-11" points="374.6 845.76 364.03 867.75 545.91 837.15 542.55 816.56 374.6 845.76"/><path class="cls-11" d="M572.63,611.81s-21.71,8-50.4,47.21-2.61,120.17-2.61,120.17S524,760.06,533.56,728c14.09-47.09,70.36,22.92,70.36,22.92s-5-27.61-16.48-53.42C570.05,658.33,572.63,611.81,572.63,611.81Z"/><ellipse class="cls-13" cx="546.08" cy="1168.3" rx="13.98" ry="12.39"/><ellipse class="cls-13" cx="535.47" cy="1341.83" rx="13.98" ry="12.39"/><ellipse class="cls-13" cx="531.93" cy="1514.79" rx="13.98" ry="12.39"/><ellipse class="cls-13" cx="573" cy="832.95" rx="13.98" ry="12.39"/><ellipse class="cls-13" cx="559.84" cy="992.33" rx="13.98" ry="12.39"/><path class="cls-11" d="M738.11,618.46s1.5,16.77-15.89,55.95c-11.46,25.81-36.52,44.35-40.57,77.34,0,0,77.76-70.83,91.85-23.74,9.58,32,13.93,51.18,13.93,51.18s26.08-81-2.61-120.17S738.11,618.46,738.11,618.46Z"/><path class="cls-14" d="M572.63,611.81s-5.49,2.09-14.53,9c-20.79,19.82-17.47,59.84-8.19,91.06,21.79-.95,54,39,54,39s-5-27.61-16.48-53.42C570.05,658.33,572.63,611.81,572.63,611.81Z"/><path class="cls-14" d="M738.11,618.46s1.5,16.77-15.89,55.95c-11.46,25.81-36.52,44.35-40.57,77.34,0,0,45-41,72.76-39.82,5.16-32.72,5.43-65.71-15.86-93.41Z"/><path class="cls-11" d="M474,643.33l-17.09.68-14.05.55c-31.07,38.85-81.83,151.05-100,244.25-4.43,56.38-5.79,123.53-7.88,200.29-.37,13.57-.72,26.15-1.05,37.93C359,799.67,455.74,668.22,476.43,643.69Z"/><path class="cls-11" d="M356.29,1115.8a32.46,32.46,0,0,0,15.45,30.08l29.92,18.27a25.56,25.56,0,0,0,27-.23l38.88-24.66a31.44,31.44,0,0,0,14.51-24.17l9.33-122.44h-126Z"/><path class="cls-11" d="M884.82,998.56l-137.22-.24-6,120.4a33.44,33.44,0,0,0,13.86,29l24.78,17.82c13.27,9.54,31.82,8.93,45.37-1.49l39.2-30.14a46.58,46.58,0,0,0,18.43-36Z"/><path class="cls-15" d="M690.5,482.18l0-.17S690.48,482.08,690.5,482.18Z"/><path class="cls-16" d="M448.8,364.3c-21.08,6.81-30.72,37.49-21.51,68.54s33.76,50.69,54.85,43.88,30.72-37.5,21.51-68.54S469.89,357.49,448.8,364.3Z"/><path class="cls-17" d="M560.77,78.84s0-.35-.1-.94C560.73,78.51,560.77,78.84,560.77,78.84Z"/><path class="cls-5" d="M817.17,402.31c.66-75.41-9.83-170.84-24.88-227.08C780.83,102.15,575,66.49,513.77,166.42c-19.59,46.4-51.54,133-62.5,219.15,0-.92,0-1.47,0-1.47s-57.37,229,146.55,244.35,227.25-92.06,219.32-226.16Z"/><ellipse class="cls-18" cx="842.4" cy="421.17" rx="58.65" ry="40.1" transform="matrix(0.3, -0.95, 0.95, 0.3, 187.21, 1097.73)"/><path class="cls-7" d="M863.05,438.19c-17.09,10.76-35,9.41-49.49,1.11v65.24a290.26,290.26,0,0,0,3.86-31.08,27.33,27.33,0,0,0,6.15,3.23c20.8,7.62,46.1-11.06,56.5-41.73a82.86,82.86,0,0,0,4.38-23.36A51.58,51.58,0,0,1,863.05,438.19Z"/><path class="cls-7" d="M826.36,421.19l19.06,2.86c0-30.11,22.43-40,22.43-40C831.69,370.74,826.36,421.19,826.36,421.19Z"/><path class="cls-15" d="M701.23,477l0-.17S701.21,476.89,701.23,477Z"/><g class="cls-19"><circle class="cls-18" cx="712.39" cy="440.53" r="81.28" transform="translate(-124.02 396.02) rotate(-28.69)"/><circle class="cls-20" cx="712.39" cy="440.53" r="80.73" transform="translate(-102.85 632.77) rotate(-45)"/><circle class="cls-21" cx="712.39" cy="440.53" r="80.18" transform="translate(-102.85 632.77) rotate(-45)"/><circle class="cls-22" cx="712.39" cy="440.53" r="79.63" transform="translate(-102.85 632.77) rotate(-45)"/><circle class="cls-23" cx="712.39" cy="440.53" r="79.08" transform="translate(-124.9 418.05) rotate(-30.19)"/><circle class="cls-24" cx="712.39" cy="440.53" r="78.54" transform="translate(-123.42 495.16) rotate(-35.47)"/><circle class="cls-25" cx="712.39" cy="440.53" r="77.99" transform="translate(-102.85 632.77) rotate(-45)"/><circle class="cls-26" cx="712.39" cy="440.53" r="77.44" transform="translate(-121.38 360.62) rotate(-26.26)"/><circle class="cls-27" cx="712.39" cy="440.53" r="76.89" transform="translate(-102.85 632.77) rotate(-45)"/><circle class="cls-28" cx="712.39" cy="440.53" r="76.34" transform="translate(-102.85 632.77) rotate(-45)"/><circle class="cls-29" cx="712.39" cy="440.53" r="75.79" transform="translate(-119.64 344.16) rotate(-25.13)"/><circle class="cls-30" cx="712.39" cy="440.53" r="75.24" transform="translate(-102.85 632.77) rotate(-45)"/><circle class="cls-31" cx="712.39" cy="440.53" r="74.69" transform="translate(-124.46 475.76) rotate(-34.14)"/><circle class="cls-32" cx="712.39" cy="440.53" r="74.14" transform="translate(-102.85 632.77) rotate(-45)"/><circle class="cls-33" cx="712.39" cy="440.53" r="73.59" transform="translate(-102.85 632.77) rotate(-45)"/><circle class="cls-34" cx="712.39" cy="440.53" r="73.04" transform="translate(-125.05 456.5) rotate(-32.82)"/><circle class="cls-35" cx="712.39" cy="440.53" r="72.49" transform="translate(-102.85 632.77) rotate(-45)"/><circle class="cls-36" cx="712.39" cy="440.53" r="71.94" transform="translate(-102.85 632.77) rotate(-45)"/><circle class="cls-37" cx="712.39" cy="440.53" r="71.4" transform="translate(-102.85 632.77) rotate(-45)"/><circle class="cls-38" cx="712.39" cy="440.53" r="70.85" transform="translate(-102.85 632.77) rotate(-45)"/><circle class="cls-39" cx="712.39" cy="440.53" r="70.3" transform="translate(-102.85 632.77) rotate(-45)"/><circle class="cls-40" cx="712.39" cy="440.53" r="69.75" transform="translate(-102.85 632.77) rotate(-45)"/><circle class="cls-41" cx="712.39" cy="440.53" r="69.2" transform="translate(-102.85 632.77) rotate(-45)"/><circle class="cls-42" cx="712.39" cy="440.53" r="68.65" transform="translate(-125.06 456.28) rotate(-32.81)"/><circle class="cls-43" cx="712.39" cy="440.53" r="68.1" transform="translate(-102.85 632.77) rotate(-45)"/><circle class="cls-44" cx="712.39" cy="440.53" r="67.55" transform="translate(-102.85 632.77) rotate(-45)"/><circle class="cls-45" cx="712.39" cy="440.53" r="67" transform="translate(-102.85 632.77) rotate(-45)"/><circle class="cls-46" cx="712.39" cy="440.53" r="66.45" transform="translate(-121.73 516.73) rotate(-36.95)"/><circle class="cls-47" cx="712.39" cy="440.53" r="65.9" transform="translate(135.82 1048.1) rotate(-78.23)"/><circle class="cls-48" cx="712.39" cy="440.53" r="65.35" transform="translate(-102.85 632.77) rotate(-45)"/><circle class="cls-49" cx="712.39" cy="440.53" r="64.81" transform="translate(-122.54 507.31) rotate(-36.3)"/><circle class="cls-50" cx="712.39" cy="440.53" r="64.26" transform="translate(-102.85 632.77) rotate(-45)"/><circle class="cls-51" cx="712.39" cy="440.53" r="63.71" transform="translate(-102.85 632.77) rotate(-45)"/><circle class="cls-52" cx="712.39" cy="440.53" r="63.16" transform="translate(-26.16 835.64) rotate(-59.88)"/><circle class="cls-53" cx="712.39" cy="440.53" r="62.61" transform="translate(-123.91 487.07) rotate(-34.92)"/><circle class="cls-54" cx="712.39" cy="440.53" r="62.06" transform="translate(-102.85 632.77) rotate(-45)"/><circle class="cls-55" cx="712.39" cy="440.53" r="61.51" transform="translate(-16.55 27.96) rotate(-2.22)"/><circle class="cls-56" cx="712.39" cy="440.53" r="60.96" transform="translate(-124.69 469.84) rotate(-33.74)"/><circle class="cls-57" cx="712.39" cy="440.53" r="60.41" transform="translate(-102.85 632.77) rotate(-45)"/><circle class="cls-58" cx="712.39" cy="440.53" r="59.86" transform="translate(-102.85 632.77) rotate(-45)"/><circle class="cls-59" cx="712.39" cy="440.53" r="59.31" transform="translate(-33.99 60.43) rotate(-4.74)"/><circle class="cls-60" cx="712.39" cy="440.53" r="58.76" transform="translate(-62.55 758.4) rotate(-54.03)"/><circle class="cls-61" cx="712.39" cy="440.53" r="58.21" transform="translate(-102.85 632.77) rotate(-45)"/><circle class="cls-62" cx="712.39" cy="440.53" r="57.67" transform="translate(71.94 980.34) rotate(-71.86)"/><circle class="cls-63" cx="712.39" cy="440.53" r="57.12" transform="translate(-94.22 214.83) rotate(-16.1)"/><circle class="cls-64" cx="712.39" cy="440.53" r="56.57" transform="translate(-102.85 632.77) rotate(-45)"/><circle class="cls-65" cx="712.39" cy="440.53" r="56.02" transform="translate(213.45 1113.31) rotate(-85.17)"/><circle class="cls-66" cx="712.39" cy="440.53" r="55.47" transform="translate(-56.03 773.85) rotate(-55.18)"/><circle class="cls-67" cx="712.39" cy="440.53" r="54.92" transform="translate(-120.89 355.58) rotate(-25.91)"/><circle class="cls-68" cx="712.39" cy="440.53" r="54.37" transform="translate(-6.66 870.11) rotate(-62.59)"/><circle class="cls-69" cx="712.39" cy="440.53" r="53.82" transform="translate(146.11 1057.7) rotate(-79.19)"/><circle class="cls-70" cx="712.39" cy="440.53" r="53.27" transform="translate(224.95 1121.69) rotate(-86.14)"/><circle class="cls-71" cx="712.39" cy="440.53" r="52.72" transform="translate(9.3 895.77) rotate(-64.65)"/><circle class="cls-72" cx="712.39" cy="440.53" r="52.17" transform="translate(-25.19 837.45) rotate(-60.02)"/><circle class="cls-73" cx="712.39" cy="440.53" r="51.62" transform="translate(258.46 1144.46) rotate(-88.92)"/><circle class="cls-74" cx="712.39" cy="440.53" r="51.08" transform="translate(116.29 1028.95) rotate(-76.36)"/><circle class="cls-75" cx="712.39" cy="440.53" r="50.53" transform="translate(44.08 945.44) rotate(-68.8)"/><circle class="cls-76" cx="712.39" cy="440.53" r="49.98" transform="translate(60.27 966.18) rotate(-70.6)"/><circle class="cls-77" cx="712.39" cy="440.53" r="49.43" transform="translate(-72.22 147.35) rotate(-11.24)"/><circle class="cls-78" cx="712.39" cy="440.53" r="48.88" transform="translate(-45.6 84.13) rotate(-6.55)"/><circle class="cls-79" cx="712.39" cy="440.53" r="48.33" transform="translate(158.36 1068.72) rotate(-80.32)"/><circle class="cls-80" cx="712.39" cy="440.53" r="47.78" transform="translate(69.44 977.36) rotate(-71.59)"/><circle class="cls-81" cx="712.39" cy="440.53" r="47.23" transform="translate(-80.57 170.76) rotate(-12.94)"/><circle class="cls-82" cx="712.39" cy="440.53" r="46.68" transform="translate(-71 144.11) rotate(-11.01)"/><circle class="cls-83" cx="712.39" cy="440.53" r="46.13" transform="translate(162.65 1072.48) rotate(-80.71)"/><circle class="cls-84" cx="712.39" cy="440.53" r="45.58" transform="translate(-85.93 187.04) rotate(-14.12)"/><circle class="cls-85" cx="712.39" cy="440.53" r="45.03" transform="translate(-86.22 187.96) rotate(-14.18)"/><circle class="cls-86" cx="712.39" cy="440.53" r="44.48" transform="translate(171.29 1079.89) rotate(-81.49)"/><circle class="cls-87" cx="712.39" cy="440.53" r="43.94" transform="translate(-35.32 63.03) rotate(-4.94)"/><circle class="cls-88" cx="712.39" cy="440.53" r="43.39" transform="translate(-8.89 14.71) rotate(-1.18)"/><circle class="cls-89" cx="712.39" cy="440.53" r="42.84" transform="translate(-119.99 347.18) rotate(-25.33)"/><circle class="cls-90" cx="712.39" cy="440.53" r="42.29" transform="translate(-12.43 20.76) rotate(-1.66)"/><circle class="cls-91" cx="712.39" cy="440.53" r="41.74" transform="translate(-65.33 129.53) rotate(-9.94)"/><circle class="cls-92" cx="712.39" cy="440.53" r="41.19" transform="translate(-61.82 120.89) rotate(-9.3)"/><circle class="cls-93" cx="712.39" cy="440.53" r="40.64" transform="translate(-110.46 284.05) rotate(-20.96)"/></g><g class="cls-19"><ellipse class="cls-18" cx="525.72" cy="436" rx="81.28" ry="74.62" transform="translate(71.64 946.19) rotate(-88)"/><ellipse class="cls-20" cx="525.72" cy="436" rx="80.73" ry="74.12" transform="translate(71.64 946.19) rotate(-88)"/><ellipse class="cls-21" cx="525.72" cy="436" rx="80.18" ry="73.61" transform="translate(71.63 946.18) rotate(-88)"/><ellipse class="cls-22" cx="525.72" cy="436" rx="79.63" ry="73.11" transform="matrix(0.03, -1, 1, 0.03, 71.63, 946.18)"/><ellipse class="cls-23" cx="525.72" cy="436" rx="79.08" ry="72.61" transform="translate(71.63 946.18) rotate(-88)"/><ellipse class="cls-24" cx="525.72" cy="436" rx="78.54" ry="72.1" transform="matrix(0.03, -1, 1, 0.03, 71.63, 946.18)"/><ellipse class="cls-25" cx="525.72" cy="436" rx="77.99" ry="71.6" transform="translate(71.63 946.19) rotate(-88)"/><ellipse class="cls-26" cx="525.72" cy="436" rx="77.44" ry="71.09" transform="translate(71.63 946.18) rotate(-88)"/><ellipse class="cls-27" cx="525.72" cy="436" rx="76.89" ry="70.59" transform="matrix(0.03, -1, 1, 0.03, 71.64, 946.19)"/><ellipse class="cls-28" cx="525.72" cy="436" rx="76.34" ry="70.08" transform="translate(71.63 946.18) rotate(-88)"/><ellipse class="cls-29" cx="525.72" cy="436" rx="75.79" ry="69.58" transform="translate(71.63 946.18) rotate(-88)"/><ellipse class="cls-30" cx="525.72" cy="436" rx="75.24" ry="69.08" transform="translate(71.63 946.18) rotate(-88)"/><ellipse class="cls-31" cx="525.72" cy="436" rx="74.69" ry="68.57" transform="translate(71.63 946.18) rotate(-88)"/><ellipse class="cls-32" cx="525.72" cy="436" rx="74.14" ry="68.07" transform="translate(71.63 946.19) rotate(-88)"/><ellipse class="cls-33" cx="525.72" cy="436" rx="73.59" ry="67.56" transform="translate(71.63 946.18) rotate(-88)"/><ellipse class="cls-34" cx="525.72" cy="436" rx="73.04" ry="67.06" transform="translate(71.63 946.19) rotate(-88)"/><ellipse class="cls-35" cx="525.72" cy="436" rx="72.49" ry="66.56" transform="translate(71.63 946.18) rotate(-88)"/><ellipse class="cls-36" cx="525.72" cy="436" rx="71.94" ry="66.05" transform="translate(71.63 946.18) rotate(-88)"/><ellipse class="cls-37" cx="525.72" cy="436" rx="71.4" ry="65.55" transform="translate(71.64 946.19) rotate(-88)"/><ellipse class="cls-38" cx="525.72" cy="436" rx="70.85" ry="65.04" transform="matrix(0.03, -1, 1, 0.03, 71.63, 946.18)"/><ellipse class="cls-39" cx="525.72" cy="436" rx="70.3" ry="64.54" transform="translate(71.63 946.18) rotate(-88)"/><ellipse class="cls-40" cx="525.72" cy="436" rx="69.75" ry="64.03" transform="translate(71.63 946.18) rotate(-88)"/><ellipse class="cls-41" cx="525.72" cy="436" rx="69.2" ry="63.53" transform="translate(71.63 946.18) rotate(-88)"/><ellipse class="cls-42" cx="525.72" cy="436" rx="68.65" ry="63.03" transform="translate(71.63 946.18) rotate(-88)"/><ellipse class="cls-43" cx="525.72" cy="436" rx="68.1" ry="62.52" transform="translate(71.63 946.18) rotate(-88)"/><ellipse class="cls-44" cx="525.72" cy="436" rx="67.55" ry="62.02" transform="translate(71.64 946.19) rotate(-88)"/><ellipse class="cls-45" cx="525.72" cy="436" rx="67" ry="61.51" transform="translate(71.63 946.18) rotate(-88)"/><ellipse class="cls-46" cx="525.72" cy="436" rx="66.45" ry="61.01" transform="matrix(0.03, -1, 1, 0.03, 71.63, 946.18)"/><ellipse class="cls-47" cx="525.72" cy="436" rx="65.9" ry="60.5" transform="translate(71.63 946.18) rotate(-88)"/><ellipse class="cls-48" cx="525.72" cy="436" rx="65.35" ry="60" transform="translate(71.63 946.18) rotate(-88)"/><ellipse class="cls-49" cx="525.72" cy="436" rx="64.81" ry="59.5" transform="translate(71.63 946.18) rotate(-88)"/><ellipse class="cls-50" cx="525.72" cy="436" rx="64.26" ry="58.99" transform="translate(71.63 946.18) rotate(-88)"/><ellipse class="cls-51" cx="525.72" cy="436" rx="63.71" ry="58.49" transform="translate(71.63 946.18) rotate(-88)"/><ellipse class="cls-52" cx="525.72" cy="436" rx="63.16" ry="57.98" transform="translate(71.63 946.18) rotate(-88)"/><ellipse class="cls-53" cx="525.72" cy="436" rx="62.61" ry="57.48" transform="matrix(0.03, -1, 1, 0.03, 71.63, 946.18)"/><ellipse class="cls-54" cx="525.72" cy="436" rx="62.06" ry="56.98" transform="translate(71.63 946.18) rotate(-88)"/><ellipse class="cls-55" cx="525.72" cy="436" rx="61.51" ry="56.47" transform="translate(71.63 946.18) rotate(-88)"/><ellipse class="cls-56" cx="525.72" cy="436" rx="60.96" ry="55.97" transform="translate(71.63 946.18) rotate(-88)"/><ellipse class="cls-57" cx="525.72" cy="436" rx="60.41" ry="55.46" transform="translate(71.63 946.18) rotate(-88)"/><ellipse class="cls-58" cx="525.72" cy="436" rx="59.86" ry="54.96" transform="translate(71.63 946.18) rotate(-88)"/><ellipse class="cls-59" cx="525.72" cy="436" rx="59.31" ry="54.45" transform="translate(71.62 946.18) rotate(-88)"/><ellipse class="cls-60" cx="525.72" cy="436" rx="58.76" ry="53.95" transform="translate(71.63 946.18) rotate(-88)"/><ellipse class="cls-61" cx="525.72" cy="436" rx="58.21" ry="53.45" transform="translate(71.63 946.18) rotate(-88)"/><ellipse class="cls-62" cx="525.72" cy="436" rx="57.67" ry="52.94" transform="translate(71.63 946.18) rotate(-88)"/><ellipse class="cls-63" cx="525.72" cy="436" rx="57.12" ry="52.44" transform="translate(71.63 946.18) rotate(-88)"/><ellipse class="cls-64" cx="525.72" cy="436" rx="56.57" ry="51.93" transform="translate(71.63 946.18) rotate(-88)"/><ellipse class="cls-65" cx="525.72" cy="436" rx="56.02" ry="51.43" transform="translate(71.63 946.18) rotate(-88)"/><ellipse class="cls-66" cx="525.72" cy="436" rx="55.47" ry="50.92" transform="translate(71.62 946.17) rotate(-88)"/><ellipse class="cls-67" cx="525.72" cy="436" rx="54.92" ry="50.42" transform="translate(71.63 946.18) rotate(-88)"/><ellipse class="cls-68" cx="525.72" cy="436" rx="54.37" ry="49.92" transform="translate(71.63 946.18) rotate(-88)"/><ellipse class="cls-69" cx="525.72" cy="436" rx="53.82" ry="49.41" transform="translate(71.62 946.17) rotate(-88)"/><ellipse class="cls-70" cx="525.72" cy="436" rx="53.27" ry="48.91" transform="translate(71.63 946.18) rotate(-88)"/><ellipse class="cls-71" cx="525.72" cy="436" rx="52.72" ry="48.4" transform="translate(71.62 946.18) rotate(-88)"/><ellipse class="cls-72" cx="525.72" cy="436" rx="52.17" ry="47.9" transform="matrix(0.03, -1, 1, 0.03, 71.62, 946.17)"/><ellipse class="cls-73" cx="525.72" cy="436" rx="51.62" ry="47.4" transform="translate(71.63 946.18) rotate(-88)"/><ellipse class="cls-74" cx="525.72" cy="436" rx="51.08" ry="46.89" transform="translate(71.62 946.18) rotate(-88)"/><ellipse class="cls-75" cx="525.72" cy="436" rx="50.53" ry="46.39" transform="translate(71.63 946.18) rotate(-88)"/><ellipse class="cls-76" cx="525.72" cy="436" rx="49.98" ry="45.88" transform="translate(71.62 946.17) rotate(-88)"/><ellipse class="cls-77" cx="525.72" cy="436" rx="49.43" ry="45.38" transform="matrix(0.03, -1, 1, 0.03, 71.62, 946.18)"/><ellipse class="cls-78" cx="525.72" cy="436" rx="48.88" ry="44.87" transform="translate(71.62 946.17) rotate(-88)"/><ellipse class="cls-79" cx="525.72" cy="436" rx="48.33" ry="44.37" transform="translate(71.62 946.17) rotate(-88)"/><ellipse class="cls-80" cx="525.72" cy="436" rx="47.78" ry="43.87" transform="translate(71.62 946.18) rotate(-88)"/><ellipse class="cls-81" cx="525.72" cy="436" rx="47.23" ry="43.36" transform="translate(71.62 946.17) rotate(-88)"/><ellipse class="cls-82" cx="525.72" cy="436" rx="46.68" ry="42.86" transform="matrix(0.03, -1, 1, 0.03, 71.63, 946.18)"/><ellipse class="cls-83" cx="525.72" cy="436" rx="46.13" ry="42.35" transform="translate(71.62 946.17) rotate(-88)"/><path class="cls-84" d="M527.31,390.45c-23.1-.81-42.54,18.93-43.41,44.09s17.13,46.21,40.23,47,42.53-18.94,43.41-44.1S550.41,391.25,527.31,390.45Z"/><ellipse class="cls-85" cx="525.72" cy="436" rx="45.03" ry="41.34" transform="matrix(0.03, -1, 1, 0.03, 71.63, 946.18)"/><ellipse class="cls-86" cx="525.72" cy="436" rx="44.48" ry="40.84" transform="translate(71.62 946.17) rotate(-88)"/><ellipse class="cls-87" cx="525.72" cy="436" rx="43.94" ry="40.34" transform="translate(71.62 946.17) rotate(-88)"/><ellipse class="cls-88" cx="525.72" cy="436" rx="43.39" ry="39.83" transform="translate(71.62 946.17) rotate(-88)"/><ellipse class="cls-89" cx="525.72" cy="436" rx="42.84" ry="39.33" transform="translate(71.62 946.17) rotate(-88)"/><ellipse class="cls-90" cx="525.72" cy="436" rx="42.29" ry="38.82" transform="translate(71.62 946.17) rotate(-88)"/><ellipse class="cls-91" cx="525.72" cy="436" rx="41.74" ry="38.32" transform="translate(71.62 946.17) rotate(-88)"/><ellipse class="cls-92" cx="525.72" cy="436" rx="41.19" ry="37.82" transform="translate(71.63 946.18) rotate(-88)"/><path class="cls-93" d="M527.14,395.39c-20.6-.72-37.93,16.88-38.71,39.31s15.28,41.2,35.87,41.92,37.92-16.88,38.71-39.31S547.73,396.11,527.14,395.39Z"/></g><path class="cls-94" d="M842.9,97.64c-12.5-22.15-34.4-23.22-52.61-19.1,6.25-8.8,4.05-16.64,4.05-16.64-12,1.79-14.88,7.46-14.88,7.46,8.74-15.75,2.9-37.31,2.9-37.31C758.82,45.36,761,64.11,761,64.11,749.68,40,714.31,32.29,714.31,32.29a37.18,37.18,0,0,0,2.11,10.18C658.34,3.59,572.73,0,572.73,0c.3,6.64,3.1,13.35,6,18.63a555.1,555.1,0,0,0-84.91,2.93c-10.69,56.76,5.05,90.54,22.42,109.84-63.39,73.34-49,187.7-49,187.7,13-69.58,57-155.73,90.26-157.26,0,0,28.77,23.81,72,24.93,38.7,1,92.54-26.88,92.54-26.88,38.62-.68,82.12,119.11,86.75,215.48,1.06,22.05,20.35-3.29,20.35-3.29s2.09-24,.7-58.51C830,313,875.75,155.81,842.9,97.64Z"/><path class="cls-95" d="M499.09,103.94c-62.21,18.54-45.61,266-45.61,266,13-69.59,70.72-206.59,104-208.12C557.48,161.84,526.78,143.29,499.09,103.94Z"/><path class="cls-14" d="M740.82,88.79l0,0C741,88.8,741.18,88.77,740.82,88.79Z"/><path class="cls-14" d="M740.84,93h0Z"/><path class="cls-96" d="M548.27,503.1s-15.23,24.29-7.39,35.67c10.74,15.6,40.86-6.39,72.76-6.69,36.2-.34,66.37,20.47,73.34,12.36,9.93-11.55,1.3-32.08-3.65-36.54s-54.74-26.43-77.73-25.06S548.27,503.1,548.27,503.1Z"/><path class="cls-97" d="M819,78.32c-7.62,1.17-15.66,3-24,4.85-19.79,4.4-40.6,7.3-60.84,4.47C710.67,84.35,690.07,73.71,669.23,63c-10.52-5.39-21-10.87-31.85-15.59-23.23-10.11-50.63-20-76.31-19.35-12.71.35-25.18,4.15-36.89,8.88a79.38,79.38,0,0,0-26.41,17.44,72.86,72.86,0,0,0-7.19,8.32A131.47,131.47,0,0,0,493.51,86c.81-.65,1.64-1.32,2.54-2a78.66,78.66,0,0,1,15.77-8.87,69.81,69.81,0,0,1,21.06-5.21c30.55-2.18,58.84,10.24,86.36,21.78C630.51,96.44,642,101.93,654.07,107a377.11,377.11,0,0,0,37.87,14.3c22.21,6.91,49.36,9.13,72,3,3.07-.83,6.1-1.53,9-2.41a205.63,205.63,0,0,0,30.79-12.83c8.85-4.49,16.43-8.6,23.12-11.69a84.66,84.66,0,0,1,12.53-4.93A37.73,37.73,0,0,0,819,78.32Z"/><path class="cls-98" d="M554.15,499.12s-1,7.13,7.46,9.46,97.74,3.59,104.38.4,7.17-15.34,7.17-15.34l-62.2-15Z"/><path class="cls-99" d="M611,478.61l-56.81,20.51s-1,7.13,7.46,9.46a50.22,50.22,0,0,0,7.4.88,5.38,5.38,0,0,1,2-1.47c22.59-10,53.48-13,74.41,2.61a.27.27,0,0,1,.08.07c10.78-.28,18.73-.82,20.54-1.69,6.64-3.19,7.17-15.34,7.17-15.34Z"/><path class="cls-14" d="M740.36,88.82h0Z"/><path class="cls-100" d="M808.62,371.94C798,478.2,690.18,491.63,689.17,490c33,30.8,6.05,83.38-27.11,68.95-11.2-4.88-22.43-16.24-46.59-16.82-25.1-.6-38.79,10.49-45.41,14.17-27.13,15.09-67.14-20.31-27.13-73,0,0-36.72-7.82-47.93-14-21.35-11.81-31.86-36-37-58.79A185.68,185.68,0,0,1,453.88,382a142.09,142.09,0,0,1,.23-15.31l-.79-.18C427.5,470.53,410.86,657.16,627.68,654.9,846,652.63,819.82,470.66,819.82,470.66c-10.26-36.85,9.34-98.58,9.34-98.58Z"/><path class="cls-101" d="M605.3,443.31S584.43,433,546.78,454.84c-28.8,16.7-43.86,56.06-43.86,56.06s39.88,4.9,106.84-18.57c67.53,30.62,112.37,20.85,112.37,20.85S695.25,431.66,605.3,443.31Z"/><path class="cls-102" d="M555.55,450.19c.25.25.5.5.76.74,17.48,16.33,41.79,20.43,64.85,17,10.5-1.58,20.93-4.58,29.76-10.64a40.83,40.83,0,0,0,8.86-8.6c-14.85-5.55-32.83-8.15-54.48-5.35a37.45,37.45,0,0,0-9-2.15C588,440.28,574.23,441.14,555.55,450.19Z"/><path class="cls-2" d="M614.74,566.34c-14.21-.08-25.76,6.72-25.8,15.18s11.42,15.39,25.63,15.47,25.75-6.72,25.8-15.18S628.94,566.42,614.74,566.34Z"/><path class="cls-103" d="M636.47,258.62c-5-1.21-17.31,32.09-16.56,48.33,0,0-6.14-32.49-10.06-31.63s1.48,43.64,8.8,46.93S641.48,259.83,636.47,258.62Z"/><path class="cls-103" d="M499.22,323.48C487.34,349.79,490,371,490,371s26.46,10.54,37.76,11.52c10.73.93,47.85,0,47.85,0,27.39-46.75,19-95.11,19-95.11C569.94,279.55,499.22,323.48,499.22,323.48Z"/><path class="cls-103" d="M684.61,307.85,663.9,276.2C643.73,322.05,674.48,382,674.48,382l90.47-9s7.76-32.54-2.83-54.06C750.79,295.8,684.61,307.85,684.61,307.85Z"/><path class="cls-104" d="M515.8,302.4c-13,4.88-17.07,13.29-17.07,13.29,50.94,9.89,82.45,4.3,91.59-7,10.65-13.17-.85-35.31-.85-35.31C566.73,295.14,542.21,292.5,515.8,302.4Z"/><path class="cls-104" d="M743.66,291.73c-25.27-15.81-57.88,1-79.35-34,0,0-12.57,23.14-1.63,37.3,20.92,27.08,80.68,10.48,97.55,20.37C760.23,315.42,755.82,299.34,743.66,291.73Z"/><path class="cls-17" d="M525.74,96.31s0-.34-.11-.92C525.69,96,525.74,96.31,525.74,96.31Z"/><path class="cls-14" d="M702.41,100.07l0,0C702.53,100.07,702.76,100,702.41,100.07Z"/><path class="cls-14" d="M702.47,103h0Z"/><path class="cls-14" d="M702,100.11h0Z"/><path class="cls-105" d="M720.76,180.71l-48.43-24.12s68.61-11.35,65-28.7c-4.64-22.31-93-18.17-93-18.17L627,134.93,484.27,245.44c-11.61,35.46-22.75,76.2-29.68,117.65a27.89,27.89,0,0,0-5.79,1.21c-15.77,5.09-25.13,23.55-25,45.52,58.86-51,123.86-76.28,151.8-115.61,12.64-17.8,112.93,3.58,133.69-4.19s19.57-31.66,19.57-31.66,11.14-15.17,13.67-20.73.37-14.52.37-14.52,12.65-11.05,10.6-17.32C749.5,193.59,720.76,180.71,720.76,180.71Z"/><path class="cls-5" d="M738.23,196.45c-5.27-4.22-16.68-10.11-23.82-13.63h0c-1.7-.95-7.35-3.78-14.9-7.51-14.21-7.34-43-22-64.81-31.7,34.36-2.32,90.19-4.09,91.34-19.73,1.2-16.3-57.56-15.31-94.87-13.51S507.76,142,507.76,142h0a5.69,5.69,0,0,0-2.54.84c-11.5,5.75-127.64,139.35-127.64,139.35L435.24,370s4.79-.6,11.22-9.67,24.25-6,54-23.91,54.65-57.54,72.23-63,104.84,9.27,128.49,0,13.42-24,13.42-24c5.44-1,18.54-8,18.86-16.31a13,13,0,0,0-6.39-11.82C741.43,218.18,746.23,202.84,738.23,196.45Z"/><path class="cls-106" d="M738.23,196.45c-5.27-4.22-16.68-10.11-23.82-13.63h0c-1.7-.95-7.35-3.78-14.9-7.51-14.21-7.34-43-22-64.81-31.7,34.36-2.32,90.19-4.09,91.34-19.73,1.2-16.3-57.56-15.42-94.87-13.61s-123.41,31.54-123.41,31.54h0a17.17,17.17,0,0,0-2.54.94c-9.15,4.58-84.58,90.16-115,124.92,0,0-234.89,182.88-319.1,299.65C4.26,660.06,7.78,708.38,41.31,749a63.2,63.2,0,0,0,19,10.71c9,3.12,18.34,4.41,27.77,5.36,21.31,2.16,43.23,2.09,63.63-5.23,16.69-6,30-17.88,43.19-29.32,14.38-12.49,28.77-25.24,39.63-41.05a203.1,203.1,0,0,0,14.9-25.93c2.39-4.9,4.6-9.87,7-14.75a45.29,45.29,0,0,0,3.53-8.65l-10.33-.75S313.79,516,441.84,365.83a38.57,38.57,0,0,0,4.27-5l.05-.06a10.27,10.27,0,0,0,.8-1.07c6.82-8.29,24.48-5.81,53.48-23.27,29.72-17.9,54.65-57.53,72.23-63s104.84,9.27,128.49,0,13.42-24,13.42-24c5.44-1,18.54-8,18.86-16.31a13,13,0,0,0-6.39-11.82C741.43,218.18,746.23,202.84,738.23,196.45ZM542.8,253.55c-9,41.61-67.43,87.21-94.66,93.1,0,0-182.78,203.07-233.14,293.94S17.57,686.84,75.12,581.67,392.47,273.38,392.47,273.38,493.65,147.83,511.15,146.94C520.06,146.48,551.85,211.94,542.8,253.55Z"/><path class="cls-107" d="M242,651.75c-31.26,63.46-81.75,101.66-130.41,101.18-80.2-.78-99.84-64.08-79.94-119.69C37.83,616,67.07,573,67.07,573S44.9,583,17.91,626.14C.17,654.49-24.21,739.91,55.61,779.19c86.28,42.46,154.66-23.12,189.85-82.19,25.49-42.78,17.42-81.44,17.42-81.44A304,304,0,0,0,242,651.75Z"/><path class="cls-108" d="M724.94,342.08c-38.62-3.3-52.26,36.3-52.26,36.3s7.49,10.17,48.06,10.19c44.35,0,44.16-16.15,44.16-16.15S763.57,345.38,724.94,342.08Z"/><path class="cls-108" d="M490.12,370.42s-4.54,15.94,37.54,17.59c44.14,1.73,48-5.45,48-5.45S533.45,303.81,490.12,370.42Z"/><path class="cls-109" d="M548.53,353.56c-9.2-3-20.52,6.52-25.29,21.34a40.94,40.94,0,0,0-2,12.72c2,.16,4.12.3,6.4.39a239.69,239.69,0,0,0,28.17-.27c.24-.63.51-1.22.72-1.87C561.32,371.06,557.73,356.59,548.53,353.56Z"/><path class="cls-110" d="M720.74,388.57c4.89,0,9.24-.19,13.11-.54.14-.4.27-.8.39-1.21,4.76-16.43,1.16-32.48-8-35.84s-20.52,7.22-25.28,23.65a56.4,56.4,0,0,0-1.81,12.75A176.49,176.49,0,0,0,720.74,388.57Z"/><path class="cls-111" d="M531.86,337.2c-31.76-1.21-41.74,33.22-41.74,33.22S506,352,530.61,351.61c27-.37,45,30.95,45,30.95S574.8,338.83,531.86,337.2Z"/><path class="cls-111" d="M719.52,331.88c-43.34-2.41-46.84,46.5-46.84,46.5s10.52-34.27,48.06-31.65c37.77,2.64,44.16,25.69,44.16,25.69S761,334.2,719.52,331.88Z"/><ellipse class="cls-112" cx="540.68" cy="376.45" rx="10.19" ry="8.55" transform="translate(-17.2 726.9) rotate(-66.98)"/><path class="cls-112" d="M727.31,376.16c-.47,5.5-4.79,10.08-9.63,10.24s-8.39-4.16-7.92-9.66,4.78-10.08,9.63-10.24S727.78,370.67,727.31,376.16Z"/><path class="cls-113" d="M532.05,367.94c-5,2.08-8.49,6.15-7.74,9.1s5.41,3.65,10.44,1.58,8.48-6.15,7.74-9.1S537.07,365.87,532.05,367.94Z"/><path class="cls-113" d="M708.77,368.89c-5.31,2.48-8.75,7-7.69,10.07s6.21,3.58,11.52,1.11,8.75-7,7.69-10.06S714.07,366.42,708.77,368.89Z"/><path class="cls-5" d="M601.69,393.32s-35.21-6.54-43.66,24.13c-10.73,38.95,66.86,62,88.12,21.27S611.72,322.2,611.72,322.2,625.07,361.54,601.69,393.32Z"/><path class="cls-114" d="M557.29,428.32c4.58,31.95,69.67,47.14,88.86,10.4a39.14,39.14,0,0,0,2.79-7C618.39,438.24,586.56,436.46,557.29,428.32Z"/><path class="cls-115" d="M624,363l-8.73-.3s-4.59,28.12-13.09,32l0,0c-1.36-.13-2.73-.24-4.15-.29-15.22-.54-27.76,4.38-28,11s11.94,12,27.17,12.52c14.27.5,26.78-2,28.47-9.76C625.75,408.2,632.55,378.82,624,363Z"/><path class="cls-5" d="M1198.39,1066.38H1007.32c27,35,47.92,64.48,50.71,75.25,8.63,33.25-16.49,253.81-100.92,377.52-18.8,27.56,70.92,143.75,84.58,123.1,90.84-137.34,204-372.27,191.64-465.87C1230.92,1158.07,1212.84,1098.46,1198.39,1066.38Z"/><path class="cls-116" d="M1233.33,1175.7c-2.41-18.31-20.49-76.68-34.94-110.68H1007.32c27,38,47.92,65.16,50.71,75.93,8.63,33.25-16.49,254.15-100.92,377.86-18.8,27.56,70.92,143.58,84.58,122.93C1132.53,1504.41,1245.64,1269.3,1233.33,1175.7Zm-166.91,370.82c-23.38,27.63-95.63-30.84-87.33-45.3,64.75-112.84,72.92-227.83,81.26-235.11,30.75-26.8,101.7-5.53,115.35,19.28S1104.12,1502,1066.42,1546.52Z"/><path class="cls-117" d="M911.42,1009.46c3.76,4.26,126.76,140.58,133,160.63s181.77-61.56,181.77-61.56S1082.07,787.69,997.92,735.06c-91.42-57.18-182.65-75.39-182.65-75.39Z"/><path class="cls-118" d="M961.83,1066.38c-2.17-130.43-17.73-301.5-52-376.32-3.12-1.55-26.69-10.61-31.13-11.92,38.63,65.27,54.16,223.58,56.52,358C939,1039.91,958.25,1062.44,961.83,1066.38Z"/><path class="cls-5" d="M974.24,1522.81l-28-6s-27.66-6.35-60.14,1.84-74.06,40.37-89.7,54.79-17.61,25.85-13.91,33.56,23.21,5.48,33.22-1.48,51.16-43.49,76.1-38c0,0-30.71,12.67-48,26.09s-58.29,60.64-65.5,76.55,9.34,29.1,24.63,19.4c0,0-11.06,9.45-12.75,22.63s14.94,16.16,29.17,9c0,0-4.22,31.08,39.73,11.2s67.68-51.19,97.38-52.17,63-4.68,87.14-40.85S974.24,1522.81,974.24,1522.81Z"/><path class="cls-119" d="M974.24,1522.81l-28-6s-27.66-6.35-60.14,1.84c-1.35.34-2.74.78-4.13,1.2,37.79-9.75,115.47,114.18,110.55,132-4.59,16.65-32.7,17.88-54.64,25.58s-72.53,48.7-90.1,55.16-28.09-5.28-24.19-11.45,60.88-46.22,75.65-55.66,37.23-19.38,37.23-19.38l-2.47-5.72s-15,7.2-31.62,15.9-71,55.66-86.45,61.13-22.14-2.25-17.19-13.93,33.11-35.3,59.08-59.16,47.81-28.82,47.81-28.82l-1.42-6.21c-41.72,8.18-80.8,65.11-97.66,73.55s-27-1-22.74-12.94,43.27-56.92,59.38-71.08,63.82-34.54,63.82-34.54l-.81-5.22s-6.87-.25-30.36,3-59.09,41.21-72.57,42.67-26.16-.19-9.68-23.06c16.17-22.43,84.2-59.88,87.46-61.51-31.62,10-69.8,39.63-84.65,53.31-15.65,14.41-17.61,25.85-13.91,33.56s23.21,5.48,33.22-1.48,51.16-43.49,76.1-38c0,0-30.71,12.67-48,26.09s-58.29,60.64-65.5,76.55,9.34,29.1,24.63,19.4c0,0-11.07,9.45-12.75,22.63s14.94,16.16,29.17,9c0,0-4.22,31.08,39.73,11.2s67.68-51.19,97.38-52.17,63-4.68,87.14-40.85S974.24,1522.81,974.24,1522.81Z"/><path class="cls-120" d="M841,1547.7c-18.25,6.37-46.39,38.21-46.39,38.21-4.54,7.27-1.11,15.77,11.28,12.91s42-27.76,48.91-32S859.25,1541.34,841,1547.7Z"/><path class="cls-120" d="M841.78,1605c-11.65,6.36-52.09,61.56-52.09,61.56-2.12,9.66,4.34,15.47,14.65,12.44s52.14-47.91,56.91-52.3S853.42,1598.67,841.78,1605Z"/><path class="cls-120" d="M810.35,1693.9c-7.69,9.08-7.22,24.82,6.95,19.12s56.83-41.23,63.28-47S869,1639.26,869,1639.26C862.88,1642.22,818,1684.81,810.35,1693.9Z"/><path class="cls-120" d="M830.27,1718.49c-2.72,2.42-1.62,10.31,10.63,10.92s52.28-27.88,55.1-33.47-8.44-18.61-8.44-18.61C882.69,1680.13,833,1716.06,830.27,1718.49Z"/><path class="cls-121" d="M1035.25,1143.34s-7.66,22.93-6.57,27.83,19.26,27.93,19.26,27.93-13.31,43.34-11.13,47.7,11.37,15.57,11.37,15.57,27.89-20.33,81.82-14.88,82.55,51,82.55,51,14.23-1.89,17.88-5.72c5.8-6.08,20.9-62.84,19.44-111.91-.95-32.17-22.91-77.72-30.54-82.08S1069.86,1112.38,1035.25,1143.34Z"/><path class="cls-122" d="M1021.73,1559.76c-22.21-15-42.63-30-58-51-1.52,2.4-3,4.77-4.6,7.11a31.6,31.6,0,0,1-2.77-2.78c15,22.87,37.42,41.16,61.66,53.35C1022.51,1568.74,1025.79,1562.49,1021.73,1559.76Z"/><path class="cls-123" d="M1154.23,1163c-37.59,2.29-77,11.88-108.87,32.74,1.56,2,2.58,3.32,2.58,3.32s-.79,2.54-1.93,6.44c32.47-21.4,69.85-28.73,108.42-34.63C1159.27,1170.17,1159.42,1162.73,1154.23,1163Z"/><polygon class="cls-11" points="721.03 832.88 937.21 877.8 931.28 853.35 725.25 812.44 721.03 832.88"/><path class="cls-122" d="M714.58,249.51c5.44-1,18.54-8,18.86-16.31a13,13,0,0,0-6.39-11.82c14.38-3.2,19.18-18.54,11.18-24.93-5.27-4.22-16.68-10.11-23.82-13.63h0c-1.7-.95-7.35-3.78-14.9-7.51-14.21-7.34-43-22-64.81-31.7,34.36-2.32,90.19-4.09,91.34-19.73,1.2-16.3-57.56-15.42-94.87-13.61-12.75.62-31.2,4.5-50,9.34,13.18-2.61,31.46-6,41.82-6.72,17.48-1.27,88.46-3,97.38,6s-86.61,18.44-86.61,18.44-68.8,8.06-68.8,9.33v2.57s70,.45,71.27,0,76.85,38.49,80.12,38.52c9.19,4.72,15.63,8.61,16.91,10.67,5.27,8.47-1.74,14.06-7.28,15.34s-93.34-35-100.59-36.65c-6.51-1.54-56.16-.31-66-.05l.46,7.31c9.25-.06,58.26.88,61.74,1.26,3.83.43,100.14,31.11,105.26,40.49s-3.84,17-10.23,17.47-73.3-23.44-82.68-24.29c-7.62-.69-55.9-4.07-74.09-4.62l-.77,6.44c30.28,4.53,143.07,25,146,27.3,3.41,2.71,4.26,6.25,0,12.64s-148.3-18.75-148.3-18.75c-2.06,37.57-42.35,79.77-76.94,104.39a135.69,135.69,0,0,0,20.58-10.21c29.72-17.9,54.65-57.53,72.23-63s104.84,9.27,128.49,0S714.58,249.51,714.58,249.51Z"/></g></g></svg>