<svg xmlns="http://www.w3.org/2000/svg" xmlns:xlink="http://www.w3.org/1999/xlink" viewBox="0 0 271.63 484.7"><defs><style>.cls-1{fill:#363c42;}.cls-2{opacity:0.09;}.cls-117,.cls-24,.cls-3{opacity:0.11;}.cls-4{fill:#6d7db3;}.cls-108,.cls-15,.cls-5{fill:#d78c74;}.cls-6{fill:#3d4041;}.cls-7{fill:#dfe5ea;}.cls-8{fill:#002a3d;opacity:0.08;}.cls-9{fill:#7588bc;}.cls-10{fill:#b0b5c1;}.cls-11,.cls-110,.cls-116,.cls-119,.cls-18,.cls-22,.cls-24,.cls-25{fill:#fff;}.cls-11{opacity:0.12;}.cls-12{fill:#e5a185;}.cls-13{opacity:0.45;}.cls-14{fill:#d58a73;}.cls-15{opacity:0.54;}.cls-16{fill:#b6bdce;}.cls-17{fill:url(#Áåçûìÿííûé_ãðàäèåíò_7);}.cls-18{opacity:0.27;}.cls-19{fill:#e4a084;}.cls-20{fill:#d68b74;}.cls-20,.cls-27{opacity:0.38;}.cls-21{fill:url(#Áåçûìÿííûé_ãðàäèåíò_6);}.cls-22{opacity:0.22;}.cls-23{fill:#343535;}.cls-25{opacity:0.05;}.cls-26{fill:#381911;}.cls-28{fill:#e5a084;}.cls-29{fill:#e59f83;}.cls-30{fill:#e49e83;}.cls-31{fill:#e49d82;}.cls-32{fill:#e49c81;}.cls-33{fill:#e49b80;}.cls-34{fill:#e49a80;}.cls-35{fill:#e3997f;}.cls-36{fill:#e3987e;}.cls-37{fill:#e3977d;}.cls-38{fill:#e3967c;}.cls-39{fill:#e2957c;}.cls-40{fill:#e2947b;}.cls-41{fill:#e2937a;}.cls-42{fill:#e29279;}.cls-43{fill:#e29179;}.cls-44{fill:#e19078;}.cls-45{fill:#e18f77;}.cls-46{fill:#e18e76;}.cls-47{fill:#e18d75;}.cls-48{fill:#e18c75;}.cls-49{fill:#e08b74;}.cls-50{fill:#e08a73;}.cls-51{fill:#e08972;}.cls-52{fill:#e08872;}.cls-53{fill:#df8771;}.cls-54{fill:#df8670;}.cls-55{fill:#df856f;}.cls-56{fill:#df846f;}.cls-57{fill:#df836e;}.cls-58{fill:#de826d;}.cls-59{fill:#de816c;}.cls-60{fill:#de806b;}.cls-61{fill:#de7f6b;}.cls-62{fill:#de7e6a;}.cls-63{fill:#dd7d69;}.cls-64{fill:#dd7c68;}.cls-65{fill:#dd7b68;}.cls-66{fill:#dd7a67;}.cls-67{fill:#dd7a66;}.cls-68{fill:#dc7965;}.cls-69{fill:#dc7864;}.cls-70{fill:#dc7764;}.cls-71{fill:#dc7663;}.cls-72{fill:#db7562;}.cls-73{fill:#db7461;}.cls-74{fill:#db7361;}.cls-75{fill:#db7260;}.cls-76{fill:#db715f;}.cls-77{fill:#da705e;}.cls-78{fill:#da6f5d;}.cls-79{fill:#da6e5d;}.cls-80{fill:#da6d5c;}.cls-81{fill:#da6c5b;}.cls-82{fill:#d96b5a;}.cls-83{fill:#d96a5a;}.cls-84{fill:#d96959;}.cls-85{fill:#d96858;}.cls-86{fill:#d86757;}.cls-87{fill:#d86657;}.cls-88{fill:#d86556;}.cls-89{fill:#d86455;}.cls-90{fill:#d86354;}.cls-91{fill:#d76253;}.cls-92{fill:#d76153;}.cls-93{fill:#d76052;}.cls-94{fill:#d75f51;}.cls-95{fill:#d75e50;}.cls-96{fill:#d65d50;}.cls-97{fill:#d65c4f;}.cls-98{fill:#d65b4e;}.cls-99{fill:#d65a4d;}.cls-100{fill:#d5594c;}.cls-101{fill:#d5584c;}.cls-102{fill:#d5574b;}.cls-103{fill:#d5564a;}.cls-104{fill:#d55549;}.cls-105{fill:#d45449;}.cls-106{fill:#d45348;}.cls-107{fill:#d45247;}.cls-108{opacity:0.72;}.cls-109{fill:#ce826e;}.cls-111{fill:url(#Áåçûìÿííûé_ãðàäèåíò_9);}.cls-112{fill:url(#Áåçûìÿííûé_ãðàäèåíò_9-2);}.cls-113{fill:#422e26;}.cls-114{fill:#6c332e;}.cls-115{fill:#4f372d;}.cls-116{opacity:0.2;}.cls-117{fill:#e5912f;}.cls-118{opacity:0.19;}.cls-119{opacity:0.82;}</style><linearGradient id="Áåçûìÿííûé_ãðàäèåíò_7" x1="61.58" y1="175.57" x2="66.81" y2="198.63" gradientUnits="userSpaceOnUse"><stop offset="0" stop-color="#fff"/><stop offset="0.03" stop-color="#eaeaea"/><stop offset="1" stop-color="#989da3"/></linearGradient><linearGradient id="Áåçûìÿííûé_ãðàäèåíò_6" x1="50.11" y1="181.1" x2="70.45" y2="222.17" gradientUnits="userSpaceOnUse"><stop offset="0" stop-color="#fff"/><stop offset="0.03" stop-color="#eaeaea"/><stop offset="1" stop-color="#b1b5bc"/></linearGradient><linearGradient id="Áåçûìÿííûé_ãðàäèåíò_9" x1="102.43" y1="99.84" x2="106.99" y2="87.69" gradientUnits="userSpaceOnUse"><stop offset="0" stop-color="#5c3333"/><stop offset="1"/></linearGradient><linearGradient id="Áåçûìÿííûé_ãðàäèåíò_9-2" x1="148.06" y1="101.27" x2="152.33" y2="88.32" xlink:href="#Áåçûìÿííûé_ãðàäèåíò_9"/></defs><g id="Layer_2" data-name="Layer 2"><g id="Ñëîé_1" data-name="Ñëîé 1"><path class="cls-1" d="M39.36,423.2c-1.13,5.58-6.59,32.56-12.2,61.5H94.22c4.58-19.34,8.8-37.35,11-48.35Z"/><path class="cls-1" d="M185.93,427.7h0Z"/><path class="cls-1" d="M115.46,438s.6,17.45,1.48,46.7h65.42c1.86-32.23,3.46-56.11,3.57-57.13Z"/><g class="cls-2"><path d="M115.65,443.65l1.35-.74a16,16,0,0,1,.66-5.23l-2.2.32S115.53,440,115.65,443.65Z"/></g><path class="cls-1" d="M36.26,457.57a866.89,866.89,0,0,0,89.23,4.22c30.1-.27,55.79,2.18,57.75-11.23,1.81-12.45,3.22-27.38,4.33-43H39.32C37.7,434.9,36.26,457.57,36.26,457.57Z"/><path class="cls-3" d="M105.39,453.08c-44.81,1.65-9.92,8.41-5.67,8.45,7.56.18,8.63.21,16.69.21,0,0,0,1.82-.1,2.61C116.45,464.29,150.1,451.43,105.39,453.08Z"/><path class="cls-4" d="M4.62,303.9c7.42,0,14.82.26,22.17.89a192.3,192.3,0,0,1,22.91,3.43c6.15-30.32,23-67.5,31.23-82.22l7.65-53.62C87,175.17,23.59,170.66,4.62,303.9Z"/><path class="cls-5" d="M130.44,123.32h0c-12-.07-21,4.69-20.59,12.8L108.61,174c.38,8.11,12.52,9.23,24.47,9.3s19.88-.8,19.5-8.91l-1.53-35.6C150.67,130.66,142.39,123.39,130.44,123.32Z"/><polygon class="cls-6" points="126.76 433.77 139.65 435.17 158.85 403.73 146.47 403.73 126.76 433.77"/><path class="cls-5" d="M86.55,173.66l-1.35,28.4h84.38l1.5-31.23C146.13,163.35,111.54,163.42,86.55,173.66Z"/><path class="cls-7" d="M166.88,169.25c-3.14,14.56-21.61,17.85-41.68,18.17-18.11.29-26.14-3.61-28.67-17.5-6,1-21.58,5.9-30.32,11.33L54.53,425.78a245.74,245.74,0,0,0,56.9,5.73c25.84-.34,46-20.84,58-23.93l11.19-234.35a42.14,42.14,0,0,0-7.06-2.13C171.43,170.47,169.19,169.86,166.88,169.25Z"/><path class="cls-4" d="M102.25,168.78c-10.86,0-32.93,8.83-39.87,15.31C47.54,198,45.75,232,42,281.36c-4,53-3.75,47.86-15.49,150.17a414.16,414.16,0,0,0,66,9C91,367.17,113.93,206,115.66,194,115.07,190.25,104.17,179.29,102.25,168.78Z"/><path class="cls-4" d="M173.59,171.1c-2.16-.63-12.12-3.27-14.43-3.89-2.7,12.5-7.66,10-23.37,26.53-2.15,14.53-19.39,133.66-22.35,249.51,30.95,8.42,25.42-22.68,44.58-26.29,19.65-3.71,37.45,10.13,37.45,10.13-2.15-57,4.48-161.78,7-211.76C202.69,210.55,205.13,177.71,173.59,171.1Z"/><path class="cls-8" d="M96.43,169.39h0s-6.68,24.77-1.71,35.54c0,0,2.15-15.49,8.83-12.79,4.45,1.78,8.58,8.23,10.89,12.25.6-5.39,1-9,1.22-10.35-.57-3.67-10.81-14.08-13.18-24.29A31.87,31.87,0,0,0,96.43,169.39Z"/><path class="cls-9" d="M102.52,179.36c-.16.85-15.75,85.58-22.5,157.15-4.49,47.52-5.5,83.59-5.67,102.63,1.77.18,3.56.35,5.39.51.15-18.7,1.12-54.91,5.65-102.89,6.29-66.66,20.28-144.83,22.21-155.45-.28-.45-.56-.9-.83-1.36Z"/><path class="cls-9" d="M149.33,181.42c-.75.59-1.55,1.23-2.41,1.94-2.06,13.37-12.84,85.66-16.25,153.79-2.4,48-2.14,86.81-1.69,106.7a16.59,16.59,0,0,0,5.31-2.74c-.45-19.43-.66-55.44,1.77-103.95,3.74-74.76,16.39-154.59,16.52-155.39l-3.24-.36Z"/><path class="cls-8" d="M162.85,169.39a30.35,30.35,0,0,0-4.27.15c-2.84,9.92-8.13,8.78-22.79,24.2-.25,1.66-1.25,7-1.9,13.31,4.81-4.78,15.78-13.41,19.67-14.91,6.94-2.7,7.61,12.79,7.61,12.79,6-10.77,1.68-35.54,1.68-35.54Z"/><polygon class="cls-9" points="55.27 218.53 52.27 224.21 99.61 216.31 99 210.99 55.27 218.53"/><path class="cls-9" d="M109.29,158.12s-5.7,2.08-13.59,12.19-2.16,31-2.16,31,1.36-4.94,4.23-13.21C102,176,115.66,194,115.66,194a67.15,67.15,0,0,0-3.6-13.79C108.05,170.13,109.29,158.12,109.29,158.12Z"/><path class="cls-10" d="M97.71,284.3A3.62,3.62,0,0,0,94,287.5a3.24,3.24,0,0,0,3.46,3.2,3.64,3.64,0,0,0,3.76-3.2A3.23,3.23,0,0,0,97.71,284.3Z"/><path class="cls-10" d="M91.36,332.79a3.63,3.63,0,0,0-3.77,3.2,3.24,3.24,0,0,0,3.46,3.2,3.62,3.62,0,0,0,3.76-3.2A3.22,3.22,0,0,0,91.36,332.79Z"/><path class="cls-10" d="M88.21,370.51a3.63,3.63,0,0,0-3.77,3.2,3.24,3.24,0,0,0,3.46,3.2,3.62,3.62,0,0,0,3.76-3.2A3.22,3.22,0,0,0,88.21,370.51Z"/><path class="cls-10" d="M86.34,409.57a3.63,3.63,0,0,0-3.76,3.2A3.23,3.23,0,0,0,86,416a3.63,3.63,0,0,0,3.76-3.2A3.25,3.25,0,0,0,86.34,409.57Z"/><path class="cls-10" d="M108.18,206.17a3.62,3.62,0,0,0-3.76,3.2,3.23,3.23,0,0,0,3.45,3.2,3.64,3.64,0,0,0,3.77-3.2A3.24,3.24,0,0,0,108.18,206.17Z"/><path class="cls-10" d="M102.84,242.33a3.63,3.63,0,0,0-3.77,3.2,3.24,3.24,0,0,0,3.46,3.2,3.62,3.62,0,0,0,3.76-3.2A3.22,3.22,0,0,0,102.84,242.33Z"/><path class="cls-9" d="M151.94,159.84s.18,4.33-4.8,14.45c-3.27,6.66-10,11.45-11.42,20,0,0,20.95-18.29,24-6.13,2.08,8.27,3,13.21,3,13.21s7.73-20.91.81-31S151.94,159.84,151.94,159.84Z"/><path class="cls-11" d="M109.29,158.12a18.15,18.15,0,0,0-3.86,2.33c-5.61,5.12-5.25,15.45-3.24,23.51,5.64-.24,13.47,10.08,13.47,10.08a67.15,67.15,0,0,0-3.6-13.79C108.05,170.13,109.29,158.12,109.29,158.12Z"/><path class="cls-11" d="M151.94,159.84s.18,4.33-4.8,14.45c-3.27,6.66-10,11.45-11.42,20,0,0,12.13-10.59,19.27-10.29,1.74-8.44,2.22-17-2.94-24.11Z"/><path class="cls-9" d="M46.34,231.29c-1.72,14.21-2.87,31-4.3,50.07-.26,3.51-.51,6.75-.74,9.8C51.75,208,69.72,182.31,75.36,176.08a26,26,0,0,0-10.87,5C59.48,190,52.21,206.94,46.34,231.29Z"/><path class="cls-9" d="M49,285.93a8,8,0,0,0,3.62,7.76l7.5,4.72a6.61,6.61,0,0,0,7-.06L77.46,292a8.62,8.62,0,0,0,4.05-6.24l3.92-31.61H52.88Z"/><path class="cls-9" d="M147.27,289.12a8.78,8.78,0,0,0,3.55,7.55l6.35,4.63a9.62,9.62,0,0,0,11.6-.41l10-7.87a12.21,12.21,0,0,0,4.7-9.37l.37-25.9h-35.1Z"/><path class="cls-12" d="M203.23,282.65c9.45,19.93,17.63,39.17,17.81,50-2.44,12.41-35.3,74-42.43,96.26-5.63,17.59,20.53,21,27.24,11,33.16-49.41,62-89.9,62-106.22.06-13.17-5-32-11.68-51Z"/><g class="cls-13"><path class="cls-14" d="M203.23,282.65c9.45,19.93,17.63,39.17,17.81,50a44.07,44.07,0,0,1-2.16,6.6c9.33-7.25,24.39-10.91,33.74-9.52a17.45,17.45,0,0,1,13.87,11.39,25.84,25.84,0,0,0,1.41-7.47c.06-13.17-5-32-11.68-51Z"/></g><path class="cls-4" d="M215.44,189.14c-26.41-18.42-48.56-19.89-48.56-19.89,8,20.56,35.91,118.45,45.58,144.42,6.12-4.11,22.74-10.62,51.22-14.29C253.12,258.4,247.43,211.45,215.44,189.14Z"/><path class="cls-12" d="M183.64,419.72a15.94,15.94,0,0,1,.78-3.48c.38-.76-17.36,1.43-24.66,8.1-4.25,3.88-13,7.32-16,12.24-1.44,2.36-2.38,5.12-4.44,7a12.62,12.62,0,0,1-3.16,2.27,3,3,0,0,0-1.11.75,2,2,0,0,0,.38,2.56,4.41,4.41,0,0,0,2.59,1,13.57,13.57,0,0,0,8.69-2c1.77-1.1,2.88-3,4.58-4.16a6.9,6.9,0,0,1,5.72-.64,1.12,1.12,0,0,1,.63.34,1.24,1.24,0,0,1,.13.93c-.59,4.73-1.36,9.33-2.22,14q-.93,5.1-1.87,10.19c-.26,1.41-.49,3,.28,4.19,1,1.56,3.22,1.76,5,1.35a34.41,34.41,0,0,1,6.12-1.12c2.27-.09,4.4.41,6.61-.45,2.45-.95,4.93-2.46,7.67-2a24.51,24.51,0,0,0,3.6.76,10.75,10.75,0,0,0,4.15-1c3.1-1.19,6-.44,9.11-1,3.62-.68,6.16-3.81,7.5-7.23,3.5-8.91,8.6-33,8.6-33-5.71-2.28-12-2.77-17.66-5.06C191,422.75,187.34,421.18,183.64,419.72Z"/><path class="cls-15" d="M187.33,455.7c-10.1,2.88-23.49,2.75-27.26-9.28-2.11-6.77-.17-16.74,4-25a21.28,21.28,0,0,0-4.34,2.94c-4.25,3.88-13,7.32-16,12.24-1.44,2.36-2.38,5.12-4.44,7a12.62,12.62,0,0,1-3.16,2.27,3,3,0,0,0-1.11.75,2,2,0,0,0,.38,2.56,4.41,4.41,0,0,0,2.59,1,13.57,13.57,0,0,0,8.69-2c1.77-1.1,2.88-3,4.58-4.16a6.9,6.9,0,0,1,5.72-.64,1.12,1.12,0,0,1,.63.34,1.24,1.24,0,0,1,.13.93c-.59,4.73-1.36,9.33-2.22,14q-.93,5.1-1.87,10.19c-.26,1.41-.49,3,.28,4.19,1,1.56,3.22,1.76,5,1.35a34.41,34.41,0,0,1,6.12-1.12c2.27-.09,4.4.41,6.61-.45,2.45-.95,4.93-2.46,7.67-2a24.51,24.51,0,0,0,3.6.76,10.75,10.75,0,0,0,4.15-1c3.1-1.19,6-.44,9.11-1,3.62-.68,6.16-3.81,7.5-7.23,2.59-6.59,6.06-21.52,7.68-28.83C208.72,445.35,198.78,452.43,187.33,455.7Z"/><path class="cls-1" d="M148.35,423.67c-3.5,4.57.55,23.06.55,23.06l6.66.29s.27-16.89,4.2-22.68C161.21,422.21,149.91,421.63,148.35,423.67Z"/><path class="cls-9" d="M173.27,170.24c5.62,10.63,21.67,71.72,23.25,170.84h0c0-17.58,1.35-35.46,2.19-52.51-2.31-67.63-11.38-103.37-17.58-116.32A24.06,24.06,0,0,0,173.27,170.24Z"/><polygon class="cls-9" points="144.88 215.2 188.05 224.21 189.39 218.93 146.23 209.93 144.88 215.2"/><path class="cls-16" d="M202.69,290.81c-.63,6.11,3.47,19.35,7.29,33,3.29,11.71,10.25,11.82,10.25,11.82,14.63-13,47-10,47-10a6.53,6.53,0,0,0,4.36-4.7C271.72,312.64,264,279,264,279,255.54,268.8,203.63,281.63,202.69,290.81Z"/><path class="cls-16" d="M27.31,285.15c-15.94,0-31,13.17-26.51,30.6s10.62,36.33,26.51,32.51c23-5.52,31.62-23,28.63-35.63C51.76,295,43.25,285.15,27.31,285.15Z"/><path class="cls-17" d="M83,186.44a4.63,4.63,0,0,0-4.53-4L51,181.73a4.61,4.61,0,0,0-2.69,1c-2,1.41-2.73,2-2.73,2L56.77,238a1.51,1.51,0,0,0,1.49,1.31l31.29.81a2.42,2.42,0,0,0,2.27-2.73Z"/><path class="cls-18" d="M80.33,182.86a4.87,4.87,0,0,0-1.85-.43L51,181.73a4.61,4.61,0,0,0-2.69,1c-2,1.41-2.73,2-2.73,2l.15.74c5.54-.2,11.07-.08,16.61-.16,2.82,0,8-.51,10.84-.36C80.32,185.42,82.75,184.6,80.33,182.86Z"/><path class="cls-19" d="M100,249.05s1.53-1.56.9-5.68-3.39-3.67-3.39-3.67c6.1-5.45.12-10.55-4-9.53s-8.08,4.71-13.74,6.59-19.9,9.29-19.9,9.29A141.34,141.34,0,0,1,75.8,235.3c7.19-3.91,12-4.26,15.36-7.19s2-8-2.44-8.1-14.38,4-19.83,6.21S53,235,53,235v-4.49a39.18,39.18,0,0,0,2.1-7c.42-2.8-3.21-13.13-5.77-13.29s-3.16,2.53-4.21,8.56-3.7,10.59-5.38,15.9,2,23.57,2,23.57c-.79,4-9.45,23.58-13.64,28.52s-6.33,2.23-13.5,5.3-11,7.54-10,18.16S9.66,320.36,11.33,326s7.08,14.9,10.62,17.87,8,1.87,11.73-2.42,11.73-5,16.94-12.28S62.26,286.9,62.26,286.9a39.5,39.5,0,0,0,4.6-1c4.12-1,18.51-12.15,24.51-16.27S101.5,255,101.75,252.4A3.11,3.11,0,0,0,100,249.05Z"/><path class="cls-20" d="M100,249.05s1.53-1.56.9-5.68-3.39-3.67-3.39-3.67c6.1-5.45.12-10.55-4-9.53s-8.08,4.71-13.74,6.59-19.9,9.29-19.9,9.29A141.34,141.34,0,0,1,75.8,235.3c7.19-3.91,12-4.26,15.36-7.19s2-8-2.44-8.1-14.38,4-19.83,6.21S53,235,53,235v-4.49a39.18,39.18,0,0,0,2.1-7c.42-2.8-3.21-13.13-5.77-13.29s-3.16,2.53-4.21,8.56-3.7,10.59-5.38,15.9,2,23.57,2,23.57c-.79,4-9.45,23.58-13.64,28.52s-6.33,2.23-13.5,5.3-11,7.54-10,18.16S9.66,320.36,11.33,326s7.08,14.9,10.62,17.87,8,1.87,11.73-2.42,11.73-5,16.94-12.28S62.26,286.9,62.26,286.9a39.5,39.5,0,0,0,4.6-1c4.12-1,18.51-12.15,24.51-16.27S101.5,255,101.75,252.4A3.11,3.11,0,0,0,100,249.05Z"/><path class="cls-21" d="M80.32,189a4.65,4.65,0,0,0-4.54-4l-28.69-.74a2.43,2.43,0,0,0-2.28,2.73l9.26,53.58c.14.78,1.21,5.74,2,5.76l31.13-1.42c1.32,0,2.18-3.6,1.95-4.94Z"/><path class="cls-19" d="M101.64,243c-.9-3.74-4.1-3.28-4.1-3.28,6.1-5.45.12-10.55-4-9.53S86,234,79.78,236.76c-5.45,2.42-18.56,8-18.56,8a164.08,164.08,0,0,1,14.91-8.72c7.9-3.92,11.68-5,15-8s2-8-2.44-8.1-14.38,4-19.83,6.21S53,233.39,53,233.39a26,26,0,0,1-6.52,3.77c-2.42,1.6-4.7,3.42-7,5.15a155,155,0,0,0,2.25,15.93c-.79,4-9.45,23.58-13.64,28.52s-6.33,2.23-13.5,5.3-11,7.54-10,18.16S9.66,320.36,11.33,326s7.08,14.9,10.62,17.87,8,1.87,11.73-2.42,11.73-5,16.94-12.29S62.26,286.9,62.26,286.9a39.5,39.5,0,0,0,4.6-1c4.12-1,18.51-12.15,24.51-16.27S101.5,255,101.75,252.4a3.11,3.11,0,0,0-1.72-3.35A5.91,5.91,0,0,0,101.64,243Z"/><path class="cls-22" d="M75.78,184.94l-13.27-.34L46,193.54l2.22,12.87L80.32,189A4.65,4.65,0,0,0,75.78,184.94Z"/><path class="cls-23" d="M54.09,192.18a3.66,3.66,0,0,0-3.73-2.71,2.57,2.57,0,0,0-2.73,2.89l1.21,6.86a3.66,3.66,0,0,0,3.73,2.71A2.57,2.57,0,0,0,55.3,199Z"/><path class="cls-24" d="M54.09,192.18a3.32,3.32,0,0,0-1.94-2.29l-4.52,2a1.55,1.55,0,0,0,0,.43l1.21,6.86a3.66,3.66,0,0,0,3.73,2.71A2.57,2.57,0,0,0,55.3,199Z"/><path class="cls-20" d="M101.64,243c-.9-3.74-4.1-3.28-4.1-3.28,6.1-5.45.12-10.55-4-9.53S86,234,79.78,236.76c-5.45,2.42-18.56,8-18.56,8a164.08,164.08,0,0,1,14.91-8.72c7.9-3.92,11.68-5,15-8s2-8-2.44-8.1-14.38,4-19.83,6.21S53,233.39,53,233.39a26,26,0,0,1-6.52,3.77c-2.42,1.6-4.7,3.42-7,5.15a155,155,0,0,0,2.25,15.93c-.79,4-9.45,23.58-13.64,28.52s-6.33,2.23-13.5,5.3-11,7.54-10,18.16S9.66,320.36,11.33,326s7.08,14.9,10.62,17.87,8,1.87,11.73-2.42,11.73-5,16.94-12.29S62.26,286.9,62.26,286.9a39.5,39.5,0,0,0,4.6-1c4.12-1,18.51-12.15,24.51-16.27S101.5,255,101.75,252.4a3.11,3.11,0,0,0-1.72-3.35A5.91,5.91,0,0,0,101.64,243Zm-48.95-7.75s11.11-5.94,18.21-8.65,15.15-6.33,18.26-5.49,3.38,4.39,1.5,6.39S76.39,234.07,71,237.3,60.38,243.43,56.63,246,47,239.58,52.69,235.23ZM56.18,258c-1.61-1.42-4.52-6-.32-8.65,0,0,4.45-2.39,10.78-5.13s13-5.78,18.6-8.82S95,230.07,97.83,233s-1.74,6.46-4.58,8.33-15.11,8.53-21.38,11.88S57.79,259.38,56.18,258Zm41.59,2.59c-3.75,6.07-17.44,15.17-23.7,18.14s-7.95-3.62-8.4-5.94,2.65-2.84,7.62-5.36S93.38,255.77,96,252.86c0,0,3.1-2.84,3.62-2.65S101.51,254.48,97.77,260.55ZM95.83,251c-3.68,2.93-18.4,12.75-26.41,16.49s-12.42-3.66-9.49-7c0,0,10.84-4.26,17.43-7.75S92.6,244,94.93,242.59s4.13-1.93,5.23.65S99.51,248,95.83,251Z"/><path class="cls-25" d="M42.88,271.91c-2.57.08-4,3-5.12,5a77.41,77.41,0,0,1-4.47,6.71c-3.18,4.18-7.31,7.9-12.37,9.44C13,295.45,9.3,297.28,8.74,304c-.59,7.07,6.62,17.64,18.19,11.18a29,29,0,0,0,6.29-4.89,54.79,54.79,0,0,0,10.5-15.51c2.52-5.39,5.65-13.07,3.38-19.2C46.41,273.71,44.82,271.86,42.88,271.91Z"/><path class="cls-5" d="M77.45,90.06c-5.29,1.75-7.67,9.48-5.31,17.28S80.7,120,86,118.3s7.67-9.48,5.31-17.28S82.75,88.32,77.45,90.06Z"/><path class="cls-26" d="M109.73,19.85l0-.24Z"/><path class="cls-12" d="M174.69,100.86c.06-19-2.72-43-6.58-57.09C165.12,25.41,113.3,16.72,98,42c-4.86,11.7-12.78,33.53-15.41,55.22a3.57,3.57,0,0,1,0-.37s-14.11,57.68,37.21,61.26,57-23.48,54.86-57.2Z"/><g class="cls-27"><ellipse class="cls-12" cx="100.56" cy="107.12" rx="20.1" ry="18.45" transform="translate(-7.94 206.19) rotate(-89.21)"/><ellipse class="cls-28" cx="100.56" cy="107.12" rx="19.97" ry="18.33" transform="translate(-7.94 206.19) rotate(-89.21)"/><path class="cls-29" d="M100.83,87.28c-10.06-.14-18.34,8.63-18.49,19.59s7.88,20,17.94,20.09,18.34-8.63,18.49-19.59S110.89,87.42,100.83,87.28Z"/><ellipse class="cls-30" cx="100.56" cy="107.12" rx="19.72" ry="18.1" transform="translate(-7.94 206.19) rotate(-89.21)"/><ellipse class="cls-31" cx="100.56" cy="107.12" rx="19.59" ry="17.99" transform="translate(-7.94 206.19) rotate(-89.21)"/><path class="cls-32" d="M100.83,87.65c-9.88-.13-18,8.47-18.14,19.23s7.73,19.57,17.6,19.71,18-8.47,18.14-19.22S110.7,87.79,100.83,87.65Z"/><ellipse class="cls-33" cx="100.56" cy="107.12" rx="19.34" ry="17.76" transform="translate(-7.94 206.2) rotate(-89.21)"/><ellipse class="cls-34" cx="100.56" cy="107.12" rx="19.22" ry="17.64" transform="translate(-7.94 206.19) rotate(-89.21)"/><ellipse class="cls-35" cx="100.56" cy="107.12" rx="19.09" ry="17.53" transform="translate(-7.94 206.2) rotate(-89.21)"/><ellipse class="cls-36" cx="100.56" cy="107.12" rx="18.97" ry="17.41" transform="translate(-7.94 206.19) rotate(-89.21)"/><ellipse class="cls-37" cx="100.56" cy="107.12" rx="18.84" ry="17.3" transform="translate(-7.94 206.19) rotate(-89.21)"/><path class="cls-38" d="M100.81,88.41c-9.48-.13-17.29,8.14-17.43,18.47s7.43,18.82,16.92,19,17.29-8.14,17.44-18.47S110.3,88.54,100.81,88.41Z"/><ellipse class="cls-39" cx="100.56" cy="107.12" rx="18.59" ry="17.07" transform="translate(-7.94 206.2) rotate(-89.21)"/><path class="cls-40" d="M100.81,88.66c-9.36-.13-17.06,8-17.2,18.23s7.33,18.56,16.69,18.69,17.07-8,17.21-18.23S110.17,88.79,100.81,88.66Z"/><ellipse class="cls-41" cx="100.56" cy="107.12" rx="18.34" ry="16.84" transform="translate(-7.94 206.2) rotate(-89.21)"/><ellipse class="cls-42" cx="100.56" cy="107.12" rx="18.21" ry="16.72" transform="translate(-7.94 206.2) rotate(-89.21)"/><ellipse class="cls-43" cx="100.56" cy="107.12" rx="18.09" ry="16.6" transform="translate(-7.94 206.19) rotate(-89.21)"/><ellipse class="cls-44" cx="100.56" cy="107.12" rx="17.96" ry="16.49" transform="translate(-7.94 206.19) rotate(-89.21)"/><ellipse class="cls-45" cx="100.56" cy="107.12" rx="17.84" ry="16.37" transform="translate(-7.94 206.19) rotate(-89.21)"/><path class="cls-46" d="M100.8,89.41c-9-.12-16.37,7.71-16.5,17.49s7,17.81,16,17.93,16.37-7.7,16.5-17.48S109.78,89.54,100.8,89.41Z"/><path class="cls-47" d="M100.8,89.54c-8.92-.12-16.25,7.65-16.38,17.36s7,17.68,15.9,17.8,16.25-7.65,16.38-17.36S109.71,89.66,100.8,89.54Z"/><ellipse class="cls-48" cx="100.56" cy="107.12" rx="17.46" ry="16.03" transform="translate(-7.94 206.2) rotate(-89.21)"/><ellipse class="cls-49" cx="100.56" cy="107.12" rx="17.33" ry="15.91" transform="translate(-7.94 206.2) rotate(-89.21)"/><ellipse class="cls-50" cx="100.56" cy="107.12" rx="17.21" ry="15.8" transform="translate(-7.94 206.2) rotate(-89.21)"/><ellipse class="cls-51" cx="100.56" cy="107.12" rx="17.08" ry="15.68" transform="translate(-7.94 206.19) rotate(-89.21)"/><ellipse class="cls-52" cx="100.56" cy="107.12" rx="16.96" ry="15.57" transform="translate(-7.94 206.19) rotate(-89.21)"/><path class="cls-53" d="M100.79,90.29c-8.53-.12-15.56,7.32-15.68,16.62s6.68,16.92,15.22,17,15.55-7.32,15.68-16.62S109.32,90.41,100.79,90.29Z"/><ellipse class="cls-54" cx="100.56" cy="107.12" rx="16.71" ry="15.34" transform="translate(-7.94 206.2) rotate(-89.21)"/><ellipse class="cls-55" cx="100.56" cy="107.12" rx="16.58" ry="15.22" transform="translate(-7.94 206.19) rotate(-89.21)"/><ellipse class="cls-56" cx="100.56" cy="107.12" rx="16.45" ry="15.11" transform="translate(-7.93 206.2) rotate(-89.21)"/><ellipse class="cls-57" cx="100.56" cy="107.12" rx="16.33" ry="14.99" transform="translate(-7.94 206.2) rotate(-89.21)"/><ellipse class="cls-58" cx="100.56" cy="107.12" rx="16.2" ry="14.88" transform="translate(-7.94 206.19) rotate(-89.21)"/><ellipse class="cls-59" cx="100.56" cy="107.12" rx="16.08" ry="14.76" transform="translate(-7.94 206.19) rotate(-89.21)"/><ellipse class="cls-60" cx="100.56" cy="107.12" rx="15.95" ry="14.64" transform="translate(-7.94 206.19) rotate(-89.21)"/><ellipse class="cls-61" cx="100.56" cy="107.12" rx="15.83" ry="14.53" transform="translate(-7.94 206.19) rotate(-89.21)"/><ellipse class="cls-62" cx="100.56" cy="107.12" rx="15.7" ry="14.41" transform="translate(-7.94 206.2) rotate(-89.21)"/><path class="cls-63" d="M100.77,91.55c-7.89-.11-14.39,6.77-14.51,15.37s6.19,15.67,14.08,15.77,14.4-6.77,14.51-15.37S108.67,91.66,100.77,91.55Z"/><path class="cls-64" d="M100.77,91.67c-7.83-.1-14.28,6.72-14.39,15.26s6.13,15.53,14,15.64,14.28-6.72,14.4-15.25S108.6,91.78,100.77,91.67Z"/><ellipse class="cls-65" cx="100.56" cy="107.12" rx="15.32" ry="14.07" transform="translate(-7.94 206.2) rotate(-89.21)"/><ellipse class="cls-66" cx="100.56" cy="107.12" rx="15.2" ry="13.95" transform="translate(-7.94 206.19) rotate(-89.21)"/><ellipse class="cls-67" cx="100.56" cy="107.12" rx="15.07" ry="13.84" transform="translate(-7.94 206.19) rotate(-89.21)"/><ellipse class="cls-68" cx="100.56" cy="107.12" rx="14.95" ry="13.72" transform="translate(-7.94 206.19) rotate(-89.21)"/><ellipse class="cls-69" cx="100.56" cy="107.12" rx="14.82" ry="13.61" transform="translate(-7.94 206.19) rotate(-89.21)"/><path class="cls-70" d="M100.76,92.43c-7.45-.11-13.58,6.39-13.69,14.51s5.83,14.77,13.28,14.88,13.59-6.4,13.7-14.51S108.21,92.53,100.76,92.43Z"/><ellipse class="cls-71" cx="100.56" cy="107.12" rx="14.57" ry="13.38" transform="translate(-7.94 206.2) rotate(-89.21)"/><ellipse class="cls-72" cx="100.56" cy="107.12" rx="14.44" ry="13.26" transform="translate(-7.94 206.19) rotate(-89.21)"/><path class="cls-73" d="M100.75,92.8c-7.26-.1-13.23,6.23-13.34,14.14s5.69,14.4,13,14.5,13.23-6.23,13.34-14.14S108,92.9,100.75,92.8Z"/><ellipse class="cls-74" cx="100.56" cy="107.12" rx="14.19" ry="13.03" transform="translate(-7.94 206.19) rotate(-89.21)"/><ellipse class="cls-75" cx="100.56" cy="107.12" rx="14.07" ry="12.91" transform="translate(-7.94 206.19) rotate(-89.21)"/><ellipse class="cls-76" cx="100.56" cy="107.12" rx="13.94" ry="12.8" transform="translate(-7.94 206.19) rotate(-89.21)"/><path class="cls-77" d="M100.75,93.31c-7-.1-12.77,6-12.88,13.64s5.49,13.89,12.5,14,12.77-6,12.87-13.64S107.75,93.4,100.75,93.31Z"/><ellipse class="cls-78" cx="100.56" cy="107.12" rx="13.69" ry="12.57" transform="translate(-7.94 206.19) rotate(-89.21)"/><path class="cls-79" d="M100.74,93.56c-6.87-.1-12.53,5.9-12.64,13.39s5.39,13.64,12.27,13.74,12.54-5.91,12.64-13.4S107.62,93.65,100.74,93.56Z"/><path class="cls-80" d="M100.74,93.68c-6.81-.09-12.42,5.85-12.52,13.27s5.34,13.52,12.15,13.61,12.42-5.85,12.52-13.27S107.56,93.78,100.74,93.68Z"/><ellipse class="cls-81" cx="100.56" cy="107.12" rx="13.31" ry="12.22" transform="translate(-7.94 206.19) rotate(-89.21)"/><path class="cls-82" d="M100.74,93.93c-6.69-.09-12.19,5.74-12.29,13s5.24,13.27,11.93,13.36,12.18-5.74,12.28-13S107.43,94,100.74,93.93Z"/><path class="cls-83" d="M100.74,94.06C94.11,94,88.67,99.74,88.57,107s5.18,13.13,11.81,13.22,12.07-5.68,12.17-12.89S107.36,94.15,100.74,94.06Z"/><ellipse class="cls-84" cx="100.56" cy="107.12" rx="12.94" ry="11.88" transform="translate(-7.94 206.2) rotate(-89.21)"/><path class="cls-85" d="M100.73,94.31C94.24,94.22,88.89,99.88,88.8,107s5.09,12.88,11.58,13,11.84-5.57,11.94-12.65S107.23,94.4,100.73,94.31Z"/><path class="cls-86" d="M100.73,94.44C94.3,94.35,89,100,88.91,107s5,12.76,11.47,12.85,11.73-5.52,11.82-12.53S107.16,94.53,100.73,94.44Z"/><path class="cls-87" d="M100.73,94.56C94.36,94.47,89.12,100,89,107s5,12.63,11.35,12.72,11.61-5.46,11.71-12.4S107.1,94.65,100.73,94.56Z"/><ellipse class="cls-88" cx="100.56" cy="107.12" rx="12.43" ry="11.42" transform="translate(-7.94 206.19) rotate(-89.21)"/><path class="cls-89" d="M100.73,94.81c-6.24-.08-11.38,5.36-11.47,12.16s4.89,12.37,11.13,12.46,11.37-5.36,11.47-12.15S107,94.9,100.73,94.81Z"/><path class="cls-90" d="M100.72,94.94c-6.17-.09-11.25,5.3-11.35,12s4.84,12.25,11,12.33,11.26-5.3,11.35-12S106.9,95,100.72,94.94Z"/><ellipse class="cls-91" cx="100.56" cy="107.12" rx="12.06" ry="11.07" transform="translate(-7.94 206.2) rotate(-89.21)"/><path class="cls-92" d="M100.72,95.19c-6-.08-11,5.19-11.12,11.78s4.74,12,10.79,12.08,11-5.19,11.12-11.78S106.77,95.27,100.72,95.19Z"/><ellipse class="cls-93" cx="100.56" cy="107.12" rx="11.81" ry="10.84" transform="translate(-7.94 206.19) rotate(-89.21)"/><ellipse class="cls-94" cx="100.56" cy="107.12" rx="11.68" ry="10.72" transform="translate(-7.94 206.19) rotate(-89.21)"/><path class="cls-95" d="M100.72,95.57C94.86,95.49,90,100.59,90,107s4.59,11.62,10.45,11.7,10.68-5,10.76-11.41S106.57,95.65,100.72,95.57Z"/><path class="cls-96" d="M100.71,95.69c-5.79-.08-10.56,5-10.65,11.29s4.55,11.49,10.34,11.57,10.56-5,10.65-11.28S106.51,95.77,100.71,95.69Z"/><path class="cls-97" d="M100.71,95.82C95,95.74,90.27,100.74,90.18,107s4.49,11.37,10.22,11.44,10.45-4.91,10.53-11.16S106.44,95.9,100.71,95.82Z"/><path class="cls-98" d="M100.71,95.94c-5.67-.07-10.33,4.87-10.41,11s4.44,11.24,10.1,11.32,10.33-4.86,10.42-11S106.38,96,100.71,95.94Z"/><path class="cls-99" d="M100.71,96.07c-5.6-.08-10.22,4.81-10.3,10.91s4.39,11.12,10,11.19,10.21-4.81,10.29-10.91S106.31,96.15,100.71,96.07Z"/><path class="cls-100" d="M100.71,96.2C95.17,96.12,90.61,101,90.53,107s4.34,11,9.88,11.07,10.1-4.76,10.18-10.79S106.25,96.27,100.71,96.2Z"/><path class="cls-101" d="M100.71,96.32c-5.48-.07-10,4.7-10.07,10.66s4.29,10.87,9.77,10.94,10-4.7,10.06-10.66S106.18,96.4,100.71,96.32Z"/><ellipse class="cls-102" cx="100.56" cy="107.12" rx="10.68" ry="9.8" transform="translate(-7.94 206.19) rotate(-89.21)"/><path class="cls-103" d="M100.7,96.57C95.35,96.5,91,101.16,90.87,107s4.19,10.61,9.54,10.68,9.75-4.59,9.83-10.42S106.05,96.65,100.7,96.57Z"/><path class="cls-104" d="M100.7,96.7c-5.28-.08-9.63,4.53-9.71,10.29s4.14,10.48,9.42,10.56,9.64-4.54,9.72-10.3S106,96.77,100.7,96.7Z"/><path class="cls-105" d="M100.7,96.82c-5.22-.07-9.52,4.48-9.6,10.17s4.09,10.36,9.32,10.43,9.51-4.48,9.59-10.17S105.92,96.89,100.7,96.82Z"/><path class="cls-106" d="M100.7,97c-5.16-.07-9.4,4.42-9.48,10s4,10.23,9.2,10.3,9.4-4.42,9.48-10S105.86,97,100.7,97Z"/><path class="cls-107" d="M100.7,97.07c-5.1-.07-9.29,4.38-9.37,9.92s4,10.11,9.09,10.18,9.28-4.37,9.36-9.92S105.79,97.14,100.7,97.07Z"/></g><g class="cls-27"><circle class="cls-12" cx="151.36" cy="108.7" r="20.1" transform="translate(-28.25 59.06) rotate(-20.23)"/><circle class="cls-28" cx="151.36" cy="108.7" r="19.97" transform="translate(-18.34 185.68) rotate(-60.09)"/><circle class="cls-29" cx="151.36" cy="108.7" r="19.85" transform="matrix(0.97, -0.25, 0.25, 0.97, -22.68, 42.11)"/><circle class="cls-30" cx="151.36" cy="108.7" r="19.72" transform="translate(-6.46 9.61) rotate(-3.56)"/><circle class="cls-31" cx="151.36" cy="108.7" r="19.59" transform="translate(-31.8 74.38) rotate(-25.07)"/><circle class="cls-32" cx="151.36" cy="108.7" r="19.47" transform="translate(-34.32 92.95) rotate(-30.84)"/><circle class="cls-33" cx="151.36" cy="108.7" r="19.34" transform="translate(-30.39 149.84) rotate(-48.44)"/><circle class="cls-34" cx="151.36" cy="108.7" r="19.22" transform="translate(1.28 219.15) rotate(-72.03)"/><circle class="cls-35" cx="151.36" cy="108.7" r="19.09" transform="translate(-21.32 178.75) rotate(-57.76)"/><circle class="cls-36" cx="151.36" cy="108.7" r="18.97" transform="translate(-23.45 44.14) rotate(-15.41)"/><circle class="cls-37" cx="151.36" cy="108.7" r="18.84" transform="translate(-1.94 214.64) rotate(-70.33)"/><circle class="cls-38" cx="151.36" cy="108.7" r="18.71" transform="translate(-14.39 193.86) rotate(-62.88)"/><circle class="cls-39" cx="151.36" cy="108.7" r="18.59" transform="translate(-5.35 7.87) rotate(-2.93)"/><circle class="cls-40" cx="151.36" cy="108.7" r="18.46" transform="translate(37.9 256.51) rotate(-88.17)"/><circle class="cls-41" cx="151.36" cy="108.7" r="18.34" transform="translate(-25.42 167.62) rotate(-54.12)"/><circle class="cls-42" cx="151.36" cy="108.7" r="18.21" transform="translate(-33.73 87.09) rotate(-29.03)"/><circle class="cls-43" cx="151.36" cy="108.7" r="18.09" transform="translate(-32.53 138.87) rotate(-45)"/><circle class="cls-44" cx="151.36" cy="108.7" r="17.96" transform="translate(-2.23 214.22) rotate(-70.17)"/><circle class="cls-45" cx="151.36" cy="108.7" r="17.84" transform="translate(-1.87 2.65) rotate(-1)"/><circle class="cls-46" cx="151.36" cy="108.7" r="17.71" transform="translate(6.6 226.04) rotate(-74.71)"/><circle class="cls-47" cx="151.36" cy="108.7" r="17.58" transform="translate(-31.49 72.77) rotate(-24.57)"/><circle class="cls-48" cx="151.36" cy="108.7" r="17.46" transform="translate(-10.11 201.71) rotate(-65.63)"/><circle class="cls-49" cx="151.36" cy="108.7" r="17.33" transform="translate(-19.73 182.54) rotate(-59.03)"/><circle class="cls-50" cx="151.36" cy="108.7" r="17.21" transform="translate(-21.32 178.73) rotate(-57.76)"/><circle class="cls-51" cx="151.36" cy="108.7" r="17.08" transform="translate(-19.64 34.64) rotate(-12.27)"/><circle class="cls-52" cx="151.36" cy="108.7" r="16.96" transform="translate(-31.89 74.85) rotate(-25.22)"/><circle class="cls-53" cx="151.36" cy="108.7" r="16.83" transform="translate(-33.17 134.66) rotate(-43.69)"/><path class="cls-54" d="M151.59,92a16.71,16.71,0,1,0,16.48,16.94A16.71,16.71,0,0,0,151.59,92Z"/><path class="cls-55" d="M151.59,92.12a16.58,16.58,0,1,0,16.35,16.8A16.58,16.58,0,0,0,151.59,92.12Z"/><circle class="cls-56" cx="151.36" cy="108.7" r="16.45" transform="translate(27.85 248.23) rotate(-84.17)"/><circle class="cls-57" cx="151.36" cy="108.7" r="16.33" transform="translate(35.92 254.98) rotate(-87.4)"/><path class="cls-58" d="M151.59,92.49a16.21,16.21,0,1,0,16,16.43A16.21,16.21,0,0,0,151.59,92.49Z"/><circle class="cls-59" cx="151.36" cy="108.7" r="16.08" transform="translate(-17 188.57) rotate(-61.06)"/><circle class="cls-60" cx="151.36" cy="108.7" r="15.95"/><circle class="cls-61" cx="151.36" cy="108.7" r="15.83" transform="translate(-27.16 162.11) rotate(-52.34)"/><circle class="cls-62" cx="151.36" cy="108.7" r="15.7" transform="translate(-34.09 126.93) rotate(-41.3)"/><circle class="cls-63" cx="151.36" cy="108.7" r="15.57" transform="translate(-33.97 89.28) rotate(-29.7)"/><circle class="cls-64" cx="151.36" cy="108.7" r="15.45" transform="translate(-16.26 190.11) rotate(-61.59)"/><circle class="cls-65" cx="151.36" cy="108.7" r="15.32" transform="matrix(0.99, -0.15, 0.15, 0.99, -14.62, 23.99)"/><path class="cls-66" d="M151.57,93.5a15.2,15.2,0,1,0,15,15.4A15.19,15.19,0,0,0,151.57,93.5Z"/><path class="cls-67" d="M151.57,93.62a15.08,15.08,0,1,0,14.86,15.28A15.08,15.08,0,0,0,151.57,93.62Z"/><circle class="cls-68" cx="151.36" cy="108.7" r="14.95" transform="translate(2.45 220.72) rotate(-72.64)"/><path class="cls-69" d="M151.57,93.88a14.82,14.82,0,1,0,14.61,15A14.82,14.82,0,0,0,151.57,93.88Z"/><circle class="cls-70" cx="151.36" cy="108.7" r="14.7" transform="translate(-28.26 59.1) rotate(-20.25)"/><circle class="cls-71" cx="151.36" cy="108.7" r="14.57" transform="translate(23.05 243.83) rotate(-82.17)"/><circle class="cls-72" cx="151.36" cy="108.7" r="14.44" transform="translate(-22.58 41.83) rotate(-14.66)"/><circle class="cls-73" cx="151.36" cy="108.7" r="14.32" transform="translate(-33.79 87.65) rotate(-29.2)"/><path class="cls-74" d="M151.56,94.5a14.2,14.2,0,1,0,14,14.39A14.2,14.2,0,0,0,151.56,94.5Z"/><circle class="cls-75" cx="151.36" cy="108.7" r="14.07" transform="translate(-19.99 35.45) rotate(-12.54)"/><circle class="cls-76" cx="151.36" cy="108.7" r="13.94" transform="translate(-2.08 2.96) rotate(-1.11)"/><path class="cls-77" d="M151.55,94.88a13.82,13.82,0,1,0,13.63,14A13.82,13.82,0,0,0,151.55,94.88Z"/><path class="cls-78" d="M151.55,95a13.69,13.69,0,1,0,13.5,13.87A13.69,13.69,0,0,0,151.55,95Z"/><path class="cls-79" d="M151.55,95.13a13.57,13.57,0,1,0,13.38,13.75A13.57,13.57,0,0,0,151.55,95.13Z"/><circle class="cls-80" cx="151.36" cy="108.7" r="13.44" transform="matrix(0.34, -0.94, 0.94, 0.34, -2.35, 214.03)"/><path class="cls-81" d="M151.55,95.38a13.32,13.32,0,1,0,13.12,13.5A13.31,13.31,0,0,0,151.55,95.38Z"/><circle class="cls-82" cx="151.36" cy="108.7" r="13.19" transform="matrix(1, -0.08, 0.08, 1, -8.47, 12.9)"/><path class="cls-83" d="M151.54,95.63a13.07,13.07,0,1,0,12.88,13.25A13.07,13.07,0,0,0,151.54,95.63Z"/><path class="cls-84" d="M151.54,95.76a12.94,12.94,0,1,0,12.76,13.11A12.93,12.93,0,0,0,151.54,95.76Z"/><circle class="cls-85" cx="151.36" cy="108.7" r="12.81" transform="translate(-25.92 51.28) rotate(-17.74)"/><path class="cls-86" d="M151.54,96a12.69,12.69,0,1,0,12.51,12.86A12.68,12.68,0,0,0,151.54,96Z"/><path class="cls-87" d="M151.54,96.14a12.56,12.56,0,1,0,12.38,12.73A12.56,12.56,0,0,0,151.54,96.14Z"/><path class="cls-88" d="M151.53,96.26a12.44,12.44,0,1,0,12.27,12.61A12.44,12.44,0,0,0,151.53,96.26Z"/><path class="cls-89" d="M151.53,96.39a12.31,12.31,0,1,0,12.14,12.47A12.31,12.31,0,0,0,151.53,96.39Z"/><path class="cls-90" d="M151.53,96.51a12.19,12.19,0,1,0,12,12.35A12.19,12.19,0,0,0,151.53,96.51Z"/><path class="cls-91" d="M151.53,96.64a12.06,12.06,0,1,0,11.89,12.22A12.05,12.05,0,0,0,151.53,96.64Z"/><path class="cls-92" d="M151.53,96.76a11.94,11.94,0,1,0,11.76,12.1A11.94,11.94,0,0,0,151.53,96.76Z"/><circle class="cls-93" cx="151.36" cy="108.7" r="11.81" transform="translate(-24.64 47.48) rotate(-16.5)"/><path class="cls-94" d="M151.52,97A11.68,11.68,0,1,0,163,108.86,11.67,11.67,0,0,0,151.52,97Z"/><path class="cls-95" d="M151.52,97.14a11.56,11.56,0,1,0,11.4,11.71A11.56,11.56,0,0,0,151.52,97.14Z"/><path class="cls-96" d="M151.52,97.27a11.43,11.43,0,1,0,11.27,11.58A11.43,11.43,0,0,0,151.52,97.27Z"/><path class="cls-97" d="M151.52,97.39a11.31,11.31,0,1,0,11.15,11.46A11.32,11.32,0,0,0,151.52,97.39Z"/><path class="cls-98" d="M151.52,97.52a11.18,11.18,0,1,0,11,11.33A11.18,11.18,0,0,0,151.52,97.52Z"/><circle class="cls-99" cx="151.36" cy="108.7" r="11.05" transform="translate(34.72 254.02) rotate(-86.93)"/><path class="cls-100" d="M151.51,97.77a10.93,10.93,0,1,0,10.78,11.08A10.92,10.92,0,0,0,151.51,97.77Z"/><path class="cls-101" d="M151.51,97.89a10.81,10.81,0,1,0,10.65,11A10.81,10.81,0,0,0,151.51,97.89Z"/><path class="cls-102" d="M151.51,98A10.68,10.68,0,1,0,162,108.84,10.67,10.67,0,0,0,151.51,98Z"/><circle class="cls-103" cx="151.36" cy="108.7" r="10.55" transform="translate(-14.41 23.57) rotate(-8.5)"/><path class="cls-104" d="M151.51,98.27a10.43,10.43,0,1,0,10.28,10.57A10.42,10.42,0,0,0,151.51,98.27Z"/><path class="cls-105" d="M151.5,98.4a10.3,10.3,0,1,0,10.16,10.44A10.3,10.3,0,0,0,151.5,98.4Z"/><path class="cls-106" d="M151.5,98.52a10.18,10.18,0,1,0,10,10.32A10.18,10.18,0,0,0,151.5,98.52Z"/><path class="cls-107" d="M151.5,98.65a10,10,0,1,0,9.91,10.18A10,10,0,0,0,151.5,98.65Z"/></g><path class="cls-12" d="M185.72,91.58c-5.25-1.89-11.59,2.84-14.16,10.57s-.41,15.53,4.84,17.42S188,116.72,190.56,109,191,93.47,185.72,91.58Z"/><path class="cls-5" d="M186.28,109.83a11.9,11.9,0,0,1-14.43-1,51.9,51.9,0,0,1-10.67,31.43c-7.51,10.09-23.71,13.41-35.74,12.95-28.69-1.1-36.23-9.88-42.11-21.73,4,13,13.94,25,36.5,26.6,41.82,2.92,53.36-14.5,55-39.3a6.93,6.93,0,0,0,1.55.81c5.25,1.89,11.58-2.85,14.16-10.58a20.81,20.81,0,0,0,1.06-5.88A13,13,0,0,1,186.28,109.83Z"/><path class="cls-5" d="M177,105.6l4.8.69c0-7.57,5.59-10.08,5.59-10.08C178.29,92.9,177,105.6,177,105.6Z"/><path class="cls-108" d="M138.49,65s-10,19.28-.38,30.67l23.79-1.4s1.47-8,.79-13.1S138.49,65,138.49,65Z"/><path class="cls-109" d="M108.17,123.42s-.85,2.82.54,4.21,5.37,5,17.78,4.41c11.7-.56,17-4.88,18-6.87s-.14-4.9-.14-4.9Z"/><path class="cls-108" d="M93.5,81.18A84.4,84.4,0,0,0,91,93.44l22,3.19C123.44,85.45,119,65.27,119,65.27S95,76.6,93.5,81.18Z"/><path class="cls-110" d="M151.63,86.5c-10-.89-13.52,9.18-13.52,9.18s2,2.76,12.5,3c12.11.24,11.29-4.37,11.29-4.37S161.58,87.39,151.63,86.5Z"/><path class="cls-110" d="M91,93.44s-1.18,4,9.67,4.52c11.38.5,12.37-1.33,12.37-1.33S102.28,76.52,91,93.44Z"/><path class="cls-111" d="M106.12,89.21c-2.37-.78-5.3,1.64-6.55,5.41A10.53,10.53,0,0,0,99,97.85c.52.05,1.07.09,1.66.11a62.46,62.46,0,0,0,7.26,0c.06-.16.14-.31.19-.48C109.4,93.68,108.48,90,106.12,89.21Z"/><path class="cls-112" d="M151.94,88.77c-2.37-.87-5.3,1.81-6.54,6a13.86,13.86,0,0,0-.49,3.44,45.48,45.48,0,0,0,5.7.45c1.16,0,2.19,0,3.13-.06.08-.22.17-.45.24-.68C155.22,93.73,154.31,89.64,151.94,88.77Z"/><path class="cls-26" d="M101.51,85.09C93.31,84.74,91,93.44,91,93.44a13.68,13.68,0,0,1,9.89-4.32c7-.06,12.15,7.51,12.15,7.51S112.58,85.56,101.51,85.09Z"/><path class="cls-113" d="M93.5,81.18c10.64-6.63,20-3.06,24.78-7.37,1.81-1.64.7-8.54.7-8.54C93.5,68,93.5,81.18,93.5,81.18Z"/><path class="cls-113" d="M138.49,65s-3.42,6.82-2.16,8.66c3.95,5.72,18.2,2.21,26.33,9C162.66,82.62,164.65,71.09,138.49,65Z"/><path class="cls-26" d="M150.41,85.07c-11.17-.67-12.32,10.4-12.32,10.4s2.71-6.21,12.39-5.5,11.42,4.31,11.42,4.31S161.11,85.71,150.41,85.07Z"/><path class="cls-114" d="M145.62,119.77v0Z"/><path class="cls-12" d="M119.61,102s-7.53-5.52-10.24,4.09,16.47,15.4,21.77,5.36-8.39-28.85-8.39-28.85S125.43,94.18,119.61,102Z"/><path class="cls-115" d="M172.49,93.24c-.93,9.91-4.31,16.14-8.18,20.07a11.26,11.26,0,0,1-11.8,2.6c-6-2.15-15-5.93-31.07-4.43,0,0-28.63,15.57-35.46-2.81a52.23,52.23,0,0,1-2.83-15.43c-6.42,26.11-9.27,67,44.81,67,54.93,0,47.49-42.18,47.49-42.18-2.63-9.26,2.21-24.82,2.21-24.82Zm-25.84,35.45c-3.36,3.94-9.62,7.5-18.72,8-.86.05-1.7.08-2.51.08a32.37,32.37,0,0,1-18.81-5.5,4.54,4.54,0,0,1-.2-7.34h0a64.62,64.62,0,0,0,20.89,2.14,49.83,49.83,0,0,0,18.58-4.58C148.43,123.08,148.59,126.42,146.65,128.69Z"/><path class="cls-116" d="M119.61,102s-7.31-5.2-10,3.44a67.29,67.29,0,0,0,12,1.86c2.32-5.5,3.12-11.46,3.39-17.89h-1.57A21,21,0,0,1,119.61,102Z"/><path class="cls-115" d="M132,18C78.8,21.5,86.53,80.42,86.53,80.42,89.7,62.9,100.65,41.17,109,40.74a32,32,0,0,0,18.16,6.16c9.74.2,23.24-6.89,23.24-6.89,9.72-.22,20.83,29.85,22.13,54.09.29,5.54,5.11-.86,5.11-.86S184.07,14.52,132,18Z"/><path class="cls-115" d="M159.76,22.56c-15.72-24-66.95-17-66.95-17-5,27.23,14.07,33.36,14.07,33.36s44.35-7.9,51.06-3.17,19.81,42.81,19.81,42.81,11.34-39.73,3-54.35C174.6,13.46,159.76,22.56,159.76,22.56Z"/><path class="cls-115" d="M112.63,0c.18,3.6,3.29,7.27,3.29,7.27s53.72,36.49,43.84,15.29S112.63,0,112.63,0Z"/><path class="cls-115" d="M168.47,15.26c-3,.47-3.74,1.9-3.74,1.9,2.18-4,.68-9.39.68-9.39-5.9,3.38-5.32,8.09-5.32,8.09-2.89-6.06-11.8-7.94-11.8-7.94.29,5,5.63,10.12,5.92,10.28l4.62,7,9.58-1.51-.94-4.27A5.28,5.28,0,0,0,168.47,15.26Z"/><path class="cls-113" d="M94.25,26.25c-15.62,4.75-11.1,67-11.1,67,3.16-17.53,17.5-52.07,25.87-52.5A55.27,55.27,0,0,1,94.25,26.25Z"/><path class="cls-11" d="M155.05,22.11s.08,0,0,0Z"/><path class="cls-11" d="M155.05,21.7Z"/><path class="cls-117" d="M174.68,19.36c-1.91.3-3.93.78-6,1.25-5,1.13-10.21,1.89-15.3,1.21-5.92-.79-11.12-3.44-16.38-6.1-2.65-1.34-5.3-2.7-8-3.88-5.86-2.51-12.77-5-19.22-4.76a27.1,27.1,0,0,0-9.27,2.29,20,20,0,0,0-6.62,4.42,18.73,18.73,0,0,0-1.8,2.11,32.89,32.89,0,0,0,.77,5.85c.2-.17.41-.33.64-.51a19.86,19.86,0,0,1,4-2.25,17.62,17.62,0,0,1,5.29-1.34c7.69-.59,14.82,2.49,21.76,5.36,2.84,1.17,5.73,2.54,8.78,3.8a96.17,96.17,0,0,0,9.55,3.55c5.59,1.7,12.43,2.22,18.13.64.77-.21,1.53-.39,2.27-.62a51.35,51.35,0,0,0,7.72-3.27c2.22-1.14,4.13-2.18,5.8-3a22.15,22.15,0,0,1,3.15-1.26A9.53,9.53,0,0,0,174.68,19.36Z"/><path class="cls-11" d="M154.92,22.11h0Z"/><path class="cls-5" d="M109.18,108.8c1.1,7.9,17.17,11.73,22,2.67a9.7,9.7,0,0,0,.69-1.74A47.73,47.73,0,0,1,109.18,108.8Z"/><path class="cls-118" d="M134.05,139.64a29.25,29.25,0,0,1-9.36.93,3,3,0,0,0-3.2,3.6c.47,2.09,2.43,4.06,8.51,3.34,5.92-.7,7.58-2.87,7.76-4.85A3,3,0,0,0,134.05,139.64Z"/><path class="cls-119" d="M100.21,92.56c-1.83.72-3.06,2-2.75,2.73s2,.84,3.88.11,3.06-1.94,2.75-2.73S102,91.84,100.21,92.56Z"/><path class="cls-119" d="M146.29,93.46c-1.55.62-2.56,1.75-2.25,2.53s1.82.93,3.37.32,2.56-1.75,2.25-2.53S147.84,92.85,146.29,93.46Z"/></g></g></svg>