<svg id="Ñëîé_1" data-name="Ñëîé 1" xmlns="http://www.w3.org/2000/svg" xmlns:xlink="http://www.w3.org/1999/xlink" viewBox="0 0 960 560"><defs><style>.cls-1,.cls-11,.cls-136,.cls-139,.cls-23,.cls-26,.cls-27,.cls-30,.cls-39,.cls-55,.cls-58,.cls-60,.cls-61{fill:#fff;}.cls-2{fill:#593025;}.cls-11,.cls-135,.cls-2,.cls-34{opacity:0.11;}.cls-3{fill:#e54b1c;}.cls-4{fill:#3d3d3d;}.cls-5{fill:#424242;}.cls-6{fill:#2d2d2d;}.cls-7{fill:#e85a28;}.cls-8{fill:#4d4d4d;}.cls-9{fill:#ddd;}.cls-10{fill:#696970;}.cls-12{fill:#f45b2c;}.cls-13{opacity:0.14;}.cls-14{opacity:0.59;}.cls-15{opacity:0.53;}.cls-16{fill:#ededed;}.cls-17{fill:#4f4f4f;}.cls-18{fill:#595959;}.cls-19{fill:#494949;}.cls-20{fill:#9eccc9;}.cls-21{fill:#86b2b0;}.cls-22{fill:#db2e05;}.cls-23{opacity:0.55;}.cls-24{fill:#d1421c;}.cls-25{fill:#f45d2f;}.cls-26{opacity:0.42;}.cls-27{opacity:0.24;}.cls-28{fill:#dd4f24;}.cls-29{fill:#3d2405;opacity:0.1;}.cls-30{opacity:0.12;}.cls-31{opacity:0.15;}.cls-32{fill:#495259;}.cls-33{fill:#959caf;}.cls-35{fill:#363c42;}.cls-36{opacity:0.09;}.cls-37{fill:#343a42;}.cls-38{fill:#616970;}.cls-39{opacity:0.07;}.cls-40{fill:#424951;}.cls-41,.cls-51{fill:#f78769;}.cls-42{fill:#6d7db3;}.cls-43{fill:#3d4041;}.cls-44{fill:#dfe5ea;}.cls-45{fill:#7588bc;}.cls-46{fill:#002a3d;}.cls-46,.cls-61{opacity:0.08;}.cls-47{fill:#b0b5c1;}.cls-48{fill:#fe9a78;}.cls-49{fill:#b6bdce;}.cls-50,.cls-56{opacity:0.45;}.cls-51{opacity:0.54;}.cls-52{fill:#70797f;}.cls-53{fill:#80898e;}.cls-54{fill:url(#Áåçûìÿííûé_ãðàäèåíò_20);}.cls-55{opacity:0.27;}.cls-56{fill:#d7806a;}.cls-57{fill:url(#Áåçûìÿííûé_ãðàäèåíò_19);}.cls-58{opacity:0.22;}.cls-59{fill:#373838;}.cls-60{opacity:0.05;}.cls-62{fill:#351f18;}.cls-63{opacity:0.33;}.cls-64{fill:#de9178;}.cls-65{fill:#de9077;}.cls-66{fill:#de8f77;}.cls-67{fill:#de8e76;}.cls-68{fill:#de8d76;}.cls-69{fill:#de8c75;}.cls-70{fill:#de8b74;}.cls-71{fill:#de8a74;}.cls-72{fill:#de8973;}.cls-73{fill:#de8873;}.cls-74{fill:#de8772;}.cls-75{fill:#de8671;}.cls-76{fill:#de8571;}.cls-77{fill:#de8470;}.cls-78{fill:#de8370;}.cls-79{fill:#de826f;}.cls-80{fill:#de816e;}.cls-81{fill:#de806e;}.cls-82{fill:#de7f6d;}.cls-83{fill:#de7e6d;}.cls-84{fill:#de7d6c;}.cls-85{fill:#de7c6b;}.cls-86{fill:#de7b6b;}.cls-87{fill:#de7a6a;}.cls-88{fill:#de796a;}.cls-89{fill:#de7869;}.cls-90{fill:#de7768;}.cls-91{fill:#de7668;}.cls-92{fill:#de7567;}.cls-93{fill:#de7467;}.cls-94{fill:#de7366;}.cls-95{fill:#de7265;}.cls-96{fill:#de7165;}.cls-97{fill:#dd7164;}.cls-98{fill:#dd7064;}.cls-99{fill:#dd6f63;}.cls-100{fill:#dd6e62;}.cls-101{fill:#dd6d62;}.cls-102{fill:#dd6c61;}.cls-103{fill:#dd6b61;}.cls-104{fill:#dd6a60;}.cls-105{fill:#dd695f;}.cls-106{fill:#dd685f;}.cls-107{fill:#dd675e;}.cls-108{fill:#dd665e;}.cls-109{fill:#dd655d;}.cls-110{fill:#dd645c;}.cls-111{fill:#dd635c;}.cls-112{fill:#dd625b;}.cls-113{fill:#dd615b;}.cls-114{fill:#dd605a;}.cls-115{fill:#dd5f59;}.cls-116{fill:#dd5e59;}.cls-117{fill:#dd5d58;}.cls-118{fill:#dd5c58;}.cls-119{fill:#dd5b57;}.cls-120{fill:#dd5a56;}.cls-121{fill:#dd5956;}.cls-122{fill:#dd5855;}.cls-123{fill:#dd5755;}.cls-124{fill:#dd5654;}.cls-125{fill:#dd5553;}.cls-126{fill:#dd5453;}.cls-127{fill:#dd5352;}.cls-128{fill:#dd5252;}.cls-129{fill:#dd5151;}.cls-130{fill:url(#Áåçûìÿííûé_ãðàäèåíò_18);}.cls-131{fill:url(#Áåçûìÿííûé_ãðàäèåíò_18-2);}.cls-132{fill:#3f322b;}.cls-133{fill:#603632;}.cls-134{fill:#4a3a31;}.cls-135{fill:#cb8b3a;}.cls-136{opacity:0.72;}.cls-137{fill:#dc7965;}.cls-138{opacity:0.19;}.cls-139{opacity:0.2;}</style><linearGradient id="Áåçûìÿííûé_ãðàäèåíò_20" x1="320.39" y1="151.94" x2="323.21" y2="164.41" gradientUnits="userSpaceOnUse"><stop offset="0" stop-color="#fff"/><stop offset="0.03" stop-color="#e7e7e7"/><stop offset="1" stop-color="#969a9f"/></linearGradient><linearGradient id="Áåçûìÿííûé_ãðàäèåíò_19" x1="314.18" y1="154.93" x2="325.19" y2="177.14" gradientUnits="userSpaceOnUse"><stop offset="0" stop-color="#fff"/><stop offset="0.03" stop-color="#e7e7e7"/><stop offset="1" stop-color="#afb2b8"/></linearGradient><linearGradient id="Áåçûìÿííûé_ãðàäèåíò_18" x1="339.63" y1="129.6" x2="341.85" y2="123.69" gradientUnits="userSpaceOnUse"><stop offset="0" stop-color="#543636"/><stop offset="1"/></linearGradient><linearGradient id="Áåçûìÿííûé_ãðàäèåíò_18-2" x1="363.02" y1="129.2" x2="365.14" y2="122.77" xlink:href="#Áåçûìÿííûé_ãðàäèåíò_18"/></defs><rect class="cls-1" width="960" height="560"/><rect class="cls-2" x="73" y="448.86" width="820.66" height="32.72" rx="14.25" transform="translate(966.66 930.43) rotate(180)"/><path class="cls-3" d="M688.3,245.05h4.49a5.26,5.26,0,0,1,5.34,4.62l1.78,13.42a6.55,6.55,0,0,1-6.41,7.18H689a5.26,5.26,0,0,1-5.34-4.62l-1.78-13.42A6.54,6.54,0,0,1,688.3,245.05Z"/><path class="cls-4" d="M382.13,347.18l25.54-.36c22.56,0,38.51,26.39,35.55,58.95s-23.43,58.94-46,58.94l-25.47-.08c-22.55,0-38.81-25.88-35.85-58.43S359.58,347.18,382.13,347.18Z"/><path class="cls-5" d="M781.11,347.18l25.54-.36c22.56,0,38.51,26.39,35.55,58.95s-23.43,58.94-46,58.94l-25.86.51c-22.55,0-38.42-26.47-35.46-59S758.56,347.18,781.11,347.18Z"/><path class="cls-3" d="M278.45,245.39S250.73,175,272.79,171.7c90.58-13.63,241.59-2.18,241.59-2.18,68.2,5.85,98.89,21.12,135.39,51.62L701,262.66s112.27,20.44,139,45.8c30.28,28.73,30.83,71.48,30.42,96H488.81l8.12-89.23H316.07l-1.13,12.39c-26.84,6.4-39.42,48.62-44.89,76.84H123c3-36.34,8.52-100.78,9.92-106.84C137.42,278.22,264.23,259,278.45,245.39Z"/><polygon class="cls-6" points="637.26 315.59 626.81 430.61 418.42 430.61 428.88 315.59 637.26 315.59"/><path class="cls-6" d="M259.14,315.59l-14,115-27.66-.22-93.65-.72s3.87-81.88,7-114.08Z"/><path class="cls-7" d="M84,350.94c.47-5.23,3.94-9.78,8.41-11l3.17-.9a232.78,232.78,0,0,1,4.53-29c2.75-12.42,7-27.44,13.78-41.5a9.48,9.48,0,0,1,6.79-5.15L137,260.51a39,39,0,0,0,20-10.16c18.17-17.25,61.46-57,88.37-71.23,28.76-15.15,132.05-9.6,132.05-9.6,44.47,0,80.91,22.9,112.23,48.56,10.15,8.32,28.38,29.7,36.57,39.52A18.64,18.64,0,0,0,536.74,264c23,4.89,101.66,22.92,122.79,44.5,30.8,31.47,32.11,84.87,32.3,108.46h-70.7c-1.38-27.57-9.19-88.43-44.31-88.61-42.9-.22-59.43,60.93-64,88.61H216.47c-1.41-27.88-7.9-90.14-40-90.14-34.14,0-48.58,75-52.64,102.89,0,0-22.08-4.26-31-12.75-8.51-8.11-11.65-35.42-10.53-47.78Z"/><path class="cls-3" d="M630.53,375.64H870.71a4.83,4.83,0,0,1,4.76,4.41c1.27,9.73-2.05,30.89-6.76,39.2-3.24,5.73-8.46,11.36-17.47,11.36H631.38C630.38,418.39,630.55,387.9,630.53,375.64Z"/><ellipse class="cls-4" cx="590.68" cy="407.79" rx="59.41" ry="40.52" transform="matrix(0.17, -0.99, 0.99, 0.17, 88.48, 920.61)"/><polygon class="cls-4" points="595.81 348.84 585.09 466.74 559.68 466.74 570.4 348.84 595.81 348.84"/><ellipse class="cls-8" cx="565.04" cy="407.79" rx="59.41" ry="40.52" transform="translate(67.19 895.34) rotate(-80.22)"/><ellipse class="cls-9" cx="565.04" cy="407.79" rx="47.53" ry="32.42" transform="translate(67.19 895.34) rotate(-80.22)"/><ellipse class="cls-9" cx="565.04" cy="407.79" rx="42.77" ry="29.18" transform="translate(67.19 895.34) rotate(-80.22)"/><path class="cls-10" d="M590.79,382.14l-15.17,7.44a2.43,2.43,0,0,1-3.49-2.47l.45-21.41C580.47,367.15,586.94,373.28,590.79,382.14Z"/><path class="cls-10" d="M562.36,366.36l-1.71,18.88c-.19,2.08-2.14,3.51-3.8,2.78l-13-5.75C548.68,374.34,554.77,368.58,562.36,366.36Z"/><path class="cls-10" d="M539.06,392.33,549.28,402a3.2,3.2,0,0,1-.07,4.38l-13.33,14.51a58.4,58.4,0,0,1-.24-13.07A61.89,61.89,0,0,1,539.06,392.33Z"/><path class="cls-10" d="M556,426.93c.4,5.53,1.15,15.81,1.68,23-8.34-1.49-15.09-8.18-18.89-17.8l13.63-7.29A2.4,2.4,0,0,1,556,426.93Z"/><path class="cls-10" d="M573.11,428.83l12.64,5.26c-4.79,7.5-10.41,13-18,15.11l1.6-17.58C569.54,429.57,571.46,428.14,573.11,428.83Z"/><path class="cls-10" d="M594,393.55a58.24,58.24,0,0,1,.4,14.24A61.65,61.65,0,0,1,591,423.22l-9.34-12a3.27,3.27,0,0,1,.28-4C584.7,404.05,590,398.06,594,393.55Z"/><ellipse class="cls-4" cx="198.04" cy="407.79" rx="59.41" ry="40.52" transform="translate(-237.46 533.68) rotate(-80.22)"/><polygon class="cls-4" points="203.16 348.84 192.45 466.74 167.04 466.74 177.76 348.84 203.16 348.84"/><ellipse class="cls-8" cx="172.4" cy="407.79" rx="59.41" ry="40.52" transform="translate(-258.75 508.41) rotate(-80.22)"/><ellipse class="cls-9" cx="172.4" cy="407.79" rx="47.53" ry="32.42" transform="translate(-258.75 508.41) rotate(-80.22)"/><ellipse class="cls-9" cx="172.4" cy="407.79" rx="42.77" ry="29.18" transform="translate(-258.75 508.41) rotate(-80.22)"/><path class="cls-10" d="M198.15,382.14,183,389.58a2.43,2.43,0,0,1-3.49-2.47l.45-21.41C187.83,367.15,194.29,373.28,198.15,382.14Z"/><path class="cls-10" d="M168.93,366.36l-1.72,18.88c-.19,2.08-1.74,3.51-3.39,2.78l-13.24-5.75C155.44,374.34,163.18,368.58,168.93,366.36Z"/><path class="cls-10" d="M146.42,392.33,156.64,402a3.2,3.2,0,0,1-.08,4.38l-13.32,14.51a58.4,58.4,0,0,1-.24-13.07A61.89,61.89,0,0,1,146.42,392.33Z"/><path class="cls-10" d="M163.31,426.93c.4,5.53,1.15,15.81,1.68,23-8.34-1.49-15.09-8.18-18.89-17.8l13.63-7.29A2.4,2.4,0,0,1,163.31,426.93Z"/><path class="cls-10" d="M181,428.83l12.9,5.26c-4.79,7.5-13.84,13-17.73,15.11l1.6-17.58C178,429.57,179.34,428.14,181,428.83Z"/><path class="cls-10" d="M201.4,393.55a58.24,58.24,0,0,1,.4,14.24,61.65,61.65,0,0,1-3.41,15.43l-9.34-12a3.27,3.27,0,0,1,.28-4C192.06,404.05,197.33,398.06,201.4,393.55Z"/><path class="cls-7" d="M690.28,386H617.64c-4.43-24.53-13.85-51.16-33.43-56.62h90.35C684.16,347.41,688.39,368.12,690.28,386Z"/><path class="cls-11" d="M627.93,382.84s-2.11-70.27-51.88-69.66c-57.67.7-70.68,97.14-70.68,97.14l8.65.13h0c5.89-29.71,23-82.35,62.8-82.14h0c.69,0,1.36,0,2,.09l.55.05c.53.05,1.06.11,1.58.19l.42.06c.63.11,1.26.23,1.87.38l.42.11c.5.13,1,.27,1.46.42l.5.16c.59.2,1.18.42,1.75.66l.05,0c.56.24,1.11.5,1.65.77l.46.24c.45.24.89.48,1.33.75l.33.19c.53.32,1,.67,1.56,1l.35.25c.41.3.81.6,1.21.92.13.11.27.21.39.32.5.4,1,.82,1.46,1.26,0,0,0,0,0,0,.47.43.92.87,1.36,1.33l.36.37c.38.4.76.81,1.13,1.24.07.08.15.16.22.25.44.51.87,1,1.29,1.57.09.1.17.21.26.32.34.45.69.91,1,1.38l.28.38c.81,1.15,1.59,2.35,2.33,3.6l.24.41c.34.56.67,1.14,1,1.72,0,.07.07.13.1.19.36.66.72,1.34,1.06,2l.15.3c.3.6.59,1.21.88,1.82.05.12.11.23.16.34.65,1.42,1.28,2.87,1.87,4.36.05.11.09.22.13.33q.9,2.27,1.71,4.62a.88.88,0,0,1,.05.15c.26.75.51,1.51.76,2.27a1.21,1.21,0,0,1,0,.18q.78,2.43,1.47,4.92l0,.15c1.41,5.08,2.55,10.28,3.48,15.39Z"/><path class="cls-12" d="M638.14,270.43l3.07.73,5.58,1.33,3.43.83,3.76,1.06,8.47,2.41c3,.93,6.09,2,9.34,3.08s6.51,2.37,9.87,3.64,6.7,2.72,10.05,4.19,6.62,3.1,9.86,4.68c1.63.77,3.2,1.64,4.74,2.51s3.09,1.7,4.6,2.54l4.35,2.66c1.42.86,2.81,1.72,4.12,2.64s2.6,1.78,3.85,2.62l3.5,2.62c1.14.83,2.19,1.69,3.18,2.52s2,1.57,2.82,2.36l2.42,2.19,3.15,3.09c.34.32,23.47,30.6,23.76,30.91l-35.63.47c-.24-.22.68-26.77-6.68-32.2-1-.78-2-1.79-3-2.73l-3.41-2.78c-1.15-1-2.4-1.91-3.68-2.85l-3.91-2.9-4.18-2.82c-1.41-1-2.84-1.93-4.34-2.81-3-1.79-6-3.72-9.12-5.36s-6.21-3.45-9.39-4.93-6.21-3.13-9.31-4.4-6-2.65-8.86-3.82l-8.1-3.1-3.6-1.37-3.3-1.1-5.38-1.8-3.82-1.28a1,1,0,0,1-.56-1.28A2.11,2.11,0,0,1,638.14,270.43Z"/><path class="cls-7" d="M615.48,375.64l76.35-.69c7.7,46-8.71,55.66-12.38,55.66H623.67c-2.11,0-3.69-1.87-3.69-4.31C620,419.75,618,389.53,615.48,375.64Z"/><path class="cls-11" d="M627.32,375.64H615.48c1.57,8.5,2.91,23.12,3.71,34.69h8.48A180.44,180.44,0,0,0,627.32,375.64Z"/><path class="cls-7" d="M255.5,427.77H216.9a4.6,4.6,0,0,1-.07-.66c-.32-15.15-2.62-82.14-29-97.27H264.4Z"/><path class="cls-11" d="M117.87,406l10.28-.61c7.1-33.28,21.74-78.65,48.29-78.65,30.58,0,37.94,56.42,39.79,85.9L229.52,411s-3.91-97.83-48.61-97.83C134.38,313.18,117.87,406,117.87,406Z"/><path class="cls-7" d="M215.72,405.77c.65,7.71,1.06,18.72,1.11,21.34a3.33,3.33,0,0,0,3.16,3.5l288.91.07c1.8,0,2.67-1.49,2.84-3.59A158.63,158.63,0,0,1,514,410.45Z"/><g class="cls-13"><path class="cls-14" d="M851.23,430.68H623.67c-2.11,0-3.69-1.9-3.69-4.34,0-1.27-.13-3.45-.35-6.19H868.24C865,425.58,859.82,430.68,851.23,430.68Z"/><path class="cls-15" d="M511.74,427.52c.12-1.47.34-3.52.74-6.52H216.58c.14,3,.23,5.42.25,6.54a3.14,3.14,0,0,0,3.16,3.28L508.9,431C510.7,431,511.57,429.62,511.74,427.52Z"/></g><path class="cls-16" d="M841.84,316.43h10.95a5.08,5.08,0,0,1,4.88,3.59l7.94,24.51a3.75,3.75,0,0,1-3.4,4.8h-10a5.22,5.22,0,0,1-5-3.71L839,320.41A3.1,3.1,0,0,1,841.84,316.43Z"/><path class="cls-17" d="M740.44,316.78h88.1a4.72,4.72,0,0,1,4.65,4.56l1.64,19.57c-.48,5.34-2.35,7.5-8.23,8.13L760,349a19.17,19.17,0,0,1-18.06-12.84l-5.17-13.74A4.23,4.23,0,0,1,740.44,316.78Z"/><path class="cls-18" d="M757.64,343h71.14a1.15,1.15,0,0,1,1.16,1.27,1.43,1.43,0,0,1-1.39,1.27H757.4a1.15,1.15,0,0,1-1.15-1.27A1.42,1.42,0,0,1,757.64,343Z"/><path class="cls-18" d="M751.72,337.26H828.6a1.14,1.14,0,0,1,1.15,1.27,1.42,1.42,0,0,1-1.38,1.27H751.49a1.15,1.15,0,0,1-1.16-1.27A1.43,1.43,0,0,1,751.72,337.26Z"/><path class="cls-18" d="M747.66,331.58h80.87a1.14,1.14,0,0,1,1.15,1.27,1.42,1.42,0,0,1-1.38,1.27H747.43a1.15,1.15,0,0,1-1.16-1.27A1.43,1.43,0,0,1,747.66,331.58Z"/><path class="cls-18" d="M745.58,325.89h83.47a1.15,1.15,0,0,1,1.15,1.27,1.42,1.42,0,0,1-1.39,1.27H745.35a1.15,1.15,0,0,1-1.16-1.27A1.42,1.42,0,0,1,745.58,325.89Z"/><path class="cls-18" d="M743,320.2h85.8a1.14,1.14,0,0,1,1.15,1.27,1.41,1.41,0,0,1-1.38,1.27h-85.8a1.14,1.14,0,0,1-1.15-1.27A1.42,1.42,0,0,1,743,320.2Z"/><path class="cls-5" d="M731.05,391.59h109c3.09,0,5.05,3.19,4,6.43L840,410.1a5.38,5.38,0,0,1-4.89,3.79H732.7a4.2,4.2,0,0,1-4.13-4.13l-.93-14.23A3.66,3.66,0,0,1,731.05,391.59Z"/><path class="cls-5" d="M852.9,394.6c.67-2,2.06-3.6,3.45-3.6h19.16c-.81,10-2.17,16-5.5,26H851c-2.32,0-3.46-5.28-2.33-8.62Z"/><path class="cls-5" d="M669.09,391.87l45.67-.11c2.23,0,4.45,3.12,4.49,6.3l.16,11.83c0,2.19-1,3.72-2.56,3.72l-46.56.11c-2.37,0-4.68-3.5-4.48-6.77l.74-11.84C666.67,393.17,667.68,391.88,669.09,391.87Z"/><path class="cls-19" d="M244.29,191.07c22.3-13.37,120.88-11.68,145.47-9.08,59,6.23,92.43,43.18,116,76.16a3.93,3.93,0,0,1-3.05,6H179.13c-3.17,0-4.54-4-2.26-6.66C190.52,241.69,226.62,201.67,244.29,191.07Z"/><path class="cls-20" d="M250.59,195.12c20.78-11.74,113-10.26,136-8,55.21,5.48,86.67,38,108.85,67,1.58,2.07-.13,5.3-2.82,5.3H190c-3,0-4.27-3.53-2.15-5.86C200.56,239.63,234.11,204.44,250.59,195.12Z"/><path class="cls-21" d="M462.85,241.79,486,241.1c4.22,4.68,8,9.55,11.39,14.16,1.59,2.16.45,4.85-2.27,4.85H455.29a81.8,81.8,0,0,0,4.13-8.34C460.79,248.5,461.74,245.12,462.85,241.79Z"/><path class="cls-17" d="M570.94,178.54q5.09,1.29,10.09,2.89a9.28,9.28,0,0,0,.28,6.43,30.43,30.43,0,0,0,4.33,7.4,3.52,3.52,0,0,0,.58,1.12c59.17,60.68,108.14,61.73,110.71,62,2.62,2.72,4.05,4.32,4.05,4.32l-157.34-1.82a16.07,16.07,0,0,1-12.89-6.63,282.64,282.64,0,0,0-20.37-24.49c-18.31-19.68-45.6-43.43-78.12-54.35C432.26,175.37,506.42,168.58,570.94,178.54Z"/><path class="cls-20" d="M578.89,181.2c2.05.48,4.09,1,6.13,1.56,55.39,19.11,101,64.17,112.93,76.64l-148.52-3c-5.15-.05-11.11-2.09-14.2-6-16-20.09-58.17-63.1-88.68-72.65C446.55,177.78,515.58,173.11,578.89,181.2Z"/><path class="cls-22" d="M526.25,304.33h8a2.83,2.83,0,0,1,2.85,3.13l-.23,2.51a3.52,3.52,0,0,1-3.42,3.13h-7.95A2.83,2.83,0,0,1,522.6,310l.23-2.51A3.52,3.52,0,0,1,526.25,304.33Z"/><path class="cls-21" d="M578.89,181.2c2.05.48,4.09,1,6.13,1.56,55.39,19.11,101,64.17,112.93,76.64L678.63,259C653.81,239.3,623,195.86,545.69,184.46a296.9,296.9,0,0,1,23.19,72.34l-19.45-.39a22,22,0,0,1-4.43-.52c-.56-16.89-4.78-46.83-16.78-72.34,0,0-43.81-1.05-66.71.91-1.28-.5-13.72-6.29-15-6.68C446.55,177.78,515.58,173.11,578.89,181.2Z"/><path class="cls-23" d="M482.8,178c4.45.61,9,1.21,13.58,2.05s9.27,1.5,14,2.48,9.46,1.87,14.23,2.95,9.55,2.22,14.34,3.44,9.56,2.54,14.32,4c9.49,2.86,18.92,5.92,28,9.42l6.8,2.62,6.66,2.8c4.43,1.8,8.7,3.87,12.92,5.82,2.13.95,4.16,2.07,6.21,3.08s4.08,2,6,3.13c3.94,2.18,7.8,4.25,11.46,6.51a237.36,237.36,0,0,1,20.19,13.42,197.91,197.91,0,0,1,16,13.1c2.36,2.12,4.51,4.18,6.46,6.15l-41.13-.83c-4.47-2.65-9.26-5.29-14.39-7.81-3.5-1.82-7.22-3.45-11-5.18-1.88-.88-3.85-1.63-5.8-2.46s-3.91-1.68-6-2.41c-4.06-1.51-8.14-3.12-12.4-4.48L577,233.61l-6.53-2c-8.74-2.62-17.79-4.81-26.89-6.81-4.55-1-9.17-1.8-13.72-2.7s-9.2-1.48-13.75-2.22c-3.54-.52-7.09-1-10.6-1.39-18.45-17.51-40.78-35.07-58.95-40.76,0,0,10.33-.7,26.67-1.09C476.36,177.08,479.55,177.56,482.8,178Z"/><path class="cls-24" d="M365.93,299.91h7.71a8.14,8.14,0,0,1,8.22,9h0a10.14,10.14,0,0,1-9.87,9h-7.7a8.15,8.15,0,0,1-8.23-9h0A10.16,10.16,0,0,1,365.93,299.91Z"/><path class="cls-25" d="M356.66,305.83h25.18a2.82,2.82,0,0,1,2.85,3.13h0a3.52,3.52,0,0,1-3.42,3.13H356.09a2.82,2.82,0,0,1-2.85-3.13h0A3.5,3.5,0,0,1,356.66,305.83Z"/><path class="cls-24" d="M237.74,299.91h7.71a8.15,8.15,0,0,1,8.22,9h0a10.14,10.14,0,0,1-9.87,9h-7.71a8.15,8.15,0,0,1-8.22-9h0A10.14,10.14,0,0,1,237.74,299.91Z"/><path class="cls-21" d="M187.54,253.36c-2.12,2.32-.5,6.21,2.46,6.21H492.61c2.69,0,4.93-4.09,3.35-6.16-22.18-29-54.15-60.77-109.36-66.25-23-2.28-115.26-4.13-136,7.62C234.08,204.1,200.23,239.44,187.54,253.36Zm263.84-17.73c1.19-1.85,4.3-2.39,5.61-4.83a9.48,9.48,0,0,0,.91-6.88c10.3,8.54,19.37,19.71,27.8,30.11H452C451.86,249.45,448.7,239.77,451.38,235.63ZM201.8,250.69s40.25-50.77,61.6-54.43,107.74-1,107.74-1l.26,28.8a21.54,21.54,0,0,1-21.72,21.74l-125.8-1.05a12.12,12.12,0,0,0-3.47.49Z"/><path class="cls-7" d="M228.46,305.83h25.19a2.81,2.81,0,0,1,2.84,3.13h0a3.5,3.5,0,0,1-3.41,3.13H227.89a2.81,2.81,0,0,1-2.84-3.13h0A3.5,3.5,0,0,1,228.46,305.83Z"/><path class="cls-26" d="M495.45,254.1c-3.71-4.85-7.68-9.79-12-14.69l-1.11-.38-4.8-1.54c-3.31-1.05-6.82-2.22-10.55-3.35l-11.8-3.44c-4.1-1.25-8.44-2.34-12.91-3.53l-.39-.1a63.89,63.89,0,0,1,1.51,9.42s-.11,3.51-1.85,4.51h-5.07a5.25,5.25,0,0,0-4.28,1.91l5.2.78c4.52.68,8.91,1.29,13.06,2.07l12,2.12c3.79.72,7.35,1.48,10.72,2.16l4.89,1,4.51,1,7.93,1.83,5.48,1.38A2.77,2.77,0,0,0,495.45,254.1Z"/><path class="cls-27" d="M227.88,305.83h20.93c1.43,0,2.49.94,2.36,2.09h0a2.75,2.75,0,0,1-2.84,2.09H227.41c-1.43,0-2.5-.94-2.37-2.09h0A2.75,2.75,0,0,1,227.88,305.83Z"/><path class="cls-26" d="M307.84,234.53a3.57,3.57,0,0,1-.64-1.35c-.15-4.29,2.88-21.87,2.88-21.87a5.42,5.42,0,0,1,3.65-1.87c.48-1.84,1-3.59,1.48-5.29l-1.63-.15-17.28-1.69-4.3-.4-4.29-.26-8.52-.52-16.74-1-4.11-.25c-1.36-.07-2.73-.07-4.08-.11l-8.06-.17-2.26,0c-13.18,9.78-31.76,28.28-45,42.11l2.08-.26c8.51-1,17.76-2.4,27.53-3l15-1.25,7.8-.65c1.31-.1,2.63-.25,4-.31l4-.18,16.27-.72,8.3-.37,4.19-.19,4.19,0Z"/><path class="cls-22" d="M101.18,298.69a1.58,1.58,0,0,1,1.52-.91l9.82,0c2.11,0,3.67,1.48,3.29,3.11l-8.21,35.81a3.43,3.43,0,0,1-3.5,2.29,82.26,82.26,0,0,1-9.33.19A1.11,1.11,0,0,1,93.64,338C94.11,328.78,97.68,308.11,101.18,298.69Z"/><path class="cls-17" d="M429.81,259.88c.15-1.57.18-2.23,1.77-2.23h72.61a2.59,2.59,0,0,1,2.63,2.86l-.29,3.17a3.22,3.22,0,0,1-3.15,2.85H432.65c-1.59,0-3.41-.89-3.27-2.46l.3-2.19Z"/><path class="cls-17" d="M429.81,259.88c.15-1.57.18-2.23,1.77-2.23h72.61a2.59,2.59,0,0,1,2.63,2.86l-.29,3.17a3.22,3.22,0,0,1-3.15,2.85H432.65c-1.59,0-3.41-.89-3.27-2.46l.3-2.19Z"/><path class="cls-7" d="M436.51,241h35.43c4.36,0,8.27,1.76,10.3,5.43l5.41,11,10.46.22-.73.74a12,12,0,0,1-8.56,3.61H429.68l1.44-16.26A5,5,0,0,1,436.51,241Z"/><path class="cls-28" d="M484,262H429.68l1.44-15.92c.83,6.09,35.5,12,52.94,14.56A.68.68,0,0,1,484,262Z"/><path class="cls-29" d="M281.67,254.17a1.92,1.92,0,0,0-.3.85C281.48,254.73,281.57,254.45,281.67,254.17Z"/><path class="cls-21" d="M536.23,238.3l5.46,16.61a15.32,15.32,0,0,1-6.46-4.48c-3.9-4.92-9.39-11.21-15.89-18.05l9,.21A8.32,8.32,0,0,1,536.23,238.3Z"/><path class="cls-24" d="M499.09,266.53c-2,6.9-3.53,16.06-5.9,28.61-2.88,15.3-7.77,74.18-9.74,98.79a5.67,5.67,0,0,1-5.63,5.19H260a21.19,21.19,0,0,1-20.52-15.71c-2.36-8.91-6-18.21-9.51-27.2-4.85-12.4-9.43-24.12-10.24-33.5-1.3-15,9.32-42.31,15.87-58.53h-6.21c-6.83,17.14-16.67,43.43-15.32,59,.88,10.2,5.6,22.29,10.6,35.08,3.46,8.84,7,18,9.31,26.58a26.88,26.88,0,0,0,26,19.95H477.82a11.39,11.39,0,0,0,11.3-10.43c1.53-19.13,6.75-82.73,9.66-98.18,2.58-13.69,4.05-24.86,7.58-31.77a4.23,4.23,0,0,1-3.59,2.1Z"/><path class="cls-24" d="M354.94,264.18h-5.76c-2.13,12.85-5.21,33.53-8.45,64.38-5,47.88-4,74-4,74.22l5.68-.24c0-.25-1-26,4-73.39C349.72,297.48,352.86,276.63,354.94,264.18Z"/><path class="cls-19" d="M276.72,183.64h8.57c-.36.37-35.44,36.35-44.93,78.35H225C235.47,215,275.18,185.24,276.72,183.64Z"/><path class="cls-19" d="M386,183.49a369.9,369.9,0,0,0-27.25,77.68l-15.15,1.49c10.19-44.93,32.69-78.7,33.44-80.28Z"/><path class="cls-16" d="M648.68,324.56a9,9,0,0,1,8.44-6.92l61.39.2a8.13,8.13,0,0,1,7.63,5.3l7.93,20.37a4.41,4.41,0,0,1-3.91,5.89H651.48c-4.83,0-8.05-4.65-6.74-9.7Z"/><path class="cls-30" d="M875.47,379.7c-.33-2.58-2.31-4.75-4.76-4.75H672.32a4.62,4.62,0,0,0-4.63,4.62h0a3.91,3.91,0,0,0,3.91,3.91H875.71C875.68,382.24,875.61,380.72,875.47,379.7Z"/><path class="cls-31" d="M439.34,215.71a5.23,5.23,0,0,0-3-1.39c-4.21-17.08-8.74-34.2-21.86-43.1A62.85,62.85,0,0,0,403.06,165c-19.06-.18-39.05,0-58.7.68-2.26,1.13-4.09,1.49-5.33,2.52v0c-8.22,4.89-18.78,15.8-25.29,41.22a5.42,5.42,0,0,0-3.65,1.87s-.87,5-1.65,10.36h18.9V326h-12c-4.61,13-8.83,25.63-9.61,31-1.36,9.26,1.25,55.45,2.37,73.68h24.28c1-18.24,3.46-64.66,4-69.53.85-7.24,13.58-34.43,20.69-53,1.31,0,2.63,0,4,0,1.7,0,3.1,0,5.89,0a10.08,10.08,0,0,0,.06,1.64v0c-6,34-16.15,98.54-19.21,120.85h25.57c4.93-23.28,18.54-86.59,25.47-118.09.12,0,.24-.05.35,0a4.6,4.6,0,0,0,.91.09,4.28,4.28,0,0,0,1.57-.36c.17-.06.34-.14.5-.21,1.54-.61,3-.26,4.55-.58A4.21,4.21,0,0,0,408,311a5.3,5.3,0,0,0,.54-.39,5.09,5.09,0,0,0,.93-1,7.38,7.38,0,0,0,1-1.81l.21-.6.06-.16.21-.64v0c.07-.24.15-.49.22-.74l.06-.2c.07-.23.13-.47.2-.71l0-.09c.07-.27.15-.55.22-.83l.06-.22c.07-.24.13-.49.2-.74l0-.15c.08-.29.15-.59.23-.89l.05-.2c.07-.27.13-.53.19-.8l0-.15.21-.89.06-.24.18-.77,0-.15.21-.9,0-.16.18-.8,0-.09c.07-.31.14-.6.2-.89v0c.07-.29.12-.56.18-.83v-.06c.27-1.24.48-2.27.61-2.91,6.2-9.44,11.95-18.13,16.57-25.61a2.28,2.28,0,0,1-1.54-2.19l.3-2.3.13-2a7.25,7.25,0,0,1,.19-1.32l1.12-12.74a5.08,5.08,0,0,1,5.39-4.82h5.07c1.74-1,1.85-4.51,1.85-4.51C443.42,232.36,439.34,215.71,439.34,215.71Z"/><path class="cls-27" d="M323.65,276.51c-32.77-.85-42.59-1.2-52.22-1.53l-93.3-3c-22.72-.65-50.06-1.21-65.17-1.64a177.71,177.71,0,0,0-9.32,25.41c15.88-.23,45.82-.58,72.25-1l44.22-.46,49.35-.32c8.61-.05,17.36-.09,49.06.36Z"/><path class="cls-27" d="M652.82,328.57l-1.34-1.9-2-2.26c-3.18-3.23-8.38-7-15.46-10.72l-5.66-2.77c-2-.93-4.15-1.72-6.36-2.64l-3.4-1.37c-1.17-.45-2.38-.81-3.6-1.23l-7.61-2.52c-2.65-.8-5.41-1.47-8.24-2.25s-5.73-1.63-8.77-2.22l-9.31-2-4.83-1-5-.86c-6.71-1.11-13.67-2.46-21-3.31s-14.79-2-22.58-2.73c-15.52-1.79-32-2.88-49.05-4l-25.88-1.54-26.58-1.42-4.95-.26c-2.2,3.37-4.51,6.88-6.89,10.5-.1.53-.27,1.33-.47,2.29l10.81.12,26.63.36,26,.51c17,.55,33.4,1.15,48.84,2.42,7.77.44,15.21,1.39,22.45,2.15s14.15,1.83,20.81,2.78l4.94.71,4.77.89,9.23,1.73c3,.49,5.85,1.32,8.66,1.94s5.54,1.27,8.14,2l7.51,2.19c1.2.36,2.41.66,3.55,1.05l3.35,1.19c2.17.8,4.3,1.48,6.26,2.28l5.54,2.42c6.89,3.26,11.87,6.59,14.76,9.29l1.81,1.85c.44.56.81,1,1.1,1.43.1.17.16.31.36.36a2.09,2.09,0,0,0,.68,0,5.08,5.08,0,0,0,.68,0l.3,0,1.31-.71.21-.23a6.14,6.14,0,0,0,.42-.61,1.72,1.72,0,0,0,.17-.88A2.17,2.17,0,0,0,652.82,328.57Z"/><path class="cls-32" d="M318.83,459.51c-2.77.09-11,.43-21.17,1.73l-.11,3.77c1.77-.31,3.57-.65,4.7-.87a.93.93,0,0,1,1.12.95h0a.94.94,0,0,0,.94,1h14.35a1,1,0,0,0,1-1l.14-4.62A.93.93,0,0,0,318.83,459.51Z"/><polygon class="cls-33" points="299.62 423.53 301.04 451 317.03 451 316.22 424.5 299.62 423.53"/><path class="cls-34" d="M316.71,440.57l-.49-16.07-16.6-1,.73,14.24C305.47,436,312,437.27,316.71,440.57Z"/><path class="cls-35" d="M297.41,433.78a1.32,1.32,0,0,1-1.32-1.24c-.6-9.37-4.34-69.29-2.77-80,1.79-12.24,21.52-62.43,22.85-68.12L348.9,291c-3.52,15.08-23.81,56.5-24.89,65.71-.67,5.62-3.87,66.24-4.38,75.82a1.34,1.34,0,0,1-1.34,1.27Z"/><g class="cls-36"><path d="M332,334a57.23,57.23,0,0,1-7.75,12.19c-4.44,5.47-10.87,11-18.44,10.15a12.58,12.58,0,0,1-11.2-9.6,52.59,52.59,0,0,0-1.33,5.8c-1.57,10.72,2.17,70.64,2.77,80a1.32,1.32,0,0,0,1.32,1.24h20.88a1.34,1.34,0,0,0,1.34-1.27c.51-9.58,3.71-70.2,4.38-75.82.43-3.68,3.94-12.52,8.21-22.76Z"/></g><path class="cls-37" d="M316.56,445.88c-.36.28-.73.55-1.11.8-2.33,1.52-4.53,2.11-7.16,1.32a11,11,0,0,1-6.41-5.2c-.1-.18-.2-.36-.28-.54a3.15,3.15,0,0,0-2.88-1.72H298a2.62,2.62,0,0,0-2.41,1.6c-.95,2.26-7.51,8-16.7,10.15-5.25,1.21-9.6-.09-12.07,3.14a7.5,7.5,0,0,0-1,6.44l24.86,1.86,31-1.86c.88-4.8-2.32-14.85-2.32-14.85A1.73,1.73,0,0,0,316.56,445.88Z"/><g class="cls-36"><path d="M354.55,294.26a8.09,8.09,0,0,1,.3-2.62l-1.1.18s.05,1,.13,2.82Z"/></g><path class="cls-38" d="M307,465.09h0a.94.94,0,0,0,.94,1h14.35a1,1,0,0,0,1-1l.15-4.62a.93.93,0,0,0-1-1,230.74,230.74,0,0,0-25.75,2.36c-9.71,1.46-27.12-1.16-31.06-1.87a1,1,0,0,0-1.13.74l-.36,1.37a.93.93,0,0,0,.68,1.15c3,.72,14.69,2.78,31.25,2.49,1.37,0,7.27-1.12,9.79-1.61A.93.93,0,0,1,307,465.09Z"/><path class="cls-39" d="M278.93,452.29a39.57,39.57,0,0,1-6,.72s13.77,3.81,23.38-.18c8.69-3.6-1.1-6.77-3.37-7.51A33.4,33.4,0,0,1,278.93,452.29Z"/><path class="cls-33" d="M339.2,430.2s1.69,5.79-6.47,14.3l9.54,8.43s12.5-2.3,12.48-2.44c-.51-3.8-1.28-11.31-1.18-12.47.2-2.56.5-3.68,2.16-7.12C356.13,430.07,339.2,430.2,339.2,430.2Z"/><path class="cls-34" d="M338.06,436.94c5.29-1,11.26,1,15.72,4.65a31.88,31.88,0,0,1-.21-3.57c.2-2.56.5-3.68,2.16-7.12.4-.83-16.53-.7-16.53-.7S339.94,432.74,338.06,436.94Z"/><path class="cls-40" d="M312.43,461.45c-1-3.73,2.2-7.23,9.24-8.91,4-1,6.56-2.83,10-7.22.44-.56,3-5.79,9.23-4.4s6.78,9.33,8.27,9.57a2.4,2.4,0,0,0,1.77-.88c.61-.56,3.12-3.17,3.19-4.16,1-.21,1.58,1.51,1.71,2.2a22.55,22.55,0,0,1,.29,2.59c.15,2.24.16,4.5.15,6.75a31.39,31.39,0,0,1-.21,5.65c-.2,1-14.78,2.25-22.76,2.49S313.23,464.38,312.43,461.45Z"/><path class="cls-39" d="M341.46,448.44c.78-3-5.24-4.52-8.87-4.44-.48.65-.77,1.17-.89,1.32a21.81,21.81,0,0,1-6,5.67c2.29.36,5.3,1.3,7.16,3.68C336.18,458.91,340.51,452.11,341.46,448.44Z"/><path class="cls-35" d="M357.77,435.45l-22.47-1.81a1.15,1.15,0,0,1-1.07-1.28c.91-9.22,21.95-142.26,23.28-147.95L390.24,291c-3.52,15.08-29.37,134.45-31,143.36A1.37,1.37,0,0,1,357.77,435.45Z"/><g class="cls-36"><path d="M353.28,358.35a12.74,12.74,0,0,1-6.76-6.44c-5.8,36.72-11.81,75.61-12.29,80.45a1.15,1.15,0,0,0,1.07,1.28l22.47,1.81a1.37,1.37,0,0,0,1.45-1.11c1-5.61,11.69-55.07,20.3-94.67C376.1,351.67,366.51,363.8,353.28,358.35Z"/></g><path class="cls-35" d="M315.51,277.1c-.64,13.66-1.22,25-1.22,25a431.81,431.81,0,0,0,44.62,1.54c15-.32,27.89.74,28.79-6,.83-6.24,1.43-13.71,1.89-21.51Z"/><path class="cls-34" d="M348.81,299.41c-22.38,1.12-4.9,4.27-2.78,4.27,3.78,0,4.24.09,8.27,0a15.47,15.47,0,0,1-.34,1.67C354,305.36,371.14,298.31,348.81,299.41Z"/><path class="cls-41" d="M357.31,134.46h0c-6,0-10.13,2.48-9.37,6.53l1,19.76c.76,4.05,8,3.7,13.95,3.66s9.87-.53,9.1-4.58l-3.29-17.77C367.92,138,363.28,134.42,357.31,134.46Z"/><path class="cls-42" d="M326.78,163.66s-9.07,4.19-16.29,19.8c-2.41,5.23-5.24,10.27-8.09,15.27-1.48,2.59-6.64,11.73-6.64,11.73a3.88,3.88,0,0,1-1.59,1.36,4.81,4.81,0,0,0-1.76,2.31,80.23,80.23,0,0,0-3.56,9.08,11.08,11.08,0,0,0-.27,6.35c1.07,3.65,4.3,6.41,7.45,8.29s7.43,4,11.28,3.05c4.18-1,6.64-3.74,9.23-6.92a23.56,23.56,0,0,0,2-3.68,14.54,14.54,0,0,1,.89-2.33c.39-.6,7.92-11.54,10.8-16.73a63.58,63.58,0,0,0,3.07-6.12,9.27,9.27,0,0,0,1.07-3.87C334,195.88,326.78,163.66,326.78,163.66Z"/><polygon class="cls-43" points="369.03 274.49 359.37 289.63 365.82 290.25 375.22 274.42 369.03 274.49"/><path class="cls-41" d="M379.3,173.57l.55-15.62c-12.52-3.58-29.8-3.33-42.22,2l-.5,14.2Z"/><path class="cls-44" d="M384.65,159.09a20.45,20.45,0,0,0-3.54-1c-1.09-.3-2.21-.59-3.37-.88-1.47,7.29-10.69,9.05-20.71,9.34-9,.26-13.09-1.64-14.44-8.56-3,.55-10.75,3.08-15.08,5.85L323.22,286.1a123,123,0,0,0,28.47,2.5c12.92-.33,22.86-10.7,28.85-12.33Z"/><path class="cls-42" d="M352.3,169.9c-.32-1.89-5.83-7.3-6.86-12.54-5.43.07-16.4,4.62-19.83,7.9-7.32,7-8.44,24-9.54,48.74-1.05,23.32-.59,31.36-6.79,75.15a207.46,207.46,0,0,0,33,4.09C348.11,250,351.51,175.87,352.3,169.9Z"/><path class="cls-45" d="M330.26,292.36l2.29.22c4.38-24.13,13.51-123.86,13.91-128.34l-2.28-.21C344.08,165.13,334.6,268.7,330.26,292.36Z"/><path class="cls-42" d="M381.11,158.07c-1.09-.3-6.08-1.56-7.24-1.85-1.27,6.26-3.76,5-11.51,13.4-1,7.28-3.21,65.3-9.58,124.83,15.51,4,12.55-11.49,22.1-13.42,9.8-2,18.78,4.83,18.78,4.83C398,245.67,394.88,205,395.82,180,395.9,177.6,396.91,161.17,381.11,158.07Z"/><path class="cls-45" d="M357.18,295.1a11.43,11.43,0,0,0,2.34-.19C363.88,260.5,368,166.55,368,165.58l-1.47-.07-.86.79C365.26,175.71,361.34,262.91,357.18,295.1Z"/><path class="cls-46" d="M342.54,157.7h0s-3.19,12.42-.63,17.78c0,0,1-7.76,4.33-6.46,2.23.87,4.34,4.06,5.52,6.06.26-2.7.45-4.51.54-5.18-.31-1.83-5.49-7-6.74-12.05A16.17,16.17,0,0,0,342.54,157.7Z"/><path class="cls-46" d="M371.23,168.71c3.45-1.39,3.89,6.34,3.89,6.34,2.93-5.42.61-17.77.61-17.77h0a15.1,15.1,0,0,0-2.13.1c-1.36,5-4,4.44-11.24,12.24-.11.83-.58,3.49-.86,6.67C363.87,173.87,369.3,169.49,371.23,168.71Z"/><polygon class="cls-45" points="320.82 185.38 322.28 182.52 344.08 178.48 344.43 181.13 320.82 185.38"/><path class="cls-45" d="M352.3,169.9s-6.94-9-9-2.84c-1.38,4.15-2,6.63-2,6.63s-3-10.42.88-15.52,6.35-6,6.35-6A30.25,30.25,0,0,0,350.42,163,33.48,33.48,0,0,1,352.3,169.9Z"/><path class="cls-47" d="M346.8,216.68a1.81,1.81,0,0,1-1.86,1.62,1.61,1.61,0,0,1-1.75-1.57,1.83,1.83,0,0,1,1.86-1.63A1.62,1.62,0,0,1,346.8,216.68Z"/><path class="cls-47" d="M345.08,240.94a1.81,1.81,0,0,1-1.86,1.62,1.61,1.61,0,0,1-1.75-1.57,1.82,1.82,0,0,1,1.86-1.63A1.62,1.62,0,0,1,345.08,240.94Z"/><path class="cls-47" d="M343.75,259.81a1.82,1.82,0,0,1-1.86,1.62,1.61,1.61,0,0,1-1.75-1.57,1.82,1.82,0,0,1,1.86-1.63A1.63,1.63,0,0,1,343.75,259.81Z"/><path class="cls-47" d="M341.91,279.36a1.81,1.81,0,0,1-1.86,1.62,1.61,1.61,0,0,1-1.74-1.58,1.81,1.81,0,0,1,1.86-1.62A1.62,1.62,0,0,1,341.91,279.36Z"/><path class="cls-47" d="M350.39,177.58a1.82,1.82,0,0,1-1.86,1.63,1.62,1.62,0,0,1-1.75-1.58,1.81,1.81,0,0,1,1.86-1.62A1.61,1.61,0,0,1,350.39,177.58Z"/><path class="cls-47" d="M349.1,195.68a1.82,1.82,0,0,1-1.86,1.62,1.62,1.62,0,0,1-1.75-1.58,1.81,1.81,0,0,1,1.86-1.62A1.62,1.62,0,0,1,349.1,195.68Z"/><path class="cls-45" d="M362.33,169.88s10.35-9.27,12-3.21c1.09,4.12,1.56,6.58,1.56,6.58s3.73-10.5.21-15.51-5.43-5.16-5.43-5.16-.3,2.16-2.72,7.25C366.32,163.18,363,165.61,362.33,169.88Z"/><path class="cls-30" d="M350.42,163a30.25,30.25,0,0,1-1.89-10.87,6.92,6.92,0,0,0-1.55,1c-2.78,2.59-2.53,7.75-1.47,11.77,2.81-.16,6.79,5,6.79,5A33.48,33.48,0,0,0,350.42,163Z"/><path class="cls-30" d="M371.9,164.62c.81-4.23,1.35-8.5-1.27-12h0s-.3,2.16-2.72,7.25c-1.59,3.35-4.91,5.78-5.58,10C362.33,169.88,368.32,164.51,371.9,164.62Z"/><path class="cls-45" d="M326.65,163.77c-2.45,4.48-6,13-8.75,25.18-.77,7.12-1.24,15.51-1.83,25.05-.11,1.76-.22,3.38-.31,4.9,4.69-41.6,13.51-54.57,16.29-57.72A13,13,0,0,0,326.65,163.77Z"/><path class="cls-45" d="M321.31,200.33l-1.73,15.91a4,4,0,0,0,1.86,3.86l3.78,2.31a3.33,3.33,0,0,0,3.49-.07l5.13-3.25a4.32,4.32,0,0,0,2-3.15l1.75-15.82Z"/><path class="cls-45" d="M369.25,201.53l-.55,15.69a4.38,4.38,0,0,0,1.82,3.74l3.21,2.28a4.8,4.8,0,0,0,5.79-.28l5-4a6.09,6.09,0,0,0,2.29-4.71l0-12.95Z"/><path class="cls-48" d="M396.63,213.62c4.85,9.91,9.05,19.47,9.22,24.9-1.15,6.22-17.18,37.18-20.6,48.38-2.7,8.82,10.39,10.35,13.68,5.3,16.26-24.9,30.4-45.32,30.34-53.48,0-6.58-2.71-15.95-6.16-25.43Z"/><path class="cls-49" d="M306.13,209.9s-7.84-.54-11,.73c-3.77,1.5-8.38,15.51-7.75,18.44s8.88,12.16,13.44,13.23,14.68-4.8,16.06-6.8,3.38-13.85,2.31-15.74S306.13,209.9,306.13,209.9Z"/><g class="cls-50"><path class="cls-51" d="M404.81,241.83c4.61-3.68,12.12-5.6,16.8-5a8.71,8.71,0,0,1,7,5.61,12.83,12.83,0,0,0,.66-3.75c0-6.58-2.71-15.95-6.16-25.43l-26.48.33c4.85,9.91,9.05,19.47,9.22,24.9A22.1,22.1,0,0,1,404.81,241.83Z"/></g><path class="cls-42" d="M426.94,221.6c-5.54-20.41-8.68-43.83-24.81-54.78-13.31-9-24.39-9.63-24.39-9.63,4.12,10.22,18.7,59,23.7,71.88C404.47,227,412.73,223.62,426.94,221.6Z"/><path class="cls-48" d="M388.07,280.5c.19-.38-8.66.83-12.27,4.21-2.1,2-6.44,3.74-7.91,6.22-.7,1.19-1.15,2.57-2.17,3.5a6.14,6.14,0,0,1-1.57,1.16,1.39,1.39,0,0,0-.54.38,1,1,0,0,0,.2,1.28,2.2,2.2,0,0,0,1.3.48,6.83,6.83,0,0,0,4.33-1c.88-.57,1.42-1.51,2.26-2.11a3.49,3.49,0,0,1,2.86-.36.5.5,0,0,1,.31.17.61.61,0,0,1,.07.46c-.26,2.37-.61,4.68-1,7q-.44,2.55-.88,5.11a2.93,2.93,0,0,0,.17,2.09,2.33,2.33,0,0,0,2.52.64,17.89,17.89,0,0,1,3.05-.6,9.65,9.65,0,0,0,3.3-.26c1.22-.49,2.45-1.26,3.82-1a12.2,12.2,0,0,0,1.8.36,5.15,5.15,0,0,0,2.07-.52c1.54-.61,3-.26,4.55-.57a5.45,5.45,0,0,0,3.7-3.66c1.69-4.48,4.09-16.56,4.09-16.56-2.87-1.11-6-1.32-8.86-2.42-1.86-.71-3.7-1.47-5.55-2.18A8.52,8.52,0,0,1,388.07,280.5Z"/><path class="cls-51" d="M389.78,300.2c-5,1.51-11.73,1.53-13.68-4.46-1.1-3.37-.2-8.36,1.85-12.53a10.92,10.92,0,0,0-2.15,1.5c-2.1,2-6.44,3.74-7.91,6.22-.7,1.19-1.15,2.57-2.17,3.5a6.14,6.14,0,0,1-1.57,1.16,1.39,1.39,0,0,0-.54.38,1,1,0,0,0,.2,1.28,2.2,2.2,0,0,0,1.3.48,6.83,6.83,0,0,0,4.33-1c.88-.57,1.42-1.51,2.26-2.11a3.49,3.49,0,0,1,2.86-.36.5.5,0,0,1,.31.17.61.61,0,0,1,.07.46c-.26,2.37-.61,4.68-1,7q-.44,2.55-.88,5.11a2.93,2.93,0,0,0,.17,2.09,2.33,2.33,0,0,0,2.52.64,17.89,17.89,0,0,1,3.05-.6,9.65,9.65,0,0,0,3.3-.26c1.22-.49,2.45-1.26,3.82-1a12.2,12.2,0,0,0,1.8.36,5.15,5.15,0,0,0,2.07-.52c1.54-.61,3-.26,4.55-.57a5.45,5.45,0,0,0,3.7-3.66c1.25-3.32,2.89-10.8,3.66-14.46C400.4,294.9,395.48,298.5,389.78,300.2Z"/><path class="cls-35" d="M370.09,284.45c-1.71,2.3.42,11.52.42,11.52l3.34.1s0-8.44,1.95-11.36C376.51,283.64,370.86,283.42,370.09,284.45Z"/><path class="cls-45" d="M380.94,157.64c2.88,5.28,13.64,35.14,15.07,84.66h0c-.12-8.78.19-20-.21-29.33-1.59-33.78-7.74-47.94-10.92-54.38A12.2,12.2,0,0,0,380.94,157.64Z"/><polygon class="cls-45" points="388.67 184.52 367.04 180.29 367.68 177.65 389.31 181.87 388.67 184.52"/><path class="cls-49" d="M427,211.41s4.08,16.77,4.09,20.9a3.28,3.28,0,0,1-2.15,2.38s-16.21-1.29-23.44,5.3c0,0-3.48,0-5.2-5.84-2-6.8-4.13-13.39-3.85-16.44C396.82,213.11,422.68,206.37,427,211.41Z"/><path class="cls-52" d="M356.35,461.12a88.88,88.88,0,0,1-13.16,2.22c-8.26.86-20.39.89-25.89-.49s-5-2.76-5-2.76l-.74-.08-.49,1.54a2.47,2.47,0,0,0,.59,2.52h0c4.84,4.68,25.74,4.35,27.77,3.87.75-.18,1.39-1.63,1.49-1.63a17.7,17.7,0,0,1,1.37,1.37c7.2-.12,14.49-1.07,14.49-1.07l.64-5.12Z"/><path class="cls-53" d="M356.35,461.12a88.88,88.88,0,0,1-13.16,2.22c-8.26.86-20.39.89-25.89-.49s-5-2.76-5-2.76l-.74-.08a1.46,1.46,0,0,0,.68,1.82C317.63,465.28,337,465,339,464.5c.75-.17,11.89-.77,16.91-2.1a9.26,9.26,0,0,0,1.55-.9Z"/><path class="cls-27" d="M435.34,242.3h38.94a2.42,2.42,0,0,1,2.42,2.42V246a1.33,1.33,0,0,1-1.33,1.33h-40A1.33,1.33,0,0,1,434,246v-2.41a1.33,1.33,0,0,1,1.33-1.33Z"/><path class="cls-54" d="M332,157.82a2.5,2.5,0,0,0-2.46-2.17l-14.84-.38a2.56,2.56,0,0,0-1.46.56c-1.06.76-1.47,1.1-1.47,1.1l6,28.77a.84.84,0,0,0,.81.72l16.92.43a1.3,1.3,0,0,0,1.23-1.47Z"/><path class="cls-55" d="M330.53,155.88a2.58,2.58,0,0,0-1-.23l-14.84-.38a2.56,2.56,0,0,0-1.46.56c-1.06.76-1.47,1.1-1.47,1.1l.08.4c3-.11,6,0,9-.09,1.53,0,4.35-.27,5.87-.19C330.52,157.27,331.83,156.82,330.53,155.88Z"/><path class="cls-48" d="M341.25,191.68s.82-.85.48-3.08-1.83-2-1.83-2c3.3-3,.06-5.7-2.17-5.15S333.35,184,330.3,185s-10.77,5-10.77,5a75.82,75.82,0,0,1,8.61-5.81c3.89-2.12,6.5-2.3,8.31-3.89s1.1-4.3-1.32-4.38-7.78,2.15-10.72,3.36a83.24,83.24,0,0,0-8.58,4.72v-2.43a21.69,21.69,0,0,0,1.14-3.76c.22-1.51-1.74-7.1-3.12-7.19s-1.72,1.37-2.28,4.63-2,5.73-2.91,8.6,1.06,12.75,1.06,12.75c-.43,2.15-5.11,12.75-7.38,15.42s-3.42,1.21-7.3,2.87-5.94,4.08-5.44,9.82,2.77,5.48,3.68,8.51,3.82,8,5.74,9.66,4.33,1,6.34-1.31,6.35-2.72,9.16-6.64,6.3-22.84,6.3-22.84a22.12,22.12,0,0,0,2.49-.52c2.23-.53,10-6.57,13.25-8.8s5.48-7.93,5.62-9.33A1.68,1.68,0,0,0,341.25,191.68Z"/><path class="cls-56" d="M341.25,191.68s.82-.85.48-3.08-1.83-2-1.83-2c3.3-3,.06-5.7-2.17-5.15S333.35,184,330.3,185s-10.77,5-10.77,5a75.82,75.82,0,0,1,8.61-5.81c3.89-2.12,6.5-2.3,8.31-3.89s1.1-4.3-1.32-4.38-7.78,2.15-10.72,3.36a83.24,83.24,0,0,0-8.58,4.72v-2.43a21.69,21.69,0,0,0,1.14-3.76c.22-1.51-1.74-7.1-3.12-7.19s-1.72,1.37-2.28,4.63-2,5.73-2.91,8.6,1.06,12.75,1.06,12.75c-.43,2.15-5.11,12.75-7.38,15.42s-3.42,1.21-7.3,2.87-5.94,4.08-5.44,9.82,2.77,5.48,3.68,8.51,3.82,8,5.74,9.66,4.33,1,6.34-1.31,6.35-2.72,9.16-6.64,6.3-22.84,6.3-22.84a22.12,22.12,0,0,0,2.49-.52c2.23-.53,10-6.57,13.25-8.8s5.48-7.93,5.62-9.33A1.68,1.68,0,0,0,341.25,191.68Z"/><path class="cls-57" d="M330.52,159.17a2.52,2.52,0,0,0-2.45-2.17l-15.52-.39a1.29,1.29,0,0,0-1.23,1.47l5,29c.07.42.65,3.1,1.07,3.12l16.83-.77c.71,0,1.18-1.95,1-2.68Z"/><path class="cls-48" d="M342.05,188.39a2,2,0,0,0-2.22-1.77c3.3-3,.07-5.7-2.17-5.15s-4.06,2.07-7.43,3.56c-3,1.31-10,4.34-10,4.34a88.25,88.25,0,0,1,8.07-4.72c4.27-2.11,6.31-2.71,8.13-4.3s1.09-4.3-1.33-4.38-7.78,2.15-10.72,3.36-8.57,3.88-8.57,3.88a13.79,13.79,0,0,1-3.53,2c-1.31.87-2.54,1.85-3.81,2.79a84.77,84.77,0,0,0,1.22,8.62c-.43,2.15-5.11,12.75-7.38,15.42s-3.42,1.21-7.3,2.87-5.94,4.08-5.43,9.82,2.77,5.48,3.67,8.51,3.83,8,5.74,9.66,4.33,1,6.35-1.31,6.34-2.72,9.16-6.64,6.29-22.84,6.29-22.84a21.45,21.45,0,0,0,2.49-.52c2.23-.53,10-6.57,13.26-8.8s5.47-7.93,5.61-9.33a1.67,1.67,0,0,0-.93-1.81A3.2,3.2,0,0,0,342.05,188.39Z"/><path class="cls-58" d="M328.13,157l-7.17-.18-9,4.84,1.21,7,17.38-9.45A2.53,2.53,0,0,0,328.13,157Z"/><path class="cls-59" d="M316.33,160.92a2,2,0,0,0-2-1.46,1.39,1.39,0,0,0-1.48,1.56l.66,3.71a2,2,0,0,0,2,1.46,1.38,1.38,0,0,0,1.48-1.56Z"/><path class="cls-11" d="M316.33,160.92a1.78,1.78,0,0,0-1-1.24l-2.45,1.11a1.76,1.76,0,0,0,0,.23l.66,3.71a2,2,0,0,0,2,1.46,1.38,1.38,0,0,0,1.48-1.56Z"/><path class="cls-56" d="M342.05,188.39a2,2,0,0,0-2.22-1.77c3.3-3,.07-5.7-2.17-5.15s-4.06,2.07-7.43,3.56c-3,1.31-10,4.34-10,4.34a88.25,88.25,0,0,1,8.07-4.72c4.27-2.11,6.31-2.71,8.13-4.3s1.09-4.3-1.33-4.38-7.78,2.15-10.72,3.36-8.57,3.88-8.57,3.88a13.79,13.79,0,0,1-3.53,2c-1.31.87-2.54,1.85-3.81,2.79a84.77,84.77,0,0,0,1.22,8.62c-.43,2.15-5.11,12.75-7.38,15.42s-3.42,1.21-7.3,2.87-5.94,4.08-5.43,9.82,2.77,5.48,3.67,8.51,3.83,8,5.74,9.66,4.33,1,6.35-1.31,6.34-2.72,9.16-6.64,6.29-22.84,6.29-22.84a21.45,21.45,0,0,0,2.49-.52c2.23-.53,10-6.57,13.26-8.8s5.47-7.93,5.61-9.33a1.67,1.67,0,0,0-.93-1.81A3.2,3.2,0,0,0,342.05,188.39Zm-26.47-4.19s6-3.21,9.85-4.68,8.19-3.42,9.87-3a2,2,0,0,1,.81,3.45c-1,1.09-7.71,3.56-10.65,5.31s-5.72,3.32-7.75,4.72S312.49,186.56,315.58,184.2Zm1.89,12.3c-.88-.77-2.45-3.25-.18-4.68,0,0,2.41-1.3,5.83-2.78s7.06-3.13,10.06-4.77,5.27-2.86,6.81-1.29-.94,3.49-2.48,4.51-8.17,4.61-11.56,6.42S318.34,197.26,317.47,196.5ZM340,197.89c-2,3.29-9.43,8.21-12.82,9.82s-4.3-2-4.54-3.22,1.43-1.53,4.12-2.89,10.86-6.29,12.26-7.86c0,0,1.68-1.54,1.95-1.43S342,194.61,340,197.89Zm-1-5.18a108.15,108.15,0,0,1-14.28,8.92c-4.34,2-6.72-2-5.14-3.77,0,0,5.87-2.31,9.43-4.19s8.24-4.75,9.5-5.49,2.24-1,2.83.35S340.9,191.12,338.91,192.71Z"/><path class="cls-60" d="M310.34,204c-1.39,0-2.15,1.65-2.77,2.69a41.62,41.62,0,0,1-2.42,3.63,13.78,13.78,0,0,1-6.69,5.1c-4.29,1.31-6.28,2.3-6.58,5.94-.32,3.83,3.57,9.55,9.84,6a15.21,15.21,0,0,0,3.39-2.65,29.54,29.54,0,0,0,5.68-8.38c1.37-2.92,3.06-7.07,1.83-10.39A2.69,2.69,0,0,0,310.34,204Z"/><path class="cls-61" d="M325.59,179.91s1.16,3.93,1.54,3.93,9.91-3.65,9.25-5.85S331.63,177.23,325.59,179.91Z"/><path class="cls-61" d="M328.55,187.14s1.24,3.82,1.88,3.78,10.52-5.07,9.63-7.36C339,180.64,329.46,186.89,328.55,187.14Z"/><path class="cls-61" d="M331.32,193s1.17,3.33,1.63,3.46,7.26-4.85,7.9-6,.35-3.21-1.64-2.27S331.32,193,331.32,193Z"/><path class="cls-61" d="M333.74,198.19s1.32,3.94,1.63,4,3.29-2.76,4.29-4.27,1.78-4.93,1.16-5-2.82,2.32-2.82,2.32S333.91,198,333.74,198.19Z"/><path class="cls-41" d="M329.59,122.78c-2.68,1.12-3.7,5.29-2.28,9.31s4.76,6.37,7.44,5.25,3.7-5.29,2.28-9.31S332.27,121.66,329.59,122.78Z"/><path class="cls-62" d="M342.13,85.68s0-.05,0-.13C342.12,85.63,342.13,85.68,342.13,85.68Z"/><path class="cls-48" d="M377.78,125.89c-.48-10-2.55-22.53-4.92-29.83-2-9.57-30.19-12.57-37.38,1.3-2.19,6.35-4.48,18.56-5.25,30.09,0-.12,0-.19,0-.19s-5.78,29.59,20.76,29.53,28.83-13.21,26.8-30.9Z"/><g class="cls-63"><path class="cls-64" d="M339.37,121.88c-5.26.32-9.34,5.32-9.12,11.17s4.66,10.35,9.91,10,9.34-5.31,9.12-11.17S344.62,121.57,339.37,121.88Z"/><ellipse class="cls-65" cx="339.76" cy="132.48" rx="10.54" ry="9.45" transform="translate(188.9 464.5) rotate(-86.87)"/><ellipse class="cls-66" cx="339.76" cy="132.48" rx="10.46" ry="9.37" transform="translate(188.91 464.5) rotate(-86.87)"/><path class="cls-67" d="M339.38,122.13c-5.14.3-9.13,5.19-8.91,10.91s4.55,10.11,9.68,9.8,9.12-5.19,8.91-10.91S344.51,121.82,339.38,122.13Z"/><path class="cls-68" d="M339.38,122.21c-5.09.3-9.05,5.15-8.84,10.82s4.52,10,9.61,9.73,9.05-5.15,8.84-10.83S344.47,121.9,339.38,122.21Z"/><path class="cls-69" d="M339.38,122.29c-5.05.3-9,5.11-8.76,10.74s4.47,9.95,9.53,9.65,9-5.12,8.76-10.74S344.44,122,339.38,122.29Z"/><path class="cls-70" d="M339.39,122.37c-5,.3-8.91,5.07-8.7,10.66s4.44,9.86,9.45,9.56,8.91-5.07,8.7-10.65S344.4,122.07,339.39,122.37Z"/><ellipse class="cls-71" cx="339.76" cy="132.48" rx="10.05" ry="9.01" transform="translate(188.91 464.5) rotate(-86.87)"/><path class="cls-72" d="M339.39,122.53c-4.93.3-8.76,5-8.56,10.49s4.37,9.71,9.31,9.41,8.76-5,8.55-10.48S344.32,122.24,339.39,122.53Z"/><ellipse class="cls-73" cx="339.76" cy="132.48" rx="9.88" ry="8.86" transform="translate(188.91 464.5) rotate(-86.87)"/><ellipse class="cls-74" cx="339.76" cy="132.48" rx="9.8" ry="8.79" transform="translate(188.9 464.5) rotate(-86.87)"/><ellipse class="cls-75" cx="339.76" cy="132.48" rx="9.72" ry="8.71" transform="translate(188.9 464.49) rotate(-86.87)"/><path class="cls-76" d="M339.4,122.86c-4.77.29-8.47,4.83-8.27,10.14s4.22,9.39,9,9.1,8.48-4.82,8.28-10.13S344.17,122.58,339.4,122.86Z"/><path class="cls-77" d="M339.41,122.94c-4.73.29-8.41,4.79-8.21,10.05s4.19,9.32,8.92,9,8.41-4.78,8.21-10.05S344.14,122.66,339.41,122.94Z"/><path class="cls-78" d="M339.41,123c-4.69.28-8.33,4.75-8.14,10s4.16,9.23,8.85,8.95,8.33-4.74,8.14-10S344.1,122.74,339.41,123Z"/><path class="cls-79" d="M339.41,123.11c-4.65.27-8.26,4.7-8.06,9.88s4.12,9.15,8.77,8.87,8.26-4.7,8.06-9.88S344.06,122.83,339.41,123.11Z"/><ellipse class="cls-80" cx="339.76" cy="132.48" rx="9.31" ry="8.35" transform="translate(188.9 464.5) rotate(-86.87)"/><path class="cls-81" d="M339.42,123.27c-4.57.27-8.12,4.62-7.93,9.71s4.05,9,8.62,8.72,8.12-4.62,7.93-9.71S344,123,339.42,123.27Z"/><path class="cls-82" d="M339.42,123.35c-4.52.27-8,4.58-7.85,9.62s4,8.92,8.54,8.65,8-4.58,7.85-9.63S344,123.08,339.42,123.35Z"/><path class="cls-83" d="M339.43,123.43c-4.49.27-8,4.54-7.79,9.54s4,8.83,8.46,8.56,8-4.53,7.79-9.53S343.91,123.16,339.43,123.43Z"/><path class="cls-84" d="M339.43,123.51c-4.45.27-7.9,4.5-7.72,9.45s3.94,8.76,8.39,8.49S348,137,347.82,132,343.88,123.25,339.43,123.51Z"/><path class="cls-85" d="M339.43,123.6c-4.4.26-7.83,4.45-7.64,9.36s3.9,8.67,8.31,8.41,7.83-4.46,7.64-9.36S343.84,123.33,339.43,123.6Z"/><path class="cls-86" d="M339.44,123.68c-4.37.26-7.76,4.41-7.58,9.28s3.87,8.59,8.23,8.33,7.76-4.42,7.58-9.28S343.8,123.42,339.44,123.68Z"/><path class="cls-87" d="M339.44,123.76c-4.33.26-7.69,4.37-7.51,9.19s3.84,8.52,8.16,8.26,7.69-4.38,7.51-9.2S343.76,123.5,339.44,123.76Z"/><path class="cls-88" d="M339.44,123.84c-4.28.26-7.61,4.33-7.43,9.11s3.79,8.43,8.08,8.18,7.61-4.34,7.43-9.11S343.73,123.58,339.44,123.84Z"/><path class="cls-89" d="M339.44,123.92c-4.24.25-7.54,4.29-7.36,9s3.76,8.36,8,8.1,7.54-4.29,7.36-9S343.69,123.67,339.44,123.92Z"/><path class="cls-90" d="M339.45,124c-4.21.25-7.47,4.25-7.3,8.94s3.73,8.27,7.93,8,7.47-4.25,7.3-8.93S343.65,123.75,339.45,124Z"/><ellipse class="cls-91" cx="339.76" cy="132.48" rx="8.41" ry="7.54" transform="translate(188.9 464.49) rotate(-86.87)"/><ellipse class="cls-92" cx="339.76" cy="132.48" rx="8.33" ry="7.47" transform="translate(188.9 464.5) rotate(-86.87)"/><path class="cls-93" d="M339.46,124.25c-4.09.24-7.26,4.13-7.09,8.67s3.62,8,7.7,7.8,7.26-4.13,7.09-8.68S343.54,124,339.46,124.25Z"/><path class="cls-94" d="M339.46,124.33c-4,.24-7.18,4.09-7,8.59s3.59,8,7.63,7.72,7.18-4.09,7-8.59S343.5,124.09,339.46,124.33Z"/><ellipse class="cls-95" cx="339.76" cy="132.48" rx="8.09" ry="7.25" transform="translate(188.9 464.49) rotate(-86.86)"/><ellipse class="cls-96" cx="339.76" cy="132.48" rx="8" ry="7.18" transform="translate(188.9 464.49) rotate(-86.87)"/><path class="cls-97" d="M339.47,124.57c-3.92.24-7,4-6.81,8.34s3.48,7.72,7.4,7.48,7-4,6.8-8.33S343.39,124.34,339.47,124.57Z"/><path class="cls-98" d="M339.47,124.65c-3.88.24-6.89,3.93-6.73,8.25s3.44,7.64,7.32,7.41,6.89-3.92,6.73-8.25S343.35,124.42,339.47,124.65Z"/><path class="cls-99" d="M339.47,124.74c-3.84.23-6.82,3.88-6.66,8.16s3.4,7.56,7.24,7.33,6.83-3.88,6.67-8.16S343.31,124.51,339.47,124.74Z"/><path class="cls-100" d="M339.48,124.82c-3.8.23-6.75,3.84-6.6,8.07s3.37,7.48,7.17,7.26,6.75-3.85,6.6-8.08S343.28,124.59,339.48,124.82Z"/><path class="cls-101" d="M339.48,124.9c-3.76.22-6.68,3.8-6.52,8s3.33,7.4,7.09,7.18,6.68-3.81,6.52-8S343.24,124.67,339.48,124.9Z"/><path class="cls-102" d="M339.48,125c-3.72.22-6.6,3.76-6.45,7.91s3.3,7.32,7,7.09,6.6-3.76,6.45-7.9S343.2,124.76,339.48,125Z"/><path class="cls-103" d="M339.49,125.06c-3.68.22-6.54,3.72-6.39,7.82s3.26,7.24,6.94,7,6.54-3.72,6.39-7.82S343.17,124.84,339.49,125.06Z"/><ellipse class="cls-104" cx="339.76" cy="132.48" rx="7.35" ry="6.59" transform="translate(188.9 464.49) rotate(-86.87)"/><path class="cls-105" d="M339.49,125.23c-3.59.21-6.39,3.63-6.24,7.64s3.19,7.08,6.79,6.87,6.39-3.64,6.24-7.65S343.09,125,339.49,125.23Z"/><path class="cls-106" d="M339.5,125.31c-3.56.21-6.32,3.59-6.18,7.56s3.16,7,6.71,6.79,6.32-3.6,6.18-7.56S343.05,125.09,339.5,125.31Z"/><path class="cls-107" d="M339.5,125.39c-3.52.21-6.25,3.56-6.1,7.47s3.11,6.93,6.63,6.72,6.25-3.56,6.1-7.48S343,125.18,339.5,125.39Z"/><path class="cls-108" d="M339.5,125.47c-3.47.21-6.18,3.52-6,7.39s3.08,6.84,6.56,6.64,6.17-3.52,6-7.39S343,125.26,339.5,125.47Z"/><path class="cls-109" d="M339.51,125.55c-3.44.21-6.11,3.48-6,7.3s3,6.77,6.48,6.56,6.11-3.47,6-7.3S342.94,125.35,339.51,125.55Z"/><ellipse class="cls-110" cx="339.76" cy="132.48" rx="6.86" ry="6.15" transform="translate(188.9 464.5) rotate(-86.87)"/><path class="cls-111" d="M339.51,125.72c-3.35.2-6,3.39-5.82,7.13s3,6.6,6.33,6.4,6-3.39,5.82-7.13S342.87,125.51,339.51,125.72Z"/><path class="cls-112" d="M339.51,125.8c-3.31.19-5.89,3.35-5.75,7s2.94,6.53,6.25,6.33,5.89-3.35,5.76-7S342.83,125.6,339.51,125.8Z"/><path class="cls-113" d="M339.52,125.88c-3.28.19-5.82,3.31-5.68,7s2.9,6.44,6.17,6.25,5.82-3.31,5.68-7S342.79,125.68,339.52,125.88Z"/><path class="cls-114" d="M339.52,126c-3.23.19-5.75,3.27-5.61,6.87s2.86,6.37,6.1,6.18,5.75-3.27,5.61-6.88S342.75,125.77,339.52,126Z"/><path class="cls-115" d="M339.52,126c-3.19.19-5.67,3.23-5.54,6.79s2.83,6.29,6,6.09,5.67-3.23,5.54-6.78S342.72,125.85,339.52,126Z"/><path class="cls-116" d="M339.53,126.12c-3.16.19-5.61,3.19-5.47,6.7s2.79,6.21,5.94,6,5.61-3.19,5.47-6.7S342.68,125.93,339.53,126.12Z"/><path class="cls-117" d="M339.53,126.2c-3.11.19-5.53,3.15-5.4,6.62s2.76,6.13,5.87,5.94,5.53-3.15,5.4-6.61S342.64,126,339.53,126.2Z"/><path class="cls-118" d="M339.53,126.29c-3.07.18-5.46,3.1-5.33,6.53s2.72,6,5.8,5.86,5.46-3.11,5.33-6.53S342.6,126.1,339.53,126.29Z"/><path class="cls-119" d="M339.54,126.37c-3,.18-5.39,3.06-5.27,6.44s2.69,6,5.72,5.79,5.39-3.07,5.26-6.45S342.57,126.19,339.54,126.37Z"/><path class="cls-120" d="M339.54,126.45c-3,.18-5.32,3-5.19,6.36s2.65,5.89,5.64,5.71,5.32-3,5.19-6.36S342.53,126.27,339.54,126.45Z"/><path class="cls-121" d="M339.54,126.53c-3,.18-5.24,3-5.12,6.27s2.62,5.81,5.57,5.64,5.24-3,5.12-6.28S342.49,126.35,339.54,126.53Z"/><path class="cls-122" d="M339.54,126.61c-2.91.18-5.17,3-5.05,6.19s2.58,5.73,5.49,5.55,5.18-2.94,5-6.18S342.46,126.44,339.54,126.61Z"/><path class="cls-123" d="M339.55,126.69c-2.87.18-5.1,2.91-5,6.1s2.54,5.65,5.41,5.48,5.1-2.9,5-6.1S342.42,126.52,339.55,126.69Z"/><path class="cls-124" d="M339.55,126.77c-2.83.17-5,2.87-4.91,6s2.51,5.57,5.34,5.4a5.59,5.59,0,0,0,4.91-6C344.77,129,342.38,126.61,339.55,126.77Z"/><path class="cls-125" d="M339.55,126.86c-2.79.16-4.95,2.82-4.84,5.92s2.48,5.5,5.27,5.33,4.95-2.82,4.84-5.93S342.34,126.69,339.55,126.86Z"/><path class="cls-126" d="M339.56,126.94a5.43,5.43,0,0,0-4.77,5.84A5.15,5.15,0,0,0,340,138a5.43,5.43,0,0,0,4.77-5.84C344.63,129.12,342.31,126.77,339.56,126.94Z"/><path class="cls-127" d="M339.56,127a5.36,5.36,0,0,0-4.7,5.76A5.08,5.08,0,0,0,340,138a5.36,5.36,0,0,0,4.7-5.76A5.07,5.07,0,0,0,339.56,127Z"/><path class="cls-128" d="M339.56,127.1a5.28,5.28,0,0,0-4.63,5.67,5,5,0,0,0,5,5.09,5.28,5.28,0,0,0,4.63-5.67A5,5,0,0,0,339.56,127.1Z"/><path class="cls-129" d="M339.57,127.18a5.2,5.2,0,0,0-4.56,5.59,4.92,4.92,0,0,0,4.95,5,5.18,5.18,0,0,0,4.56-5.58A4.93,4.93,0,0,0,339.57,127.18Z"/></g><g class="cls-63"><ellipse class="cls-64" cx="365.51" cy="130.94" rx="10.66" ry="10.33" transform="translate(115.82 428.26) rotate(-69.69)"/><ellipse class="cls-65" cx="365.51" cy="130.94" rx="10.57" ry="10.25" transform="translate(115.78 428.23) rotate(-69.68)"/><path class="cls-66" d="M365.12,120.51a10.61,10.61,0,0,0-9.81,11,10.05,10.05,0,0,0,10.59,9.83,10.62,10.62,0,0,0,9.82-11A10.06,10.06,0,0,0,365.12,120.51Z"/><ellipse class="cls-67" cx="365.51" cy="130.94" rx="10.41" ry="10.09" transform="translate(115.79 428.24) rotate(-69.68)"/><ellipse class="cls-68" cx="365.51" cy="130.94" rx="10.33" ry="10.01" transform="translate(115.78 428.23) rotate(-69.68)"/><path class="cls-69" d="M365.13,120.75a10.37,10.37,0,0,0-9.58,10.79,9.82,9.82,0,0,0,10.34,9.6,10.37,10.37,0,0,0,9.59-10.79A9.83,9.83,0,0,0,365.13,120.75Z"/><ellipse class="cls-70" cx="365.51" cy="130.94" rx="10.16" ry="9.86" transform="translate(115.79 428.24) rotate(-69.68)"/><path class="cls-71" d="M365.14,120.91a10.2,10.2,0,0,0-9.43,10.62A9.65,9.65,0,0,0,365.89,141a10.2,10.2,0,0,0,9.43-10.61A9.68,9.68,0,0,0,365.14,120.91Z"/><ellipse class="cls-72" cx="365.51" cy="130.94" rx="10" ry="9.7" transform="translate(115.78 428.23) rotate(-69.68)"/><path class="cls-73" d="M365.14,121.08a10,10,0,0,0-9.27,10.44,9.5,9.5,0,0,0,10,9.29,10,10,0,0,0,9.28-10.44A9.51,9.51,0,0,0,365.14,121.08Z"/><ellipse class="cls-74" cx="365.51" cy="130.94" rx="9.84" ry="9.54" transform="translate(115.8 428.25) rotate(-69.68)"/><ellipse class="cls-75" cx="365.51" cy="130.94" rx="9.76" ry="9.46" transform="translate(115.78 428.23) rotate(-69.68)"/><ellipse class="cls-76" cx="365.51" cy="130.94" rx="9.67" ry="9.38" transform="translate(115.81 428.26) rotate(-69.68)"/><ellipse class="cls-77" cx="365.51" cy="130.94" rx="9.59" ry="9.3" transform="translate(115.78 428.23) rotate(-69.68)"/><path class="cls-78" d="M365.16,121.48a9.64,9.64,0,0,0-8.9,10,9.12,9.12,0,0,0,9.61,8.9,9.62,9.62,0,0,0,8.89-10A9.13,9.13,0,0,0,365.16,121.48Z"/><path class="cls-79" d="M365.16,121.57a9.54,9.54,0,0,0-8.82,9.92,9,9,0,0,0,9.52,8.83,9.54,9.54,0,0,0,8.82-9.92A9,9,0,0,0,365.16,121.57Z"/><ellipse class="cls-80" cx="365.51" cy="130.94" rx="9.35" ry="9.06" transform="translate(115.78 428.23) rotate(-69.68)"/><ellipse class="cls-81" cx="365.51" cy="130.94" rx="9.26" ry="8.98" transform="translate(115.81 428.25) rotate(-69.68)"/><ellipse class="cls-82" cx="365.51" cy="130.94" rx="9.18" ry="8.9" transform="translate(115.79 428.23) rotate(-69.68)"/><path class="cls-83" d="M365.17,121.89a9.21,9.21,0,0,0-8.51,9.58,8.72,8.72,0,0,0,9.19,8.52,9.2,9.2,0,0,0,8.51-9.58A8.73,8.73,0,0,0,365.17,121.89Z"/><ellipse class="cls-84" cx="365.51" cy="130.94" rx="9.02" ry="8.74" transform="translate(115.8 428.25) rotate(-69.68)"/><path class="cls-85" d="M365.18,122.06a9,9,0,0,0-8.36,9.4,8.57,8.57,0,0,0,9,8.37,9,9,0,0,0,8.36-9.41A8.56,8.56,0,0,0,365.18,122.06Z"/><path class="cls-86" d="M365.18,122.14a9,9,0,0,0-8.28,9.32,8.49,8.49,0,0,0,8.94,8.29,9,9,0,0,0,8.28-9.32A8.48,8.48,0,0,0,365.18,122.14Z"/><path class="cls-87" d="M365.19,122.22a8.87,8.87,0,0,0-8.21,9.23,8.42,8.42,0,0,0,8.86,8.22,8.88,8.88,0,0,0,8.2-9.24A8.41,8.41,0,0,0,365.19,122.22Z"/><path class="cls-88" d="M365.19,122.3a8.8,8.8,0,0,0-8.13,9.15,8.34,8.34,0,0,0,8.78,8.14,8.8,8.8,0,0,0,8.12-9.15A8.32,8.32,0,0,0,365.19,122.3Z"/><ellipse class="cls-89" cx="365.51" cy="130.94" rx="8.61" ry="8.35" transform="translate(115.8 428.25) rotate(-69.68)"/><path class="cls-90" d="M365.19,122.46a8.64,8.64,0,0,0-8,9,8.17,8.17,0,0,0,8.61,8,8.61,8.61,0,0,0,8-9A8.17,8.17,0,0,0,365.19,122.46Z"/><ellipse class="cls-91" cx="365.51" cy="130.94" rx="8.44" ry="8.19" transform="translate(115.83 428.27) rotate(-69.69)"/><path class="cls-92" d="M365.2,122.63a8.46,8.46,0,0,0-7.82,8.8,8,8,0,0,0,8.44,7.83,8.46,8.46,0,0,0,7.82-8.8A8,8,0,0,0,365.2,122.63Z"/><path class="cls-93" d="M365.2,122.71a8.38,8.38,0,0,0-7.74,8.72,7.94,7.94,0,0,0,8.36,7.75,8.38,8.38,0,0,0,7.74-8.72A7.93,7.93,0,0,0,365.2,122.71Z"/><path class="cls-94" d="M365.21,122.79a8.29,8.29,0,0,0-7.67,8.63,7.87,7.87,0,0,0,8.28,7.68,8.3,8.3,0,0,0,7.66-8.63A7.85,7.85,0,0,0,365.21,122.79Z"/><ellipse class="cls-95" cx="365.51" cy="130.94" rx="8.12" ry="7.87" transform="translate(115.76 428.22) rotate(-69.68)"/><path class="cls-96" d="M365.21,123a8.13,8.13,0,0,0-7.51,8.46,7.7,7.7,0,0,0,8.11,7.52,8.12,8.12,0,0,0,7.52-8.45A7.71,7.71,0,0,0,365.21,123Z"/><ellipse class="cls-97" cx="365.51" cy="130.94" rx="7.95" ry="7.71" transform="translate(115.78 428.23) rotate(-69.68)"/><ellipse class="cls-98" cx="365.51" cy="130.94" rx="7.87" ry="7.63" transform="translate(115.81 428.26) rotate(-69.68)"/><path class="cls-99" d="M365.22,123.2a7.88,7.88,0,0,0-7.28,8.2,7.47,7.47,0,0,0,7.86,7.29,7.89,7.89,0,0,0,7.29-8.2A7.46,7.46,0,0,0,365.22,123.2Z"/><path class="cls-100" d="M365.23,123.28a7.8,7.8,0,0,0-7.21,8.11,7.39,7.39,0,0,0,7.78,7.22A7.81,7.81,0,0,0,373,130.5,7.39,7.39,0,0,0,365.23,123.28Z"/><path class="cls-101" d="M365.23,123.36a7.71,7.71,0,0,0-7.13,8,7.31,7.31,0,0,0,7.7,7.14,7.73,7.73,0,0,0,7.13-8A7.32,7.32,0,0,0,365.23,123.36Z"/><path class="cls-102" d="M365.23,123.44a7.63,7.63,0,0,0-7.05,7.94,7.23,7.23,0,0,0,7.61,7.07,7.65,7.65,0,0,0,7.06-7.94A7.24,7.24,0,0,0,365.23,123.44Z"/><path class="cls-103" d="M365.23,123.52a7.55,7.55,0,0,0-7,7.86,7.14,7.14,0,0,0,7.53,7,7.55,7.55,0,0,0,7-7.85A7.16,7.16,0,0,0,365.23,123.52Z"/><ellipse class="cls-104" cx="365.51" cy="130.94" rx="7.38" ry="7.15" transform="translate(115.8 428.25) rotate(-69.68)"/><path class="cls-105" d="M365.24,123.69a7.37,7.37,0,0,0-6.82,7.68,7,7,0,0,0,7.36,6.83,7.38,7.38,0,0,0,6.83-7.68A7,7,0,0,0,365.24,123.69Z"/><ellipse class="cls-106" cx="365.51" cy="130.94" rx="7.21" ry="6.99" transform="translate(115.82 428.27) rotate(-69.69)"/><path class="cls-107" d="M365.25,123.85a7.21,7.21,0,0,0-6.67,7.51,6.83,6.83,0,0,0,7.2,6.68,7.21,7.21,0,0,0,6.67-7.51A6.84,6.84,0,0,0,365.25,123.85Z"/><path class="cls-108" d="M365.25,123.93a7.13,7.13,0,0,0-6.59,7.42,6.76,6.76,0,0,0,7.11,6.61,7.14,7.14,0,0,0,6.6-7.43A6.76,6.76,0,0,0,365.25,123.93Z"/><path class="cls-109" d="M365.25,124a7,7,0,0,0-6.51,7.34,6.67,6.67,0,0,0,7,6.52,7,7,0,0,0,6.52-7.33A6.68,6.68,0,0,0,365.25,124Z"/><path class="cls-110" d="M365.26,124.09a7,7,0,0,0-6.45,7.25,6.61,6.61,0,0,0,7,6.45,7,7,0,0,0,6.44-7.25A6.61,6.61,0,0,0,365.26,124.09Z"/><path class="cls-111" d="M365.26,124.18a6.88,6.88,0,0,0-6.37,7.16,6.52,6.52,0,0,0,6.88,6.37,6.88,6.88,0,0,0,6.36-7.16A6.52,6.52,0,0,0,365.26,124.18Z"/><ellipse class="cls-112" cx="365.51" cy="130.94" rx="6.72" ry="6.52" transform="translate(115.81 428.26) rotate(-69.68)"/><path class="cls-113" d="M365.26,124.34a6.72,6.72,0,0,0-6.21,7,6.37,6.37,0,0,0,6.71,6.22,6.71,6.71,0,0,0,6.21-7A6.37,6.37,0,0,0,365.26,124.34Z"/><path class="cls-114" d="M365.27,124.42a6.64,6.64,0,0,0-6.14,6.9,6.3,6.3,0,0,0,6.63,6.15,6.64,6.64,0,0,0,6.13-6.91A6.29,6.29,0,0,0,365.27,124.42Z"/><path class="cls-115" d="M365.27,124.5a6.56,6.56,0,0,0-6.06,6.82,6.22,6.22,0,0,0,6.54,6.07,6.56,6.56,0,0,0,6.06-6.82A6.21,6.21,0,0,0,365.27,124.5Z"/><path class="cls-116" d="M365.27,124.58a6.48,6.48,0,0,0-6,6.74,6.13,6.13,0,0,0,6.46,6,6.47,6.47,0,0,0,6-6.73A6.14,6.14,0,0,0,365.27,124.58Z"/><path class="cls-117" d="M365.28,124.67a6.38,6.38,0,0,0-5.91,6.64,6.06,6.06,0,0,0,6.38,5.91,6.38,6.38,0,0,0,5.9-6.64A6,6,0,0,0,365.28,124.67Z"/><path class="cls-118" d="M365.28,124.75a6.3,6.3,0,0,0-5.83,6.56,6,6,0,0,0,6.29,5.83,6.3,6.3,0,0,0,5.83-6.56A6,6,0,0,0,365.28,124.75Z"/><path class="cls-119" d="M365.28,124.83a6.22,6.22,0,0,0-5.75,6.47,5.9,5.9,0,0,0,6.21,5.76,6.22,6.22,0,0,0,5.75-6.47A5.89,5.89,0,0,0,365.28,124.83Z"/><path class="cls-120" d="M365.29,124.91a6.14,6.14,0,0,0-5.68,6.39,5.83,5.83,0,0,0,6.13,5.68,6.14,6.14,0,0,0,5.67-6.39A5.81,5.81,0,0,0,365.29,124.91Z"/><path class="cls-121" d="M365.29,125a6.05,6.05,0,0,0-5.6,6.3,5.74,5.74,0,0,0,6,5.61,6.06,6.06,0,0,0,5.6-6.3A5.74,5.74,0,0,0,365.29,125Z"/><path class="cls-122" d="M365.29,125.07a6,6,0,0,0-5.52,6.22,5.65,5.65,0,0,0,6,5.52,6,6,0,0,0,5.52-6.21A5.66,5.66,0,0,0,365.29,125.07Z"/><path class="cls-123" d="M365.3,125.15a5.89,5.89,0,0,0-5.45,6.13,5.58,5.58,0,0,0,5.88,5.45,5.88,5.88,0,0,0,5.44-6.12A5.59,5.59,0,0,0,365.3,125.15Z"/><path class="cls-124" d="M365.3,125.24a5.8,5.8,0,0,0-5.37,6,5.5,5.5,0,0,0,5.8,5.37,5.8,5.8,0,0,0,5.36-6A5.49,5.49,0,0,0,365.3,125.24Z"/><path class="cls-125" d="M365.3,125.32a5.72,5.72,0,0,0-5.29,6,5.42,5.42,0,0,0,5.71,5.3,5.72,5.72,0,0,0,5.29-6A5.42,5.42,0,0,0,365.3,125.32Z"/><path class="cls-126" d="M365.3,125.4a5.65,5.65,0,0,0-5.21,5.87,5.35,5.35,0,0,0,5.63,5.22,5.64,5.64,0,0,0,5.21-5.87A5.34,5.34,0,0,0,365.3,125.4Z"/><path class="cls-127" d="M365.31,125.48a5.57,5.57,0,0,0-5.14,5.78,5.28,5.28,0,0,0,5.55,5.15,5.55,5.55,0,0,0,5.13-5.79A5.26,5.26,0,0,0,365.31,125.48Z"/><path class="cls-128" d="M365.31,125.56a5.48,5.48,0,0,0-5.06,5.7,5.19,5.19,0,0,0,5.46,5.07,5.47,5.47,0,0,0,5.06-5.7A5.19,5.19,0,0,0,365.31,125.56Z"/><path class="cls-129" d="M365.31,125.64a5.39,5.39,0,0,0-5,5.61,5.11,5.11,0,0,0,5.38,5,5.39,5.39,0,0,0,5-5.61A5.11,5.11,0,0,0,365.31,125.64Z"/></g><path class="cls-48" d="M383,118.43c-2.93-.73-6,1.94-6.81,6s.88,7.87,3.8,8.61,6-1.94,6.8-6S385.88,119.17,383,118.43Z"/><path class="cls-41" d="M384.25,129a6.67,6.67,0,0,1-7.76.09c0,.2.06.4.08.61A5.2,5.2,0,0,0,380,133c2.85.71,5.81-1.8,6.73-5.64.11-.61.22-1.28.27-1.88,0-.32,0-.64,0-1A9.28,9.28,0,0,1,384.25,129Z"/><path class="cls-51" d="M355.52,113.06s-1,5,3.17,12.93l12.19-.64s1-5.3.06-8.12Z"/><path class="cls-51" d="M335.43,118.15c-.87,2.57-1.09,8.09-1.09,8.09l11.54,1.2c3.76-7.18,2.67-13.08,2.67-13.08Z"/><path class="cls-1" d="M364.48,121.57a5.75,5.75,0,0,0-5.79,4.42s.66,2.23,6.16,1.82c5.69-.42,6-2.74,6-2.74S369.75,121.61,364.48,121.57Z"/><path class="cls-1" d="M334.34,126.24s-.54,2.53,5.33,2.4,6.21-1.2,6.21-1.2S339.24,116.89,334.34,126.24Z"/><path class="cls-130" d="M337.86,128.58a14.41,14.41,0,0,0,1.81.06c1.18,0,2.13-.08,2.9-.17.34-2-.3-3.85-1.51-4.17s-2.64,1.1-3.08,3.22A5.65,5.65,0,0,0,337.86,128.58Z"/><path class="cls-131" d="M364.85,127.81c.42,0,.82-.07,1.18-.12a2.29,2.29,0,0,0,.07-.28c.45-2.15-.21-4.18-1.47-4.52s-2.64,1.13-3.08,3.28a6.36,6.36,0,0,0-.1,1.51A13.07,13.07,0,0,0,364.85,127.81Z"/><path class="cls-62" d="M339.46,121.88a5.59,5.59,0,0,0-5.12,4.36,7,7,0,0,1,5.26-2c3.59,0,6.28,3.25,6.28,3.25S345.16,121.47,339.46,121.88Z"/><path class="cls-132" d="M335.29,118.62c3.95-1.26,10.59.35,12.75-1.4.83-.67.44-3.49.44-3.49C338.83,113.06,335.29,118.62,335.29,118.62Z"/><path class="cls-132" d="M362.76,112.4A55.37,55.37,0,0,0,356,112a2.6,2.6,0,0,0,.09,3c2.1,3.24,10.51-.35,15.07,2.92C371.13,117.92,369.7,113,362.76,112.4Z"/><path class="cls-62" d="M364.3,120.93c-5,.1-5.61,5.06-5.61,5.06s1.24-2.71,6.41-2.71c3.92,0,5.79,1.79,5.79,1.79S369.8,120.81,364.3,120.93Z"/><path class="cls-133" d="M363.34,138.66a1.06,1.06,0,0,1,0,.14A.42.42,0,0,0,363.34,138.66Z"/><path class="cls-133" d="M363.34,138.66h0Z"/><path class="cls-133" d="M363.31,137v0Z"/><path class="cls-134" d="M352,85.23c-27.16,3.89-20.64,34.42-20.64,34.42.8-9.36,5.78-18.45,8.64-19.68,0,0,6.24,3.17,11.85,2.88,5-.27,11.22-4.35,11.22-4.35,5-.49,11,10.91,11.86,24,.19,2.93,4.18-3.17,4.18-3.17S378.63,81.43,352,85.23Z"/><path class="cls-134" d="M366.51,86.59c-9.21-12-35.32-4.12-35.32-4.12C329.92,97,340,100,340,100s22.51-8.61,26.18-6.37S379,117.44,379,117.44s3.33-23.41-1.66-30.79C373.71,81.23,366.51,86.59,366.51,86.59Z"/><path class="cls-134" d="M343.11,76.71a11.81,11.81,0,0,0,1.56,4.1S373.19,96,367.53,85.2,343.11,76.71,343.11,76.71Z"/><path class="cls-134" d="M373.72,82.32c-1.55.36-1.88,1.14-1.88,1.14a7.77,7.77,0,0,0,.1-5c-2.95,2-2.53,4.47-2.53,4.47-1.65-3.08-6.29-3.73-6.29-3.73.28,2.62,3.17,5.11,3.33,5.18L369,87.94l4.9-1.16-.61-2.21A2.86,2.86,0,0,0,373.72,82.32Z"/><path class="cls-132" d="M332.14,91.82c-7.8,3.1-1.84,34.24-1.84,34.24,1-9.31,5.11-24.24,9.65-26.09A20.68,20.68,0,0,1,332.14,91.82Z"/><path class="cls-30" d="M365.54,85.14Z"/><path class="cls-30" d="M365.58,84.77Z"/><path class="cls-135" d="M376.17,85.33c-1.53-.3-3.59.47-4.63.8a22.06,22.06,0,0,1-7.81,1.22c-3.08-.2-5.87-1.39-8.7-2.59-1.43-.61-2.85-1.23-4.31-1.74-3.13-1.1-6.8-2.14-10.11-1.78A13.46,13.46,0,0,0,336,82.8a33.56,33.56,0,0,0-4.81,3.8,20.28,20.28,0,0,0,.55,3.57c.52-.35,1.15-.79,1.21-.85A10.47,10.47,0,0,1,334.84,88a8.37,8.37,0,0,1,2.65-.91c3.93-.61,7.74.75,11.44,2,1.51.51,3.06,1.12,4.69,1.67a49.2,49.2,0,0,0,5.08,1.51A17,17,0,0,0,368,91.9c.39-.14.77-.27,1.14-.42a25,25,0,0,0,3.82-2c1.09-.69,2-1.31,2.84-1.79a5.6,5.6,0,0,1,2-.25c-.14-.27-.3-.53-.46-.78A6.18,6.18,0,0,0,376.17,85.33Z"/><path class="cls-30" d="M365.48,85.14h0Z"/><path class="cls-136" d="M363,125.46a2.1,2.1,0,0,1-.71-.08c-.29-.12-.54-.47-.89-.37-.68.2-.34,1.14,0,1.52a1.79,1.79,0,0,0,2.55.15.78.78,0,0,0,.24-.69C364,125.45,363.4,125.47,363,125.46Z"/><path class="cls-136" d="M339.93,126.06a1,1,0,0,0-.33-.2c-.4-.15-.88-.1-1.2-.38-.17-.15-.32-.36-.58-.24-.45.23-.27,1.09-.13,1.45.34.83,1.75,1.41,2.4.63a.86.86,0,0,0,.13-.85A.91.91,0,0,0,339.93,126.06Z"/><path class="cls-137" d="M343.91,141s-.33,1.43.41,2.1,2.87,2.43,9.07,1.94c5.85-.46,8.36-2.71,8.81-3.73a3.52,3.52,0,0,0-.24-2.46Z"/><path class="cls-134" d="M374.84,121.86c.14,5.58-1.39,11.19-3.2,13.22a5.51,5.51,0,0,1-5.82,1.49,32.14,32.14,0,0,0-15.73-1.74s-13.82,8.26-17.88-.86c-1.18-2.64-1.59-7.72-1.77-9.1h-.36c-2.32,13.21-1.94,34.19,25.18,33.34,27.54-.86,23.53-25.66,23.53-25.66-1.64-4.61.27-13.21.27-13.21Zm-11.52,21.22c-1.55,2-4.56,3.91-9.11,4.32-.43,0-.85.07-1.26.08a16.78,16.78,0,0,1-9.61-2.46,2.3,2.3,0,0,1-.36-3.69h0a32.63,32.63,0,0,0,10.55.75,24.31,24.31,0,0,0,9.16-2.59A2.38,2.38,0,0,1,363.32,143.08Z"/><path class="cls-138" d="M357.38,148.77a14.42,14.42,0,0,1-4.66.61,1.44,1.44,0,0,0-1.48,1.86c.31,1,1.36,2,4.38,1.54s3.7-1.55,3.73-2.55A1.55,1.55,0,0,0,357.38,148.77Z"/><path class="cls-48" d="M351.31,122.48s-.71,5.91-2.09,6.61c-2.31,1.19-4.37,2.67-4.21,5.8.25,5,11.69,3.25,11.77-1.09s-2.08-11-2.08-11Z"/><path class="cls-41" d="M345,135c.4,4.9,11.68,3.12,11.75-1.19a2.67,2.67,0,0,0,0-.4,11,11,0,0,1-5,2.35A12.59,12.59,0,0,1,345,135Z"/><path class="cls-139" d="M352.22,123.56a.73.73,0,0,0-.66.65c-.17,1.47-.82,5.2-2.87,6.06-4.4,1.83.42,6,3.78,0a9.48,9.48,0,0,0,.55-6.07A.74.74,0,0,0,352.22,123.56Z"/><path class="cls-41" d="M379.27,126l2.51.36a5.61,5.61,0,0,1,2.92-5.27C379.93,119.38,379.27,126,379.27,126Z"/></svg>