<svg xmlns="http://www.w3.org/2000/svg" xmlns:xlink="http://www.w3.org/1999/xlink" viewBox="0 0 122.64 435.96"><defs><style>.cls-1{fill:#6d7db3;}.cls-2{fill:#c97d69;}.cls-3{fill:#959caf;}.cls-105,.cls-4{opacity:0.11;}.cls-5{fill:#404751;}.cls-6{fill:#6b737c;}.cls-7{fill:#3d4041;}.cls-8{fill:#363c42;}.cls-9{fill:#dfe5ea;}.cls-10{fill:#002a3d;opacity:0.08;}.cls-11{fill:#7588bc;}.cls-12{fill:#b0b5c1;}.cls-101,.cls-104,.cls-107,.cls-13{fill:#fff;}.cls-13{opacity:0.12;}.cls-14{fill:#d78c74;}.cls-15{fill:#381911;}.cls-16{fill:#e5a185;}.cls-17{opacity:0.38;}.cls-18{fill:#e5a084;}.cls-19{fill:#e59f83;}.cls-20{fill:#e49e83;}.cls-21{fill:#e49d82;}.cls-22{fill:#e49c81;}.cls-23{fill:#e49b80;}.cls-24{fill:#e49a80;}.cls-25{fill:#e3997f;}.cls-26{fill:#e3987e;}.cls-27{fill:#e3977d;}.cls-28{fill:#e3967c;}.cls-29{fill:#e2957c;}.cls-30{fill:#e2947b;}.cls-31{fill:#e2937a;}.cls-32{fill:#e29279;}.cls-33{fill:#e29179;}.cls-34{fill:#e19078;}.cls-35{fill:#e18f77;}.cls-36{fill:#e18e76;}.cls-37{fill:#e18d75;}.cls-38{fill:#e18c75;}.cls-39{fill:#e08b74;}.cls-40{fill:#e08a73;}.cls-41{fill:#e08972;}.cls-42{fill:#e08872;}.cls-43{fill:#df8771;}.cls-44{fill:#df8670;}.cls-45{fill:#df856f;}.cls-46{fill:#df846f;}.cls-47{fill:#df836e;}.cls-48{fill:#de826d;}.cls-49{fill:#de816c;}.cls-50{fill:#de806b;}.cls-51{fill:#de7f6b;}.cls-52{fill:#de7e6a;}.cls-53{fill:#dd7d69;}.cls-54{fill:#dd7c68;}.cls-55{fill:#dd7b68;}.cls-56{fill:#dd7a67;}.cls-57{fill:#dd7a66;}.cls-58{fill:#dc7965;}.cls-59{fill:#dc7864;}.cls-60{fill:#dc7764;}.cls-61{fill:#dc7663;}.cls-62{fill:#db7562;}.cls-63{fill:#db7461;}.cls-64{fill:#db7361;}.cls-65{fill:#db7260;}.cls-66{fill:#db715f;}.cls-67{fill:#da705e;}.cls-68{fill:#da6f5d;}.cls-69{fill:#da6e5d;}.cls-70{fill:#da6d5c;}.cls-71{fill:#da6c5b;}.cls-72{fill:#d96b5a;}.cls-73{fill:#d96a5a;}.cls-74{fill:#d96959;}.cls-75{fill:#d96858;}.cls-76{fill:#d86757;}.cls-77{fill:#d86657;}.cls-78{fill:#d86556;}.cls-79{fill:#d86455;}.cls-80{fill:#d86354;}.cls-81{fill:#d76253;}.cls-82{fill:#d76153;}.cls-83{fill:#d76052;}.cls-84{fill:#d75f51;}.cls-85{fill:#d75e50;}.cls-86{fill:#d65d50;}.cls-87{fill:#d65c4f;}.cls-88{fill:#d65b4e;}.cls-89{fill:#d65a4d;}.cls-90{fill:#d5594c;}.cls-91{fill:#d5584c;}.cls-92{fill:#d5574b;}.cls-93{fill:#d5564a;}.cls-94{fill:#d55549;}.cls-95{fill:#d45449;}.cls-96{fill:#d45348;}.cls-97{fill:#d45247;}.cls-109,.cls-98{opacity:0.09;}.cls-99{fill:#ffcb80;}.cls-100{fill:#4f372d;}.cls-102{fill:#422e26;}.cls-103{fill:#6c332e;}.cls-104{opacity:0.2;}.cls-105{fill:#e5912f;}.cls-106{fill:url(#Áåçûìÿííûé_ãðàäèåíò_9);}.cls-107{opacity:0.6;}.cls-108{fill:url(#Áåçûìÿííûé_ãðàäèåíò_9-2);}.cls-110{fill:#b6bdce;}.cls-111{fill:#d58a73;}.cls-112{opacity:0.16;}.cls-113{fill:#e19d81;}.cls-114{fill:#c77762;}.cls-115{opacity:0.52;}</style><linearGradient id="Áåçûìÿííûé_ãðàäèåíò_9" x1="52.82" y1="53.67" x2="54.93" y2="48.03" gradientUnits="userSpaceOnUse"><stop offset="0" stop-color="#5c3333"/><stop offset="1"/></linearGradient><linearGradient id="Áåçûìÿííûé_ãðàäèåíò_9-2" x1="78.16" y1="59.11" x2="80.44" y2="52.2" xlink:href="#Áåçûìÿííûé_ãðàäèåíò_9"/></defs><g id="Layer_2" data-name="Layer 2"><g id="Ñëîé_1" data-name="Ñëîé 1"><path class="cls-1" d="M48,97.88s-22.7.51-31.21,13.66C7,126.65.11,148.85,2.71,166.9,4.46,179.05,9.5,177,9.5,177s7.22,8.95,24.68-34.4C49.11,105.55,48,97.88,48,97.88Z"/><path class="cls-2" d="M53.85,83,52.11,99.82c-.07,4.6,6.25,5.57,12.69,5.68s11.7-.65,11.78-5.26V83Z"/><path class="cls-1" d="M104.59,165.93c4.21-.78,11,5.85,15.14,5.85,13.67-76.46-35.49-72.52-36.27-73.9l6,27.19C93.63,132.38,102,150.86,104.59,165.93Z"/><path class="cls-3" d="M56.68,430.67a2.25,2.25,0,0,1-2.17,2l-7.22.27a205.31,205.31,0,0,0-18.5-19.15c2.58-2,6-5.24,7.89-6.93,2.47-2.14,2.33-17.82,2.33-17.82l13.74-1.41s-.26,14.64.35,16.15c1.21,3,2.2,4.4,3.33,7.37a17.14,17.14,0,0,1,.79,4.78,65.88,65.88,0,0,1-.17,11C56.94,428.17,56.81,429.42,56.68,430.67Z"/><path class="cls-4" d="M52.89,402.38c-.33-4.06-.14-14.73-.14-14.73L39,389.06a95,95,0,0,1-.92,14.06A37.49,37.49,0,0,0,52.89,402.38Z"/><path class="cls-5" d="M56.22,410.06C53.43,413,42.78,422.3,34,409.83a1.36,1.36,0,0,0-2-.27c-6.49,5.59-15,13.31-19.63,11.69-6.85-2.4-10.35.87-10.41,5.7l-.06,4.83s14,6.23,26.4,2.38l12.41-3.84,0,1.3a1.59,1.59,0,0,0,1.65,1.53l12.14-.46a2.25,2.25,0,0,0,2.17-2c.4-3.79,1.88-13.85.25-20.26C56.85,410.1,56.44,409.83,56.22,410.06Z"/><path class="cls-6" d="M57.14,427.45c-16.87-.54-26.51,6.31-37.63,6A64.05,64.05,0,0,1,1.74,430a1.27,1.27,0,0,0-1.68,1.08l0,.51a1,1,0,0,0,.63,1.05c14.94,5.94,29.89,2.34,33.87,1.3,3.27-.86,16.94-.06,22.05.27a1.92,1.92,0,0,0,2-1.81l.19-3.14A1.7,1.7,0,0,0,57.14,427.45Z"/><path class="cls-3" d="M117.64,430.67a2.26,2.26,0,0,1-2.17,2l-7.22.27a205.31,205.31,0,0,0-18.5-19.15c2.58-2,5.94-5.24,7.88-6.93,2.47-2.14.25-17.82.25-17.82l12.24-1.41s3.33,14.64,3.94,16.15c1.2,3,2.2,4.4,3.33,7.37a17.14,17.14,0,0,1,.79,4.78,65.88,65.88,0,0,1-.17,11C117.9,428.17,117.77,429.42,117.64,430.67Z"/><path class="cls-4" d="M98.66,403.77c7.55.76,10.65.19,14.83-1.94-1.15-4.4-3.37-14.18-3.37-14.18l-12.24,1.41S99.23,398.55,98.66,403.77Z"/><path class="cls-5" d="M117.18,410.06c-2.8,2.93-13.44,12.24-22.24-.23a1.36,1.36,0,0,0-2-.27c-6.49,5.59-15,13.31-19.63,11.69-6.85-2.4-10.36.87-10.41,5.7l-.06,4.83s14,6.23,26.4,2.38l12.41-3.84.05,1.3a1.59,1.59,0,0,0,1.65,1.53l12.14-.46a2.26,2.26,0,0,0,2.17-2c.4-3.79,1.88-13.85.25-20.26C117.81,410.1,117.4,409.83,117.18,410.06Z"/><path class="cls-6" d="M118.1,427.45c-16.87-.54-26.51,6.31-37.63,6A64.22,64.22,0,0,1,62.69,430,1.28,1.28,0,0,0,61,431.07l0,.51a1,1,0,0,0,.64,1.05c14.94,5.94,29.88,2.34,33.87,1.3,3.27-.86,16.94-.06,22,.27a1.92,1.92,0,0,0,2-1.81l.19-3.14A1.7,1.7,0,0,0,118.1,427.45Z"/><polygon class="cls-7" points="79.98 227.97 69.88 244.58 77.05 245.36 86.83 227.97 79.98 227.97"/><path class="cls-8" d="M95.61,225.72,95,251.6s-66.94,2.53-70.41-5.67c-2.65-6.29-.64-18.32-.64-18.32Z"/><path class="cls-8" d="M56.5,394.88C47,299.82,52.64,258,52.89,249.33L22.15,238.85c-.34,6.19-2.61,67.72,12.57,156.21a3,3,0,0,0,3,2.51H54.08A2.44,2.44,0,0,0,56.5,394.88Z"/><path class="cls-8" d="M112.28,394.88a2.63,2.63,0,0,0,2.42-3.29c-8.1-30.7-16.4-56.94-19.09-80.6-5-44.21,4.29-75-.48-74.73l-29.48,4.28c-1.15,3.89-8,64.47,28.78,152.74a3.61,3.61,0,0,0,3.47,2.21Z"/><path class="cls-2" d="M87.44,116.44V99.17c-14-4.14-33.12-4.1-46.67,1.57v15.7Z"/><path class="cls-9" d="M87.37,106.51c-1.91-.73-3.88-1.58-5.88-2.36-4.18,3.17-11.35,4.07-19,4.2-10,.16-14.55-2-16.32-9.68-3.32.57-11.78,3.26-16.47,6.27V240.17a138.08,138.08,0,0,0,31.62,3.16,131.82,131.82,0,0,0,31.46-3.88V108.72Q90.1,107.58,87.37,106.51Z"/><path class="cls-1" d="M57.4,112c-.42-2.1-6.74-8.16-8.07-14-6,0-18,4.88-21.65,8.46C19.84,114.17,19.75,133,19,160.3c-.8,29.32-.81,26.47-4.6,83a234.73,234.73,0,0,0,36.74,5C48.35,207.75,56.76,118.6,57.4,112Z"/><path class="cls-1" d="M88.84,99.32c-1.21-.35-6.79-1.81-8.09-2.15-1.16,6.91-4,5.53-12.22,14.67-.8,8-7.19,73.92-5.77,138a138.82,138.82,0,0,0,44.94-8.94c-2.69-31.54-1.8-89.47-1.72-117.11C106,121.14,106.46,103,88.84,99.32Z"/><path class="cls-10" d="M46.12,98.37h0s-3,13.7,0,19.66c0,0,.78-8.57,4.55-7.08,2.51,1,5,4.56,6.35,6.78.18-3,.32-5,.39-5.72-.41-2-6.34-7.79-7.92-13.43A18.23,18.23,0,0,0,46.12,98.37Z"/><path class="cls-11" d="M44.44,190.93c1.71-36.86,7.39-80.09,8.17-86l-.49-.75-2.37-.33c-.06.47-6.45,47.33-8.29,86.91-1.23,26.28-.83,46.23-.42,56.75l3,.29C43.62,237.5,43.2,217.47,44.44,190.93Z"/><path class="cls-11" d="M72.47,191.16c.09-41.35,5-85.5,5-85.94l-1.8-.2-1.29,1.08c-.78,7.39-4.84,47.37-4.92,85.05-.06,27.29,1,47.48,1.81,58.18,1-.09,2-.19,3-.31C73.5,238.37,72.41,218.3,72.47,191.16Z"/><path class="cls-10" d="M78.32,111c3.76-1.49,4.54,7.08,4.54,7.08,3-6,0-19.66,0-19.66h0a17.22,17.22,0,0,0-2.36.09c-1.31,5.48-4.27,4.85-12,13.38-.09.92-.51,3.85-.7,7.36C70.37,116.56,76.2,111.79,78.32,111Z"/><polygon class="cls-11" points="23.15 128.69 24.66 125.55 48.64 121.38 49.12 124.32 23.15 128.69"/><path class="cls-11" d="M57.4,112s-8-10-10-3.27c-1.37,4.57-2,7.3-2,7.3s-3.73-11.56.37-17.16,7.2-6.74,7.2-6.74a30.36,30.36,0,0,0,2.11,12.24A38,38,0,0,1,57.4,112Z"/><ellipse class="cls-12" cx="49.87" cy="163.69" rx="2" ry="1.77"/><path class="cls-12" d="M49.63,190.51a2,2,0,1,1-2-1.77A1.9,1.9,0,0,1,49.63,190.51Z"/><ellipse class="cls-12" cx="46.89" cy="211.37" rx="2" ry="1.77"/><ellipse class="cls-12" cx="46.89" cy="232.97" rx="2" ry="1.77"/><ellipse class="cls-12" cx="53.59" cy="120.48" rx="2" ry="1.77"/><ellipse class="cls-12" cx="51.1" cy="144.48" rx="1.98" ry="1.77"/><rect class="cls-11" x="84.99" y="112.43" width="2.98" height="24.62" transform="translate(-53.17 184.21) rotate(-78.33)"/><path class="cls-11" d="M68.5,112.13S79.61,102,81.62,108.74c1.37,4.57,2,7.3,2,7.3s3.72-11.56-.37-17.16-6.67-5.79-6.67-5.79.21,2.4-2.27,8C72.66,104.77,69.08,107.42,68.5,112.13Z"/><path class="cls-13" d="M55.05,104.38a30.36,30.36,0,0,1-2.11-12.24,9.38,9.38,0,0,0-2.08,1.29c-3,2.83-2.49,8.55-1.17,13C52.8,106.3,57.4,112,57.4,112A38,38,0,0,0,55.05,104.38Z"/><path class="cls-13" d="M78.89,106.44c.74-4.67.78-9.38-2.26-13.34h-.06s.21,2.4-2.27,8c-1.64,3.69-5.22,6.34-5.8,11C68.5,112.13,74.93,106.27,78.89,106.44Z"/><path class="cls-11" d="M24.27,145.24,23,162.82a4.64,4.64,0,0,0,2.21,4.3l4.27,2.61a3.68,3.68,0,0,0,3.86,0l5.55-3.53a4.49,4.49,0,0,0,2.07-3.45l1.33-17.48Z"/><path class="cls-11" d="M77.4,147.24v17.35a5.11,5.11,0,0,0,2.16,4.17l3.63,2.57a5.3,5.3,0,0,0,6.41-.23l5.34-4.35a6.42,6.42,0,0,0,2.35-5.19l-.48-14.32Z"/><ellipse class="cls-14" cx="41.84" cy="56.05" rx="5.66" ry="8.28" transform="matrix(0.99, -0.16, 0.16, 0.99, -8.47, 7.46)"/><path class="cls-15" d="M62.4,10.89v0Z"/><path class="cls-16" d="M93.75,27.85c-.53-10.42-28.88-18.48-39-5.37-3.44,6.22-9.21,17.9-12,29.83,0-.13,0-.21,0-.21S31.34,83.38,59.73,88.57,93,79,93.87,60.09h0C95.08,49.52,95,36,93.75,27.85Z"/><g class="cls-17"><path class="cls-16" d="M53.5,48.28c-5.68-.71-10.9,3.72-11.68,9.9S45,69.94,50.69,70.65s10.9-3.72,11.67-9.89S59.17,49,53.5,48.28Z"/><path class="cls-18" d="M53.49,48.35c-5.64-.71-10.83,3.7-11.6,9.84s3.17,11.69,8.81,12.39,10.83-3.69,11.6-9.83S59.12,49.06,53.49,48.35Z"/><ellipse class="cls-19" cx="52.09" cy="59.47" rx="11.13" ry="10.22" transform="translate(-13.4 103.75) rotate(-82.85)"/><ellipse class="cls-20" cx="52.09" cy="59.47" rx="11.06" ry="10.16" transform="translate(-13.4 103.75) rotate(-82.85)"/><ellipse class="cls-21" cx="52.09" cy="59.47" rx="10.99" ry="10.09" transform="translate(-13.4 103.75) rotate(-82.85)"/><ellipse class="cls-22" cx="52.09" cy="59.47" rx="10.92" ry="10.03" transform="translate(-13.4 103.75) rotate(-82.85)"/><path class="cls-23" d="M53.44,48.7C48,48,43,52.28,42.21,58.23s3.07,11.32,8.53,12S61.23,66.65,62,60.71,58.9,49.39,53.44,48.7Z"/><path class="cls-24" d="M53.43,48.77C48,48.09,43,52.33,42.27,58.24s3.06,11.24,8.48,11.92,10.42-3.55,11.16-9.46S58.86,49.45,53.43,48.77Z"/><path class="cls-25" d="M53.43,48.84c-5.39-.67-10.36,3.54-11.09,9.4s3,11.18,8.42,11.85,10.35-3.53,11.09-9.4S58.81,49.52,53.43,48.84Z"/><path class="cls-26" d="M53.42,48.91c-5.36-.67-10.29,3.51-11,9.34s3,11.1,8.37,11.77,10.28-3.51,11-9.34S58.77,49.58,53.42,48.91Z"/><path class="cls-27" d="M53.41,49c-5.32-.67-10.22,3.49-10.95,9.28s3,11,8.32,11.69S61,66.47,61.72,60.68,58.73,49.65,53.41,49Z"/><path class="cls-28" d="M53.4,49.05c-5.28-.66-10.15,3.47-10.87,9.22s3,10.95,8.26,11.62,10.14-3.47,10.87-9.22S58.68,49.71,53.4,49.05Z"/><path class="cls-29" d="M53.39,49.12c-5.25-.66-10.08,3.44-10.8,9.16s3,10.88,8.2,11.54,10.08-3.45,10.8-9.16S58.64,49.78,53.39,49.12Z"/><ellipse class="cls-30" cx="52.09" cy="59.47" rx="10.36" ry="9.51" transform="translate(-13.4 103.75) rotate(-82.85)"/><path class="cls-31" d="M53.37,49.26c-5.17-.65-9.94,3.39-10.65,9S45.64,69,50.81,69.68s9.95-3.4,10.65-9S58.55,49.91,53.37,49.26Z"/><ellipse class="cls-32" cx="52.09" cy="59.47" rx="10.22" ry="9.38" transform="translate(-13.4 103.75) rotate(-82.85)"/><path class="cls-33" d="M53.36,49.4c-5.11-.64-9.81,3.35-10.51,8.91s2.87,10.59,8,11.23,9.81-3.35,10.5-8.91S58.46,50,53.36,49.4Z"/><path class="cls-34" d="M53.35,49.47c-5.07-.64-9.74,3.33-10.44,8.85s2.86,10.51,7.93,11.15,9.74-3.33,10.43-8.85S58.42,50.11,53.35,49.47Z"/><path class="cls-35" d="M53.34,49.54c-5-.63-9.67,3.3-10.36,8.78s2.83,10.44,7.87,11.08,9.67-3.31,10.36-8.79S58.37,50.17,53.34,49.54Z"/><path class="cls-36" d="M53.33,49.61c-5-.63-9.61,3.28-10.29,8.72s2.82,10.37,7.82,11,9.6-3.28,10.28-8.73S58.33,50.24,53.33,49.61Z"/><ellipse class="cls-37" cx="52.09" cy="59.47" rx="9.86" ry="9.06" transform="translate(-13.4 103.75) rotate(-82.85)"/><ellipse class="cls-38" cx="52.09" cy="59.47" rx="9.79" ry="8.99" transform="translate(-13.4 103.75) rotate(-82.85)"/><ellipse class="cls-39" cx="52.09" cy="59.47" rx="9.72" ry="8.93" transform="translate(-13.4 103.75) rotate(-82.85)"/><ellipse class="cls-40" cx="52.09" cy="59.47" rx="9.65" ry="8.86" transform="translate(-13.4 103.75) rotate(-82.85)"/><path class="cls-41" d="M53.28,50c-4.82-.61-9.26,3.16-9.92,8.41s2.72,10,7.54,10.61,9.26-3.17,9.92-8.42S58.11,50.56,53.28,50Z"/><path class="cls-42" d="M53.28,50c-4.79-.6-9.2,3.14-9.85,8.35s2.69,9.93,7.48,10.53,9.19-3.14,9.85-8.35S58.06,50.63,53.28,50Z"/><ellipse class="cls-43" cx="52.09" cy="59.47" rx="9.44" ry="8.67" transform="translate(-13.4 103.75) rotate(-82.85)"/><path class="cls-44" d="M53.26,50.17c-4.72-.59-9.06,3.09-9.7,8.23s2.65,9.78,7.37,10.37,9-3.1,9.7-8.23S58,50.76,53.26,50.17Z"/><path class="cls-45" d="M53.25,50.24c-4.68-.59-9,3.07-9.63,8.17s2.64,9.7,7.31,10.29,9-3.07,9.63-8.17S57.93,50.83,53.25,50.24Z"/><path class="cls-46" d="M53.24,50.31c-4.64-.58-8.92,3-9.56,8.1S46.3,68,50.94,68.63s8.93-3,9.56-8.11S57.88,50.89,53.24,50.31Z"/><path class="cls-47" d="M53.23,50.38c-4.61-.58-8.85,3-9.48,8S46.34,68,51,68.56s8.86-3,9.49-8.05S57.84,51,53.23,50.38Z"/><path class="cls-48" d="M53.22,50.45c-4.57-.57-8.78,3-9.41,8S46.39,67.91,51,68.49s8.79-3,9.41-8S57.8,51,53.22,50.45Z"/><ellipse class="cls-49" cx="52.09" cy="59.47" rx="9.02" ry="8.28" transform="translate(-13.4 103.75) rotate(-82.85)"/><ellipse class="cls-50" cx="52.09" cy="59.47" rx="8.95" ry="8.22" transform="translate(-13.4 103.75) rotate(-82.85)"/><ellipse class="cls-51" cx="52.09" cy="59.47" rx="8.88" ry="8.15" transform="translate(-13.4 103.75) rotate(-82.85)"/><ellipse class="cls-52" cx="52.09" cy="59.47" rx="8.81" ry="8.09" transform="translate(-13.4 103.75) rotate(-82.85)"/><ellipse class="cls-53" cx="52.09" cy="59.47" rx="8.74" ry="8.02" transform="translate(-13.4 103.75) rotate(-82.85)"/><path class="cls-54" d="M53.17,50.87c-4.36-.55-8.38,2.86-9,7.61s2.45,9,6.81,9.59,8.38-2.86,9-7.61S57.53,51.42,53.17,50.87Z"/><path class="cls-55" d="M53.16,50.94c-4.32-.54-8.31,2.83-8.9,7.55S46.7,67.45,51,68s8.31-2.84,8.9-7.55S57.49,51.48,53.16,50.94Z"/><ellipse class="cls-56" cx="52.09" cy="59.47" rx="8.53" ry="7.83" transform="translate(-13.4 103.75) rotate(-82.85)"/><path class="cls-57" d="M53.14,51.08c-4.25-.54-8.17,2.79-8.75,7.42s2.4,8.82,6.65,9.36,8.17-2.79,8.75-7.43S57.4,51.61,53.14,51.08Z"/><path class="cls-58" d="M53.14,51.15c-4.22-.53-8.11,2.76-8.69,7.36s2.38,8.75,6.6,9.28,8.1-2.77,8.68-7.36S57.35,51.68,53.14,51.15Z"/><path class="cls-59" d="M53.13,51.22c-4.19-.53-8,2.74-8.61,7.3s2.35,8.67,6.54,9.2,8-2.75,8.61-7.3S57.31,51.74,53.13,51.22Z"/><ellipse class="cls-60" cx="52.09" cy="59.47" rx="8.24" ry="7.57" transform="translate(-13.4 103.75) rotate(-82.85)"/><ellipse class="cls-61" cx="52.09" cy="59.47" rx="8.17" ry="7.5" transform="translate(-13.4 103.75) rotate(-82.85)"/><ellipse class="cls-62" cx="52.09" cy="59.47" rx="8.1" ry="7.44" transform="translate(-13.4 103.75) rotate(-82.85)"/><path class="cls-63" d="M53.09,51.5c-4-.51-7.76,2.65-8.32,7s2.28,8.38,6.32,8.89,7.77-2.65,8.32-7S57.13,52,53.09,51.5Z"/><path class="cls-64" d="M53.08,51.57c-4-.5-7.69,2.62-8.24,7s2.26,8.31,6.26,8.81,7.7-2.63,8.25-7S57.09,52.07,53.08,51.57Z"/><path class="cls-65" d="M53.07,51.64c-4-.5-7.62,2.6-8.17,6.93s2.24,8.23,6.21,8.73,7.63-2.61,8.17-6.93S57,52.14,53.07,51.64Z"/><path class="cls-66" d="M53.07,51.71c-3.94-.5-7.56,2.58-8.1,6.86s2.21,8.16,6.15,8.66,7.56-2.58,8.1-6.87S57,52.2,53.07,51.71Z"/><path class="cls-67" d="M53.06,51.78c-3.9-.49-7.5,2.55-8,6.8s2.2,8.09,6.1,8.58,7.49-2.56,8-6.81S57,52.27,53.06,51.78Z"/><ellipse class="cls-68" cx="52.09" cy="59.47" rx="7.68" ry="7.05" transform="translate(-13.4 103.75) rotate(-82.85)"/><path class="cls-69" d="M53,51.92c-3.83-.48-7.36,2.51-7.88,6.68s2.16,7.94,6,8.42S58.5,64.51,59,60.34,56.87,52.4,53,51.92Z"/><ellipse class="cls-70" cx="52.09" cy="59.47" rx="7.54" ry="6.92" transform="translate(-13.4 103.75) rotate(-82.85)"/><ellipse class="cls-71" cx="52.09" cy="59.47" rx="7.47" ry="6.86" transform="translate(-13.4 103.75) rotate(-82.85)"/><path class="cls-72" d="M53,52.13c-3.72-.47-7.15,2.44-7.66,6.49s2.1,7.72,5.82,8.19,7.15-2.44,7.66-6.5S56.74,52.59,53,52.13Z"/><path class="cls-73" d="M53,52.2c-3.68-.47-7.08,2.41-7.58,6.43s2.07,7.65,5.76,8.11,7.08-2.42,7.59-6.43S56.69,52.66,53,52.2Z"/><path class="cls-74" d="M53,52.27c-3.66-.46-7,2.39-7.52,6.37s2.06,7.57,5.71,8,7-2.4,7.51-6.37S56.65,52.73,53,52.27Z"/><path class="cls-75" d="M53,52.34c-3.62-.46-7,2.37-7.44,6.31s2,7.5,5.65,7.95,6.94-2.37,7.44-6.31S56.6,52.79,53,52.34Z"/><path class="cls-76" d="M53,52.41a6.84,6.84,0,0,0-7.37,6.24c-.49,3.9,2,7.43,5.6,7.88s6.88-2.35,7.36-6.25S56.56,52.86,53,52.41Z"/><path class="cls-77" d="M53,52.48c-3.55-.45-6.81,2.32-7.3,6.18s2,7.35,5.54,7.8a7.07,7.07,0,0,0,1.76-14Z"/><path class="cls-78" d="M53,52.55a6.7,6.7,0,0,0-7.22,6.12c-.48,3.82,2,7.28,5.48,7.72A7,7,0,0,0,53,52.55Z"/><path class="cls-79" d="M53,52.62a6.93,6.93,0,0,0-1.72,13.7A6.93,6.93,0,0,0,53,52.62Z"/><path class="cls-80" d="M52.94,52.69a6.86,6.86,0,0,0-1.7,13.56,6.86,6.86,0,0,0,1.7-13.56Z"/><path class="cls-81" d="M52.93,52.76a6.79,6.79,0,0,0-1.68,13.42,6.79,6.79,0,0,0,1.68-13.42Z"/><path class="cls-82" d="M52.93,52.83a6.72,6.72,0,0,0-1.67,13.28,6.72,6.72,0,0,0,1.67-13.28Z"/><path class="cls-83" d="M52.92,52.9A6.65,6.65,0,0,0,51.27,66,6.65,6.65,0,0,0,52.92,52.9Z"/><path class="cls-84" d="M52.91,53a6.57,6.57,0,0,0-1.63,13,6.58,6.58,0,0,0,1.63-13Z"/><path class="cls-85" d="M52.9,53A6.5,6.5,0,0,0,51.29,65.9,6.5,6.5,0,0,0,52.9,53Z"/><path class="cls-86" d="M52.89,53.11a6.43,6.43,0,0,0-1.6,12.72,6.43,6.43,0,0,0,1.6-12.72Z"/><path class="cls-87" d="M52.88,53.18A6.36,6.36,0,0,0,51.3,65.76a6.36,6.36,0,0,0,1.58-12.58Z"/><path class="cls-88" d="M52.87,53.25a6.29,6.29,0,0,0-1.56,12.44,6.29,6.29,0,0,0,1.56-12.44Z"/><path class="cls-89" d="M52.86,53.32a6.22,6.22,0,0,0-1.54,12.3,6.22,6.22,0,0,0,1.54-12.3Z"/><path class="cls-90" d="M52.86,53.39a6.15,6.15,0,0,0-1.53,12.16,6.15,6.15,0,0,0,1.53-12.16Z"/><path class="cls-91" d="M52.85,53.46a6.08,6.08,0,0,0-1.51,12,6.08,6.08,0,0,0,1.51-12Z"/><path class="cls-92" d="M52.84,53.53a6,6,0,0,0-1.49,11.88,6,6,0,0,0,1.49-11.88Z"/><path class="cls-93" d="M52.83,53.6a5.94,5.94,0,0,0-1.47,11.74A5.94,5.94,0,0,0,52.83,53.6Z"/><path class="cls-94" d="M52.82,53.67a5.87,5.87,0,0,0-1.46,11.6,5.87,5.87,0,0,0,1.46-11.6Z"/><path class="cls-95" d="M52.81,53.74A5.8,5.8,0,0,0,51.37,65.2a5.8,5.8,0,0,0,1.44-11.46Z"/><path class="cls-96" d="M52.8,53.81a5.72,5.72,0,0,0-1.42,11.32A5.72,5.72,0,0,0,52.8,53.81Z"/><path class="cls-97" d="M52.79,53.87a5.66,5.66,0,0,0-1.4,11.19,5.66,5.66,0,0,0,1.4-11.19Z"/></g><g class="cls-17"><circle class="cls-16" cx="79.88" cy="62.95" r="11.27" transform="translate(5.99 132.84) rotate(-81.65)"/><path class="cls-18" d="M81.28,51.84A11.2,11.2,0,1,0,91,64.35,11.21,11.21,0,0,0,81.28,51.84Z"/><circle class="cls-19" cx="79.88" cy="62.95" r="11.13" transform="translate(-16.52 95.39) rotate(-56.84)"/><circle class="cls-20" cx="79.88" cy="62.95" r="11.06" transform="translate(-20.53 46.75) rotate(-29.07)"/><path class="cls-21" d="M81.25,52.05a11,11,0,1,0,9.54,12.27A11,11,0,0,0,81.25,52.05Z"/><path class="cls-22" d="M81.24,52.12a10.92,10.92,0,1,0,9.48,12.19A10.93,10.93,0,0,0,81.24,52.12Z"/><circle class="cls-23" cx="79.88" cy="62.95" r="10.85" transform="translate(-4.8 119.28) rotate(-71.87)"/><circle class="cls-24" cx="79.88" cy="62.95" r="10.78" transform="translate(-21.82 61.62) rotate(-37.49)"/><path class="cls-25" d="M81.21,52.33a10.71,10.71,0,1,0,9.3,12A10.71,10.71,0,0,0,81.21,52.33Z"/><path class="cls-26" d="M81.2,52.4a10.64,10.64,0,1,0,9.24,11.88A10.64,10.64,0,0,0,81.2,52.4Z"/><circle class="cls-27" cx="79.88" cy="62.95" r="10.57" transform="translate(-20.17 44.66) rotate(-27.88)"/><circle class="cls-28" cx="79.88" cy="62.95" r="10.5" transform="translate(-6.6 9.42) rotate(-6.48)"/><circle class="cls-29" cx="79.88" cy="62.95" r="10.43" transform="translate(-3.8 5.14) rotate(-3.6)"/><path class="cls-30" d="M81.17,52.68a10.36,10.36,0,1,0,9,11.56A10.36,10.36,0,0,0,81.17,52.68Z"/><path class="cls-31" d="M81.16,52.75a10.28,10.28,0,1,0,8.93,11.48A10.29,10.29,0,0,0,81.16,52.75Z"/><path class="cls-32" d="M81.15,52.82A10.21,10.21,0,1,0,90,64.23,10.21,10.21,0,0,0,81.15,52.82Z"/><path class="cls-33" d="M81.14,52.89A10.14,10.14,0,1,0,90,64.22,10.14,10.14,0,0,0,81.14,52.89Z"/><circle class="cls-34" cx="79.88" cy="62.95" r="10.08" transform="translate(-17.95 35.15) rotate(-22.38)"/><circle class="cls-35" cx="79.88" cy="62.95" r="10.01" transform="translate(9.66 136.52) rotate(-84.57)"/><circle class="cls-36" cx="79.88" cy="62.95" r="9.94" transform="translate(-21.73 58.66) rotate(-35.82)"/><path class="cls-37" d="M81.11,53.17a9.86,9.86,0,1,0,8.56,11A9.86,9.86,0,0,0,81.11,53.17Z"/><path class="cls-38" d="M81.1,53.24a9.79,9.79,0,1,0,8.5,10.93A9.79,9.79,0,0,0,81.1,53.24Z"/><circle class="cls-39" cx="79.88" cy="62.95" r="9.72" transform="matrix(0.83, -0.56, 0.56, 0.83, -21.53, 55.15)"/><path class="cls-40" d="M81.08,53.38a9.65,9.65,0,1,0,8.38,10.78A9.65,9.65,0,0,0,81.08,53.38Z"/><circle class="cls-41" cx="79.88" cy="62.95" r="9.58" transform="translate(-10.4 16.12) rotate(-10.83)"/><path class="cls-42" d="M81.06,53.52a9.51,9.51,0,1,0,8.26,10.62A9.51,9.51,0,0,0,81.06,53.52Z"/><circle class="cls-43" cx="79.88" cy="62.95" r="9.44"/><circle class="cls-44" cx="79.88" cy="62.95" r="9.37" transform="translate(-20.36 45.76) rotate(-28.51)"/><circle class="cls-45" cx="79.88" cy="62.95" r="9.3" transform="translate(-21.83 62.96) rotate(-38.24)"/><path class="cls-46" d="M81,53.8a9.23,9.23,0,1,0,8,10.3A9.23,9.23,0,0,0,81,53.8Z"/><circle class="cls-47" cx="79.88" cy="62.95" r="9.16" transform="translate(8.86 135.76) rotate(-83.95)"/><path class="cls-48" d="M81,53.94A9.09,9.09,0,1,0,88.9,64.09,9.08,9.08,0,0,0,81,53.94Z"/><path class="cls-49" d="M81,54a9,9,0,1,0,7.83,10.07A9,9,0,0,0,81,54Z"/><circle class="cls-50" cx="79.88" cy="62.95" r="8.95" transform="translate(-21.81 61.46) rotate(-37.4)"/><circle class="cls-51" cx="79.88" cy="62.95" r="8.88" transform="translate(-18.87 38.63) rotate(-24.41)"/><path class="cls-52" d="M81,54.21a8.81,8.81,0,1,0,7.64,9.84A8.82,8.82,0,0,0,81,54.21Z"/><path class="cls-53" d="M81,54.28A8.74,8.74,0,1,0,88.55,64,8.74,8.74,0,0,0,81,54.28Z"/><circle class="cls-54" cx="79.88" cy="62.95" r="8.67" transform="translate(-4.68 6.44) rotate(-4.49)"/><path class="cls-55" d="M81,54.42A8.6,8.6,0,1,0,88.41,64,8.6,8.6,0,0,0,81,54.42Z"/><path class="cls-56" d="M80.94,54.49A8.53,8.53,0,1,0,88.34,64,8.54,8.54,0,0,0,80.94,54.49Z"/><path class="cls-57" d="M80.93,54.56A8.46,8.46,0,1,0,88.27,64,8.46,8.46,0,0,0,80.93,54.56Z"/><circle class="cls-58" cx="79.88" cy="62.95" r="8.38" transform="translate(-11.72 18.75) rotate(-12.48)"/><path class="cls-59" d="M80.92,54.7A8.31,8.31,0,1,0,88.13,64,8.32,8.32,0,0,0,80.92,54.7Z"/><path class="cls-60" d="M80.91,54.77A8.24,8.24,0,1,0,88.06,64,8.26,8.26,0,0,0,80.91,54.77Z"/><path class="cls-61" d="M80.9,54.84A8.17,8.17,0,1,0,88,64,8.18,8.18,0,0,0,80.9,54.84Z"/><circle class="cls-62" cx="79.88" cy="62.95" r="8.1" transform="translate(-21.76 59.36) rotate(-36.22)"/><path class="cls-63" d="M80.88,55a8,8,0,1,0,7,9A8,8,0,0,0,80.88,55Z"/><path class="cls-64" d="M80.87,55.05A8,8,0,1,0,87.78,64,8,8,0,0,0,80.87,55.05Z"/><path class="cls-65" d="M80.86,55.12a7.89,7.89,0,1,0,6.85,8.82A7.9,7.9,0,0,0,80.86,55.12Z"/><path class="cls-66" d="M80.85,55.19a7.82,7.82,0,1,0,6.79,8.74A7.83,7.83,0,0,0,80.85,55.19Z"/><path class="cls-67" d="M80.85,55.26a7.75,7.75,0,1,0,6.72,8.66A7.76,7.76,0,0,0,80.85,55.26Z"/><circle class="cls-68" cx="79.88" cy="62.95" r="7.68" transform="translate(-15.68 97.77) rotate(-58.26)"/><circle class="cls-69" cx="79.88" cy="62.95" r="7.61"/><path class="cls-70" d="M80.82,55.47a7.54,7.54,0,1,0,6.54,8.42A7.55,7.55,0,0,0,80.82,55.47Z"/><path class="cls-71" d="M80.81,55.54a7.47,7.47,0,1,0,6.48,8.34A7.47,7.47,0,0,0,80.81,55.54Z"/><path class="cls-72" d="M80.8,55.61a7.4,7.4,0,1,0,6.42,8.27A7.4,7.4,0,0,0,80.8,55.61Z"/><path class="cls-73" d="M80.79,55.68a7.33,7.33,0,1,0,6.36,8.19A7.33,7.33,0,0,0,80.79,55.68Z"/><path class="cls-74" d="M80.78,55.75a7.26,7.26,0,1,0,6.3,8.11A7.26,7.26,0,0,0,80.78,55.75Z"/><path class="cls-75" d="M80.78,55.82a7.19,7.19,0,1,0,6.23,8A7.19,7.19,0,0,0,80.78,55.82Z"/><path class="cls-76" d="M80.77,55.89a7.12,7.12,0,1,0,6.17,8A7.12,7.12,0,0,0,80.77,55.89Z"/><circle class="cls-77" cx="79.88" cy="62.95" r="7.05" transform="translate(-17.85 34.8) rotate(-22.17)"/><path class="cls-78" d="M80.75,56a7,7,0,1,0,6,7.79A7,7,0,0,0,80.75,56Z"/><path class="cls-79" d="M80.74,56.1a6.91,6.91,0,1,0,6,7.71A6.91,6.91,0,0,0,80.74,56.1Z"/><path class="cls-80" d="M80.73,56.17a6.84,6.84,0,1,0,5.93,7.63A6.84,6.84,0,0,0,80.73,56.17Z"/><path class="cls-81" d="M80.72,56.24a6.77,6.77,0,1,0,5.87,7.56A6.77,6.77,0,0,0,80.72,56.24Z"/><path class="cls-82" d="M80.71,56.31a6.7,6.7,0,1,0,5.81,7.48A6.69,6.69,0,0,0,80.71,56.31Z"/><path class="cls-83" d="M80.71,56.38a6.63,6.63,0,1,0,5.74,7.4A6.63,6.63,0,0,0,80.71,56.38Z"/><path class="cls-84" d="M80.7,56.45a6.56,6.56,0,1,0,5.68,7.32A6.56,6.56,0,0,0,80.7,56.45Z"/><path class="cls-85" d="M80.69,56.52a6.49,6.49,0,1,0,5.62,7.24A6.48,6.48,0,0,0,80.69,56.52Z"/><path class="cls-86" d="M80.68,56.59a6.42,6.42,0,1,0,5.56,7.16A6.41,6.41,0,0,0,80.68,56.59Z"/><path class="cls-87" d="M80.67,56.66a6.34,6.34,0,1,0,5.5,7.08A6.34,6.34,0,0,0,80.67,56.66Z"/><path class="cls-88" d="M80.66,56.73a6.27,6.27,0,1,0,5.44,7A6.27,6.27,0,0,0,80.66,56.73Z"/><path class="cls-89" d="M80.65,56.8A6.2,6.2,0,1,0,86,63.73,6.19,6.19,0,0,0,80.65,56.8Z"/><path class="cls-90" d="M80.64,56.87A6.13,6.13,0,1,0,86,63.72,6.12,6.12,0,0,0,80.64,56.87Z"/><path class="cls-91" d="M80.63,56.94a6.06,6.06,0,1,0,5.26,6.77A6,6,0,0,0,80.63,56.94Z"/><path class="cls-92" d="M80.63,57a6,6,0,1,0,5.19,6.69A6,6,0,0,0,80.63,57Z"/><path class="cls-93" d="M80.62,57.08a5.92,5.92,0,1,0,5.13,6.61A5.91,5.91,0,0,0,80.62,57.08Z"/><path class="cls-94" d="M80.61,57.15a5.85,5.85,0,1,0,5.07,6.53A5.85,5.85,0,0,0,80.61,57.15Z"/><circle class="cls-95" cx="79.88" cy="62.95" r="5.78"/><path class="cls-96" d="M80.59,57.29a5.71,5.71,0,1,0,5,6.37A5.71,5.71,0,0,0,80.59,57.29Z"/><path class="cls-97" d="M80.58,57.36a5.64,5.64,0,1,0,4.89,6.3A5.63,5.63,0,0,0,80.58,57.36Z"/></g><g class="cls-98"><path d="M105.84,149.19c-.73-1.05-1.43-2-2.11-3v10.84H82.8c.1.39.2.78.31,1.17-5.16.33-11.31,1-18.66,2.08-14.69,2.2-25.14,2.77-33,3.59a17,17,0,0,0-2.19-.73c.87-1.88,1.77-3.93,2.7-6.11H19.09c0,1.07-.06,2.14-.09,3.23-.43,15.75-.63,22.22-1.31,33.61A26.62,26.62,0,0,0,37,187.15c16.12-5,33.78-16.24,48.91-19.62.6,1.68,1.23,3.31,1.92,4.88-2.11,12.46,9.16,18,18,18.24C105.73,176.41,105.77,162,105.84,149.19Z"/></g><path class="cls-16" d="M100.59,55.6c-2.8-1.38-6.63.87-8.55,5s-1.19,8.63,1.62,10,6.63-.87,8.55-5S103.4,57,100.59,55.6Z"/><path class="cls-14" d="M99.77,65.81a6.67,6.67,0,0,1-8-1.46,29.1,29.1,0,0,1-7.9,16.85c-4.81,5.17-14,6-20.73,5C47.23,83.81,43.57,78.44,41,71.47c1.44,7.5,6.22,14.82,18.7,17.1C82.86,92.8,90.38,83.8,92.84,70.08a4.2,4.2,0,0,0,.82.55c2.81,1.38,6.63-.87,8.55-5a11.75,11.75,0,0,0,1-3.21A7.34,7.34,0,0,1,99.77,65.81Z"/><polygon class="cls-99" points="68.4 135.41 68.4 135.41 68.4 135.41 68.4 135.41"/><path class="cls-14" d="M94.88,62.88l2.63.68a6,6,0,0,1,3.74-5.27C96.37,55.88,94.88,62.88,94.88,62.88Z"/><path class="cls-100" d="M95.86,56l-2.72-.84a25.71,25.71,0,0,1-1.6,6.17,10.34,10.34,0,0,1-6.62,6.2c-3.82,1.15-7.27-.5-10.62-2.23l-.79-.4a24.55,24.55,0,0,0-6.13-1.74,38.68,38.68,0,0,0-9-.86c-3.24.19-6.9,1.66-10.05.37a8,8,0,0,1-4.87-5.29A21.08,21.08,0,0,1,43,52.27a7.17,7.17,0,0,1,.13-2.12C38,64.31,33.32,87.35,64,90.28S93.1,70.39,93.1,70.39C92.21,65.06,95.86,56,95.86,56ZM69.75,74.6h0A4,4,0,0,1,65,76,31.16,31.16,0,0,0,54.8,74a4,4,0,0,1,.33-8A39,39,0,0,1,68,68.64,4,4,0,0,1,69.75,74.6Z"/><path class="cls-101" d="M82.48,50.67c-5.9-1.13-8.69,4.26-8.69,4.26s1.4,3,7.64,3.83c7.23.91,6.83-1.76,6.83-1.76S88.38,51.8,82.48,50.67Z"/><path class="cls-101" d="M47.7,50.36S47.15,52,53,53.11c6.28,1.18,6.76.79,6.76.79S55,41.63,47.7,50.36Z"/><path class="cls-102" d="M49.73,42.53l-.38,2.22a16.78,16.78,0,0,1,14.29,1.49l1.8-4.17C55.54,37.77,49.73,42.53,49.73,42.53Z"/><path class="cls-102" d="M75.57,33.53l-1.74,4.7S84.71,41.73,88,44.86l1.09-2S85.67,36.24,75.57,33.53Z"/><path class="cls-103" d="M76.48,68.83v0Z"/><path class="cls-16" d="M63.09,57.31s-3.86-3.54-6,1.65,8.22,9.61,11.8,4.34-2.88-16.61-2.88-16.61S66.82,53.31,63.09,57.31Z"/><path class="cls-104" d="M65.73,51.91a11,11,0,0,1-2.64,5.4s-3.76-3.35-5.81,1.3a38.75,38.75,0,0,0,6.56,1.78A26.83,26.83,0,0,0,66.61,52C66.32,52,66,51.92,65.73,51.91Z"/><path class="cls-100" d="M75.2,11.22C45.34,9.88,46,43.22,46,43.22c2.85-9.58,10.31-21,15-20.73a18,18,0,0,0,9.74,4.57c5.42.71,13.39-2.4,13.39-2.4,5.43.48,9.76,17.93,9,31.53C92.91,59.3,96,56,96,56S104.46,12.53,75.2,11.22Z"/><path class="cls-100" d="M90.41,15.51C83.14,1.15,54.14,1.85,54.14,1.85c-4.46,14.87,5.77,19.48,5.77,19.48s25.22-1.65,28.67,1.4S97,47.83,97,47.83s8.8-21.45,5-30.11C99.25,11.35,90.41,15.51,90.41,15.51Z"/><path class="cls-100" d="M65.54,0a8.34,8.34,0,0,0,1.38,4.26S94.6,27.94,90.41,15.51,65.54,0,65.54,0Z"/><path class="cls-100" d="M95.72,12c-1.72.07-2.2.82-2.2.82,1.46-2.08,1-5.19,1-5.19C91,9.13,91,11.79,91,11.79c-1.23-3.55-6.08-5.16-6.08-5.16-.15,2.81,2.51,6,2.66,6.1l2.14,4.21,5.43-.24-.26-2.44A3,3,0,0,0,95.72,12Z"/><path class="cls-102" d="M53.66,13.49c-9,1.68-10.35,36.66-10.35,36.66,2.85-9.57,13-27.94,17.68-27.66A31,31,0,0,1,53.66,13.49Z"/><path class="cls-13" d="M87.81,15Z"/><path class="cls-13" d="M87.81,15.24Z"/><path class="cls-105" d="M98.93,14.65c-1.09,0-2.24.19-3.43.32a24.19,24.19,0,0,1-8.61-.27c-3.25-.81-6-2.61-8.75-4.42-1.39-.91-2.78-1.84-4.24-2.66-3.1-1.77-6.8-3.57-10.42-3.85a15.21,15.21,0,0,0-5.31.7,11.13,11.13,0,0,0-4,2.05,10.63,10.63,0,0,0-1.13,1.06,18,18,0,0,0,.06,3.31l.39-.24a11.66,11.66,0,0,1,2.34-1,10,10,0,0,1,3-.42c4.33.15,8.11,2.31,11.8,4.34,1.51.83,3,1.77,4.66,2.67a54,54,0,0,0,5.1,2.57,19.15,19.15,0,0,0,10.07,1.49c.44-.08.88-.13,1.31-.21a28.92,28.92,0,0,0,4.51-1.34c1.31-.5,2.43-1,3.42-1.3a11.58,11.58,0,0,1,1.83-.5A5.35,5.35,0,0,0,98.93,14.65Z"/><path class="cls-13" d="M87.74,15h0Z"/><path class="cls-14" d="M56.85,60.45c.12,4.47,8.84,7.6,12.08,2.85a5.87,5.87,0,0,0,.49-.93A26.81,26.81,0,0,1,56.85,60.45Z"/><path class="cls-106" d="M55.05,53.47a5.47,5.47,0,0,0,1-1.39,5.2,5.2,0,0,0,.59-2.55l-.81-.19c-1.51-.28-2.32-1.13-3.25-1.13a15.23,15.23,0,0,0-1,1.72A5,5,0,0,0,51,52.65c.57.16,1.23.32,2,.46S54.45,53.37,55.05,53.47Z"/><path class="cls-107" d="M50.09,51.32h0a.6.6,0,0,0,.6.54c1,0,3.16-.19,3.07-1.46s-2.49-.14-3.38.37A.57.57,0,0,0,50.09,51.32Z"/><path class="cls-108" d="M82,53.06a12,12,0,0,0-2.94-.8,5.19,5.19,0,0,0-1.94,2.15,4.3,4.3,0,0,0-.55,3,12.93,12.93,0,0,0,3.16,1.1,4.21,4.21,0,0,0,1.87-1.89A4.46,4.46,0,0,0,82,53.06Z"/><path class="cls-107" d="M76.07,55.79,76,56.89s4-.24,3.92-1.92S76.07,55.79,76.07,55.79Z"/><path class="cls-15" d="M54.13,46.38a5.93,5.93,0,0,0-6.43,4s1.23-1.86,5.58-1.49,6.5,5,6.5,5S60.67,47.25,54.13,46.38Z"/><path class="cls-15" d="M82.28,50.35c-6.64-.9-8.49,4.58-8.49,4.58s2.35-2.71,8.19-1.65,6.25,3.93,6.25,3.93S88.93,51.24,82.28,50.35Z"/><path class="cls-109" d="M54.72,102.61c1.83,5,7.72,17.7,15.6,22.88,8.25,5.42-1.92,32.83-1.92,32.83l24-4.33L75.15,113.15Z"/><path class="cls-110" d="M106.57,178.66c-9.51,0-22.36-6.14-18.17-20.67,4.73-16.43,20.44-16.28,29.89-5.75S120.9,178.66,106.57,178.66Z"/><path class="cls-111" d="M76,81.25c.78,0,.19,2.46,1.5,4.8,1.16,2.08,4.38,5.07,5.2,6.92C85.1,98.26,85,108.19,85,108.19s-9.06-14.83-9.57-15.68a22,22,0,0,1-2-7.18C73.31,82.78,75.2,81.3,76,81.25Z"/><path class="cls-11" d="M24.47,163.67c-.74-46.29,6.27-59.78,9.09-63.31A46,46,0,0,0,28.94,102c-3.65,7.28-8.07,23.93-7.47,61.68Z"/><path class="cls-110" d="M20.45,153.94a24,24,0,0,0-15.14,9C1.8,167.66.81,176.5,8.4,181.66c13.86,9.42,34.17-3.18,33.29-12.64C41,161.14,33.93,151.62,20.45,153.94Z"/><path class="cls-11" d="M89.09,99.79c4,4,10.46,16.93,9.28,59.58l3,.08c1-36.28-3.44-52.35-8.16-59.41a46.89,46.89,0,0,0-5.48-1.33A6.05,6.05,0,0,1,89.09,99.79Z"/><path class="cls-112" d="M56.56,75.3s2.34-.16,6.86,1.56c0,0,.41,3.75-4.27,2.5S56.56,75.3,56.56,75.3Z"/><path class="cls-113" d="M8.41,165c9.89-12.51,20.69-8.38,56-13.68s43.25-.06,43.25-.06l1.2,9.58s-18.57-3.16-21.32-2.65C68.07,161.83,42.79,181,23.22,181.74,7.21,182.33,2.79,172.12,8.41,165Z"/><path class="cls-14" d="M107.7,151.26s-5.93-3.92-30.43-1.55c-1.66,6.56-6.93,12.67-13.11,17.17,8.13-3.74,16.1-7.32,23.42-8.69,2.75-.51,21.32,2.65,21.32,2.65Z"/><path class="cls-114" d="M64.12,73.26a31.37,31.37,0,0,0-7.94-1.53,1.49,1.49,0,0,1-1.39-1.46h0a1.49,1.49,0,0,1,1.58-1.54,34.63,34.63,0,0,1,8.71,1.68,1.52,1.52,0,0,1,.92,2h0A1.52,1.52,0,0,1,64.12,73.26Z"/><polygon class="cls-113" points="68.4 114.6 68.4 114.6 68.4 114.6 68.4 114.6"/><path class="cls-113" d="M99.73,128.08c-9-10.76-13.71-16.41-14.44-17.3-.6-5.4-1.93-14.93-4.71-17.31-1.21-1-4.18-2.37-7.18-3.69h0s-15.12-8.84-16.61-9.47c-2.14-.89-3.87,1-2.59,2.74s7.57,6.55,7.57,6.55-4.35-2.34-6.13-2.38a2,2,0,0,0-1.91,2.6c1.21,2.58,4.92,5.52,4.92,5.52s-1.32-1-2.64.65a2.8,2.8,0,0,0-.15,3.22,2.52,2.52,0,0,0-.77,4c2.18,3,8.65,7.93,11.72,10.19.52.4,1,.79,1.58,1.17,0,0,0,0,0,0a17.78,17.78,0,0,0,5.39,2.68,44.25,44.25,0,0,1,4.59,9.9C83.73,144,87.47,182.53,112.73,173,128.34,167.14,106.84,136.52,99.73,128.08Z"/><g class="cls-115"><polygon class="cls-14" points="68.4 114.6 68.4 114.6 68.4 114.6 68.4 114.6"/><path class="cls-14" d="M83.19,117.83a12.92,12.92,0,0,1,5.94-2.42c-2.22-2.66-3.49-4.21-3.84-4.63-.6-5.4-1.93-14.93-4.71-17.31a12.27,12.27,0,0,0-2.22-1.38,15.74,15.74,0,0,1-2.08,4.52,19.25,19.25,0,0,1-9.88,7.77,18.37,18.37,0,0,1-9.73.63,97.33,97.33,0,0,0,10.14,8.39c.52.4,1,.79,1.58,1.17,0,0,0,0,0,0a18,18,0,0,0,5.39,2.69A43.52,43.52,0,0,1,77.61,125,17.29,17.29,0,0,1,83.19,117.83Z"/></g></g></g></svg>