<svg xmlns="http://www.w3.org/2000/svg" xmlns:xlink="http://www.w3.org/1999/xlink" viewBox="0 0 244.09 456.87"><defs><style>.cls-1,.cls-115,.cls-5{fill:#42210b;}.cls-1,.cls-103{opacity:0.11;}.cls-2{fill:#d18b74;}.cls-3{fill:#de9e8b;}.cls-4{fill:#c9b193;}.cls-5{opacity:0.09;}.cls-6{fill:#54453e;}.cls-7{fill:#604f48;}.cls-8{fill:#3d4041;}.cls-9{fill:#604e45;}.cls-10{opacity:0.1;}.cls-11{fill:#e09178;}.cls-12{fill:#d58a73;}.cls-13{fill:#d78c74;}.cls-14{fill:#dbdbdb;}.cls-15{fill:#f2f2f2;}.cls-16{fill:#381911;}.cls-17{fill:#e5a185;}.cls-18{opacity:0.38;}.cls-19{fill:#e5a084;}.cls-20{fill:#e59f83;}.cls-21{fill:#e49e83;}.cls-22{fill:#e49d82;}.cls-23{fill:#e49c81;}.cls-24{fill:#e49b80;}.cls-25{fill:#e49a80;}.cls-26{fill:#e3997f;}.cls-27{fill:#e3987e;}.cls-28{fill:#e3977d;}.cls-29{fill:#e3967c;}.cls-30{fill:#e2957c;}.cls-31{fill:#e2947b;}.cls-32{fill:#e2937a;}.cls-33{fill:#e29279;}.cls-34{fill:#e29179;}.cls-35{fill:#e19078;}.cls-36{fill:#e18f77;}.cls-37{fill:#e18e76;}.cls-38{fill:#e18d75;}.cls-39{fill:#e18c75;}.cls-40{fill:#e08b74;}.cls-41{fill:#e08a73;}.cls-42{fill:#e08972;}.cls-43{fill:#e08872;}.cls-44{fill:#df8771;}.cls-45{fill:#df8670;}.cls-46{fill:#df856f;}.cls-47{fill:#df846f;}.cls-48{fill:#df836e;}.cls-49{fill:#de826d;}.cls-50{fill:#de816c;}.cls-51{fill:#de806b;}.cls-52{fill:#de7f6b;}.cls-53{fill:#de7e6a;}.cls-54{fill:#dd7d69;}.cls-55{fill:#dd7c68;}.cls-56{fill:#dd7b68;}.cls-57{fill:#dd7a67;}.cls-58{fill:#dd7a66;}.cls-59{fill:#dc7965;}.cls-60{fill:#dc7864;}.cls-61{fill:#dc7764;}.cls-62{fill:#dc7663;}.cls-63{fill:#db7562;}.cls-64{fill:#db7461;}.cls-65{fill:#db7361;}.cls-66{fill:#db7260;}.cls-67{fill:#db715f;}.cls-68{fill:#da705e;}.cls-69{fill:#da6f5d;}.cls-70{fill:#da6e5d;}.cls-71{fill:#da6d5c;}.cls-72{fill:#da6c5b;}.cls-73{fill:#d96b5a;}.cls-74{fill:#d96a5a;}.cls-75{fill:#d96959;}.cls-76{fill:#d96858;}.cls-77{fill:#d86757;}.cls-78{fill:#d86657;}.cls-79{fill:#d86556;}.cls-80{fill:#d86455;}.cls-81{fill:#d86354;}.cls-82{fill:#d76253;}.cls-83{fill:#d76153;}.cls-84{fill:#d76052;}.cls-85{fill:#d75f51;}.cls-86{fill:#d75e50;}.cls-87{fill:#d65d50;}.cls-88{fill:#d65c4f;}.cls-89{fill:#d65b4e;}.cls-90{fill:#d65a4d;}.cls-91{fill:#d5594c;}.cls-92{fill:#d5584c;}.cls-93{fill:#d5574b;}.cls-94{fill:#d5564a;}.cls-95{fill:#d55549;}.cls-96{fill:#d45449;}.cls-97{fill:#d45348;}.cls-98{fill:#d45247;}.cls-99{fill:#6c332e;}.cls-100{fill:#4f372d;}.cls-101{fill:#422e26;}.cls-102,.cls-104,.cls-106,.cls-109{fill:#fff;}.cls-102{opacity:0.12;}.cls-103{fill:#e5912f;}.cls-105{fill:url(#Áåçûìÿííûé_ãðàäèåíò_9);}.cls-106{opacity:0.84;}.cls-107{fill:url(#Áåçûìÿííûé_ãðàäèåíò_9-2);}.cls-108{fill:#c77762;}.cls-109{opacity:0.2;}.cls-110{fill:#776258;}.cls-111{opacity:0.25;}.cls-112{fill:#ddc8c0;}.cls-113{fill:#eab778;}.cls-114{fill:#ffcb80;}.cls-115{opacity:0.06;}.cls-116{fill:#f2b770;}</style><linearGradient id="Áåçûìÿííûé_ãðàäèåíò_9" x1="104.93" y1="61.55" x2="109.96" y2="49.7" gradientUnits="userSpaceOnUse"><stop offset="0" stop-color="#5c3333"/><stop offset="1"/></linearGradient><linearGradient id="Áåçûìÿííûé_ãðàäèåíò_9-2" x1="131.46" y1="61.44" x2="135.75" y2="48.44" xlink:href="#Áåçûìÿííûé_ãðàäèåíò_9"/></defs><g id="Layer_2" data-name="Layer 2"><g id="Ñëîé_1" data-name="Ñëîé 1"><path class="cls-1" d="M244.09,441.55s-54.64,15.32-122,15.32S0,441.55,0,441.55s54.64-15.31,122.05-15.31S244.09,441.55,244.09,441.55Z"/><path class="cls-2" d="M208.76,215.94s-12.84-1-15.58,2.83.24,12.07.24,12.07-3.55,2.53-4.23,3.92c0,0-3.06-.66-3.75.89s2.46,2.54,2.46,2.54a4.53,4.53,0,0,0-2.26,2.85c-.26,1.79,3.46,1.56,5.05,1.27l5.65-3.44s-1.49,2.73-2.12,3.07-4.35,2-4.8,3.64,1.59,2.39,2.52,2.17a2.58,2.58,0,0,0,1.94,1.21c1.19,0,6.49-3.22,8.26-3.48,0,0,4.89-6.78,5.68-8.79s1.08-8.84,1.09-12.44C208.92,217.94,208.76,215.94,208.76,215.94Z"/><polygon class="cls-3" points="35 210.13 34.23 216.71 48.08 217.08 48.86 209.55 35 210.13"/><path class="cls-2" d="M34.33,215.94s12.84-1,15.59,2.83-.25,12.07-.25,12.07,3.55,2.53,4.23,3.92c0,0,3.06-.66,3.75.89s-2.46,2.54-2.46,2.54A4.53,4.53,0,0,1,57.45,241c.26,1.79-3.46,1.56-5.05,1.27l-5.65-3.44s1.49,2.73,2.12,3.07,4.35,2,4.8,3.64-1.59,2.39-2.52,2.17A2.58,2.58,0,0,1,49.21,249c-1.19,0-6.49-3.22-8.26-3.48,0,0-4.89-6.78-5.68-8.79s-1.08-8.84-1.09-12.44C34.17,217.94,34.33,215.94,34.33,215.94Z"/><path class="cls-4" d="M114.21,443.68a2.31,2.31,0,0,1-2.21,2.07l-7.37.27A208.09,208.09,0,0,0,85.78,426.5c2.63-2,6.06-5.34,8-7.06,2.51-2.19,2.37-18.17,2.37-18.17l14-1.44s-.26,14.93.36,16.47c1.23,3,2.24,4.48,3.39,7.51a17.43,17.43,0,0,1,.81,4.87,67.32,67.32,0,0,1-.17,11.18C114.48,441.14,114.34,442.41,114.21,443.68Z"/><path class="cls-5" d="M95.69,412.6l.24,0a59.3,59.3,0,0,0,8.32.3c2-.06,4-.21,6-.42-.16-4.91,0-12.67,0-12.67l-14,1.44S96.24,407.41,95.69,412.6Z"/><path class="cls-6" d="M113.74,422.68c-2.85,3-13.71,12.48-22.67-.24a1.4,1.4,0,0,0-2.06-.28c-6.62,5.71-15.3,13.57-20,11.92-7-2.45-10.55.89-10.61,5.81l-.05,4.92s14.26,6.36,26.91,2.44l12.65-3.93,0,1.33a1.61,1.61,0,0,0,1.68,1.56l12.38-.46a2.31,2.31,0,0,0,2.21-2.07c.4-3.86,1.92-14.11.26-20.65C114.39,422.72,114,422.44,113.74,422.68Z"/><path class="cls-7" d="M114.67,440.4c-17.19-.54-27,6.44-38.35,6.15A65.6,65.6,0,0,1,58.2,443a1.31,1.31,0,0,0-1.72,1.1l0,.52a1.06,1.06,0,0,0,.65,1.08c15.23,6,30.47,2.38,34.53,1.32,3.33-.87,17.27-.06,22.48.28a2,2,0,0,0,2.09-1.85l.19-3.21A1.73,1.73,0,0,0,114.67,440.4Z"/><path class="cls-4" d="M176.35,443.68a2.31,2.31,0,0,1-2.21,2.07l-7.37.27a208.09,208.09,0,0,0-18.85-19.52c2.63-2,6.06-5.34,8-7.06,2.52-2.19.25-18.17.25-18.17l12.48-1.44s3.39,14.93,4,16.47c1.23,3,2.25,4.48,3.4,7.51a17.79,17.79,0,0,1,.8,4.87,67.32,67.32,0,0,1-.17,11.18C176.62,441.14,176.49,442.41,176.35,443.68Z"/><path class="cls-5" d="M163.05,413.66a50.91,50.91,0,0,0,8.82-.38c-1.22-4.81-3.18-13.45-3.18-13.45l-12.48,1.44a99.24,99.24,0,0,1,.93,12.07C159.19,413.56,161.29,413.57,163.05,413.66Z"/><path class="cls-6" d="M175.88,422.68c-2.85,3-13.7,12.48-22.67-.24a1.4,1.4,0,0,0-2.06-.28c-6.61,5.71-15.29,13.57-20,11.92-7-2.45-10.56.89-10.61,5.81l-.06,4.92s14.26,6.36,26.91,2.44L160,443.32l.05,1.33a1.61,1.61,0,0,0,1.68,1.56l12.38-.46a2.31,2.31,0,0,0,2.21-2.07c.41-3.86,1.92-14.11.26-20.65C176.53,422.72,176.11,422.44,175.88,422.68Z"/><path class="cls-7" d="M176.82,440.4c-17.2-.54-27,6.44-38.36,6.15A65.6,65.6,0,0,1,120.34,443a1.29,1.29,0,0,0-1.71,1.1l-.06.52a1.06,1.06,0,0,0,.65,1.08c15.24,6,30.47,2.38,34.53,1.32,3.33-.87,17.27-.06,22.48.28a2,2,0,0,0,2.09-1.85l.19-3.21A1.73,1.73,0,0,0,176.82,440.4Z"/><polygon class="cls-8" points="137.96 237.05 127.66 253.99 134.97 254.78 144.94 237.05 137.96 237.05"/><path class="cls-9" d="M153.89,234.76l-.62,26.38s-73.77,6.64-73.2-2.41c.35-5.41.77-22.05.77-22.05Z"/><path class="cls-9" d="M106,260.64c-.09.35-2.72,45.3,10.6,143.53a2.78,2.78,0,0,1-2.19,3.36l-20.88,1.66c-1.85.15-3.82-1-4.08-2.81-14.13-97.91-9.3-148.13-8.95-154.56Z"/><path class="cls-9" d="M153.41,245.5c-.09.35-4.12,72.95,24,159a2.74,2.74,0,0,1-2.31,3.62l-21.7,2a3.34,3.34,0,0,1-3.47-2.27c-35-104.26-21-154.88-19.8-158.92Z"/><g class="cls-10"><path d="M90.75,319.47a17,17,0,0,0,16.94.72c1.54,21.71,4.25,49.57,8.92,84a2.78,2.78,0,0,1-2.19,3.36l-20.88,1.66c-1.85.15-3.82-1-4.08-2.81A961.3,961.3,0,0,1,80,308.07,34.21,34.21,0,0,0,90.75,319.47Z"/></g><g class="cls-10"><path d="M139.29,320.26c6.05,1.76,13.31,1.8,18.37-2.08a498.1,498.1,0,0,0,19.71,86.33,2.74,2.74,0,0,1-2.31,3.62l-21.7,2a3.34,3.34,0,0,1-3.47-2.27c-13.3-39.6-19.52-71.46-22.06-96A21.51,21.51,0,0,0,139.29,320.26Z"/></g><path class="cls-11" d="M145.57,116.36V98.75c-14.27-4.22-33.77-4.18-47.58,1.6v16Z"/><path class="cls-12" d="M108,240.33c2.85.1,5.84.17,9,.17,2.47,0,5-.07,7.61-.17Z"/><path class="cls-13" d="M110.51,87l-.22,14.21c-.08,4.73,5.22,6.5,11.85,6.61s12.17-1.46,12.25-6.2L134.62,87Z"/><path class="cls-14" d="M102.69,101.88a174.39,174.39,0,0,1,39.86-.27s-10.19,20.14-25.22,14.88S102.69,101.88,102.69,101.88Z"/><path class="cls-15" d="M110.41,93.56s-6.22,3.5-7.72,7c-2.6,6.12,8.48,13.07,8.48,13.07s1-8.45,9.33-8.67,11.8,8.83,11.8,8.83,10.65-7.14,10.25-13.23c0,0-.91-3.16-8-6.59,0,0-3.52,6.19-12.82,6.17S110.41,93.56,110.41,93.56Z"/><path class="cls-13" d="M91.57,51c-3,1-4.35,5.37-3,9.79s4.86,7.2,7.86,6.22,4.35-5.37,3-9.79S94.58,50.06,91.57,51Z"/><path class="cls-16" d="M110.87,11.25a1.16,1.16,0,0,0,0-.13A1.16,1.16,0,0,1,110.87,11.25Z"/><path class="cls-17" d="M144,24.81c-1.69-10.41-31.06-15.33-39.72-1-2.75,6.63-7.24,19-8.73,31.29v-.21s-8,32.69,21.09,34.72,32.33-13.3,31.09-32.42h0C147.72,46.41,146.15,32.82,144,24.81Z"/><g class="cls-18"><ellipse class="cls-17" cx="105.68" cy="61.21" rx="11.39" ry="10.46" transform="translate(43.01 166.04) rotate(-89.21)"/><ellipse class="cls-19" cx="105.68" cy="61.21" rx="11.32" ry="10.39" transform="translate(43.01 166.04) rotate(-89.21)"/><path class="cls-20" d="M105.83,50c-5.7-.08-10.39,4.89-10.48,11.1s4.47,11.31,10.17,11.39,10.39-4.89,10.48-11.1S111.53,50.05,105.83,50Z"/><path class="cls-21" d="M105.83,50c-5.67-.08-10.33,4.86-10.41,11s4.44,11.24,10.1,11.32,10.33-4.86,10.42-11S111.5,50.12,105.83,50Z"/><path class="cls-22" d="M105.83,50.11c-5.63-.08-10.26,4.83-10.35,11s4.41,11.17,10,11.25,10.27-4.83,10.35-11S111.46,50.19,105.83,50.11Z"/><ellipse class="cls-23" cx="105.68" cy="61.21" rx="11.03" ry="10.13" transform="translate(43.01 166.04) rotate(-89.21)"/><ellipse class="cls-24" cx="105.68" cy="61.21" rx="10.96" ry="10.06" transform="translate(43.01 166.04) rotate(-89.21)"/><path class="cls-25" d="M105.83,50.32c-5.53-.07-10.07,4.74-10.15,10.76s4.32,11,9.85,11,10.06-4.74,10.14-10.76S111.35,50.4,105.83,50.32Z"/><path class="cls-26" d="M105.82,50.4c-5.48-.08-10,4.7-10.08,10.68S100,72,105.53,72s10-4.7,10.08-10.68S111.31,50.47,105.82,50.4Z"/><path class="cls-27" d="M105.82,50.47c-5.45-.08-9.93,4.67-10,10.61s4.27,10.81,9.72,10.88,9.93-4.67,10-10.61S111.27,50.54,105.82,50.47Z"/><path class="cls-28" d="M105.82,50.54c-5.41-.08-9.87,4.64-9.95,10.54s4.24,10.74,9.66,10.81,9.87-4.64,10-10.54S111.24,50.61,105.82,50.54Z"/><path class="cls-29" d="M105.82,50.61c-5.38-.08-9.8,4.61-9.88,10.47s4.21,10.67,9.59,10.74,9.8-4.61,9.88-10.47S111.2,50.68,105.82,50.61Z"/><path class="cls-30" d="M105.82,50.68c-5.34-.07-9.74,4.58-9.82,10.4s4.19,10.6,9.53,10.67,9.74-4.58,9.82-10.4S111.16,50.75,105.82,50.68Z"/><path class="cls-31" d="M105.82,50.75c-5.31-.07-9.67,4.55-9.75,10.33s4.16,10.52,9.46,10.6,9.67-4.55,9.75-10.33S111.12,50.82,105.82,50.75Z"/><path class="cls-32" d="M105.82,50.82c-5.27-.07-9.61,4.52-9.69,10.26s4.13,10.45,9.4,10.53,9.61-4.52,9.69-10.26S111.09,50.9,105.82,50.82Z"/><path class="cls-33" d="M105.82,50.89c-5.24-.07-9.54,4.49-9.62,10.19s4.1,10.38,9.33,10.46,9.54-4.49,9.62-10.19S111.05,51,105.82,50.89Z"/><ellipse class="cls-34" cx="105.68" cy="61.21" rx="10.25" ry="9.41" transform="translate(43.01 166.04) rotate(-89.21)"/><path class="cls-35" d="M105.82,51c-5.17-.07-9.41,4.42-9.49,10.05s4,10.23,9.21,10.3,9.4-4.43,9.48-10S111,51.11,105.82,51Z"/><path class="cls-36" d="M105.81,51.11c-5.12-.07-9.34,4.39-9.41,10s4,10.16,9.14,10.23,9.34-4.4,9.41-10S110.94,51.18,105.81,51.11Z"/><ellipse class="cls-37" cx="105.68" cy="61.21" rx="10.04" ry="9.21" transform="translate(43.01 166.04) rotate(-89.21)"/><ellipse class="cls-38" cx="105.68" cy="61.21" rx="9.97" ry="9.15" transform="translate(43.01 166.04) rotate(-89.21)"/><ellipse class="cls-39" cx="105.68" cy="61.21" rx="9.89" ry="9.08" transform="translate(43.01 166.04) rotate(-89.21)"/><ellipse class="cls-40" cx="105.68" cy="61.21" rx="9.82" ry="9.02" transform="translate(43.01 166.04) rotate(-89.21)"/><path class="cls-41" d="M105.81,51.46c-4.94-.06-9,4.25-9.09,9.63s3.88,9.81,8.82,9.88,9-4.25,9.09-9.63S110.75,51.53,105.81,51.46Z"/><ellipse class="cls-42" cx="105.68" cy="61.21" rx="9.68" ry="8.89" transform="translate(43.01 166.04) rotate(-89.21)"/><path class="cls-43" d="M105.81,51.61c-4.87-.07-8.88,4.18-9,9.48s3.82,9.67,8.69,9.73,8.88-4.18,9-9.48S110.68,51.67,105.81,51.61Z"/><path class="cls-44" d="M105.81,51.68c-4.84-.07-8.82,4.15-8.89,9.41s3.79,9.6,8.62,9.66,8.82-4.15,8.89-9.41S110.64,51.74,105.81,51.68Z"/><ellipse class="cls-45" cx="105.68" cy="61.21" rx="9.47" ry="8.69" transform="translate(43.01 166.04) rotate(-89.21)"/><path class="cls-46" d="M105.8,51.82c-4.76-.07-8.68,4.09-8.75,9.28s3.73,9.44,8.5,9.51,8.68-4.09,8.75-9.28S110.57,51.88,105.8,51.82Z"/><path class="cls-47" d="M105.8,51.89c-4.72-.06-8.61,4.06-8.69,9.21s3.71,9.37,8.44,9.44,8.62-4.06,8.69-9.21S110.53,52,105.8,51.89Z"/><ellipse class="cls-48" cx="105.68" cy="61.21" rx="9.25" ry="8.5" transform="translate(43.01 166.04) rotate(-89.21)"/><path class="cls-49" d="M105.8,52c-4.65-.06-8.48,4-8.55,9.07s3.64,9.23,8.3,9.3,8.49-4,8.56-9.07S110.46,52.1,105.8,52Z"/><path class="cls-50" d="M105.8,52.1c-4.62-.06-8.42,4-8.49,9s3.62,9.16,8.24,9.23,8.42-4,8.49-9S110.42,52.17,105.8,52.1Z"/><path class="cls-51" d="M105.8,52.17c-4.58-.06-8.36,3.94-8.42,8.93s3.59,9.09,8.17,9.15,8.36-3.93,8.42-8.92S110.38,52.24,105.8,52.17Z"/><path class="cls-52" d="M105.8,52.25c-4.55-.07-8.29,3.9-8.36,8.85s3.56,9,8.11,9.08,8.29-3.9,8.36-8.85S110.35,52.31,105.8,52.25Z"/><ellipse class="cls-53" cx="105.68" cy="61.21" rx="8.9" ry="8.17" transform="translate(43.01 166.04) rotate(-89.21)"/><path class="cls-54" d="M105.8,52.39c-4.48-.06-8.16,3.84-8.23,8.71s3.51,8.88,8,8.94,8.16-3.84,8.23-8.71S110.27,52.45,105.8,52.39Z"/><ellipse class="cls-55" cx="105.68" cy="61.21" rx="8.76" ry="8.04" transform="translate(43.01 166.04) rotate(-89.21)"/><ellipse class="cls-56" cx="105.68" cy="61.21" rx="8.68" ry="7.97" transform="translate(43.01 166.04) rotate(-89.21)"/><path class="cls-57" d="M105.79,52.6c-4.36-.06-8,3.75-8,8.51s3.42,8.66,7.79,8.72,8-3.75,8-8.51S110.16,52.66,105.79,52.6Z"/><path class="cls-58" d="M105.79,52.67c-4.33-.06-7.89,3.72-8,8.44s3.4,8.59,7.73,8.65,7.89-3.72,8-8.44S110.12,52.73,105.79,52.67Z"/><path class="cls-59" d="M105.79,52.74c-4.29-.05-7.83,3.69-7.89,8.37s3.36,8.52,7.66,8.58,7.83-3.69,7.89-8.37S110.09,52.8,105.79,52.74Z"/><path class="cls-60" d="M105.79,52.82c-4.26-.06-7.76,3.65-7.83,8.29s3.34,8.45,7.6,8.5,7.76-3.65,7.83-8.29S110.05,52.87,105.79,52.82Z"/><path class="cls-61" d="M105.79,52.89c-4.22-.06-7.7,3.62-7.76,8.22s3.31,8.37,7.53,8.43,7.7-3.62,7.76-8.22S110,52.94,105.79,52.89Z"/><path class="cls-62" d="M105.79,53c-4.19-.06-7.63,3.59-7.7,8.15s3.29,8.3,7.47,8.36,7.63-3.59,7.7-8.15S110,53,105.79,53Z"/><path class="cls-63" d="M105.79,53c-4.15-.06-7.57,3.56-7.63,8.08s3.25,8.23,7.4,8.29,7.57-3.56,7.63-8.08S109.94,53.09,105.79,53Z"/><ellipse class="cls-64" cx="105.68" cy="61.21" rx="8.12" ry="7.45" transform="translate(43.01 166.04) rotate(-89.21)"/><path class="cls-65" d="M105.79,53.17c-4.08-.05-7.44,3.5-7.5,7.94s3.2,8.09,7.27,8.15,7.44-3.5,7.5-7.94S109.86,53.23,105.79,53.17Z"/><path class="cls-66" d="M105.79,53.24c-4.05-.05-7.37,3.47-7.43,7.87s3.16,8,7.21,8.08,7.36-3.47,7.42-7.87S109.83,53.3,105.79,53.24Z"/><path class="cls-67" d="M105.78,53.31c-4-.05-7.3,3.44-7.36,7.8s3.14,8,7.15,8,7.3-3.44,7.36-7.81S109.79,53.37,105.78,53.31Z"/><path class="cls-68" d="M105.78,53.39c-4-.06-7.23,3.4-7.29,7.73S101.6,69,105.57,69s7.23-3.4,7.29-7.73S109.75,53.44,105.78,53.39Z"/><path class="cls-69" d="M105.78,53.46c-3.93-.06-7.17,3.37-7.23,7.66s3.08,7.8,7,7.85,7.17-3.37,7.23-7.66S109.72,53.51,105.78,53.46Z"/><path class="cls-70" d="M105.78,53.53c-3.9-.06-7.1,3.34-7.16,7.59s3,7.73,6.95,7.78,7.1-3.34,7.16-7.59S109.68,53.58,105.78,53.53Z"/><path class="cls-71" d="M105.78,53.6c-3.86-.05-7,3.31-7.1,7.52s3,7.66,6.89,7.71,7-3.31,7.1-7.52S109.64,53.65,105.78,53.6Z"/><path class="cls-72" d="M105.78,53.67c-3.83-.05-7,3.28-7,7.45s3,7.59,6.82,7.64,7-3.28,7-7.45S109.6,53.72,105.78,53.67Z"/><path class="cls-73" d="M105.78,53.74c-3.79-.05-6.91,3.25-7,7.38s3,7.52,6.76,7.57,6.91-3.25,7-7.38S109.57,53.79,105.78,53.74Z"/><ellipse class="cls-74" cx="105.68" cy="61.21" rx="7.4" ry="6.8" transform="translate(43.01 166.04) rotate(-89.21)"/><path class="cls-75" d="M105.78,53.88c-3.72-.05-6.78,3.19-6.84,7.24s2.92,7.37,6.63,7.43,6.78-3.19,6.84-7.24S109.49,53.93,105.78,53.88Z"/><path class="cls-76" d="M105.78,54c-3.69-.05-6.71,3.16-6.77,7.17s2.88,7.3,6.57,7.35,6.71-3.15,6.76-7.16S109.46,54,105.78,54Z"/><path class="cls-77" d="M105.77,54c-3.64-.05-6.64,3.12-6.69,7.09s2.85,7.23,6.5,7.28,6.64-3.12,6.7-7.09S109.42,54.08,105.77,54Z"/><path class="cls-78" d="M105.77,54.1a6.83,6.83,0,0,0-6.63,7c0,3.94,2.83,7.16,6.44,7.21a7.14,7.14,0,0,0,.19-14.23Z"/><path class="cls-79" d="M105.77,54.17a7.07,7.07,0,1,0,6.37,7.13A6.77,6.77,0,0,0,105.77,54.17Z"/><path class="cls-80" d="M105.77,54.24a7,7,0,1,0,6.31,7.06A6.7,6.7,0,0,0,105.77,54.24Z"/><path class="cls-81" d="M105.77,54.31a6.93,6.93,0,1,0,6.24,7A6.63,6.63,0,0,0,105.77,54.31Z"/><path class="cls-82" d="M105.77,54.38A6.86,6.86,0,1,0,112,61.3,6.57,6.57,0,0,0,105.77,54.38Z"/><path class="cls-83" d="M105.77,54.45a6.79,6.79,0,1,0,6.11,6.85A6.5,6.5,0,0,0,105.77,54.45Z"/><ellipse class="cls-84" cx="105.68" cy="61.21" rx="6.69" ry="6.14" transform="translate(43.01 166.04) rotate(-89.21)"/><path class="cls-85" d="M105.77,54.6a6.64,6.64,0,1,0,6,6.7A6.36,6.36,0,0,0,105.77,54.6Z"/><path class="cls-86" d="M105.77,54.67a6.57,6.57,0,1,0,5.92,6.63A6.3,6.3,0,0,0,105.77,54.67Z"/><path class="cls-87" d="M105.76,54.74a6.5,6.5,0,1,0,5.86,6.56A6.22,6.22,0,0,0,105.76,54.74Z"/><path class="cls-88" d="M105.76,54.81a6.43,6.43,0,1,0,5.8,6.49A6.16,6.16,0,0,0,105.76,54.81Z"/><path class="cls-89" d="M105.76,54.88a6.36,6.36,0,1,0,5.73,6.41A6.1,6.1,0,0,0,105.76,54.88Z"/><path class="cls-90" d="M105.76,55a6.29,6.29,0,1,0,5.67,6.34A6,6,0,0,0,105.76,55Z"/><path class="cls-91" d="M105.76,55a6.22,6.22,0,1,0,5.6,6.27A6,6,0,0,0,105.76,55Z"/><path class="cls-92" d="M105.76,55.09a6.15,6.15,0,1,0,5.54,6.2A5.89,5.89,0,0,0,105.76,55.09Z"/><path class="cls-93" d="M105.76,55.16a6.07,6.07,0,1,0,5.47,6.13A5.83,5.83,0,0,0,105.76,55.16Z"/><path class="cls-94" d="M105.76,55.24a6,6,0,1,0,5.4,6A5.74,5.74,0,0,0,105.76,55.24Z"/><path class="cls-95" d="M105.76,55.31a5.93,5.93,0,1,0,5.34,6A5.69,5.69,0,0,0,105.76,55.31Z"/><path class="cls-96" d="M105.76,55.38A5.86,5.86,0,1,0,111,61.29,5.61,5.61,0,0,0,105.76,55.38Z"/><path class="cls-97" d="M105.75,55.45A5.79,5.79,0,1,0,111,61.29,5.55,5.55,0,0,0,105.75,55.45Z"/><path class="cls-98" d="M105.75,55.52a5.72,5.72,0,1,0,5.15,5.77A5.47,5.47,0,0,0,105.75,55.52Z"/></g><g class="cls-18"><path class="cls-17" d="M134.12,50.22a11.39,11.39,0,1,0,11.24,11.54A11.38,11.38,0,0,0,134.12,50.22Z"/><path class="cls-19" d="M134.12,50.29a11.32,11.32,0,1,0,11.16,11.47A11.31,11.31,0,0,0,134.12,50.29Z"/><path class="cls-20" d="M134.12,50.36a11.25,11.25,0,1,0,11.09,11.4A11.25,11.25,0,0,0,134.12,50.36Z"/><circle class="cls-21" cx="133.97" cy="61.6" r="11.18" transform="translate(-7.26 103.99) rotate(-41.4)"/><path class="cls-22" d="M134.12,50.5a11.11,11.11,0,1,0,10.95,11.26A11.12,11.12,0,0,0,134.12,50.5Z"/><circle class="cls-23" cx="133.97" cy="61.6" r="11.03" transform="translate(4.21 131.64) rotate(-53.05)"/><path class="cls-24" d="M134.12,50.64a11,11,0,1,0,10.81,11.12A11,11,0,0,0,134.12,50.64Z"/><circle class="cls-25" cx="133.97" cy="61.6" r="10.89" transform="translate(70.01 194.46) rotate(-88.99)"/><circle class="cls-26" cx="133.97" cy="61.6" r="10.82" transform="translate(-4.32 112.77) rotate(-45)"/><path class="cls-27" d="M134.11,50.86a10.75,10.75,0,1,0,10.61,10.89A10.74,10.74,0,0,0,134.11,50.86Z"/><circle class="cls-28" cx="133.97" cy="61.6" r="10.68" transform="matrix(0.54, -0.84, 0.84, 0.54, 9.53, 140.72)"/><path class="cls-29" d="M134.11,51a10.61,10.61,0,1,0,10.46,10.75A10.61,10.61,0,0,0,134.11,51Z"/><circle class="cls-30" cx="133.97" cy="61.6" r="10.54" transform="translate(59.58 188.92) rotate(-84.4)"/><circle class="cls-31" cx="133.97" cy="61.6" r="10.46" transform="translate(-4.32 112.77) rotate(-45)"/><circle class="cls-32" cx="133.97" cy="61.6" r="10.39" transform="translate(-7.64 20.49) rotate(-8.51)"/><circle class="cls-33" cx="133.97" cy="61.6" r="10.32" transform="translate(6.91 136.42) rotate(-55.19)"/><path class="cls-34" d="M134.11,51.35a10.25,10.25,0,1,0,10.11,10.4A10.26,10.26,0,0,0,134.11,51.35Z"/><path class="cls-35" d="M134.11,51.43a10.18,10.18,0,1,0,10,10.31A10.18,10.18,0,0,0,134.11,51.43Z"/><path class="cls-36" d="M134.11,51.5a10.11,10.11,0,1,0,10,10.24A10.1,10.1,0,0,0,134.11,51.5Z"/><circle class="cls-37" cx="133.97" cy="61.6" r="10.04" transform="translate(-9.79 28.82) rotate(-11.85)"/><path class="cls-38" d="M134.1,51.64a10,10,0,1,0,9.83,10.1A10,10,0,0,0,134.1,51.64Z"/><path class="cls-39" d="M134.1,51.71a9.9,9.9,0,1,0,9.76,10A9.9,9.9,0,0,0,134.1,51.71Z"/><path class="cls-40" d="M134.1,51.78a9.83,9.83,0,1,0,9.69,10A9.83,9.83,0,0,0,134.1,51.78Z"/><path class="cls-41" d="M134.1,51.85a9.76,9.76,0,1,0,9.62,9.89A9.75,9.75,0,0,0,134.1,51.85Z"/><path class="cls-42" d="M134.1,51.92a9.68,9.68,0,1,0,9.55,9.82A9.68,9.68,0,0,0,134.1,51.92Z"/><path class="cls-43" d="M134.1,52a9.61,9.61,0,1,0,9.48,9.75A9.61,9.61,0,0,0,134.1,52Z"/><path class="cls-44" d="M134.1,52.07a9.54,9.54,0,1,0,9.41,9.67A9.53,9.53,0,0,0,134.1,52.07Z"/><path class="cls-45" d="M134.1,52.14a9.47,9.47,0,1,0,9.33,9.59A9.47,9.47,0,0,0,134.1,52.14Z"/><path class="cls-46" d="M134.1,52.21a9.4,9.4,0,1,0,9.26,9.52A9.4,9.4,0,0,0,134.1,52.21Z"/><path class="cls-47" d="M134.1,52.28a9.33,9.33,0,1,0,9.19,9.45A9.33,9.33,0,0,0,134.1,52.28Z"/><path class="cls-48" d="M134.09,52.35a9.26,9.26,0,1,0,9.13,9.38A9.26,9.26,0,0,0,134.09,52.35Z"/><path class="cls-49" d="M134.09,52.42a9.19,9.19,0,1,0,9.06,9.31A9.19,9.19,0,0,0,134.09,52.42Z"/><path class="cls-50" d="M134.09,52.49a9.12,9.12,0,1,0,9,9.24A9.11,9.11,0,0,0,134.09,52.49Z"/><path class="cls-51" d="M134.09,52.56A9,9,0,1,0,143,61.73,9.05,9.05,0,0,0,134.09,52.56Z"/><path class="cls-52" d="M134.09,52.64a9,9,0,1,0,8.85,9.09A9,9,0,0,0,134.09,52.64Z"/><path class="cls-53" d="M134.09,52.71a8.9,8.9,0,1,0,8.77,9A8.9,8.9,0,0,0,134.09,52.71Z"/><path class="cls-54" d="M134.09,52.78a8.83,8.83,0,1,0,8.7,8.95A8.82,8.82,0,0,0,134.09,52.78Z"/><circle class="cls-55" cx="133.97" cy="61.6" r="8.76" transform="translate(-10.35 31.37) rotate(-12.86)"/><path class="cls-56" d="M134.09,52.92a8.69,8.69,0,1,0,8.56,8.8A8.69,8.69,0,0,0,134.09,52.92Z"/><circle class="cls-57" cx="133.97" cy="61.6" r="8.61" transform="translate(49.41 182.4) rotate(-79.7)"/><path class="cls-58" d="M134.08,53.06a8.55,8.55,0,1,0,8.43,8.66A8.54,8.54,0,0,0,134.08,53.06Z"/><circle class="cls-59" cx="133.97" cy="61.6" r="8.47" transform="translate(-8.18 22.41) rotate(-9.28)"/><circle class="cls-60" cx="133.97" cy="61.6" r="8.4" transform="translate(-5.4 13.44) rotate(-5.63)"/><path class="cls-61" d="M134.08,53.28a8.33,8.33,0,1,0,8.22,8.44A8.32,8.32,0,0,0,134.08,53.28Z"/><path class="cls-62" d="M134.08,53.35a8.26,8.26,0,1,0,8.14,8.37A8.25,8.25,0,0,0,134.08,53.35Z"/><path class="cls-63" d="M134.08,53.42a8.19,8.19,0,1,0,8.07,8.3A8.19,8.19,0,0,0,134.08,53.42Z"/><circle class="cls-64" cx="133.97" cy="61.6" r="8.12" transform="translate(-3.37 7.93) rotate(-3.35)"/><circle class="cls-65" cx="133.97" cy="61.6" r="8.04" transform="translate(-1.38 3.1) rotate(-1.32)"/><circle class="cls-66" cx="133.97" cy="61.6" r="7.97" transform="translate(-0.94 2.1) rotate(-0.89)"/><path class="cls-67" d="M134.08,53.7a7.91,7.91,0,1,0,7.79,8A7.9,7.9,0,0,0,134.08,53.7Z"/><path class="cls-68" d="M134.07,53.77a7.83,7.83,0,1,0,7.73,7.94A7.83,7.83,0,0,0,134.07,53.77Z"/><path class="cls-69" d="M134.07,53.85a7.76,7.76,0,1,0,7.66,7.86A7.75,7.75,0,0,0,134.07,53.85Z"/><path class="cls-70" d="M134.07,53.92a7.69,7.69,0,1,0,7.58,7.79A7.68,7.68,0,0,0,134.07,53.92Z"/><circle class="cls-71" cx="133.97" cy="61.6" r="7.62" transform="translate(-6.6 17.08) rotate(-7.12)"/><path class="cls-72" d="M134.07,54.06a7.55,7.55,0,1,0,7.44,7.65A7.54,7.54,0,0,0,134.07,54.06Z"/><path class="cls-73" d="M134.07,54.13a7.48,7.48,0,1,0,7.37,7.58A7.47,7.47,0,0,0,134.07,54.13Z"/><path class="cls-74" d="M134.07,54.2a7.41,7.41,0,1,0,7.3,7.51A7.41,7.41,0,0,0,134.07,54.2Z"/><path class="cls-75" d="M134.07,54.27a7.34,7.34,0,1,0,7.23,7.44A7.33,7.33,0,0,0,134.07,54.27Z"/><path class="cls-76" d="M134.07,54.34a7.26,7.26,0,1,0,7.16,7.36A7.26,7.26,0,0,0,134.07,54.34Z"/><path class="cls-77" d="M134.07,54.42a7.19,7.19,0,1,0,7.09,7.28A7.18,7.18,0,0,0,134.07,54.42Z"/><path class="cls-78" d="M134.07,54.49a7.12,7.12,0,1,0,7,7.21A7.11,7.11,0,0,0,134.07,54.49Z"/><path class="cls-79" d="M134.06,54.56A7,7,0,1,0,141,61.7,7,7,0,0,0,134.06,54.56Z"/><path class="cls-80" d="M134.06,54.63a7,7,0,1,0,6.88,7.07A7,7,0,0,0,134.06,54.63Z"/><path class="cls-81" d="M134.06,54.7a6.91,6.91,0,1,0,6.81,7A6.92,6.92,0,0,0,134.06,54.7Z"/><path class="cls-82" d="M134.06,54.77a6.84,6.84,0,1,0,6.74,6.93A6.85,6.85,0,0,0,134.06,54.77Z"/><path class="cls-83" d="M134.06,54.84a6.77,6.77,0,1,0,6.67,6.86A6.77,6.77,0,0,0,134.06,54.84Z"/><path class="cls-84" d="M134.06,54.91a6.7,6.7,0,1,0,6.6,6.79A6.69,6.69,0,0,0,134.06,54.91Z"/><path class="cls-85" d="M134.06,55a6.62,6.62,0,1,0,6.53,6.72A6.62,6.62,0,0,0,134.06,55Z"/><path class="cls-86" d="M134.06,55.06a6.55,6.55,0,1,0,6.46,6.63A6.55,6.55,0,0,0,134.06,55.06Z"/><path class="cls-87" d="M134.06,55.13a6.48,6.48,0,1,0,6.38,6.56A6.48,6.48,0,0,0,134.06,55.13Z"/><path class="cls-88" d="M134.06,55.2a6.41,6.41,0,1,0,6.31,6.49A6.41,6.41,0,0,0,134.06,55.2Z"/><path class="cls-89" d="M134.05,55.27a6.34,6.34,0,1,0,6.25,6.42A6.34,6.34,0,0,0,134.05,55.27Z"/><path class="cls-90" d="M134.05,55.34a6.27,6.27,0,1,0,6.18,6.35A6.27,6.27,0,0,0,134.05,55.34Z"/><path class="cls-91" d="M134.05,55.41a6.2,6.2,0,1,0,6.11,6.28A6.2,6.2,0,0,0,134.05,55.41Z"/><path class="cls-92" d="M134.05,55.48a6.13,6.13,0,1,0,6,6.21A6.12,6.12,0,0,0,134.05,55.48Z"/><path class="cls-93" d="M134.05,55.55a6.05,6.05,0,1,0,6,6.14A6.05,6.05,0,0,0,134.05,55.55Z"/><path class="cls-94" d="M134.05,55.63a6,6,0,1,0,5.9,6.06A6,6,0,0,0,134.05,55.63Z"/><path class="cls-95" d="M134.05,55.7a5.91,5.91,0,1,0,5.82,6A5.9,5.9,0,0,0,134.05,55.7Z"/><path class="cls-96" d="M134.05,55.77a5.84,5.84,0,1,0,5.75,5.91A5.83,5.83,0,0,0,134.05,55.77Z"/><path class="cls-97" d="M134.05,55.84a5.77,5.77,0,1,0,5.68,5.84A5.76,5.76,0,0,0,134.05,55.84Z"/><path class="cls-98" d="M134.05,55.91a5.7,5.7,0,1,0,5.61,5.77A5.7,5.7,0,0,0,134.05,55.91Z"/></g><ellipse class="cls-17" cx="151.3" cy="59.83" rx="8.36" ry="5.72" transform="translate(49.41 186.68) rotate(-72.8)"/><path class="cls-13" d="M154.26,62.25a6.75,6.75,0,0,1-8.18-.58A29.41,29.41,0,0,1,140,79.48c-4.25,5.72-13.43,7.6-20.25,7.34-16.26-.62-20.54-5.6-23.87-12.31,2.28,7.36,7.9,14.18,20.69,15.07,23.7,1.66,30.24-8.22,31.18-22.27a4.91,4.91,0,0,0,.88.46c3,1.07,6.57-1.62,8-6a11.86,11.86,0,0,0,.61-3.33A7.35,7.35,0,0,1,154.26,62.25Z"/><path class="cls-13" d="M149,59.85l2.72.39a6.1,6.1,0,0,1,3.17-5.71C149.73,52.65,149,59.85,149,59.85Z"/><path class="cls-99" d="M131.21,67.88v0A0,0,0,0,0,131.21,67.88Z"/><path class="cls-100" d="M123.48,10.18c-30.13,2-25.75,35.4-25.75,35.4,1.79-9.93,8-22.25,12.74-22.49a18.08,18.08,0,0,0,10.29,3.49c5.52.12,13.18-3.9,13.18-3.9,5.5-.13,11.8,16.91,12.54,30.65.16,3.14,2.89-.48,2.89-.48S153,8.23,123.48,10.18Z"/><path class="cls-100" d="M139.23,12.79c-8.91-13.6-37.94-9.65-37.94-9.65-2.82,15.42,8,18.9,8,18.9s25.13-4.48,28.94-1.79,11.23,24.26,11.23,24.26,6.42-22.52,1.69-30.8C147.64,7.63,139.23,12.79,139.23,12.79Z"/><path class="cls-100" d="M112.52,0a8.37,8.37,0,0,0,1.86,4.12s30.45,20.68,24.85,8.67S112.52,0,112.52,0Z"/><path class="cls-100" d="M144.16,8.65c-1.71.26-2.11,1.07-2.11,1.07,1.23-2.25.38-5.32.38-5.32-3.35,1.92-3,4.59-3,4.59-1.64-3.43-6.69-4.5-6.69-4.5.16,2.84,3.19,5.73,3.35,5.82l2.62,4,5.43-.86L143.6,11A3,3,0,0,0,144.16,8.65Z"/><path class="cls-101" d="M102.1,14.88c-8.85,2.69-6.29,38-6.29,38,1.79-9.93,9.92-29.51,14.66-29.75A31.29,31.29,0,0,1,102.1,14.88Z"/><path class="cls-102" d="M136.56,12.53h0Z"/><path class="cls-102" d="M136.56,12.71Z"/><path class="cls-103" d="M147.69,11c-1.09.17-2.23.44-3.41.71a24.87,24.87,0,0,1-8.67.69c-3.36-.45-6.3-1.95-9.28-3.46-1.51-.76-3-1.53-4.56-2.2-3.32-1.42-7.23-2.82-10.89-2.7a15.52,15.52,0,0,0-5.26,1.3,11.25,11.25,0,0,0-3.75,2.51,11,11,0,0,0-1,1.19,19.2,19.2,0,0,0,.44,3.32l.36-.29a11.39,11.39,0,0,1,2.24-1.28,10.08,10.08,0,0,1,3-.76c4.36-.33,8.4,1.42,12.33,3,1.61.66,3.25,1.44,5,2.16a57.6,57.6,0,0,0,5.41,2,19.27,19.27,0,0,0,10.27.36c.44-.12.87-.22,1.29-.35a28.86,28.86,0,0,0,4.38-1.85c1.26-.65,2.34-1.24,3.29-1.69a11.32,11.32,0,0,1,1.78-.71A5.34,5.34,0,0,0,147.69,11Z"/><path class="cls-102" d="M136.49,12.53h0Z"/><path class="cls-16" d="M103.12,45.06s2.24-4.78,8.95-7.46l1.61,4.07a88,88,0,0,0-10.17,5.13Z"/><path class="cls-16" d="M140.4,45.62a20.72,20.72,0,0,0-9.64-8l-1.34,4a89.74,89.74,0,0,1,10.12,5.24Z"/><path class="cls-104" d="M126.74,54.66s2.33-6,8.2-4.88a7.13,7.13,0,0,1,5.92,6.8s-2.56,2.1-7.94,1.33C126.73,57,126.74,54.66,126.74,54.66Z"/><path class="cls-104" d="M113.28,54.81s-7.42-12.61-12.83.61c0,0,.35,1.63,5.22,1.88C112.35,57.65,113.28,54.81,113.28,54.81Z"/><path class="cls-105" d="M109.78,57a16.18,16.18,0,0,0,.62-1.7,4.72,4.72,0,0,0-.35-4.14,6.27,6.27,0,0,0-1.62-.73c-1.22.13-2.5,1.43-3.08,3.28a6.33,6.33,0,0,0,0,3.54l.28,0A15,15,0,0,0,109.78,57Z"/><path class="cls-106" d="M105.05,54.82s3.52-2.69,4-.9-4,2.4-4,2.4Z"/><path class="cls-107" d="M134.86,58.1a5.85,5.85,0,0,0,1.21-2.16c.7-2.22.14-4.38-1.26-4.82s-3.1,1-3.8,3.22a5.53,5.53,0,0,0-.11,3.18,19.16,19.16,0,0,0,2,.39C133.61,58,134.25,58.07,134.86,58.1Z"/><path class="cls-106" d="M130.05,55.42s3.75-2.69,4.21-.89-4.21,2.39-4.21,2.39Z"/><path class="cls-16" d="M113.28,54.81s-3-5-7.43-3.7c-4.73,1.4-5.4,4.31-5.4,4.31s-.58-5.8,5.4-6.93C112.63,47.2,113.28,54.81,113.28,54.81Z"/><path class="cls-16" d="M126.74,54.66s2.15-4.25,7.87-2.78a10.1,10.1,0,0,1,6.25,4.7,7.8,7.8,0,0,0-5.39-7.46C129.17,47,126.74,54.66,126.74,54.66Z"/><path class="cls-108" d="M109.76,76.22l-.06-.07a1.23,1.23,0,0,1,.1-1.67c2.67-2.61,5.56-3.93,8.6-3.92,4.53,0,8.1,3,9.61,4.47a1.2,1.2,0,0,1,0,1.66l-.07.07a1,1,0,0,1-1.39,0c-1.3-1.28-4.43-3.89-8.23-3.88a10.19,10.19,0,0,0-7.1,3.29A1,1,0,0,1,109.76,76.22Z"/><path class="cls-100" d="M149.37,52.85h-2.92a46.44,46.44,0,0,1-1.21,5.48,17.28,17.28,0,0,1-2.79,5.13,10.79,10.79,0,0,1-10,3.72c-4.3-.7-8.14-3.27-12.58-3.29a15,15,0,0,0-7.19,1.6,15.37,15.37,0,0,1-5.37,2.2,9.57,9.57,0,0,1-9.67-5.23,19.25,19.25,0,0,1-1.49-5c-.23-1.33-.7-3.3-.37-4.64-3.64,14.8-5.73,38.46,25.4,38s26.91-23.89,26.91-23.89C146.63,61.66,149.37,52.85,149.37,52.85ZM122.58,76a7.44,7.44,0,0,0-6.16-.9c-2.14.63-3.83,2.78-6,3-1.89.15-2.88-1.89-2.46-3.51,1.61-6.17,11-6.76,15.92-5,2.64.93,9.13,5.16,5.43,8.45C126.89,80.09,124.46,77.24,122.58,76Z"/><path class="cls-17" d="M116.48,57.82s-4.28-3.13-5.81,2.32,9.33,8.73,12.34,3-4.75-16.35-4.75-16.35S119.77,53.38,116.48,57.82Z"/><path class="cls-109" d="M116.48,57.82s-4.15-3-5.7,2a39,39,0,0,0,6.79,1.06,29.78,29.78,0,0,0,1.94-10.65l-.92-.27A12.42,12.42,0,0,1,116.48,57.82Z"/><path class="cls-13" d="M110.56,61.66c.62,4.48,9.73,6.65,12.45,1.52a6,6,0,0,0,.39-1A27,27,0,0,1,110.56,61.66Z"/><path class="cls-110" d="M79.75,245.12l2.42-.49a27.21,27.21,0,0,1,.13,23.46l-2.86-.85Z"/><path class="cls-111" d="M115,77.66s2.28-2.39,6.42-.15A3,3,0,0,1,118.22,80C115.23,80,115,77.66,115,77.66Z"/><path class="cls-110" d="M153.27,265.11l-3,1.42a23.52,23.52,0,0,1-3.58-11.75A32.77,32.77,0,0,1,149.67,242l2.5,1.16Z"/><path class="cls-112" d="M80.44,245h0a39.45,39.45,0,0,1,1.11,12.23,32.28,32.28,0,0,1-2.11,10S39.67,250.33,44.71,244.5C48.76,239.81,80.44,245,80.44,245Z"/><path class="cls-112" d="M152.7,243.06l-.53.06a29.55,29.55,0,0,0-1.79,12.09c.5,6.5,2.65,9.9,2.65,9.9s48.31-15.93,43.27-21.77C192.25,238.65,152.7,243.06,152.7,243.06Z"/><path class="cls-113" d="M76.93,228.71l3.72,14.95s13.79,3.93,36,3.93c23.82,0,37.91-5.88,37.91-5.88l4.22-13Z"/><path class="cls-114" d="M164.19,114.3c-.55-7.5-8.39-13.08-19.78-16.07-.74,1.71-2.41,3.38-3.66,5A23.67,23.67,0,0,1,124.12,112c-9.6.8-21.19-5.29-24.28-13.79-4,.69-9.39,4.18-13.13,7.84C70,122.37,73.22,210.35,74.12,231.39a6.43,6.43,0,0,0,5.28,6.05A215.31,215.31,0,0,0,117,240.5c13.45,0,29.64-1.76,37.82-2.76a6.37,6.37,0,0,0,5.59-6C161.53,211.37,165.44,131,164.19,114.3Z"/><path class="cls-115" d="M164.4,119.42A112.3,112.3,0,0,1,162.13,137q-.54,2.79-1.13,5.57c-.58,4.16-9.7,66.13-51.92,65.61-9-.11-18.22-6.62-23.6-13.88-5.2-7-6.67-15.61-8.44-23.93l-.1-.43c0,.23-.23-.91-.83-3.43a40.16,40.16,0,0,1-.75-7.5q-.08-6-.16-12.09c-3.11,31.67-1.65,71.25-1.08,84.46a6.43,6.43,0,0,0,5.28,6.05A215.31,215.31,0,0,0,117,240.5c13.45,0,29.64-1.76,37.82-2.76a6.37,6.37,0,0,0,5.59-6C161.44,213,164.84,143.39,164.4,119.42Z"/><polygon class="cls-116" points="32.96 207.26 33.6 213.71 50.05 213.71 51.11 206.53 32.96 207.26"/><path class="cls-3" d="M37.75,234.9c1.57,3.43,4.52,5.92,7.25,8.33a6.9,6.9,0,0,1,1.75,2,5.71,5.71,0,0,1,.47,2.28,3.59,3.59,0,0,0,.36,1.81,1.66,1.66,0,0,0,1.87.66,2.29,2.29,0,0,0,1.37-1.49,5.14,5.14,0,0,0,.16-2.18,15.54,15.54,0,0,0-1.4-4.72,15.91,15.91,0,0,0-2.53-4.09,9.45,9.45,0,0,1-1.4-1.7,5.81,5.81,0,0,1-.46-2.92,7.49,7.49,0,0,1,.7-3.28,8.29,8.29,0,0,1,2.45-2.45c1.55-1.18,3.76-5.43,1.58-8.4-4.05-5.49-15.59-2.83-15.59-2.83S33,224.5,37.75,234.9Z"/><path class="cls-114" d="M33.83,208.71a4.37,4.37,0,0,1-4.38-4.54,246.3,246.3,0,0,1,2.48-25.71c3.2-21.9,12.36-43.91,28.71-59.26.58-.55,1.21-1.06,1.81-1.6a91.88,91.88,0,0,1,35.8-19.08l1.1-.31,0,27.34c0,.52-6.27,2.27-6.83,2.48a56.74,56.74,0,0,0-11.32,5.72A55.67,55.67,0,0,0,63.09,154c-4.75,8.92-6.48,18.73-7.81,28.65a194.71,194.71,0,0,0-1.85,22,4.21,4.21,0,0,1-4.22,4.13Z"/><polygon class="cls-3" points="208.09 210.13 208.87 216.71 195.01 217.08 194.23 209.55 208.09 210.13"/><polygon class="cls-116" points="210.13 207.26 209.49 213.71 193.82 213.65 192.75 206.47 210.13 207.26"/><path class="cls-3" d="M205.34,234.9c-1.57,3.43-4.52,5.92-7.25,8.33a6.9,6.9,0,0,0-1.75,2,5.71,5.71,0,0,0-.47,2.28,3.59,3.59,0,0,1-.36,1.81,1.66,1.66,0,0,1-1.87.66,2.29,2.29,0,0,1-1.37-1.49,5.14,5.14,0,0,1-.16-2.18,18.37,18.37,0,0,1,3.93-8.81,9.45,9.45,0,0,0,1.4-1.7,5.81,5.81,0,0,0,.46-2.92,7.49,7.49,0,0,0-.7-3.28,8.29,8.29,0,0,0-2.45-2.45c-1.55-1.18-3.76-5.43-1.57-8.4,4-5.49,15.58-2.83,15.58-2.83S210.11,224.5,205.34,234.9Z"/><path class="cls-114" d="M209.26,208.71a4.37,4.37,0,0,0,4.38-4.54,246.3,246.3,0,0,0-2.48-25.71c-3.2-21.9-12.36-43.91-28.71-59.26-.58-.55-1.2-1.08-1.81-1.6-14.34-12-33.83-18.83-34.2-18.93l-2.68,26.88c0,.52,27.2,14.33,35,28.14,4.94,8.82,7.77,19,9.1,28.93a194.71,194.71,0,0,1,1.85,22,4.21,4.21,0,0,0,4.22,4.13Z"/><path class="cls-116" d="M106,96.65s.32,14.95,14.93,15.39c17.25.52,18.62-15.14,18.62-15.14s4.31-.67,6.9,1.77c0,0,1,20.48-25.52,20.29-22.81-.16-21.57-20.83-21.57-20.83S101.38,96.65,106,96.65Z"/></g></g></svg>