<svg xmlns="http://www.w3.org/2000/svg" xmlns:xlink="http://www.w3.org/1999/xlink" viewBox="0 0 336.81 461.16"><defs><style>.cls-1,.cls-104{fill:#d78c74;}.cls-2{fill:#6d7db3;}.cls-3{fill:#b6bdce;}.cls-4{fill:#3d4041;}.cls-5{fill:#363c42;}.cls-6{fill:#dfe5ea;}.cls-7{fill:#002a3d;opacity:0.08;}.cls-8{fill:#7588bc;}.cls-9{fill:#b0b5c1;}.cls-10,.cls-100,.cls-103,.cls-98{fill:#fff;}.cls-10{opacity:0.12;}.cls-11{fill:#6c332e;}.cls-12{fill:#381911;}.cls-13{fill:#e5a185;}.cls-14{opacity:0.72;}.cls-15{fill:#e5a084;}.cls-16{fill:#e59f83;}.cls-17{fill:#e49e83;}.cls-18{fill:#e49d82;}.cls-19{fill:#e49c81;}.cls-20{fill:#e49b80;}.cls-21{fill:#e49a80;}.cls-22{fill:#e3997f;}.cls-23{fill:#e3987e;}.cls-24{fill:#e3977d;}.cls-25{fill:#e3967c;}.cls-26{fill:#e2957c;}.cls-27{fill:#e2947b;}.cls-28{fill:#e2937a;}.cls-29{fill:#e29279;}.cls-30{fill:#e29179;}.cls-31{fill:#e19078;}.cls-32{fill:#e18f77;}.cls-33{fill:#e18e76;}.cls-34{fill:#e18d75;}.cls-35{fill:#e18c75;}.cls-36{fill:#e08b74;}.cls-37{fill:#e08a73;}.cls-38{fill:#e08972;}.cls-39{fill:#e08872;}.cls-40{fill:#df8771;}.cls-41{fill:#df8670;}.cls-42{fill:#df856f;}.cls-43{fill:#df846f;}.cls-44{fill:#df836e;}.cls-45{fill:#de826d;}.cls-46{fill:#de816c;}.cls-47{fill:#de806b;}.cls-48{fill:#de7f6b;}.cls-49{fill:#de7e6a;}.cls-50{fill:#dd7d69;}.cls-51{fill:#dd7c68;}.cls-52{fill:#dd7b68;}.cls-53{fill:#dd7a67;}.cls-54{fill:#dd7a66;}.cls-55{fill:#dc7965;}.cls-56{fill:#dc7864;}.cls-57{fill:#dc7764;}.cls-58{fill:#dc7663;}.cls-59{fill:#db7562;}.cls-60{fill:#db7461;}.cls-61{fill:#db7361;}.cls-62{fill:#db7260;}.cls-63{fill:#db715f;}.cls-64{fill:#da705e;}.cls-65{fill:#da6f5d;}.cls-66{fill:#da6e5d;}.cls-67{fill:#da6d5c;}.cls-68{fill:#da6c5b;}.cls-69{fill:#d96b5a;}.cls-70{fill:#d96a5a;}.cls-71{fill:#d96959;}.cls-72{fill:#d96858;}.cls-73{fill:#d86757;}.cls-74{fill:#d86657;}.cls-75{fill:#d86556;}.cls-76{fill:#d86455;}.cls-77{fill:#d86354;}.cls-78{fill:#d76253;}.cls-79{fill:#d76153;}.cls-80{fill:#d76052;}.cls-81{fill:#d75f51;}.cls-82{fill:#d75e50;}.cls-83{fill:#d65d50;}.cls-84{fill:#d65c4f;}.cls-85{fill:#d65b4e;}.cls-86{fill:#d65a4d;}.cls-87{fill:#d5594c;}.cls-88{fill:#d5584c;}.cls-89{fill:#d5574b;}.cls-90{fill:#d5564a;}.cls-91{fill:#d55549;}.cls-92{fill:#d45449;}.cls-93{fill:#d45348;}.cls-94{fill:#d45247;}.cls-95{fill:#4f372d;}.cls-96{fill:#422e26;}.cls-97{fill:#e5912f;opacity:0.11;}.cls-99{fill:url(#Áåçûìÿííûé_ãðàäèåíò_3);}.cls-100{opacity:0.89;}.cls-101{fill:url(#Áåçûìÿííûé_ãðàäèåíò_3-2);}.cls-102{fill:#c3bba5;opacity:0.35;}.cls-103{opacity:0.2;}.cls-104{opacity:0.6;}</style><linearGradient id="Áåçûìÿííûé_ãðàäèåíò_3" x1="135.79" y1="118.14" x2="145.25" y2="95.84" gradientUnits="userSpaceOnUse"><stop offset="0" stop-color="#9b1313"/><stop offset="1"/></linearGradient><linearGradient id="Áåçûìÿííûé_ãðàäèåíò_3-2" x1="189.1" y1="119.4" x2="197.91" y2="92.69" xlink:href="#Áåçûìÿííûé_ãðàäèåíò_3"/></defs><g id="Layer_2" data-name="Layer 2"><g id="Ñëîé_1" data-name="Ñëîé 1"><path class="cls-1" d="M69.2,134.75c-5.68-.3-19.13,2.25-19.72,2.1l5.7,13.27s13.57-1.31,19.25-5.5S74.45,135,69.2,134.75Z"/><path class="cls-2" d="M205.06,175.63s-1,26.65,44.21,102.52c52.84,88.7,74.65,56.58,74.65,56.58l8.38-19.68S287,230.85,264.87,205,205.06,175.63,205.06,175.63Z"/><path class="cls-3" d="M326.76,288.63s-25.32-40.17-29.85-39.5-30,45.46-20,71.45,66.06,33.72,59.3-11.83C331.41,276.17,326.76,288.63,326.76,288.63Z"/><path class="cls-2" d="M72.16,205C50,230.85,4.74,315.05,4.74,315.05l8.38,19.68s21.81,32.12,74.64-56.58C133,202.28,133.43,177,133.43,177S94.3,179.08,72.16,205Z"/><polygon class="cls-4" points="200.57 438.13 186.56 461.16 201.4 461.16 214.36 438.13 200.57 438.13"/><path class="cls-5" d="M87.79,437.4a121,121,0,0,0-1.31,23.76H231.37L232,433.6Z"/><path class="cls-5" d="M84.11,461.16h3.41L84.17,460C84.15,460.32,84.13,460.72,84.11,461.16Z"/><path class="cls-5" d="M231.07,454.8l-43.72,6.36h46.51C233.7,456.91,232.91,454.7,231.07,454.8Z"/><path class="cls-1" d="M121.65,182v31.61h93.93l-2.91-34.33C184.5,171,148.92,170.64,121.65,182Z"/><path class="cls-6" d="M218.4,179.19c-2.44-.7-4.8,1.65-7.41,1-2.72,16.2-23.27,16.83-45.58,17.19-20.15.33-29.3-4-32.85-19.48-6.68,1.16-23.71,6.58-33.15,12.62V461.16h127V181.56A49.43,49.43,0,0,0,218.4,179.19Z"/><path class="cls-2" d="M155.13,204.73c-.86-4.22-13.57-16.42-16.26-28.12-12.09,0-36.19,9.83-43.57,17-15.78,15.42-16,53.27-17.47,108.27-1.57,57.62-1.63,53.53-8.73,159.24h72.58C139.13,373.77,153.93,217.09,155.13,204.73Z"/><path class="cls-2" d="M252.89,228.42c0-5.33,1-41.87-34.49-49.23-2.44-.7-13.67-3.64-16.28-4.33-2.33,13.92-8,11.12-24.6,29.53-1.52,15.3-13.11,134.76-11.93,256.77h90.52C251,397.08,252.75,283.19,252.89,228.42Z"/><path class="cls-7" d="M132.42,177.28h0s-6.12,27.57,0,39.57c0,0,1.57-17.25,9.16-14.25,5,2,10,9.17,12.77,13.65.38-6,.65-10,.8-11.52-.83-4.09-12.77-15.67-16-27A36.11,36.11,0,0,0,132.42,177.28Z"/><path class="cls-8" d="M129,363.58c3.45-74.2,14.87-161.21,16.45-173l-1-1.52-4.76-.65c-.13.94-13,95.26-16.7,174.91-1.93,41.44-1.86,75.05-1.34,97.86h6C127.17,438.48,127.1,405,129,363.58Z"/><path class="cls-8" d="M185.45,364c.19-83.21,10-172.08,10.13-173l-3.63-.41-2.59,2.17c-1.58,14.89-9.74,95.35-9.91,171.19-.09,41,1.12,74.06,2.38,97.14h6C186.58,438.18,185.35,405.13,185.45,364Z"/><path class="cls-7" d="M206.35,177.28a33.61,33.61,0,0,0-4.74.17c-2.63,11-8.59,9.77-24.09,26.94-.18,1.85-1,7.75-1.4,14.82,5.1-5.33,16.85-14.93,21.1-16.61,7.58-3,9.15,14.25,9.15,14.25,6.11-12,0-39.57,0-39.57Z"/><polygon class="cls-8" points="89.22 231.98 86.18 238.3 138.46 229.51 137.49 223.59 89.22 231.98"/><path class="cls-8" d="M146.14,164.74s-6.24,2.31-14.49,13.57-.75,34.54-.75,34.54,1.25-5.5,4-14.71c4.05-13.54,20.22,6.59,20.22,6.59a76.84,76.84,0,0,0-4.74-15.36C145.4,178.11,146.14,164.74,146.14,164.74Z"/><ellipse class="cls-9" cx="139.95" cy="308.75" rx="4.02" ry="3.56"/><ellipse class="cls-9" cx="135.46" cy="362.73" rx="4.02" ry="3.56"/><path class="cls-9" d="M134,401.15a3.59,3.59,0,1,0,4,3.56A3.81,3.81,0,0,0,134,401.15Z"/><path class="cls-9" d="M134,444.63a3.59,3.59,0,1,0,4,3.56A3.82,3.82,0,0,0,134,444.63Z"/><path class="cls-9" d="M147.45,218.22a3.59,3.59,0,1,0,4,3.56A3.82,3.82,0,0,0,147.45,218.22Z"/><path class="cls-9" d="M143.43,258.48a3.59,3.59,0,1,0,4,3.56A3.81,3.81,0,0,0,143.43,258.48Z"/><rect class="cls-8" x="210.66" y="205.58" width="6" height="49.55" transform="translate(-55.15 393.01) rotate(-78.33)"/><path class="cls-8" d="M193.7,166.65s.43,4.82-4.57,16.09c-3.29,7.41-10.5,12.74-11.66,22.22,0,0,22.35-20.36,26.4-6.82,2.75,9.21,4,14.71,4,14.71s7.5-23.28-.75-34.54S193.7,166.65,193.7,166.65Z"/><path class="cls-3" d="M40.13,249.13C35.6,248.46,16.45,270,16.45,270S1.5,272.29.07,305.19c-2.25,52.09,50,41.39,60,15.39S44.66,249.8,40.13,249.13Z"/><path class="cls-10" d="M146.14,164.74a18.81,18.81,0,0,0-4.18,2.6c-6,5.69-5,17.19-2.35,26.17,6.26-.28,15.52,11.22,15.52,11.22a76.84,76.84,0,0,0-4.74-15.36C145.4,178.11,146.14,164.74,146.14,164.74Z"/><path class="cls-10" d="M193.7,166.65s.43,4.82-4.57,16.09c-3.29,7.41-10.5,12.74-11.66,22.22,0,0,12.94-11.78,20.91-11.44,1.49-9.4,1.56-18.89-4.55-26.85Z"/><path class="cls-8" d="M80,246.18c-1.16,15.82-1.55,34.5-2.13,55.74-.11,3.9-.21,7.51-.3,10.9,7.21-92.51,26.81-124.37,32.76-131.3a35.64,35.64,0,0,0-10.88,4C92,195.6,85.2,219.08,80,246.18Z"/><path class="cls-8" d="M252.57,350.16h0c-1-19,.11-37.84.18-55.54-6.51-70.73-18.91-100.76-26.26-114.09-.66-.27-2.18-1.62-9.21-2.66C217.26,177.87,244.57,232.16,252.57,350.16Z"/><path class="cls-8" d="M85.85,307a9.32,9.32,0,0,0,4.44,8.65l8.59,5.25a7.35,7.35,0,0,0,7.77-.07l11.17-7.09A9,9,0,0,0,122,306.8l2.68-35.19H88.45Z"/><path class="cls-8" d="M195.37,275.63v34.93a10.29,10.29,0,0,0,4.36,8.4l7.31,5.15a10.66,10.66,0,0,0,12.89-.45l10.74-8.76a12.91,12.91,0,0,0,4.74-10.44l-1-28.83Z"/><path class="cls-11" d="M194.79,125.78v0Z"/><ellipse class="cls-1" cx="114.14" cy="116.6" rx="11.29" ry="16.51" transform="translate(-27.18 35.04) rotate(-15.62)"/><path class="cls-12" d="M147.47,22.22s0-.1,0-.27C147.46,22.12,147.47,22.22,147.47,22.22Z"/><path class="cls-13" d="M220.17,112.89c.07-21.24-3-48.09-7.36-63.9-3.34-20.56-61.35-30.27-78.43-2-5.45,13.09-14.3,37.53-17.25,61.8,0-.26,0-.42,0-.42s-15.79,64.56,41.65,68.57,63.84-26.28,61.39-64Z"/><g class="cls-14"><ellipse class="cls-13" cx="140.24" cy="108.3" rx="31.82" ry="20.66" transform="translate(17.1 235.71) rotate(-83.65)"/><path class="cls-15" d="M145.11,77.1c-11.11-2.43-22.3,9.57-25,26.81s4.14,33.17,15.25,35.59,22.3-9.57,25-26.81S156.23,79.52,145.11,77.1Z"/><ellipse class="cls-16" cx="140.24" cy="108.3" rx="31.42" ry="20.4" transform="translate(17.1 235.71) rotate(-83.65)"/><path class="cls-17" d="M145.05,77.49c-11-2.4-22,9.46-24.67,26.47s4.08,32.75,15.05,35.15,22-9.45,24.68-26.47S156,79.89,145.05,77.49Z"/><ellipse class="cls-18" cx="140.24" cy="108.3" rx="31.03" ry="20.14" transform="translate(17.1 235.71) rotate(-83.65)"/><path class="cls-19" d="M145,77.88c-10.83-2.36-21.74,9.34-24.36,26.14s4,32.33,14.87,34.7,21.74-9.34,24.36-26.14S155.82,80.25,145,77.88Z"/><ellipse class="cls-20" cx="140.24" cy="108.3" rx="30.63" ry="19.88" transform="translate(17.1 235.71) rotate(-83.65)"/><ellipse class="cls-21" cx="140.24" cy="108.3" rx="30.43" ry="19.76" transform="translate(17.1 235.71) rotate(-83.65)"/><path class="cls-22" d="M144.9,78.47c-10.62-2.32-21.32,9.16-23.89,25.63s3.95,31.71,14.58,34,21.32-9.15,23.89-25.63S155.52,80.79,144.9,78.47Z"/><ellipse class="cls-23" cx="140.24" cy="108.3" rx="30.03" ry="19.5" transform="translate(17.1 235.71) rotate(-83.65)"/><ellipse class="cls-24" cx="140.24" cy="108.3" rx="29.83" ry="19.37" transform="translate(17.1 235.71) rotate(-83.65)"/><ellipse class="cls-25" cx="140.24" cy="108.3" rx="29.63" ry="19.24" transform="translate(17.1 235.71) rotate(-83.65)"/><ellipse class="cls-26" cx="140.24" cy="108.3" rx="29.43" ry="19.11" transform="translate(17.1 235.71) rotate(-83.65)"/><ellipse class="cls-27" cx="140.24" cy="108.3" rx="29.24" ry="18.98" transform="translate(17.1 235.71) rotate(-83.65)"/><path class="cls-28" d="M144.72,79.65c-10.21-2.23-20.48,8.79-23,24.62s3.8,30.45,14,32.68,20.48-8.79,22.95-24.61S154.92,81.88,144.72,79.65Z"/><path class="cls-29" d="M144.69,79.85c-10.14-2.22-20.34,8.73-22.79,24.44s3.77,30.25,13.9,32.47,20.34-8.74,22.79-24.45S154.82,82.06,144.69,79.85Z"/><ellipse class="cls-30" cx="140.24" cy="108.3" rx="28.64" ry="18.59" transform="translate(17.1 235.71) rotate(-83.65)"/><path class="cls-31" d="M144.62,80.24c-10-2.18-20.05,8.61-22.47,24.11s3.72,29.83,13.71,32,20.06-8.61,22.48-24.11S154.62,82.42,144.62,80.24Z"/><path class="cls-32" d="M144.59,80.43c-9.92-2.16-19.91,8.56-22.32,23.95S126,134,135.89,136.17s19.92-8.56,22.32-23.95S154.52,82.6,144.59,80.43Z"/><ellipse class="cls-33" cx="140.24" cy="108.3" rx="28.04" ry="18.21" transform="translate(17.1 235.71) rotate(-83.65)"/><ellipse class="cls-34" cx="140.24" cy="108.3" rx="27.84" ry="18.08" transform="translate(17.1 235.71) rotate(-83.65)"/><ellipse class="cls-35" cx="140.24" cy="108.3" rx="27.64" ry="17.95" transform="translate(17.1 235.71) rotate(-83.65)"/><ellipse class="cls-36" cx="140.24" cy="108.3" rx="27.45" ry="17.82" transform="translate(17.1 235.71) rotate(-83.65)"/><path class="cls-37" d="M144.44,81.42c-9.57-2.1-19.21,8.25-21.53,23.09s3.56,28.58,13.14,30.68,19.21-8.26,21.53-23.1S154,83.51,144.44,81.42Z"/><path class="cls-38" d="M144.41,81.61c-9.5-2.07-19.07,8.19-21.38,22.93s3.54,28.37,13.05,30.45,19.07-8.19,21.37-22.93S153.91,83.69,144.41,81.61Z"/><ellipse class="cls-39" cx="140.24" cy="108.3" rx="26.85" ry="17.43" transform="translate(17.1 235.71) rotate(-83.65)"/><ellipse class="cls-40" cx="140.24" cy="108.3" rx="26.65" ry="17.3" transform="translate(17.1 235.71) rotate(-83.65)"/><ellipse class="cls-41" cx="140.24" cy="108.3" rx="26.45" ry="17.17" transform="translate(17.1 235.71) rotate(-83.65)"/><ellipse class="cls-42" cx="140.24" cy="108.3" rx="26.25" ry="17.04" transform="translate(17.1 235.71) rotate(-83.65)"/><ellipse class="cls-43" cx="140.24" cy="108.3" rx="26.05" ry="16.91" transform="translate(17.1 235.71) rotate(-83.65)"/><ellipse class="cls-44" cx="140.24" cy="108.3" rx="25.85" ry="16.79" transform="translate(17.1 235.71) rotate(-83.65)"/><ellipse class="cls-45" cx="140.24" cy="108.3" rx="25.66" ry="16.66" transform="translate(17.1 235.71) rotate(-83.65)"/><ellipse class="cls-46" cx="140.24" cy="108.3" rx="25.46" ry="16.53" transform="translate(17.1 235.71) rotate(-83.65)"/><ellipse class="cls-47" cx="140.24" cy="108.3" rx="25.26" ry="16.4" transform="translate(17.1 235.71) rotate(-83.65)"/><ellipse class="cls-48" cx="140.24" cy="108.3" rx="25.06" ry="16.27" transform="translate(17.1 235.71) rotate(-83.65)"/><ellipse class="cls-49" cx="140.24" cy="108.3" rx="24.86" ry="16.14" transform="translate(17.1 235.71) rotate(-83.65)"/><ellipse class="cls-50" cx="140.24" cy="108.3" rx="24.66" ry="16.01" transform="translate(17.1 235.71) rotate(-83.65)"/><ellipse class="cls-51" cx="140.24" cy="108.3" rx="24.46" ry="15.88" transform="translate(17.1 235.71) rotate(-83.65)"/><ellipse class="cls-52" cx="140.24" cy="108.3" rx="24.26" ry="15.75" transform="translate(17.1 235.71) rotate(-83.65)"/><ellipse class="cls-53" cx="140.24" cy="108.3" rx="24.06" ry="15.62" transform="translate(17.1 235.71) rotate(-83.65)"/><ellipse class="cls-54" cx="140.24" cy="108.3" rx="23.87" ry="15.49" transform="translate(17.1 235.71) rotate(-83.65)"/><ellipse class="cls-55" cx="140.24" cy="108.3" rx="23.67" ry="15.37" transform="translate(17.1 235.71) rotate(-83.65)"/><ellipse class="cls-56" cx="140.24" cy="108.3" rx="23.47" ry="15.24" transform="translate(17.1 235.71) rotate(-83.65)"/><ellipse class="cls-57" cx="140.24" cy="108.3" rx="23.27" ry="15.11" transform="translate(17.1 235.71) rotate(-83.65)"/><ellipse class="cls-58" cx="140.24" cy="108.3" rx="23.07" ry="14.98" transform="translate(17.1 235.71) rotate(-83.65)"/><ellipse class="cls-59" cx="140.24" cy="108.3" rx="22.87" ry="14.85" transform="translate(17.1 235.71) rotate(-83.65)"/><ellipse class="cls-60" cx="140.24" cy="108.3" rx="22.67" ry="14.72" transform="translate(17.1 235.71) rotate(-83.65)"/><ellipse class="cls-61" cx="140.24" cy="108.3" rx="22.47" ry="14.59" transform="matrix(0.11, -0.99, 0.99, 0.11, 17.1, 235.71)"/><ellipse class="cls-62" cx="140.24" cy="108.3" rx="22.27" ry="14.46" transform="translate(17.1 235.71) rotate(-83.65)"/><ellipse class="cls-63" cx="140.24" cy="108.3" rx="22.08" ry="14.33" transform="translate(17.1 235.71) rotate(-83.65)"/><ellipse class="cls-64" cx="140.24" cy="108.3" rx="21.88" ry="14.2" transform="translate(17.1 235.71) rotate(-83.65)"/><path class="cls-65" d="M143.58,86.91c-7.61-1.66-15.29,6.56-17.13,18.38s2.84,22.74,10.45,24.4,15.29-6.56,17.14-18.38S151.2,88.57,143.58,86.91Z"/><ellipse class="cls-66" cx="140.24" cy="108.3" rx="21.48" ry="13.94" transform="translate(17.1 235.71) rotate(-83.65)"/><path class="cls-67" d="M143.52,87.3c-7.48-1.63-15,6.45-16.82,18s2.79,22.33,10.27,24,15-6.45,16.81-18S151,88.94,143.52,87.3Z"/><ellipse class="cls-68" cx="140.24" cy="108.3" rx="21.08" ry="13.69" transform="translate(17.1 235.71) rotate(-83.65)"/><ellipse class="cls-69" cx="140.24" cy="108.3" rx="20.88" ry="13.56" transform="translate(17.1 235.71) rotate(-83.65)"/><ellipse class="cls-70" cx="140.24" cy="108.3" rx="20.68" ry="13.43" transform="matrix(0.11, -0.99, 0.99, 0.11, 17.1, 235.71)"/><ellipse class="cls-71" cx="140.24" cy="108.3" rx="20.48" ry="13.3" transform="translate(17.1 235.71) rotate(-83.65)"/><ellipse class="cls-72" cx="140.24" cy="108.3" rx="20.29" ry="13.17" transform="translate(17.1 235.71) rotate(-83.65)"/><path class="cls-73" d="M143.34,88.48c-7.06-1.54-14.17,6.08-15.88,17s2.63,21.07,9.69,22.61,14.17-6.08,15.87-17S150.4,90,143.34,88.48Z"/><ellipse class="cls-74" cx="140.24" cy="108.3" rx="19.89" ry="12.91" transform="translate(17.1 235.71) rotate(-83.65)"/><path class="cls-75" d="M143.28,88.87c-6.92-1.51-13.89,6-15.56,16.69s2.57,20.66,9.49,22.17,13.89-6,15.56-16.69S150.2,90.38,143.28,88.87Z"/><ellipse class="cls-76" cx="140.24" cy="108.3" rx="19.49" ry="12.65" transform="translate(17.1 235.71) rotate(-83.65)"/><ellipse class="cls-77" cx="140.24" cy="108.3" rx="19.29" ry="12.52" transform="translate(17.1 235.71) rotate(-83.65)"/><ellipse class="cls-78" cx="140.24" cy="108.3" rx="19.09" ry="12.4" transform="translate(17.1 235.71) rotate(-83.65)"/><ellipse class="cls-79" cx="140.24" cy="108.3" rx="18.89" ry="12.27" transform="translate(17.1 235.71) rotate(-83.65)"/><path class="cls-80" d="M143.12,89.85c-6.57-1.43-13.18,5.66-14.77,15.85s2.45,19.61,9,21,13.19-5.66,14.78-15.85S149.69,91.29,143.12,89.85Z"/><ellipse class="cls-81" cx="140.24" cy="108.3" rx="18.5" ry="12.01" transform="translate(17.1 235.71) rotate(-83.65)"/><path class="cls-82" d="M143.06,90.25c-6.43-1.41-12.9,5.54-14.46,15.51s2.4,19.19,8.83,20.59,12.9-5.54,14.46-15.51S149.49,91.65,143.06,90.25Z"/><path class="cls-83" d="M143,90.44c-6.36-1.39-12.76,5.48-14.3,15.35s2.37,19,8.73,20.37,12.76-5.48,14.3-15.34S149.39,91.83,143,90.44Z"/><path class="cls-84" d="M143,90.64c-6.29-1.38-12.62,5.42-14.14,15.17s2.34,18.78,8.63,20.15,12.62-5.42,14.14-15.17S149.29,92,143,90.64Z"/><path class="cls-85" d="M143,90.83c-6.22-1.35-12.48,5.36-14,15s2.32,18.57,8.54,19.93,12.48-5.36,14-15S149.19,92.19,143,90.83Z"/><path class="cls-86" d="M142.94,91c-6.15-1.34-12.34,5.3-13.83,14.84s2.29,18.36,8.44,19.7,12.34-5.3,13.83-14.84S149.09,92.37,142.94,91Z"/><path class="cls-87" d="M142.91,91.23c-6.08-1.33-12.2,5.24-13.68,14.67s2.27,18.15,8.35,19.47,12.2-5.24,13.67-14.67S149,92.56,142.91,91.23Z"/><ellipse class="cls-88" cx="140.24" cy="108.3" rx="17.1" ry="11.1" transform="translate(17.1 235.71) rotate(-83.65)"/><ellipse class="cls-89" cx="140.24" cy="108.3" rx="16.91" ry="10.98" transform="translate(17.1 235.71) rotate(-83.65)"/><path class="cls-90" d="M142.82,91.82C137,90.53,131,96.87,129.61,106s2.19,17.52,8.06,18.8,11.78-5,13.2-14.16S148.69,93.1,142.82,91.82Z"/><path class="cls-91" d="M142.79,92c-5.8-1.26-11.64,5-13,14s2.16,17.31,8,18.58,11.64-5,13.05-14S148.59,93.28,142.79,92Z"/><ellipse class="cls-92" cx="140.24" cy="108.3" rx="16.31" ry="10.59" transform="translate(17.1 235.71) rotate(-83.65)"/><ellipse class="cls-93" cx="140.24" cy="108.3" rx="16.11" ry="10.46" transform="translate(17.1 235.71) rotate(-83.65)"/><path class="cls-94" d="M142.69,92.6c-5.59-1.22-11.22,4.82-12.57,13.49s2.08,16.69,7.67,17.91,11.22-4.82,12.58-13.49S148.29,93.82,142.69,92.6Z"/></g><g class="cls-14"><path class="cls-13" d="M194.63,77.89c-11.67-.67-20.92,13-20.65,30.56s9.94,32.31,21.61,33,20.91-13,20.65-30.56S206.3,78.56,194.63,77.89Z"/><path class="cls-15" d="M194.63,78.09C183,77.43,173.85,91,174.11,108.46s9.88,32.11,21.47,32.77,20.79-12.94,20.53-30.37S206.23,78.75,194.63,78.09Z"/><ellipse class="cls-16" cx="195.11" cy="109.66" rx="20.8" ry="31.44" transform="translate(-7.35 14.24) rotate(-4.1)"/><ellipse class="cls-17" cx="195.11" cy="109.66" rx="20.67" ry="31.24" transform="translate(-7.35 14.24) rotate(-4.1)"/><ellipse class="cls-18" cx="195.11" cy="109.66" rx="20.54" ry="31.04" transform="translate(-7.35 14.24) rotate(-4.1)"/><ellipse class="cls-19" cx="195.11" cy="109.66" rx="20.41" ry="30.84" transform="translate(-7.35 14.24) rotate(-4.1)"/><ellipse class="cls-20" cx="195.11" cy="109.66" rx="20.28" ry="30.64" transform="matrix(1, -0.07, 0.07, 1, -7.35, 14.24)"/><ellipse class="cls-21" cx="195.11" cy="109.66" rx="20.15" ry="30.44" transform="translate(-7.35 14.24) rotate(-4.1)"/><ellipse class="cls-22" cx="195.11" cy="109.66" rx="20.01" ry="30.25" transform="translate(-7.35 14.24) rotate(-4.1)"/><ellipse class="cls-23" cx="195.11" cy="109.66" rx="19.88" ry="30.05" transform="translate(-7.35 14.24) rotate(-4.1)"/><ellipse class="cls-24" cx="195.11" cy="109.66" rx="19.75" ry="29.85" transform="translate(-7.35 14.24) rotate(-4.1)"/><ellipse class="cls-25" cx="195.11" cy="109.66" rx="19.62" ry="29.65" transform="translate(-7.35 14.24) rotate(-4.1)"/><path class="cls-26" d="M194.67,80.27c-10.8-.61-19.35,12-19.11,28.27s9.19,29.89,20,30.5,19.35-12,19.1-28.27S205.46,80.89,194.67,80.27Z"/><ellipse class="cls-27" cx="195.11" cy="109.66" rx="19.36" ry="29.25" transform="translate(-7.35 14.24) rotate(-4.1)"/><ellipse class="cls-28" cx="195.11" cy="109.66" rx="19.22" ry="29.05" transform="translate(-7.35 14.24) rotate(-4.1)"/><ellipse class="cls-29" cx="195.11" cy="109.66" rx="19.09" ry="28.85" transform="translate(-7.35 14.24) rotate(-4.1)"/><ellipse class="cls-30" cx="195.11" cy="109.66" rx="18.96" ry="28.65" transform="translate(-7.35 14.24) rotate(-4.1)"/><ellipse class="cls-31" cx="195.11" cy="109.66" rx="18.83" ry="28.45" transform="translate(-7.35 14.24) rotate(-4.1)"/><ellipse class="cls-32" cx="195.11" cy="109.66" rx="18.7" ry="28.26" transform="translate(-7.35 14.24) rotate(-4.1)"/><ellipse class="cls-33" cx="195.11" cy="109.66" rx="18.57" ry="28.06" transform="translate(-7.35 14.24) rotate(-4.1)"/><path class="cls-34" d="M194.69,81.86c-10.21-.58-18.3,11.39-18.07,26.74s8.69,28.27,18.91,28.86,18.3-11.39,18.07-26.75S204.9,82.44,194.69,81.86Z"/><path class="cls-35" d="M194.69,82.06c-10.14-.58-18.17,11.31-17.94,26.55s8.63,28.07,18.77,28.65,18.17-11.31,17.95-26.55S204.83,82.64,194.69,82.06Z"/><path class="cls-36" d="M194.7,82.26c-10.07-.58-18,11.23-17.82,26.36s8.57,27.86,18.64,28.44,18-11.23,17.81-26.36S204.76,82.83,194.7,82.26Z"/><ellipse class="cls-37" cx="195.11" cy="109.66" rx="18.04" ry="27.26" transform="translate(-7.35 14.24) rotate(-4.1)"/><ellipse class="cls-38" cx="195.11" cy="109.66" rx="17.91" ry="27.06" transform="translate(-7.35 14.24) rotate(-4.1)"/><ellipse class="cls-39" cx="195.11" cy="109.66" rx="17.78" ry="26.86" transform="translate(-7.35 14.24) rotate(-4.1)"/><ellipse class="cls-40" cx="195.11" cy="109.66" rx="17.64" ry="26.66" transform="translate(-7.35 14.24) rotate(-4.1)"/><ellipse class="cls-41" cx="195.11" cy="109.66" rx="17.51" ry="26.46" transform="translate(-7.35 14.24) rotate(-4.1)"/><ellipse class="cls-42" cx="195.11" cy="109.66" rx="17.38" ry="26.27" transform="matrix(1, -0.07, 0.07, 1, -7.35, 14.24)"/><ellipse class="cls-43" cx="195.11" cy="109.66" rx="17.25" ry="26.07" transform="translate(-7.35 14.24) rotate(-4.1)"/><ellipse class="cls-44" cx="195.11" cy="109.66" rx="17.12" ry="25.87" transform="translate(-7.35 14.24) rotate(-4.1)"/><path class="cls-45" d="M194.72,84.05c-9.41-.54-16.86,10.49-16.65,24.64s8,26.05,17.42,26.58,16.87-10.49,16.65-24.64S204.13,84.58,194.72,84.05Z"/><ellipse class="cls-46" cx="195.11" cy="109.66" rx="16.85" ry="25.47" transform="translate(-7.35 14.24) rotate(-4.1)"/><ellipse class="cls-47" cx="195.11" cy="109.66" rx="16.72" ry="25.27" transform="matrix(1, -0.07, 0.07, 1, -7.35, 14.24)"/><ellipse class="cls-48" cx="195.11" cy="109.66" rx="16.59" ry="25.07" transform="translate(-7.35 14.24) rotate(-4.1)"/><ellipse class="cls-49" cx="195.11" cy="109.66" rx="16.46" ry="24.87" transform="translate(-7.35 14.24) rotate(-4.1)"/><ellipse class="cls-50" cx="195.11" cy="109.66" rx="16.33" ry="24.67" transform="matrix(1, -0.07, 0.07, 1, -7.35, 14.24)"/><ellipse class="cls-51" cx="195.11" cy="109.66" rx="16.2" ry="24.47" transform="translate(-7.35 14.24) rotate(-4.1)"/><ellipse class="cls-52" cx="195.11" cy="109.66" rx="16.06" ry="24.28" transform="translate(-7.35 14.24) rotate(-4.1)"/><path class="cls-53" d="M194.75,85.63c-8.83-.5-15.82,9.85-15.62,23.12s7.51,24.43,16.34,24.93,15.82-9.84,15.62-23.11S203.57,86.14,194.75,85.63Z"/><ellipse class="cls-54" cx="195.11" cy="109.66" rx="15.8" ry="23.88" transform="translate(-7.35 14.24) rotate(-4.1)"/><ellipse class="cls-55" cx="195.11" cy="109.66" rx="15.67" ry="23.68" transform="translate(-7.35 14.24) rotate(-4.1)"/><ellipse class="cls-56" cx="195.11" cy="109.66" rx="15.54" ry="23.48" transform="translate(-7.35 14.24) rotate(-4.1)"/><ellipse class="cls-57" cx="195.11" cy="109.66" rx="15.41" ry="23.28" transform="translate(-7.35 14.24) rotate(-4.1)"/><ellipse class="cls-58" cx="195.11" cy="109.66" rx="15.27" ry="23.08" transform="translate(-7.35 14.24) rotate(-4.1)"/><ellipse class="cls-59" cx="195.11" cy="109.66" rx="15.14" ry="22.88" transform="matrix(1, -0.07, 0.07, 1, -7.35, 14.24)"/><ellipse class="cls-60" cx="195.11" cy="109.66" rx="15.01" ry="22.68" transform="translate(-7.35 14.24) rotate(-4.1)"/><ellipse class="cls-61" cx="195.11" cy="109.66" rx="14.88" ry="22.48" transform="translate(-7.35 14.24) rotate(-4.1)"/><ellipse class="cls-62" cx="195.11" cy="109.66" rx="14.75" ry="22.29" transform="translate(-7.35 14.24) rotate(-4.1)"/><ellipse class="cls-63" cx="195.11" cy="109.66" rx="14.62" ry="22.09" transform="translate(-7.35 14.24) rotate(-4.1)"/><ellipse class="cls-64" cx="195.11" cy="109.66" rx="14.48" ry="21.89" transform="translate(-7.35 14.24) rotate(-4.1)"/><ellipse class="cls-65" cx="195.11" cy="109.66" rx="14.35" ry="21.69" transform="translate(-7.35 14.24) rotate(-4.1)"/><ellipse class="cls-66" cx="195.11" cy="109.66" rx="14.22" ry="21.49" transform="translate(-7.35 14.24) rotate(-4.1)"/><path class="cls-67" d="M194.79,88.41C187,88,180.8,97.12,181,108.85s6.64,21.61,14.45,22.05,14-8.7,13.81-20.43S202.59,88.86,194.79,88.41Z"/><ellipse class="cls-68" cx="195.11" cy="109.66" rx="13.96" ry="21.09" transform="translate(-7.35 14.24) rotate(-4.1)"/><path class="cls-69" d="M194.79,88.81c-7.65-.44-13.72,8.54-13.55,20.06s6.52,21.2,14.18,21.64S209.15,122,209,110.45,202.45,89.25,194.79,88.81Z"/><ellipse class="cls-70" cx="195.11" cy="109.66" rx="13.69" ry="20.69" transform="translate(-7.35 14.24) rotate(-4.1)"/><ellipse class="cls-71" cx="195.11" cy="109.66" rx="13.56" ry="20.5" transform="translate(-7.35 14.24) rotate(-4.1)"/><ellipse class="cls-72" cx="195.11" cy="109.66" rx="13.43" ry="20.3" transform="translate(-7.35 14.24) rotate(-4.1)"/><path class="cls-73" d="M194.81,89.61c-7.37-.42-13.21,8.21-13,19.29s6.27,20.39,13.64,20.81,13.2-8.21,13-19.29S202.17,90,194.81,89.61Z"/><ellipse class="cls-74" cx="195.11" cy="109.66" rx="13.17" ry="19.9" transform="translate(-7.35 14.24) rotate(-4.1)"/><path class="cls-75" d="M194.81,90c-7.22-.41-12.94,8.06-12.78,18.91s6.15,20,13.37,20.41,12.95-8.06,12.78-18.91S202,90.41,194.81,90Z"/><ellipse class="cls-76" cx="195.11" cy="109.66" rx="12.9" ry="19.5" transform="translate(-7.35 14.24) rotate(-4.1)"/><ellipse class="cls-77" cx="195.11" cy="109.66" rx="12.77" ry="19.3" transform="translate(-7.35 14.24) rotate(-4.1)"/><ellipse class="cls-78" cx="195.11" cy="109.66" rx="12.64" ry="19.1" transform="translate(-7.35 14.24) rotate(-4.1)"/><ellipse class="cls-79" cx="195.11" cy="109.66" rx="12.51" ry="18.9" transform="translate(-7.35 14.24) rotate(-4.1)"/><path class="cls-80" d="M194.83,91c-6.86-.4-12.29,7.64-12.14,18s5.84,19,12.7,19.37,12.29-7.64,12.13-17.95S201.68,91.39,194.83,91Z"/><ellipse class="cls-81" cx="195.11" cy="109.66" rx="12.25" ry="18.51" transform="translate(-7.35 14.24) rotate(-4.1)"/><ellipse class="cls-82" cx="195.11" cy="109.66" rx="12.11" ry="18.31" transform="translate(-7.35 14.24) rotate(-4.1)"/><path class="cls-83" d="M194.84,91.59c-6.64-.38-11.9,7.4-11.75,17.38s5.65,18.38,12.29,18.76,11.9-7.41,11.75-17.38S201.47,92,194.84,91.59Z"/><path class="cls-84" d="M194.84,91.79c-6.57-.37-11.77,7.32-11.62,17.19s5.59,18.17,12.16,18.55,11.76-7.32,11.61-17.19S201.4,92.16,194.84,91.79Z"/><ellipse class="cls-85" cx="195.11" cy="109.66" rx="11.72" ry="17.71" transform="translate(-7.35 14.24) rotate(-4.1)"/><ellipse class="cls-86" cx="195.11" cy="109.66" rx="11.59" ry="17.51" transform="translate(-7.35 14.24) rotate(-4.1)"/><ellipse class="cls-87" cx="195.11" cy="109.66" rx="11.46" ry="17.31" transform="translate(-7.35 14.24) rotate(-4.1)"/><path class="cls-88" d="M194.85,92.58c-6.27-.35-11.24,7-11.1,16.43s5.34,17.37,11.61,17.72,11.25-7,11.11-16.42S201.12,92.94,194.85,92.58Z"/><ellipse class="cls-89" cx="195.11" cy="109.66" rx="11.19" ry="16.91" transform="translate(-7.35 14.24) rotate(-4.1)"/><ellipse class="cls-90" cx="195.11" cy="109.66" rx="11.06" ry="16.71" transform="translate(-7.35 14.24) rotate(-4.1)"/><path class="cls-91" d="M194.86,93.18c-6.05-.35-10.85,6.75-10.71,15.85s5.15,16.76,11.21,17.11,10.85-6.75,10.71-15.86S200.91,93.53,194.86,93.18Z"/><ellipse class="cls-92" cx="195.11" cy="109.66" rx="10.8" ry="16.32" transform="translate(-7.35 14.24) rotate(-4.1)"/><path class="cls-93" d="M194.87,93.58c-5.91-.34-10.59,6.59-10.46,15.47s5,16.35,10.94,16.69,10.59-6.59,10.46-15.47S200.77,93.91,194.87,93.58Z"/><path class="cls-94" d="M194.87,93.78c-5.84-.34-10.46,6.5-10.33,15.28s5,16.15,10.81,16.48,10.46-6.51,10.32-15.28S200.7,94.11,194.87,93.78Z"/></g><path class="cls-13" d="M232.52,102.49c-5.87-2.11-13,3.19-15.85,11.84s-.45,17.37,5.42,19.49,13-3.19,15.84-11.84S238.39,104.6,232.52,102.49Z"/><path class="cls-1" d="M233.14,122.92c-5.7,3.63-11.76,2.44-16.15-1.14.1,7.28-1.47,21.09-11.94,35.17-8.4,11.3-26.53,15-40,14.49-32.12-1.22-40.55-11.05-47.14-24.31,4.51,14.54,15.6,28,40.86,29.77,46.8,3.27,59.71-16.23,61.57-44a8.43,8.43,0,0,0,1.74.9c5.87,2.11,13-3.19,15.84-11.84a23.43,23.43,0,0,0,1.2-6.58A14.57,14.57,0,0,1,233.14,122.92Z"/><path class="cls-1" d="M222.79,118.19l5.37.77c0-8.47,6.25-11.29,6.25-11.29C224.21,104,222.79,118.19,222.79,118.19Z"/><path class="cls-11" d="M187.63,134.05v0A.06.06,0,0,0,187.63,134.05Z"/><path class="cls-95" d="M172.36,20.11C112.86,24.06,121.51,90,121.51,90c3.54-19.61,15.8-43.94,25.17-44.42A35.68,35.68,0,0,0,167,52.49c10.9.23,26-7.71,26-7.71,10.87-.25,23.31,33.41,24.76,60.53.34,6.21,5.73-1,5.73-1S230.67,16.25,172.36,20.11Z"/><path class="cls-95" d="M203.46,25.25C185.87-1.6,128.54,6.19,128.54,6.19,123,36.66,144.28,43.53,144.28,43.53s49.63-8.85,57.15-3.55,22.17,47.9,22.17,47.9,12.69-44.46,3.34-60.82C220.07,15.06,203.46,25.25,203.46,25.25Z"/><path class="cls-95" d="M150.72,0c.2,4,3.68,8.13,3.68,8.13S214.52,49,203.46,25.25,150.72,0,150.72,0Z"/><path class="cls-95" d="M213.21,17.08c-3.39.52-4.18,2.12-4.18,2.12,2.43-4.45.76-10.5.76-10.5-6.61,3.78-6,9.05-6,9.05-3.23-6.78-13.2-8.88-13.2-8.88.32,5.6,6.3,11.32,6.62,11.49l5.17,7.89,10.73-1.69-1.06-4.78A5.89,5.89,0,0,0,213.21,17.08Z"/><path class="cls-96" d="M130.14,29.38c-17.48,5.32-12.42,75-12.42,75,3.55-19.61,19.59-58.28,29-58.76A61.66,61.66,0,0,1,130.14,29.38Z"/><path class="cls-10" d="M198.18,24.73h0S198.28,24.73,198.18,24.73Z"/><path class="cls-10" d="M198.19,24.74Z"/><path class="cls-97" d="M220.17,21.66c-2.15.34-4.41.88-6.74,1.41-5.56,1.27-11.42,2.11-17.12,1.35-6.63-.89-12.44-3.85-18.32-6.82-3-1.51-5.94-3-9-4.34-6.55-2.81-14.28-5.57-21.51-5.33a30.15,30.15,0,0,0-10.38,2.55,22.36,22.36,0,0,0-7.4,5,20.11,20.11,0,0,0-2,2.35,37.36,37.36,0,0,0,.87,6.55l.71-.57a22.38,22.38,0,0,1,4.42-2.52,19.69,19.69,0,0,1,5.93-1.5c8.59-.66,16.58,2.79,24.34,6,3.18,1.31,6.42,2.84,9.84,4.26a108.63,108.63,0,0,0,10.68,4c6.26,1.91,13.91,2.49,20.29.72.86-.24,1.71-.44,2.54-.7A57.11,57.11,0,0,0,216,30.34c2.48-1.28,4.61-2.44,6.49-3.32A23.22,23.22,0,0,1,226,25.61,10.57,10.57,0,0,0,220.17,21.66Z"/><path class="cls-10" d="M198.05,24.74h0Z"/><path class="cls-98" d="M195.28,96.21c-10.07.48-15.78,10.89-15.78,10.89s2.42,7.93,14.25,6.5,14.26-6,14.26-6S207,95.66,195.28,96.21Z"/><path class="cls-98" d="M125.19,104.47s-.91,5.54,9.55,7.71c12.85,2.67,15.95-3.59,15.95-3.59S133.12,83.52,125.19,104.47Z"/><path class="cls-99" d="M142.56,100.15c-2.74-.86-6.07,2-7.45,6.33a11.25,11.25,0,0,0-.36,5.71,24.51,24.51,0,0,0,8.85.42,11.73,11.73,0,0,0,1.43-3C146.41,105.25,145.3,101,142.56,100.15Z"/><path class="cls-100" d="M134,108.6v3s8.08-1.19,7.28-4.71S134,108.6,134,108.6Z"/><path class="cls-101" d="M195.33,100.15c-2.74-.86-6.07,2-7.45,6.33a10.3,10.3,0,0,0,.07,7,19.32,19.32,0,0,0,5.8.09c.76-.09,1.47-.19,2.15-.31a11.85,11.85,0,0,0,1.91-3.68C199.18,105.25,198.07,101,195.33,100.15Z"/><path class="cls-100" d="M186,108.6v3s8.08-1.19,7.28-4.71S186,108.6,186,108.6Z"/><path class="cls-96" d="M137.93,94.84c-10.22-2.19-12.74,9.63-12.74,9.63s1.85-6.93,10.77-6c7.22.73,14.73,10.16,14.73,10.16S149,97.2,137.93,94.84Z"/><path class="cls-96" d="M194.82,95.6c-13.28.91-15.32,11.5-15.32,11.5a19.93,19.93,0,0,1,16.42-6.7c11.56.83,12.09,7.65,12.09,7.65S207.87,94.7,194.82,95.6Z"/><path class="cls-96" d="M134,76.36l-2,4.48c12.93-.33,17.39,9.42,20.24,15.92l5.65-8.06C150,73.63,134,76.36,134,76.36Z"/><path class="cls-96" d="M176.94,87.85l4.22,9.35s5.48-16.73,23.16-15.44l-1-2.35S189.42,72.13,176.94,87.85Z"/><path class="cls-11" d="M160.16,137.43c-14.87-2.05-17.58,5-17.58,5-5.35,11.8,8.44,3.76,21.84,9.93s28.68-8.17,21.25-17.14S173.48,139.26,160.16,137.43Z"/><path class="cls-98" d="M182.43,132.56c-5.84-2.69-11,6.43-22.27,4.87-6.5-.89-10.64,0-13.28,1.19a41.85,41.85,0,0,1-1.2,10.85c4.41.36,11.63-.37,18.74,2.91a17.33,17.33,0,0,0,18.54-3c-.06-.25-.14-.49-.2-.74C181.43,143.12,181.92,137.94,182.43,132.56Z"/><path class="cls-102" d="M160.16,137.43c-6.5-.89-10.64,0-13.28,1.19a33.65,33.65,0,0,1-.11,3.88c6.9-1.9,15-1.93,21.38-1.38A56.66,56.66,0,0,1,182,144a65.21,65.21,0,0,1,.4-11.43C176.59,129.87,171.46,139,160.16,137.43Z"/><path class="cls-95" d="M217.72,104.35a43.44,43.44,0,0,1-3.81,14.73c-1.38,2.88-2.95,6-5.56,7.93-3.1,2.35-7,2.09-10.64,1.13-4-1.08-7.71-3.09-11.59-4.57-7.06-2.68-14.72-2.45-22-.78a69.06,69.06,0,0,0-7.21,2.08c-6.23,2.15-12.46,4.42-18.83,6.1-3.48.91-7.67,1.47-11-.4-3.79-2.11-5.4-6.68-6.76-10.53a46,46,0,0,1-2.57-15.69c-7.19,29.22-11.32,75.94,50.15,75S221,132.13,221,132.13c-2.94-10.36,2.48-27.77,2.48-27.77Zm-30.08,45.72c-6.35,9.33-19,7.79-28.78,4.35-3.87-1.36-8.07-1.45-12.19-1.51-2.92,0-5.76-.74-7.2-3.51-3.15-6.06,3.4-12.37,8.54-14.41,5.34-2.12,11.25-.28,16.79-1.3,5-.93,9.61-4.74,14.83-4.53s10.3,3.73,11.17,9.17C191.44,142.39,189.91,146.74,187.64,150.07Z"/><path class="cls-13" d="M159.73,113s-8.43-6.18-11.46,4.58,18.42,17.23,24.36,6-9.38-32.28-9.38-32.28S166.24,104.21,159.73,113Z"/><path class="cls-103" d="M159.73,113s-8.19-5.82-11.24,3.85a75.78,75.78,0,0,0,13.4,2.08c2.71-6.44,3.58-13.44,3.84-21l-1.83-.52C164.07,101.91,163.48,107.93,159.73,113Z"/><path class="cls-1" d="M148.05,120.57c1.23,8.84,19.22,13.13,24.58,3a10.92,10.92,0,0,0,.78-1.94A53.37,53.37,0,0,1,148.05,120.57Z"/><path class="cls-13" d="M72,153.49s1.07-6.8-.43-8.69c-2.65-3.35-5.5-3.46-8.13-3.16,0,0,0-7.17-2.93-8.82a6.46,6.46,0,0,0-5.23-.75s-.85-4.45-5.38-4.47c-6.27,0-25.2,10.7-27.79,16.28C17.2,154.49,39.91,178.31,37,188.8c-2.46,8.68,24.69,4.53,24.69,4.53S69.94,188.75,71,182a17.55,17.55,0,0,0-1.35-10s5.53-.45,8.22-3.89c2-2.58,1.22-9.82.45-12.25C77.12,152.1,72,153.49,72,153.49Z"/><path class="cls-13" d="M38.57,178.94C37.13,203.65,6,262,3,293.62c-1.48,15.65.46,25.67,4.8,32.08.37,4.16,1.71,10.55,6.41,12.46s10.15-.32,13.31-2.07C40.8,337,56.68,324,62.39,305.19c6-19.64-1.19-123.34-1.19-123.34S38.9,173.25,38.57,178.94Z"/><path class="cls-104" d="M78,155c1.88,3.17-14.61,11.27-16.68,11.73-2.92.66-6.22.34-8.55-1.55a20.28,20.28,0,0,0-3.14-2.67c-2.12-1.08-5.1-.4-6.67-2.18-.89-1-1-2.5-1.94-3.47-2.1-2.24-6.71-.3-8.43-2.84-.76-1.12-.57-2.72-1.44-3.77a4.72,4.72,0,0,0-1.53-1.06c-1.56-.79-3.63-1.45-4.94-2.61-.6-.52-2.38-3.14-1.71-4a6.58,6.58,0,0,0-.8,1.27C17.2,154.49,39.91,178.31,37,188.8a.13.13,0,0,0,0,.06c-6.69,28-31.3,76.85-33.94,104.76-1.48,15.65.46,25.67,4.8,32.08.37,4.16,1.71,10.55,6.41,12.46s10.15-.32,13.31-2.07C40.8,337,56.68,324,62.39,305.19c4.76-15.64,1.18-84.58-.47-112C63.33,192.33,70.05,188,71,182a17.55,17.55,0,0,0-1.35-10s5.53-.45,8.22-3.89c2-2.58,1.22-9.82.45-12.25A4.11,4.11,0,0,0,78,155ZM53.21,305.19c-10.16,22.62-25.4,16.83-29.89,0s18.23-109,27-108.14,7.71,8.28,7.29,15.8C56.27,236.26,63.37,282.56,53.21,305.19Z"/><path class="cls-1" d="M268.63,134.75c-5.25.28-10.91,5.69-5.23,9.87s19.25,5.5,19.25,5.5l5.71-13.27C287.76,137,274.31,134.45,268.63,134.75Z"/><path class="cls-13" d="M315.71,143.88c-2.59-5.58-21.52-16.3-27.8-16.28-4.52,0-5.38,4.47-5.38,4.47a6.46,6.46,0,0,0-5.23.75c-3,1.65-2.93,8.82-2.93,8.82-2.62-.3-5.47-.19-8.13,3.16-1.49,1.89-.43,8.69-.43,8.69s-5.1-1.39-6.29,2.34c-.78,2.43-1.57,9.67.44,12.25,2.69,3.44,8.22,3.89,8.22,3.89a17.5,17.5,0,0,0-1.34,10c1.05,6.76,9.35,11.34,9.35,11.34s27.15,4.15,24.7-4.53C297.92,178.31,320.64,154.49,315.71,143.88Z"/><path class="cls-13" d="M299.27,178.94c-.33-5.69-22.63,2.91-22.63,2.91s-7.18,103.7-1.2,123.34C281.16,324,297,337,310.31,336.09c3.17,1.75,8.6,4,13.32,2.07s6-8.3,6.4-12.46c4.34-6.41,6.29-16.43,4.81-32.08C331.85,262,300.7,203.65,299.27,178.94Z"/><path class="cls-104" d="M300.9,188.86a.13.13,0,0,1,0-.06c-3-10.49,19.75-34.31,14.82-44.92a6.67,6.67,0,0,0-.81-1.27c.67.87-1.11,3.49-1.7,4-1.32,1.16-3.38,1.82-4.95,2.61a4.83,4.83,0,0,0-1.53,1.06c-.86,1.05-.67,2.65-1.43,3.77-1.73,2.54-6.34.6-8.44,2.84-.91,1-1.05,2.47-1.93,3.47-1.58,1.78-4.55,1.1-6.67,2.18-1.23.63-2.07,1.8-3.14,2.67-2.33,1.89-5.63,2.21-8.56,1.55-2.06-.46-18.56-8.56-16.67-11.73a3.58,3.58,0,0,0-.36.79c-.78,2.43-1.57,9.67.44,12.25,2.69,3.44,8.22,3.89,8.22,3.89a17.5,17.5,0,0,0-1.34,10c.94,6,7.67,10.34,9.08,11.18-1.66,27.44-5.24,96.38-.48,112C281.16,324,297,337,310.31,336.09c3.17,1.75,8.6,4,13.32,2.07s6-8.3,6.4-12.46c4.34-6.41,6.29-16.43,4.81-32.08C332.2,265.71,307.58,216.89,300.9,188.86Zm13.61,116.33c-4.48,16.83-19.73,22.62-29.89,0s-3.05-68.93-4.36-92.34c-.42-7.52-1.44-14.93,7.29-15.8S319,288.36,314.51,305.19Z"/></g></g></svg>