<svg xmlns="http://www.w3.org/2000/svg" xmlns:xlink="http://www.w3.org/1999/xlink" viewBox="0 0 1359.83 702.43"><defs><style>.cls-1,.cls-19{fill:#3c4657;}.cls-2{fill:#343d49;}.cls-3{fill:#cec0c0;}.cls-4{fill:#e8dada;}.cls-5{fill:url(#Áåçûìÿííûé_ãðàäèåíò_35);}.cls-6{fill:url(#Áåçûìÿííûé_ãðàäèåíò_38);}.cls-7{fill:url(#Áåçûìÿííûé_ãðàäèåíò_17);}.cls-8{fill:url(#Áåçûìÿííûé_ãðàäèåíò_18);}.cls-9{fill:url(#Áåçûìÿííûé_ãðàäèåíò_18-2);}.cls-10{fill:#ff9e78;}.cls-11{fill:url(#Áåçûìÿííûé_ãðàäèåíò_14);}.cls-12{fill:url(#Áåçûìÿííûé_ãðàäèåíò_13);}.cls-13{fill:url(#Áåçûìÿííûé_ãðàäèåíò_18-3);}.cls-14{fill:url(#Áåçûìÿííûé_ãðàäèåíò_14-2);}.cls-15{fill:url(#Áåçûìÿííûé_ãðàäèåíò_4);}.cls-16{fill:url(#Áåçûìÿííûé_ãðàäèåíò_34);}.cls-17{fill:url(#Áåçûìÿííûé_ãðàäèåíò_31);}.cls-18{fill:#848b96;}.cls-118,.cls-134,.cls-145,.cls-18{opacity:0.11;}.cls-19{opacity:0.33;}.cls-20{fill:url(#Áåçûìÿííûé_ãðàäèåíò_33);}.cls-21{fill:url(#Áåçûìÿííûé_ãðàäèåíò_33-2);}.cls-22{fill:url(#Áåçûìÿííûé_ãðàäèåíò_33-3);}.cls-23{fill:url(#Áåçûìÿííûé_ãðàäèåíò_33-5);}.cls-24{fill:url(#Áåçûìÿííûé_ãðàäèåíò_13-2);}.cls-25{fill:url(#Áåçûìÿííûé_ãðàäèåíò_14-3);}.cls-26{fill:url(#Áåçûìÿííûé_ãðàäèåíò_14-4);}.cls-27{fill:url(#Áåçûìÿííûé_ãðàäèåíò_14-5);}.cls-28{fill:url(#Áåçûìÿííûé_ãðàäèåíò_4-2);}.cls-29{fill:url(#Áåçûìÿííûé_ãðàäèåíò_4-3);}.cls-30{fill:url(#Áåçûìÿííûé_ãðàäèåíò_4-4);}.cls-31{fill:url(#Áåçûìÿííûé_ãðàäèåíò_4-5);}.cls-32{fill:url(#Áåçûìÿííûé_ãðàäèåíò_31-2);}.cls-33{fill:#59352c;}.cls-34{fill:#3e1208;}.cls-35{fill:url(#Áåçûìÿííûé_ãðàäèåíò_10);}.cls-36{fill:url(#Áåçûìÿííûé_ãðàäèåíò_57);}.cls-37{opacity:0.44;}.cls-38{fill:#ff9d77;}.cls-39{fill:#ff9c77;}.cls-40{fill:#ff9b76;}.cls-41{fill:#ff9a76;}.cls-42{fill:#ff9975;}.cls-43{fill:#ff9875;}.cls-44{fill:#ff9774;}.cls-45{fill:#ff9674;}.cls-46{fill:#ff9573;}.cls-47{fill:#ff9472;}.cls-48{fill:#ff9372;}.cls-49{fill:#ff9271;}.cls-50{fill:#ff9171;}.cls-51{fill:#ff9070;}.cls-52{fill:#ff8f70;}.cls-53{fill:#ff8e6f;}.cls-54{fill:#ff8d6f;}.cls-55{fill:#ff8c6e;}.cls-56{fill:#ff8b6e;}.cls-57{fill:#ff8a6d;}.cls-58{fill:#ff896c;}.cls-59{fill:#ff886c;}.cls-60{fill:#ff876b;}.cls-61{fill:#ff866b;}.cls-62{fill:#ff856a;}.cls-63{fill:#ff846a;}.cls-64{fill:#ff8369;}.cls-65{fill:#ff8269;}.cls-66{fill:#ff8168;}.cls-67{fill:#ff8067;}.cls-68{fill:#ff7f67;}.cls-69{fill:#ff7e66;}.cls-70{fill:#ff7d66;}.cls-71{fill:#ff7c65;}.cls-72{fill:#ff7b65;}.cls-73{fill:#ff7a64;}.cls-74{fill:#ff7964;}.cls-75{fill:#ff7863;}.cls-76{fill:#ff7762;}.cls-77{fill:#ff7661;}.cls-78{fill:#ff7561;}.cls-79{fill:#ff7460;}.cls-80{fill:#ff7360;}.cls-81{fill:#ff725f;}.cls-82{fill:#ff715f;}.cls-83{fill:#ff705e;}.cls-84{fill:#ff6f5e;}.cls-85{fill:#ff6e5d;}.cls-86{fill:#ff6d5c;}.cls-87{fill:#ff6c5c;}.cls-88{fill:#ff6b5b;}.cls-89{fill:#ff6a5b;}.cls-90{fill:#ff695a;}.cls-91{fill:#ff685a;}.cls-92{fill:#ff6759;}.cls-93{fill:#ff6659;}.cls-94{fill:#ff6558;}.cls-95{fill:#ff6457;}.cls-96{fill:#ff6357;}.cls-97{fill:#ff6256;}.cls-98{fill:#ff6156;}.cls-99{fill:#ff6055;}.cls-100{fill:#ff5f55;}.cls-101{fill:#ff5e54;}.cls-102{fill:#ff5d54;}.cls-103{fill:#ff5c53;}.cls-104{fill:#ff5b53;}.cls-105{fill:#ff5a52;}.cls-106{fill:#ff5951;}.cls-107{fill:#ff5851;}.cls-108{fill:#ff5750;}.cls-109{fill:#ff5650;}.cls-110{fill:#ff554f;}.cls-111{fill:#ff544f;}.cls-112{fill:#ff534e;}.cls-113{fill:#ff524e;}.cls-114{fill:#ff514d;}.cls-115{fill:url(#Áåçûìÿííûé_ãðàäèåíò_4-6);}.cls-116{fill:url(#Áåçûìÿííûé_ãðàäèåíò_4-7);}.cls-117{fill:#7c302a;}.cls-118{fill:#ffbc80;}.cls-119{fill:url(#Áåçûìÿííûé_ãðàäèåíò_10-2);}.cls-120{fill:url(#Áåçûìÿííûé_ãðàäèåíò_10-3);}.cls-121,.cls-131,.cls-133{fill:#fff;}.cls-122{fill:url(#Áåçûìÿííûé_ãðàäèåíò_2);}.cls-123{fill:url(#Áåçûìÿííûé_ãðàäèåíò_2-2);}.cls-124{fill:#603f37;}.cls-125{fill:#fb755c;}.cls-126{fill:url(#Áåçûìÿííûé_ãðàäèåíò_57-2);}.cls-127{fill:url(#Áåçûìÿííûé_ãðàäèåíò_57-3);}.cls-128{fill:#1e1d1d;}.cls-129{fill:url(#Áåçûìÿííûé_ãðàäèåíò_57-4);}.cls-130{fill:url(#Áåçûìÿííûé_ãðàäèåíò_24);}.cls-131{opacity:0.82;}.cls-132{fill:url(#Áåçûìÿííûé_ãðàäèåíò_4-8);}.cls-133{opacity:0.2;}.cls-135{fill:url(#Áåçûìÿííûé_ãðàäèåíò_13-3);}.cls-136{fill:url(#Áåçûìÿííûé_ãðàäèåíò_28);}.cls-137{fill:url(#Áåçûìÿííûé_ãðàäèåíò_25);}.cls-138{fill:#97b9df;}.cls-139{fill:#8cb0d1;}.cls-140{fill:url(#Áåçûìÿííûé_ãðàäèåíò_14-6);}.cls-141{fill:#d65a49;}.cls-142{fill:#598270;}.cls-143{fill:#486d5b;}.cls-144{fill:url(#Áåçûìÿííûé_ãðàäèåíò_21);}.cls-145{fill:#4f3d35;}.cls-146{fill:url(#Áåçûìÿííûé_ãðàäèåíò_19);}.cls-147{fill:#f2e9e9;}.cls-148{fill:#ff6561;opacity:0.41;}</style><linearGradient id="Áåçûìÿííûé_ãðàäèåíò_35" x1="1071.45" y1="696.44" x2="1093.27" y2="442.4" gradientUnits="userSpaceOnUse"><stop offset="0" stop-color="#825a46"/><stop offset="1" stop-color="#a5816d"/></linearGradient><linearGradient id="Áåçûìÿííûé_ãðàäèåíò_38" x1="447.58" y1="600.81" x2="431.02" y2="649.13" gradientUnits="userSpaceOnUse"><stop offset="0" stop-color="#c1c8d2"/><stop offset="1" stop-color="#868c97"/></linearGradient><linearGradient id="Áåçûìÿííûé_ãðàäèåíò_17" x1="845.91" y1="280.32" x2="845.91" y2="373.88" gradientUnits="userSpaceOnUse"><stop offset="0" stop-color="#db7d67"/><stop offset="1" stop-color="#ff9e78"/></linearGradient><linearGradient id="Áåçûìÿííûé_ãðàäèåíò_18" x1="830.65" y1="342.01" x2="830.65" y2="707.05" gradientUnits="userSpaceOnUse"><stop offset="0" stop-color="#deefff"/><stop offset="1" stop-color="#cadbef"/></linearGradient><linearGradient id="Áåçûìÿííûé_ãðàäèåíò_18-2" x1="598.15" y1="564.41" x2="606.23" y2="615.08" xlink:href="#Áåçûìÿííûé_ãðàäèåíò_18"/><linearGradient id="Áåçûìÿííûé_ãðàäèåíò_14" x1="398.86" y1="611.96" x2="410.71" y2="621.04" gradientUnits="userSpaceOnUse"><stop offset="0" stop-color="#ffb9a4"/><stop offset="1" stop-color="#ff9e78"/></linearGradient><linearGradient id="Áåçûìÿííûé_ãðàäèåíò_13" x1="799.13" y1="425.91" x2="848.23" y2="733.78" gradientUnits="userSpaceOnUse"><stop offset="0" stop-color="#b3cbe2"/><stop offset="1" stop-color="#cadbef"/></linearGradient><linearGradient id="Áåçûìÿííûé_ãðàäèåíò_18-3" x1="1036.96" y1="558.08" x2="1048.87" y2="605.14" xlink:href="#Áåçûìÿííûé_ãðàäèåíò_18"/><linearGradient id="Áåçûìÿííûé_ãðàäèåíò_14-2" x1="381.11" y1="616.64" x2="388.57" y2="621.26" xlink:href="#Áåçûìÿííûé_ãðàäèåíò_14"/><linearGradient id="Áåçûìÿííûé_ãðàäèåíò_4" x1="504.34" y1="662.92" x2="509.25" y2="584.37" gradientUnits="userSpaceOnUse"><stop offset="0" stop-color="#f28c70"/><stop offset="1" stop-color="#ff9e78"/></linearGradient><linearGradient id="Áåçûìÿííûé_ãðàäèåíò_34" x1="334.53" y1="405" x2="202.03" y2="552.22" gradientUnits="userSpaceOnUse"><stop offset="0" stop-color="#d9d9e2"/><stop offset="1" stop-color="#929498"/></linearGradient><linearGradient id="Áåçûìÿííûé_ãðàäèåíò_31" x1="474.73" y1="278.72" x2="6.61" y2="688.75" gradientUnits="userSpaceOnUse"><stop offset="0" stop-color="#c1c8d2"/><stop offset="1" stop-color="#929498"/></linearGradient><linearGradient id="Áåçûìÿííûé_ãðàäèåíò_33" x1="292.9" y1="558.29" x2="268.2" y2="677.84" gradientUnits="userSpaceOnUse"><stop offset="0" stop-color="#d6dfea"/><stop offset="1" stop-color="#929498"/></linearGradient><linearGradient id="Áåçûìÿííûé_ãðàäèåíò_33-2" x1="422.22" y1="440.16" x2="330.06" y2="780.76" xlink:href="#Áåçûìÿííûé_ãðàäèåíò_33"/><linearGradient id="Áåçûìÿííûé_ãðàäèåíò_33-3" x1="229.97" y1="504.1" x2="318.21" y2="506.87" gradientTransform="translate(701.36 89.15) rotate(74.46)" xlink:href="#Áåçûìÿííûé_ãðàäèåíò_33"/><linearGradient id="Áåçûìÿííûé_ãðàäèåíò_33-5" x1="272.68" y1="542.83" x2="293.3" y2="461.44" xlink:href="#Áåçûìÿííûé_ãðàäèåíò_33"/><linearGradient id="Áåçûìÿííûé_ãðàäèåíò_13-2" x1="847.74" y1="257.89" x2="847.74" y2="456.09" xlink:href="#Áåçûìÿííûé_ãðàäèåíò_13"/><linearGradient id="Áåçûìÿííûé_ãðàäèåíò_14-3" x1="765.38" y1="613.96" x2="774.25" y2="623.78" xlink:href="#Áåçûìÿííûé_ãðàäèåíò_14"/><linearGradient id="Áåçûìÿííûé_ãðàäèåíò_14-4" x1="746.01" y1="607.17" x2="757.51" y2="618.1" xlink:href="#Áåçûìÿííûé_ãðàäèåíò_14"/><linearGradient id="Áåçûìÿííûé_ãðàäèåíò_14-5" x1="783.01" y1="623.88" x2="793.22" y2="635.16" xlink:href="#Áåçûìÿííûé_ãðàäèåíò_14"/><linearGradient id="Áåçûìÿííûé_ãðàäèåíò_4-2" x1="790.96" y1="642.55" x2="788.78" y2="671.38" xlink:href="#Áåçûìÿííûé_ãðàäèåíò_4"/><linearGradient id="Áåçûìÿííûé_ãðàäèåíò_4-3" x1="769.12" y1="640.89" x2="766.93" y2="669.73" xlink:href="#Áåçûìÿííûé_ãðàäèåíò_4"/><linearGradient id="Áåçûìÿííûé_ãðàäèåíò_4-4" x1="753.82" y1="639.74" x2="751.64" y2="668.57" xlink:href="#Áåçûìÿííûé_ãðàäèåíò_4"/><linearGradient id="Áåçûìÿííûé_ãðàäèåíò_4-5" x1="918.56" y1="662.42" x2="914.39" y2="623.27" xlink:href="#Áåçûìÿííûé_ãðàäèåíò_4"/><linearGradient id="Áåçûìÿííûé_ãðàäèåíò_31-2" x1="670.75" y1="644.96" x2="670.75" y2="660.08" xlink:href="#Áåçûìÿííûé_ãðàäèåíò_31"/><linearGradient id="Áåçûìÿííûé_ãðàäèåíò_10" x1="2374.93" y1="-20.05" x2="2374.93" y2="10.7" gradientTransform="matrix(1, -0.04, 0.08, 1, -1570.96, 200.05)" gradientUnits="userSpaceOnUse"><stop offset="0" stop-color="#c6664f"/><stop offset="1" stop-color="#ff9e78"/></linearGradient><linearGradient id="Áåçûìÿííûé_ãðàäèåíò_57" x1="2418.3" y1="-166.93" x2="2417.83" y2="-91" gradientTransform="matrix(1, -0.01, 0.04, 1, -1591.42, 197.32)" gradientUnits="userSpaceOnUse"><stop offset="0" stop-color="#75483b"/><stop offset="0.35" stop-color="#704538"/><stop offset="0.75" stop-color="#633c30"/><stop offset="1" stop-color="#563428"/></linearGradient><linearGradient id="Áåçûìÿííûé_ãðàäèåíò_4-6" x1="2454.4" y1="119.42" x2="2497.88" y2="119.42" gradientTransform="matrix(1, -0.04, 0.08, 1, -1570.96, 200.05)" xlink:href="#Áåçûìÿííûé_ãðàäèåíò_4"/><linearGradient id="Áåçûìÿííûé_ãðàäèåíò_4-7" x1="2470.43" y1="98.15" x2="2490.49" y2="98.15" gradientTransform="matrix(1, -0.04, 0.08, 1, -1570.96, 200.05)" xlink:href="#Áåçûìÿííûé_ãðàäèåíò_4"/><linearGradient id="Áåçûìÿííûé_ãðàäèåíò_10-2" x1="2374.23" y1="63.92" x2="2372.96" y2="141.71" gradientTransform="matrix(1, -0.01, 0.04, 1, -1553.33, 60.02)" xlink:href="#Áåçûìÿííûé_ãðàäèåíò_10"/><linearGradient id="Áåçûìÿííûé_ãðàäèåíò_10-3" x1="2296.09" y1="58.14" x2="2294.77" y2="138.82" gradientTransform="matrix(1, -0.01, 0.04, 1, -1553.33, 60.02)" xlink:href="#Áåçûìÿííûé_ãðàäèåíò_10"/><linearGradient id="Áåçûìÿííûé_ãðàäèåíò_2" x1="723" y1="198.26" x2="730.69" y2="177.77" gradientTransform="matrix(1, -0.01, 0, 1, 20.57, -1.86)" gradientUnits="userSpaceOnUse"><stop offset="0" stop-color="#704a3e"/><stop offset="1"/></linearGradient><linearGradient id="Áåçûìÿííûé_ãðàäèåíò_2-2" x1="808.67" y1="198.31" x2="816.24" y2="175.36" xlink:href="#Áåçûìÿííûé_ãðàäèåíò_2"/><linearGradient id="Áåçûìÿííûé_ãðàäèåíò_57-2" x1="2137.67" y1="17.15" x2="2136.93" y2="42.74" gradientTransform="matrix(0.92, 0.02, 0.01, 1, -1222.3, 64.12)" xlink:href="#Áåçûìÿííûé_ãðàäèåíò_57"/><linearGradient id="Áåçûìÿííûé_ãðàäèåíò_57-3" x1="2504.06" y1="-74.32" x2="2503.45" y2="-52.67" gradientTransform="matrix(1.05, -0.03, 0.01, 1.01, -1811.42, 269.22)" xlink:href="#Áåçûìÿííûé_ãðàäèåíò_57"/><linearGradient id="Áåçûìÿííûé_ãðàäèåíò_57-4" x1="799.72" y1="333.32" x2="800.56" y2="197.03" gradientTransform="translate(6.76 -1.22) rotate(-0.83)" xlink:href="#Áåçûìÿííûé_ãðàäèåíò_57"/><linearGradient id="Áåçûìÿííûé_ãðàäèåíò_24" x1="780.32" y1="217.29" x2="780.32" y2="229.46" gradientUnits="userSpaceOnUse"><stop offset="0" stop-color="#4c2e25"/><stop offset="0.39" stop-color="#513127"/><stop offset="0.83" stop-color="#5e3a2e"/><stop offset="1" stop-color="#663f32"/></linearGradient><linearGradient id="Áåçûìÿííûé_ãðàäèåíò_4-8" x1="2288.13" y1="122.39" x2="2287.77" y2="111.62" gradientTransform="matrix(1, -0.04, 0.08, 1, -1516.85, 197.64)" xlink:href="#Áåçûìÿííûé_ãðàäèåíò_4"/><linearGradient id="Áåçûìÿííûé_ãðàäèåíò_13-3" x1="1104.09" y1="609.17" x2="1085.77" y2="563.67" xlink:href="#Áåçûìÿííûé_ãðàäèåíò_13"/><linearGradient id="Áåçûìÿííûé_ãðàäèåíò_28" x1="936.11" y1="573.35" x2="941.9" y2="615.21" gradientUnits="userSpaceOnUse"><stop offset="0" stop-color="#ffb9a4"/><stop offset="0.24" stop-color="#ffb399"/><stop offset="1" stop-color="#ff9e78"/></linearGradient><linearGradient id="Áåçûìÿííûé_ãðàäèåíò_25" x1="996.47" y1="613.17" x2="1019.25" y2="613.17" gradientTransform="matrix(1, 0, -0.01, 1, 8.2, 0)" gradientUnits="userSpaceOnUse"><stop offset="0" stop-color="#bc4c40"/><stop offset="1" stop-color="#d65a49"/></linearGradient><linearGradient id="Áåçûìÿííûé_ãðàäèåíò_14-6" x1="558.58" y1="576.55" x2="565.54" y2="612.4" xlink:href="#Áåçûìÿííûé_ãðàäèåíò_14"/><linearGradient id="Áåçûìÿííûé_ãðàäèåíò_21" x1="679.92" y1="650.74" x2="679.92" y2="666.74" gradientUnits="userSpaceOnUse"><stop offset="0" stop-color="#d1b3a3"/><stop offset="1" stop-color="#a5816d"/></linearGradient><linearGradient id="Áåçûìÿííûé_ãðàäèåíò_19" x1="19.63" y1="606.31" x2="317.5" y2="606.31" gradientUnits="userSpaceOnUse"><stop offset="0" stop-color="#fff"/><stop offset="1" stop-color="#868c97"/></linearGradient></defs><g id="Layer_2" data-name="Layer 2"><g id="Ñëîé_1" data-name="Ñëîé 1"><path class="cls-1" d="M19,617.27S11.19,629,11.19,637.21c0,11.86,7.43,22.46,7.43,22.46s255.47.42,256.33-1,3.21-34.54.2-37.61c-1.54-1.58-68.85-2.67-134.22-3.74C79.25,616.26,19,617.27,19,617.27Z"/><path class="cls-2" d="M275.15,621c-1.51-1.54-65.85-2.62-129.81-3.67v42.35c64.6-.08,129.18-.34,129.61-1.07C275.8,657.15,278.16,624.08,275.15,621Z"/><path class="cls-3" d="M25.56,624.06s-4.83,7-4.58,13.68a35.8,35.8,0,0,0,3.32,12.88H231.49l1.18-25Z"/><path class="cls-4" d="M138.07,624.82l-112.51-.76S20.73,630.9,21,637.63A34.83,34.83,0,0,0,24.3,650.4H138A34.38,34.38,0,0,1,138.07,624.82Z"/><path class="cls-5" d="M1106,696.88l.14-5.27s12.75-174.16,10.81-174.55-46.73-.76-46.73-.76l-33.34,180.58Z"/><path class="cls-6" d="M374.82,655.16s12.57-37.15,59-42.85,51.3,42.85,48.48,44.75S375.85,656.51,374.82,655.16Z"/><path class="cls-7" d="M794.75,281.93s2.35,56.42,2.35,58.78,40.17,18.91,40.17,18.91,61-63.24,59.78-65.31S881.49,250,881.49,250Z"/><path class="cls-8" d="M652.72,657.36l68.9-103.22s12.78,67.9,25,142.74h291.22l3.65-38.3H1082s22.26-24.11,27.09-38.87-25.33-227.14-64-270.9S914.34,283.3,914.34,283.3C909.5,264.44,890.48,263,890.48,263l-4.64.41,3.44,17.43c-10.13,33.11-67.65,58.08-67.65,58.08-29.83-13.4-22.32-47.38-22.32-47.38l-1.65-16.13c-21,8.93-23.31,27.67-23.31,27.67s-57.27,30.81-72.6,44.33c-19.92,17.56-90,171.07-125.7,229.92l-15.66,10.51c-11.37,11.64-8.25,65.29-8.25,65.29l18.56,5.28,73.08.75Z"/><path class="cls-9" d="M582.63,566.11c-2.29,4-4.49,7.78-6.57,11.21l-15.67,10.51c-2.8,2.87-4.73,8.31-6,14.86,22.79,3.37,71.06,10.27,76.49,9.16,7.12-1.46,22.62-13.41,22.62-13.41C640,561,599.76,563.29,582.63,566.11Z"/><path class="cls-10" d="M396.89,652.44c8.37-4.63,16.6-29.76,19.65-30.32,1.32-.24,27.29-11.13,33.43-9.48s25,16.56,25.68,17.74-26.33,5.23-31.44,13.72-.56,13.53,6,13.58,49.14,1.9,52.61-.23a25.86,25.86,0,0,0,5.11-3.89s122,9,130.39,4.19,4.85-66.52-33.24-76.4c-21.72-5.63-87.84,29.53-98.07,30.5s-49.31-15.24-61.18-17.56-44.44,4.81-49.75,8.88-28.41,40.43-27.35,44.22,7,3.37,7,3.37L387.87,637s-4.65,12.63-4,15.16S394,654,396.89,652.44Z"/><path class="cls-11" d="M445.42,609c1.5-1.49-2-10.58-4.5-15.17a81.1,81.1,0,0,0-10.08.57c-10.48,4.61-27.51,12.68-28.15,14-.89,1.8-15.95,36.59-15.95,36.59s-.15.17-.37.46c-1,1.26-3.38,4.77-1.64,6.07,2.15,1.61,8.58,2.68,10.45,1.07s19.05-32,19.05-32S443.41,611,445.42,609Z"/><path class="cls-12" d="M633.9,659.05l9.88.1,8.94-1.79,68.9-103.22s12.78,67.9,25,142.74h291.21l2.57-27-2.91-10.74s-46.06-61.62-43.92-74.45,17.75-18.82,17.75-18.82l-4.06-6.64c-11.88,3.64-16,9.09-16,9.09L966.34,426.57l-7,1.25,19.38,241.53s-206.92,7.84-210,6.54-39.11-241.15-40.51-243.32c0,0-5.61.57-5.74,1.86-.24,2.24,5,88.66,4,90.39S661.37,632.9,661.37,632.9c0-13.48-5.88-31.93-5.88-31.93l-7.26,5.32C658.29,629.45,651.6,649,651.6,649Z"/><path class="cls-13" d="M992,585s11.3-31.75,57-26.37c52.24,6.16,56.92,68.32,55.41,70.72-2.24,3.58-27.06,38.09-28.33,38.52C1064.58,671.75,992,585,992,585Z"/><path class="cls-14" d="M368.75,647.39a3.92,3.92,0,0,0,.24.63,4,4,0,0,0,1.49.68c5.23,1.29,28.07-42,28.07-42s15.05-7.49,15-8.41a1.67,1.67,0,0,0-.55-.81c-8,1.83-14.73,4-16.9,5.67C390.79,607.24,367.69,643.6,368.75,647.39Z"/><path class="cls-15" d="M638.34,657.75c8.4-4.77,4.85-66.52-33.24-76.4a30.07,30.07,0,0,0-10.75-.26c5,1.23,20.68,6,30,19.69,11.19,16.43,2,31.59,0,32.85s-137,13-137,13-38.8,15.52-42.23,6,39.15-22.16,39.15-22.5-1.33-4.23-1.33-4.23-31.8-15.88-34-16.22-33.81,10.4-34.73,11S399.38,650.75,394,651.9s-9,1-8.79-2.29,16.79-40.32,17.47-41.24,19.88-9.25,19.54-9.36-3.2-1.72-5-1.37-16.56,8-17.93,9.13-22.16,41.35-26.62,42.1a3.38,3.38,0,0,1-3.93-1.88,1.59,1.59,0,0,0,0,.4c1.06,3.79,7,3.37,7,3.37L387.87,637s-4.65,12.63-4,15.16,10.13,1.88,13,.28c8.37-4.63,16.6-29.76,19.65-30.32,1.32-.24,27.29-11.13,33.43-9.48s25,16.56,25.68,17.74-26.33,5.23-31.44,13.72-.56,13.53,6,13.58,49.14,1.9,52.61-.23a25.86,25.86,0,0,0,5.11-3.89S629.94,662.52,638.34,657.75Z"/><polygon class="cls-16" points="606.07 560.16 583.5 572.91 127.73 560.16 62.75 250.11 85.32 237.35 563.66 237.35 606.07 560.16"/><polygon class="cls-17" points="583.5 572.91 105.15 572.91 62.75 250.11 541.09 250.11 583.5 572.91"/><polygon class="cls-18" points="398.3 572.74 377.25 410.4 272.77 410.4 265.69 572.74 398.3 572.74"/><path class="cls-19" d="M363.81,507.07l-75.75.54a3,3,0,0,0-2.93,3.44l1.41,9.05a3,3,0,0,0,3,2.52l75.75-.54a3,3,0,0,0,2.92-3.44l-1.41-9.05A3,3,0,0,0,363.81,507.07Z"/><path class="cls-20" d="M335.78,656.92H233.93a20.24,20.24,0,0,1-15.53-7,19.59,19.59,0,0,1-4.1-17.3l52.84-219.21a10,10,0,0,1,9.7-7.63l95.68.13-56,229c-.47,5.72,10.81,12.26,10.81,12.26Z"/><path class="cls-21" d="M422.42,657.09H333.85a20.24,20.24,0,0,1-15.52-7,19.61,19.61,0,0,1-4.11-17.3L367.84,409.7a4.87,4.87,0,0,1,5.87-3.6h0a4.86,4.86,0,0,1,3.6,5.87L323.7,635.08a9.92,9.92,0,0,0,2.55,9.27,10.32,10.32,0,0,0,7.42,3h88.75a4.88,4.88,0,0,1,4.87,4.88h0A4.87,4.87,0,0,1,422.42,657.09Z"/><ellipse class="cls-22" cx="292.02" cy="506.05" rx="49.3" ry="25.7" transform="translate(-273.76 651.85) rotate(-74.46)"/><ellipse class="cls-22" cx="292.02" cy="506.05" rx="49.3" ry="25.7" transform="translate(-273.76 651.85) rotate(-74.46)"/><path class="cls-23" d="M274.43,505.86c4.76-23.73,18.17-43.35,31.37-47.13a13.58,13.58,0,0,0-4.16-.67c-14.55-.11-31.12,21.07-36.43,47.58s2.63,48.3,17.19,48.41a16.16,16.16,0,0,0,4.62-.68C275.24,549.56,269.65,529.71,274.43,505.86Z"/><path class="cls-24" d="M914.34,283.3a29.76,29.76,0,0,0-.94-3c1.28,21.6-12,40.69-23.42,52.93-17.59,18.85-37.18,29.07-41.53,29.21-2.65-.82-10.41-12.14-14.59-18.23-2.46-3.59-4.35-6.33-5.87-8.33-3.94,2-6.36,3-6.36,3a42.5,42.5,0,0,1-5.77-3.15c-2.71,2.65-6.16,6.6-10.78,12-3.59,4.21-8.41,9.87-10.31,11.22-17-6.29-11.21-52.64-7.47-70.2l-2.7-.08c-.6,2.79-16.86,70.5,9,78.17,2.75.81,5.81-3.19,15.56-14.63,2.94-3.44,6.85-9.65,10-12.79-1.13,21-3.38,70.84-1.16,96.71,2.82,33,19.55,220.55,19.72,222.44l5-.45c-.17-1.89-16.9-189.43-19.72-222.42-2.21-25.79.09-75.94,1.2-96.54,1.62,2.18,3.75,6.57,5.42,9.3,8.15,13.39,14,21.37,18.2,21.38h0c6.58,0,28.51-14.71,45.78-33.23C905,324.51,916,305.37,916.46,283.83,913.8,283.13,914.34,283.3,914.34,283.3Z"/><path class="cls-10" d="M721.62,649.92s14.45-45.85,19.69-48.69,37.54-21.87,44.53-21.43,54.38,24.5,63.6,25.39c14.08,1.36,135.72-22.08,167.14-25.4,25.35-2.68,60.9,65.68,52.57,71.72-19.55,14.17-214.5,8.67-224.11,7.36s-33.64-20.09-35.83-20.31-27.6,19.88-36.32,19.76-9.08-4.24-8.61-6.37S774,637.22,774,637.22l-2.71.47S759,655.14,753.91,656.43s-11.08-5.07-11.08-5.07-5.07,3.89-9.55,4A13.53,13.53,0,0,1,725.5,653S721.62,653.77,721.62,649.92Z"/><path class="cls-25" d="M746.07,645.06s18.69-37.38,26.37-40.21,28-4.7,28.76-3.71,4.12,10.21,3.53,10.8-14,4.86-14,4.86-29.34,34.53-33.95,35S746.07,645.06,746.07,645.06Z"/><path class="cls-26" d="M727.24,645.59s17.42-44.89,23.22-46.6,35.54-10.66,35.75-9.85,2.17,7.2,1.71,8-17.08,4.34-17.08,4.34-30.49,46.82-31.69,47.38S727.24,645.59,727.24,645.59Z"/><path class="cls-27" d="M768.8,642.76s22.6-24.2,29.85-25.55,18.28,1,18.54,1.68,2.2,14.54,0,14.66-15.1-1.1-15.1-1.1-24.69,24.2-29.48,22.11S768.8,642.76,768.8,642.76Z"/><path class="cls-28" d="M769.05,645.59l-2.87-2.78C768.7,640.2,791,617.25,797.37,615s19.89-.17,20.45-.08l-.63,3.95c-3.58-.57-13.88-1.7-18.5-.09C794.57,620.24,778.32,636,769.05,645.59Z"/><path class="cls-29" d="M742.64,654.56l-3.49-1.95c2.6-4.66,25.64-45.68,32.77-49.54s28-5.83,28.91-5.92l.37,4c-5.81.54-22.07,2.58-27.37,5.45C769.23,609.08,752.26,637.33,742.64,654.56Z"/><path class="cls-30" d="M723.77,655.59c-.72-1-.73-2.3,1.07-7.28,2.3-6.34,7.49-18.17,13.23-30.15,9.75-20.35,11-20.68,12-20.95l35.83-9.38,1,3.87L751.55,601c-3.46,4.5-24.2,48.11-24.23,53.08a1.4,1.4,0,0,0-.29-.75Z"/><path class="cls-31" d="M845,658.87c9.61,1.31,204.56,6.81,224.11-7.36,8.33-6-27.22-74.4-52.57-71.72-1.61.17-3.46.39-5.51.66,4.59.88,11.79,2.24,13,2.42,1.78.25,36,49.77,20.67,55.91s-187.62,6.81-187.62,6.81c-28.33,7.85-47.56-13.67-47.56-13.67s-31.39,20.74-35.88,20.18c-3.25-.4-5.72-3.17-6.84-4.66-.7,1.09-1.33,2.08-1.78,2.88l-.89,3c.09,2.16,1.67,4.87,8.73,5,8.72.12,34.14-20,36.32-19.76S835.43,657.56,845,658.87Z"/><path class="cls-32" d="M858.56,644,485.1,638.78a5.2,5.2,0,0,0-5.18,4.22l-1.77,9.23a5.21,5.21,0,0,0,5.1,6.18l375.23.54a5,5,0,0,0,5-5v-5A5,5,0,0,0,858.56,644Z"/><path class="cls-33" d="M726.14,156.53s7.56-67.27,22.4-83.79c0,0-7.32-20.4-10.53-17C722.91,71.84,719.85,123.83,726.14,156.53Z"/><path class="cls-34" d="M762.71,37.15s0-.17-.08-.45Z"/><path class="cls-35" d="M875.94,79.81c-7.57-34.62-106.79-48.73-133.13-.33-11.56,25-16.22,63.26-19,104.41h0S702.1,295.65,799.75,294.6c86.63-.94,106.8-43.42,99.16-107.13h0C897.05,151.59,884.73,106.36,875.94,79.81Z"/><path class="cls-36" d="M916.92,48.28c-2.47-5.82-13.14-12.37-22.74-15.43a6.15,6.15,0,0,0,2.62-7.12,9.35,9.35,0,0,0-8,2.9C894.2,22.14,890,13.22,890,13.22c-13.4,6.26-10.21,13.16-10.21,13.16C873.7,15.05,856.6,11.89,856.6,11.89c.19,1.62-.81,6.67-.16,8.25C827.61,2.44,757.72,0,757.72,0a13.22,13.22,0,0,0-1.15,8.83c-22.75-.26-27.44,2-27.44,2-3.47,27.16-.89,40,6.89,50.64a38.14,38.14,0,0,0,11.68,10.7s15.24,7.25,40.58,6.57c18.48-.49,41-5.91,51.82-4.57,13.12,1.64,19,29,22.27,40.33,1.82,6.3,26.65,41.54,25.56,59.06-.65,10.47,23.51,2,23.51,2s2.37-11.42,5.17-27.53C923.8,106.67,925.69,68.93,916.92,48.28Z"/><g class="cls-37"><ellipse class="cls-10" cx="834.28" cy="205.93" rx="39.46" ry="34.86" transform="translate(581.22 1027.14) rotate(-86.74)"/><ellipse class="cls-38" cx="834.28" cy="205.93" rx="39.2" ry="34.64" transform="translate(581.22 1027.14) rotate(-86.74)"/><ellipse class="cls-39" cx="834.28" cy="205.93" rx="38.95" ry="34.41" transform="translate(581.21 1027.14) rotate(-86.74)"/><ellipse class="cls-40" cx="834.28" cy="205.93" rx="38.7" ry="34.19" transform="translate(581.21 1027.14) rotate(-86.74)"/><ellipse class="cls-41" cx="834.28" cy="205.93" rx="38.44" ry="33.97" transform="translate(581.22 1027.14) rotate(-86.74)"/><ellipse class="cls-42" cx="834.28" cy="205.93" rx="38.19" ry="33.74" transform="translate(581.22 1027.14) rotate(-86.74)"/><ellipse class="cls-43" cx="834.28" cy="205.93" rx="37.94" ry="33.52" transform="translate(581.22 1027.14) rotate(-86.74)"/><ellipse class="cls-44" cx="834.28" cy="205.93" rx="37.69" ry="33.3" transform="translate(581.21 1027.14) rotate(-86.74)"/><ellipse class="cls-45" cx="834.28" cy="205.93" rx="37.43" ry="33.07" transform="translate(581.22 1027.14) rotate(-86.74)"/><ellipse class="cls-46" cx="834.28" cy="205.93" rx="37.18" ry="32.85" transform="translate(581.22 1027.14) rotate(-86.74)"/><ellipse class="cls-47" cx="834.28" cy="205.93" rx="36.93" ry="32.63" transform="translate(581.22 1027.14) rotate(-86.74)"/><ellipse class="cls-48" cx="834.28" cy="205.93" rx="36.67" ry="32.4" transform="translate(581.22 1027.14) rotate(-86.74)"/><ellipse class="cls-49" cx="834.28" cy="205.93" rx="36.42" ry="32.18" transform="translate(581.22 1027.14) rotate(-86.74)"/><ellipse class="cls-50" cx="834.28" cy="205.93" rx="36.17" ry="31.96" transform="translate(581.22 1027.14) rotate(-86.74)"/><ellipse class="cls-51" cx="834.28" cy="205.93" rx="35.92" ry="31.73" transform="translate(581.21 1027.14) rotate(-86.74)"/><ellipse class="cls-52" cx="834.28" cy="205.93" rx="35.66" ry="31.51" transform="translate(581.21 1027.14) rotate(-86.74)"/><ellipse class="cls-53" cx="834.28" cy="205.93" rx="35.41" ry="31.29" transform="translate(581.22 1027.14) rotate(-86.74)"/><ellipse class="cls-54" cx="834.28" cy="205.93" rx="35.16" ry="31.06" transform="translate(581.22 1027.14) rotate(-86.74)"/><ellipse class="cls-55" cx="834.28" cy="205.93" rx="34.9" ry="30.84" transform="translate(581.22 1027.14) rotate(-86.74)"/><ellipse class="cls-56" cx="834.28" cy="205.93" rx="34.65" ry="30.62" transform="translate(581.21 1027.14) rotate(-86.74)"/><ellipse class="cls-57" cx="834.28" cy="205.93" rx="34.4" ry="30.39" transform="translate(581.22 1027.14) rotate(-86.74)"/><ellipse class="cls-58" cx="834.28" cy="205.93" rx="34.14" ry="30.17" transform="translate(581.21 1027.14) rotate(-86.74)"/><ellipse class="cls-59" cx="834.28" cy="205.93" rx="33.89" ry="29.95" transform="translate(581.21 1027.14) rotate(-86.74)"/><ellipse class="cls-60" cx="834.28" cy="205.93" rx="33.64" ry="29.72" transform="translate(581.22 1027.14) rotate(-86.74)"/><ellipse class="cls-61" cx="834.28" cy="205.93" rx="33.39" ry="29.5" transform="translate(581.22 1027.14) rotate(-86.74)"/><ellipse class="cls-62" cx="834.28" cy="205.93" rx="33.13" ry="29.27" transform="translate(581.22 1027.14) rotate(-86.74)"/><ellipse class="cls-63" cx="834.28" cy="205.93" rx="32.88" ry="29.05" transform="translate(581.21 1027.14) rotate(-86.74)"/><ellipse class="cls-64" cx="834.28" cy="205.93" rx="32.63" ry="28.83" transform="translate(581.22 1027.14) rotate(-86.74)"/><ellipse class="cls-65" cx="834.28" cy="205.93" rx="32.37" ry="28.6" transform="translate(581.22 1027.14) rotate(-86.74)"/><ellipse class="cls-66" cx="834.28" cy="205.93" rx="32.12" ry="28.38" transform="translate(581.22 1027.14) rotate(-86.74)"/><ellipse class="cls-67" cx="834.28" cy="205.93" rx="31.87" ry="28.16" transform="translate(581.22 1027.14) rotate(-86.74)"/><ellipse class="cls-68" cx="834.28" cy="205.93" rx="31.62" ry="27.93" transform="translate(581.22 1027.14) rotate(-86.74)"/><ellipse class="cls-69" cx="834.28" cy="205.93" rx="31.36" ry="27.71" transform="translate(581.22 1027.14) rotate(-86.74)"/><ellipse class="cls-70" cx="834.28" cy="205.93" rx="31.11" ry="27.49" transform="translate(581.22 1027.14) rotate(-86.74)"/><ellipse class="cls-71" cx="834.28" cy="205.93" rx="30.86" ry="27.26" transform="translate(581.21 1027.14) rotate(-86.74)"/><ellipse class="cls-72" cx="834.28" cy="205.93" rx="30.6" ry="27.04" transform="translate(581.23 1027.15) rotate(-86.74)"/><ellipse class="cls-73" cx="834.28" cy="205.93" rx="30.35" ry="26.82" transform="translate(581.22 1027.14) rotate(-86.74)"/><ellipse class="cls-74" cx="834.28" cy="205.93" rx="30.1" ry="26.59" transform="translate(581.22 1027.14) rotate(-86.74)"/><ellipse class="cls-75" cx="834.28" cy="205.93" rx="29.85" ry="26.37" transform="translate(581.22 1027.14) rotate(-86.74)"/><ellipse class="cls-76" cx="834.28" cy="205.93" rx="29.59" ry="26.15" transform="translate(581.22 1027.14) rotate(-86.74)"/><ellipse class="cls-76" cx="834.28" cy="205.93" rx="29.34" ry="25.92" transform="translate(581.22 1027.14) rotate(-86.74)"/><ellipse class="cls-77" cx="834.28" cy="205.93" rx="29.09" ry="25.7" transform="translate(581.22 1027.14) rotate(-86.74)"/><ellipse class="cls-78" cx="834.28" cy="205.93" rx="28.83" ry="25.48" transform="matrix(0.06, -1, 1, 0.06, 581.21, 1027.14)"/><ellipse class="cls-79" cx="834.28" cy="205.93" rx="28.58" ry="25.25" transform="translate(581.23 1027.15) rotate(-86.74)"/><ellipse class="cls-80" cx="834.28" cy="205.93" rx="28.33" ry="25.03" transform="translate(581.22 1027.14) rotate(-86.74)"/><ellipse class="cls-81" cx="834.28" cy="205.93" rx="28.07" ry="24.81" transform="translate(581.21 1027.14) rotate(-86.74)"/><ellipse class="cls-82" cx="834.28" cy="205.93" rx="27.82" ry="24.58" transform="translate(581.21 1027.14) rotate(-86.74)"/><ellipse class="cls-83" cx="834.28" cy="205.93" rx="27.57" ry="24.36" transform="translate(581.22 1027.14) rotate(-86.74)"/><ellipse class="cls-84" cx="834.28" cy="205.93" rx="27.32" ry="24.14" transform="translate(581.22 1027.15) rotate(-86.74)"/><ellipse class="cls-85" cx="834.28" cy="205.93" rx="27.06" ry="23.91" transform="translate(581.22 1027.14) rotate(-86.74)"/><ellipse class="cls-86" cx="834.28" cy="205.93" rx="26.81" ry="23.69" transform="translate(581.2 1027.14) rotate(-86.74)"/><ellipse class="cls-87" cx="834.28" cy="205.93" rx="26.56" ry="23.46" transform="translate(581.22 1027.14) rotate(-86.74)"/><ellipse class="cls-88" cx="834.28" cy="205.93" rx="26.3" ry="23.24" transform="translate(581.22 1027.14) rotate(-86.74)"/><ellipse class="cls-89" cx="834.28" cy="205.93" rx="26.05" ry="23.02" transform="translate(581.22 1027.14) rotate(-86.74)"/><ellipse class="cls-90" cx="834.28" cy="205.93" rx="25.8" ry="22.79" transform="translate(581.21 1027.14) rotate(-86.74)"/><ellipse class="cls-91" cx="834.28" cy="205.93" rx="25.55" ry="22.57" transform="translate(581.22 1027.14) rotate(-86.74)"/><ellipse class="cls-92" cx="834.28" cy="205.93" rx="25.29" ry="22.35" transform="translate(581.22 1027.14) rotate(-86.74)"/><ellipse class="cls-93" cx="834.28" cy="205.93" rx="25.04" ry="22.12" transform="translate(581.21 1027.14) rotate(-86.74)"/><ellipse class="cls-94" cx="834.28" cy="205.93" rx="24.79" ry="21.9" transform="translate(581.21 1027.14) rotate(-86.74)"/><ellipse class="cls-95" cx="834.28" cy="205.93" rx="24.53" ry="21.68" transform="translate(581.22 1027.15) rotate(-86.74)"/><ellipse class="cls-96" cx="834.28" cy="205.93" rx="24.28" ry="21.45" transform="translate(581.21 1027.14) rotate(-86.74)"/><ellipse class="cls-97" cx="834.28" cy="205.93" rx="24.03" ry="21.23" transform="translate(581.21 1027.14) rotate(-86.74)"/><ellipse class="cls-98" cx="834.28" cy="205.93" rx="23.78" ry="21.01" transform="translate(581.22 1027.14) rotate(-86.74)"/><ellipse class="cls-99" cx="834.28" cy="205.93" rx="23.52" ry="20.78" transform="translate(581.23 1027.15) rotate(-86.74)"/><ellipse class="cls-100" cx="834.28" cy="205.93" rx="23.27" ry="20.56" transform="translate(581.22 1027.14) rotate(-86.74)"/><ellipse class="cls-101" cx="834.28" cy="205.93" rx="23.02" ry="20.34" transform="translate(581.21 1027.14) rotate(-86.74)"/><ellipse class="cls-102" cx="834.28" cy="205.93" rx="22.76" ry="20.11" transform="translate(581.22 1027.15) rotate(-86.74)"/><ellipse class="cls-103" cx="834.28" cy="205.93" rx="22.51" ry="19.89" transform="translate(581.22 1027.15) rotate(-86.74)"/><ellipse class="cls-104" cx="834.28" cy="205.93" rx="22.26" ry="19.67" transform="translate(581.22 1027.15) rotate(-86.74)"/><path class="cls-105" d="M853.73,205.17c.22,12.14-8.31,22.32-19.05,22.74s-19.62-9.08-19.85-21.22,8.31-22.32,19-22.74S853.51,193,853.73,205.17Z"/><ellipse class="cls-106" cx="834.28" cy="205.93" rx="21.75" ry="19.22" transform="translate(581.21 1027.14) rotate(-86.74)"/><ellipse class="cls-107" cx="834.28" cy="205.93" rx="21.5" ry="19" transform="translate(581.22 1027.14) rotate(-86.74)"/><ellipse class="cls-108" cx="834.28" cy="205.93" rx="21.25" ry="18.77" transform="translate(581.22 1027.14) rotate(-86.74)"/><ellipse class="cls-109" cx="834.28" cy="205.93" rx="20.99" ry="18.55" transform="translate(581.22 1027.14) rotate(-86.74)"/><ellipse class="cls-110" cx="834.28" cy="205.93" rx="20.74" ry="18.32" transform="translate(581.21 1027.14) rotate(-86.74)"/><ellipse class="cls-111" cx="834.28" cy="205.93" rx="20.49" ry="18.1" transform="translate(581.21 1027.14) rotate(-86.74)"/><ellipse class="cls-112" cx="834.28" cy="205.93" rx="20.23" ry="17.88" transform="translate(581.21 1027.14) rotate(-86.74)"/><ellipse class="cls-113" cx="834.28" cy="205.93" rx="19.98" ry="17.65" transform="translate(581.22 1027.14) rotate(-86.74)"/><path class="cls-114" d="M851.72,205.25c.2,10.88-7.45,20-17.08,20.39s-17.59-8.14-17.79-19,7.44-20,17.07-20.39S851.52,194.36,851.72,205.25Z"/></g><ellipse class="cls-10" cx="913.48" cy="196.02" rx="27.72" ry="19.3" transform="translate(518.78 1042.82) rotate(-77.12)"/><path class="cls-115" d="M923.5,203.85c-9.33,6.37-22,4.58-29.76-1.31-2.9,7.92-1.67,24-1.67,24s12.62-4.15,13.7-3.82c12,3.59,21.68-5.91,25.76-20.64A39.22,39.22,0,0,0,933,190.9,23.54,23.54,0,0,1,923.5,203.85Z"/><path class="cls-116" d="M905.83,196.25l9.18,1.1C914.16,183,924.56,178,924.56,178,906.92,172.17,905.83,196.25,905.83,196.25Z"/><path class="cls-117" d="M845.72,224.55l0,.08A.33.33,0,0,0,845.72,224.55Z"/><g class="cls-37"><ellipse class="cls-10" cx="754.9" cy="203.83" rx="30.88" ry="39.99" transform="translate(-26.46 174.01) rotate(-12.92)"/><ellipse class="cls-38" cx="754.9" cy="203.83" rx="30.69" ry="39.74" transform="translate(-26.46 174.01) rotate(-12.92)"/><ellipse class="cls-39" cx="754.9" cy="203.83" rx="30.49" ry="39.48" transform="translate(-26.46 174.01) rotate(-12.92)"/><ellipse class="cls-40" cx="754.9" cy="203.83" rx="30.29" ry="39.22" transform="translate(-26.46 174.01) rotate(-12.92)"/><ellipse class="cls-41" cx="754.9" cy="203.83" rx="30.09" ry="38.97" transform="translate(-26.46 174.01) rotate(-12.92)"/><ellipse class="cls-42" cx="754.9" cy="203.83" rx="29.89" ry="38.71" transform="translate(-26.46 174.01) rotate(-12.92)"/><ellipse class="cls-43" cx="754.9" cy="203.83" rx="29.7" ry="38.45" transform="translate(-26.46 174.01) rotate(-12.92)"/><ellipse class="cls-44" cx="754.9" cy="203.83" rx="29.5" ry="38.2" transform="translate(-26.46 174.01) rotate(-12.92)"/><ellipse class="cls-45" cx="754.9" cy="203.83" rx="29.3" ry="37.94" transform="translate(-26.46 174.01) rotate(-12.92)"/><ellipse class="cls-46" cx="754.9" cy="203.83" rx="29.1" ry="37.69" transform="matrix(0.97, -0.22, 0.22, 0.97, -26.46, 174.01)"/><ellipse class="cls-47" cx="754.9" cy="203.83" rx="28.9" ry="37.43" transform="translate(-26.46 174.01) rotate(-12.92)"/><ellipse class="cls-48" cx="754.9" cy="203.83" rx="28.71" ry="37.17" transform="translate(-26.46 174.01) rotate(-12.92)"/><ellipse class="cls-49" cx="754.9" cy="203.83" rx="28.51" ry="36.92" transform="translate(-26.46 174.01) rotate(-12.92)"/><ellipse class="cls-50" cx="754.9" cy="203.83" rx="28.31" ry="36.66" transform="translate(-26.46 174) rotate(-12.92)"/><ellipse class="cls-51" cx="754.9" cy="203.83" rx="28.11" ry="36.4" transform="matrix(0.97, -0.22, 0.22, 0.97, -26.46, 174)"/><ellipse class="cls-52" cx="754.9" cy="203.83" rx="27.92" ry="36.15" transform="translate(-26.46 174.01) rotate(-12.92)"/><ellipse class="cls-53" cx="754.9" cy="203.83" rx="27.72" ry="35.89" transform="translate(-26.46 174.01) rotate(-12.92)"/><ellipse class="cls-54" cx="754.9" cy="203.83" rx="27.52" ry="35.63" transform="translate(-26.46 174.01) rotate(-12.92)"/><ellipse class="cls-55" cx="754.9" cy="203.83" rx="27.32" ry="35.38" transform="translate(-26.46 174.01) rotate(-12.92)"/><ellipse class="cls-56" cx="754.9" cy="203.83" rx="27.12" ry="35.12" transform="translate(-26.46 174.01) rotate(-12.92)"/><ellipse class="cls-57" cx="754.9" cy="203.83" rx="26.93" ry="34.87" transform="translate(-26.46 174.01) rotate(-12.92)"/><ellipse class="cls-58" cx="754.9" cy="203.83" rx="26.73" ry="34.61" transform="translate(-26.46 174) rotate(-12.92)"/><ellipse class="cls-59" cx="754.9" cy="203.83" rx="26.53" ry="34.35" transform="translate(-26.46 174.01) rotate(-12.92)"/><ellipse class="cls-60" cx="754.9" cy="203.83" rx="26.33" ry="34.1" transform="translate(-26.46 174.01) rotate(-12.92)"/><ellipse class="cls-61" cx="754.9" cy="203.83" rx="26.13" ry="33.84" transform="translate(-26.46 174.01) rotate(-12.92)"/><ellipse class="cls-62" cx="754.9" cy="203.83" rx="25.94" ry="33.58" transform="matrix(0.97, -0.22, 0.22, 0.97, -26.46, 174.01)"/><ellipse class="cls-63" cx="754.9" cy="203.83" rx="25.74" ry="33.33" transform="translate(-26.46 174.01) rotate(-12.92)"/><ellipse class="cls-64" cx="754.9" cy="203.83" rx="25.54" ry="33.07" transform="translate(-26.46 174.01) rotate(-12.92)"/><ellipse class="cls-65" cx="754.9" cy="203.83" rx="25.34" ry="32.81" transform="translate(-26.46 174.01) rotate(-12.92)"/><ellipse class="cls-66" cx="754.9" cy="203.83" rx="25.14" ry="32.56" transform="translate(-26.46 174.01) rotate(-12.92)"/><ellipse class="cls-67" cx="754.9" cy="203.83" rx="24.95" ry="32.3" transform="translate(-26.46 174.01) rotate(-12.92)"/><ellipse class="cls-68" cx="754.9" cy="203.83" rx="24.75" ry="32.05" transform="translate(-26.46 174.01) rotate(-12.92)"/><ellipse class="cls-69" cx="754.9" cy="203.83" rx="24.55" ry="31.79" transform="translate(-26.46 174.01) rotate(-12.92)"/><ellipse class="cls-70" cx="754.9" cy="203.83" rx="24.35" ry="31.53" transform="translate(-26.46 174.01) rotate(-12.92)"/><ellipse class="cls-71" cx="754.9" cy="203.83" rx="24.15" ry="31.28" transform="translate(-26.46 174.01) rotate(-12.92)"/><ellipse class="cls-72" cx="754.9" cy="203.83" rx="23.96" ry="31.02" transform="translate(-26.46 174.01) rotate(-12.92)"/><ellipse class="cls-73" cx="754.9" cy="203.83" rx="23.76" ry="30.76" transform="translate(-26.46 174.01) rotate(-12.92)"/><ellipse class="cls-74" cx="754.9" cy="203.83" rx="23.56" ry="30.51" transform="translate(-26.46 174.01) rotate(-12.92)"/><ellipse class="cls-75" cx="754.9" cy="203.83" rx="23.36" ry="30.25" transform="translate(-26.46 174.01) rotate(-12.92)"/><ellipse class="cls-76" cx="754.9" cy="203.83" rx="23.16" ry="29.99" transform="translate(-26.46 174.01) rotate(-12.92)"/><ellipse class="cls-76" cx="754.9" cy="203.83" rx="22.97" ry="29.74" transform="translate(-26.46 174.01) rotate(-12.92)"/><ellipse class="cls-77" cx="754.9" cy="203.83" rx="22.77" ry="29.48" transform="translate(-26.46 174.01) rotate(-12.92)"/><ellipse class="cls-78" cx="754.9" cy="203.83" rx="22.57" ry="29.23" transform="translate(-26.46 174) rotate(-12.92)"/><ellipse class="cls-79" cx="754.9" cy="203.83" rx="22.37" ry="28.97" transform="translate(-26.46 174.01) rotate(-12.92)"/><ellipse class="cls-80" cx="754.9" cy="203.83" rx="22.17" ry="28.71" transform="translate(-26.46 174.01) rotate(-12.92)"/><ellipse class="cls-81" cx="754.9" cy="203.83" rx="21.98" ry="28.46" transform="translate(-26.46 174.01) rotate(-12.92)"/><ellipse class="cls-82" cx="754.9" cy="203.83" rx="21.78" ry="28.2" transform="translate(-26.46 174.01) rotate(-12.92)"/><ellipse class="cls-83" cx="754.9" cy="203.83" rx="21.58" ry="27.94" transform="translate(-26.46 174.01) rotate(-12.92)"/><ellipse class="cls-84" cx="754.9" cy="203.83" rx="21.38" ry="27.69" transform="translate(-26.46 174.01) rotate(-12.92)"/><ellipse class="cls-85" cx="754.9" cy="203.83" rx="21.18" ry="27.43" transform="translate(-26.46 174.01) rotate(-12.92)"/><ellipse class="cls-86" cx="754.9" cy="203.83" rx="20.99" ry="27.17" transform="translate(-26.46 174.01) rotate(-12.92)"/><ellipse class="cls-87" cx="754.9" cy="203.83" rx="20.79" ry="26.92" transform="translate(-26.46 174.01) rotate(-12.92)"/><ellipse class="cls-88" cx="754.9" cy="203.83" rx="20.59" ry="26.66" transform="translate(-26.46 174.01) rotate(-12.92)"/><ellipse class="cls-89" cx="754.9" cy="203.83" rx="20.39" ry="26.41" transform="translate(-26.46 174) rotate(-12.92)"/><ellipse class="cls-90" cx="754.9" cy="203.83" rx="20.19" ry="26.15" transform="translate(-26.46 174) rotate(-12.92)"/><ellipse class="cls-91" cx="754.9" cy="203.83" rx="20" ry="25.89" transform="translate(-26.46 174) rotate(-12.92)"/><ellipse class="cls-92" cx="754.9" cy="203.83" rx="19.8" ry="25.64" transform="translate(-26.46 174.01) rotate(-12.92)"/><ellipse class="cls-93" cx="754.9" cy="203.83" rx="19.6" ry="25.38" transform="translate(-26.46 174) rotate(-12.92)"/><ellipse class="cls-94" cx="754.9" cy="203.83" rx="19.4" ry="25.12" transform="translate(-26.46 174.01) rotate(-12.92)"/><ellipse class="cls-95" cx="754.9" cy="203.83" rx="19.2" ry="24.87" transform="translate(-26.46 174.01) rotate(-12.92)"/><ellipse class="cls-96" cx="754.9" cy="203.83" rx="19.01" ry="24.61" transform="translate(-26.46 174.01) rotate(-12.92)"/><ellipse class="cls-97" cx="754.9" cy="203.83" rx="18.81" ry="24.35" transform="translate(-26.46 174.01) rotate(-12.92)"/><ellipse class="cls-98" cx="754.9" cy="203.83" rx="18.61" ry="24.1" transform="translate(-26.46 174.01) rotate(-12.92)"/><ellipse class="cls-99" cx="754.9" cy="203.83" rx="18.41" ry="23.84" transform="translate(-26.46 174.01) rotate(-12.92)"/><ellipse class="cls-100" cx="754.9" cy="203.83" rx="18.21" ry="23.59" transform="translate(-26.46 174.01) rotate(-12.92)"/><ellipse class="cls-101" cx="754.9" cy="203.83" rx="18.02" ry="23.33" transform="translate(-26.46 174.01) rotate(-12.92)"/><ellipse class="cls-102" cx="754.9" cy="203.83" rx="17.82" ry="23.07" transform="translate(-26.46 174) rotate(-12.92)"/><ellipse class="cls-103" cx="754.9" cy="203.83" rx="17.62" ry="22.82" transform="translate(-26.46 174) rotate(-12.92)"/><ellipse class="cls-104" cx="754.9" cy="203.83" rx="17.42" ry="22.56" transform="translate(-26.46 174.01) rotate(-12.92)"/><ellipse class="cls-105" cx="754.9" cy="203.83" rx="17.22" ry="22.3" transform="translate(-26.46 174.01) rotate(-12.92)"/><ellipse class="cls-106" cx="754.9" cy="203.83" rx="17.03" ry="22.05" transform="translate(-26.46 174.01) rotate(-12.92)"/><ellipse class="cls-107" cx="754.9" cy="203.83" rx="16.83" ry="21.79" transform="translate(-26.46 174.01) rotate(-12.92)"/><ellipse class="cls-108" cx="754.9" cy="203.83" rx="16.63" ry="21.53" transform="translate(-26.46 174.01) rotate(-12.92)"/><ellipse class="cls-109" cx="754.9" cy="203.83" rx="16.43" ry="21.28" transform="translate(-26.46 174.01) rotate(-12.92)"/><ellipse class="cls-110" cx="754.9" cy="203.83" rx="16.23" ry="21.02" transform="translate(-26.46 174) rotate(-12.92)"/><ellipse class="cls-111" cx="754.9" cy="203.83" rx="16.04" ry="20.77" transform="translate(-26.46 174) rotate(-12.92)"/><ellipse class="cls-112" cx="754.9" cy="203.83" rx="15.84" ry="20.51" transform="translate(-26.46 174) rotate(-12.92)"/><ellipse class="cls-113" cx="754.9" cy="203.83" rx="15.64" ry="20.25" transform="translate(-26.46 174) rotate(-12.92)"/><ellipse class="cls-114" cx="754.9" cy="203.83" rx="15.44" ry="20" transform="translate(-26.46 174.01) rotate(-12.92)"/></g><path class="cls-118" d="M900.38,36.06c.12-.06.65-.41.77-.46a46.94,46.94,0,0,0-7-2.75c-3.2.62-4.52,1.26-7.91,2.06-10.1,2.37-23.67,1.71-35-.24-12.17-2.08-22.33-7.93-33.42-12.71-5.6-2.42-11.18-4.88-16.93-7-12.31-4.48-26.77-8.82-40-8.12a43,43,0,0,0-4.53.5,9.47,9.47,0,0,0,.24,1.46c-2.4,0-4.59,0-6.6,0A78.27,78.27,0,0,0,742,11.62a39.81,39.81,0,0,0-13.14,8.67,12.24,12.24,0,0,1-.88,1.15,109.74,109.74,0,0,0-.34,13.31,73,73,0,0,1,9.1-4.79,37.78,37.78,0,0,1,10.74-2.78c15.73-1.47,30.73,4,45.3,9.14,6,2.09,12,4.54,18.46,6.79s13.06,4.51,20,6.27c11.69,3,25.79,3.64,37.34.39,1.56-.44,15.69-5.59,20.14-7.82S897,37.62,900.38,36.06Z"/><path class="cls-119" d="M803.4,125.48S792,156.71,813,180.5l43.12-6.25s1.27-17.52-2.19-29.17C851.08,135.69,803.4,125.48,803.4,125.48Z"/><path class="cls-120" d="M728,150.84c-2.32,8.34-1.55,25.89-1.55,25.89l40.33,5.1c14.4-19,2.55-58.51,2.55-58.51S730.35,142.51,728,150.84Z"/><path class="cls-121" d="M837.76,162.68c-19-1.35-24.7,17.41-24.7,17.41s3.89,5,23.74,4.7c18.29-.27,20-7.77,20-7.77S856.74,164,837.76,162.68Z"/><path class="cls-121" d="M727.69,176.68s2.42,6.48,16.18,7.75c18.85,1.74,22.94-2.6,22.94-2.6A51.2,51.2,0,0,0,756.18,169C748.6,162.8,732.46,162.88,727.69,176.68Z"/><path class="cls-122" d="M743.87,184.43a82.69,82.69,0,0,0,9.79.39c1.87-5.61,1-11.37-1.22-14.1-.68-.61-1.38-1.2-2.11-1.76a5.4,5.4,0,0,0-.82-.33c-4.37-1.34-9.48,3.13-11.41,10a18.49,18.49,0,0,0-.68,4.66A35.85,35.85,0,0,0,743.87,184.43Z"/><path class="cls-123" d="M834.56,167c-4.57-1.57-9.88,3.61-11.86,11.56a25,25,0,0,0-.6,5.31,69.25,69.25,0,0,0,14.7.93c.87,0,1.69-.06,2.49-.11C842.07,176.13,839.06,168.53,834.56,167Z"/><path class="cls-124" d="M743.12,161.4c-15-.37-15.43,15.28-15.43,15.28s3.45-7.71,15-8c12.66-.34,24.24,13.15,24.24,13.15S763.43,161.89,743.12,161.4Z"/><path class="cls-125" d="M755.56,235.1s-8.92,15.4,27.29,15.71,37.86-17,36-17.46S755.56,235.1,755.56,235.1Z"/><path class="cls-126" d="M727.42,153.62C744.05,139.91,760,146,767.58,138c2.89-3,1.78-14.68,1.78-14.68C727,129.18,727.42,153.62,727.42,153.62Z"/><path class="cls-127" d="M804.55,122.81s-4.62,11.25-1.91,14.59c8.45,10.42,34.63-.35,52,10.66C854.67,148.06,858.49,130.69,804.55,122.81Z"/><path class="cls-124" d="M834.1,160.06c-21.5-.46-21,20-21,20s3.26-11.62,21.92-11.16S856.81,177,856.81,177C857,174.15,855.94,160.52,834.1,160.06Z"/><path class="cls-117" d="M847.23,225.93l0,.08Z"/><path class="cls-128" d="M751,178.31a4.52,4.52,0,0,1-4,4.52,3.76,3.76,0,0,1-4-3.91,4.52,4.52,0,0,1,4-4.51A3.75,3.75,0,0,1,751,178.31Z"/><path class="cls-129" d="M903.34,175l-15.41-1.49c-.27,18.82-2.77,27.67-10,37.73-13,18-35.67,22-35.67,22,5-24.22-62.26-16.67-62.26-16.67s-44.12-6.36-40.79,15.9c0,0-10.23-3-14.9-13-3-6.57-2.08-22.11-2.08-22.11l-1.42.94c-10.4,53.37-2.31,111.23,79,109.1,93.46-2.44,103.63-84.3,103.63-84.3C887.79,199.08,903.34,175,903.34,175ZM785,265.36c-34.31,0-39.81-28.27-35.66-31.48,3.81-3,10,7.41,34.17,6.92s39.73-11,43.11-8.76C831.69,235.36,824.25,265.36,785,265.36Z"/><path class="cls-128" d="M835.79,178.33A4.71,4.71,0,0,1,831.6,183a3.93,3.93,0,0,1-4.2-4.07,4.72,4.72,0,0,1,4.2-4.71A3.91,3.91,0,0,1,835.79,178.33Z"/><path class="cls-130" d="M782.74,228.89c14.87-1.58,20.29-8.54,22.27-13.35a219.56,219.56,0,0,0-25,1.08s-13-1.87-24.35,0C757.55,220.75,764.51,230.82,782.74,228.89Z"/><path class="cls-131" d="M742.42,176.11c-1.78,1-3,2.83-2.65,4.15s2,1.6,3.81.63,3-2.83,2.65-4.15S744.21,175.14,742.42,176.11Z"/><path class="cls-131" d="M826.6,176.33c-2,1.12-3.16,3.13-2.71,4.48s2.39,1.53,4.34.4,3.17-3.13,2.72-4.48S828.55,175.2,826.6,176.33Z"/><path class="cls-10" d="M783.91,172.79c-.29,5.35-.95,14-7.19,16.58-5.35,2.21-17.82-.71-21.15,13.69-4.23,18.29,34.19,26.5,43.33,7.33,5.11-10.73,0-26.2-6.68-38Z"/><path class="cls-132" d="M771.19,209.24a76.56,76.56,0,0,1-15.87-2.1c1.82,15.32,35.15,20.93,43.58,3.25a20.11,20.11,0,0,0,1.34-3.82C791.07,209.27,780.5,209.59,771.19,209.24Z"/><path class="cls-133" d="M788.37,176.56l-4.33.2s-.74,10.11-4,12.94c-1.2,1-3.83,1.76-6.22,1.83-7.15.22-12.94,2.13-12.92,5.22s5.85,5.49,13,5.65c6.7.15,11.48-1.64,14-4.3C791.29,194.49,791.5,182.43,788.37,176.56Z"/><path class="cls-134" d="M877.92,52.22a112.17,112.17,0,0,1-49.11,22.2,53.68,53.68,0,0,1,11.29-.26,12,12,0,0,1,6.65,3.36,102,102,0,0,0,35.49-20.63C884.83,54.53,880.72,50.06,877.92,52.22Z"/><path class="cls-134" d="M794.2,270.58a45,45,0,0,1-15,.79A4.7,4.7,0,0,0,774,277c.69,3.44,3.77,6.81,13.52,6.11,9.51-.68,12.23-4.08,12.58-7.31A4.91,4.91,0,0,0,794.2,270.58Z"/><path class="cls-135" d="M1108.47,595.34c-7.88-16.65-26.27-30.12-26.27-30.12l-3.41,5.83c19.22,14.23,25.81,47.7,26.41,56.83a46.32,46.32,0,0,0,3.84-8.26C1109.9,617,1109.66,608.25,1108.47,595.34Z"/><path class="cls-136" d="M1034.92,629.42c.85-3.75-16.14-38.49-24.06-48.94-38.26,5-148.08,26-161.42,24.71-.88-.08,9.16,26.31,12.62,28.28C866.43,636,1033.94,633.79,1034.92,629.42Z"/><path class="cls-137" d="M989.58,650.79c-2,0-3.26-.11-3.46-.13l1.8-16.93c3.87.33,15.46-.15,22.06-6.14,3.72-3.38,5.58-8.23,5.68-14.8s-1.59-11.28-5.15-14.53c-6.36-5.79-17.91-6-21.82-5.56L987,575.81c2.19-.25,21.82-2.12,34.92,9.72,5,4.52,10.92,12.91,10.7,27.26-.17,11.48-4,20.71-11.46,27.4C1010.74,649.62,996.17,650.79,989.58,650.79Z"/><path class="cls-138" d="M1054.06,621.62a33.78,33.78,0,0,0,.19-6.36c0-.15,4.89,0,4.89,0-.25-4.3-.79-10.25-.7-14.56,0-.12-4.39,0-4.38-.07.09-3.41-.21-6,.5-6.45,2.41-1.34,229.62.78,231.23,2.36s2.27,27.83,2.27,27.83Z"/><path class="cls-139" d="M1164.1,622.92l124,1.46s-.66-26.24-2.27-27.83c-.84-.82-62.73-1.79-122.27-2.34C1169.68,602.41,1169,613.86,1164.1,622.92Z"/><path class="cls-140" d="M616.06,591.81a79,79,0,0,0-19-11c-26.75,1.81-80.83,30.14-90,31-1.59.15,2.93,15.35,10.8,18.53s102.4-2,103.76-5.29S627.33,600.58,616.06,591.81Z"/><path class="cls-141" d="M994.23,659c2.26-15.39,4.29-98.13,3.83-98.13H907.18s-1.44,88.12,1.5,98.13Z"/><path class="cls-142" d="M1046.91,620.36l-.14,7.09,6.11.21-.46,23-6.15.1-.18,8.87s260,.43,260.83-1,3-32.48,0-35.55S1046.91,620.36,1046.91,620.36Z"/><path class="cls-143" d="M1306.9,623.07c-1.56-1.6-71.81-2.26-138.88-2.54v.55a4.27,4.27,0,0,1,.37.81c4.09,12.25,4.56,24.8-.37,36.57v1.24c67.7-.06,138.45-.32,138.9-1.08C1307.77,657.15,1309.91,626.14,1306.9,623.07Z"/><path class="cls-144" d="M5.72,656.43H1353a6.8,6.8,0,0,1,6.8,6.8v32.38a6.8,6.8,0,0,1-6.8,6.8H5.72A5.72,5.72,0,0,1,0,696.69V662.15a5.72,5.72,0,0,1,5.72-5.72Z"/><path class="cls-145" d="M1353,656.43H1138v46h215a6.8,6.8,0,0,0,6.79-6.8V663.23A6.8,6.8,0,0,0,1353,656.43Z"/><path class="cls-146" d="M249.56,602.5c-13.25,34.88-27.47,72.33-48.61,99.93h8.61c1-1.39,2-2.8,3-4.25,18.6-27.42,31.85-62.36,43.56-93.19,17.89-47.11,32.48-88,59.48-88l1.92-6.78C285.5,510.2,268.37,553,249.56,602.5Z"/><path class="cls-147" d="M1160.72,627.88c-1.25-1.45-112.46-.39-112.46-.39h0c5.4,5.91,3.12,16-.6,23.3,10.72,0,112.75.56,113.06,0C1162.74,647.22,1162.74,630.21,1160.72,627.88Z"/><path class="cls-147" d="M1054.66,600.68s100.57-.89,102.64,1,.34,12.55,0,13.58-102.24,0-102.24,0,2.56-2.54,2.56-7.76S1054.66,600.68,1054.66,600.68Z"/><path class="cls-148" d="M940.3,582.45c.33-5.22-4.82-9.54-9.77-9.41-5.57.14-9.19,4.67-9.56,9.91a281.34,281.34,0,0,0-.64,33.23c.61,12.31,19.23,11.94,19.24-.5C939.58,604.59,939.61,593.54,940.3,582.45Z"/><path class="cls-148" d="M941.21,637.28c-.26-2.5-1-5-2.91-6.78a9.77,9.77,0,0,0-5.6-2.52,9.32,9.32,0,0,0-6.17,1.31c-1.95,1.31-4.07,3.47-4.39,5.9-.22,1.63-.42,3.22-.48,4.85a21.59,21.59,0,0,0,.53,4.8l1,2.27a7.15,7.15,0,0,0,2.51,2.64,9.08,9.08,0,0,0,5.86,1.92,11.56,11.56,0,0,0,4.85-1.44,9.93,9.93,0,0,0,4.36-5.87A22.48,22.48,0,0,0,941.21,637.28Z"/></g></g></svg>