<svg xmlns="http://www.w3.org/2000/svg" xmlns:xlink="http://www.w3.org/1999/xlink" viewBox="0 0 634.54 1396.78"><defs><style>.cls-1{fill:url(#Áåçûìÿííûé_ãðàäèåíò_11);}.cls-2{fill:url(#Áåçûìÿííûé_ãðàäèåíò_487);}.cls-3{fill:url(#Áåçûìÿííûé_ãðàäèåíò_6);}.cls-4{fill:#2c2c2d;}.cls-5{fill:#333844;}.cls-6{opacity:0.09;}.cls-7{fill:#292d35;}.cls-8{fill:#1c1d1e;}.cls-9{fill:url(#Áåçûìÿííûé_ãðàäèåíò_501);}.cls-10{fill:#3d3d3d;}.cls-11{fill:url(#Áåçûìÿííûé_ãðàäèåíò_486);}.cls-12{fill:url(#Áåçûìÿííûé_ãðàäèåíò_486-2);}.cls-13{fill:url(#Áåçûìÿííûé_ãðàäèåíò_501-2);}.cls-14{fill:#cadbef;}.cls-15{fill:url(#Áåçûìÿííûé_ãðàäèåíò_7);}.cls-16{fill:url(#Áåçûìÿííûé_ãðàäèåíò_7-2);}.cls-17{fill:url(#Áåçûìÿííûé_ãðàäèåíò_487-2);}.cls-18{fill:#ff9e78;}.cls-19{fill:url(#Áåçûìÿííûé_ãðàäèåíò_29);}.cls-20{fill:#e4856b;}.cls-21{fill:url(#Áåçûìÿííûé_ãðàäèåíò_29-2);}.cls-22{fill:url(#Áåçûìÿííûé_ãðàäèåíò_487-3);}.cls-23{fill:#d37762;}.cls-24{fill:url(#Áåçûìÿííûé_ãðàäèåíò_29-3);}.cls-25{fill:url(#Áåçûìÿííûé_ãðàäèåíò_29-4);}.cls-26{fill:url(#Áåçûìÿííûé_ãðàäèåíò_7-3);}.cls-27{fill:url(#Áåçûìÿííûé_ãðàäèåíò_20);}.cls-28{fill:url(#Áåçûìÿííûé_ãðàäèåíò_20-2);}.cls-29{fill:url(#Áåçûìÿííûé_ãðàäèåíò_6-2);}.cls-30{fill:url(#Áåçûìÿííûé_ãðàäèåíò_6-3);}.cls-31{fill:#3e1208;}.cls-32{fill:url(#Áåçûìÿííûé_ãðàäèåíò_16);}.cls-33{opacity:0.43;}.cls-34{fill:#ff9d77;}.cls-35{fill:#ff9c77;}.cls-36{fill:#ff9b76;}.cls-37{fill:#ff9a76;}.cls-38{fill:#ff9975;}.cls-39{fill:#ff9875;}.cls-40{fill:#ff9774;}.cls-41{fill:#ff9674;}.cls-42{fill:#ff9573;}.cls-43{fill:#ff9472;}.cls-44{fill:#ff9372;}.cls-45{fill:#ff9271;}.cls-46{fill:#ff9171;}.cls-47{fill:#ff9070;}.cls-48{fill:#ff8f70;}.cls-49{fill:#ff8e6f;}.cls-50{fill:#ff8d6f;}.cls-51{fill:#ff8c6e;}.cls-52{fill:#ff8b6e;}.cls-53{fill:#ff8a6d;}.cls-54{fill:#ff896c;}.cls-55{fill:#ff886c;}.cls-56{fill:#ff876b;}.cls-57{fill:#ff866b;}.cls-58{fill:#ff856a;}.cls-59{fill:#ff846a;}.cls-60{fill:#ff8369;}.cls-61{fill:#ff8269;}.cls-62{fill:#ff8168;}.cls-63{fill:#ff8067;}.cls-64{fill:#ff7f67;}.cls-65{fill:#ff7e66;}.cls-66{fill:#ff7d66;}.cls-67{fill:#ff7c65;}.cls-68{fill:#ff7b65;}.cls-69{fill:#ff7a64;}.cls-70{fill:#ff7964;}.cls-71{fill:#ff7863;}.cls-72{fill:#ff7762;}.cls-73{fill:#ff7661;}.cls-74{fill:#ff7561;}.cls-75{fill:#ff7460;}.cls-76{fill:#ff7360;}.cls-77{fill:#ff725f;}.cls-78{fill:#ff715f;}.cls-79{fill:#ff705e;}.cls-80{fill:#ff6f5e;}.cls-81{fill:#ff6e5d;}.cls-82{fill:#ff6d5c;}.cls-83{fill:#ff6c5c;}.cls-84{fill:#ff6b5b;}.cls-85{fill:#ff6a5b;}.cls-86{fill:#ff695a;}.cls-87{fill:#ff685a;}.cls-88{fill:#ff6759;}.cls-89{fill:#ff6659;}.cls-90{fill:#ff6558;}.cls-91{fill:#ff6457;}.cls-92{fill:#ff6357;}.cls-93{fill:#ff6256;}.cls-94{fill:#ff6156;}.cls-95{fill:#ff6055;}.cls-96{fill:#ff5f55;}.cls-97{fill:#ff5e54;}.cls-98{fill:#ff5d54;}.cls-99{fill:#ff5c53;}.cls-100{fill:#ff5b53;}.cls-101{fill:#ff5a52;}.cls-102{fill:#ff5951;}.cls-103{fill:#ff5851;}.cls-104{fill:#ff5750;}.cls-105{fill:#ff5650;}.cls-106{fill:#ff554f;}.cls-107{fill:#ff544f;}.cls-108{fill:#ff534e;}.cls-109{fill:#ff524e;}.cls-110{fill:#ff514d;}.cls-111{fill:url(#Áåçûìÿííûé_ãðàäèåíò_29-5);}.cls-112{fill:url(#Áåçûìÿííûé_ãðàäèåíò_29-6);}.cls-113{fill:url(#Áåçûìÿííûé_ãðàäèåíò_29-7);}.cls-114{fill:url(#Áåçûìÿííûé_ãðàäèåíò_29-8);}.cls-115{fill:#7c302a;}.cls-116{fill:url(#Áåçûìÿííûé_ãðàäèåíò_57);}.cls-117{fill:url(#Áåçûìÿííûé_ãðàäèåíò_57-2);}.cls-118,.cls-127{fill:#fff;}.cls-118{opacity:0.12;}.cls-119{opacity:0.35;}.cls-120{fill:url(#Áåçûìÿííûé_ãðàäèåíò_16-2);}.cls-121{fill:url(#Áåçûìÿííûé_ãðàäèåíò_16-3);}.cls-122{fill:#603f37;}.cls-123{fill:#fb755c;}.cls-124{fill:url(#Áåçûìÿííûé_ãðàäèåíò_57-3);}.cls-125{fill:url(#Áåçûìÿííûé_ãðàäèåíò_24);}.cls-126{fill:url(#Áåçûìÿííûé_ãðàäèåíò_29-9);}.cls-127{opacity:0.2;}.cls-128,.cls-130{opacity:0.11;}.cls-129{fill:#cc5c50;opacity:0.34;}.cls-130{fill:#ffbc80;}.cls-131{fill:url(#Áåçûìÿííûé_ãðàäèåíò_57-4);}.cls-132{fill:url(#Áåçûìÿííûé_ãðàäèåíò_57-5);}</style><linearGradient id="Áåçûìÿííûé_ãðàäèåíò_11" x1="317.27" y1="1407.76" x2="317.27" y2="1325.68" gradientUnits="userSpaceOnUse"><stop offset="0" stop-color="#fff"/><stop offset="1" stop-color="#a5b7c6"/></linearGradient><linearGradient id="Áåçûìÿííûé_ãðàäèåíò_487" x1="318.96" y1="251.33" x2="318.96" y2="280.19" gradientUnits="userSpaceOnUse"><stop offset="0" stop-color="#db7d67"/><stop offset="1" stop-color="#ff9e78"/></linearGradient><linearGradient id="Áåçûìÿííûé_ãðàäèåíò_6" x1="320.85" y1="270.73" x2="320.85" y2="399.85" gradientUnits="userSpaceOnUse"><stop offset="0" stop-color="#deefff"/><stop offset="1" stop-color="#cadbef"/></linearGradient><linearGradient id="Áåçûìÿííûé_ãðàäèåíò_501" x1="2898.67" y1="954.85" x2="2913.83" y2="781.49" gradientTransform="matrix(-1, 0, 0, 1, 3308.1, 0)" gradientUnits="userSpaceOnUse"><stop offset="0" stop-color="#3d434f"/><stop offset="1" stop-color="#333844"/></linearGradient><linearGradient id="Áåçûìÿííûé_ãðàäèåíò_486" x1="141.28" y1="1326.37" x2="141.77" y2="1353.46" gradientUnits="userSpaceOnUse"><stop offset="0" stop-color="#5b5b60"/><stop offset="1" stop-color="#2c2c2d"/></linearGradient><linearGradient id="Áåçûìÿííûé_ãðàäèåíò_486-2" x1="493.56" y1="1326.33" x2="494.06" y2="1353.55" xlink:href="#Áåçûìÿííûé_ãðàäèåíò_486"/><linearGradient id="Áåçûìÿííûé_ãðàäèåíò_501-2" x1="220.72" y1="954.73" x2="236.02" y2="779.87" gradientTransform="matrix(1, 0, 0, 1, 0, 0)" xlink:href="#Áåçûìÿííûé_ãðàäèåíò_501"/><linearGradient id="Áåçûìÿííûé_ãðàäèåíò_7" x1="320.1" y1="317.01" x2="320.1" y2="357.43" gradientUnits="userSpaceOnUse"><stop offset="0" stop-color="#b3cbe2"/><stop offset="1" stop-color="#cadbef"/></linearGradient><linearGradient id="Áåçûìÿííûé_ãðàäèåíò_7-2" x1="319.69" y1="411.18" x2="319.69" y2="608.15" xlink:href="#Áåçûìÿííûé_ãðàäèåíò_7"/><linearGradient id="Áåçûìÿííûé_ãðàäèåíò_487-2" x1="169.59" y1="832.62" x2="184.1" y2="820.08" xlink:href="#Áåçûìÿííûé_ãðàäèåíò_487"/><linearGradient id="Áåçûìÿííûé_ãðàäèåíò_29" x1="172.72" y1="836.18" x2="124.1" y2="751.18" gradientUnits="userSpaceOnUse"><stop offset="0" stop-color="#f28c70"/><stop offset="1" stop-color="#ff9e78"/></linearGradient><linearGradient id="Áåçûìÿííûé_ãðàäèåíò_29-2" x1="200.14" y1="569.89" x2="118.85" y2="636.17" xlink:href="#Áåçûìÿííûé_ãðàäèåíò_29"/><linearGradient id="Áåçûìÿííûé_ãðàäèåíò_487-3" x1="474.87" y1="829.06" x2="452.83" y2="805.57" xlink:href="#Áåçûìÿííûé_ãðàäèåíò_487"/><linearGradient id="Áåçûìÿííûé_ãðàäèåíò_29-3" x1="488.85" y1="830.69" x2="512.82" y2="741.07" xlink:href="#Áåçûìÿííûé_ãðàäèåíò_29"/><linearGradient id="Áåçûìÿííûé_ãðàäèåíò_29-4" x1="563.31" y1="562.53" x2="460.72" y2="646.17" xlink:href="#Áåçûìÿííûé_ãðàäèåíò_29"/><linearGradient id="Áåçûìÿííûé_ãðàäèåíò_7-3" x1="321.5" y1="520.21" x2="321.5" y2="666.82" xlink:href="#Áåçûìÿííûé_ãðàäèåíò_7"/><linearGradient id="Áåçûìÿííûé_ãðàäèåíò_20" x1="263.44" y1="678.47" x2="295.27" y2="678.47" gradientUnits="userSpaceOnUse"><stop offset="0" stop-color="#5f6163"/><stop offset="1" stop-color="#444749"/></linearGradient><linearGradient id="Áåçûìÿííûé_ãðàäèåíò_20-2" x1="281" y1="677.57" x2="295.04" y2="677.57" xlink:href="#Áåçûìÿííûé_ãðàäèåíò_20"/><linearGradient id="Áåçûìÿííûé_ãðàäèåíò_6-2" x1="138.66" y1="478.67" x2="138" y2="486.15" xlink:href="#Áåçûìÿííûé_ãðàäèåíò_6"/><linearGradient id="Áåçûìÿííûé_ãðàäèåíò_6-3" x1="501.94" y1="476.87" x2="500.65" y2="491.59" xlink:href="#Áåçûìÿííûé_ãðàäèåíò_6"/><linearGradient id="Áåçûìÿííûé_ãðàäèåíò_16" x1="274.67" y1="22.39" x2="274.67" y2="45.32" gradientTransform="matrix(0.99, -0.01, 0, 1.01, 45.81, 77.61)" gradientUnits="userSpaceOnUse"><stop offset="0" stop-color="#c6664f"/><stop offset="1" stop-color="#ff9e78"/></linearGradient><linearGradient id="Áåçûìÿííûé_ãðàäèåíò_29-5" x1="311.29" y1="-79.04" x2="349.38" y2="-79.04" gradientTransform="matrix(0.97, -0.1, 0.02, 1.03, 100.95, 307.37)" xlink:href="#Áåçûìÿííûé_ãðàäèåíò_29"/><linearGradient id="Áåçûìÿííûé_ãðàäèåíò_29-6" x1="323.34" y1="-99.2" x2="342.39" y2="-99.2" gradientTransform="matrix(0.97, -0.1, 0.02, 1.03, 100.95, 307.37)" xlink:href="#Áåçûìÿííûé_ãðàäèåíò_29"/><linearGradient id="Áåçûìÿííûé_ãðàäèåíò_29-7" x1="5301.82" y1="781.86" x2="5344.77" y2="781.86" gradientTransform="matrix(-0.98, -0.28, -0.16, 0.98, 5543.97, 920.1)" xlink:href="#Áåçûìÿííûé_ãðàäèåíò_29"/><linearGradient id="Áåçûìÿííûé_ãðàäèåíò_29-8" x1="5319.61" y1="761.91" x2="5338.19" y2="761.91" gradientTransform="matrix(-0.98, -0.28, -0.16, 0.98, 5543.97, 920.1)" xlink:href="#Áåçûìÿííûé_ãðàäèåíò_29"/><linearGradient id="Áåçûìÿííûé_ãðàäèåíò_57" x1="284.79" y1="-77.93" x2="284.33" y2="-4.09" gradientTransform="matrix(0.99, 0.01, -0.02, 1.01, 48.44, 82.75)" gradientUnits="userSpaceOnUse"><stop offset="0" stop-color="#75483b"/><stop offset="0.35" stop-color="#704538"/><stop offset="0.75" stop-color="#633c30"/><stop offset="1" stop-color="#563428"/></linearGradient><linearGradient id="Áåçûìÿííûé_ãðàäèåíò_57-2" x1="225.03" y1="-142.75" x2="222.5" y2="-77.2" gradientTransform="matrix(0.99, -0.03, 0.02, 1.01, 37.12, 167.72)" xlink:href="#Áåçûìÿííûé_ãðàäèåíò_57"/><linearGradient id="Áåçûìÿííûé_ãðàäèåíò_16-2" x1="315.66" y1="69.29" x2="314.78" y2="122.73" gradientTransform="matrix(0.99, 0, -0.01, 1.01, 46.23, 59.75)" xlink:href="#Áåçûìÿííûé_ãðàäèåíò_16"/><linearGradient id="Áåçûìÿííûé_ãðàäèåíò_16-3" x1="238" y1="75.44" x2="237.26" y2="121.06" gradientTransform="matrix(0.99, 0, -0.01, 1.01, 46.23, 59.75)" xlink:href="#Áåçûìÿííûé_ãðàäèåíò_16"/><linearGradient id="Áåçûìÿííûé_ãðàäèåíò_57-3" x1="320.92" y1="212.53" x2="320.92" y2="166.34" gradientTransform="matrix(1, 0, 0, 1, 0, 0)" xlink:href="#Áåçûìÿííûé_ãðàäèåíò_57"/><linearGradient id="Áåçûìÿííûé_ãðàäèåíò_24" x1="277.64" y1="65.44" x2="278.54" y2="75.62" gradientTransform="matrix(0.99, -0.03, 0.02, 1.01, 37.12, 167.72)" gradientUnits="userSpaceOnUse"><stop offset="0" stop-color="#4c2e25"/><stop offset="0.39" stop-color="#513127"/><stop offset="0.83" stop-color="#5e3a2e"/><stop offset="1" stop-color="#663f32"/></linearGradient><linearGradient id="Áåçûìÿííûé_ãðàäèåíò_29-9" x1="269.39" y1="202.52" x2="269.39" y2="183.6" gradientTransform="matrix(0.99, 0.02, -0.02, 1.01, 49.18, 16.67)" xlink:href="#Áåçûìÿííûé_ãðàäèåíò_29"/><linearGradient id="Áåçûìÿííûé_ãðàäèåíò_57-4" x1="248.99" y1="-13.16" x2="247.17" y2="6.15" gradientTransform="matrix(0.99, -0.03, 0.02, 1.01, 37.12, 167.72)" xlink:href="#Áåçûìÿííûé_ãðàäèåíò_57"/><linearGradient id="Áåçûìÿííûé_ãðàäèåíò_57-5" x1="738.28" y1="-12.23" x2="736.47" y2="6.93" gradientTransform="matrix(-0.99, 0.03, 0.02, 1.01, 1089.27, 135.8)" xlink:href="#Áåçûìÿííûé_ãðàäèåíò_57"/></defs><g id="Layer_2" data-name="Layer 2"><g id="Ñëîé_1" data-name="Ñëîé 1"><path class="cls-1" d="M634.54,1369.35s-142,27.43-317.27,27.43S0,1369.35,0,1369.35s142.05-27.43,317.27-27.43S634.54,1369.35,634.54,1369.35Z"/><path class="cls-2" d="M388.81,256.24a245.16,245.16,0,0,0-25.93-4.41l1.44-57.35c.47-17.48-18.05-31.49-42.05-31.1h0c-23,.39-43.08,15-43.55,32.47l-1.49,57.23a229.26,229.26,0,0,0-28.92,6.24L249,327H389.61Z"/><path class="cls-3" d="M530.76,421.28c-8.07-71.7-26.21-83.18-50.56-110.58-21.53-24.23-68.58-50.73-92.43-55.18l-.24-.9c-6.63-19.9-24.21-19-24.21-19-7.51,55-42.59,82.68-42.59,82.68-36.59-11.94-43.16-75.89-43.16-75.89-13.76.11-22,10.58-24.77,14.78-38.59,5.13-76.8,33.36-99.75,58.6-29.89,32.86-36,52.28-42.11,102.06,1.89.43,44.71,14.14,66.73,18.36-4.62,67.45-9.32,154.26-5.82,189.24.68,6.74,9.81,14.73,10.93,16.9C194,664,461.37,660.88,461.94,643.64c.1-3,7-10.63,7.44-16.5,2.7-36.56,5.11-119.06,3.32-193.82C495,429.11,519.9,421.85,530.76,421.28Z"/><path class="cls-4" d="M172.07,1305.23c-1,.53-80.88,44.1-81.77,57.83,0,.56-2.28,1-2.62,1.4l-.12,5.38c42.77,14.39,128.85-2.6,128.85-2.6s.2,3.43,1.06,3.52c17.05,1.74,46-2.2,48-3.8.4-.34,1-5,.84-9.1,0-.39-1.12-1.31-1.12-1.31.93-16.18.9-47.38,1-48.11C269.05,1294.4,178.63,1281,172.07,1305.23Z"/><path class="cls-4" d="M463.43,1305.23c1.05.53,80.88,44.1,81.77,57.83,0,.56,2.28,1,2.62,1.4l.12,5.38c-42.77,14.39-128.85-2.6-128.85-2.6s-.2,3.43-1.06,3.52c-17,1.74-46-2.2-48-3.8-.4-.34-1-5-.83-9.1,0-.39,1.11-1.31,1.11-1.31-.93-16.18-.9-47.38-1-48.11C366.45,1294.4,456.87,1281,463.43,1305.23Z"/><path class="cls-5" d="M272.48,1328.7C301,1013.35,313.76,762.28,316.14,692L172.59,676.09c-9.91,110.46-1.22,395.46-18,639,0,0,13.62-7.77,40.9-6.34,26,1.35,55.68,17.51,70.36,22Z"/><path class="cls-5" d="M364,1328.62C335.53,1013.27,321.93,762.28,319.55,692L463.1,676.09c9.91,110.46,1.13,395.52,17.9,639,0,0-13.95-6-40.82-6.4-15.17-.24-55.92,17.51-70.6,22Z"/><g class="cls-6"><path d="M325.06,735.08a28.4,28.4,0,0,1,1.17-9.34l-3.92.58s.12,3.49.33,10.09C323.45,736,324.25,735.51,325.06,735.08Z"/></g><path class="cls-5" d="M173.89,644.92c-4.22,80.14-5.39,117.74-5.39,117.74s83.48,6.86,174,6.12c58.83-.49,109,3.89,112.87-20,3.46-21.62,6-47.43,8.05-102.25a4,4,0,0,0-4.37-4.14c-14.73,1.51-64.71,5.86-143.2,4.88-86.29-1.07-124.57-6.66-135.48-7.6C178.72,639.49,174,643.27,173.89,644.92Z"/><path class="cls-7" d="M291.09,761.82l-1,6.35c23.9.82,54.84.18,54.84.18l-.13-6.54Z"/><path class="cls-7" d="M197.4,720.13c-8.89,8.18-22.33,17.52-28.31,21.31.15-4.35.54-8.14.54-8.14s19.36-12.85,25-17Q196,718.2,197.4,720.13Z"/><path class="cls-8" d="M315.85,664.57c-75.31,0-122-3.35-142.54-5.27-2.51,0-4.09,27.13-1.24,28.4,21.91,2,68.61,5.24,143.78,5.24,65.77,0,121.07-3.81,148.14-5.82,2.37.21,1.5-27.87-1.08-27.87C437.71,661.19,383.88,664.57,315.85,664.57Z"/><polygon class="cls-5" points="249.24 702.7 232.11 701.81 235.37 654.41 252.5 655.3 249.24 702.7"/><polygon class="cls-5" points="391.46 702.7 374.33 701.81 377.59 654.41 394.73 655.3 391.46 702.7"/><path class="cls-7" d="M437.25,715.8c-1.05,2.52-.71,1.72-1.71,4.26,8.24,7.06,23.21,16,31,20.87.06-3.35-.19-4.27-.24-7.29Z"/><path class="cls-9" d="M452.47,768.48s8,228.08,3.15,233-30.26,25.16-36.95,24.51c-10.83-1.06-62-24.32-64.76-31.83S339.45,772.93,343.49,773,452.47,768.48,452.47,768.48Z"/><path class="cls-5" d="M354.45,1218.92c-.18,0,.71,19.34.75,20.45.19,5.2-.86,11-.15,16,.77,5.4,4.63,10,4.23,15.66-.26,3.53-2.27,6.65-3.86,9.81s-2.82,6.91-1.46,10.17c1.14,2.73,3.89,4.57,4.87,7.35,1.29,3.69-.8,7.18-1.05,10.82-.28,4,.88,8.44,1.13,12.57.13,2-.49,15,1.62,16.19s7,3.61,9.24,3.14c17.13-3.65,43.51-25.36,65.12-30.45,24.57-5.78,46.11,4.5,46.11,4.5-2.19-.62.37-15.68,1-17.16,1-2.29,2.43-4.47,2.67-7,.66-6.85-7.94-12.37-6.45-19.09.77-3.43,4.09-6.07,4.14-9.58,0-2.9-2.15-5.26-3.57-7.79-2.74-4.87-1.61-10-1.9-15.26l-.87-16.09c0-.8-.9-15.1-.81-15.11Z"/><path class="cls-5" d="M281.71,1218c.18,0-1,21.11-1,22.22-.2,5.2.06,10.1-.65,15.12-.76,5.4-2.75,8.74-2.34,14.38.25,3.53.38,7.93,2,11.09s2.82,6.91,1.45,10.17c-1.14,2.73-3.89,4.57-4.86,7.35-1.3,3.69.79,7.18,1,10.82.28,4-.87,8.44-1.13,12.57-.13,2,.49,15-1.61,16.19a23.51,23.51,0,0,1-8.67,2.56c-30.94,0-45.28-23.22-65.13-28.3-24.45-6.26-46.67,2.93-46.67,2.93,2.18-.62-.37-15.68-1-17.16-1-2.29-2.44-4.47-2.68-7-.66-6.85,7.94-12.37,6.45-19.09-.76-3.43-4.08-6.07-4.14-9.58,0-2.9,2.15-5.26,3.57-7.79,2.75-4.87,1.61-10,1.9-15.26s.58-10.73.87-16.09c0-.8,1.47-16.28,1.39-16.29Z"/><path class="cls-10" d="M215.24,1360.41c-22.83,2.81-48.71,6-70.35,6.35-32.86.56-49-2.58-54.55-4,0,.11,0,.22,0,.32,0,.56-2.28,1-2.62,1.4v.15c2.82.93,16.45,4.74,49.46,4.74q3.74,0,7.79-.07c21.78-.37,47.73-3.55,70.62-6.36,22.14-2.72,41.29-5.07,50.75-4.16q0-.45,0-.9c0-.39-1.11-1.31-1.11-1.31l0-.41C255.07,1355.53,236.53,1357.8,215.24,1360.41Z"/><path class="cls-10" d="M420.24,1360.41c22.83,2.81,48.7,6,70.34,6.35,32.85.56,49-2.59,54.59-4,0,.11,0,.23,0,.33,0,.56,2.28,1,2.62,1.4v.14c-2.82.93-16.49,4.75-49.5,4.75q-3.72,0-7.79-.07c-21.77-.37-47.71-3.55-70.6-6.36-22.13-2.72-41.28-5.07-50.74-4.16l0-.9c0-.39,1.11-1.31,1.11-1.31s0-.27,0-.41C380.42,1355.53,399,1357.8,420.24,1360.41Z"/><path class="cls-11" d="M187.81,1348.33c-28.31-16.8-53.82-15.12-72-9.15-9,6.15-16.79,12.13-21.34,17,6.31,1.49,17.64,3.11,37.7,3.61C172.06,1360.77,194.74,1352.44,187.81,1348.33Z"/><path class="cls-12" d="M541.11,1356.26c-4.61-5-12.67-11.1-21.91-17.4-18.09-5.7-43.18-7-71,9.47-6.93,4.11,15.75,12.44,55.62,11.44C523.46,1359.29,534.71,1357.72,541.11,1356.26Z"/><path class="cls-13" d="M177.58,768.48s-9.78,230-5,234.93,42.23,24.58,48.93,23.93c10.83-1.06,52.17-30,54.9-37.48s17.73-218.36,13.68-218.25S177.58,768.48,177.58,768.48Z"/><path class="cls-14" d="M177.72,555.52c5.67-65.78,7.44-135.79,8.54-149.37.14-1.69-71.86-14-71.86-14C108.32,428,105,494,105,494s-3.62,21.15-7.57,51.24C122.84,548.56,151,551.16,177.72,555.52Z"/><path class="cls-14" d="M542.51,547.92c-3.59-34.81-6.66-59.8-6.66-59.8s-2.13-61-10.93-104.75c0,0-90.65,21.09-90.47,22.78,1.37,13,11.28,85.35,20.54,152.22C481.74,550.74,505,545.41,542.51,547.92Z"/><path class="cls-15" d="M250.39,257.51c-.6.12-1.21.24-1.87.31l-.21,0c-3.73,22.83,15.79,84.19,22.91,88.85,8.38,5.48,49.08-24.58,49.08-24.58s34.06,30.29,44.13,29c8.64-1.1,30.16-54.44,27.74-94.6-1.54-.41-3-.75-4.4-1,.41,26-18.29,80.25-24.49,83.71-5.88,3.27-29.33-16.43-38.83-24.31-2.3,2.21-3.72,3.34-3.72,3.34a39.43,39.43,0,0,1-4-1.56l-.23-.07c-9.57,6.26-31,19.62-39.22,19.12-9.19-.55-25.85-63.14-24.51-78.6C252,257.25,251.2,257.38,250.39,257.51Z"/><path class="cls-14" d="M102.18,473.85c-.84,1.22-9.19,72.9-6.36,75.37.38.34,5.82,1.26,5.82,1.26,18.41-3.18,61.46,4.2,72.79,8.59a2.61,2.61,0,0,0,3.26-.89c1.77-4.2,6.36-74.27,6.62-79.47S104.66,470.25,102.18,473.85Z"/><path class="cls-14" d="M539.86,473.44c.84,1.22,6.32,73.31,3.49,75.78-.39.34-5.82,1.26-5.82,1.26-18.42-3.18-61.47,4.2-72.79,8.59a2.61,2.61,0,0,1-3.26-.89c-1.77-4.2-6.36-74.27-6.63-79.47S537.38,469.83,539.86,473.44Z"/><path class="cls-16" d="M471,560.67c17.3-4.08,51.68-12.76,66.58-10.19,0,0,5.43-.92,5.82-1.26,1.19-1,.91-14.41.12-29.64-.74,7.19-2,17.27-3.58,19.36-2.47,3.31-71.36,7-73,6.46s-6.33-62.3-4.67-66.17c1.41-3.27,56.13-6.19,72.86-7-.16-2.68-.34-5.64-.56-8.81-15.89-.2-73.65,3.48-75.34,3-1.93-.55-11.11-79.4-11.11-79.4h-6.68s4.52,227.35-2,233.33-111.7,12.71-117.06,13.4-121.2-10.56-124.93-16.08,1-230.65,1-230.65H193l-15.14,83.74-71-5.69c-.18,2.51-.34,4.88-.49,7.16,10.35,1.14,66.08,7.31,68.25,8.86,2.4,1.72,0,60-2.75,60s-65.39-6.38-69.9-6.28-4.49-21.49-4.49-21.49C95.68,531,94.46,548,95.82,549.22c.38.34,5.82,1.26,5.82,1.26,17-2.93,54.88,3.12,69.56,7.51-.84,28.21-.84,52.52.65,67.42.68,6.74,9.81,14.73,10.93,16.9,1.81,3.49,95.51,6.58,138.72,7,38,.35,140.31-1.7,140.44-5.65.1-3,7-10.63,7.44-16.5C470.58,611,470.9,590.22,471,560.67Z"/><path class="cls-17" d="M159.94,824.8s7.29-4.34,12.19-3.83,6,3.35,6,3.35a12.64,12.64,0,0,1,8.33,1.63c4.12,2.49,2.92,6.1,2.15,6.35s-5.5,2.92-5.5,2.92S160.62,826.57,159.94,824.8Z"/><path class="cls-18" d="M173.69,550.65c0,40.14-22.39,161.32-17.67,168.22s19.29,18.22,24.43,27.57,10.05,58.9,13.55,63.11-8.88,11-16.59,4-12.86-26.64-12.86-26.64-7.94,6.54-8.41,9.58,5.84,28.28,7.48,29.68,23.06,5.18,25.79,11.13,0,11.09-1,11.41-29.9-3.21-29.9-3.21-25.72.32-28.29-.8-7.72-6.92-7.72-6.92-7.71-3.69-11.09-5.94-14.79-39.23-17.2-43.41S93.76,592,101.87,541.46C102.14,539.78,173.69,544.39,173.69,550.65Z"/><path class="cls-19" d="M180.45,746.44c-5.14-9.35-19.71-20.67-24.43-27.57a4.71,4.71,0,0,1-.55-1.33c-3.72,17.75-11.61,67.22-11.61,67.22s-42.14,5-45,3.57a35.46,35.46,0,0,1-5.11-3.46,13.59,13.59,0,0,0,.49,3.53c2.41,4.18,13.82,41.16,17.2,43.41s11.09,5.94,11.09,5.94,5.15,5.79,7.72,6.92,28.29.8,28.29.8,28.93,3.54,29.9,3.21,3.69-5.46,1-11.41-24.15-9.73-25.79-11.13-8-26.64-7.48-29.68,8.41-9.58,8.41-9.58,5.15,19.63,12.86,26.64,20.1.23,16.59-4S185.59,755.79,180.45,746.44Z"/><path class="cls-20" d="M159.15,770.58c.15,2.65,1.6,12.74,2.5,18.87,1.59-1.49,2.9-2.57,2.9-2.57s.68,2.58,1.91,6.19c-.18-.55-2.43-18.44-3.09-23.74C162,769.74,160.55,770.15,159.15,770.58Z"/><path class="cls-20" d="M162,845.89c-1.69-.66-18.2-7.14-19.86-8.61S130.66,814.86,128.38,810l-3.36.71c1.55,4.63,11.48,28.14,12.79,29.65.82.92,6.15,3.25,10.72,5.13,5.47,0,10,0,10,0Z"/><path class="cls-20" d="M117.8,835.38c2.55,1.32,4.74,2.37,4.74,2.37s.31.36.82.9h0c-.49-.52-7.27-18.77-9.78-25.74q-1.55.24-3.09.42C112,818.19,115.76,829.39,117.8,835.38Z"/><path class="cls-21" d="M155.38,715h0c-.59-20,18.31-127.59,18.31-164.47,0-6.26-71.55-10.82-71.82-9.13-3,18.77-5.06,55.86-6.46,94.93.19-1.85,7.48-74.78,11.68-79.76,1.79-2.13,49.33-1.18,49.86,8.29C157.2,569.5,153.41,714,155.38,715Z"/><path class="cls-22" d="M496.3,822.33c-.27,0-18.3-5.26-23.66-2.4s-14.41,20-12.66,22.74,8.14,3.05,8.41,3.14,25.51-5.36,25.51-5.36Z"/><path class="cls-18" d="M467.15,556.45c0,37.63,17.76,143.85,13.46,160.69s-19.71,28-21.68,40.13S453.42,824.1,450,832s13.2,11.75,19,4.35,12.07-34.6,15.29-38.3,9.65,7.89,9.65,7.89-2.81,28.16-3.78,28.44-27,5.43-32.78,11.3.47,13.85,1.87,14.09,28.64-1.41,33.93-3,13.73-5.29,13.73-5.29,9.74-2.23,12.21-4.34,26.53-37.91,27.7-48-10.68-68.9-10.68-72.19S540.54,551,538,547.52,467.15,553.33,467.15,556.45Z"/><path class="cls-23" d="M465.23,828.59c7.3.93,24.26,3,29.82,3.21l.37-2.83c-5.73-.85-22.23-3.27-28-3.73C466.7,826.29,466,827.42,465.23,828.59Z"/><path class="cls-24" d="M544.49,775.86c-.45,6.17,0,11.28-.83,12.63-1.48,2.37-35.75,3.5-40.95,1-4.63-2.25-24.84-48.44-27.18-60.4-6.23,10.67-15.13,19.14-16.6,28.2-2,12.19-5.51,66.83-8.89,74.71s13.2,11.75,19,4.35,12.07-34.6,15.29-38.3,9.65,7.89,9.65,7.89-2.81,28.16-3.78,28.44-27,5.43-32.78,11.3.47,13.85,1.87,14.09,28.64-1.41,33.93-3,13.73-5.29,13.73-5.29,9.74-2.23,12.21-4.34,26.53-37.91,27.7-48C547.25,795.62,546.14,786.5,544.49,775.86Z"/><path class="cls-20" d="M488.52,783.76c-.35.11-2.66,8.91-3.95,14,1.25-1.1,2.92-.18,4.5,1.39,1.31-5.38,3.13-14.32,2.95-14.61S489,783.59,488.52,783.76Z"/><path class="cls-20" d="M506.94,851.41s2.87-.65,5.89-1.59c4.92-8.89,17.91-35.54,17.71-36.05s-2.44-1.58-3.42-1.58-17.88,32.48-21.68,39.86Z"/><path class="cls-25" d="M531.05,556.57c4.2,5,6.6,84.81,6.89,85.61.88-44.48,1.41-92.77,0-94.66-2.59-3.53-70.71,5.81-70.71,8.93,0,35.84,15.83,134.75,13.83,157.66h0c2-.91,0-144.67.21-149.3C481.82,555.34,529.26,554.44,531.05,556.57Z"/><path class="cls-26" d="M325.18,648.53,323.08,318h-1.14c-.77,1-1.21,1-1.21,1-.94-.31-1.94-1-2.76-1h-.14s3.06,268.8,1.14,330.74Z"/><path class="cls-27" d="M340.24,664.43s-52-.54-52,.46c0,0-.45,27,0,27.44s52.31.43,52.31.43,0,4.41-.88,5c-3.18,1.93-56.82,1.36-58.3,0s-.5-36.53.64-38.46,56-1.3,57.07-.51S340.24,664.43,340.24,664.43Z"/><path class="cls-28" d="M283.43,674.29s-.65,6.22-.24,6.63,13,0,13.31-.23.46-5.34.12-6.15C296.38,674,283.9,673.88,283.43,674.29Z"/><path class="cls-29" d="M174.69,479.94c-.28-.05-43.34-5.8-63.55-7.44-5.11.22-8.48.66-9,1.35a100.11,100.11,0,0,0-1.5,10c12.32,1.48,72.78,8.28,74.07,6.36C176.18,488.05,175.05,480,174.69,479.94Z"/><path class="cls-30" d="M541.27,486.78c-.64-7.69-1.19-13-1.41-13.34-.47-.68-3.75-1.1-8.78-1.3-21.35,1-67.64,4.52-69.52,6.95,0,0,.45,12.19.47,12.77S526.71,488.76,541.27,486.78Z"/><path class="cls-31" d="M282.14,35.62s0-.17,0-.45C282.12,35.46,282.14,35.62,282.14,35.62Z"/><path class="cls-32" d="M391.7,91.36c-5.37-35-102.87-51.64-132-3.53-9.33,22.31-22.11,57-27.38,98.35,0-.45,0-.71,0-.71s-2.77,107.74,80.42,104.2c76.12-3.24,91.85-59.82,93-96.38h0C406.11,157.11,398.78,118.31,391.7,91.36Z"/><g class="cls-33"><ellipse class="cls-18" cx="365.36" cy="210.81" rx="39.96" ry="34.42" transform="translate(80.37 521.78) rotate(-77.48)"/><ellipse class="cls-34" cx="365.36" cy="210.81" rx="39.7" ry="34.2" transform="translate(80.37 521.79) rotate(-77.48)"/><ellipse class="cls-35" cx="365.36" cy="210.81" rx="39.45" ry="33.98" transform="translate(80.37 521.78) rotate(-77.48)"/><ellipse class="cls-36" cx="365.36" cy="210.81" rx="39.19" ry="33.76" transform="translate(80.37 521.79) rotate(-77.48)"/><ellipse class="cls-37" cx="365.36" cy="210.81" rx="38.93" ry="33.54" transform="translate(80.37 521.79) rotate(-77.48)"/><ellipse class="cls-38" cx="365.36" cy="210.81" rx="38.68" ry="33.32" transform="translate(80.37 521.79) rotate(-77.48)"/><ellipse class="cls-39" cx="365.36" cy="210.81" rx="38.42" ry="33.1" transform="translate(80.37 521.79) rotate(-77.48)"/><ellipse class="cls-40" cx="365.36" cy="210.81" rx="38.17" ry="32.88" transform="translate(80.37 521.79) rotate(-77.48)"/><ellipse class="cls-41" cx="365.36" cy="210.81" rx="37.91" ry="32.66" transform="translate(80.38 521.79) rotate(-77.48)"/><ellipse class="cls-42" cx="365.36" cy="210.81" rx="37.65" ry="32.44" transform="translate(80.37 521.79) rotate(-77.48)"/><ellipse class="cls-43" cx="365.36" cy="210.81" rx="37.4" ry="32.22" transform="translate(80.37 521.78) rotate(-77.48)"/><ellipse class="cls-44" cx="365.36" cy="210.81" rx="37.14" ry="32" transform="translate(80.37 521.79) rotate(-77.48)"/><ellipse class="cls-45" cx="365.36" cy="210.81" rx="36.88" ry="31.78" transform="translate(80.37 521.79) rotate(-77.48)"/><ellipse class="cls-46" cx="365.36" cy="210.81" rx="36.63" ry="31.56" transform="translate(80.37 521.78) rotate(-77.48)"/><ellipse class="cls-47" cx="365.36" cy="210.81" rx="36.37" ry="31.33" transform="translate(80.37 521.79) rotate(-77.48)"/><ellipse class="cls-48" cx="365.36" cy="210.81" rx="36.12" ry="31.11" transform="translate(80.37 521.78) rotate(-77.48)"/><ellipse class="cls-49" cx="365.36" cy="210.81" rx="35.86" ry="30.89" transform="translate(80.37 521.79) rotate(-77.48)"/><ellipse class="cls-50" cx="365.36" cy="210.81" rx="35.6" ry="30.67" transform="translate(80.37 521.79) rotate(-77.48)"/><ellipse class="cls-51" cx="365.36" cy="210.81" rx="35.35" ry="30.45" transform="translate(80.37 521.78) rotate(-77.48)"/><ellipse class="cls-52" cx="365.36" cy="210.81" rx="35.09" ry="30.23" transform="translate(80.37 521.78) rotate(-77.48)"/><ellipse class="cls-53" cx="365.36" cy="210.81" rx="34.84" ry="30.01" transform="translate(80.37 521.79) rotate(-77.48)"/><ellipse class="cls-54" cx="365.36" cy="210.81" rx="34.58" ry="29.79" transform="translate(80.38 521.79) rotate(-77.48)"/><ellipse class="cls-55" cx="365.36" cy="210.81" rx="34.32" ry="29.57" transform="translate(80.38 521.79) rotate(-77.48)"/><ellipse class="cls-56" cx="365.36" cy="210.81" rx="34.07" ry="29.35" transform="translate(80.37 521.78) rotate(-77.48)"/><ellipse class="cls-57" cx="365.36" cy="210.81" rx="33.81" ry="29.13" transform="translate(80.37 521.79) rotate(-77.48)"/><ellipse class="cls-58" cx="365.36" cy="210.81" rx="33.55" ry="28.91" transform="translate(80.37 521.79) rotate(-77.48)"/><ellipse class="cls-59" cx="365.36" cy="210.81" rx="33.3" ry="28.69" transform="translate(80.37 521.79) rotate(-77.48)"/><ellipse class="cls-60" cx="365.36" cy="210.81" rx="33.04" ry="28.47" transform="translate(80.37 521.78) rotate(-77.48)"/><ellipse class="cls-61" cx="365.36" cy="210.81" rx="32.79" ry="28.25" transform="translate(80.37 521.78) rotate(-77.48)"/><ellipse class="cls-62" cx="365.36" cy="210.81" rx="32.53" ry="28.02" transform="translate(80.37 521.79) rotate(-77.48)"/><ellipse class="cls-63" cx="365.36" cy="210.81" rx="32.27" ry="27.8" transform="translate(80.37 521.79) rotate(-77.48)"/><ellipse class="cls-64" cx="365.36" cy="210.81" rx="32.02" ry="27.58" transform="translate(80.37 521.79) rotate(-77.48)"/><ellipse class="cls-65" cx="365.36" cy="210.81" rx="31.76" ry="27.36" transform="translate(80.37 521.78) rotate(-77.48)"/><ellipse class="cls-66" cx="365.36" cy="210.81" rx="31.51" ry="27.14" transform="translate(80.37 521.78) rotate(-77.48)"/><ellipse class="cls-67" cx="365.36" cy="210.81" rx="31.25" ry="26.92" transform="translate(80.37 521.78) rotate(-77.48)"/><ellipse class="cls-68" cx="365.36" cy="210.81" rx="30.99" ry="26.7" transform="translate(80.37 521.78) rotate(-77.48)"/><ellipse class="cls-69" cx="365.36" cy="210.81" rx="30.74" ry="26.48" transform="translate(80.38 521.79) rotate(-77.48)"/><ellipse class="cls-70" cx="365.36" cy="210.81" rx="30.48" ry="26.26" transform="translate(80.37 521.79) rotate(-77.48)"/><ellipse class="cls-71" cx="365.36" cy="210.81" rx="30.22" ry="26.04" transform="translate(80.37 521.79) rotate(-77.48)"/><ellipse class="cls-72" cx="365.36" cy="210.81" rx="29.97" ry="25.82" transform="translate(80.38 521.79) rotate(-77.48)"/><ellipse class="cls-72" cx="365.36" cy="210.81" rx="29.71" ry="25.6" transform="translate(80.37 521.79) rotate(-77.48)"/><ellipse class="cls-73" cx="365.36" cy="210.81" rx="29.46" ry="25.38" transform="translate(80.37 521.78) rotate(-77.48)"/><ellipse class="cls-74" cx="365.36" cy="210.81" rx="29.2" ry="25.16" transform="translate(80.37 521.78) rotate(-77.48)"/><ellipse class="cls-75" cx="365.36" cy="210.81" rx="28.94" ry="24.94" transform="translate(80.37 521.79) rotate(-77.48)"/><ellipse class="cls-76" cx="365.36" cy="210.81" rx="28.69" ry="24.71" transform="translate(80.37 521.79) rotate(-77.48)"/><ellipse class="cls-77" cx="365.36" cy="210.81" rx="28.43" ry="24.49" transform="translate(80.37 521.79) rotate(-77.48)"/><ellipse class="cls-78" cx="365.36" cy="210.81" rx="28.18" ry="24.27" transform="translate(80.37 521.78) rotate(-77.48)"/><ellipse class="cls-79" cx="365.36" cy="210.81" rx="27.92" ry="24.05" transform="translate(80.37 521.78) rotate(-77.48)"/><ellipse class="cls-80" cx="365.36" cy="210.81" rx="27.66" ry="23.83" transform="translate(80.37 521.78) rotate(-77.48)"/><ellipse class="cls-81" cx="365.36" cy="210.81" rx="27.41" ry="23.61" transform="translate(80.37 521.78) rotate(-77.48)"/><ellipse class="cls-82" cx="365.36" cy="210.81" rx="27.15" ry="23.39" transform="translate(80.37 521.79) rotate(-77.48)"/><ellipse class="cls-83" cx="365.36" cy="210.81" rx="26.89" ry="23.17" transform="translate(80.37 521.78) rotate(-77.48)"/><ellipse class="cls-84" cx="365.36" cy="210.81" rx="26.64" ry="22.95" transform="translate(80.38 521.79) rotate(-77.48)"/><ellipse class="cls-85" cx="365.36" cy="210.81" rx="26.38" ry="22.73" transform="translate(80.37 521.79) rotate(-77.48)"/><ellipse class="cls-86" cx="365.36" cy="210.81" rx="26.13" ry="22.51" transform="translate(80.37 521.79) rotate(-77.48)"/><ellipse class="cls-87" cx="365.36" cy="210.81" rx="25.87" ry="22.29" transform="translate(80.37 521.78) rotate(-77.48)"/><ellipse class="cls-88" cx="365.36" cy="210.81" rx="25.61" ry="22.07" transform="translate(80.37 521.78) rotate(-77.48)"/><ellipse class="cls-89" cx="365.36" cy="210.81" rx="25.36" ry="21.85" transform="translate(80.37 521.79) rotate(-77.48)"/><ellipse class="cls-90" cx="365.36" cy="210.81" rx="25.1" ry="21.63" transform="translate(80.37 521.79) rotate(-77.48)"/><ellipse class="cls-91" cx="365.36" cy="210.81" rx="24.85" ry="21.4" transform="translate(80.37 521.79) rotate(-77.48)"/><ellipse class="cls-92" cx="365.36" cy="210.81" rx="24.59" ry="21.18" transform="translate(80.37 521.78) rotate(-77.48)"/><ellipse class="cls-93" cx="365.36" cy="210.81" rx="24.33" ry="20.96" transform="translate(80.37 521.78) rotate(-77.48)"/><ellipse class="cls-94" cx="365.36" cy="210.81" rx="24.08" ry="20.74" transform="translate(80.37 521.78) rotate(-77.48)"/><ellipse class="cls-95" cx="365.36" cy="210.81" rx="23.82" ry="20.52" transform="translate(80.37 521.78) rotate(-77.48)"/><ellipse class="cls-96" cx="365.36" cy="210.81" rx="23.57" ry="20.3" transform="translate(80.37 521.79) rotate(-77.48)"/><ellipse class="cls-97" cx="365.36" cy="210.81" rx="23.31" ry="20.08" transform="translate(80.37 521.78) rotate(-77.48)"/><path class="cls-98" d="M385.35,210.49c-.55,12.66-9.94,23-21,23.23s-19.55-9.95-19-22.6,9.95-23.05,21-23.23S385.9,197.84,385.35,210.49Z"/><ellipse class="cls-99" cx="365.36" cy="210.81" rx="22.8" ry="19.64" transform="translate(80.37 521.79) rotate(-77.48)"/><path class="cls-100" d="M384.91,210.5c-.54,12.37-9.73,22.54-20.52,22.71s-19.12-9.73-18.59-22.1,9.73-22.54,20.53-22.71S385.44,198.13,384.91,210.5Z"/><ellipse class="cls-101" cx="365.36" cy="210.81" rx="22.28" ry="19.2" transform="translate(80.37 521.78) rotate(-77.48)"/><ellipse class="cls-102" cx="365.36" cy="210.81" rx="22.03" ry="18.98" transform="translate(80.37 521.79) rotate(-77.48)"/><ellipse class="cls-103" cx="365.36" cy="210.81" rx="21.77" ry="18.76" transform="translate(80.37 521.79) rotate(-77.48)"/><ellipse class="cls-104" cx="365.36" cy="210.81" rx="21.52" ry="18.54" transform="translate(80.37 521.79) rotate(-77.48)"/><ellipse class="cls-105" cx="365.36" cy="210.81" rx="21.26" ry="18.32" transform="translate(80.38 521.79) rotate(-77.48)"/><ellipse class="cls-106" cx="365.36" cy="210.81" rx="21" ry="18.09" transform="translate(80.37 521.78) rotate(-77.48)"/><ellipse class="cls-107" cx="365.36" cy="210.81" rx="20.75" ry="17.87" transform="translate(80.37 521.79) rotate(-77.48)"/><ellipse class="cls-108" cx="365.36" cy="210.81" rx="20.49" ry="17.65" transform="translate(80.37 521.79) rotate(-77.48)"/><ellipse class="cls-109" cx="365.36" cy="210.81" rx="20.24" ry="17.43" transform="translate(80.37 521.78) rotate(-77.48)"/><ellipse class="cls-110" cx="365.36" cy="210.81" rx="19.98" ry="17.21" transform="translate(80.38 521.79) rotate(-77.48)"/></g><ellipse class="cls-18" cx="419.91" cy="181.77" rx="29.17" ry="17.4" transform="translate(133.64 538.72) rotate(-74.68)"/><path class="cls-111" d="M428.72,189.36c-8.89,7.08-18.35,5.78-25.19.09a102.46,102.46,0,0,1-.92,14.7h.18L402.7,211l5.26.19c.07-.92.4-1.93.46-2.85a13.66,13.66,0,0,0,3.06,1.46c9.16,2.94,20.22-7.22,24.71-22.69a46.84,46.84,0,0,0,1.87-11.65A28.09,28.09,0,0,1,428.72,189.36Z"/><path class="cls-112" d="M412.87,182.4l8.38.67c-.06-14.79,9.75-20.5,9.75-20.5C415.08,157.42,412.87,182.4,412.87,182.4Z"/><ellipse class="cls-18" cx="222.76" cy="183.06" rx="16.91" ry="28.8" transform="translate(-30.29 44.87) rotate(-10.77)"/><path class="cls-113" d="M231.65,209.9l.5-14.12c-6.18,1.19-13-.76-18.94-7.25a30,30,0,0,1-7.43-15.18,45.56,45.56,0,0,0,.4,11.51c2.5,15.69,12.08,27.65,21.39,26.71C228.55,211.47,231,210.75,231.65,209.9Z"/><path class="cls-114" d="M229.57,185.1,221.29,184c1.87-14.12-7-21.57-7-21.57C230.46,160.78,229.57,185.1,229.57,185.1Z"/><path class="cls-115" d="M350.68,228.34l0,.08Z"/><path class="cls-116" d="M405.17,52.13c-5.38-8.89-9.82-15.94-14.25-17.22,4.36-2.92,1.69-6.34,1.69-6.34-5.12-.72-6.82,2-6.82,2,5.8-6.4,1.7-11.76,1.7-11.76-12.75,5.1-10.43,9.28-10.43,9.28a33.07,33.07,0,0,0-14.87-15.76c-3.13,1-6.25,5.5-6.25,5.5C328.45-.73,288.46,0,288.46,0,287,2.39,285,4.66,284.76,6.74c-22.55-.81-34.66,9.42-34.66,9.42C245,43.43,252.73,59.79,261,69c3,3.37,5.92,15.59,18.15,21,0,0,11.37,15.6,41.93,16.09,24.84.41,44.6-16,44.6-16,11.61,3,33.57,40.32,35.68,86.56.31,6.89,8.56-13.7,8.56-13.7l3-3.74s-1.8-18.19-2.43-34.73C411.09,116.12,415.72,69.55,405.17,52.13Z"/><path class="cls-117" d="M249.4,43c-20.89,14.51-17.57,61.7-17.58,83.32,0,10.41-2.08,28.91-1.94,33.62l2.17,2.57c-.06.61,4.82,17.86,4.69,17.24-.21-1,3-2.33,3-2.94,4-30.7,19.73-84.39,41.86-86.53C281.65,90.27,256.8,63.63,249.4,43Z"/><path class="cls-118" d="M367.48,40s.15,0,0,0Z"/><g class="cls-119"><ellipse class="cls-18" cx="269.6" cy="207.3" rx="33.51" ry="40.93" transform="translate(-24.82 37.09) rotate(-7.52)"/><ellipse class="cls-34" cx="269.6" cy="207.3" rx="33.3" ry="40.66" transform="translate(-24.83 37.09) rotate(-7.52)"/><ellipse class="cls-35" cx="269.6" cy="207.3" rx="33.08" ry="40.4" transform="matrix(0.99, -0.13, 0.13, 0.99, -24.83, 37.09)"/><ellipse class="cls-36" cx="269.6" cy="207.3" rx="32.87" ry="40.14" transform="translate(-24.83 37.09) rotate(-7.52)"/><ellipse class="cls-37" cx="269.6" cy="207.3" rx="32.65" ry="39.88" transform="translate(-24.83 37.09) rotate(-7.52)"/><ellipse class="cls-38" cx="269.6" cy="207.3" rx="32.44" ry="39.61" transform="translate(-24.83 37.09) rotate(-7.52)"/><ellipse class="cls-39" cx="269.6" cy="207.3" rx="32.22" ry="39.35" transform="translate(-24.83 37.09) rotate(-7.52)"/><ellipse class="cls-40" cx="269.6" cy="207.3" rx="32.01" ry="39.09" transform="translate(-24.83 37.09) rotate(-7.52)"/><ellipse class="cls-41" cx="269.6" cy="207.3" rx="31.79" ry="38.83" transform="translate(-24.83 37.09) rotate(-7.52)"/><ellipse class="cls-42" cx="269.6" cy="207.3" rx="31.58" ry="38.56" transform="translate(-24.83 37.09) rotate(-7.52)"/><ellipse class="cls-43" cx="269.6" cy="207.3" rx="31.36" ry="38.3" transform="translate(-24.83 37.09) rotate(-7.52)"/><ellipse class="cls-44" cx="269.6" cy="207.3" rx="31.15" ry="38.04" transform="translate(-24.83 37.09) rotate(-7.52)"/><ellipse class="cls-45" cx="269.6" cy="207.3" rx="30.93" ry="37.78" transform="translate(-24.83 37.09) rotate(-7.52)"/><ellipse class="cls-46" cx="269.6" cy="207.3" rx="30.72" ry="37.52" transform="translate(-24.83 37.09) rotate(-7.52)"/><ellipse class="cls-47" cx="269.6" cy="207.3" rx="30.5" ry="37.25" transform="matrix(0.99, -0.13, 0.13, 0.99, -24.82, 37.09)"/><ellipse class="cls-48" cx="269.6" cy="207.3" rx="30.29" ry="36.99" transform="translate(-24.82 37.09) rotate(-7.52)"/><ellipse class="cls-49" cx="269.6" cy="207.3" rx="30.07" ry="36.73" transform="translate(-24.83 37.09) rotate(-7.52)"/><ellipse class="cls-50" cx="269.6" cy="207.3" rx="29.86" ry="36.47" transform="translate(-24.83 37.09) rotate(-7.52)"/><ellipse class="cls-51" cx="269.6" cy="207.3" rx="29.64" ry="36.2" transform="translate(-24.82 37.09) rotate(-7.52)"/><ellipse class="cls-52" cx="269.6" cy="207.3" rx="29.43" ry="35.94" transform="translate(-24.83 37.09) rotate(-7.52)"/><ellipse class="cls-53" cx="269.6" cy="207.3" rx="29.21" ry="35.68" transform="translate(-24.83 37.09) rotate(-7.52)"/><ellipse class="cls-54" cx="269.6" cy="207.3" rx="29" ry="35.42" transform="translate(-24.83 37.09) rotate(-7.52)"/><ellipse class="cls-55" cx="269.6" cy="207.3" rx="28.79" ry="35.15" transform="translate(-24.83 37.09) rotate(-7.52)"/><ellipse class="cls-56" cx="269.6" cy="207.3" rx="28.57" ry="34.89" transform="matrix(0.99, -0.13, 0.13, 0.99, -24.83, 37.09)"/><ellipse class="cls-57" cx="269.6" cy="207.3" rx="28.36" ry="34.63" transform="translate(-24.83 37.09) rotate(-7.52)"/><ellipse class="cls-58" cx="269.6" cy="207.3" rx="28.14" ry="34.37" transform="translate(-24.83 37.09) rotate(-7.53)"/><ellipse class="cls-59" cx="269.6" cy="207.3" rx="27.93" ry="34.1" transform="translate(-24.83 37.09) rotate(-7.53)"/><ellipse class="cls-60" cx="269.6" cy="207.3" rx="27.71" ry="33.84" transform="translate(-24.83 37.09) rotate(-7.52)"/><ellipse class="cls-61" cx="269.6" cy="207.3" rx="27.5" ry="33.58" transform="translate(-24.83 37.09) rotate(-7.52)"/><ellipse class="cls-62" cx="269.6" cy="207.3" rx="27.28" ry="33.32" transform="translate(-24.83 37.09) rotate(-7.52)"/><ellipse class="cls-63" cx="269.6" cy="207.3" rx="27.07" ry="33.06" transform="translate(-24.83 37.09) rotate(-7.52)"/><ellipse class="cls-64" cx="269.6" cy="207.3" rx="26.85" ry="32.79" transform="translate(-24.83 37.09) rotate(-7.52)"/><ellipse class="cls-65" cx="269.6" cy="207.3" rx="26.64" ry="32.53" transform="translate(-24.83 37.09) rotate(-7.52)"/><ellipse class="cls-66" cx="269.6" cy="207.3" rx="26.42" ry="32.27" transform="translate(-24.83 37.09) rotate(-7.52)"/><ellipse class="cls-67" cx="269.6" cy="207.3" rx="26.21" ry="32.01" transform="translate(-24.83 37.09) rotate(-7.52)"/><ellipse class="cls-68" cx="269.6" cy="207.3" rx="25.99" ry="31.74" transform="translate(-24.83 37.09) rotate(-7.52)"/><ellipse class="cls-69" cx="269.6" cy="207.3" rx="25.78" ry="31.48" transform="translate(-24.83 37.09) rotate(-7.52)"/><ellipse class="cls-70" cx="269.6" cy="207.3" rx="25.56" ry="31.22" transform="translate(-24.83 37.09) rotate(-7.52)"/><ellipse class="cls-71" cx="269.6" cy="207.3" rx="25.35" ry="30.96" transform="translate(-24.83 37.09) rotate(-7.52)"/><ellipse class="cls-72" cx="269.6" cy="207.3" rx="25.13" ry="30.69" transform="translate(-24.83 37.09) rotate(-7.52)"/><ellipse class="cls-72" cx="269.6" cy="207.3" rx="24.92" ry="30.43" transform="translate(-24.82 37.09) rotate(-7.52)"/><ellipse class="cls-73" cx="269.6" cy="207.3" rx="24.7" ry="30.17" transform="translate(-24.83 37.09) rotate(-7.52)"/><ellipse class="cls-74" cx="269.6" cy="207.3" rx="24.49" ry="29.91" transform="translate(-24.82 37.09) rotate(-7.52)"/><ellipse class="cls-75" cx="269.6" cy="207.3" rx="24.27" ry="29.64" transform="translate(-24.82 37.09) rotate(-7.52)"/><ellipse class="cls-76" cx="269.6" cy="207.3" rx="24.06" ry="29.38" transform="translate(-24.83 37.09) rotate(-7.52)"/><ellipse class="cls-77" cx="269.6" cy="207.3" rx="23.84" ry="29.12" transform="translate(-24.82 37.09) rotate(-7.52)"/><ellipse class="cls-78" cx="269.6" cy="207.3" rx="23.63" ry="28.86" transform="translate(-24.82 37.09) rotate(-7.52)"/><ellipse class="cls-79" cx="269.6" cy="207.3" rx="23.41" ry="28.6" transform="matrix(0.99, -0.13, 0.13, 0.99, -24.83, 37.09)"/><ellipse class="cls-80" cx="269.6" cy="207.3" rx="23.2" ry="28.33" transform="translate(-24.83 37.09) rotate(-7.52)"/><ellipse class="cls-81" cx="269.6" cy="207.3" rx="22.99" ry="28.07" transform="matrix(0.99, -0.13, 0.13, 0.99, -24.83, 37.09)"/><ellipse class="cls-82" cx="269.6" cy="207.3" rx="22.77" ry="27.81" transform="translate(-24.83 37.09) rotate(-7.53)"/><ellipse class="cls-83" cx="269.6" cy="207.3" rx="22.56" ry="27.55" transform="translate(-24.83 37.09) rotate(-7.53)"/><ellipse class="cls-84" cx="269.6" cy="207.3" rx="22.34" ry="27.28" transform="translate(-24.83 37.09) rotate(-7.53)"/><ellipse class="cls-85" cx="269.6" cy="207.3" rx="22.13" ry="27.02" transform="translate(-24.83 37.09) rotate(-7.53)"/><ellipse class="cls-86" cx="269.6" cy="207.3" rx="21.91" ry="26.76" transform="translate(-24.83 37.09) rotate(-7.52)"/><ellipse class="cls-87" cx="269.6" cy="207.3" rx="21.7" ry="26.5" transform="translate(-24.83 37.09) rotate(-7.52)"/><ellipse class="cls-88" cx="269.6" cy="207.3" rx="21.48" ry="26.23" transform="translate(-24.83 37.09) rotate(-7.52)"/><ellipse class="cls-89" cx="269.6" cy="207.3" rx="21.27" ry="25.97" transform="matrix(0.99, -0.13, 0.13, 0.99, -24.83, 37.09)"/><ellipse class="cls-90" cx="269.6" cy="207.3" rx="21.05" ry="25.71" transform="translate(-24.83 37.09) rotate(-7.52)"/><ellipse class="cls-91" cx="269.6" cy="207.3" rx="20.84" ry="25.45" transform="translate(-24.83 37.09) rotate(-7.52)"/><ellipse class="cls-92" cx="269.6" cy="207.3" rx="20.62" ry="25.19" transform="translate(-24.83 37.09) rotate(-7.52)"/><ellipse class="cls-93" cx="269.6" cy="207.3" rx="20.41" ry="24.92" transform="matrix(0.99, -0.13, 0.13, 0.99, -24.83, 37.09)"/><ellipse class="cls-94" cx="269.6" cy="207.3" rx="20.19" ry="24.66" transform="translate(-24.83 37.09) rotate(-7.52)"/><ellipse class="cls-95" cx="269.6" cy="207.3" rx="19.98" ry="24.4" transform="translate(-24.83 37.09) rotate(-7.52)"/><ellipse class="cls-96" cx="269.6" cy="207.3" rx="19.76" ry="24.14" transform="translate(-24.83 37.09) rotate(-7.52)"/><ellipse class="cls-97" cx="269.6" cy="207.3" rx="19.55" ry="23.87" transform="translate(-24.83 37.09) rotate(-7.52)"/><ellipse class="cls-98" cx="269.6" cy="207.3" rx="19.33" ry="23.61" transform="matrix(0.99, -0.13, 0.13, 0.99, -24.83, 37.09)"/><ellipse class="cls-99" cx="269.6" cy="207.3" rx="19.12" ry="23.35" transform="translate(-24.82 37.09) rotate(-7.52)"/><ellipse class="cls-100" cx="269.6" cy="207.3" rx="18.9" ry="23.09" transform="translate(-24.82 37.09) rotate(-7.52)"/><ellipse class="cls-101" cx="269.6" cy="207.3" rx="18.69" ry="22.82" transform="translate(-24.82 37.09) rotate(-7.52)"/><ellipse class="cls-102" cx="269.6" cy="207.3" rx="18.47" ry="22.56" transform="translate(-24.82 37.09) rotate(-7.52)"/><ellipse class="cls-103" cx="269.6" cy="207.3" rx="18.26" ry="22.3" transform="translate(-24.83 37.09) rotate(-7.52)"/><ellipse class="cls-104" cx="269.6" cy="207.3" rx="18.04" ry="22.04" transform="translate(-24.83 37.09) rotate(-7.53)"/><ellipse class="cls-105" cx="269.6" cy="207.3" rx="17.83" ry="21.77" transform="translate(-24.83 37.09) rotate(-7.52)"/><ellipse class="cls-106" cx="269.6" cy="207.3" rx="17.61" ry="21.51" transform="translate(-24.83 37.09) rotate(-7.52)"/><ellipse class="cls-107" cx="269.6" cy="207.3" rx="17.4" ry="21.25" transform="translate(-24.83 37.09) rotate(-7.53)"/><ellipse class="cls-108" cx="269.6" cy="207.3" rx="17.19" ry="20.99" transform="translate(-24.83 37.09) rotate(-7.52)"/><ellipse class="cls-109" cx="269.6" cy="207.3" rx="16.97" ry="20.73" transform="translate(-24.83 37.09) rotate(-7.52)"/><ellipse class="cls-110" cx="269.6" cy="207.3" rx="16.76" ry="20.46" transform="translate(-24.83 37.09) rotate(-7.53)"/></g><path class="cls-118" d="M367.59,41Z"/><path class="cls-118" d="M367.25,40h0Z"/><path class="cls-120" d="M333.44,144.5s-8.14,13.43,5.08,35l22,3.61,24.91-5.24a21.3,21.3,0,0,0-3.65-18.12c-.61-.81-26.32-6.88-39.82-10.16A15.67,15.67,0,0,1,333.44,144.5Z"/><path class="cls-121" d="M259.17,162.06c-6.26,7.08-4.86,14-4.86,14l39.15,6.57c19.48-20.29,14.85-33.12,14.85-33.12S261.45,159.48,259.17,162.06Z"/><path class="cls-122" d="M274.9,186.11c-24-2.17-20.42-10.81-20.42-10.81s5.81,1.47,20.29,2.9a170.66,170.66,0,0,0,21.83.88S295.92,188,274.9,186.11Z"/><path class="cls-123" d="M285.44,250.24s2.25,4.32,32.63,3.39,29-5.24,29-5.24-3.14-11.41-28.11-11S285.36,247,285.44,250.24Z"/><path class="cls-122" d="M364.41,187.12c-24.8,2.1-26.26-8.82-26.26-8.82s9.85,2.92,26.57,1.06c17.13-1.9,21.27-4.89,21.27-4.89S388.62,185.07,364.41,187.12Z"/><path class="cls-115" d="M352.09,229.77a.73.73,0,0,1,0,.08A.33.33,0,0,0,352.09,229.77Z"/><path class="cls-124" d="M410.38,159.23l-9,18.34c.17,15.35-2.44,28.68-8.21,39.46-12.88,24.05-33.8,26.19-33.8,26.19-5.31-13.06-26.84-25.8-44.9-25.28-13.15.37-29.77,10.11-40.16,26.38,0,0-21.18-4.82-31.94-33.48-3.8-10.13-2.2-29.78-2.63-35l-7.69-13.34c1,27.23-.58,47.76-.58,47.76,5.16,48.3,31.88,86.61,88.63,86.61,73.43,0,88.32-88.53,88.32-88.53C407,184.22,410.38,159.23,410.38,159.23Zm-58.3,102.89c-6.7,9.42-19-2.46-35.51-1.49-17.12,1-25.81,13.32-35.12,3.91-5.15-5.2,1.17-24,34.52-25C347.58,238.58,356.93,255.3,352.08,262.12Z"/><path class="cls-125" d="M291.06,227.12c4.94,4.53,13.35,10.09,25.77,8.53,10.09-1.26,16.89-7.31,21-12.18-7.42-3.57-15.72-5.76-23.39-5.53C307.34,218.14,298.93,221.5,291.06,227.12Z"/><path class="cls-18" d="M314.78,173.14c-.44,7.15-2,15.15-6,22.1,0,0-14.05-3.36-17.2,13.47-4,21.37,32.07,30.16,41,7.7,4.75-12-1-29.25-7.46-42.69C321.65,173.6,318.21,173.42,314.78,173.14Z"/><path class="cls-126" d="M291.29,212.34c.45,18.67,32.89,25.21,41.25,4.07a23.61,23.61,0,0,0,1.06-3.59C326,220.5,301.08,223.78,291.29,212.34Z"/><path class="cls-127" d="M321.19,179.61l-4.09-.07s-1.42,15.4-5.28,17.64h0c-.63-.06-1.28-.1-1.94-.11-7.12-.12-12.85,2.7-12.78,6.31s5.88,6.4,13,6.52c6.67.11,12.45-1.41,13-5.65C323.15,204.26,325.57,188.15,321.19,179.61Z"/><path class="cls-128" d="M381.68,68.38a90.91,90.91,0,0,1-22.8,26.79,63.83,63.83,0,0,0,6.75-5.06,12.18,12.18,0,0,1,4.29,2.45c6.4-5.9,11.68-14.26,15.57-21.88C386.79,68.12,383.09,65.83,381.68,68.38Z"/><path class="cls-129" d="M282.8,188.6c-2.84,0-5.67,0-8.5-.15-2.47-.12-6.16-.47-8.46-1.57-2.53-1.21-4.94,1.93-2.59,3.51,5.67,3.81,13.87,3.3,19.67,2.61C285.67,192.68,285.63,188.62,282.8,188.6Z"/><path class="cls-129" d="M375.23,186.2a69.63,69.63,0,0,1-18.13,2.63c-2.89,0-2.63,4.23.12,4.46a41.33,41.33,0,0,0,19.29-2.87C379.07,189.33,378,185.46,375.23,186.2Z"/><path class="cls-128" d="M327.43,271.62c-.09,3-3.85,4.57-9.21,5.07-6,.56-10.32-1-10.24-4.05s4.5-5.71,9.87-6S327.51,268.6,327.43,271.62Z"/><path class="cls-130" d="M392.76,35.77c-6.53,2.54-23.44,4.93-61.51-9.87-39.55-15.38-69.63-6.38-82.41-.79A74.8,74.8,0,0,0,249,41.53c8.6-3.31,34.28-7.37,76.11,7.79s65.68-1.09,73.42-7.52A23,23,0,0,0,392.76,35.77Z"/><path class="cls-131" d="M258.26,162.93s37.31,5.93,45.84-1.32,2.26-17.29,2.26-17.29a103.53,103.53,0,0,1-21.3,6.75C274,153.41,264,157.08,258.26,162.93Z"/><path class="cls-132" d="M382.32,160.17s-37.59,7.87-46.44,1.15-2.44-16.82-2.44-16.82A102.21,102.21,0,0,0,355,150C366.2,151.62,376.35,154.68,382.32,160.17Z"/></g></g></svg>