<svg xmlns="http://www.w3.org/2000/svg" xmlns:xlink="http://www.w3.org/1999/xlink" viewBox="0 0 1359.83 707.59"><defs><style>.cls-1{fill:url(#Áåçûìÿííûé_ãðàäèåíò_10);}.cls-2{fill:url(#Áåçûìÿííûé_ãðàäèåíò_10-2);}.cls-3{fill:url(#Áåçûìÿííûé_ãðàäèåíò_14);}.cls-4{fill:url(#Áåçûìÿííûé_ãðàäèåíò_14-2);}.cls-5{fill:url(#Áåçûìÿííûé_ãðàäèåíò_18);}.cls-6{fill:url(#Áåçûìÿííûé_ãðàäèåíò_18-2);}.cls-24,.cls-7{fill:#3c4657;}.cls-8{fill:#343d49;}.cls-9{fill:#cec0c0;}.cls-10{fill:#e8dada;}.cls-11{fill:url(#Áåçûìÿííûé_ãðàäèåíò_35);}.cls-12{fill:url(#Áåçûìÿííûé_ãðàäèåíò_35-2);}.cls-13{fill:url(#Áåçûìÿííûé_ãðàäèåíò_35-3);}.cls-14{fill:url(#Áåçûìÿííûé_ãðàäèåíò_35-4);}.cls-15{fill:url(#Áåçûìÿííûé_ãðàäèåíò_38);}.cls-16{fill:url(#Áåçûìÿííûé_ãðàäèåíò_17);}.cls-17{fill:url(#Áåçûìÿííûé_ãðàäèåíò_18-3);}.cls-18{fill:url(#Áåçûìÿííûé_ãðàäèåíò_39);}.cls-19{fill:url(#Áåçûìÿííûé_ãðàäèåíò_39-2);}.cls-20{fill:url(#Áåçûìÿííûé_ãðàäèåíò_35-5);}.cls-21{fill:url(#Áåçûìÿííûé_ãðàäèåíò_34);}.cls-22{fill:url(#Áåçûìÿííûé_ãðàäèåíò_31);}.cls-23{fill:#848b96;}.cls-127,.cls-144,.cls-23,.cls-37{opacity:0.11;}.cls-24{opacity:0.33;}.cls-25{fill:url(#Áåçûìÿííûé_ãðàäèåíò_33);}.cls-26{fill:url(#Áåçûìÿííûé_ãðàäèåíò_33-2);}.cls-27{fill:url(#Áåçûìÿííûé_ãðàäèåíò_33-3);}.cls-28{fill:url(#Áåçûìÿííûé_ãðàäèåíò_33-5);}.cls-29{fill:url(#Áåçûìÿííûé_ãðàäèåíò_31-2);}.cls-30{fill:url(#Áåçûìÿííûé_ãðàäèåíò_25);}.cls-31{fill:#97b9df;}.cls-32{fill:#8cb0d1;}.cls-33{fill:#d65a49;}.cls-34{fill:#598270;}.cls-35{fill:#486d5b;}.cls-36{fill:url(#Áåçûìÿííûé_ãðàäèåíò_21);}.cls-37{fill:#4f3d35;}.cls-38{fill:url(#Áåçûìÿííûé_ãðàäèåíò_19);}.cls-39{fill:#f2e9e9;}.cls-40{fill:#ff6561;opacity:0.41;}.cls-41{fill:#59352c;}.cls-42{fill:#3e1208;}.cls-43{fill:url(#Áåçûìÿííûé_ãðàäèåíò_10-3);}.cls-44{fill:url(#Áåçûìÿííûé_ãðàäèåíò_57);}.cls-45{opacity:0.44;}.cls-46{fill:#ff9e78;}.cls-47{fill:#ff9d77;}.cls-48{fill:#ff9c77;}.cls-49{fill:#ff9b76;}.cls-50{fill:#ff9a76;}.cls-51{fill:#ff9975;}.cls-52{fill:#ff9875;}.cls-53{fill:#ff9774;}.cls-54{fill:#ff9674;}.cls-55{fill:#ff9573;}.cls-56{fill:#ff9472;}.cls-57{fill:#ff9372;}.cls-58{fill:#ff9271;}.cls-59{fill:#ff9171;}.cls-60{fill:#ff9070;}.cls-61{fill:#ff8f70;}.cls-62{fill:#ff8e6f;}.cls-63{fill:#ff8d6f;}.cls-64{fill:#ff8c6e;}.cls-65{fill:#ff8b6e;}.cls-66{fill:#ff8a6d;}.cls-67{fill:#ff896c;}.cls-68{fill:#ff886c;}.cls-69{fill:#ff876b;}.cls-70{fill:#ff866b;}.cls-71{fill:#ff856a;}.cls-72{fill:#ff846a;}.cls-73{fill:#ff8369;}.cls-74{fill:#ff8269;}.cls-75{fill:#ff8168;}.cls-76{fill:#ff8067;}.cls-77{fill:#ff7f67;}.cls-78{fill:#ff7e66;}.cls-79{fill:#ff7d66;}.cls-80{fill:#ff7c65;}.cls-81{fill:#ff7b65;}.cls-82{fill:#ff7a64;}.cls-83{fill:#ff7964;}.cls-84{fill:#ff7863;}.cls-85{fill:#ff7762;}.cls-86{fill:#ff7661;}.cls-87{fill:#ff7561;}.cls-88{fill:#ff7460;}.cls-89{fill:#ff7360;}.cls-90{fill:#ff725f;}.cls-91{fill:#ff715f;}.cls-92{fill:#ff705e;}.cls-93{fill:#ff6f5e;}.cls-94{fill:#ff6e5d;}.cls-95{fill:#ff6d5c;}.cls-96{fill:#ff6c5c;}.cls-97{fill:#ff6b5b;}.cls-98{fill:#ff6a5b;}.cls-99{fill:#ff695a;}.cls-100{fill:#ff685a;}.cls-101{fill:#ff6759;}.cls-102{fill:#ff6659;}.cls-103{fill:#ff6558;}.cls-104{fill:#ff6457;}.cls-105{fill:#ff6357;}.cls-106{fill:#ff6256;}.cls-107{fill:#ff6156;}.cls-108{fill:#ff6055;}.cls-109{fill:#ff5f55;}.cls-110{fill:#ff5e54;}.cls-111{fill:#ff5d54;}.cls-112{fill:#ff5c53;}.cls-113{fill:#ff5b53;}.cls-114{fill:#ff5a52;}.cls-115{fill:#ff5951;}.cls-116{fill:#ff5851;}.cls-117{fill:#ff5750;}.cls-118{fill:#ff5650;}.cls-119{fill:#ff554f;}.cls-120{fill:#ff544f;}.cls-121{fill:#ff534e;}.cls-122{fill:#ff524e;}.cls-123{fill:#ff514d;}.cls-124{fill:url(#Áåçûìÿííûé_ãðàäèåíò_4);}.cls-125{fill:url(#Áåçûìÿííûé_ãðàäèåíò_4-2);}.cls-126{fill:#7c302a;}.cls-127{fill:#ffbc80;}.cls-128{fill:url(#Áåçûìÿííûé_ãðàäèåíò_10-4);}.cls-129{fill:url(#Áåçûìÿííûé_ãðàäèåíò_10-5);}.cls-130,.cls-141,.cls-143{fill:#fff;}.cls-131{fill:url(#Áåçûìÿííûé_ãðàäèåíò_2);}.cls-132{fill:url(#Áåçûìÿííûé_ãðàäèåíò_2-2);}.cls-133{fill:#603f37;}.cls-134{fill:url(#Áåçûìÿííûé_ãðàäèåíò_57-2);}.cls-135{fill:#fb755c;}.cls-136{fill:url(#Áåçûìÿííûé_ãðàäèåíò_3);}.cls-137{fill:url(#Áåçûìÿííûé_ãðàäèåíò_57-3);}.cls-138{fill:#1e1d1d;}.cls-139{fill:url(#Áåçûìÿííûé_ãðàäèåíò_57-4);}.cls-140{fill:url(#Áåçûìÿííûé_ãðàäèåíò_24);}.cls-141{opacity:0.82;}.cls-142{fill:url(#Áåçûìÿííûé_ãðàäèåíò_4-3);}.cls-143{opacity:0.2;}</style><linearGradient id="Áåçûìÿííûé_ãðàäèåíò_10" x1="884.86" y1="171.93" x2="834.45" y2="153.92" gradientUnits="userSpaceOnUse"><stop offset="0" stop-color="#c6664f"/><stop offset="1" stop-color="#ff9e78"/></linearGradient><linearGradient id="Áåçûìÿííûé_ãðàäèåíò_10-2" x1="1054.76" y1="156.52" x2="1101.01" y2="153.05" xlink:href="#Áåçûìÿííûé_ãðàäèåíò_10"/><linearGradient id="Áåçûìÿííûé_ãðàäèåíò_14" x1="1204.4" y1="128.17" x2="1184.74" y2="160.69" gradientUnits="userSpaceOnUse"><stop offset="0" stop-color="#ffb9a4"/><stop offset="1" stop-color="#ff9e78"/></linearGradient><linearGradient id="Áåçûìÿííûé_ãðàäèåíò_14-2" x1="786.39" y1="122.59" x2="797.22" y2="148" xlink:href="#Áåçûìÿííûé_ãðàäèåíò_14"/><linearGradient id="Áåçûìÿííûé_ãðàäèåíò_18" x1="747.95" y1="386.9" x2="747.95" y2="526.74" gradientUnits="userSpaceOnUse"><stop offset="0" stop-color="#deefff"/><stop offset="1" stop-color="#cadbef"/></linearGradient><linearGradient id="Áåçûìÿííûé_ãðàäèåíò_18-2" x1="1190.2" y1="389.34" x2="1190.2" y2="530.49" xlink:href="#Áåçûìÿííûé_ãðàäèåíò_18"/><linearGradient id="Áåçûìÿííûé_ãðàäèåíò_35" x1="854.09" y1="675.22" x2="805.98" y2="604.14" gradientUnits="userSpaceOnUse"><stop offset="0" stop-color="#825a46"/><stop offset="1" stop-color="#a5816d"/></linearGradient><linearGradient id="Áåçûìÿííûé_ãðàäèåíò_35-2" x1="823" y1="737.23" x2="823" y2="683.81" xlink:href="#Áåçûìÿííûé_ãðàäèåíò_35"/><linearGradient id="Áåçûìÿííûé_ãðàäèåíò_35-3" x1="1036.75" y1="855.75" x2="1036.75" y2="525.14" xlink:href="#Áåçûìÿííûé_ãðàäèåíò_35"/><linearGradient id="Áåçûìÿííûé_ãðàäèåíò_35-4" x1="1047.48" y1="703.36" x2="1069.75" y2="444.06" xlink:href="#Áåçûìÿííûé_ãðàäèåíò_35"/><linearGradient id="Áåçûìÿííûé_ãðàäèåíò_38" x1="461.58" y1="605.99" x2="445.02" y2="654.31" gradientUnits="userSpaceOnUse"><stop offset="0" stop-color="#c1c8d2"/><stop offset="1" stop-color="#868c97"/></linearGradient><linearGradient id="Áåçûìÿííûé_ãðàäèåíò_17" x1="1008.44" y1="297.03" x2="1008.44" y2="393.5" gradientTransform="matrix(1, 0, -0.17, 1, -1.74, 0)" gradientUnits="userSpaceOnUse"><stop offset="0" stop-color="#db7d67"/><stop offset="1" stop-color="#ff9e78"/></linearGradient><linearGradient id="Áåçûìÿííûé_ãðàäèåíò_18-3" x1="1031.19" y1="361.19" x2="1031.19" y2="726.23" gradientTransform="matrix(1, 0, -0.17, 1, -1.74, 0)" xlink:href="#Áåçûìÿííûé_ãðàäèåíò_18"/><linearGradient id="Áåçûìÿííûé_ãðàäèåíò_39" x1="957.1" y1="552.88" x2="986.82" y2="169.07" gradientUnits="userSpaceOnUse"><stop offset="0" stop-color="#bfd5e8"/><stop offset="1" stop-color="#cce1f2"/></linearGradient><linearGradient id="Áåçûìÿííûé_ãðàäèåíò_39-2" x1="928.71" y1="672.74" x2="958.16" y2="292.32" xlink:href="#Áåçûìÿííûé_ãðàäèåíò_39"/><linearGradient id="Áåçûìÿííûé_ãðàäèåíò_35-5" x1="1124.76" y1="855.91" x2="1124.76" y2="525.89" xlink:href="#Áåçûìÿííûé_ãðàäèåíò_35"/><linearGradient id="Áåçûìÿííûé_ãðàäèåíò_34" x1="334.53" y1="410.18" x2="202.03" y2="557.4" gradientUnits="userSpaceOnUse"><stop offset="0" stop-color="#d9d9e2"/><stop offset="1" stop-color="#929498"/></linearGradient><linearGradient id="Áåçûìÿííûé_ãðàäèåíò_31" x1="474.73" y1="283.9" x2="6.61" y2="693.93" gradientUnits="userSpaceOnUse"><stop offset="0" stop-color="#c1c8d2"/><stop offset="1" stop-color="#929498"/></linearGradient><linearGradient id="Áåçûìÿííûé_ãðàäèåíò_33" x1="291.98" y1="563.28" x2="267.28" y2="682.83" gradientUnits="userSpaceOnUse"><stop offset="0" stop-color="#d6dfea"/><stop offset="1" stop-color="#929498"/></linearGradient><linearGradient id="Áåçûìÿííûé_ãðàäèåíò_33-2" x1="422.22" y1="445.34" x2="330.06" y2="785.94" xlink:href="#Áåçûìÿííûé_ãðàäèåíò_33"/><linearGradient id="Áåçûìÿííûé_ãðàäèåíò_33-3" x1="229.97" y1="509.28" x2="318.21" y2="512.05" gradientTransform="translate(706.35 92.94) rotate(74.46)" xlink:href="#Áåçûìÿííûé_ãðàäèåíò_33"/><linearGradient id="Áåçûìÿííûé_ãðàäèåíò_33-5" x1="272.68" y1="548.01" x2="293.3" y2="466.62" xlink:href="#Áåçûìÿííûé_ãðàäèåíò_33"/><linearGradient id="Áåçûìÿííûé_ãðàäèåíò_31-2" x1="670.75" y1="650.14" x2="670.75" y2="665.26" xlink:href="#Áåçûìÿííûé_ãðàäèåíò_31"/><linearGradient id="Áåçûìÿííûé_ãðàäèåíò_25" x1="1009.5" y1="618.35" x2="1032.29" y2="618.35" gradientTransform="matrix(1, 0, -0.02, 1, -4.14, 0)" gradientUnits="userSpaceOnUse"><stop offset="0" stop-color="#bc4c40"/><stop offset="1" stop-color="#d65a49"/></linearGradient><linearGradient id="Áåçûìÿííûé_ãðàäèåíò_21" x1="679.92" y1="655.92" x2="679.92" y2="671.91" gradientUnits="userSpaceOnUse"><stop offset="0" stop-color="#d1b3a3"/><stop offset="1" stop-color="#a5816d"/></linearGradient><linearGradient id="Áåçûìÿííûé_ãðàäèåíò_19" x1="19.63" y1="611.46" x2="317.5" y2="611.46" gradientUnits="userSpaceOnUse"><stop offset="0" stop-color="#fff"/><stop offset="1" stop-color="#868c97"/></linearGradient><linearGradient id="Áåçûìÿííûé_ãðàäèåíò_10-3" x1="-1515.4" y1="62.41" x2="-1520.01" y2="103.06" gradientTransform="matrix(1, 0, -0.04, 1, 2495.26, 0)" xlink:href="#Áåçûìÿííûé_ãðàäèåíò_10"/><linearGradient id="Áåçûìÿííûé_ãðàäèåíò_57" x1="-115.23" y1="-61.22" x2="-115.71" y2="15.58" gradientTransform="matrix(1, 0.04, -0.04, 1, 1094.34, 76.65)" gradientUnits="userSpaceOnUse"><stop offset="0" stop-color="#75483b"/><stop offset="0.35" stop-color="#704538"/><stop offset="0.75" stop-color="#633c30"/><stop offset="1" stop-color="#563428"/></linearGradient><linearGradient id="Áåçûìÿííûé_ãðàäèåíò_4" x1="-80.48" y1="189.29" x2="-37" y2="189.29" gradientTransform="matrix(1, 0.01, 0, 1, 1115.74, 29.63)" gradientUnits="userSpaceOnUse"><stop offset="0" stop-color="#f28c70"/><stop offset="1" stop-color="#ff9e78"/></linearGradient><linearGradient id="Áåçûìÿííûé_ãðàäèåíò_4-2" x1="-64.45" y1="168.01" x2="-44.39" y2="168.01" xlink:href="#Áåçûìÿííûé_ãðàäèåíò_4"/><linearGradient id="Áåçûìÿííûé_ãðàäèåíò_10-4" x1="-155.88" y1="157.91" x2="-157.16" y2="235.7" gradientTransform="matrix(1, 0.04, -0.03, 1, 1143.34, -62.99)" xlink:href="#Áåçûìÿííûé_ãðàäèåíò_10"/><linearGradient id="Áåçûìÿííûé_ãðàäèåíò_10-5" x1="-234.89" y1="155.06" x2="-236.17" y2="233.2" gradientTransform="matrix(1, 0.04, -0.03, 1, 1143.34, -62.99)" xlink:href="#Áåçûìÿííûé_ãðàäèåíò_10"/><linearGradient id="Áåçûìÿííûé_ãðàäèåíò_2" x1="894.31" y1="167.27" x2="898.1" y2="157.93" gradientUnits="userSpaceOnUse"><stop offset="0" stop-color="#704a3e"/><stop offset="1"/></linearGradient><linearGradient id="Áåçûìÿííûé_ãðàäèåíò_2-2" x1="980.89" y1="170.79" x2="985.14" y2="160.31" xlink:href="#Áåçûìÿííûé_ãðàäèåíò_2"/><linearGradient id="Áåçûìÿííûé_ãðàäèåíò_57-2" x1="-481.35" y1="148.97" x2="-482.07" y2="174.01" gradientTransform="matrix(0.92, 0.07, -0.07, 1, 1353.38, 0.76)" xlink:href="#Áåçûìÿííûé_ãðàäèåíò_57"/><linearGradient id="Áåçûìÿííûé_ãðàäèåíò_3" x1="929.21" y1="256.12" x2="929.21" y2="247.85" gradientUnits="userSpaceOnUse"><stop offset="0" stop-color="#7c302a"/><stop offset="0.21" stop-color="#772f29"/><stop offset="0.45" stop-color="#692b26"/><stop offset="0.7" stop-color="#532421"/><stop offset="0.96" stop-color="#331c1a"/><stop offset="1" stop-color="#2d1a19"/></linearGradient><linearGradient id="Áåçûìÿííûé_ãðàäèåíò_57-3" x1="29.76" y1="6.48" x2="29.14" y2="28.13" gradientTransform="matrix(1.05, 0.03, -0.07, 1.01, 949.82, 115.71)" xlink:href="#Áåçûìÿííûé_ãðàäèåíò_57"/><linearGradient id="Áåçûìÿííûé_ãðàäèåíò_57-4" x1="-215.25" y1="291.25" x2="-214.46" y2="162.02" gradientTransform="matrix(1, 0.01, 0, 1, 1169.88, 29.99)" xlink:href="#Áåçûìÿííûé_ãðàäèåíò_57"/><linearGradient id="Áåçûìÿííûé_ãðàäèåíò_24" x1="925.73" y1="208.51" x2="925.73" y2="222.33" gradientUnits="userSpaceOnUse"><stop offset="0" stop-color="#4c2e25"/><stop offset="0.39" stop-color="#513127"/><stop offset="0.83" stop-color="#5e3a2e"/><stop offset="1" stop-color="#663f32"/></linearGradient><linearGradient id="Áåçûìÿííûé_ãðàäèåíò_4-3" x1="-245.1" y1="182.28" x2="-245.46" y2="171.52" gradientTransform="matrix(1, 0.01, 0, 1, 1169.88, 29.99)" xlink:href="#Áåçûìÿííûé_ãðàäèåíò_4"/></defs><g id="Layer_2" data-name="Layer 2"><g id="Ñëîé_1" data-name="Ñëîé 1"><path class="cls-1" d="M653.19,178.74S857.87,94.23,865.3,90.35s46.39-22.51,47.31-17.41,6.59,96.82-12.11,100.83-27.73-17.64-35.2-14.91-96.19,68.27-122.09,69.5S653.19,178.74,653.19,178.74Z"/><path class="cls-2" d="M1054.68,156.57s15.83-8,22.17-6.26,123.41,74.16,135.73,73.24,92.52-55.88,91.72-59.19c-.75-3.11-148.7-62.94-221.5-76.81,0,0-16.17-10-20-10.13C998.39,75.58,1054.68,156.57,1054.68,156.57Z"/><path class="cls-3" d="M1104.15,92.35s-4.84,27.89.92,37c32.56,51.66,139.33,71.55,154.54,68h0c22.87-15,45.12-31.22,44.69-33C1303.62,161.53,1181.07,111.74,1104.15,92.35Z"/><path class="cls-4" d="M682.1,166.79c12.18,11,32.78,28.36,41.68,28.48,8.7.11,142.9-70.55,142.9-70.55s30.46-1.86,35-11.86c1.14-2.5-9.33-22.92-10.92-34.31-10.6,4.45-21.81,9.89-25.45,11.8C859.63,93.31,738.8,143.35,682.1,166.79Z"/><path class="cls-5" d="M890.3,308.41c.25-.39-4.07-3.62-4.39-3.87-2.19-1.69-4.81-2.2-5.11-5.32a17.82,17.82,0,0,0-.45-4.07c-1-2.86-4.46-4.07-7.48-3.93a13.14,13.14,0,0,1-3.07,0,2.82,2.82,0,0,1-2.3-1.8,8.46,8.46,0,0,1,.23-2.77,4.89,4.89,0,0,0-2.81-4.41,10.25,10.25,0,0,0-5.4-.84c-2,.12-4.21.47-5.94-.58-3.85-2.35-2.15-9.27-5.94-11.7a7.72,7.72,0,0,0-3.89-.93c-3.58-.15-7.23,1.07-10.71.89-2.53-.12-5.18-2.7-7.29-4-6.2-3.88-45.57-24.78-61.09-34.13,0,0,7.19-2.74,7.85-5,.84-2.84-60-67.33-85.87-65.37-6.48.5-61.64,23.45-67.19,26.91-10.36,6.48-18.53,51.09-10.81,60.54.36.43,9.67,9.92,24,24.42,1,1,4.6-.25,5.65.81C687,322.53,783.1,423.75,797.44,434.39,806.68,441.24,890.3,308.41,890.3,308.41Z"/><path class="cls-6" d="M1021.18,303c.32,2.25,81.88,142.19,88.28,142.45,4.41.18,132.37-108.55,209.17-179.12l5.63.58c13.41-12.38,23.66-27.9,32.57-36.81,5.22-5.22.32-31,0-32.79-1.92-10.42-56.16-41.85-62.36-43.69s-109.07,50.74-116.38,60.75c-1.33,1.82,6.49,14,6.49,14-5.19,2.49-12.66,6.56-17.84,9-16.89,8.12-62.83,34-72.92,38.9-4.5,2.16-9.41,5.38-14.25,6.33-2.57.5-4.62.38-7,1.91-.52.34-5,4.07-4.32,4.73a10,10,0,0,0-16.36,3.17c-1,2.43-1.47,5.69-4,6.44s-4.64-2.14-7.21-2.32c-10.16-.72-11.77,6-15.76,5.91C1024.55,302.48,1021.15,302.7,1021.18,303Z"/><path class="cls-7" d="M19,622.45s-7.85,11.73-7.85,19.94c0,11.86,7.43,22.46,7.43,22.46s255.47.42,256.33-1.05,3.21-34.54.2-37.61c-1.54-1.58-68.85-2.67-134.22-3.74C79.25,621.44,19,622.45,19,622.45Z"/><path class="cls-8" d="M275.15,626.19c-1.51-1.54-65.85-2.62-129.81-3.67v42.35c64.6-.08,129.18-.34,129.61-1.07C275.8,662.33,278.16,629.26,275.15,626.19Z"/><path class="cls-9" d="M25.56,629.24s-4.83,6.94-4.58,13.67a35.71,35.71,0,0,0,3.32,12.87H231.49l1.18-25Z"/><path class="cls-10" d="M138.07,630l-112.51-.76S20.73,636.08,21,642.8a34.75,34.75,0,0,0,3.32,12.77H138A34.35,34.35,0,0,1,138.07,630Z"/><path class="cls-11" d="M824.16,699.53c.29-90.94,0-180.28-.15-180.89-.28-1.22-7.32-2.26-12.44-.72-4.37,1.31-13.71,140.23-17,181.61Z"/><path class="cls-12" d="M837.72,699.53c.29-90.94,0-180.28-.15-180.89-.28-1.22-7.32-2.26-12.44-.72-4.37,1.31-13.71,140.23-17,181.61Z"/><path class="cls-13" d="M1133.48,699.53c4.58-90.72,8.5-179.91,7.72-181.21-1.58-2.65-109.36-1.17-109.36-1.17L932.21,699.53Z"/><path class="cls-14" d="M1105.91,704.74l.2-8s12.75-174.16,10.81-174.55-94.27-.77-94.27-.77L988.81,704.74Z"/><path class="cls-15" d="M388.82,660.34s12.57-37.15,59-42.85,51.3,42.85,48.48,44.74S389.85,661.69,388.82,660.34Z"/><path class="cls-16" d="M906.62,297.61s-8,59.92-8.42,62.28,37,18.91,37,18.91,71.4-63.24,70.56-65.31,0-47.75,0-47.75Z"/><path class="cls-17" d="M761.54,686.22h320.51c14.88-24.61,32.06-209.52,36.64-296.56,1.91-36.38-2.55-54.63-10.81-65.69-16.43-22-83-21.49-83-21.49-1.73-18.86-20.51-20.32-20.51-20.32h-.92L1000.28,300c-17.3,42.56-64.4,52.7-64.4,52.7-27.62-13.39-27.35-42-27.35-42l1-16.13c-15.95,4-19.25,13.83-19.25,13.83s-57.83,3.85-75.39,17.37c-22.82,17.56-16.84,92.85-16.84,92.85S784.65,618.35,761.54,686.22Z"/><path class="cls-18" d="M1317.47,256c-10.34,1.8-82-17.64-116.91-27.41,21.77-1.51,64.38-4.89,65-5.41.84-.7.28-7.5-1-10.14s-83.15,10.14-83.15,10.14c1.59,2.82,3.13,5.21,3.13,5.21-1.19.57-2.51,1.23-3.89,1.93,50.5,31.4,113.28,39.14,113.28,39.14s-182.32,151.78-182.7,152.93S1108.6,366.6,1108,365c-.43-1.22-8.09-.21-8.09-.21s-29.36,267.72-35.11,272.88S795,634.58,792.74,629.56s25.1-257.93,24.72-259.84-11.29-.32-11.29-.32-8.1,49.23-8.25,51.49S655,284.78,660.71,284.83c9,.07,112.7-48.79,112.7-48.79-3.46-1.94-4.95-2.81-6.85-3.95l3.43-3.71-66.75-18.7s-4.55,7.32-4,10.09c.5,2.33,46.89,10.42,61.6,12.92-18.41,8.45-98.35,44.8-107.69,43.54-8.1-1.08-37.37-30.85-41-36.21-2.64-3.85-4.94-23-4.94-23-2.31,13.05-2.4,26.38,1.43,31.07.36.43,20,23.43,34.33,37.93,1,1,6,.24,7,1.3C698.21,336,781.09,421.42,797,433.79c-3.67,48.08-16.19,196-35.41,252h320.51c12.33-20,26.24-150.69,33.25-244.33,26.46-19.78,130.72-106.29,199-169l8.93.23c13.41-12.38,27.93-29.92,33.87-39.55,1.34-2.17,2.16-9.11,2.15-14C1349.53,229.61,1328,254.14,1317.47,256Z"/><path class="cls-19" d="M1024.93,302.48a25,25,0,0,0-1-5.06h0c4.4,24.85-26.4,78.71-39.68,81.85-5.84,1.38-25.7-14.88-40.39-28.93a75.25,75.25,0,0,1-8,2.37c-1.62-.79-3.14-1.63-4.58-2.51-14.69,13.76-31.2,25.08-35.14,21.66-11-9.57-8.14-46.46-5.86-63.45,0-.45-2.23-2.13-4.39-3.87-1.73,13.61-7.79,61.33,6,73.31,4.91,4.26,14.8-1.13,29-12.23,5.46-4.26,10.51-8.78,13.93-12-5.49,66.1-24.24,293.25-24.73,317.64l5,.1c.49-24.32,19.33-252.6,24.76-317.91,10.32,9.94,32.91,32.87,43.59,32.87a17.51,17.51,0,0,0,2.57-.6c15.72-3.72,43.1-57.46,43.24-85.57A18.68,18.68,0,0,1,1024.93,302.48Z"/><path class="cls-20" d="M1133.42,699.53c4.28-90.86,7.92-180.09,7.78-180.69-.29-1.23-11.29-2-16.41-.5-4.37,1.31-13.32,139.87-16.47,181.19Z"/><polygon class="cls-21" points="606.07 565.34 583.5 578.09 127.73 565.34 62.75 255.29 85.32 242.53 563.66 242.53 606.07 565.34"/><polygon class="cls-22" points="583.5 578.09 105.16 578.09 62.75 255.29 541.09 255.29 583.5 578.09"/><polygon class="cls-23" points="398.3 577.92 377.25 415.57 272.77 415.57 265.69 577.92 398.3 577.92"/><path class="cls-24" d="M363.81,512.25l-75.75.54a3,3,0,0,0-2.93,3.44l1.41,9a3,3,0,0,0,3,2.52l75.75-.54a3,3,0,0,0,2.92-3.44l-1.41-9.05A3,3,0,0,0,363.81,512.25Z"/><path class="cls-25" d="M333.85,662.1H233.93a20.24,20.24,0,0,1-15.53-7,19.59,19.59,0,0,1-4.1-17.3l52.84-219.21a10,10,0,0,1,9.7-7.63l95.68.13-56,229c-.47,5.73,10.81,12.27,10.81,12.27Z"/><path class="cls-26" d="M422.42,662.27H333.85a20.24,20.24,0,0,1-15.52-7,19.61,19.61,0,0,1-4.11-17.3l53.62-223.12a4.88,4.88,0,0,1,5.87-3.6h0a4.87,4.87,0,0,1,3.6,5.88L323.7,640.26a9.92,9.92,0,0,0,2.55,9.27,10.32,10.32,0,0,0,7.42,3h88.75a4.88,4.88,0,0,1,4.87,4.88h0A4.87,4.87,0,0,1,422.42,662.27Z"/><ellipse class="cls-27" cx="292.02" cy="511.23" rx="49.3" ry="25.7" transform="translate(-278.75 655.65) rotate(-74.46)"/><ellipse class="cls-27" cx="292.02" cy="511.23" rx="49.3" ry="25.7" transform="translate(-278.75 655.65) rotate(-74.46)"/><path class="cls-28" d="M274.43,511c4.76-23.73,18.17-43.35,31.37-47.14a13.88,13.88,0,0,0-4.16-.67c-14.55-.1-31.12,21.08-36.43,47.59s2.63,48.3,17.19,48.4a16.14,16.14,0,0,0,4.62-.67C275.24,554.74,269.65,534.89,274.43,511Z"/><path class="cls-29" d="M858.56,649.2,485.1,644a5.19,5.19,0,0,0-5.18,4.22l-1.77,9.23a5.2,5.2,0,0,0,5.1,6.17l375.23.55a5,5,0,0,0,5-5v-5A5,5,0,0,0,858.56,649.2Z"/><path class="cls-30" d="M989.53,656c-2,0-3.25-.11-3.45-.13l1.81-16.93c3.88.33,15.47-.15,22.07-6.14,3.73-3.38,5.59-8.23,5.7-14.8s-1.58-11.28-5.14-14.53c-6.36-5.79-17.9-6-21.81-5.56L987.07,581c2.2-.26,21.82-2.12,34.92,9.72,5,4.52,10.9,12.91,10.67,27.26-.18,11.48-4.05,20.7-11.49,27.4C1010.7,654.8,996.12,656,989.53,656Z"/><path class="cls-31" d="M1054.06,626.8a33.78,33.78,0,0,0,.19-6.36c0-.15,4.89,0,4.89,0-.25-4.3-.79-10.25-.7-14.56,0-.12-4.39.05-4.38-.07.09-3.41-.21-6.06.5-6.45,2.41-1.34,229.62.77,231.23,2.36s2.27,27.83,2.27,27.83Z"/><path class="cls-32" d="M1164.1,628.1l124,1.46s-.66-26.24-2.27-27.83c-.84-.82-62.73-1.79-122.27-2.34C1169.68,607.59,1169,619,1164.1,628.1Z"/><path class="cls-33" d="M994.18,664.13c2.27-15.39,4.39-98.13,3.93-98.13H907.23s-1.53,88.12,1.4,98.13Z"/><path class="cls-34" d="M1046.91,625.54l-.14,7.09,6.11.21-.46,23-6.15.1-.18,8.87s260,.43,260.83-1,3-32.48,0-35.55S1046.91,625.54,1046.91,625.54Z"/><path class="cls-35" d="M1306.9,628.25c-1.56-1.6-71.8-2.26-138.88-2.54v.55a4.27,4.27,0,0,1,.37.81c4.09,12.25,4.56,24.8-.37,36.56v1.25c67.7-.07,138.45-.32,138.9-1.08C1307.77,662.33,1309.91,631.32,1306.9,628.25Z"/><path class="cls-36" d="M5.72,661.61H1353a6.8,6.8,0,0,1,6.8,6.8v32.38a6.8,6.8,0,0,1-6.8,6.8H5.72A5.72,5.72,0,0,1,0,701.87V667.33A5.72,5.72,0,0,1,5.72,661.61Z"/><path class="cls-37" d="M1353,661.61H1138v46h215a6.8,6.8,0,0,0,6.79-6.8V668.41A6.79,6.79,0,0,0,1353,661.61Z"/><path class="cls-38" d="M249.56,607.68C236.32,642.54,222.1,680,201,707.55h8.62c1-1.37,2-2.76,2.93-4.19,18.6-27.42,31.85-62.37,43.56-93.19,17.89-47.11,32.48-88,59.48-88l1.92-6.78C285.5,515.38,268.37,558.15,249.56,607.68Z"/><path class="cls-39" d="M1160.72,633.06c-1.25-1.45-112.46-.39-112.46-.39h0c5.4,5.91,3.12,16-.6,23.3,10.72,0,112.75.56,113.06,0C1162.74,652.4,1162.74,635.39,1160.72,633.06Z"/><path class="cls-39" d="M1054.66,605.86s100.57-.89,102.64,1,.34,12.54,0,13.58-102.24,0-102.24,0,2.56-2.55,2.56-7.76S1054.66,605.86,1054.66,605.86Z"/><path class="cls-40" d="M940.33,587.63c.33-5.22-4.81-9.54-9.76-9.41-5.58.14-9.2,4.67-9.57,9.91a279.23,279.23,0,0,0-.68,33.23c.6,12.31,19.22,11.94,19.24-.5C939.59,609.77,939.63,598.72,940.33,587.63Z"/><path class="cls-40" d="M941.18,642.46c-.25-2.5-.94-5.05-2.9-6.78a9.77,9.77,0,0,0-5.6-2.52,9.33,9.33,0,0,0-6.17,1.31c-2,1.31-4.07,3.46-4.4,5.9-.22,1.63-.42,3.22-.48,4.85a21.65,21.65,0,0,0,.52,4.8l1,2.27a7.15,7.15,0,0,0,2.51,2.64,9.08,9.08,0,0,0,5.86,1.92,11.56,11.56,0,0,0,4.85-1.44,10,10,0,0,0,4.37-5.87A22.78,22.78,0,0,0,941.18,642.46Z"/><path class="cls-41" d="M875.15,156.86S887.8,90,903.86,74.29c0,0-8-26.48-11.5-23.22C876.08,66.35,871.37,123.87,875.15,156.86Z"/><path class="cls-42" d="M920.7,39.47s0-.17,0-.45C920.68,39.31,920.7,39.47,920.7,39.47Z"/><path class="cls-43" d="M1030.34,87.91c-4.91-35-102.76-54.18-132.71-7.17-13.43,24.43-21,62.37-26.86,103.33h0S837.52,295.57,935,298.49c73.65,2.2,112.78-37.81,110-101.84h0C1045.92,160.7,1037.09,114.88,1030.34,87.91Z"/><path class="cls-44" d="M1068,58.55a26.46,26.46,0,0,0-15.89-16.63c4.43-2.78,3.15-7,3.15-7a9.53,9.53,0,0,0-8.25,2.47c5.93-6.19,2.44-15.32,2.44-15.32-13.84,5.56-11.18,12.63-11.18,12.63-5.23-11.64-22-15.68-22-15.68,0,1.63-1.33,6.63-.8,8.24C975.21,1.93,922.09,0,922.09,0c-2.6,1.22-5,4.83-5.3,6.87C897.56,3,896.33,5.08,896.33,5.08c-12.11,23.5-11,46.26-4.09,57.31a37,37,0,0,0,10.83,11.29s15-7.45,40.36-6.69c35.32,1.06,48.34,6.93,55.81,12.25,10.61,7.55,12.54,31.11,14.93,42.61,1.33,6.4,23.41,42.88,21,60.32-1.45,10.42,20.78,2.44,20.78,2.44a159.65,159.65,0,0,0,8.45-27.7c.33-1.58.66-3.19,1-4.84,0,0-2.6-15.83-.72-38.9,1-11.85,6.89-32.12,6.89-32.12C1071.11,72.19,1070,64.4,1068,58.55Z"/><g class="cls-45"><ellipse class="cls-46" cx="975.41" cy="208.65" rx="39.63" ry="34.71" transform="translate(565.77 1118.13) rotate(-77.83)"/><ellipse class="cls-47" cx="975.41" cy="208.65" rx="39.37" ry="34.49" transform="translate(565.77 1118.13) rotate(-77.83)"/><ellipse class="cls-48" cx="975.41" cy="208.65" rx="39.12" ry="34.27" transform="translate(565.78 1118.13) rotate(-77.83)"/><ellipse class="cls-49" cx="975.41" cy="208.65" rx="38.86" ry="34.04" transform="translate(565.77 1118.13) rotate(-77.83)"/><ellipse class="cls-50" cx="975.41" cy="208.65" rx="38.61" ry="33.82" transform="translate(565.78 1118.13) rotate(-77.83)"/><ellipse class="cls-51" cx="975.41" cy="208.65" rx="38.36" ry="33.6" transform="translate(565.78 1118.13) rotate(-77.83)"/><ellipse class="cls-52" cx="975.41" cy="208.65" rx="38.1" ry="33.38" transform="translate(565.78 1118.13) rotate(-77.83)"/><ellipse class="cls-53" cx="975.41" cy="208.65" rx="37.85" ry="33.15" transform="matrix(0.21, -0.98, 0.98, 0.21, 565.77, 1118.13)"/><ellipse class="cls-54" cx="975.41" cy="208.65" rx="37.59" ry="32.93" transform="translate(565.77 1118.13) rotate(-77.83)"/><ellipse class="cls-55" cx="975.41" cy="208.65" rx="37.34" ry="32.71" transform="translate(565.78 1118.13) rotate(-77.83)"/><ellipse class="cls-56" cx="975.41" cy="208.65" rx="37.09" ry="32.49" transform="translate(565.77 1118.13) rotate(-77.83)"/><ellipse class="cls-57" cx="975.41" cy="208.65" rx="36.83" ry="32.26" transform="translate(565.78 1118.13) rotate(-77.83)"/><ellipse class="cls-58" cx="975.41" cy="208.65" rx="36.58" ry="32.04" transform="translate(565.78 1118.13) rotate(-77.83)"/><ellipse class="cls-59" cx="975.41" cy="208.65" rx="36.32" ry="31.82" transform="translate(565.78 1118.13) rotate(-77.83)"/><ellipse class="cls-60" cx="975.41" cy="208.65" rx="36.07" ry="31.6" transform="translate(565.78 1118.13) rotate(-77.83)"/><ellipse class="cls-61" cx="975.41" cy="208.65" rx="35.82" ry="31.37" transform="translate(565.78 1118.13) rotate(-77.83)"/><ellipse class="cls-62" cx="975.41" cy="208.65" rx="35.56" ry="31.15" transform="translate(565.77 1118.13) rotate(-77.83)"/><ellipse class="cls-63" cx="975.41" cy="208.65" rx="35.31" ry="30.93" transform="translate(565.77 1118.13) rotate(-77.83)"/><ellipse class="cls-64" cx="975.41" cy="208.65" rx="35.05" ry="30.71" transform="translate(565.77 1118.13) rotate(-77.83)"/><ellipse class="cls-65" cx="975.41" cy="208.65" rx="34.8" ry="30.48" transform="translate(565.78 1118.13) rotate(-77.83)"/><ellipse class="cls-66" cx="975.41" cy="208.65" rx="34.55" ry="30.26" transform="translate(565.78 1118.13) rotate(-77.83)"/><ellipse class="cls-67" cx="975.41" cy="208.65" rx="34.29" ry="30.04" transform="translate(565.77 1118.13) rotate(-77.83)"/><ellipse class="cls-68" cx="975.41" cy="208.65" rx="34.04" ry="29.82" transform="translate(565.78 1118.13) rotate(-77.83)"/><ellipse class="cls-69" cx="975.41" cy="208.65" rx="33.78" ry="29.59" transform="translate(565.77 1118.13) rotate(-77.83)"/><ellipse class="cls-70" cx="975.41" cy="208.65" rx="33.53" ry="29.37" transform="translate(565.78 1118.13) rotate(-77.83)"/><ellipse class="cls-71" cx="975.41" cy="208.65" rx="33.28" ry="29.15" transform="translate(565.78 1118.13) rotate(-77.83)"/><ellipse class="cls-72" cx="975.41" cy="208.65" rx="33.02" ry="28.93" transform="translate(565.77 1118.13) rotate(-77.83)"/><ellipse class="cls-73" cx="975.41" cy="208.65" rx="32.77" ry="28.7" transform="translate(565.78 1118.13) rotate(-77.83)"/><ellipse class="cls-74" cx="975.41" cy="208.65" rx="32.51" ry="28.48" transform="translate(565.77 1118.13) rotate(-77.83)"/><ellipse class="cls-75" cx="975.41" cy="208.65" rx="32.26" ry="28.26" transform="translate(565.78 1118.13) rotate(-77.83)"/><ellipse class="cls-76" cx="975.41" cy="208.65" rx="32.01" ry="28.04" transform="matrix(0.21, -0.98, 0.98, 0.21, 565.78, 1118.13)"/><ellipse class="cls-77" cx="975.41" cy="208.65" rx="31.75" ry="27.81" transform="translate(565.78 1118.13) rotate(-77.83)"/><ellipse class="cls-78" cx="975.41" cy="208.65" rx="31.5" ry="27.59" transform="translate(565.77 1118.13) rotate(-77.83)"/><ellipse class="cls-79" cx="975.41" cy="208.65" rx="31.24" ry="27.37" transform="translate(565.78 1118.13) rotate(-77.83)"/><ellipse class="cls-80" cx="975.41" cy="208.65" rx="30.99" ry="27.15" transform="translate(565.79 1118.14) rotate(-77.83)"/><ellipse class="cls-81" cx="975.41" cy="208.65" rx="30.74" ry="26.92" transform="translate(565.78 1118.13) rotate(-77.83)"/><ellipse class="cls-82" cx="975.41" cy="208.65" rx="30.48" ry="26.7" transform="translate(565.78 1118.13) rotate(-77.83)"/><ellipse class="cls-83" cx="975.41" cy="208.65" rx="30.23" ry="26.48" transform="translate(565.77 1118.13) rotate(-77.83)"/><ellipse class="cls-84" cx="975.41" cy="208.65" rx="29.97" ry="26.26" transform="translate(565.78 1118.13) rotate(-77.83)"/><ellipse class="cls-85" cx="975.41" cy="208.65" rx="29.72" ry="26.03" transform="translate(565.77 1118.13) rotate(-77.83)"/><ellipse class="cls-85" cx="975.41" cy="208.65" rx="29.47" ry="25.81" transform="translate(565.77 1118.13) rotate(-77.83)"/><ellipse class="cls-86" cx="975.41" cy="208.65" rx="29.21" ry="25.59" transform="translate(565.78 1118.13) rotate(-77.83)"/><ellipse class="cls-87" cx="975.41" cy="208.65" rx="28.96" ry="25.37" transform="translate(565.78 1118.13) rotate(-77.83)"/><ellipse class="cls-88" cx="975.41" cy="208.65" rx="28.7" ry="25.14" transform="translate(565.79 1118.14) rotate(-77.83)"/><ellipse class="cls-89" cx="975.41" cy="208.65" rx="28.45" ry="24.92" transform="translate(565.78 1118.13) rotate(-77.83)"/><ellipse class="cls-90" cx="975.41" cy="208.65" rx="28.2" ry="24.7" transform="translate(565.78 1118.13) rotate(-77.83)"/><ellipse class="cls-91" cx="975.41" cy="208.65" rx="27.94" ry="24.48" transform="translate(565.77 1118.13) rotate(-77.83)"/><ellipse class="cls-92" cx="975.41" cy="208.65" rx="27.69" ry="24.25" transform="translate(565.77 1118.13) rotate(-77.83)"/><ellipse class="cls-93" cx="975.41" cy="208.65" rx="27.43" ry="24.03" transform="translate(565.78 1118.13) rotate(-77.83)"/><ellipse class="cls-94" cx="975.41" cy="208.65" rx="27.18" ry="23.81" transform="translate(565.77 1118.13) rotate(-77.83)"/><ellipse class="cls-95" cx="975.41" cy="208.65" rx="26.93" ry="23.59" transform="translate(565.79 1118.14) rotate(-77.83)"/><ellipse class="cls-96" cx="975.41" cy="208.65" rx="26.67" ry="23.36" transform="translate(565.78 1118.13) rotate(-77.83)"/><ellipse class="cls-97" cx="975.41" cy="208.65" rx="26.42" ry="23.14" transform="translate(565.78 1118.13) rotate(-77.83)"/><ellipse class="cls-98" cx="975.41" cy="208.65" rx="26.16" ry="22.92" transform="translate(565.77 1118.13) rotate(-77.83)"/><ellipse class="cls-99" cx="975.41" cy="208.65" rx="25.91" ry="22.7" transform="translate(565.78 1118.13) rotate(-77.83)"/><ellipse class="cls-100" cx="975.41" cy="208.65" rx="25.66" ry="22.47" transform="translate(565.77 1118.13) rotate(-77.83)"/><ellipse class="cls-101" cx="975.41" cy="208.65" rx="25.4" ry="22.25" transform="translate(565.77 1118.13) rotate(-77.83)"/><ellipse class="cls-102" cx="975.41" cy="208.65" rx="25.15" ry="22.03" transform="translate(565.79 1118.14) rotate(-77.83)"/><ellipse class="cls-103" cx="975.41" cy="208.65" rx="24.89" ry="21.81" transform="translate(565.78 1118.13) rotate(-77.83)"/><ellipse class="cls-104" cx="975.41" cy="208.65" rx="24.64" ry="21.58" transform="translate(565.78 1118.13) rotate(-77.83)"/><ellipse class="cls-105" cx="975.41" cy="208.65" rx="24.39" ry="21.36" transform="translate(565.77 1118.13) rotate(-77.83)"/><ellipse class="cls-106" cx="975.41" cy="208.65" rx="24.13" ry="21.14" transform="translate(565.78 1118.13) rotate(-77.83)"/><ellipse class="cls-107" cx="975.41" cy="208.65" rx="23.88" ry="20.92" transform="translate(565.76 1118.12) rotate(-77.83)"/><ellipse class="cls-108" cx="975.41" cy="208.65" rx="23.62" ry="20.69" transform="translate(565.77 1118.13) rotate(-77.83)"/><ellipse class="cls-109" cx="975.41" cy="208.65" rx="23.37" ry="20.47" transform="translate(565.78 1118.13) rotate(-77.83)"/><ellipse class="cls-110" cx="975.41" cy="208.65" rx="23.12" ry="20.25" transform="translate(565.78 1118.13) rotate(-77.83)"/><ellipse class="cls-111" cx="975.41" cy="208.65" rx="22.86" ry="20.03" transform="translate(565.78 1118.13) rotate(-77.83)"/><ellipse class="cls-112" cx="975.41" cy="208.65" rx="22.61" ry="19.8" transform="translate(565.77 1118.13) rotate(-77.83)"/><ellipse class="cls-113" cx="975.41" cy="208.65" rx="22.35" ry="19.58" transform="translate(565.78 1118.13) rotate(-77.83)"/><ellipse class="cls-114" cx="975.41" cy="208.65" rx="22.1" ry="19.36" transform="translate(565.77 1118.13) rotate(-77.83)"/><ellipse class="cls-115" cx="975.41" cy="208.65" rx="21.85" ry="19.14" transform="translate(565.77 1118.13) rotate(-77.83)"/><ellipse class="cls-116" cx="975.41" cy="208.65" rx="21.59" ry="18.91" transform="translate(565.77 1118.13) rotate(-77.83)"/><ellipse class="cls-117" cx="975.41" cy="208.65" rx="21.34" ry="18.69" transform="translate(565.78 1118.13) rotate(-77.83)"/><ellipse class="cls-118" cx="975.41" cy="208.65" rx="21.08" ry="18.47" transform="translate(565.79 1118.14) rotate(-77.83)"/><ellipse class="cls-119" cx="975.41" cy="208.65" rx="20.83" ry="18.25" transform="translate(565.78 1118.13) rotate(-77.83)"/><ellipse class="cls-120" cx="975.41" cy="208.65" rx="20.58" ry="18.02" transform="translate(565.79 1118.13) rotate(-77.83)"/><ellipse class="cls-121" cx="975.41" cy="208.65" rx="20.32" ry="17.8" transform="translate(565.77 1118.13) rotate(-77.83)"/><ellipse class="cls-122" cx="975.41" cy="208.65" rx="20.07" ry="17.58" transform="translate(565.78 1118.13) rotate(-77.83)"/><ellipse class="cls-123" cx="975.41" cy="208.65" rx="19.81" ry="17.36" transform="translate(565.77 1118.13) rotate(-77.83)"/></g><ellipse class="cls-46" cx="1058.92" cy="205.93" rx="27.92" ry="19.16" transform="translate(533.06 1147.84) rotate(-71.83)"/><path class="cls-124" d="M1068.32,214.27c-9.79,5.89-22.28,3.44-29.57-2.83-3.5,7.76-3.5,23.89-3.5,23.89s12.9-3.5,14-3.12c11.69,4.21,22.06-4.79,27.25-19.3a39.1,39.1,0,0,0,2.26-11.1A24.4,24.4,0,0,1,1068.32,214.27Z"/><path class="cls-125" d="M1051.28,205.77l9.07,1.57c.24-14.36,11-18.82,11-18.82C1054.2,181.77,1051.28,205.77,1051.28,205.77Z"/><path class="cls-126" d="M989.2,231a.37.37,0,0,0,0,.08A.45.45,0,0,1,989.2,231Z"/><g class="cls-45"><ellipse class="cls-46" cx="901.67" cy="198.62" rx="30.98" ry="39.87" transform="translate(-16.71 103.52) rotate(-6.51)"/><ellipse class="cls-47" cx="901.67" cy="198.62" rx="30.78" ry="39.61" transform="translate(-16.71 103.52) rotate(-6.51)"/><ellipse class="cls-48" cx="901.67" cy="198.62" rx="30.59" ry="39.36" transform="translate(-16.71 103.52) rotate(-6.51)"/><ellipse class="cls-49" cx="901.67" cy="198.62" rx="30.39" ry="39.1" transform="translate(-16.71 103.53) rotate(-6.51)"/><ellipse class="cls-50" cx="901.67" cy="198.62" rx="30.19" ry="38.84" transform="translate(-16.71 103.52) rotate(-6.51)"/><ellipse class="cls-51" cx="901.67" cy="198.62" rx="29.99" ry="38.59" transform="translate(-16.71 103.52) rotate(-6.51)"/><ellipse class="cls-52" cx="901.67" cy="198.62" rx="29.79" ry="38.33" transform="translate(-16.71 103.53) rotate(-6.51)"/><ellipse class="cls-53" cx="901.67" cy="198.62" rx="29.59" ry="38.08" transform="translate(-16.71 103.53) rotate(-6.51)"/><ellipse class="cls-54" cx="901.67" cy="198.62" rx="29.39" ry="37.82" transform="translate(-16.71 103.52) rotate(-6.51)"/><ellipse class="cls-55" cx="901.67" cy="198.62" rx="29.19" ry="37.57" transform="translate(-16.71 103.52) rotate(-6.51)"/><ellipse class="cls-56" cx="901.67" cy="198.62" rx="29" ry="37.31" transform="translate(-16.71 103.52) rotate(-6.51)"/><ellipse class="cls-57" cx="901.67" cy="198.62" rx="28.8" ry="37.06" transform="translate(-16.71 103.52) rotate(-6.51)"/><ellipse class="cls-58" cx="901.67" cy="198.62" rx="28.6" ry="36.8" transform="translate(-16.71 103.53) rotate(-6.51)"/><ellipse class="cls-59" cx="901.67" cy="198.62" rx="28.4" ry="36.54" transform="translate(-16.71 103.53) rotate(-6.51)"/><ellipse class="cls-60" cx="901.67" cy="198.62" rx="28.2" ry="36.29" transform="translate(-16.71 103.52) rotate(-6.51)"/><ellipse class="cls-61" cx="901.67" cy="198.62" rx="28" ry="36.03" transform="matrix(0.99, -0.11, 0.11, 0.99, -16.71, 103.52)"/><ellipse class="cls-62" cx="901.67" cy="198.62" rx="27.8" ry="35.78" transform="translate(-16.71 103.53) rotate(-6.51)"/><ellipse class="cls-63" cx="901.67" cy="198.62" rx="27.61" ry="35.52" transform="translate(-16.71 103.52) rotate(-6.51)"/><ellipse class="cls-64" cx="901.67" cy="198.62" rx="27.41" ry="35.27" transform="translate(-16.71 103.52) rotate(-6.51)"/><ellipse class="cls-65" cx="901.67" cy="198.62" rx="27.21" ry="35.01" transform="translate(-16.71 103.53) rotate(-6.51)"/><ellipse class="cls-66" cx="901.67" cy="198.62" rx="27.01" ry="34.76" transform="translate(-16.71 103.52) rotate(-6.51)"/><ellipse class="cls-67" cx="901.67" cy="198.62" rx="26.81" ry="34.5" transform="translate(-16.71 103.52) rotate(-6.51)"/><ellipse class="cls-68" cx="901.67" cy="198.62" rx="26.61" ry="34.24" transform="translate(-16.71 103.53) rotate(-6.51)"/><ellipse class="cls-69" cx="901.67" cy="198.62" rx="26.41" ry="33.99" transform="translate(-16.71 103.53) rotate(-6.51)"/><ellipse class="cls-70" cx="901.67" cy="198.62" rx="26.22" ry="33.73" transform="translate(-16.71 103.52) rotate(-6.51)"/><ellipse class="cls-71" cx="901.67" cy="198.62" rx="26.02" ry="33.48" transform="translate(-16.71 103.53) rotate(-6.51)"/><ellipse class="cls-72" cx="901.67" cy="198.62" rx="25.82" ry="33.22" transform="translate(-16.71 103.52) rotate(-6.51)"/><ellipse class="cls-73" cx="901.67" cy="198.62" rx="25.62" ry="32.97" transform="translate(-16.71 103.53) rotate(-6.51)"/><ellipse class="cls-74" cx="901.67" cy="198.62" rx="25.42" ry="32.71" transform="translate(-16.71 103.52) rotate(-6.51)"/><ellipse class="cls-75" cx="901.67" cy="198.62" rx="25.22" ry="32.46" transform="translate(-16.71 103.52) rotate(-6.51)"/><ellipse class="cls-76" cx="901.67" cy="198.62" rx="25.02" ry="32.2" transform="translate(-16.71 103.52) rotate(-6.51)"/><ellipse class="cls-77" cx="901.67" cy="198.62" rx="24.83" ry="31.94" transform="translate(-16.71 103.53) rotate(-6.51)"/><ellipse class="cls-78" cx="901.67" cy="198.62" rx="24.63" ry="31.69" transform="matrix(0.99, -0.11, 0.11, 0.99, -16.71, 103.53)"/><ellipse class="cls-79" cx="901.67" cy="198.62" rx="24.43" ry="31.43" transform="translate(-16.71 103.52) rotate(-6.51)"/><ellipse class="cls-80" cx="901.67" cy="198.62" rx="24.23" ry="31.18" transform="translate(-16.71 103.52) rotate(-6.51)"/><ellipse class="cls-81" cx="901.67" cy="198.62" rx="24.03" ry="30.92" transform="translate(-16.71 103.52) rotate(-6.51)"/><ellipse class="cls-82" cx="901.67" cy="198.62" rx="23.83" ry="30.67" transform="translate(-16.71 103.53) rotate(-6.51)"/><ellipse class="cls-83" cx="901.67" cy="198.62" rx="23.63" ry="30.41" transform="translate(-16.71 103.52) rotate(-6.51)"/><ellipse class="cls-84" cx="901.67" cy="198.62" rx="23.44" ry="30.16" transform="translate(-16.71 103.52) rotate(-6.51)"/><ellipse class="cls-85" cx="901.67" cy="198.62" rx="23.24" ry="29.9" transform="translate(-16.71 103.52) rotate(-6.51)"/><ellipse class="cls-85" cx="901.67" cy="198.62" rx="23.04" ry="29.64" transform="translate(-16.71 103.52) rotate(-6.51)"/><ellipse class="cls-86" cx="901.67" cy="198.62" rx="22.84" ry="29.39" transform="translate(-16.71 103.53) rotate(-6.51)"/><ellipse class="cls-87" cx="901.67" cy="198.62" rx="22.64" ry="29.13" transform="translate(-16.71 103.53) rotate(-6.51)"/><ellipse class="cls-88" cx="901.67" cy="198.62" rx="22.44" ry="28.88" transform="translate(-16.71 103.52) rotate(-6.51)"/><ellipse class="cls-89" cx="901.67" cy="198.62" rx="22.24" ry="28.62" transform="translate(-16.71 103.53) rotate(-6.51)"/><ellipse class="cls-90" cx="901.67" cy="198.62" rx="22.05" ry="28.37" transform="translate(-16.71 103.53) rotate(-6.51)"/><ellipse class="cls-91" cx="901.67" cy="198.62" rx="21.85" ry="28.11" transform="translate(-16.71 103.52) rotate(-6.51)"/><ellipse class="cls-92" cx="901.67" cy="198.62" rx="21.65" ry="27.86" transform="translate(-16.71 103.53) rotate(-6.51)"/><ellipse class="cls-93" cx="901.67" cy="198.62" rx="21.45" ry="27.6" transform="translate(-16.71 103.52) rotate(-6.51)"/><ellipse class="cls-94" cx="901.67" cy="198.62" rx="21.25" ry="27.34" transform="translate(-16.71 103.52) rotate(-6.51)"/><ellipse class="cls-95" cx="901.67" cy="198.62" rx="21.05" ry="27.09" transform="translate(-16.71 103.53) rotate(-6.51)"/><ellipse class="cls-96" cx="901.67" cy="198.62" rx="20.85" ry="26.83" transform="translate(-16.71 103.53) rotate(-6.51)"/><ellipse class="cls-97" cx="901.67" cy="198.62" rx="20.65" ry="26.58" transform="translate(-16.71 103.52) rotate(-6.51)"/><ellipse class="cls-98" cx="901.67" cy="198.62" rx="20.46" ry="26.32" transform="translate(-16.71 103.53) rotate(-6.51)"/><ellipse class="cls-99" cx="901.67" cy="198.62" rx="20.26" ry="26.07" transform="translate(-16.71 103.53) rotate(-6.51)"/><ellipse class="cls-100" cx="901.67" cy="198.62" rx="20.06" ry="25.81" transform="translate(-16.71 103.52) rotate(-6.51)"/><ellipse class="cls-101" cx="901.67" cy="198.62" rx="19.86" ry="25.56" transform="translate(-16.71 103.52) rotate(-6.51)"/><ellipse class="cls-102" cx="901.67" cy="198.62" rx="19.66" ry="25.3" transform="translate(-16.71 103.52) rotate(-6.51)"/><ellipse class="cls-103" cx="901.67" cy="198.62" rx="19.46" ry="25.04" transform="translate(-16.71 103.52) rotate(-6.51)"/><ellipse class="cls-104" cx="901.67" cy="198.62" rx="19.26" ry="24.79" transform="translate(-16.71 103.52) rotate(-6.51)"/><ellipse class="cls-105" cx="901.67" cy="198.62" rx="19.07" ry="24.53" transform="translate(-16.71 103.53) rotate(-6.51)"/><ellipse class="cls-106" cx="901.67" cy="198.62" rx="18.87" ry="24.28" transform="translate(-16.71 103.53) rotate(-6.51)"/><ellipse class="cls-107" cx="901.67" cy="198.62" rx="18.67" ry="24.02" transform="translate(-16.71 103.52) rotate(-6.51)"/><ellipse class="cls-108" cx="901.67" cy="198.62" rx="18.47" ry="23.77" transform="translate(-16.71 103.52) rotate(-6.51)"/><ellipse class="cls-109" cx="901.67" cy="198.62" rx="18.27" ry="23.51" transform="translate(-16.71 103.52) rotate(-6.51)"/><ellipse class="cls-110" cx="901.67" cy="198.62" rx="18.07" ry="23.26" transform="translate(-16.71 103.53) rotate(-6.51)"/><ellipse class="cls-111" cx="901.67" cy="198.62" rx="17.87" ry="23" transform="translate(-16.71 103.53) rotate(-6.51)"/><ellipse class="cls-112" cx="901.67" cy="198.62" rx="17.68" ry="22.74" transform="translate(-16.71 103.52) rotate(-6.51)"/><ellipse class="cls-113" cx="901.67" cy="198.62" rx="17.48" ry="22.49" transform="translate(-16.71 103.52) rotate(-6.51)"/><ellipse class="cls-114" cx="901.67" cy="198.62" rx="17.28" ry="22.23" transform="translate(-16.71 103.52) rotate(-6.51)"/><ellipse class="cls-115" cx="901.67" cy="198.62" rx="17.08" ry="21.98" transform="translate(-16.71 103.53) rotate(-6.51)"/><ellipse class="cls-116" cx="901.67" cy="198.62" rx="16.88" ry="21.72" transform="translate(-16.71 103.53) rotate(-6.51)"/><ellipse class="cls-117" cx="901.67" cy="198.62" rx="16.68" ry="21.47" transform="translate(-16.71 103.52) rotate(-6.51)"/><ellipse class="cls-118" cx="901.67" cy="198.62" rx="16.48" ry="21.21" transform="translate(-16.71 103.52) rotate(-6.51)"/><ellipse class="cls-119" cx="901.67" cy="198.62" rx="16.29" ry="20.96" transform="translate(-16.71 103.53) rotate(-6.51)"/><ellipse class="cls-120" cx="901.67" cy="198.62" rx="16.09" ry="20.7" transform="translate(-16.71 103.52) rotate(-6.51)"/><ellipse class="cls-121" cx="901.67" cy="198.62" rx="15.89" ry="20.44" transform="translate(-16.71 103.52) rotate(-6.51)"/><ellipse class="cls-122" cx="901.67" cy="198.62" rx="15.69" ry="20.19" transform="translate(-16.71 103.52) rotate(-6.51)"/><path class="cls-123" d="M917.21,198.73c.44,11-6.15,19.84-14.73,19.77s-15.9-9-16.34-20,6.15-19.83,14.73-19.77S916.77,187.75,917.21,198.73Z"/></g><path class="cls-127" d="M1058.38,45.29a26.83,26.83,0,0,0-6.27-3.37l0,0c-2.61.52-5.05,1.13-8.07,1.67-11.73,2.12-23.83.86-35.12-2.1-13.81-3.62-26-11-38.4-17.54C947,11.63,916.68,2.37,891.46,18l-.69.44a76.82,76.82,0,0,0-3.35,15.93c8.93-4.23,19.18-6.58,28.81-5.3,28.84,3.82,52.28,22.48,80.48,28.21C1017.75,61.57,1039.16,54.45,1058.38,45.29Z"/><path class="cls-128" d="M956.2,119.84s-13.76,30.62,5.33,55.46l45.14-1.13S1008.78,162,1005,145C1002.86,135.46,956.2,119.84,956.2,119.84Z"/><path class="cls-129" d="M879.12,141.31c-3,8.21-3.52,25.79-3.52,25.79l39.82,7.16c15.8-18.19,6.72-56.49,6.72-56.49S882.06,133.11,879.12,141.31Z"/><path class="cls-130" d="M986.52,157.89c-18.81-2.33-24.85,17-24.85,17s1.34,1.65,21.17,1.7c20.57.05,21.86-2.4,21.86-2.4S1005.34,160.21,986.52,157.89Z"/><path class="cls-130" d="M876.81,167.1s3.16,4.05,13.23,5.55a183.19,183.19,0,0,0,25.38,1.61S898.06,137.1,876.81,167.1Z"/><path class="cls-131" d="M900.5,173.77a17.43,17.43,0,0,0,2.23-6,12.58,12.58,0,0,0-1.46-9,18.62,18.62,0,0,0-5.65-2.87c-4.57.36-9,5.49-10.11,11.79a15.45,15.45,0,0,0-.17,3.92,36.14,36.14,0,0,0,4.7,1C893.53,173.17,897.13,173.53,900.5,173.77Z"/><path class="cls-132" d="M987.61,176.56a18.41,18.41,0,0,0,2-6.1c.73-6.06-1.38-10.68-5.46-11.68h0c-.59,0-1.17-.07-1.74,0,0,0,0-.09-.07-.09-.55.05-1.09.11-1.62.11h0c-3.89,1-7.37,6-8.31,11.45a14.41,14.41,0,0,0,.2,6.2c2.7.13,6.06.19,10.25.2C984.57,176.63,986.15,176.59,987.61,176.56Z"/><path class="cls-133" d="M896.3,152.07c-14.94-1.26-21.37,11.09-19.49,15a19.14,19.14,0,0,1,17.27-7.54,26.74,26.74,0,0,1,21.47,14.7C917.23,168.73,915,153.65,896.3,152.07Z"/><path class="cls-134" d="M878.3,144.05c17.62-12.84,33.08-6,41.23-13.54,3.11-2.89,2.5-13.91,2.5-13.91C879.35,120.28,878.3,144.05,878.3,144.05Z"/><path class="cls-135" d="M890.64,221.53c-.54.31-4.44,42,36.85,43.42s41.74-42.7,39.59-43.42S892.18,220.66,890.64,221.53Z"/><path class="cls-136" d="M892.68,223.43c-.47.19-1.54,32.16,34.06,33.08s40.67-32.34,38.81-32.8S894,222.87,892.68,223.43Z"/><path class="cls-137" d="M957.54,117.23s-5.46,11-3,14.48c7.63,10.85,34,1.41,50.46,13.3C1005,145,1008.8,125.44,957.54,117.23Z"/><path class="cls-130" d="M894.91,223.15s.17,9.11,1.21,10c11.23,9.32,53.14,7.79,61.46,2.25,2.1-1.41,3.61-11.62,3.61-11.62Z"/><path class="cls-133" d="M985.06,155c-21.33-2.22-28.09,16.62-23.39,19.9,0,0,4.1-14.07,22.59-12.1s20.44,11.4,20.44,11.4C1007.57,169.92,1006.71,157.26,985.06,155Z"/><path class="cls-126" d="M990.6,232.41a.37.37,0,0,0,0,.08A.45.45,0,0,1,990.6,232.41Z"/><path class="cls-138" d="M898.11,166a4.66,4.66,0,0,1-4.35,4.3,3.64,3.64,0,0,1-3.7-4.1,4.65,4.65,0,0,1,4.35-4.3A3.64,3.64,0,0,1,898.11,166Z"/><path class="cls-139" d="M1050.41,184.45l-15.25-2.28c-1.7,18.79-6.17,24.23-12.25,33.77-12,18.92-36.51,15.92-36.51,15.92,11.77-33.24-60.46-23.21-60.46-23.21S865,196.87,878.8,228.36a12.68,12.68,0,0,1-10.29-8.7c-2.45-6.76-.72-22.29-.72-22.29l-.91.84C852.45,251,856,303.8,932.79,307.06c93.32,4,114.06-74.58,114.06-74.58C1033.08,207.67,1050.41,184.45,1050.41,184.45ZM926.54,274.64c-40.43,0-41.3-47.22-37-50.24,4-2.77,13.22,7.66,37.2,8.42s41.38-10.39,44.5-7.91C973.93,227,969.27,274.65,926.54,274.64Z"/><path class="cls-138" d="M984.73,169.34a4.88,4.88,0,0,1-4.55,4.49,3.81,3.81,0,0,1-3.87-4.28,4.88,4.88,0,0,1,4.55-4.5A3.83,3.83,0,0,1,984.73,169.34Z"/><path class="cls-140" d="M925.94,208.65a134.77,134.77,0,0,0-24.38-2.14c1.54,4.23,6.23,16.37,24.44,15.39,14.64-.8,21.35-9.6,23.9-14.66A180.94,180.94,0,0,0,925.94,208.65Z"/><path class="cls-141" d="M890.84,164.31c-1.86.71-3.22,2.4-3,3.76s1.84,1.89,3.69,1.18,3.22-2.4,3-3.77S892.69,163.59,890.84,164.31Z"/><path class="cls-141" d="M978.07,166.76c-2.12.62-3.72,2.29-3.59,3.74s1.95,2.11,4.06,1.5,3.73-2.29,3.59-3.73S980.18,166.15,978.07,166.76Z"/><path class="cls-46" d="M933.16,166.11c-.7,5.33-2,13.93-8.43,16.19-5.5,1.94-17.72-1.62-22.14,12.59-5.6,18.06,32.08,28.23,42.65,9.55,5.91-10.45,2-26.17-3.77-38.28Z"/><path class="cls-142" d="M917.7,201.87A75.48,75.48,0,0,1,902,199c.65,15.4,33.45,22.71,43.2,5.48a19.88,19.88,0,0,0,1.63-3.75C937.52,202.91,927,202.7,917.7,201.87Z"/><path class="cls-143" d="M937.32,170.1l-4.33,0s-1.51,10.06-5,12.72c-1.28,1-4,1.57-6.34,1.51-7.14-.15-13.06,1.47-13.27,4.55s5.41,5.79,12.53,6.31c6.68.5,11.58-1,14.28-3.57C938.87,188.17,940,176.12,937.32,170.1Z"/><path class="cls-144" d="M998.49,78.72a108.76,108.76,0,0,0,21.81-6.27q-.87-3.24-1.78-6.47a129.62,129.62,0,0,1-31.17,7.24A46.76,46.76,0,0,1,998.49,78.72Z"/><path class="cls-144" d="M933.34,276.92a45.12,45.12,0,0,1-15,0,4.83,4.83,0,0,0-5.65,5.36c.43,3.47,3.24,7,13,6.79,9.54-.19,12.51-3.45,13.11-6.65A4.78,4.78,0,0,0,933.34,276.92Z"/></g></g></svg>