<svg xmlns="http://www.w3.org/2000/svg" xmlns:xlink="http://www.w3.org/1999/xlink" viewBox="0 0 1359.83 617.41"><defs><style>.cls-1{fill:url(#Áåçûìÿííûé_ãðàäèåíò_18);}.cls-2{fill:url(#Áåçûìÿííûé_ãðàäèåíò_18-2);}.cls-21,.cls-3{fill:#3c4657;}.cls-4{fill:#343d49;}.cls-5{fill:#cec0c0;}.cls-6{fill:#e8dada;}.cls-7{fill:url(#Áåçûìÿííûé_ãðàäèåíò_35);}.cls-8{fill:url(#Áåçûìÿííûé_ãðàäèåíò_38);}.cls-9{fill:url(#Áåçûìÿííûé_ãðàäèåíò_35-2);}.cls-10{fill:url(#Áåçûìÿííûé_ãðàäèåíò_18-3);}.cls-11{fill:url(#Áåçûìÿííûé_ãðàäèåíò_39);}.cls-12{fill:#ff9e78;}.cls-13{fill:url(#Áåçûìÿííûé_ãðàäèåíò_14);}.cls-14{fill:url(#Áåçûìÿííûé_ãðàäèåíò_4);}.cls-15{opacity:0.25;fill:url(#Áåçûìÿííûé_ãðàäèåíò_18-4);}.cls-16{fill:url(#Áåçûìÿííûé_ãðàäèåíò_4-2);}.cls-17{fill:url(#Áåçûìÿííûé_ãðàäèåíò_34);}.cls-18{fill:url(#Áåçûìÿííûé_ãðàäèåíò_31);}.cls-19{fill:url(#Áåçûìÿííûé_ãðàäèåíò_13);}.cls-20{fill:#848b96;}.cls-126,.cls-142,.cls-20,.cls-37{opacity:0.11;}.cls-124,.cls-21{opacity:0.33;}.cls-22{fill:url(#Áåçûìÿííûé_ãðàäèåíò_33);}.cls-23{fill:url(#Áåçûìÿííûé_ãðàäèåíò_33-2);}.cls-24{fill:url(#Áåçûìÿííûé_ãðàäèåíò_33-3);}.cls-25{fill:url(#Áåçûìÿííûé_ãðàäèåíò_33-5);}.cls-26{fill:url(#Áåçûìÿííûé_ãðàäèåíò_14-2);}.cls-27{fill:url(#Áåçûìÿííûé_ãðàäèåíò_14-3);}.cls-28{fill:url(#Áåçûìÿííûé_ãðàäèåíò_4-3);}.cls-29{fill:url(#Áåçûìÿííûé_ãðàäèåíò_31-2);}.cls-30{fill:url(#Áåçûìÿííûé_ãðàäèåíò_25);}.cls-31{fill:#97b9df;}.cls-32{fill:#8cb0d1;}.cls-33{fill:#d65a49;}.cls-34{fill:#598270;}.cls-35{fill:#486d5b;}.cls-36{fill:url(#Áåçûìÿííûé_ãðàäèåíò_21);}.cls-37{fill:#4f3d35;}.cls-38{fill:url(#Áåçûìÿííûé_ãðàäèåíò_19);}.cls-39{fill:#f2e9e9;}.cls-40{fill:#ff6561;opacity:0.41;}.cls-41{fill:#59352c;}.cls-42{fill:#3e1208;}.cls-43{fill:url(#Áåçûìÿííûé_ãðàäèåíò_40);}.cls-44{fill:url(#Áåçûìÿííûé_ãðàäèåíò_57);}.cls-45{opacity:0.56;}.cls-46{fill:#ff9d77;}.cls-47{fill:#ff9c77;}.cls-48{fill:#ff9b76;}.cls-49{fill:#ff9a76;}.cls-50{fill:#ff9975;}.cls-51{fill:#ff9875;}.cls-52{fill:#ff9774;}.cls-53{fill:#ff9674;}.cls-54{fill:#ff9573;}.cls-55{fill:#ff9472;}.cls-56{fill:#ff9372;}.cls-57{fill:#ff9271;}.cls-58{fill:#ff9171;}.cls-59{fill:#ff9070;}.cls-60{fill:#ff8f70;}.cls-61{fill:#ff8e6f;}.cls-62{fill:#ff8d6f;}.cls-63{fill:#ff8c6e;}.cls-64{fill:#ff8b6e;}.cls-65{fill:#ff8a6d;}.cls-66{fill:#ff896c;}.cls-67{fill:#ff886c;}.cls-68{fill:#ff876b;}.cls-69{fill:#ff866b;}.cls-70{fill:#ff856a;}.cls-71{fill:#ff846a;}.cls-72{fill:#ff8369;}.cls-73{fill:#ff8269;}.cls-74{fill:#ff8168;}.cls-75{fill:#ff8067;}.cls-76{fill:#ff7f67;}.cls-77{fill:#ff7e66;}.cls-78{fill:#ff7d66;}.cls-79{fill:#ff7c65;}.cls-80{fill:#ff7b65;}.cls-81{fill:#ff7a64;}.cls-82{fill:#ff7964;}.cls-83{fill:#ff7863;}.cls-84{fill:#ff7762;}.cls-85{fill:#ff7661;}.cls-86{fill:#ff7561;}.cls-87{fill:#ff7460;}.cls-88{fill:#ff7360;}.cls-89{fill:#ff725f;}.cls-90{fill:#ff715f;}.cls-91{fill:#ff705e;}.cls-92{fill:#ff6f5e;}.cls-93{fill:#ff6e5d;}.cls-94{fill:#ff6d5c;}.cls-95{fill:#ff6c5c;}.cls-96{fill:#ff6b5b;}.cls-97{fill:#ff6a5b;}.cls-98{fill:#ff695a;}.cls-99{fill:#ff685a;}.cls-100{fill:#ff6759;}.cls-101{fill:#ff6659;}.cls-102{fill:#ff6558;}.cls-103{fill:#ff6457;}.cls-104{fill:#ff6357;}.cls-105{fill:#ff6256;}.cls-106{fill:#ff6156;}.cls-107{fill:#ff6055;}.cls-108{fill:#ff5f55;}.cls-109{fill:#ff5e54;}.cls-110{fill:#ff5d54;}.cls-111{fill:#ff5c53;}.cls-112{fill:#ff5b53;}.cls-113{fill:#ff5a52;}.cls-114{fill:#ff5951;}.cls-115{fill:#ff5851;}.cls-116{fill:#ff5750;}.cls-117{fill:#ff5650;}.cls-118{fill:#ff554f;}.cls-119{fill:#ff544f;}.cls-120{fill:#ff534e;}.cls-121{fill:#ff524e;}.cls-122{fill:#ff514d;}.cls-123{fill:url(#Áåçûìÿííûé_ãðàäèåíò_40-2);}.cls-124{fill:#cc6250;}.cls-125{fill:#7c302a;}.cls-126{fill:#ffbc80;}.cls-127{fill:url(#Áåçûìÿííûé_ãðàäèåíò_10);}.cls-128{fill:url(#Áåçûìÿííûé_ãðàäèåíò_10-2);}.cls-129,.cls-139,.cls-141{fill:#fff;}.cls-130{fill:url(#Áåçûìÿííûé_ãðàäèåíò_2);}.cls-131{fill:url(#Áåçûìÿííûé_ãðàäèåíò_2-2);}.cls-132{fill:#603f37;}.cls-133{fill:#fb755c;}.cls-134{fill:url(#Áåçûìÿííûé_ãðàäèåíò_3);}.cls-135{fill:#d1c1b8;opacity:0.42;}.cls-136{fill:url(#Áåçûìÿííûé_ãðàäèåíò_57-2);}.cls-137{fill:url(#Áåçûìÿííûé_ãðàäèåíò_24);}.cls-138{fill:#1e1d1d;}.cls-139{opacity:0.82;}.cls-140{fill:url(#Áåçûìÿííûé_ãðàäèåíò_4-4);}.cls-141{opacity:0.2;}.cls-143{fill:url(#Áåçûìÿííûé_ãðàäèåíò_57-3);}.cls-144{fill:url(#Áåçûìÿííûé_ãðàäèåíò_57-4);}.cls-145{opacity:0.06;}.cls-146{fill:#bc4637;opacity:0.22;}</style><linearGradient id="Áåçûìÿííûé_ãðàäèåíò_18" x1="1075.19" y1="300.66" x2="1075.19" y2="463.56" gradientUnits="userSpaceOnUse"><stop offset="0" stop-color="#deefff"/><stop offset="1" stop-color="#cadbef"/></linearGradient><linearGradient id="Áåçûìÿííûé_ãðàäèåíò_18-2" x1="620.52" y1="329.94" x2="630.83" y2="509.49" xlink:href="#Áåçûìÿííûé_ãðàäèåíò_18"/><linearGradient id="Áåçûìÿííûé_ãðàäèåíò_35" x1="1039.59" y1="613.93" x2="1062.03" y2="352.66" gradientUnits="userSpaceOnUse"><stop offset="0" stop-color="#825a46"/><stop offset="1" stop-color="#a5816d"/></linearGradient><linearGradient id="Áåçûìÿííûé_ãðàäèåíò_38" x1="447.58" y1="515.81" x2="431.02" y2="564.13" gradientUnits="userSpaceOnUse"><stop offset="0" stop-color="#c1c8d2"/><stop offset="1" stop-color="#868c97"/></linearGradient><linearGradient id="Áåçûìÿííûé_ãðàäèåíò_35-2" x1="1055.75" y1="522.96" x2="1151.11" y2="522.96" xlink:href="#Áåçûìÿííûé_ãðàäèåíò_35"/><linearGradient id="Áåçûìÿííûé_ãðàäèåíò_18-3" x1="864.91" y1="293.9" x2="864.91" y2="622.7" xlink:href="#Áåçûìÿííûé_ãðàäèåíò_18"/><linearGradient id="Áåçûìÿííûé_ãðàäèåíò_39" x1="868.55" y1="290.62" x2="899.43" y2="633.97" gradientUnits="userSpaceOnUse"><stop offset="0" stop-color="#bfd5e8"/><stop offset="1" stop-color="#cce1f2"/></linearGradient><linearGradient id="Áåçûìÿííûé_ãðàäèåíò_14" x1="558.78" y1="513.17" x2="560.22" y2="570.8" gradientUnits="userSpaceOnUse"><stop offset="0" stop-color="#ffb9a4"/><stop offset="1" stop-color="#ff9e78"/></linearGradient><linearGradient id="Áåçûìÿííûé_ãðàäèåíò_4" x1="555.42" y1="557.32" x2="553.56" y2="523.47" gradientUnits="userSpaceOnUse"><stop offset="0" stop-color="#f28c70"/><stop offset="1" stop-color="#ff9e78"/></linearGradient><linearGradient id="Áåçûìÿííûé_ãðàäèåíò_18-4" x1="613.46" y1="567.03" x2="613.69" y2="572.8" xlink:href="#Áåçûìÿííûé_ãðàäèåíò_18"/><linearGradient id="Áåçûìÿííûé_ãðàäèåíò_4-2" x1="623.67" y1="474.08" x2="545.65" y2="416.24" xlink:href="#Áåçûìÿííûé_ãðàäèåíò_4"/><linearGradient id="Áåçûìÿííûé_ãðàäèåíò_34" x1="334.53" y1="320" x2="202.03" y2="467.22" gradientUnits="userSpaceOnUse"><stop offset="0" stop-color="#d9d9e2"/><stop offset="1" stop-color="#929498"/></linearGradient><linearGradient id="Áåçûìÿííûé_ãðàäèåíò_31" x1="474.73" y1="193.72" x2="6.61" y2="603.75" gradientUnits="userSpaceOnUse"><stop offset="0" stop-color="#c1c8d2"/><stop offset="1" stop-color="#929498"/></linearGradient><linearGradient id="Áåçûìÿííûé_ãðàäèåíò_13" x1="841.42" y1="331.06" x2="880.06" y2="540.81" gradientUnits="userSpaceOnUse"><stop offset="0" stop-color="#b3cbe2"/><stop offset="1" stop-color="#cadbef"/></linearGradient><linearGradient id="Áåçûìÿííûé_ãðàäèåíò_33" x1="291.98" y1="473.1" x2="267.28" y2="592.65" gradientUnits="userSpaceOnUse"><stop offset="0" stop-color="#d6dfea"/><stop offset="1" stop-color="#929498"/></linearGradient><linearGradient id="Áåçûìÿííûé_ãðàäèåíò_33-2" x1="422.22" y1="355.16" x2="330.06" y2="695.76" xlink:href="#Áåçûìÿííûé_ãðàäèåíò_33"/><linearGradient id="Áåçûìÿííûé_ãðàäèåíò_33-3" x1="229.97" y1="419.1" x2="318.21" y2="421.87" gradientTransform="translate(619.47 26.92) rotate(74.46)" xlink:href="#Áåçûìÿííûé_ãðàäèåíò_33"/><linearGradient id="Áåçûìÿííûé_ãðàäèåíò_33-5" x1="272.68" y1="457.83" x2="293.3" y2="376.44" xlink:href="#Áåçûìÿííûé_ãðàäèåíò_33"/><linearGradient id="Áåçûìÿííûé_ãðàäèåíò_14-2" x1="1099.68" y1="433.26" x2="1144.54" y2="442.96" xlink:href="#Áåçûìÿííûé_ãðàäèåíò_14"/><linearGradient id="Áåçûìÿííûé_ãðàäèåíò_14-3" x1="1052.82" y1="513.69" x2="1053.92" y2="557.69" xlink:href="#Áåçûìÿííûé_ãðàäèåíò_14"/><linearGradient id="Áåçûìÿííûé_ãðàäèåíò_4-3" x1="1064.86" y1="555.58" x2="1071.69" y2="597.15" xlink:href="#Áåçûìÿííûé_ãðàäèåíò_4"/><linearGradient id="Áåçûìÿííûé_ãðàäèåíò_31-2" x1="670.75" y1="559.96" x2="670.75" y2="575.08" xlink:href="#Áåçûìÿííûé_ãðàäèåíò_31"/><linearGradient id="Áåçûìÿííûé_ãðàäèåíò_25" x1="995.58" y1="528.17" x2="1018.37" y2="528.17" gradientUnits="userSpaceOnUse"><stop offset="0" stop-color="#bc4c40"/><stop offset="1" stop-color="#d65a49"/></linearGradient><linearGradient id="Áåçûìÿííûé_ãðàäèåíò_21" x1="679.92" y1="565.74" x2="679.92" y2="581.74" gradientUnits="userSpaceOnUse"><stop offset="0" stop-color="#d1b3a3"/><stop offset="1" stop-color="#a5816d"/></linearGradient><linearGradient id="Áåçûìÿííûé_ãðàäèåíò_19" x1="19.99" y1="521.3" x2="317.5" y2="521.3" gradientUnits="userSpaceOnUse"><stop offset="0" stop-color="#fff"/><stop offset="1" stop-color="#868c97"/></linearGradient><linearGradient id="Áåçûìÿííûé_ãðàäèåíò_40" x1="813.06" y1="85.56" x2="811.84" y2="121.46" gradientUnits="userSpaceOnUse"><stop offset="0" stop-color="#cc6250"/><stop offset="1" stop-color="#ff9e78"/></linearGradient><linearGradient id="Áåçûìÿííûé_ãðàäèåíò_57" x1="2441.59" y1="-153.87" x2="2441.12" y2="-77.94" gradientTransform="matrix(1, -0.01, 0.04, 1, -1618.49, 184.51)" gradientUnits="userSpaceOnUse"><stop offset="0" stop-color="#75483b"/><stop offset="0.35" stop-color="#704538"/><stop offset="0.75" stop-color="#633c30"/><stop offset="1" stop-color="#563428"/></linearGradient><linearGradient id="Áåçûìÿííûé_ãðàäèåíò_40-2" x1="920.24" y1="168.9" x2="907.85" y2="203.32" gradientTransform="translate(898.62 -735.25) rotate(77.12)" xlink:href="#Áåçûìÿííûé_ãðàäèåíò_40"/><linearGradient id="Áåçûìÿííûé_ãðàäèåíò_10" x1="2396.12" y1="123.53" x2="2397.04" y2="175.34" gradientTransform="matrix(1, -0.01, 0.04, 1, -1582.97, 42.36)" gradientUnits="userSpaceOnUse"><stop offset="0" stop-color="#c6664f"/><stop offset="1" stop-color="#ff9e78"/></linearGradient><linearGradient id="Áåçûìÿííûé_ãðàäèåíò_10-2" x1="750.45" y1="141.59" x2="747.94" y2="193.43" gradientTransform="matrix(1, 0, 0, 1, 0, 0)" xlink:href="#Áåçûìÿííûé_ãðàäèåíò_10"/><linearGradient id="Áåçûìÿííûé_ãðàäèåíò_2" x1="741.65" y1="184.83" x2="748.86" y2="165.59" gradientUnits="userSpaceOnUse"><stop offset="0" stop-color="#704a3e"/><stop offset="1"/></linearGradient><linearGradient id="Áåçûìÿííûé_ãðàäèåíò_2-2" x1="826.91" y1="185.14" x2="834.66" y2="161.63" xlink:href="#Áåçûìÿííûé_ãðàäèåíò_2"/><linearGradient id="Áåçûìÿííûé_ãðàäèåíò_3" x1="796.11" y1="263.9" x2="796.11" y2="256.54" gradientUnits="userSpaceOnUse"><stop offset="0" stop-color="#7c302a"/><stop offset="0.21" stop-color="#772f29"/><stop offset="0.45" stop-color="#692b26"/><stop offset="0.7" stop-color="#532421"/><stop offset="0.96" stop-color="#331c1a"/><stop offset="1" stop-color="#2d1a19"/></linearGradient><linearGradient id="Áåçûìÿííûé_ãðàäèåíò_57-2" x1="807.44" y1="329.09" x2="808.33" y2="183.72" gradientTransform="matrix(1, 0, 0, 1, 0, 0)" xlink:href="#Áåçûìÿííûé_ãðàäèåíò_57"/><linearGradient id="Áåçûìÿííûé_ãðàäèåíò_24" x1="780.4" y1="217.55" x2="780.4" y2="230.48" gradientUnits="userSpaceOnUse"><stop offset="0" stop-color="#4c2e25"/><stop offset="0.39" stop-color="#513127"/><stop offset="0.83" stop-color="#5e3a2e"/><stop offset="1" stop-color="#663f32"/></linearGradient><linearGradient id="Áåçûìÿííûé_ãðàäèåíò_4-4" x1="2332.12" y1="186.28" x2="2331.77" y2="175.52" gradientTransform="matrix(0.98, -0.05, 0.12, 1.01, -1536.17, 145.56)" xlink:href="#Áåçûìÿííûé_ãðàäèåíò_4"/><linearGradient id="Áåçûìÿííûé_ãðàäèåíò_57-3" x1="761.07" y1="119.25" x2="761.2" y2="97.81" gradientTransform="matrix(0.98, 0.07, 0, 1.02, 3.21, -12.39)" xlink:href="#Áåçûìÿííûé_ãðàäèåíò_57"/><linearGradient id="Áåçûìÿííûé_ãðàäèåíò_57-4" x1="835.05" y1="184.61" x2="835.19" y2="162.67" gradientTransform="matrix(0.97, -0.04, 0.02, 1.03, 10, 13.95)" xlink:href="#Áåçûìÿííûé_ãðàäèåíò_57"/></defs><g id="Layer_2" data-name="Layer 2"><g id="Ñëîé_1" data-name="Ñëîé 1"><path class="cls-1" d="M897.74,211.54C893.25,213,916.9,368.93,937.29,376s159.64-50.07,162.23-50.07c0,0,3.45,4.67,6.56,5.19s13.88-4.94,13.88-4.94-4.57,18,.6,21.08,111.18-6.43,122-14.19,15.65-106.88,3.23-112.57S1134,201.91,1131.4,205s-8.23,3.56-8.23,3.56S950,195.17,897.74,211.54Z"/><path class="cls-2" d="M489.5,311.39s4.39-44.88,10.3-57.9c6.1-13.43,27.46-46.23,33.53-40.36.9.88,12.19,2.44,12.19,2.44s188.77-6.25,201.44,1.27-16.06,154.3-22,156.68S600.22,335,600.22,335l-1.53,35.3s-17.56,3.24-26.56.72c-3.08-.86-85-33.92-86.58-37.09S489.5,311.39,489.5,311.39Z"/><path class="cls-3" d="M19,532.27S11.19,544,11.19,552.21c0,11.86,7.43,22.46,7.43,22.46s255.47.42,256.33-1,3.21-34.54.2-37.61c-1.54-1.58-68.85-2.67-134.22-3.74C79.25,531.26,19,532.27,19,532.27Z"/><path class="cls-4" d="M275.15,536c-1.51-1.54-65.85-2.62-129.81-3.67v42.35c64.6-.08,129.18-.34,129.61-1.07C275.8,572.15,278.16,539.08,275.15,536Z"/><path class="cls-5" d="M25.56,539.06S20.73,546,21,552.73A35.71,35.71,0,0,0,24.3,565.6H231.49l1.18-25Z"/><path class="cls-6" d="M138.07,539.82l-112.51-.76S20.73,545.9,21,552.63A34.83,34.83,0,0,0,24.3,565.4H138A34.38,34.38,0,0,1,138.07,539.82Z"/><path class="cls-7" d="M1105.88,615.47l.23-8.86s12.75-174.16,10.81-174.55S1007,431.3,1007,431.3L973,615.47Z"/><path class="cls-8" d="M374.82,570.16s12.57-37.15,59-42.85,51.3,42.85,48.48,44.75S375.85,571.51,374.82,570.16Z"/><path class="cls-9" d="M1086.39,609.83c1.26-17.31,12.52-172.62,10.7-173s-109.9-.77-109.9-.77L955.12,609.83Z"/><path class="cls-10" d="M997.46,273.76c-38.68-43.75-115.8-51.39-160.09-51-33,.27-121.73,38.71-138,51-28.4,21.47,35.28,264.41,47.64,340h290.75S1036.13,317.52,997.46,273.76Z"/><path class="cls-11" d="M1245.3,287.21c-2.48,1.32-30.89-4-52-2.64s-64.42,33.51-64.42,33.51l48.9-45.07s0-5.62-7.6-7.6-51.54,52.67-51.54,52.67-11.23,1.18-12.22-1.47,25.44-66.3,25.44-66.3a17.62,17.62,0,0,0-9.25,0c-4.63,1.43-25.29,60-25.29,60s-81.27,27.91-83.72,26.27-13.11-52.42-13.11-52.42-8.6,2.05-10.24,3.27,18.84,258.83,15.16,262.34S756,545.06,750.15,542.14s-45.78-235.43-45.78-235.43-7.37-.41-9.42,0,4.5,50.37,4.5,50.37l-84.36-26.61s-5.5-35.1-7.92-49.78c-4.07-.35-8.13-.72-12.18-1.24,1,15.08,5.56,45.41,6.18,47.06C602,328.7,557.76,292,557.5,290c0,0-38.79,4.52-66.54,8.48-.93,7.55-1.46,12.91-1.46,12.91s-5.54,19.39-3.95,22.55,83.5,36.23,86.58,37.09c9,2.52,26.56-.72,26.56-.72l1.53-35.3s61.12,20.86,97.87,31.88c12.53,83.39,41,198.52,48.88,246.52h285.44c1.68-1,3.44-3.14,5.26-4.87-.29-27.37-2.4-162.29-16.12-253.83,39-13.74,76.64-28.86,78-28.86,0,0,3.45,4.7,6.56,5.22s13.88-4.92,13.88-4.92-4.57,18,.6,21.08,111.18-6.43,122-14.19c6.27-4.47,10.51-39.33,10.6-69.13C1250.2,274.59,1246.67,286.48,1245.3,287.21Z"/><path class="cls-12" d="M586.71,333.91c3.74,21,10.59,182.89,10.59,182.89s26.11,2.77,38.49,17.8,3.54,41.86-10.9,40.69S613.39,565,613.39,565l-32.72-3.54s-7.37,18-21.52,18-11.5-9.43-11.5-9.43-9.43,8.55-21.81,9.43-10.62-5-10.62-5-7.37,5.9-13.56,3.83-5-6.19-5-6.19-8.84,4.42-16.21.89,4.71-30.66,20-31.25c0,0,15.33-15,25.94-15.62,0,0-37.43-186.9-24.76-220.22S583,312.87,586.71,333.91Z"/><path class="cls-13" d="M635.79,534.6c-12.38-15-38.49-17.8-38.49-17.8s0-2.76,0-7.6c-18.07-3.07-37.34-3.94-47.08-.9-6.46,2-16,5.27-25.53,8.62,1.12,5.82,1.78,9.14,1.78,9.14-10.61.58-25.94,15.62-25.94,15.62-15.33.59-27.41,27.71-20,31.25a16.92,16.92,0,0,0,10.75.9,15.2,15.2,0,0,0,5.08-5.13s-.95,5.42,5.93,6.15,12.8-3.09,12.8-3.09a3.87,3.87,0,0,0-.48,3.16c.45-.32.7-.52.7-.52a3.18,3.18,0,0,0,0,1.59c1.1,1,3.39,1.88,7.92,1.88,12.29,0,22.8-8.6,23.37-8.79.16-.05.26.54.5,1.42l.61-.52a6.88,6.88,0,0,0-.2,1.79c.89,2.29,2.89,5.23,8.21,5.34,8.85.19,17.07-7.45,17.07-8.22s14.72-34.6,14.72-34.6,24.82,9.18,25.69,9.37.77,12.42.77,12.42a27.89,27.89,0,0,0-5.85,8.31l5.33.58s-2.95,9.14,11.5,10.32S648.17,549.64,635.79,534.6Z"/><path class="cls-14" d="M604.64,530.44c-7.76-2.33-20.16,0-20.16,0s-10.66,44-22.29,45-12.79-6-12.79-6S561.58,526,560,525.21a24.83,24.83,0,0,0-4.3-1.36s-8.19,43-13.43,46.71S521.87,577,519,573.08s13.56-43.41,12.79-43.41-4.27-.59-4.27-.59-9.88,39.74-14.34,42.65-13.76-.39-13.76-2.52c0-1.63,2-20.32,2.73-29.06-1,.94-1.64,1.53-1.64,1.53a14,14,0,0,0-2.65.37c-1.71,7-5.58,22.49-4.82,31.33a23.22,23.22,0,0,0,3.64-1.34s-1.18,4.13,5,6.19,13.56-3.83,13.56-3.83-1.77,5.9,10.62,5S547.65,570,547.65,570s-2.65,9.43,11.5,9.43,21.52-18,21.52-18L613.39,565l5-13.6S612.39,532.77,604.64,530.44Z"/><path class="cls-15" d="M613.91,570.07c-.31-2.74-.52-5.1-.52-5.1A7.24,7.24,0,0,0,613.91,570.07Z"/><path class="cls-16" d="M576.14,514.55c.58,0,14.19,1.06,21.16,1.61-.07-10.9-6.39-163.54-10-183.83C584,313.9,531.69,281.7,509,296.6c0,.85,0,1.38,0,1.38s39.88,1.38,52.26,12.93,22.56,181.27,18.16,186.77c-3.69,4.6-43.56,8.63-56.33,10.63,1.61,8.51,2.77,14.43,3.22,16.7,6.27-3.27,20.67-10.52,27.83-12C563.35,511.06,575.37,514.55,576.14,514.55Z"/><polygon class="cls-17" points="606.07 475.16 583.5 487.92 127.73 475.16 62.75 165.11 85.32 152.35 563.66 152.35 606.07 475.16"/><polygon class="cls-18" points="583.5 487.92 105.16 487.92 62.75 165.11 541.09 165.11 583.5 487.92"/><path class="cls-19" d="M893.56,268.21c-.88-23.35-6-46.38-6-46.6l-5,.57c0,.23,2.6,22.64,3.47,45.8,1.55,41.15-3.41,48.84-5.62,50.24-10.08,6.4-38.77-4-49.81-9-.44-3-.69-4.87-.73-5.51a2.8,2.8,0,0,1,0,.38l-5-.7c0,.34.32,3,1,7.38-4.75,4.64-22.06,20.44-35.17,17.18-12.38-3.08-17.31-37.11-18.17-50l-5,.33c.34,5.1,1.28,51.31,19.4,55.82a44.14,44.14,0,0,0,7.14,1.39c12.54,0,26.2-12.79,32.71-18.74,4.77,30.84,17.1,104.84,18.81,115.13,21.13,126.69,23.23,142.08,23.65,142.75l4.66,1.17c.13.2,2.14,0,2.14,0-1.66-4.95-36.94-211.58-44.55-260.79,10.52,4.41,41.19,19.13,53.55,11.29C889.22,323.72,895.2,311.67,893.56,268.21Z"/><polygon class="cls-20" points="398.3 487.74 377.25 325.4 272.77 325.4 265.69 487.74 398.3 487.74"/><path class="cls-21" d="M363.81,422.07l-75.75.54a3,3,0,0,0-2.93,3.44l1.41,9.05a3,3,0,0,0,3,2.52l75.75-.54a3,3,0,0,0,2.92-3.44l-1.41-9.05A3,3,0,0,0,363.81,422.07Z"/><path class="cls-22" d="M333.85,571.92H233.93a20.24,20.24,0,0,1-15.53-7,19.59,19.59,0,0,1-4.1-17.3l52.84-219.21a10,10,0,0,1,9.7-7.63l95.68.13-56,229c-.47,5.72,10.81,12.26,10.81,12.26Z"/><path class="cls-23" d="M422.42,572.09H333.85a20.24,20.24,0,0,1-15.52-7,19.6,19.6,0,0,1-4.11-17.3L367.84,324.7a4.87,4.87,0,0,1,5.87-3.6h0a4.86,4.86,0,0,1,3.6,5.87L323.7,550.08a9.92,9.92,0,0,0,2.55,9.27,10.33,10.33,0,0,0,7.42,3h88.75a4.87,4.87,0,0,1,4.87,4.87h0A4.87,4.87,0,0,1,422.42,572.09Z"/><ellipse class="cls-24" cx="292.02" cy="421.05" rx="49.3" ry="25.7" transform="translate(-191.86 589.62) rotate(-74.46)"/><ellipse class="cls-24" cx="292.02" cy="421.05" rx="49.3" ry="25.7" transform="translate(-191.86 589.62) rotate(-74.46)"/><path class="cls-25" d="M274.43,420.86c4.76-23.73,18.17-43.35,31.37-47.13a13.58,13.58,0,0,0-4.16-.67c-14.55-.11-31.12,21.07-36.43,47.58s2.63,48.3,17.19,48.41a16.16,16.16,0,0,0,4.62-.68C275.24,464.56,269.65,444.71,274.43,420.86Z"/><path class="cls-12" d="M1124.18,333.64c-.09-7,39-33,71.93-39.43,11.17-2.19,49.65-3.85,49.19,1.7-4.94,59.91-90.74,254.23-112.44,268.7s-41.89,8.78-41.89,8.78a22.81,22.81,0,0,1-22.9,10.91c-16-2-5.45-17.45-5.45-17.45s-14,13.4-29.29,15-15.42-3.12-15.42-3.12-10.44,6.7-18.07,3.27-5.61-8.25-5.61-8.25-10.75,7.47-18.08,1.87-2.33-11.53-2.33-11.53-14.18,1.71-15.43-4.83,15.9-16.52,16.36-17.3,29.29-17.6,54.84-19.47,41.91,2.65,48.92-6.08S1125.12,406.61,1124.18,333.64Z"/><path class="cls-26" d="M1124.18,333.64c-.09-7,39-33,71.93-39.43,11.17-2.19,49.65-3.85,49.19,1.7-4.94,59.91-90.74,254.23-112.44,268.7s-41.89,8.78-41.89,8.78a22.81,22.81,0,0,1-22.9,10.91c-16-2-5.45-17.45-5.45-17.45s-14,13.4-29.29,15-15.42-3.12-15.42-3.12-10.44,6.7-18.07,3.27-5.61-8.25-5.61-8.25-10.75,7.47-18.08,1.87-2.33-11.53-2.33-11.53-14.18,1.71-15.43-4.83,15.9-16.52,16.36-17.3,29.29-17.6,54.84-19.47,41.91,2.65,48.92-6.08S1125.12,406.61,1124.18,333.64Z"/><path class="cls-27" d="M1118.23,533.19c-12.44-3.35-25-6-37.63-8.67-4.94-1-9.9-2-14.87-2.79-8.69.78-20.74-.41-36.14.72-25.55,1.87-54.37,18.7-54.84,19.47s-17.6,10.75-16.36,17.3,15.43,4.83,15.43,4.83-5,5.92,2.33,11.53,18.08-1.87,18.08-1.87-2,4.83,5.61,8.25,18.07-3.27,18.07-3.27.15,4.67,15.42,3.12,29.29-15,29.29-15-10.59,15.42,5.45,17.45a22.81,22.81,0,0,0,22.9-10.91s20.19,5.68,41.89-8.78c3.76-2.51,9.44-10.42,16.3-22.09C1138.93,539.14,1128.64,536,1118.23,533.19Z"/><path class="cls-28" d="M1149.36,523.77c-8.1,15.37-18.14,33.36-22.54,36.94-8,6.48-22.84,5-27.71,5.89s-11.64,7.81-18.42,11.79-14.59,4-17.25-3.09,13.12-19.75,13.12-19.75-.74-3.69-3.54-3.39-24,18.27-32.72,23.73-16.8,3-17.53-.3,27-30.06,27-30.65-.74-2.07-3.1-1.92-21.37,27.56-28.59,32.13-18.28,3.69-19.45-4.13,31.09-32,31.09-32l-2.5-3.09c-11.65-1-32.43,32.72-33.46,34.48s-15.53,6.35-18.27-.73c-2.27-5.86,14.65-30.07,20.64-38.51-1.83.75-3.6,1.51-5.26,2.26-5.42,7.68-15.38,24.27-19.24,30.76,1.34-.06,2.22-.16,2.22-.16s-5,5.92,2.33,11.53,18.08-1.87,18.08-1.87-2,4.83,5.61,8.25,18.07-3.27,18.07-3.27.15,4.67,15.42,3.12,29.29-15,29.29-15-10.59,15.42,5.45,17.45a22.81,22.81,0,0,0,22.9-10.91s20.19,5.68,41.89-8.78c4.68-3.12,12.6-17.59,22.13-38.35Z"/><path class="cls-29" d="M858.56,559,485.1,553.78a5.2,5.2,0,0,0-5.18,4.22l-1.77,9.23a5.21,5.21,0,0,0,5.1,6.18l375.23.54a5,5,0,0,0,5-5v-5A5,5,0,0,0,858.56,559Z"/><path class="cls-30" d="M990.18,565.79c-2,0-3.25-.11-3.45-.13l1.54-16.93c3.88.33,15.46-.15,22-6.14,3.68-3.38,5.47-8.23,5.47-14.8s-1.76-11.28-5.38-14.53c-6.44-5.79-18-6-21.89-5.56l-1.91-16.89c2.19-.25,21.79-2.12,35.07,9.72,5.07,4.52,11.11,12.91,11.11,27.26,0,11.48-3.72,20.71-11.06,27.4C1011.33,564.62,996.77,565.79,990.18,565.79Z"/><path class="cls-31" d="M1054.06,536.62a33.78,33.78,0,0,0,.19-6.36c0-.15,4.89,0,4.89,0-.25-4.3-.79-10.25-.7-14.56,0-.12-4.39,0-4.38-.07.09-3.41-.21-6.05.5-6.45,2.41-1.34,229.62.78,231.23,2.36s2.27,27.83,2.27,27.83Z"/><path class="cls-32" d="M1164.1,537.92l124,1.46s-.66-26.24-2.27-27.83c-.84-.82-62.73-1.79-122.27-2.34C1169.68,517.41,1169,528.86,1164.1,537.92Z"/><path class="cls-33" d="M995,574c2-15.39,2.83-98.13,2.37-98.13H906.45s-.13,88.12,3,98.13Z"/><path class="cls-34" d="M1046.91,535.36l-.14,7.09,6.11.21-.46,23-6.15.1-.18,8.87s260,.43,260.83-1,3-32.48,0-35.55S1046.91,535.36,1046.91,535.36Z"/><path class="cls-35" d="M1306.9,538.07c-1.56-1.6-71.8-2.26-138.88-2.54v.55a4.27,4.27,0,0,1,.37.81c4.09,12.25,4.56,24.81-.37,36.57v1.24c67.7-.06,138.45-.32,138.9-1.08C1307.77,572.15,1309.91,541.14,1306.9,538.07Z"/><path class="cls-36" d="M5.72,571.43H1353a6.8,6.8,0,0,1,6.8,6.8v32.38a6.8,6.8,0,0,1-6.8,6.8H5.72A5.72,5.72,0,0,1,0,611.69V577.15a5.72,5.72,0,0,1,5.72-5.72Z"/><path class="cls-37" d="M1353,571.43H1138v46h215a6.8,6.8,0,0,0,6.79-6.8V578.23A6.8,6.8,0,0,0,1353,571.43Z"/><path class="cls-38" d="M249.56,517.5c-13.29,35-27.57,72.59-48.69,99.9h8.63c.93-1.16,2-2.67,3-4.22,18.6-27.42,31.85-62.36,43.56-93.19,17.89-47.11,32.48-88,59.48-88l1.92-6.78C285.5,425.2,268.37,468,249.56,517.5Z"/><path class="cls-39" d="M1160.72,542.88c-1.25-1.45-112.46-.39-112.46-.39h0c5.4,5.91,3.12,16-.6,23.3,10.72,0,112.75.56,113.06,0C1162.74,562.22,1162.74,545.21,1160.72,542.88Z"/><path class="cls-39" d="M1054.66,515.68s100.57-.89,102.64,1,.34,12.55,0,13.58-102.24,0-102.24,0,2.56-2.54,2.56-7.76S1054.66,515.68,1054.66,515.68Z"/><path class="cls-40" d="M939.9,497.45c.24-5.22-5-9.54-9.91-9.41-5.58.14-9.13,4.67-9.42,9.91a281.22,281.22,0,0,0-.15,33.23c.8,12.31,19.41,11.94,19.24-.5C939.5,519.59,939.37,508.54,939.9,497.45Z"/><path class="cls-40" d="M941.62,552.28c-.3-2.5-1-5-3-6.78A9.91,9.91,0,0,0,933,543a9.24,9.24,0,0,0-6.15,1.31c-1.94,1.31-4,3.47-4.31,5.9-.19,1.63-.37,3.22-.4,4.85a21.1,21.1,0,0,0,.6,4.8l1,2.27a7.34,7.34,0,0,0,2.55,2.64,9.22,9.22,0,0,0,5.89,1.92,11.39,11.39,0,0,0,4.83-1.44,9.73,9.73,0,0,0,4.28-5.87A23,23,0,0,0,941.62,552.28Z"/><path class="cls-41" d="M723.14,156.53s7.56-67.27,22.4-83.79c0,0-7.32-20.4-10.53-17C719.91,71.84,716.85,123.83,723.14,156.53Z"/><path class="cls-42" d="M759.71,37.15s0-.17-.08-.45Z"/><path class="cls-43" d="M872.94,79.81c-7.57-34.62-106.79-48.73-133.13-.33-11.56,25-16.22,63.26-19,104.41h0S706.1,301.65,803.76,300.6c86.62-.94,99.79-49.42,92.15-113.13h0C894.05,151.59,881.73,106.36,872.94,79.81Z"/><path class="cls-44" d="M913.92,48.28c-2.47-5.82-13.14-12.37-22.74-15.43a6.15,6.15,0,0,0,2.62-7.12,9.35,9.35,0,0,0-8,2.9C891.2,22.14,887,13.22,887,13.22c-13.4,6.26-10.21,13.16-10.21,13.16C870.7,15.05,853.6,11.89,853.6,11.89c.19,1.62-.81,6.67-.16,8.25C824.61,2.44,754.72,0,754.72,0a13.22,13.22,0,0,0-1.15,8.83c-22.75-.26-27.44,2-27.44,2C722.66,38,724,51.53,731.74,62.2a56.42,56.42,0,0,0,11.34,12.09S756.84,89.9,782.2,90.38c23,.43,44.08-17.56,54.9-16.22,13.12,1.64,19,29,22.27,40.33,1.82,6.3,26.65,41.54,25.56,59.06-.65,10.47,23.51,2,23.51,2s2.37-11.42,5.17-27.53C920.8,106.67,922.69,68.93,913.92,48.28Z"/><g class="cls-45"><ellipse class="cls-12" cx="829.04" cy="204.98" rx="40.52" ry="37.05" transform="translate(546.5 1010.89) rotate(-84.57)"/><ellipse class="cls-46" cx="829.05" cy="205.01" rx="40.26" ry="36.81" transform="matrix(0.09, -1, 1, 0.09, 546.48, 1010.93)"/><ellipse class="cls-47" cx="829.06" cy="205.05" rx="40" ry="36.57" transform="translate(546.44 1010.97) rotate(-84.57)"/><ellipse class="cls-48" cx="829.06" cy="205.09" rx="39.74" ry="36.33" transform="matrix(0.09, -1, 1, 0.09, 546.41, 1011.01)"/><ellipse class="cls-49" cx="829.07" cy="205.12" rx="39.48" ry="36.1" transform="translate(546.4 1011.06) rotate(-84.57)"/><ellipse class="cls-50" cx="829.08" cy="205.16" rx="39.22" ry="35.86" transform="translate(546.36 1011.1) rotate(-84.57)"/><ellipse class="cls-51" cx="829.09" cy="205.2" rx="38.96" ry="35.62" transform="translate(546.33 1011.14) rotate(-84.57)"/><ellipse class="cls-52" cx="829.1" cy="205.23" rx="38.7" ry="35.38" transform="translate(546.32 1011.19) rotate(-84.57)"/><ellipse class="cls-53" cx="829.11" cy="205.27" rx="38.44" ry="35.15" transform="translate(546.27 1011.23) rotate(-84.57)"/><ellipse class="cls-54" cx="829.12" cy="205.31" rx="38.18" ry="34.91" transform="translate(546.25 1011.27) rotate(-84.57)"/><ellipse class="cls-55" cx="829.13" cy="205.34" rx="37.92" ry="34.67" transform="translate(546.21 1011.31) rotate(-84.57)"/><ellipse class="cls-56" cx="829.14" cy="205.38" rx="37.66" ry="34.43" transform="translate(546.19 1011.35) rotate(-84.57)"/><ellipse class="cls-57" cx="829.14" cy="205.42" rx="37.4" ry="34.2" transform="translate(546.17 1011.4) rotate(-84.57)"/><ellipse class="cls-58" cx="829.15" cy="205.45" rx="37.14" ry="33.96" transform="translate(546.13 1011.43) rotate(-84.57)"/><ellipse class="cls-59" cx="829.16" cy="205.49" rx="36.88" ry="33.72" transform="translate(546.12 1011.48) rotate(-84.57)"/><ellipse class="cls-60" cx="829.17" cy="205.53" rx="36.62" ry="33.48" transform="translate(546.07 1011.52) rotate(-84.57)"/><ellipse class="cls-61" cx="829.18" cy="205.56" rx="36.36" ry="33.25" transform="translate(546.05 1011.56) rotate(-84.57)"/><ellipse class="cls-62" cx="829.19" cy="205.6" rx="36.1" ry="33.01" transform="translate(546.02 1011.61) rotate(-84.57)"/><ellipse class="cls-63" cx="829.2" cy="205.64" rx="35.84" ry="32.77" transform="translate(546 1011.65) rotate(-84.57)"/><ellipse class="cls-64" cx="829.21" cy="205.67" rx="35.58" ry="32.53" transform="translate(545.96 1011.69) rotate(-84.57)"/><ellipse class="cls-65" cx="829.22" cy="205.71" rx="35.32" ry="32.3" transform="translate(545.93 1011.73) rotate(-84.57)"/><ellipse class="cls-66" cx="829.22" cy="205.75" rx="35.06" ry="32.06" transform="translate(545.91 1011.78) rotate(-84.57)"/><ellipse class="cls-67" cx="829.23" cy="205.78" rx="34.8" ry="31.82" transform="translate(545.88 1011.82) rotate(-84.57)"/><ellipse class="cls-68" cx="829.24" cy="205.82" rx="34.54" ry="31.58" transform="translate(545.85 1011.86) rotate(-84.57)"/><ellipse class="cls-69" cx="829.25" cy="205.86" rx="34.28" ry="31.35" transform="translate(545.82 1011.9) rotate(-84.57)"/><ellipse class="cls-70" cx="829.26" cy="205.89" rx="34.02" ry="31.11" transform="translate(545.79 1011.94) rotate(-84.57)"/><ellipse class="cls-71" cx="829.27" cy="205.93" rx="33.76" ry="30.87" transform="translate(545.76 1011.98) rotate(-84.57)"/><ellipse class="cls-72" cx="829.28" cy="205.97" rx="33.5" ry="30.63" transform="translate(545.74 1012.03) rotate(-84.57)"/><ellipse class="cls-73" cx="829.29" cy="206" rx="33.24" ry="30.4" transform="translate(545.71 1012.07) rotate(-84.57)"/><ellipse class="cls-74" cx="829.3" cy="206.04" rx="32.98" ry="30.16" transform="translate(545.68 1012.11) rotate(-84.57)"/><ellipse class="cls-75" cx="829.31" cy="206.08" rx="32.73" ry="29.92" transform="translate(545.66 1012.15) rotate(-84.57)"/><ellipse class="cls-76" cx="829.31" cy="206.12" rx="32.47" ry="29.68" transform="translate(545.62 1012.19) rotate(-84.57)"/><ellipse class="cls-77" cx="829.32" cy="206.15" rx="32.21" ry="29.45" transform="translate(545.6 1012.24) rotate(-84.57)"/><ellipse class="cls-78" cx="829.33" cy="206.19" rx="31.95" ry="29.21" transform="translate(545.55 1012.27) rotate(-84.57)"/><ellipse class="cls-79" cx="829.34" cy="206.23" rx="31.69" ry="28.97" transform="translate(545.54 1012.32) rotate(-84.57)"/><ellipse class="cls-80" cx="829.35" cy="206.26" rx="31.43" ry="28.73" transform="translate(545.52 1012.37) rotate(-84.57)"/><ellipse class="cls-81" cx="829.36" cy="206.3" rx="31.17" ry="28.5" transform="matrix(0.09, -1, 1, 0.09, 545.48, 1012.41)"/><ellipse class="cls-82" cx="829.37" cy="206.34" rx="30.91" ry="28.26" transform="translate(545.45 1012.45) rotate(-84.57)"/><ellipse class="cls-83" cx="829.38" cy="206.37" rx="30.65" ry="28.02" transform="translate(545.42 1012.49) rotate(-84.57)"/><ellipse class="cls-84" cx="829.39" cy="206.41" rx="30.39" ry="27.78" transform="translate(545.4 1012.53) rotate(-84.57)"/><ellipse class="cls-84" cx="829.39" cy="206.45" rx="30.13" ry="27.55" transform="translate(545.37 1012.58) rotate(-84.57)"/><ellipse class="cls-85" cx="829.4" cy="206.48" rx="29.87" ry="27.31" transform="translate(545.33 1012.61) rotate(-84.57)"/><ellipse class="cls-86" cx="829.41" cy="206.52" rx="29.61" ry="27.07" transform="translate(545.32 1012.66) rotate(-84.57)"/><ellipse class="cls-87" cx="829.42" cy="206.56" rx="29.35" ry="26.83" transform="translate(545.28 1012.7) rotate(-84.57)"/><ellipse class="cls-88" cx="829.43" cy="206.59" rx="29.09" ry="26.6" transform="translate(545.24 1012.74) rotate(-84.57)"/><ellipse class="cls-89" cx="829.44" cy="206.63" rx="28.83" ry="26.36" transform="translate(545.23 1012.79) rotate(-84.57)"/><ellipse class="cls-90" cx="829.45" cy="206.67" rx="28.57" ry="26.12" transform="translate(545.19 1012.82) rotate(-84.57)"/><ellipse class="cls-91" cx="829.46" cy="206.7" rx="28.31" ry="25.88" transform="translate(545.17 1012.87) rotate(-84.57)"/><ellipse class="cls-92" cx="829.47" cy="206.74" rx="28.05" ry="25.65" transform="translate(545.13 1012.91) rotate(-84.57)"/><ellipse class="cls-93" cx="829.47" cy="206.78" rx="27.79" ry="25.41" transform="translate(545.12 1012.96) rotate(-84.57)"/><ellipse class="cls-94" cx="829.48" cy="206.81" rx="27.53" ry="25.17" transform="translate(545.09 1013) rotate(-84.57)"/><ellipse class="cls-95" cx="829.49" cy="206.85" rx="27.27" ry="24.93" transform="translate(545.05 1013.04) rotate(-84.57)"/><ellipse class="cls-96" cx="829.5" cy="206.89" rx="27.01" ry="24.7" transform="translate(545.02 1013.08) rotate(-84.57)"/><path class="cls-97" d="M854,206c.25,14.76-10.49,27.15-24,27.68s-24.69-11-25-25.76,10.49-27.14,24-27.67S853.73,191.21,854,206Z"/><ellipse class="cls-98" cx="829.52" cy="206.96" rx="26.49" ry="24.22" transform="translate(544.97 1013.16) rotate(-84.57)"/><ellipse class="cls-99" cx="829.53" cy="207" rx="26.23" ry="23.99" transform="translate(544.94 1013.2) rotate(-84.57)"/><ellipse class="cls-100" cx="829.54" cy="207.03" rx="25.97" ry="23.75" transform="translate(544.9 1013.24) rotate(-84.57)"/><ellipse class="cls-101" cx="829.55" cy="207.07" rx="25.71" ry="23.51" transform="translate(544.88 1013.29) rotate(-84.57)"/><ellipse class="cls-102" cx="829.55" cy="207.11" rx="25.45" ry="23.27" transform="translate(544.86 1013.33) rotate(-84.57)"/><ellipse class="cls-103" cx="829.56" cy="207.14" rx="25.19" ry="23.04" transform="translate(544.81 1013.37) rotate(-84.57)"/><ellipse class="cls-104" cx="829.57" cy="207.18" rx="24.93" ry="22.8" transform="matrix(0.09, -1, 1, 0.09, 544.81, 1013.42)"/><ellipse class="cls-105" cx="829.58" cy="207.22" rx="24.67" ry="22.56" transform="translate(544.76 1013.46) rotate(-84.57)"/><ellipse class="cls-106" cx="829.59" cy="207.25" rx="24.41" ry="22.32" transform="translate(544.74 1013.5) rotate(-84.57)"/><ellipse class="cls-107" cx="829.6" cy="207.29" rx="24.15" ry="22.09" transform="translate(544.71 1013.54) rotate(-84.57)"/><ellipse class="cls-108" cx="829.61" cy="207.33" rx="23.89" ry="21.85" transform="translate(544.69 1013.59) rotate(-84.57)"/><ellipse class="cls-109" cx="829.62" cy="207.36" rx="23.63" ry="21.61" transform="translate(544.66 1013.63) rotate(-84.57)"/><ellipse class="cls-110" cx="829.63" cy="207.4" rx="23.38" ry="21.37" transform="translate(544.61 1013.66) rotate(-84.57)"/><ellipse class="cls-111" cx="829.63" cy="207.44" rx="23.12" ry="21.14" transform="translate(544.6 1013.71) rotate(-84.57)"/><ellipse class="cls-112" cx="829.64" cy="207.47" rx="22.86" ry="20.9" transform="translate(544.58 1013.76) rotate(-84.57)"/><ellipse class="cls-113" cx="829.65" cy="207.51" rx="22.6" ry="20.66" transform="translate(544.53 1013.79) rotate(-84.57)"/><ellipse class="cls-114" cx="829.66" cy="207.55" rx="22.34" ry="20.42" transform="translate(544.5 1013.83) rotate(-84.57)"/><ellipse class="cls-115" cx="829.67" cy="207.58" rx="22.08" ry="20.19" transform="translate(544.49 1013.88) rotate(-84.57)"/><ellipse class="cls-116" cx="829.68" cy="207.62" rx="21.82" ry="19.95" transform="translate(544.45 1013.92) rotate(-84.57)"/><ellipse class="cls-117" cx="829.69" cy="207.66" rx="21.56" ry="19.71" transform="translate(544.43 1013.97) rotate(-84.57)"/><ellipse class="cls-118" cx="829.7" cy="207.69" rx="21.3" ry="19.47" transform="translate(544.4 1014) rotate(-84.57)"/><ellipse class="cls-119" cx="829.71" cy="207.73" rx="21.04" ry="19.24" transform="translate(544.38 1014.05) rotate(-84.57)"/><ellipse class="cls-120" cx="829.71" cy="207.77" rx="20.78" ry="19" transform="translate(544.34 1014.09) rotate(-84.57)"/><ellipse class="cls-121" cx="829.72" cy="207.8" rx="20.52" ry="18.76" transform="translate(544.29 1014.12) rotate(-84.57)"/><ellipse class="cls-122" cx="829.73" cy="207.84" rx="20.26" ry="18.52" transform="translate(544.3 1014.18) rotate(-84.57)"/></g><ellipse class="cls-123" cx="910.48" cy="196.02" rx="27.72" ry="19.3" transform="translate(516.44 1039.9) rotate(-77.12)"/><path class="cls-124" d="M920.5,203.85c-9.33,6.37-22,4.58-29.75-1.3.59,9.73,5.15,17.79,12.35,20.15,10.14,3.34,21.67-5.9,25.75-20.64a38.63,38.63,0,0,0,1.42-11.3A24.49,24.49,0,0,1,920.5,203.85Z"/><path class="cls-124" d="M902.83,196.25l9.18,1.1C911.16,183,921.56,178,921.56,178,903.92,172.17,902.83,196.25,902.83,196.25Z"/><path class="cls-125" d="M842.72,224.55l0,.08A.33.33,0,0,0,842.72,224.55Z"/><g class="cls-45"><ellipse class="cls-12" cx="751.9" cy="203.83" rx="30.88" ry="39.99" transform="translate(-26.54 173.34) rotate(-12.92)"/><ellipse class="cls-46" cx="751.9" cy="203.83" rx="30.69" ry="39.74" transform="translate(-26.54 173.34) rotate(-12.92)"/><ellipse class="cls-47" cx="751.9" cy="203.83" rx="30.49" ry="39.48" transform="translate(-26.54 173.34) rotate(-12.92)"/><ellipse class="cls-48" cx="751.9" cy="203.83" rx="30.29" ry="39.22" transform="translate(-26.54 173.34) rotate(-12.92)"/><ellipse class="cls-49" cx="751.9" cy="203.83" rx="30.09" ry="38.97" transform="translate(-26.54 173.34) rotate(-12.92)"/><ellipse class="cls-50" cx="751.9" cy="203.83" rx="29.89" ry="38.71" transform="translate(-26.54 173.34) rotate(-12.92)"/><ellipse class="cls-51" cx="751.9" cy="203.83" rx="29.7" ry="38.45" transform="translate(-26.54 173.34) rotate(-12.92)"/><ellipse class="cls-52" cx="751.9" cy="203.83" rx="29.5" ry="38.2" transform="translate(-26.54 173.34) rotate(-12.92)"/><ellipse class="cls-53" cx="751.9" cy="203.83" rx="29.3" ry="37.94" transform="translate(-26.54 173.34) rotate(-12.92)"/><ellipse class="cls-54" cx="751.9" cy="203.83" rx="29.1" ry="37.69" transform="translate(-26.54 173.33) rotate(-12.92)"/><ellipse class="cls-55" cx="751.9" cy="203.83" rx="28.9" ry="37.43" transform="translate(-26.54 173.33) rotate(-12.92)"/><ellipse class="cls-56" cx="751.9" cy="203.83" rx="28.71" ry="37.17" transform="translate(-26.54 173.34) rotate(-12.92)"/><ellipse class="cls-57" cx="751.9" cy="203.83" rx="28.51" ry="36.92" transform="translate(-26.54 173.34) rotate(-12.92)"/><ellipse class="cls-58" cx="751.9" cy="203.83" rx="28.31" ry="36.66" transform="translate(-26.54 173.34) rotate(-12.92)"/><ellipse class="cls-59" cx="751.9" cy="203.83" rx="28.11" ry="36.4" transform="translate(-26.54 173.34) rotate(-12.92)"/><ellipse class="cls-60" cx="751.9" cy="203.83" rx="27.91" ry="36.15" transform="translate(-26.54 173.34) rotate(-12.92)"/><ellipse class="cls-61" cx="751.9" cy="203.83" rx="27.72" ry="35.89" transform="translate(-26.54 173.33) rotate(-12.92)"/><ellipse class="cls-62" cx="751.9" cy="203.83" rx="27.52" ry="35.63" transform="translate(-26.54 173.34) rotate(-12.92)"/><ellipse class="cls-63" cx="751.9" cy="203.83" rx="27.32" ry="35.38" transform="translate(-26.54 173.34) rotate(-12.92)"/><ellipse class="cls-64" cx="751.9" cy="203.83" rx="27.12" ry="35.12" transform="translate(-26.54 173.33) rotate(-12.92)"/><ellipse class="cls-65" cx="751.9" cy="203.83" rx="26.93" ry="34.87" transform="translate(-26.54 173.33) rotate(-12.92)"/><ellipse class="cls-66" cx="751.9" cy="203.83" rx="26.73" ry="34.61" transform="matrix(0.97, -0.22, 0.22, 0.97, -26.54, 173.33)"/><ellipse class="cls-67" cx="751.9" cy="203.83" rx="26.53" ry="34.35" transform="translate(-26.54 173.34) rotate(-12.92)"/><ellipse class="cls-68" cx="751.9" cy="203.83" rx="26.33" ry="34.1" transform="translate(-26.54 173.34) rotate(-12.92)"/><ellipse class="cls-69" cx="751.9" cy="203.83" rx="26.13" ry="33.84" transform="translate(-26.54 173.34) rotate(-12.92)"/><ellipse class="cls-70" cx="751.9" cy="203.83" rx="25.94" ry="33.58" transform="translate(-26.54 173.34) rotate(-12.92)"/><ellipse class="cls-71" cx="751.9" cy="203.83" rx="25.74" ry="33.33" transform="translate(-26.54 173.34) rotate(-12.92)"/><ellipse class="cls-72" cx="751.9" cy="203.83" rx="25.54" ry="33.07" transform="translate(-26.54 173.34) rotate(-12.92)"/><ellipse class="cls-73" cx="751.9" cy="203.83" rx="25.34" ry="32.81" transform="translate(-26.54 173.34) rotate(-12.92)"/><ellipse class="cls-74" cx="751.9" cy="203.83" rx="25.14" ry="32.56" transform="translate(-26.54 173.34) rotate(-12.92)"/><ellipse class="cls-75" cx="751.9" cy="203.83" rx="24.95" ry="32.3" transform="translate(-26.54 173.34) rotate(-12.92)"/><ellipse class="cls-76" cx="751.9" cy="203.83" rx="24.75" ry="32.05" transform="translate(-26.54 173.34) rotate(-12.92)"/><ellipse class="cls-77" cx="751.9" cy="203.83" rx="24.55" ry="31.79" transform="translate(-26.54 173.34) rotate(-12.92)"/><ellipse class="cls-78" cx="751.9" cy="203.83" rx="24.35" ry="31.53" transform="translate(-26.54 173.34) rotate(-12.92)"/><ellipse class="cls-79" cx="751.9" cy="203.83" rx="24.15" ry="31.28" transform="translate(-26.54 173.34) rotate(-12.92)"/><ellipse class="cls-80" cx="751.9" cy="203.83" rx="23.96" ry="31.02" transform="translate(-26.54 173.34) rotate(-12.92)"/><ellipse class="cls-81" cx="751.9" cy="203.83" rx="23.76" ry="30.76" transform="translate(-26.54 173.33) rotate(-12.92)"/><ellipse class="cls-82" cx="751.9" cy="203.83" rx="23.56" ry="30.51" transform="translate(-26.54 173.33) rotate(-12.92)"/><ellipse class="cls-83" cx="751.9" cy="203.83" rx="23.36" ry="30.25" transform="translate(-26.54 173.34) rotate(-12.92)"/><ellipse class="cls-84" cx="751.9" cy="203.83" rx="23.16" ry="29.99" transform="translate(-26.54 173.34) rotate(-12.92)"/><ellipse class="cls-84" cx="751.9" cy="203.83" rx="22.97" ry="29.74" transform="translate(-26.54 173.34) rotate(-12.92)"/><ellipse class="cls-85" cx="751.9" cy="203.83" rx="22.77" ry="29.48" transform="translate(-26.54 173.33) rotate(-12.92)"/><ellipse class="cls-86" cx="751.9" cy="203.83" rx="22.57" ry="29.23" transform="translate(-26.54 173.33) rotate(-12.92)"/><ellipse class="cls-87" cx="751.9" cy="203.83" rx="22.37" ry="28.97" transform="translate(-26.54 173.33) rotate(-12.92)"/><ellipse class="cls-88" cx="751.9" cy="203.83" rx="22.17" ry="28.71" transform="translate(-26.54 173.34) rotate(-12.92)"/><ellipse class="cls-89" cx="751.9" cy="203.83" rx="21.98" ry="28.46" transform="translate(-26.54 173.34) rotate(-12.92)"/><ellipse class="cls-90" cx="751.9" cy="203.83" rx="21.78" ry="28.2" transform="translate(-26.54 173.34) rotate(-12.92)"/><ellipse class="cls-91" cx="751.9" cy="203.83" rx="21.58" ry="27.94" transform="translate(-26.54 173.34) rotate(-12.92)"/><ellipse class="cls-92" cx="751.9" cy="203.83" rx="21.38" ry="27.69" transform="translate(-26.54 173.34) rotate(-12.92)"/><ellipse class="cls-93" cx="751.9" cy="203.83" rx="21.18" ry="27.43" transform="translate(-26.54 173.34) rotate(-12.92)"/><ellipse class="cls-94" cx="751.9" cy="203.83" rx="20.99" ry="27.17" transform="translate(-26.54 173.34) rotate(-12.92)"/><ellipse class="cls-95" cx="751.9" cy="203.83" rx="20.79" ry="26.92" transform="translate(-26.54 173.34) rotate(-12.92)"/><ellipse class="cls-96" cx="751.9" cy="203.83" rx="20.59" ry="26.66" transform="translate(-26.54 173.34) rotate(-12.92)"/><ellipse class="cls-97" cx="751.9" cy="203.83" rx="20.39" ry="26.41" transform="translate(-26.54 173.34) rotate(-12.92)"/><ellipse class="cls-98" cx="751.9" cy="203.83" rx="20.19" ry="26.15" transform="translate(-26.54 173.34) rotate(-12.92)"/><ellipse class="cls-99" cx="751.9" cy="203.83" rx="20" ry="25.89" transform="translate(-26.54 173.34) rotate(-12.92)"/><ellipse class="cls-100" cx="751.9" cy="203.83" rx="19.8" ry="25.64" transform="translate(-26.54 173.33) rotate(-12.92)"/><ellipse class="cls-101" cx="751.9" cy="203.83" rx="19.6" ry="25.38" transform="translate(-26.54 173.34) rotate(-12.92)"/><ellipse class="cls-102" cx="751.9" cy="203.83" rx="19.4" ry="25.12" transform="translate(-26.54 173.34) rotate(-12.92)"/><ellipse class="cls-103" cx="751.9" cy="203.83" rx="19.2" ry="24.87" transform="translate(-26.54 173.34) rotate(-12.92)"/><ellipse class="cls-104" cx="751.9" cy="203.83" rx="19.01" ry="24.61" transform="translate(-26.54 173.34) rotate(-12.92)"/><ellipse class="cls-105" cx="751.9" cy="203.83" rx="18.81" ry="24.35" transform="translate(-26.54 173.34) rotate(-12.92)"/><path class="cls-106" d="M770.61,203c1.54,13.17-5.58,24.21-15.92,24.67s-20-9.85-21.51-23,5.59-24.21,15.92-24.66S769.07,189.83,770.61,203Z"/><ellipse class="cls-107" cx="751.9" cy="203.83" rx="18.41" ry="23.84" transform="translate(-26.54 173.33) rotate(-12.92)"/><ellipse class="cls-108" cx="751.9" cy="203.83" rx="18.21" ry="23.59" transform="translate(-26.54 173.33) rotate(-12.92)"/><ellipse class="cls-109" cx="751.9" cy="203.83" rx="18.02" ry="23.33" transform="translate(-26.54 173.33) rotate(-12.92)"/><ellipse class="cls-110" cx="751.9" cy="203.83" rx="17.82" ry="23.07" transform="translate(-26.54 173.33) rotate(-12.92)"/><ellipse class="cls-111" cx="751.9" cy="203.83" rx="17.62" ry="22.82" transform="translate(-26.54 173.33) rotate(-12.92)"/><ellipse class="cls-112" cx="751.9" cy="203.83" rx="17.42" ry="22.56" transform="translate(-26.54 173.34) rotate(-12.92)"/><ellipse class="cls-113" cx="751.9" cy="203.83" rx="17.22" ry="22.3" transform="translate(-26.54 173.34) rotate(-12.92)"/><ellipse class="cls-114" cx="751.9" cy="203.83" rx="17.03" ry="22.05" transform="translate(-26.54 173.34) rotate(-12.92)"/><ellipse class="cls-115" cx="751.9" cy="203.83" rx="16.83" ry="21.79" transform="translate(-26.54 173.34) rotate(-12.92)"/><ellipse class="cls-116" cx="751.9" cy="203.83" rx="16.63" ry="21.53" transform="translate(-26.54 173.33) rotate(-12.92)"/><ellipse class="cls-117" cx="751.9" cy="203.83" rx="16.43" ry="21.28" transform="translate(-26.54 173.34) rotate(-12.92)"/><ellipse class="cls-118" cx="751.9" cy="203.83" rx="16.23" ry="21.02" transform="translate(-26.54 173.34) rotate(-12.92)"/><ellipse class="cls-119" cx="751.9" cy="203.83" rx="16.04" ry="20.77" transform="translate(-26.54 173.34) rotate(-12.92)"/><ellipse class="cls-120" cx="751.9" cy="203.83" rx="15.84" ry="20.51" transform="translate(-26.54 173.33) rotate(-12.92)"/><ellipse class="cls-121" cx="751.9" cy="203.83" rx="15.64" ry="20.25" transform="translate(-26.54 173.33) rotate(-12.92)"/><ellipse class="cls-122" cx="751.9" cy="203.83" rx="15.44" ry="20" transform="translate(-26.54 173.34) rotate(-12.92)"/></g><path class="cls-126" d="M897.38,36.06c.12-.06.65-.41.77-.46a46.94,46.94,0,0,0-7-2.75c-3.2.62-4.52,1.26-7.91,2.06-10.1,2.37-23.67,1.71-35-.24-12.17-2.08-22.33-7.93-33.42-12.71-5.6-2.42-11.18-4.88-16.93-7-12.31-4.48-26.77-8.82-40-8.12a43,43,0,0,0-4.53.5,9.47,9.47,0,0,0,.24,1.46c-2.4,0-4.59,0-6.6,0A78.27,78.27,0,0,0,739,11.62a39.81,39.81,0,0,0-13.14,8.67,10.74,10.74,0,0,1-.88,1.15,109.74,109.74,0,0,0-.34,13.31,73,73,0,0,1,9.1-4.79,37.78,37.78,0,0,1,10.74-2.78c15.73-1.47,30.73,4,45.3,9.14,6,2.09,12,4.54,18.46,6.79s13.06,4.51,20,6.27c11.69,3,25.79,3.64,37.34.39,1.56-.44,15.69-5.59,20.14-7.82S894,37.62,897.38,36.06Z"/><path class="cls-127" d="M791.54,150.38s-1.7,18.26,18.34,30.37l44-5.22s2.22-15.08-2.41-24.51C847.13,142.23,791.54,150.38,791.54,150.38Z"/><path class="cls-128" d="M725,150.84c-2.32,8.34-1.55,25.89-1.55,25.89l40.33,5.1c14.4-19,11.79-31.54,11.79-31.54S727.35,142.51,725,150.84Z"/><path class="cls-129" d="M834.34,164.94c-18.84-.66-24.12,16-24.12,16s3.87,4.87,23.58,3.85c18.15-.94,19.86-8.55,19.86-8.55S853.18,165.61,834.34,164.94Z"/><path class="cls-129" d="M724.62,175.09s2.43,6.54,16.23,8.2c18.92,2.28,23-1.93,23-1.93a52.91,52.91,0,0,0-10.65-13.08C745.61,161.87,729.41,161.48,724.62,175.09Z"/><path class="cls-130" d="M740.85,183.29a84.53,84.53,0,0,0,10.07.67c1.51-5.33.58-10.65-1.48-13.24-.68-.61-1.38-1.2-2.11-1.76a5.4,5.4,0,0,0-.82-.33c-4.37-1.34-9.48,3.13-11.41,10a18.76,18.76,0,0,0-.61,3.36A37.14,37.14,0,0,0,740.85,183.29Z"/><path class="cls-131" d="M831.56,167c-4.57-1.57-9.88,3.61-11.86,11.56a30.81,30.81,0,0,0-.35,5.74,67.81,67.81,0,0,0,12.54.57h.24l1.67-.08c1-.05,1.88-.12,2.76-.2C839,176.26,836,168.49,831.56,167Z"/><path class="cls-132" d="M744.75,163.54c-16.28-2.22-21.47,9.08-20.13,11.55,0,0,5.94-6,17.42-4.06a44,44,0,0,1,22,10.32C766.74,180.63,765.09,166.32,744.75,163.54Z"/><path class="cls-133" d="M760.68,235.15c-1.92,1.32-2.64,27.86,7.15,33.27s61.29,6.54,65.47-2.68c2.27-5-10.77-30.16-17.12-31.75S766.84,230.91,760.68,235.15Z"/><path class="cls-134" d="M764.29,235c-.59,2.73-.11,25.7,3.76,27.53,4.11,2,16.56,1.6,29.06,1.57,14.26-.05,28.58-.08,30.7-2.79,2.52-3.23-9.89-28.81-14.85-31.25S764.29,235,764.29,235Z"/><path class="cls-129" d="M819.7,242.45c-1.37-4.66-3.38-9.25-5.45-11.39-5.73,0-17,.27-27.55.56l-.11,0-2,.27-.69.1-.35,0-.59.09-.5.07-.15,0-3.93.57-.68.1-.3,0-.57.09-.4.05-.44.07-.5.08-.26,0-2.41.36h0l-3.75.59-.32.05-.33.06-1.46.23-.71.12h-.08l-.49.08-.73.12-.19,0-.3,0-.1,0h0a50.33,50.33,0,0,0-.15,7.94C773.63,244,811.1,244.57,819.7,242.45Z"/><path class="cls-135" d="M786.7,231.62l-.11,0-2,.27-.69.1-.35,0-.59.09-.5.07-.15,0-3.93.57-.68.1-.3,0-.57.09-.4.05-.44.07-.5.08-.26,0-2.41.36h0l-3.75.59-.32.05-.33.06-1.46.23-.71.12h-.08l-.49.08-.73.12-.19,0-.3,0-.1,0h0a50.33,50.33,0,0,0-.15,7.94l1.13.12a5.7,5.7,0,0,1,4.57-4.85c5.34-1.3,10.68-1.2,16.13-1.2,3,0,6-.13,9-.06a37,37,0,0,1,4.46.28c.36.06,2.4,0,1.38.33,4.68-1.46,7.78,2.21,8,6a67.84,67.84,0,0,0,10.94-1.12c-1.37-4.66-3.38-9.25-5.45-11.39C808.52,231.06,797.3,231.33,786.7,231.62Z"/><path class="cls-132" d="M831.44,164.15c-22.39,1.25-24.79,15.6-21.22,16.77,0,0,4-7.77,22.57-8s20.87,3.3,20.87,3.3C855.08,174.14,853.12,162.93,831.44,164.15Z"/><path class="cls-136" d="M900.34,175l-15.41-1.49c-.27,18.82-2.77,27.67-10,37.73a131.23,131.23,0,0,1-28.74,28.78c-8.75-29.16-52.42-24.64-68.75-24.64-12.78,0-41.55,5.54-38.77,29.48,0,0-8.86-2.9-15.29-24.67-2.06-6.95-3.29-23.11-3.29-23.11l-2,2.13c-10.4,53.36,7.67,122.24,92.91,115.31,93.19-7.59,89.66-92.92,89.66-92.92C885,197.61,900.34,175,900.34,175ZM794.59,277.58c-24.62,0-46.29-.93-41.57-25.1,3.51-18,2.22-16.88,26.49-16.8,27.55.08,48.09-3.69,55.11,16.8C845.73,285,818.07,277.58,794.59,277.58Z"/><path class="cls-137" d="M778.48,231.28c11.25,0,24.46-5.35,29.43-15.41-11.91-1.24-23.62-.45-30.49-.45-6.22,0-16.21,1.32-24.52,5.42C760,226.42,769.26,231.26,778.48,231.28Z"/><path class="cls-125" d="M844.23,225.93l0,.08Z"/><path class="cls-138" d="M748,178.31a4.52,4.52,0,0,1-4,4.52,3.76,3.76,0,0,1-4-3.91,4.52,4.52,0,0,1,4-4.51A3.75,3.75,0,0,1,748,178.31Z"/><path class="cls-138" d="M832.79,178.33A4.71,4.71,0,0,1,828.6,183a3.91,3.91,0,0,1-4.19-4.07,4.71,4.71,0,0,1,4.19-4.71A3.91,3.91,0,0,1,832.79,178.33Z"/><path class="cls-139" d="M739.42,176.11c-1.78,1-3,2.83-2.65,4.15s2,1.6,3.81.63,3-2.83,2.65-4.15S741.21,175.14,739.42,176.11Z"/><path class="cls-139" d="M823.6,176.33c-2,1.12-3.16,3.13-2.71,4.48s2.39,1.53,4.34.4,3.17-3.13,2.72-4.48S825.55,175.2,823.6,176.33Z"/><path class="cls-12" d="M779.62,172.4c0,5.44-.24,14.21-6.26,16.86-5.15,2.27-17.59-.63-20.14,14-3.25,18.58,35,26.74,43,7.24,4.49-10.91-1.34-26.6-8.48-38.51Z"/><path class="cls-140" d="M768.92,209.46a74.41,74.41,0,0,1-15.74-2.06c2.56,15.55,35.67,21.08,43.08,3.1a19.66,19.66,0,0,0,1.13-3.88C788.49,209.39,778.1,209.78,768.92,209.46Z"/><path class="cls-141" d="M784.19,176.21l-4.25.21s-.23,10.27-3.3,13.16c-1.13,1.06-3.68,1.81-6,1.89-7,.25-12.63,2.22-12.45,5.36s6,5.55,13.09,5.67c6.61.12,11.23-1.72,13.56-4.42C788,194.39,787.58,182.15,784.19,176.21Z"/><path class="cls-142" d="M856.58,56.35A101.14,101.14,0,0,1,832,74.65a14.42,14.42,0,0,1,5.15-.49,11.72,11.72,0,0,1,6.17,3A94.26,94.26,0,0,0,861.63,61C859.86,59.53,858.19,58,856.58,56.35Z"/><path class="cls-143" d="M724.87,151.74c6.26-3.91,38.78,15,44.92,13.15,7.05-2.15,5.81-14.6,5.81-14.6s-25.35-8.59-36.2-9C726.4,140.89,724.87,151.74,724.87,151.74Z"/><path class="cls-144" d="M791.54,150.38s1.38,14.11,3.7,15.41c5.1,2.87,53.18-15.83,56.22-14.77,0,0-3.93-6.58-15.67-8.27S791.54,150.38,791.54,150.38Z"/><path class="cls-145" d="M812.64,292.91c0,3.76-5.58,6.81-12.46,6.81s-12.45-3.05-12.45-6.81,5.57-6.8,12.45-6.8S812.64,289.16,812.64,292.91Z"/><path class="cls-146" d="M748.88,188.29a97.48,97.48,0,0,1-17.39-2.83c-2.56-.7-4.13,3.16-1.71,4.37a31.66,31.66,0,0,0,19.83,3C752.36,192.24,751.23,188.51,748.88,188.29Z"/><path class="cls-146" d="M843,187.87a74.61,74.61,0,0,1-19.67,2.26c-2.52,0-3.07,4.19-.49,4.49A44.3,44.3,0,0,0,844.28,192,2.17,2.17,0,0,0,843,187.87Z"/></g></g></svg>