<svg xmlns="http://www.w3.org/2000/svg" xmlns:xlink="http://www.w3.org/1999/xlink" viewBox="0 0 1359.83 556.85"><defs><style>.cls-1,.cls-15{fill:#3c4657;}.cls-2{fill:#343d49;}.cls-3{fill:#cec0c0;}.cls-4{fill:#e8dada;}.cls-5{fill:url(#Áåçûìÿííûé_ãðàäèåíò_35);}.cls-6{fill:url(#Áåçûìÿííûé_ãðàäèåíò_38);}.cls-7{fill:url(#Áåçûìÿííûé_ãðàäèåíò_18);}.cls-8{fill:url(#Áåçûìÿííûé_ãðàäèåíò_13);}.cls-9{fill:#ff9e78;}.cls-10{fill:url(#Áåçûìÿííûé_ãðàäèåíò_18-2);}.cls-11{fill:url(#Áåçûìÿííûé_ãðàäèåíò_34);}.cls-12{fill:url(#Áåçûìÿííûé_ãðàäèåíò_31);}.cls-13{fill:url(#Áåçûìÿííûé_ãðàäèåíò_13-2);}.cls-14{fill:#848b96;}.cls-113,.cls-121,.cls-14,.cls-141{opacity:0.11;}.cls-15{opacity:0.33;}.cls-16{fill:url(#Áåçûìÿííûé_ãðàäèåíò_33);}.cls-17{fill:url(#Áåçûìÿííûé_ãðàäèåíò_33-2);}.cls-18{fill:url(#Áåçûìÿííûé_ãðàäèåíò_33-3);}.cls-19{fill:url(#Áåçûìÿííûé_ãðàäèåíò_33-5);}.cls-20{fill:url(#Áåçûìÿííûé_ãðàäèåíò_14);}.cls-21{fill:url(#Áåçûìÿííûé_ãðàäèåíò_14-2);}.cls-22{fill:url(#Áåçûìÿííûé_ãðàäèåíò_14-3);}.cls-23{fill:url(#Áåçûìÿííûé_ãðàäèåíò_4);}.cls-24{fill:url(#Áåçûìÿííûé_ãðàäèåíò_4-2);}.cls-25{fill:url(#Áåçûìÿííûé_ãðàäèåíò_4-3);}.cls-26{fill:url(#Áåçûìÿííûé_ãðàäèåíò_4-4);}.cls-27{fill:#59352c;}.cls-28{fill:#3e1208;}.cls-29{fill:url(#Áåçûìÿííûé_ãðàäèåíò_10);}.cls-30{fill:url(#Áåçûìÿííûé_ãðàäèåíò_57);}.cls-31{opacity:0.44;}.cls-32{fill:#ff9d77;}.cls-33{fill:#ff9c77;}.cls-34{fill:#ff9b76;}.cls-35{fill:#ff9a76;}.cls-36{fill:#ff9975;}.cls-37{fill:#ff9875;}.cls-38{fill:#ff9774;}.cls-39{fill:#ff9674;}.cls-40{fill:#ff9573;}.cls-41{fill:#ff9472;}.cls-42{fill:#ff9372;}.cls-43{fill:#ff9271;}.cls-44{fill:#ff9171;}.cls-45{fill:#ff9070;}.cls-46{fill:#ff8f70;}.cls-47{fill:#ff8e6f;}.cls-48{fill:#ff8d6f;}.cls-49{fill:#ff8c6e;}.cls-50{fill:#ff8b6e;}.cls-51{fill:#ff8a6d;}.cls-52{fill:#ff896c;}.cls-53{fill:#ff886c;}.cls-54{fill:#ff876b;}.cls-55{fill:#ff866b;}.cls-56{fill:#ff856a;}.cls-57{fill:#ff846a;}.cls-58{fill:#ff8369;}.cls-59{fill:#ff8269;}.cls-60{fill:#ff8168;}.cls-61{fill:#ff8067;}.cls-62{fill:#ff7f67;}.cls-63{fill:#ff7e66;}.cls-64{fill:#ff7d66;}.cls-65{fill:#ff7c65;}.cls-66{fill:#ff7b65;}.cls-67{fill:#ff7a64;}.cls-68{fill:#ff7964;}.cls-69{fill:#ff7863;}.cls-70{fill:#ff7762;}.cls-71{fill:#ff7661;}.cls-72{fill:#ff7561;}.cls-73{fill:#ff7460;}.cls-74{fill:#ff7360;}.cls-75{fill:#ff725f;}.cls-76{fill:#ff715f;}.cls-77{fill:#ff705e;}.cls-78{fill:#ff6f5e;}.cls-79{fill:#ff6e5d;}.cls-80{fill:#ff6d5c;}.cls-81{fill:#ff6c5c;}.cls-82{fill:#ff6b5b;}.cls-83{fill:#ff6a5b;}.cls-84{fill:#ff695a;}.cls-85{fill:#ff685a;}.cls-86{fill:#ff6759;}.cls-87{fill:#ff6659;}.cls-88{fill:#ff6558;}.cls-89{fill:#ff6457;}.cls-90{fill:#ff6357;}.cls-91{fill:#ff6256;}.cls-92{fill:#ff6156;}.cls-93{fill:#ff6055;}.cls-94{fill:#ff5f55;}.cls-95{fill:#ff5e54;}.cls-96{fill:#ff5d54;}.cls-97{fill:#ff5c53;}.cls-98{fill:#ff5b53;}.cls-99{fill:#ff5a52;}.cls-100{fill:#ff5951;}.cls-101{fill:#ff5851;}.cls-102{fill:#ff5750;}.cls-103{fill:#ff5650;}.cls-104{fill:#ff554f;}.cls-105{fill:#ff544f;}.cls-106{fill:#ff534e;}.cls-107{fill:#ff524e;}.cls-108{fill:#ff514d;}.cls-109{fill:url(#Áåçûìÿííûé_ãðàäèåíò_4-5);}.cls-110{fill:url(#Áåçûìÿííûé_ãðàäèåíò_4-6);}.cls-111{fill:#7c302a;}.cls-112{fill:#fb755c;}.cls-113{fill:#ffbc80;}.cls-114{fill:url(#Áåçûìÿííûé_ãðàäèåíò_10-2);}.cls-115{fill:url(#Áåçûìÿííûé_ãðàäèåíò_10-3);}.cls-116{fill:#603f37;}.cls-117{fill:url(#Áåçûìÿííûé_ãðàäèåíò_57-2);}.cls-118{fill:url(#Áåçûìÿííûé_ãðàäèåíò_24);}.cls-119{fill:url(#Áåçûìÿííûé_ãðàäèåíò_4-7);}.cls-120{fill:#fff;opacity:0.2;}.cls-122{fill:url(#Áåçûìÿííûé_ãðàäèåíò_57-3);}.cls-123{fill:url(#Áåçûìÿííûé_ãðàäèåíò_57-4);}.cls-124{fill:url(#Áåçûìÿííûé_ãðàäèåíò_14-4);}.cls-125{fill:url(#Áåçûìÿííûé_ãðàäèåíò_14-5);}.cls-126{fill:url(#Áåçûìÿííûé_ãðàäèåíò_14-6);}.cls-127{fill:url(#Áåçûìÿííûé_ãðàäèåíò_4-8);}.cls-128{fill:url(#Áåçûìÿííûé_ãðàäèåíò_4-9);}.cls-129{fill:url(#Áåçûìÿííûé_ãðàäèåíò_14-7);}.cls-130{fill:url(#Áåçûìÿííûé_ãðàäèåíò_4-10);}.cls-131{fill:url(#Áåçûìÿííûé_ãðàäèåíò_31-2);}.cls-132{fill:url(#Áåçûìÿííûé_ãðàäèåíò_13-3);}.cls-133{fill:url(#Áåçûìÿííûé_ãðàäèåíò_28);}.cls-134{fill:url(#Áåçûìÿííûé_ãðàäèåíò_25);}.cls-135{fill:#97b9df;}.cls-136{fill:#8cb0d1;}.cls-137{fill:#d65a49;}.cls-138{fill:#598270;}.cls-139{fill:#486d5b;}.cls-140{fill:url(#Áåçûìÿííûé_ãðàäèåíò_21);}.cls-141{fill:#4f3d35;}.cls-142{fill:url(#Áåçûìÿííûé_ãðàäèåíò_19);}.cls-143{fill:#f2e9e9;}.cls-144{fill:#ff6561;opacity:0.41;}</style><linearGradient id="Áåçûìÿííûé_ãðàäèåíò_35" x1="1071.38" y1="550.88" x2="1093.2" y2="296.83" gradientUnits="userSpaceOnUse"><stop offset="0" stop-color="#825a46"/><stop offset="1" stop-color="#a5816d"/></linearGradient><linearGradient id="Áåçûìÿííûé_ãðàäèåíò_38" x1="447.58" y1="455.25" x2="431.02" y2="503.57" gradientUnits="userSpaceOnUse"><stop offset="0" stop-color="#c1c8d2"/><stop offset="1" stop-color="#868c97"/></linearGradient><linearGradient id="Áåçûìÿííûé_ãðàäèåíò_18" x1="827.21" y1="233.34" x2="827.21" y2="562.14" gradientUnits="userSpaceOnUse"><stop offset="0" stop-color="#deefff"/><stop offset="1" stop-color="#cadbef"/></linearGradient><linearGradient id="Áåçûìÿííûé_ãðàäèåíò_13" x1="803.64" y1="308.66" x2="848.29" y2="588.59" gradientUnits="userSpaceOnUse"><stop offset="0" stop-color="#b3cbe2"/><stop offset="1" stop-color="#cadbef"/></linearGradient><linearGradient id="Áåçûìÿííûé_ãðàäèåíò_18-2" x1="1036.96" y1="412.52" x2="1048.87" y2="459.58" xlink:href="#Áåçûìÿííûé_ãðàäèåíò_18"/><linearGradient id="Áåçûìÿííûé_ãðàäèåíò_34" x1="334.53" y1="259.44" x2="202.03" y2="406.66" gradientUnits="userSpaceOnUse"><stop offset="0" stop-color="#d9d9e2"/><stop offset="1" stop-color="#929498"/></linearGradient><linearGradient id="Áåçûìÿííûé_ãðàäèåíò_31" x1="474.73" y1="133.16" x2="6.61" y2="543.19" gradientUnits="userSpaceOnUse"><stop offset="0" stop-color="#c1c8d2"/><stop offset="1" stop-color="#929498"/></linearGradient><linearGradient id="Áåçûìÿííûé_ãðàäèåíò_13-2" x1="827.59" y1="303.99" x2="864.45" y2="504.1" xlink:href="#Áåçûìÿííûé_ãðàäèåíò_13"/><linearGradient id="Áåçûìÿííûé_ãðàäèåíò_33" x1="291.98" y1="412.54" x2="267.28" y2="532.09" gradientUnits="userSpaceOnUse"><stop offset="0" stop-color="#d6dfea"/><stop offset="1" stop-color="#929498"/></linearGradient><linearGradient id="Áåçûìÿííûé_ãðàäèåíò_33-2" x1="422.22" y1="294.6" x2="330.06" y2="635.2" xlink:href="#Áåçûìÿííûé_ãðàäèåíò_33"/><linearGradient id="Áåçûìÿííûé_ãðàäèåíò_33-3" x1="229.97" y1="358.54" x2="318.21" y2="361.31" gradientTransform="translate(561.12 -17.42) rotate(74.46)" xlink:href="#Áåçûìÿííûé_ãðàäèåíò_33"/><linearGradient id="Áåçûìÿííûé_ãðàäèåíò_33-5" x1="272.68" y1="397.27" x2="293.3" y2="315.88" xlink:href="#Áåçûìÿííûé_ãðàäèåíò_33"/><linearGradient id="Áåçûìÿííûé_ãðàäèåíò_14" x1="765.38" y1="468.4" x2="774.25" y2="478.22" gradientUnits="userSpaceOnUse"><stop offset="0" stop-color="#ffb9a4"/><stop offset="1" stop-color="#ff9e78"/></linearGradient><linearGradient id="Áåçûìÿííûé_ãðàäèåíò_14-2" x1="746.01" y1="461.61" x2="757.51" y2="472.54" xlink:href="#Áåçûìÿííûé_ãðàäèåíò_14"/><linearGradient id="Áåçûìÿííûé_ãðàäèåíò_14-3" x1="783.01" y1="478.32" x2="793.22" y2="489.6" xlink:href="#Áåçûìÿííûé_ãðàäèåíò_14"/><linearGradient id="Áåçûìÿííûé_ãðàäèåíò_4" x1="790.96" y1="496.99" x2="788.78" y2="525.82" gradientUnits="userSpaceOnUse"><stop offset="0" stop-color="#f28c70"/><stop offset="1" stop-color="#ff9e78"/></linearGradient><linearGradient id="Áåçûìÿííûé_ãðàäèåíò_4-2" x1="769.12" y1="495.33" x2="766.93" y2="524.17" xlink:href="#Áåçûìÿííûé_ãðàäèåíò_4"/><linearGradient id="Áåçûìÿííûé_ãðàäèåíò_4-3" x1="753.82" y1="494.18" x2="751.64" y2="523.01" xlink:href="#Áåçûìÿííûé_ãðàäèåíò_4"/><linearGradient id="Áåçûìÿííûé_ãðàäèåíò_4-4" x1="918.56" y1="516.86" x2="914.39" y2="477.71" xlink:href="#Áåçûìÿííûé_ãðàäèåíò_4"/><linearGradient id="Áåçûìÿííûé_ãðàäèåíò_10" x1="778.41" y1="142.74" x2="781.34" y2="192.48" gradientTransform="matrix(1, -0.02, 0.02, 1, -9.24, -5.76)" gradientUnits="userSpaceOnUse"><stop offset="0" stop-color="#c6664f"/><stop offset="1" stop-color="#ff9e78"/></linearGradient><linearGradient id="Áåçûìÿííûé_ãðàäèåíò_57" x1="2418.86" y1="-160.46" x2="2418.39" y2="-84.53" gradientTransform="matrix(1, -0.03, 0.06, 1, -1623.68, 243.87)" gradientUnits="userSpaceOnUse"><stop offset="0" stop-color="#75483b"/><stop offset="0.35" stop-color="#704538"/><stop offset="0.75" stop-color="#633c30"/><stop offset="1" stop-color="#563428"/></linearGradient><linearGradient id="Áåçûìÿííûé_ãðàäèåíò_4-5" x1="2477.34" y1="74.92" x2="2520.81" y2="74.92" gradientTransform="matrix(1, -0.07, 0.1, 1, -1620.93, 298.3)" xlink:href="#Áåçûìÿííûé_ãðàäèåíò_4"/><linearGradient id="Áåçûìÿííûé_ãðàäèåíò_4-6" x1="2493.36" y1="53.64" x2="2513.42" y2="53.64" gradientTransform="matrix(1, -0.07, 0.1, 1, -1620.93, 298.3)" xlink:href="#Áåçûìÿííûé_ãðàäèåíò_4"/><linearGradient id="Áåçûìÿííûé_ãðàäèåíò_10-2" x1="2373.82" y1="117.02" x2="2375.47" y2="154.92" gradientTransform="matrix(1, -0.04, 0.07, 1, -1589.92, 111.02)" xlink:href="#Áåçûìÿííûé_ãðàäèåíò_10"/><linearGradient id="Áåçûìÿííûé_ãðàäèåíò_10-3" x1="2298.23" y1="118.39" x2="2299.9" y2="156.74" gradientTransform="matrix(1, -0.04, 0.07, 1, -1589.92, 111.02)" xlink:href="#Áåçûìÿííûé_ãðàäèåíò_10"/><linearGradient id="Áåçûìÿííûé_ãðàäèåíò_57-2" x1="780.66" y1="329.56" x2="781.47" y2="197.64" gradientTransform="matrix(1, -0.04, 0.04, 1, -10.35, 14.13)" xlink:href="#Áåçûìÿííûé_ãðàäèåíò_57"/><linearGradient id="Áåçûìÿííûé_ãðàäèåíò_24" x1="753.38" y1="237.87" x2="753.38" y2="251.73" gradientTransform="matrix(1, -0.02, 0.02, 1, -9.24, -5.76)" gradientUnits="userSpaceOnUse"><stop offset="0" stop-color="#4c2e25"/><stop offset="0.39" stop-color="#513127"/><stop offset="0.83" stop-color="#5e3a2e"/><stop offset="1" stop-color="#663f32"/></linearGradient><linearGradient id="Áåçûìÿííûé_ãðàäèåíò_4-7" x1="2311.07" y1="77.88" x2="2310.72" y2="67.12" gradientTransform="matrix(1, -0.07, 0.1, 1, -1566.88, 294.67)" xlink:href="#Áåçûìÿííûé_ãðàäèåíò_4"/><linearGradient id="Áåçûìÿííûé_ãðàäèåíò_57-3" x1="724.45" y1="146.66" x2="723.98" y2="175.07" gradientTransform="matrix(1, -0.02, 0.02, 1, -9.24, -5.76)" xlink:href="#Áåçûìÿííûé_ãðàäèåíò_57"/><linearGradient id="Áåçûìÿííûé_ãðàäèåíò_57-4" x1="801.84" y1="263.83" x2="801.32" y2="281.77" gradientTransform="matrix(0.99, -0.12, 0.02, 1, -9.83, -30.4)" xlink:href="#Áåçûìÿííûé_ãðàäèåíò_57"/><linearGradient id="Áåçûìÿííûé_ãðàäèåíò_14-4" x1="712.39" y1="61.57" x2="715" y2="76.99" xlink:href="#Áåçûìÿííûé_ãðàäèåíò_14"/><linearGradient id="Áåçûìÿííûé_ãðàäèåíò_14-5" x1="738.98" y1="91.8" x2="739.98" y2="110.1" xlink:href="#Áåçûìÿííûé_ãðàäèåíò_14"/><linearGradient id="Áåçûìÿííûé_ãðàäèåíò_14-6" x1="727.62" y1="71.47" x2="731.95" y2="90.68" xlink:href="#Áåçûìÿííûé_ãðàäèåíò_14"/><linearGradient id="Áåçûìÿííûé_ãðàäèåíò_4-8" x1="768.58" y1="219.06" x2="830.05" y2="214.15" gradientTransform="matrix(0.99, -0.13, 0.13, 0.99, -49.57, -40.26)" xlink:href="#Áåçûìÿííûé_ãðàäèåíò_4"/><linearGradient id="Áåçûìÿííûé_ãðàäèåíò_4-9" x1="769.24" y1="238.29" x2="833.62" y2="233.15" gradientTransform="matrix(0.99, -0.13, 0.13, 0.99, -49.57, -40.26)" xlink:href="#Áåçûìÿííûé_ãðàäèåíò_4"/><linearGradient id="Áåçûìÿííûé_ãðàäèåíò_14-7" x1="738.96" y1="111.05" x2="740.08" y2="125.49" xlink:href="#Áåçûìÿííûé_ãðàäèåíò_14"/><linearGradient id="Áåçûìÿííûé_ãðàäèåíò_4-10" x1="625.73" y1="270.4" x2="738.4" y2="340.82" xlink:href="#Áåçûìÿííûé_ãðàäèåíò_4"/><linearGradient id="Áåçûìÿííûé_ãðàäèåíò_31-2" x1="670.75" y1="499.4" x2="670.75" y2="514.52" xlink:href="#Áåçûìÿííûé_ãðàäèåíò_31"/><linearGradient id="Áåçûìÿííûé_ãðàäèåíò_13-3" x1="1104.09" y1="463.61" x2="1085.77" y2="418.11" xlink:href="#Áåçûìÿííûé_ãðàäèåíò_13"/><linearGradient id="Áåçûìÿííûé_ãðàäèåíò_28" x1="936.11" y1="427.79" x2="941.9" y2="469.65" gradientUnits="userSpaceOnUse"><stop offset="0" stop-color="#ffb9a4"/><stop offset="0.24" stop-color="#ffb399"/><stop offset="1" stop-color="#ff9e78"/></linearGradient><linearGradient id="Áåçûìÿííûé_ãðàäèåíò_25" x1="995.58" y1="467.61" x2="1018.37" y2="467.61" gradientUnits="userSpaceOnUse"><stop offset="0" stop-color="#bc4c40"/><stop offset="1" stop-color="#d65a49"/></linearGradient><linearGradient id="Áåçûìÿííûé_ãðàäèåíò_21" x1="679.92" y1="505.18" x2="679.92" y2="521.17" gradientUnits="userSpaceOnUse"><stop offset="0" stop-color="#d1b3a3"/><stop offset="1" stop-color="#a5816d"/></linearGradient><linearGradient id="Áåçûìÿííûé_ãðàäèåíò_19" x1="19.99" y1="460.74" x2="317.5" y2="460.74" gradientUnits="userSpaceOnUse"><stop offset="0" stop-color="#fff"/><stop offset="1" stop-color="#868c97"/></linearGradient></defs><g id="Layer_2" data-name="Layer 2"><g id="Ñëîé_1" data-name="Ñëîé 1"><path class="cls-1" d="M19,471.71s-7.85,11.73-7.85,19.94c0,11.86,7.43,22.46,7.43,22.46s255.47.42,256.33-1.05,3.21-34.54.2-37.61c-1.54-1.58-68.85-2.67-134.22-3.74C79.25,470.69,19,471.71,19,471.71Z"/><path class="cls-2" d="M275.15,475.45c-1.51-1.54-65.85-2.62-129.81-3.67v42.35c64.6-.08,129.18-.34,129.61-1.07C275.8,511.59,278.16,478.52,275.15,475.45Z"/><path class="cls-3" d="M25.56,478.5s-4.83,6.94-4.58,13.66A35.73,35.73,0,0,0,24.3,505H231.49l1.18-25Z"/><path class="cls-4" d="M138.07,479.26l-112.51-.77s-4.83,6.85-4.58,13.57a34.75,34.75,0,0,0,3.32,12.77H138A34.35,34.35,0,0,1,138.07,479.26Z"/><path class="cls-5" d="M1105.88,554.91l.23-8.86s12.75-174.16,10.81-174.55-46.73-.77-46.73-.77l-34,184.18Z"/><path class="cls-6" d="M374.82,509.6s12.57-37.15,59-42.85,51.3,42.85,48.48,44.74S375.85,511,374.82,509.6Z"/><path class="cls-7" d="M1035,229.74c-38.68-43.75-153.3-67.93-197.59-67.57-33,.27-124.28,40.47-140.59,52.8-28.4,21.46-85,157.94-120.73,216.79l-21.37,8.88C530.83,474.8,558.5,500,558.5,500l12.2,12.8,73.08.76,8.94-1.79,68.9-103.22s13,69,25.35,144.6h290.75l3.82-40.16H1082s22.26-24.11,27.09-38.87S1073.63,273.5,1035,229.74Z"/><path class="cls-8" d="M747,553.18h290.74l2.74-28.85-2.91-10.74S991.48,452,993.62,439.14s17.75-18.83,17.75-18.83l-4.06-6.63c-11.88,3.64-16,9.09-16,9.09l-26.52-114.9-7,1.25,21,214.67s-206.92,7.84-210,6.54-37-212.07-38.4-214.24c0,0-7.09,1.3-7.23,2.59-.23,2.25,4.39,58.84,3.35,60.58L666,479.66c0-13.49-6.93-32.74-6.93-32.74l-7.69,8.39c10.06,23.16.22,48.14.22,48.14l-17.7,10,9.88.1,8.94-1.79,68.9-103.22S734.61,477.61,747,553.18Z"/><path class="cls-9" d="M678.33,204.55s-14.19,78.58-13.63,103.51,1.42,137.05-12,162.52c-12.36,23.51-40,35.19-51.21,35.22s-47.58-19.58-49.38-44.58S613.84,198.85,629.52,190,678.33,204.55,678.33,204.55Z"/><path class="cls-10" d="M992,439.44s11.3-31.75,57-26.37c52.24,6.16,56.92,68.32,55.41,70.72-2.24,3.58-27.06,38.09-28.33,38.52C1064.58,526.18,992,439.44,992,439.44Z"/><polygon class="cls-11" points="606.07 414.6 583.5 427.35 127.73 414.6 62.75 104.55 85.32 91.79 563.66 91.79 606.07 414.6"/><polygon class="cls-12" points="583.5 427.35 105.15 427.35 62.75 104.55 541.09 104.55 583.5 427.35"/><path class="cls-13" d="M880.56,245.65c-.88-23.35-6-46.38-6-46.6l-5,.57c0,.22,2.6,22.64,3.47,45.8,1.55,41.14-3.41,48.84-5.62,50.24-10.08,6.4-38.77-4-49.81-9-.44-3-.69-4.87-.73-5.51a2.92,2.92,0,0,1,0,.38l-5-.7c0,.34.32,3,1,7.37-4.75,4.65-22.06,20.45-35.17,17.19-12.38-3.08-17.31-37.11-18.17-50l-5,.33c.34,5.1,1.28,51.31,19.4,55.82a44.14,44.14,0,0,0,7.14,1.39c12.54,0,26.2-12.8,32.71-18.74,4.77,30.84,17.1,104.84,18.81,115.13,21.13,126.69,22.24,128.47,22.66,129.15l4.24-2.66a1.53,1.53,0,0,1,.18.38c-1.66-4.95-33.57-194.53-41.18-243.74C829,297,859.67,311.67,872,303.82,876.22,301.16,882.2,289.11,880.56,245.65Z"/><polygon class="cls-14" points="398.3 427.18 377.25 264.83 272.77 264.83 265.69 427.18 398.3 427.18"/><path class="cls-15" d="M363.81,361.51l-75.75.54a3,3,0,0,0-2.93,3.44l1.41,9.05a3,3,0,0,0,3,2.52l75.75-.54a3,3,0,0,0,2.92-3.44L366.77,364A3,3,0,0,0,363.81,361.51Z"/><path class="cls-16" d="M333.85,511.36H233.93a20.24,20.24,0,0,1-15.53-7,19.59,19.59,0,0,1-4.1-17.3l52.84-219.21a10,10,0,0,1,9.7-7.63l95.68.13-56,229c-.47,5.73,10.81,12.27,10.81,12.27Z"/><path class="cls-17" d="M422.42,511.53H333.85a20.24,20.24,0,0,1-15.52-7,19.61,19.61,0,0,1-4.11-17.3l53.62-223.12a4.88,4.88,0,0,1,5.87-3.6h0a4.87,4.87,0,0,1,3.6,5.88L323.7,489.52a9.92,9.92,0,0,0,2.55,9.27,10.32,10.32,0,0,0,7.42,3h88.75a4.88,4.88,0,0,1,4.87,4.88h0A4.87,4.87,0,0,1,422.42,511.53Z"/><ellipse class="cls-18" cx="292.02" cy="360.49" rx="49.3" ry="25.7" transform="translate(-133.51 545.28) rotate(-74.46)"/><ellipse class="cls-18" cx="292.02" cy="360.49" rx="49.3" ry="25.7" transform="translate(-133.51 545.28) rotate(-74.46)"/><path class="cls-19" d="M274.43,360.3c4.76-23.73,18.17-43.35,31.37-47.14a13.88,13.88,0,0,0-4.16-.67c-14.55-.1-31.12,21.08-36.43,47.59s2.63,48.3,17.19,48.4a16.14,16.14,0,0,0,4.62-.67C275.24,404,269.65,384.15,274.43,360.3Z"/><path class="cls-9" d="M721.62,504.36s14.45-45.85,19.69-48.69,37.54-21.87,44.53-21.44,54.38,24.51,63.6,25.4c14.08,1.36,135.72-22.08,167.14-25.4,25.35-2.69,60.9,65.67,52.57,71.72-19.55,14.17-214.5,8.67-224.11,7.36S811.4,493.21,809.21,493s-27.6,19.88-36.32,19.76-9.08-4.25-8.61-6.37S774,491.66,774,491.66l-2.71.47S759,509.57,753.91,510.87s-11.08-5.07-11.08-5.07-5.07,3.89-9.55,4a13.53,13.53,0,0,1-7.78-2.36S721.62,508.21,721.62,504.36Z"/><path class="cls-20" d="M746.07,499.5s18.69-37.38,26.37-40.21,28-4.7,28.76-3.71,4.12,10.21,3.53,10.8-14,4.86-14,4.86-29.34,34.53-33.95,35S746.07,499.5,746.07,499.5Z"/><path class="cls-21" d="M727.24,500s17.42-44.89,23.22-46.6,35.54-10.66,35.75-9.86,2.17,7.21,1.71,8-17.08,4.34-17.08,4.34-30.49,46.82-31.69,47.38S727.24,500,727.24,500Z"/><path class="cls-22" d="M768.8,497.2s22.6-24.2,29.85-25.55,18.28,1,18.54,1.68,2.2,14.54,0,14.66-15.1-1.1-15.1-1.1S777.4,511.09,772.61,509,768.8,497.2,768.8,497.2Z"/><path class="cls-23" d="M769.05,500l-2.87-2.78c2.52-2.61,24.82-25.56,31.19-27.79s19.89-.17,20.45-.08l-.63,3.95c-3.58-.57-13.88-1.7-18.5-.09C794.57,474.68,778.32,490.44,769.05,500Z"/><path class="cls-24" d="M742.64,509l-3.49-1.95c2.6-4.67,25.64-45.68,32.77-49.54s28-5.83,28.91-5.92l.37,4c-5.81.54-22.07,2.58-27.37,5.45C769.23,463.52,752.26,491.77,742.64,509Z"/><path class="cls-25" d="M723.77,510c-.72-1-.73-2.3,1.07-7.28,2.3-6.34,7.49-18.17,13.23-30.15,9.75-20.36,11-20.68,12-21l35.83-9.38,1,3.87c-.32.08-30.71,8-35.33,9.25-3.46,4.5-24.2,48.1-24.23,53.08a1.4,1.4,0,0,0-.29-.75Z"/><path class="cls-26" d="M845,513.31c9.61,1.31,204.56,6.81,224.11-7.36,8.33-6.05-27.22-74.41-52.57-71.72-1.61.17-3.46.39-5.51.66,4.59.88,11.79,2.24,13,2.41,1.78.26,36,49.78,20.67,55.92S857.11,500,857.11,500c-28.33,7.85-47.56-13.67-47.56-13.67s-31.39,20.74-35.88,20.18c-3.25-.41-5.72-3.17-6.84-4.66-.7,1.09-1.33,2.08-1.78,2.88l-.89,3c.09,2.15,1.67,4.87,8.73,5,8.72.12,34.14-20,36.32-19.76S835.43,512,845,513.31Z"/><path class="cls-27" d="M693.27,157.2s6-67.42,20.51-84.28c0,0-7.77-20.22-10.91-16.73C688.13,72.61,686.25,124.65,693.27,157.2Z"/><path class="cls-28" d="M727.15,37s0-.17-.09-.45C727.11,36.87,727.15,37,727.15,37Z"/><path class="cls-29" d="M841.31,77.13C833,42.69,733.45,30.81,708.2,79.79c-11,25.31-14.79,63.62-16.61,104.81h0s-19.21,112.23,78.39,109c86.58-2.88,105.79-45.81,96.72-109.33h0C864,148.41,850.7,103.48,841.31,77.13Z"/><path class="cls-30" d="M881.57,44.68c-2.6-5.76-13.42-12.07-23.08-14.92A6.16,6.16,0,0,0,861,22.59a9.33,9.33,0,0,0-8,3.08c5.29-6.61.91-15.44.91-15.44-13.25,6.56-9.9,13.4-9.9,13.4-6.37-11.2-23.53-14-23.53-14,.22,1.62-.67,6.69,0,8.25C791.25.86,721.32,0,721.32,0a13.25,13.25,0,0,0-1,8.85C697.62,9.1,693,11.46,693,11.46c-2.85,27.23,0,40,8,50.48a38.51,38.51,0,0,0,11.92,10.43s15.39,6.9,40.72,5.66c18.46-.91,40.86-6.84,51.7-5.74,13.16,1.34,19.65,28.54,23.18,39.81,2,6.26,27.57,40.93,26.88,58.47C855,181.05,879,172.08,879,172.08s2.11-11.47,4.54-27.64C889.76,102.9,890.8,65.13,881.57,44.68Z"/><g class="cls-31"><ellipse class="cls-9" cx="802.5" cy="204.15" rx="39.46" ry="34.86" transform="matrix(0.03, -1, 1, 0.03, 570.88, 999.16)"/><ellipse class="cls-32" cx="802.5" cy="204.15" rx="39.2" ry="34.64" transform="matrix(0.03, -1, 1, 0.03, 570.87, 999.16)"/><ellipse class="cls-33" cx="802.5" cy="204.15" rx="38.95" ry="34.41" transform="translate(570.88 999.16) rotate(-88.03)"/><ellipse class="cls-34" cx="802.5" cy="204.15" rx="38.7" ry="34.19" transform="translate(570.88 999.16) rotate(-88.03)"/><ellipse class="cls-35" cx="802.5" cy="204.15" rx="38.44" ry="33.97" transform="translate(570.87 999.16) rotate(-88.03)"/><ellipse class="cls-36" cx="802.5" cy="204.15" rx="38.19" ry="33.74" transform="translate(570.88 999.16) rotate(-88.03)"/><ellipse class="cls-37" cx="802.5" cy="204.15" rx="37.94" ry="33.52" transform="matrix(0.03, -1, 1, 0.03, 570.88, 999.16)"/><ellipse class="cls-38" cx="802.5" cy="204.15" rx="37.69" ry="33.3" transform="translate(570.88 999.16) rotate(-88.03)"/><ellipse class="cls-39" cx="802.5" cy="204.15" rx="37.43" ry="33.07" transform="translate(570.88 999.16) rotate(-88.03)"/><ellipse class="cls-40" cx="802.5" cy="204.15" rx="37.18" ry="32.85" transform="translate(570.87 999.16) rotate(-88.03)"/><ellipse class="cls-41" cx="802.5" cy="204.15" rx="36.93" ry="32.63" transform="translate(570.88 999.16) rotate(-88.03)"/><ellipse class="cls-42" cx="802.5" cy="204.15" rx="36.67" ry="32.4" transform="translate(570.88 999.16) rotate(-88.03)"/><ellipse class="cls-43" cx="802.5" cy="204.15" rx="36.42" ry="32.18" transform="translate(570.87 999.16) rotate(-88.03)"/><ellipse class="cls-44" cx="802.5" cy="204.15" rx="36.17" ry="31.96" transform="translate(570.89 999.16) rotate(-88.03)"/><ellipse class="cls-45" cx="802.5" cy="204.15" rx="35.92" ry="31.73" transform="matrix(0.03, -1, 1, 0.03, 570.87, 999.16)"/><ellipse class="cls-46" cx="802.5" cy="204.15" rx="35.66" ry="31.51" transform="translate(570.87 999.16) rotate(-88.03)"/><ellipse class="cls-47" cx="802.5" cy="204.15" rx="35.41" ry="31.29" transform="translate(570.88 999.16) rotate(-88.03)"/><ellipse class="cls-48" cx="802.5" cy="204.15" rx="35.16" ry="31.06" transform="translate(570.88 999.16) rotate(-88.03)"/><ellipse class="cls-49" cx="802.5" cy="204.15" rx="34.9" ry="30.84" transform="translate(570.89 999.16) rotate(-88.03)"/><ellipse class="cls-50" cx="802.5" cy="204.15" rx="34.65" ry="30.62" transform="translate(570.88 999.16) rotate(-88.03)"/><ellipse class="cls-51" cx="802.5" cy="204.15" rx="34.4" ry="30.39" transform="translate(570.87 999.16) rotate(-88.03)"/><ellipse class="cls-52" cx="802.5" cy="204.15" rx="34.14" ry="30.17" transform="matrix(0.03, -1, 1, 0.03, 570.88, 999.16)"/><ellipse class="cls-53" cx="802.5" cy="204.15" rx="33.89" ry="29.95" transform="translate(570.88 999.16) rotate(-88.03)"/><ellipse class="cls-54" cx="802.5" cy="204.15" rx="33.64" ry="29.72" transform="translate(570.88 999.16) rotate(-88.03)"/><ellipse class="cls-55" cx="802.5" cy="204.15" rx="33.39" ry="29.5" transform="translate(570.88 999.16) rotate(-88.03)"/><ellipse class="cls-56" cx="802.5" cy="204.15" rx="33.13" ry="29.27" transform="translate(570.87 999.16) rotate(-88.03)"/><ellipse class="cls-57" cx="802.5" cy="204.15" rx="32.88" ry="29.05" transform="translate(570.88 999.16) rotate(-88.03)"/><ellipse class="cls-58" cx="802.5" cy="204.15" rx="32.63" ry="28.83" transform="translate(570.88 999.16) rotate(-88.03)"/><ellipse class="cls-59" cx="802.5" cy="204.15" rx="32.37" ry="28.6" transform="translate(570.88 999.16) rotate(-88.03)"/><ellipse class="cls-60" cx="802.5" cy="204.15" rx="32.12" ry="28.38" transform="translate(570.88 999.16) rotate(-88.03)"/><ellipse class="cls-61" cx="802.5" cy="204.15" rx="31.87" ry="28.16" transform="translate(570.88 999.16) rotate(-88.03)"/><ellipse class="cls-62" cx="802.5" cy="204.15" rx="31.62" ry="27.93" transform="matrix(0.03, -1, 1, 0.03, 570.87, 999.16)"/><ellipse class="cls-63" cx="802.5" cy="204.15" rx="31.36" ry="27.71" transform="matrix(0.03, -1, 1, 0.03, 570.88, 999.16)"/><ellipse class="cls-64" cx="802.5" cy="204.15" rx="31.11" ry="27.49" transform="translate(570.89 999.16) rotate(-88.03)"/><ellipse class="cls-65" cx="802.5" cy="204.15" rx="30.86" ry="27.26" transform="translate(570.87 999.16) rotate(-88.03)"/><ellipse class="cls-66" cx="802.5" cy="204.15" rx="30.6" ry="27.04" transform="translate(570.88 999.16) rotate(-88.03)"/><ellipse class="cls-67" cx="802.5" cy="204.15" rx="30.35" ry="26.82" transform="translate(570.88 999.16) rotate(-88.03)"/><ellipse class="cls-68" cx="802.5" cy="204.15" rx="30.1" ry="26.59" transform="translate(570.88 999.16) rotate(-88.03)"/><ellipse class="cls-69" cx="802.5" cy="204.15" rx="29.85" ry="26.37" transform="translate(570.88 999.16) rotate(-88.03)"/><ellipse class="cls-70" cx="802.5" cy="204.15" rx="29.59" ry="26.15" transform="translate(570.88 999.16) rotate(-88.03)"/><ellipse class="cls-70" cx="802.5" cy="204.15" rx="29.34" ry="25.92" transform="translate(570.88 999.16) rotate(-88.03)"/><ellipse class="cls-71" cx="802.5" cy="204.15" rx="29.09" ry="25.7" transform="translate(570.88 999.16) rotate(-88.03)"/><ellipse class="cls-72" cx="802.5" cy="204.15" rx="28.83" ry="25.48" transform="translate(570.88 999.16) rotate(-88.03)"/><ellipse class="cls-73" cx="802.5" cy="204.15" rx="28.58" ry="25.25" transform="translate(570.88 999.16) rotate(-88.03)"/><ellipse class="cls-74" cx="802.5" cy="204.15" rx="28.33" ry="25.03" transform="translate(570.87 999.16) rotate(-88.03)"/><ellipse class="cls-75" cx="802.5" cy="204.15" rx="28.07" ry="24.81" transform="translate(570.87 999.16) rotate(-88.03)"/><ellipse class="cls-76" cx="802.5" cy="204.15" rx="27.82" ry="24.58" transform="translate(570.88 999.16) rotate(-88.03)"/><ellipse class="cls-77" cx="802.5" cy="204.15" rx="27.57" ry="24.36" transform="translate(570.88 999.16) rotate(-88.03)"/><ellipse class="cls-78" cx="802.5" cy="204.15" rx="27.32" ry="24.14" transform="translate(570.89 999.16) rotate(-88.03)"/><ellipse class="cls-79" cx="802.5" cy="204.15" rx="27.06" ry="23.91" transform="translate(570.88 999.16) rotate(-88.03)"/><ellipse class="cls-80" cx="802.5" cy="204.15" rx="26.81" ry="23.69" transform="translate(570.87 999.16) rotate(-88.03)"/><ellipse class="cls-81" cx="802.5" cy="204.15" rx="26.56" ry="23.46" transform="matrix(0.03, -1, 1, 0.03, 570.88, 999.16)"/><ellipse class="cls-82" cx="802.5" cy="204.15" rx="26.3" ry="23.24" transform="translate(570.88 999.16) rotate(-88.03)"/><ellipse class="cls-83" cx="802.5" cy="204.15" rx="26.05" ry="23.02" transform="translate(570.88 999.16) rotate(-88.03)"/><ellipse class="cls-84" cx="802.5" cy="204.15" rx="25.8" ry="22.79" transform="translate(570.88 999.16) rotate(-88.03)"/><ellipse class="cls-85" cx="802.5" cy="204.15" rx="25.55" ry="22.57" transform="translate(570.87 999.16) rotate(-88.03)"/><ellipse class="cls-86" cx="802.5" cy="204.15" rx="25.29" ry="22.35" transform="translate(570.87 999.16) rotate(-88.03)"/><ellipse class="cls-87" cx="802.5" cy="204.15" rx="25.04" ry="22.12" transform="translate(570.88 999.16) rotate(-88.03)"/><ellipse class="cls-88" cx="802.5" cy="204.15" rx="24.79" ry="21.9" transform="translate(570.88 999.16) rotate(-88.03)"/><ellipse class="cls-89" cx="802.5" cy="204.15" rx="24.53" ry="21.68" transform="matrix(0.03, -1, 1, 0.03, 570.89, 999.16)"/><ellipse class="cls-90" cx="802.5" cy="204.15" rx="24.28" ry="21.45" transform="translate(570.88 999.16) rotate(-88.03)"/><ellipse class="cls-91" cx="802.5" cy="204.15" rx="24.03" ry="21.23" transform="translate(570.88 999.16) rotate(-88.03)"/><ellipse class="cls-92" cx="802.5" cy="204.15" rx="23.78" ry="21.01" transform="translate(570.88 999.16) rotate(-88.03)"/><ellipse class="cls-93" cx="802.5" cy="204.15" rx="23.52" ry="20.78" transform="translate(570.88 999.16) rotate(-88.03)"/><ellipse class="cls-94" cx="802.5" cy="204.15" rx="23.27" ry="20.56" transform="translate(570.87 999.16) rotate(-88.03)"/><ellipse class="cls-95" cx="802.5" cy="204.15" rx="23.02" ry="20.34" transform="translate(570.88 999.16) rotate(-88.03)"/><ellipse class="cls-96" cx="802.5" cy="204.15" rx="22.76" ry="20.11" transform="translate(570.88 999.16) rotate(-88.03)"/><ellipse class="cls-97" cx="802.5" cy="204.15" rx="22.51" ry="19.89" transform="translate(570.87 999.16) rotate(-88.03)"/><ellipse class="cls-98" cx="802.5" cy="204.15" rx="22.26" ry="19.67" transform="translate(570.88 999.16) rotate(-88.03)"/><ellipse class="cls-99" cx="802.5" cy="204.15" rx="22" ry="19.44" transform="translate(570.87 999.16) rotate(-88.03)"/><ellipse class="cls-100" cx="802.5" cy="204.15" rx="21.75" ry="19.22" transform="translate(570.88 999.16) rotate(-88.03)"/><ellipse class="cls-101" cx="802.5" cy="204.15" rx="21.5" ry="19" transform="translate(570.88 999.16) rotate(-88.03)"/><path class="cls-102" d="M821.26,203c.48,11.72-7.53,21.73-17.89,22.37s-19.14-8.33-19.62-20.05,7.53-21.73,17.89-22.37S820.78,191.28,821.26,203Z"/><ellipse class="cls-103" cx="802.5" cy="204.15" rx="20.99" ry="18.55" transform="translate(570.89 999.16) rotate(-88.03)"/><ellipse class="cls-104" cx="802.5" cy="204.15" rx="20.74" ry="18.32" transform="matrix(0.03, -1, 1, 0.03, 570.87, 999.16)"/><ellipse class="cls-105" cx="802.5" cy="204.15" rx="20.49" ry="18.1" transform="translate(570.87 999.16) rotate(-88.03)"/><ellipse class="cls-106" cx="802.5" cy="204.15" rx="20.23" ry="17.88" transform="matrix(0.03, -1, 1, 0.03, 570.88, 999.16)"/><ellipse class="cls-107" cx="802.5" cy="204.15" rx="19.98" ry="17.65" transform="translate(570.88 999.16) rotate(-88.03)"/><ellipse class="cls-108" cx="802.5" cy="204.15" rx="19.73" ry="17.43" transform="translate(570.87 999.16) rotate(-88.03)"/></g><ellipse class="cls-9" cx="881.46" cy="192.46" rx="27.72" ry="19.3" transform="translate(515.85 1017.29) rotate(-78.41)"/><path class="cls-109" d="M891.65,200.06c-9.18,6.58-21.88,5.07-29.78-.63-2.72,8-1.13,24-1.13,24s12.53-4.44,13.61-4.14c12.09,3.33,21.54-6.39,25.29-21.21a38.66,38.66,0,0,0,1.16-11.21A23.48,23.48,0,0,1,891.65,200.06Z"/><path class="cls-110" d="M873.82,192.86l9.2.89c-1.18-14.3,9.11-19.53,9.11-19.53C874.36,168.77,873.82,192.86,873.82,192.86Z"/><path class="cls-111" d="M814.36,222.51l0,.07A.31.31,0,0,0,814.36,222.51Z"/><g class="cls-31"><ellipse class="cls-9" cx="723.09" cy="203.84" rx="30.88" ry="39.99" transform="translate(-27.91 183.82) rotate(-14.22)"/><ellipse class="cls-32" cx="723.09" cy="203.84" rx="30.69" ry="39.74" transform="translate(-27.91 183.81) rotate(-14.22)"/><ellipse class="cls-33" cx="723.09" cy="203.84" rx="30.49" ry="39.48" transform="translate(-27.91 183.81) rotate(-14.22)"/><ellipse class="cls-34" cx="723.09" cy="203.84" rx="30.29" ry="39.22" transform="translate(-27.91 183.81) rotate(-14.22)"/><ellipse class="cls-35" cx="723.09" cy="203.84" rx="30.09" ry="38.97" transform="translate(-27.91 183.81) rotate(-14.22)"/><ellipse class="cls-36" cx="723.09" cy="203.84" rx="29.89" ry="38.71" transform="translate(-27.91 183.81) rotate(-14.22)"/><ellipse class="cls-37" cx="723.09" cy="203.84" rx="29.7" ry="38.45" transform="translate(-27.91 183.81) rotate(-14.22)"/><ellipse class="cls-38" cx="723.09" cy="203.84" rx="29.5" ry="38.2" transform="translate(-27.91 183.81) rotate(-14.22)"/><ellipse class="cls-39" cx="723.09" cy="203.84" rx="29.3" ry="37.94" transform="translate(-27.91 183.81) rotate(-14.22)"/><ellipse class="cls-40" cx="723.09" cy="203.84" rx="29.1" ry="37.69" transform="translate(-27.91 183.81) rotate(-14.22)"/><ellipse class="cls-41" cx="723.09" cy="203.84" rx="28.9" ry="37.43" transform="translate(-27.91 183.81) rotate(-14.22)"/><ellipse class="cls-42" cx="723.09" cy="203.84" rx="28.71" ry="37.17" transform="translate(-27.91 183.81) rotate(-14.22)"/><ellipse class="cls-43" cx="723.09" cy="203.84" rx="28.51" ry="36.92" transform="translate(-27.91 183.81) rotate(-14.22)"/><ellipse class="cls-44" cx="723.09" cy="203.84" rx="28.31" ry="36.66" transform="translate(-27.91 183.81) rotate(-14.22)"/><ellipse class="cls-45" cx="723.09" cy="203.84" rx="28.11" ry="36.4" transform="translate(-27.91 183.81) rotate(-14.22)"/><ellipse class="cls-46" cx="723.09" cy="203.84" rx="27.91" ry="36.15" transform="translate(-27.91 183.82) rotate(-14.22)"/><ellipse class="cls-47" cx="723.09" cy="203.84" rx="27.72" ry="35.89" transform="translate(-27.91 183.82) rotate(-14.22)"/><ellipse class="cls-48" cx="723.09" cy="203.84" rx="27.52" ry="35.63" transform="translate(-27.91 183.81) rotate(-14.22)"/><ellipse class="cls-49" cx="723.09" cy="203.84" rx="27.32" ry="35.38" transform="translate(-27.91 183.81) rotate(-14.22)"/><ellipse class="cls-50" cx="723.09" cy="203.84" rx="27.12" ry="35.12" transform="translate(-27.91 183.81) rotate(-14.22)"/><ellipse class="cls-51" cx="723.09" cy="203.84" rx="26.93" ry="34.87" transform="translate(-27.91 183.81) rotate(-14.22)"/><ellipse class="cls-52" cx="723.09" cy="203.84" rx="26.73" ry="34.61" transform="translate(-27.91 183.81) rotate(-14.22)"/><ellipse class="cls-53" cx="723.09" cy="203.84" rx="26.53" ry="34.35" transform="translate(-27.91 183.81) rotate(-14.22)"/><ellipse class="cls-54" cx="723.09" cy="203.84" rx="26.33" ry="34.1" transform="translate(-27.91 183.81) rotate(-14.22)"/><ellipse class="cls-55" cx="723.09" cy="203.84" rx="26.13" ry="33.84" transform="translate(-27.91 183.81) rotate(-14.22)"/><ellipse class="cls-56" cx="723.09" cy="203.84" rx="25.94" ry="33.58" transform="translate(-27.91 183.81) rotate(-14.22)"/><ellipse class="cls-57" cx="723.09" cy="203.84" rx="25.74" ry="33.33" transform="translate(-27.91 183.82) rotate(-14.22)"/><ellipse class="cls-58" cx="723.09" cy="203.84" rx="25.54" ry="33.07" transform="translate(-27.91 183.82) rotate(-14.22)"/><ellipse class="cls-59" cx="723.09" cy="203.84" rx="25.34" ry="32.81" transform="translate(-27.91 183.82) rotate(-14.22)"/><ellipse class="cls-60" cx="723.09" cy="203.84" rx="25.14" ry="32.56" transform="translate(-27.91 183.81) rotate(-14.22)"/><ellipse class="cls-61" cx="723.09" cy="203.84" rx="24.95" ry="32.3" transform="translate(-27.91 183.81) rotate(-14.22)"/><ellipse class="cls-62" cx="723.09" cy="203.84" rx="24.75" ry="32.05" transform="translate(-27.91 183.81) rotate(-14.22)"/><ellipse class="cls-63" cx="723.09" cy="203.84" rx="24.55" ry="31.79" transform="translate(-27.91 183.81) rotate(-14.22)"/><ellipse class="cls-64" cx="723.09" cy="203.84" rx="24.35" ry="31.53" transform="translate(-27.91 183.81) rotate(-14.22)"/><ellipse class="cls-65" cx="723.09" cy="203.84" rx="24.15" ry="31.28" transform="translate(-27.91 183.81) rotate(-14.22)"/><ellipse class="cls-66" cx="723.09" cy="203.84" rx="23.96" ry="31.02" transform="translate(-27.91 183.81) rotate(-14.22)"/><ellipse class="cls-67" cx="723.09" cy="203.84" rx="23.76" ry="30.76" transform="translate(-27.91 183.82) rotate(-14.22)"/><ellipse class="cls-68" cx="723.09" cy="203.84" rx="23.56" ry="30.51" transform="translate(-27.91 183.82) rotate(-14.22)"/><ellipse class="cls-69" cx="723.09" cy="203.84" rx="23.36" ry="30.25" transform="translate(-27.91 183.82) rotate(-14.22)"/><ellipse class="cls-70" cx="723.09" cy="203.84" rx="23.16" ry="29.99" transform="translate(-27.91 183.81) rotate(-14.22)"/><ellipse class="cls-70" cx="723.09" cy="203.84" rx="22.97" ry="29.74" transform="translate(-27.91 183.81) rotate(-14.22)"/><ellipse class="cls-71" cx="723.09" cy="203.84" rx="22.77" ry="29.48" transform="translate(-27.91 183.81) rotate(-14.22)"/><ellipse class="cls-72" cx="723.09" cy="203.84" rx="22.57" ry="29.23" transform="translate(-27.91 183.81) rotate(-14.22)"/><ellipse class="cls-73" cx="723.09" cy="203.84" rx="22.37" ry="28.97" transform="translate(-27.91 183.81) rotate(-14.22)"/><ellipse class="cls-74" cx="723.09" cy="203.84" rx="22.17" ry="28.71" transform="translate(-27.91 183.81) rotate(-14.22)"/><ellipse class="cls-75" cx="723.09" cy="203.84" rx="21.98" ry="28.46" transform="translate(-27.91 183.81) rotate(-14.22)"/><ellipse class="cls-76" cx="723.09" cy="203.84" rx="21.78" ry="28.2" transform="translate(-27.91 183.82) rotate(-14.22)"/><ellipse class="cls-77" cx="723.09" cy="203.84" rx="21.58" ry="27.94" transform="translate(-27.91 183.82) rotate(-14.22)"/><ellipse class="cls-78" cx="723.09" cy="203.84" rx="21.38" ry="27.69" transform="translate(-27.91 183.82) rotate(-14.22)"/><ellipse class="cls-79" cx="723.09" cy="203.84" rx="21.18" ry="27.43" transform="translate(-27.91 183.81) rotate(-14.22)"/><ellipse class="cls-80" cx="723.09" cy="203.84" rx="20.99" ry="27.17" transform="translate(-27.91 183.81) rotate(-14.22)"/><ellipse class="cls-81" cx="723.09" cy="203.84" rx="20.79" ry="26.92" transform="translate(-27.91 183.82) rotate(-14.22)"/><ellipse class="cls-82" cx="723.09" cy="203.84" rx="20.59" ry="26.66" transform="translate(-27.91 183.81) rotate(-14.22)"/><ellipse class="cls-83" cx="723.09" cy="203.84" rx="20.39" ry="26.41" transform="translate(-27.91 183.81) rotate(-14.22)"/><ellipse class="cls-84" cx="723.09" cy="203.84" rx="20.19" ry="26.15" transform="translate(-27.91 183.81) rotate(-14.22)"/><ellipse class="cls-85" cx="723.09" cy="203.84" rx="20" ry="25.89" transform="translate(-27.91 183.81) rotate(-14.22)"/><ellipse class="cls-86" cx="723.09" cy="203.84" rx="19.8" ry="25.64" transform="translate(-27.91 183.81) rotate(-14.22)"/><ellipse class="cls-87" cx="723.09" cy="203.84" rx="19.6" ry="25.38" transform="translate(-27.91 183.82) rotate(-14.22)"/><path class="cls-88" d="M742.58,202.54c1.92,13.68-5.26,25.36-16,26.08s-21-9.79-23-23.48,5.26-25.36,16-26.08S740.66,188.85,742.58,202.54Z"/><ellipse class="cls-89" cx="723.09" cy="203.84" rx="19.2" ry="24.87" transform="translate(-27.91 183.81) rotate(-14.22)"/><ellipse class="cls-90" cx="723.09" cy="203.84" rx="19.01" ry="24.61" transform="translate(-27.91 183.81) rotate(-14.22)"/><ellipse class="cls-91" cx="723.09" cy="203.84" rx="18.81" ry="24.35" transform="translate(-27.91 183.81) rotate(-14.22)"/><ellipse class="cls-92" cx="723.09" cy="203.84" rx="18.61" ry="24.1" transform="translate(-27.91 183.81) rotate(-14.22)"/><ellipse class="cls-93" cx="723.09" cy="203.84" rx="18.41" ry="23.84" transform="translate(-27.92 183.82) rotate(-14.22)"/><ellipse class="cls-94" cx="723.09" cy="203.84" rx="18.21" ry="23.59" transform="translate(-27.91 183.81) rotate(-14.22)"/><ellipse class="cls-95" cx="723.09" cy="203.84" rx="18.02" ry="23.33" transform="translate(-27.91 183.81) rotate(-14.22)"/><ellipse class="cls-96" cx="723.09" cy="203.84" rx="17.82" ry="23.07" transform="translate(-27.91 183.81) rotate(-14.22)"/><path class="cls-97" d="M740.79,202.66c1.74,12.43-4.77,23-14.55,23.68s-19.11-8.89-20.85-21.32,4.78-23,14.55-23.69S739.05,190.23,740.79,202.66Z"/><ellipse class="cls-98" cx="723.09" cy="203.84" rx="17.42" ry="22.56" transform="translate(-27.91 183.81) rotate(-14.22)"/><ellipse class="cls-99" cx="723.09" cy="203.84" rx="17.22" ry="22.3" transform="translate(-27.91 183.81) rotate(-14.22)"/><ellipse class="cls-100" cx="723.09" cy="203.84" rx="17.03" ry="22.05" transform="translate(-27.91 183.81) rotate(-14.22)"/><ellipse class="cls-101" cx="723.09" cy="203.84" rx="16.83" ry="21.79" transform="translate(-27.91 183.81) rotate(-14.22)"/><ellipse class="cls-102" cx="723.09" cy="203.84" rx="16.63" ry="21.53" transform="translate(-27.91 183.82) rotate(-14.22)"/><path class="cls-103" d="M739.6,202.74c1.62,11.59-4.45,21.48-13.57,22.09s-17.82-8.3-19.44-19.89,4.45-21.48,13.56-22.09S738,191.14,739.6,202.74Z"/><ellipse class="cls-104" cx="723.09" cy="203.84" rx="16.23" ry="21.02" transform="translate(-27.91 183.82) rotate(-14.22)"/><path class="cls-105" d="M739.2,202.76c1.58,11.32-4.34,21-13.24,21.56s-17.39-8.09-19-19.41,4.35-21,13.24-21.55S737.61,191.45,739.2,202.76Z"/><ellipse class="cls-106" cx="723.09" cy="203.84" rx="15.84" ry="20.51" transform="translate(-27.91 183.81) rotate(-14.22)"/><ellipse class="cls-107" cx="723.09" cy="203.84" rx="15.64" ry="20.25" transform="translate(-27.91 183.82) rotate(-14.22)"/><ellipse class="cls-108" cx="723.09" cy="203.84" rx="15.44" ry="20" transform="translate(-27.91 183.81) rotate(-14.22)"/></g><path class="cls-112" d="M720.09,245.51c-.1.31-1.36,4,6,4s19.58-6.27,29.43-5.83,22.83,7.66,27.63,6,5.61-9.42,4.67-10.75-19.32-10.75-36.78-9S721.34,241.89,720.09,245.51Z"/><path class="cls-113" d="M864.76,32.83c.12-.06.64-.42.76-.47a46.85,46.85,0,0,0-7-2.6c-3.17.7-4.48,1.37-7.85,2.24-10,2.6-23.63,2.24-35,.56-12.21-1.81-22.5-7.43-33.7-12C776.25,18.31,770.61,16,764.82,14c-12.41-4.2-27-8.22-40.21-7.22a40,40,0,0,0-4.51.6,9.1,9.1,0,0,0,.27,1.45c-2.4,0-4.59.08-6.6.15a79.5,79.5,0,0,0-7.86,3,39.71,39.71,0,0,0-12.95,9,12.65,12.65,0,0,1-.84,1.16,108,108,0,0,0,0,13.32,72.79,72.79,0,0,1,9-5,37.82,37.82,0,0,1,10.67-3c15.7-1.82,30.82,3.35,45.5,8.12,6,1.95,12.14,4.27,18.61,6.38S789,46.1,796,47.71c11.75,2.71,25.87,3.06,37.34-.46,1.55-.47,15.57-5.93,20-8.27S861.43,34.47,864.76,32.83Z"/><path class="cls-114" d="M767.22,137.67a45,45,0,0,0,6.91,32.12s5.64,3.37,21,3c6.91-.16,26.8-2.25,26.8-2.25s2.43-5.45-1.3-17C817.62,144.23,767.22,137.67,767.22,137.67Z"/><path class="cls-115" d="M695,155.75a45.05,45.05,0,0,0-1.17,15.47l4.45,3.78,38.27-3.4c13.59-15.09,5.56-34.91,5.56-34.91S697.11,147.37,695,155.75Z"/><path class="cls-116" d="M713.88,171.88c-14.78.94-18.62.57-18.62.57s.19,7.74,17,7.67c18.92-.07,25.09-8.07,24.39-9.55S725.88,171.12,713.88,171.88Z"/><path class="cls-111" d="M815.9,223.86l0,.07A.31.31,0,0,0,815.9,223.86Z"/><path class="cls-117" d="M870.85,171.72l-15.44-1.15c.16,18.82-2.15,27.73-9.17,38-12.56,18.29-38.92,31.88-38.92,31.88-1.44-5-19.49-28.29-56.12-27.46-34.14.77-39.91,20.17-43,27.93-.79,2-11-8.9-15.37-20.69-2.5-6.81-2.58-22.06-2.58-22.06l-1.4,1c-9.19,53.59,1.26,107,82.52,103C864.78,297.54,872,219.77,872,219.77,855.85,196.09,870.85,171.72,870.85,171.72ZM752.64,259.35c-18.68.54-30.72,3.68-33.87.22-4.29-4.73,5.07-25.56,32.31-26.64s44.73,18.29,42,24.93C790.24,264.8,770.7,258.82,752.64,259.35Z"/><path class="cls-118" d="M751.49,228.26c13.74-1.76,19.26-7.92,21.49-12.69A82.32,82.32,0,0,0,751.2,213h0c-2.55,0-5,.23-7.22.44a49.94,49.94,0,0,0-18.34,5.31C728.2,223.16,735,230.39,751.49,228.26Z"/><path class="cls-9" d="M751.4,172.16c-.18,5.36-.64,14-6.82,16.73-5.3,2.34-17.83-.3-20.84,14.17-3.81,18.38,34.79,25.72,43.49,6.35,4.87-10.84-.62-26.19-7.53-37.81Z"/><path class="cls-119" d="M739.51,208.89a76.12,76.12,0,0,1-15.92-1.75c2.17,15.28,35.61,20.13,43.64,2.27a20.41,20.41,0,0,0,1.26-3.85C759.38,208.46,748.82,209,739.51,208.89Z"/><path class="cls-120" d="M755.94,175.83l-4.32.29s-.52,10.12-3.72,13c-1.18,1.06-3.79,1.85-6.18,2-7.14.38-12.89,2.42-12.79,5.51s6,5.36,13.12,5.35c6.71,0,11.45-1.9,13.89-4.61C759.27,193.69,759.21,181.62,755.94,175.83Z"/><path class="cls-121" d="M842.67,49.5a112.18,112.18,0,0,1-48.6,23.3,53.13,53.13,0,0,1,11.28-.51,11.9,11.9,0,0,1,6.72,3.21,102.09,102.09,0,0,0,35-21.43C849.63,51.65,845.41,47.28,842.67,49.5Z"/><path class="cls-121" d="M761.61,267.28c-5.06-1.33-12.88-.74-17.49,1.79a4.94,4.94,0,0,0-1.9,6.93c1.38,2.29,4.17,3.38,6.71,3.76,4.8.72,10,.56,14.34-1.8s5.48-7.24.64-9.8A10.13,10.13,0,0,0,761.61,267.28Z"/><path class="cls-116" d="M773.74,169.2c-1,.83-1.43,8,23.9,8.83,23,.74,25.44-8.46,25.07-8.84-1-1-7.62.84-25.25.64C779.34,169.64,774.26,168.76,773.74,169.2Z"/><path class="cls-122" d="M695.63,154.35s16.12-15.72,46.46-17.66c0,0-.28,10.74-5.9,13.74s-41.43,7.2-41.43,7.2S694.74,155.29,695.63,154.35Z"/><path class="cls-123" d="M767.22,137.67s-2.9,10.65,3.79,13.93,49.62,2,49.62,2a15.48,15.48,0,0,0-5.79-8C808.59,141.37,775,136.11,767.22,137.67Z"/><path class="cls-9" d="M629.19,168.82s30.51-55.55,35.74-61S701.87,68.69,712,65.44s38.64-7.7,42.53-3.21S751.13,75,751.13,75s28.28,1.58,32.73,9.16-9.28,14.63-9.28,14.63,10.16.21,13.7,5.91-3.19,11.54-3.19,11.54,2.22,5.7-4.91,12.42-51,10.43-51,10.43-23.1,19.37-24.77,22.07-14.65,41-26.06,44.15S612.45,226.9,616.11,217C619.24,208.47,629.19,168.82,629.19,168.82Z"/><path class="cls-124" d="M722.34,75.85s18.77-.73,29.26-1.46c1.54-1.93,6.19-8.37,2.91-12.16-3.89-4.49-32.42,0-42.53,3.21-7.05,2.27-24.59,19.29-36.35,31.25,1.48,1.49,4.55,4.64,4.6,4.73S722.34,75.85,722.34,75.85Z"/><path class="cls-125" d="M788.28,104.65c-3.54-5.7-13.7-5.91-13.7-5.91s.54-.28,1.37-.78c-1-.31-1.65-.49-1.65-.49s-40.94-1.75-42.49-1.54-41.12,16.59-41.12,16.59c.18.34,5.27,15.67,6.22,16S739.8,115,740,115s42,1.54,43.73.41c1.18-.76,4.24-4.86,5.48-8.15A6.5,6.5,0,0,0,788.28,104.65Z"/><path class="cls-126" d="M778.24,96.44c3.71-2.68,8.52-7.39,5.62-12.33C779.41,76.53,751.13,75,751.13,75s.22-.24.55-.66c-3.75-.45-6.35-.69-6.68-.69-1.31,0-23.07,2.14-24.1,2.62s-40,26.32-40,26.32,7.61,7.87,8.09,7.87S733.6,93.14,733.6,93.14,767.55,96.07,778.24,96.44Z"/><path class="cls-127" d="M758.14,75.59c-4.1-.47-7-.64-7-.64a24.72,24.72,0,0,0,2.1-2.84c-9.18.38-29.6,1.3-31.53,2-2.5.9-42.06,26.27-42.06,26.27a26.64,26.64,0,0,0,1.9,3.06c.5.52,39.21-25.24,41.26-26.23s35.37-1.32,35.37-1.32Z"/><path class="cls-128" d="M774.58,98.74a31.8,31.8,0,0,0,3.25-2C767,95.9,735.6,94,733.1,94.34c-3,.38-42.87,16.88-42.87,16.88s.4,2,1.47,2.43,39.4-15.58,41.53-16c1.88-.35,38.5,1.47,46.88,1.89A27.7,27.7,0,0,0,774.58,98.74Z"/><path class="cls-129" d="M696.75,129.52c-.07.51,4.62,13.61,8.19,13.61S731.7,132,733.43,131.48s45.79-1.15,48.56-6.22.35-9,0-9.23-36.33-3.46-43.14-1.27S696.75,129.52,696.75,129.52Z"/><path class="cls-130" d="M785.14,116.33l0-.14a12.64,12.64,0,0,0,1.11-1.12c-.88-.91-45.06-1.86-47.91-1.5s-42.57,14.09-42.57,14.09.4,2.56,2.09,3.36,42.74-14.25,42.74-14.25l40.05,1.13c1,1.85,2.9,6.64-3.16,9.91-7.66,4.13-48.13,6.9-48.13,6.9s-26,19.11-27.75,22.92-8,23.7-17.26,32.13c-8,7.25-24.55,11.84-25.22,13.05a15.13,15.13,0,0,0-1.21,4.28c0,.4,13.66,3.08,14.19,4.55S656.44,284.36,656.22,317,651.29,444.36,641,460.23s-39.25,29.7-42.47,29-31.74-21.91-36.25-33.93c-2.55-6.8-4.61-16.28-5.93-23.23-2.93,14.43-4.53,24.88-4.22,29.14,1.8,25,38.18,44.62,49.38,44.58s38.85-11.71,51.21-35.22c13.4-25.47,12.54-137.59,12-162.52-.53-23.52,12.07-94.78,13.5-102.76l.13,0c11.41-3.1,24.38-41.44,26.06-44.15S729.16,139,729.16,139s43.89-3.72,51-10.43c6.5-6.13,5.23-11.4,5-12.28Z"/><path class="cls-131" d="M858.56,498.46,485.1,493.22a5.19,5.19,0,0,0-5.18,4.22l-1.77,9.23a5.2,5.2,0,0,0,5.1,6.17l375.23.55a5,5,0,0,0,5-5v-5A5,5,0,0,0,858.56,498.46Z"/><path class="cls-132" d="M1108.47,449.78c-7.88-16.65-26.27-30.12-26.27-30.12l-3.41,5.83c19.22,14.23,25.81,47.69,26.41,56.83a46.32,46.32,0,0,0,3.84-8.26C1109.9,471.46,1109.66,462.69,1108.47,449.78Z"/><path class="cls-133" d="M1034.92,483.86c.85-3.75-16.14-38.49-24.06-48.94-38.26,5-148.08,26-161.42,24.71-.88-.09,9.16,26.3,12.62,28.28C866.43,490.41,1033.94,488.23,1034.92,483.86Z"/><path class="cls-134" d="M990.18,505.23c-2,0-3.25-.11-3.45-.13l1.54-16.93c3.88.33,15.46-.15,22-6.14,3.68-3.38,5.47-8.23,5.47-14.8S1014,456,1010.33,452.7c-6.44-5.79-18-6-21.89-5.56l-1.91-16.89c2.19-.26,21.79-2.12,35.07,9.72,5.07,4.52,11.11,12.91,11.11,27.26,0,11.48-3.72,20.7-11.06,27.4C1011.33,504.06,996.77,505.23,990.18,505.23Z"/><path class="cls-135" d="M1054.06,476.06a33.78,33.78,0,0,0,.19-6.36c0-.15,4.89,0,4.89,0-.25-4.3-.79-10.25-.7-14.56,0-.12-4.39.05-4.38-.07.09-3.41-.21-6.06.5-6.45,2.41-1.34,229.62.77,231.23,2.36s2.27,27.83,2.27,27.83Z"/><path class="cls-136" d="M1164.1,477.36l124,1.46s-.66-26.24-2.27-27.83c-.84-.82-62.73-1.79-122.27-2.34C1169.68,456.85,1169,468.29,1164.1,477.36Z"/><path class="cls-137" d="M995,513.39c2-15.39,2.83-98.13,2.37-98.13H906.45s-.13,88.12,3,98.13Z"/><path class="cls-138" d="M1046.91,474.8l-.14,7.09,6.11.21-.46,23-6.15.1-.18,8.87s260,.43,260.83-1,3-32.48,0-35.55S1046.91,474.8,1046.91,474.8Z"/><path class="cls-139" d="M1306.9,477.51c-1.56-1.6-71.8-2.26-138.88-2.54v.55a4.27,4.27,0,0,1,.37.81c4.09,12.25,4.56,24.8-.37,36.56v1.25c67.7-.07,138.45-.32,138.9-1.08C1307.77,511.59,1309.9,480.58,1306.9,477.51Z"/><path class="cls-140" d="M5.72,510.87H1353a6.8,6.8,0,0,1,6.8,6.8V550a6.8,6.8,0,0,1-6.8,6.8H5.72A5.72,5.72,0,0,1,0,551.13V516.59A5.72,5.72,0,0,1,5.72,510.87Z"/><path class="cls-141" d="M1353,510.87H1138v46h215a6.8,6.8,0,0,0,6.79-6.8V517.67A6.79,6.79,0,0,0,1353,510.87Z"/><path class="cls-142" d="M249.56,456.94c-13.3,35-27.57,72.59-48.69,99.9h8.63c.93-1.16,2-2.67,3-4.22,18.6-27.42,31.85-62.37,43.56-93.19,17.89-47.11,32.48-88,59.48-88l1.92-6.78C285.5,364.64,268.37,407.41,249.56,456.94Z"/><path class="cls-143" d="M1160.72,482.32c-1.25-1.45-112.46-.39-112.46-.39h0c5.4,5.91,3.12,16-.6,23.3,10.72,0,112.74.56,113.06,0C1162.74,501.66,1162.74,484.65,1160.72,482.32Z"/><path class="cls-143" d="M1054.66,455.12s100.57-.89,102.64,1,.34,12.54,0,13.58-102.24,0-102.24,0,2.56-2.55,2.56-7.76S1054.66,455.12,1054.66,455.12Z"/><path class="cls-144" d="M939.9,436.89c.24-5.22-5-9.54-9.91-9.41-5.58.14-9.13,4.67-9.42,9.91a281.22,281.22,0,0,0-.15,33.23c.8,12.31,19.41,11.94,19.24-.5C939.5,459,939.37,448,939.9,436.89Z"/><path class="cls-144" d="M941.62,491.72c-.3-2.5-1-5.05-3-6.78a9.91,9.91,0,0,0-5.63-2.52,9.24,9.24,0,0,0-6.15,1.31c-1.94,1.31-4,3.46-4.31,5.9-.19,1.63-.37,3.22-.4,4.85a21.17,21.17,0,0,0,.6,4.8l1,2.27a7.34,7.34,0,0,0,2.55,2.64,9.22,9.22,0,0,0,5.89,1.92,11.39,11.39,0,0,0,4.83-1.44,9.73,9.73,0,0,0,4.28-5.87A23,23,0,0,0,941.62,491.72Z"/></g></g></svg>