<svg xmlns="http://www.w3.org/2000/svg" xmlns:xlink="http://www.w3.org/1999/xlink" viewBox="0 0 756.77 1493.44"><defs><style>.cls-1{fill:#2c2c2d;}.cls-2{fill:#333844;}.cls-3{fill:url(#Áåçûìÿííûé_ãðàäèåíò_11);}.cls-4{fill:url(#Áåçûìÿííûé_ãðàäèåíò_487);}.cls-5{fill:url(#Áåçûìÿííûé_ãðàäèåíò_6);}.cls-6{fill:url(#Áåçûìÿííûé_ãðàäèåíò_4);}.cls-7{opacity:0.09;}.cls-8{fill:#292d35;}.cls-9{fill:#1c1d1e;}.cls-10{fill:url(#Áåçûìÿííûé_ãðàäèåíò_7);}.cls-11{fill:url(#Áåçûìÿííûé_ãðàäèåíò_7-2);}.cls-12{fill:url(#Áåçûìÿííûé_ãðàäèåíò_20);}.cls-13{fill:url(#Áåçûìÿííûé_ãðàäèåíò_20-2);}.cls-14{fill:url(#Áåçûìÿííûé_ãðàäèåíò_9);}.cls-15{fill:#3e1208;}.cls-16{fill:url(#Áåçûìÿííûé_ãðàäèåíò_10);}.cls-120,.cls-17{opacity:0.44;}.cls-18{fill:#ff9c78;}.cls-19{fill:#ff9b77;}.cls-20{fill:#ff9a77;}.cls-21{fill:#ff9976;}.cls-22{fill:#ff9876;}.cls-23{fill:#ff9775;}.cls-24{fill:#ff9675;}.cls-25{fill:#ff9574;}.cls-26{fill:#ff9473;}.cls-27{fill:#ff9373;}.cls-28{fill:#ff9272;}.cls-29{fill:#ff9172;}.cls-30{fill:#ff9071;}.cls-31{fill:#ff8f71;}.cls-32{fill:#ff8e70;}.cls-33{fill:#ff8d70;}.cls-34{fill:#ff8c6f;}.cls-35{fill:#ff8b6e;}.cls-36{fill:#ff8a6e;}.cls-37{fill:#ff896d;}.cls-38{fill:#ff886d;}.cls-39{fill:#ff876c;}.cls-40{fill:#ff866c;}.cls-41{fill:#ff856b;}.cls-42{fill:#ff846a;}.cls-43{fill:#ff836a;}.cls-44{fill:#ff8269;}.cls-45{fill:#ff8169;}.cls-46{fill:#ff8068;}.cls-47{fill:#ff7f68;}.cls-48{fill:#ff7e67;}.cls-49{fill:#ff7d66;}.cls-50{fill:#ff7c66;}.cls-51{fill:#ff7b65;}.cls-52{fill:#ff7a65;}.cls-53{fill:#ff7964;}.cls-54{fill:#ff7864;}.cls-55{fill:#ff7763;}.cls-56{fill:#ff7662;}.cls-57{fill:#ff7561;}.cls-58{fill:#ff7461;}.cls-59{fill:#ff7360;}.cls-60{fill:#ff7260;}.cls-61{fill:#ff715f;}.cls-62{fill:#ff705f;}.cls-63{fill:#ff6f5e;}.cls-64{fill:#ff6e5d;}.cls-65{fill:#ff6d5d;}.cls-66{fill:#ff6c5c;}.cls-67{fill:#ff6b5c;}.cls-68{fill:#ff6a5b;}.cls-69{fill:#ff695b;}.cls-70{fill:#ff685a;}.cls-71{fill:#ff6759;}.cls-72{fill:#ff6659;}.cls-73{fill:#ff6558;}.cls-74{fill:#ff6458;}.cls-75{fill:#ff6357;}.cls-76{fill:#ff6257;}.cls-77{fill:#ff6156;}.cls-78{fill:#ff6055;}.cls-79{fill:#ff5f55;}.cls-80{fill:#ff5e54;}.cls-81{fill:#ff5d54;}.cls-82{fill:#ff5c53;}.cls-83{fill:#ff5b53;}.cls-84{fill:#ff5a52;}.cls-85{fill:#ff5952;}.cls-86{fill:#ff5851;}.cls-87{fill:#ff5750;}.cls-88{fill:#ff5650;}.cls-89{fill:#ff554f;}.cls-90{fill:#ff544f;}.cls-91{fill:#ff534e;}.cls-92{fill:#ff524e;}.cls-93{fill:#ff514d;}.cls-94{fill:url(#Áåçûìÿííûé_ãðàäèåíò_9-2);}.cls-95{fill:url(#Áåçûìÿííûé_ãðàäèåíò_9-3);}.cls-96{fill:#7c302a;}.cls-97{fill:url(#Áåçûìÿííûé_ãðàäèåíò_57);}.cls-98{fill:#59352c;}.cls-103,.cls-110,.cls-119,.cls-99{fill:#fff;}.cls-99{opacity:0.12;}.cls-100{fill:#ffba80;}.cls-100,.cls-111{opacity:0.11;}.cls-101{fill:url(#Áåçûìÿííûé_ãðàäèåíò_10-2);}.cls-102{fill:url(#Áåçûìÿííûé_ãðàäèåíò_10-3);}.cls-104{fill:url(#Áåçûìÿííûé_ãðàäèåíò_12);}.cls-105{fill:url(#Áåçûìÿííûé_ãðàäèåíò_12-2);}.cls-106{fill:#603f37;}.cls-107{fill:url(#Áåçûìÿííûé_ãðàäèåíò_57-2);}.cls-108{fill:url(#Áåçûìÿííûé_ãðàäèåíò_57-3);}.cls-109{fill:#1e1d1d;}.cls-110{opacity:0.82;}.cls-112{fill:#f9755c;}.cls-113{fill:url(#Áåçûìÿííûé_ãðàäèåíò_3);}.cls-114{fill:#f5eeee;}.cls-115{fill:#bfb8ae;opacity:0.32;}.cls-116{fill:url(#Áåçûìÿííûé_ãðàäèåíò_57-4);}.cls-117{fill:url(#Áåçûìÿííûé_ãðàäèåíò_24);}.cls-118{fill:url(#Áåçûìÿííûé_ãðàäèåíò_9-4);}.cls-119{opacity:0.2;}.cls-120{fill:#eb6954;}.cls-121{fill:#3d3d3d;}.cls-122{fill:url(#Áåçûìÿííûé_ãðàäèåíò_501);}.cls-123{fill:url(#Áåçûìÿííûé_ãðàäèåíò_501-2);}.cls-124{fill:url(#Áåçûìÿííûé_ãðàäèåíò_2);}.cls-125{fill:url(#Áåçûìÿííûé_ãðàäèåíò_2-2);}.cls-126{fill:url(#Áåçûìÿííûé_ãðàäèåíò_487-2);}.cls-127{fill:url(#Áåçûìÿííûé_ãðàäèåíò_2-3);}.cls-128{fill:url(#Áåçûìÿííûé_ãðàäèåíò_487-3);}.cls-129{fill:url(#Áåçûìÿííûé_ãðàäèåíò_29);}.cls-130{fill:url(#Áåçûìÿííûé_ãðàäèåíò_2-4);}.cls-131{fill:url(#Áåçûìÿííûé_ãðàäèåíò_29-2);}.cls-132{fill:url(#Áåçûìÿííûé_ãðàäèåíò_2-5);}.cls-133{fill:url(#Áåçûìÿííûé_ãðàäèåíò_2-6);}.cls-134{fill:url(#Áåçûìÿííûé_ãðàäèåíò_486);}.cls-135{fill:url(#Áåçûìÿííûé_ãðàäèåíò_486-2);}</style><linearGradient id="Áåçûìÿííûé_ãðàäèåíò_11" x1="368.37" y1="1504.52" x2="368.37" y2="1421.65" gradientUnits="userSpaceOnUse"><stop offset="0" stop-color="#fff"/><stop offset="1" stop-color="#a5b7c6"/></linearGradient><linearGradient id="Áåçûìÿííûé_ãðàäèåíò_487" x1="356.46" y1="365.88" x2="356.46" y2="392.02" gradientTransform="translate(33.03 -24.14) rotate(4.88)" gradientUnits="userSpaceOnUse"><stop offset="0" stop-color="#db7d67"/><stop offset="1" stop-color="#ff9e78"/></linearGradient><linearGradient id="Áåçûìÿííûé_ãðàäèåíò_6" x1="341.52" y1="299.46" x2="341.52" y2="464.15" gradientTransform="translate(33.03 -24.14) rotate(4.88)" gradientUnits="userSpaceOnUse"><stop offset="0" stop-color="#deefff"/><stop offset="1" stop-color="#cadbef"/></linearGradient><linearGradient id="Áåçûìÿííûé_ãðàäèåíò_4" x1="349.55" y1="465.02" x2="262.39" y2="843.03" gradientUnits="userSpaceOnUse"><stop offset="0" stop-color="#b1c9e0"/><stop offset="1" stop-color="#c8d9ed"/></linearGradient><linearGradient id="Áåçûìÿííûé_ãðàäèåíò_7" x1="356.75" y1="413.25" x2="356.75" y2="441.84" gradientUnits="userSpaceOnUse"><stop offset="0" stop-color="#b3cbe2"/><stop offset="1" stop-color="#cadbef"/></linearGradient><linearGradient id="Áåçûìÿííûé_ãðàäèåíò_7-2" x1="356.12" y1="632.77" x2="356.12" y2="801.03" gradientTransform="translate(33.03 -24.14) rotate(4.88)" xlink:href="#Áåçûìÿííûé_ãðàäèåíò_7"/><linearGradient id="Áåçûìÿííûé_ãðàäèåíò_20" x1="268.03" y1="813.61" x2="299.87" y2="813.61" gradientTransform="matrix(1, 0.05, -0.02, 1, 19.3, -11.25)" gradientUnits="userSpaceOnUse"><stop offset="0" stop-color="#5f6163"/><stop offset="1" stop-color="#444749"/></linearGradient><linearGradient id="Áåçûìÿííûé_ãðàäèåíò_20-2" x1="285.6" y1="812.71" x2="299.63" y2="812.71" xlink:href="#Áåçûìÿííûé_ãðàäèåíò_20"/><linearGradient id="Áåçûìÿííûé_ãðàäèåíò_9" x1="-4297.16" y1="403.29" x2="-4257.58" y2="403.29" gradientTransform="matrix(0.97, 0.25, -0.25, 0.97, 4523.79, 930.6)" gradientUnits="userSpaceOnUse"><stop offset="0" stop-color="#f08a70"/><stop offset="1" stop-color="#ff9c78"/></linearGradient><linearGradient id="Áåçûìÿííûé_ãðàäèåíò_10" x1="-4190.42" y1="281.09" x2="-4190.42" y2="311.92" gradientTransform="matrix(0.99, 0.14, -0.14, 0.99, 4573, 440.52)" gradientUnits="userSpaceOnUse"><stop offset="0" stop-color="#c4664f"/><stop offset="1" stop-color="#ff9c78"/></linearGradient><linearGradient id="Áåçûìÿííûé_ãðàäèåíò_9-2" x1="-4109.7" y1="432.2" x2="-4069.57" y2="432.2" gradientTransform="matrix(0.99, 0.14, -0.14, 0.99, 4573, 440.52)" xlink:href="#Áåçûìÿííûé_ãðàäèåíò_9"/><linearGradient id="Áåçûìÿííûé_ãðàäèåíò_9-3" x1="-4097.02" y1="397.23" x2="-4076.96" y2="397.23" gradientTransform="matrix(0.99, 0.14, -0.14, 0.99, 4573, 440.52)" xlink:href="#Áåçûìÿííûé_ãðàäèåíò_9"/><linearGradient id="Áåçûìÿííûé_ãðàäèåíò_57" x1="-4167.13" y1="351.7" x2="-4167.6" y2="427.77" gradientTransform="translate(4577.38 450.18) rotate(9.84)" gradientUnits="userSpaceOnUse"><stop offset="0" stop-color="#75483b"/><stop offset="0.35" stop-color="#704538"/><stop offset="0.75" stop-color="#633c30"/><stop offset="1" stop-color="#563428"/></linearGradient><linearGradient id="Áåçûìÿííûé_ãðàäèåíò_10-2" x1="-4151.47" y1="300.53" x2="-4152.68" y2="374.43" xlink:href="#Áåçûìÿííûé_ãðàäèåíò_10"/><linearGradient id="Áåçûìÿííûé_ãðàäèåíò_10-3" x1="-4231.49" y1="295.56" x2="-4232.77" y2="373.87" xlink:href="#Áåçûìÿííûé_ãðàäèåíò_10"/><linearGradient id="Áåçûìÿííûé_ãðàäèåíò_12" x1="326.42" y1="241.72" x2="332.84" y2="224.6" gradientTransform="translate(4.16 -6.84) rotate(1.3)" gradientUnits="userSpaceOnUse"><stop offset="0" stop-color="#704a3e"/><stop offset="1"/></linearGradient><linearGradient id="Áåçûìÿííûé_ãðàäèåíò_12-2" x1="413.71" y1="248.85" x2="417.71" y2="237.79" xlink:href="#Áåçûìÿííûé_ãðàäèåíò_12"/><linearGradient id="Áåçûìÿííûé_ãðàäèåíò_57-2" x1="-3852.31" y1="401.09" x2="-3853.03" y2="426.5" gradientTransform="matrix(1.01, 0.17, 0, 0.99, 4231.62, 440.12)" xlink:href="#Áåçûìÿííûé_ãðàäèåíò_57"/><linearGradient id="Áåçûìÿííûé_ãðàäèåíò_57-3" x1="-3775.73" y1="403.39" x2="-3776.4" y2="426.59" gradientTransform="matrix(1.01, 0.17, 0, 0.99, 4231.62, 440.12)" xlink:href="#Áåçûìÿííûé_ãðàäèåíò_57"/><linearGradient id="Áåçûìÿííûé_ãðàäèåíò_3" x1="192.5" y1="366.29" x2="192.24" y2="358.96" gradientTransform="translate(213.67 -61.08) rotate(7.45)" gradientUnits="userSpaceOnUse"><stop offset="0" stop-color="#7c302a"/><stop offset="0.21" stop-color="#772f29"/><stop offset="0.45" stop-color="#692b26"/><stop offset="0.7" stop-color="#532421"/><stop offset="0.96" stop-color="#331c1a"/><stop offset="1" stop-color="#2d1a19"/></linearGradient><linearGradient id="Áåçûìÿííûé_ãðàäèåíò_57-4" x1="370.45" y1="392.41" x2="371.35" y2="245.7" gradientTransform="translate(4.16 -6.84) rotate(1.3)" xlink:href="#Áåçûìÿííûé_ãðàäèåíò_57"/><linearGradient id="Áåçûìÿííûé_ãðàäèåíò_24" x1="183.86" y1="328.26" x2="183.86" y2="333.1" gradientTransform="translate(213.67 -61.08) rotate(7.45)" gradientUnits="userSpaceOnUse"><stop offset="0" stop-color="#4c2e25"/><stop offset="0.39" stop-color="#513127"/><stop offset="0.83" stop-color="#5e3a2e"/><stop offset="1" stop-color="#663f32"/></linearGradient><linearGradient id="Áåçûìÿííûé_ãðàäèåíò_9-4" x1="-4203.24" y1="417.17" x2="-4203.24" y2="403.47" gradientTransform="matrix(0.99, 0.14, -0.14, 0.99, 4573, 440.52)" xlink:href="#Áåçûìÿííûé_ãðàäèåíò_9"/><linearGradient id="Áåçûìÿííûé_ãðàäèåíò_501" x1="14.09" y1="1072.6" x2="211.84" y2="857.56" gradientUnits="userSpaceOnUse"><stop offset="0" stop-color="#3d434f"/><stop offset="1" stop-color="#333844"/></linearGradient><linearGradient id="Áåçûìÿííûé_ãðàäèåíò_501-2" x1="292.86" y1="1109.17" x2="474.04" y2="912.16" xlink:href="#Áåçûìÿííûé_ãðàäèåíò_501"/><linearGradient id="Áåçûìÿííûé_ãðàäèåíò_2" x1="229.87" y1="15.26" x2="217.81" y2="38.97" gradientTransform="matrix(1, -0.04, 0.04, 1, -5.48, 3)" gradientUnits="userSpaceOnUse"><stop offset="0" stop-color="#ffb7a2"/><stop offset="1" stop-color="#ff9c78"/></linearGradient><linearGradient id="Áåçûìÿííûé_ãðàäèåíò_2-2" x1="211.17" y1="30.28" x2="215.43" y2="98.19" xlink:href="#Áåçûìÿííûé_ãðàäèåíò_2"/><linearGradient id="Áåçûìÿííûé_ãðàäèåíò_487-2" x1="219.94" y1="37.66" x2="234.18" y2="8.15" gradientTransform="matrix(1, -0.04, 0.04, 1, -5.48, 3)" xlink:href="#Áåçûìÿííûé_ãðàäèåíò_487"/><linearGradient id="Áåçûìÿííûé_ãðàäèåíò_2-3" x1="655.14" y1="301.5" x2="637.37" y2="331.56" gradientTransform="matrix(1, 0, 0, 1, 0, 0)" xlink:href="#Áåçûìÿííûé_ãðàäèåíò_2"/><linearGradient id="Áåçûìÿííûé_ãðàäèåíò_487-3" x1="636.76" y1="330.4" x2="661.39" y2="295.17" gradientTransform="matrix(1, 0, 0, 1, 0, 0)" xlink:href="#Áåçûìÿííûé_ãðàäèåíò_487"/><linearGradient id="Áåçûìÿííûé_ãðàäèåíò_29" x1="185.76" y1="229.64" x2="85.14" y2="119.87" gradientTransform="matrix(1, -0.04, 0.04, 1, -5.48, 3)" gradientUnits="userSpaceOnUse"><stop offset="0" stop-color="#f28c70"/><stop offset="1" stop-color="#ff9e78"/></linearGradient><linearGradient id="Áåçûìÿííûé_ãðàäèåíò_2-4" x1="635.6" y1="289.41" x2="594.82" y2="431.24" gradientTransform="matrix(1, 0, 0, 1, 0, 0)" xlink:href="#Áåçûìÿííûé_ãðàäèåíò_2"/><linearGradient id="Áåçûìÿííûé_ãðàäèåíò_29-2" x1="753.6" y1="559.84" x2="498.09" y2="431.71" gradientTransform="matrix(1, 0, 0, 1, 0, 0)" xlink:href="#Áåçûìÿííûé_ãðàäèåíò_29"/><linearGradient id="Áåçûìÿííûé_ãðàäèåíò_2-5" x1="508.3" y1="495.54" x2="624.6" y2="522.55" gradientTransform="matrix(1, 0, 0, 1, 0, 0)" xlink:href="#Áåçûìÿííûé_ãðàäèåíò_2"/><linearGradient id="Áåçûìÿííûé_ãðàäèåíò_2-6" x1="21.56" y1="148.17" x2="114.68" y2="194.73" gradientTransform="matrix(1, 0, 0, 1, 0, 0)" xlink:href="#Áåçûìÿííûé_ãðàäèåíò_2"/><linearGradient id="Áåçûìÿííûé_ãðàäèåíò_486" x1="187.86" y1="1290.9" x2="221.88" y2="1289.08" gradientUnits="userSpaceOnUse"><stop offset="0" stop-color="#5b5b60"/><stop offset="1" stop-color="#2c2c2d"/></linearGradient><linearGradient id="Áåçûìÿííûé_ãðàäèåíò_486-2" x1="701.89" y1="1065.52" x2="715.42" y2="1040.26" xlink:href="#Áåçûìÿííûé_ãðàäèåíò_486"/></defs><g id="Layer_2" data-name="Layer 2"><g id="Ñëîé_1" data-name="Ñëîé 1"><path class="cls-1" d="M603,972.32s2.17-29.83,7.34-36.82c0,0,0-3,.35-3.59,3.81-5.88,9.43-18.41,24.75-17.11s42,20.1,49.35,33.92c.68,1.27-1.16,4.32-.62,4.74s4.59.79,5.31,1.17c6.26,3.31,37,29.84,52.85,56.58,13.89,23.51,19.92,49.33,8.43,59.33-2.46,2.13-6.79,3.38-13.5,1.88-27.9-6.23-65.8-44.51-87.42-41C643.48,1032.43,603,972.32,603,972.32Z"/><path class="cls-1" d="M204.49,1207c-.26,1-15.32,113.8,1.71,133.87a3.9,3.9,0,0,0,.26,2.36c.56,1.34,27.75,10.14,49.1-24.74s27.86-95.89,28.38-97.1,5.94-3,7.49-3.46,27.48-41.14,20.08-58.65c-2.49-5.9-9.94-13.43-18.4-16.87-.47-.19-4.07-1-4.5-1.23-14.6-9-27.7-13.93-31.37-13.71-5.7.35-39.8,17.45-49.68,33.26S204.49,1207,204.49,1207Z"/><path class="cls-2" d="M467.87,825.72c-.35.18.38,5.36.41,5.78.14,1.89-.23,4.84.43,6.57.74,1.92,3.57,3.53,4.92,5.07,1.59,1.81,2.81,4.19,2.35,6.55-.58,3-3.6,5-4.36,7.89-.61,2.37.38,4.85,1.56,7s2.61,4.25,2.95,6.68a2.76,2.76,0,0,1-.11,1.48,3.36,3.36,0,0,1-1.15,1.22c-1.93,1.44-4.14,3.32-3.78,5.7.18,1.26.91,2.35,1.06,3.64s1.51,21.31,1.91,26.49q1.2,16,2.45,32.05c1.53,19.57,8.37,83.73,8.67,84.29,2.66,4.85,105.59-70.61,110.7-68.73,19.91,7.33,73.68,59.47,75.35,94.88.34,7.07-168.24,118.13-196.35,127.54-54.07,18.11-87.36-16-104-50.36s-51.44-230.64-48.09-230.27S467.55,825.89,467.87,825.72Z"/><path class="cls-2" d="M317.18,886.93s-146.77,138.83-150.12,143.23,96.72,80.7,97.29,86.11c2.75,26.21-37,89.47-72.57,97.9-6.89,1.63-149.23-109-169.27-130.8-38.56-42-21-86.31,3.62-115.49,4.76-5.65,108.21-117.38,108.38-121,.08-1.76.09-3.89,1.62-4.77s4,0,5-1.44c.83-1.23-.21-3,.52-4.33s2.3-1.21,3.64-1.18c2.38.06,5.17-.4,6.3-2.49s0-4.57,0-6.9a7.5,7.5,0,0,1,5.34-7c2.7-.76,6.45.86,8.87-.49,2-1.13,4-4,5.78-5.64,3.17-2.94,6.33-5.91,9.56-8.78C183.68,801.59,317.18,886.93,317.18,886.93Z"/><path class="cls-3" d="M695.52,1465.74s-146.47,27.7-327.15,27.7-327.15-27.7-327.15-27.7,146.47-27.69,327.15-27.69S695.52,1465.74,695.52,1465.74Z"/><path class="cls-4" d="M425.8,389.43a249.55,249.55,0,0,0-25.61-6.29l5.66-57c2-17.37-16.9-32.88-39.9-34.54h0c-23-1.57-43.56,11.31-45.51,28.68l-6,56.91a228.2,228.2,0,0,0-29.16,3.57l-3.7,52.36,140.15,12Z"/><path class="cls-5" d="M527.45,436.1c-14.73-19.56-79.4-40.6-102.79-47.06l-.16-.92c-4.91-20.39-22.5-21-22.5-21-7.09,31.67-46,37.9-46,37.9-33.68-15.52-40-38.43-40-38.43a27.68,27.68,0,0,0-17.16,4.57,35.77,35.77,0,0,0-5.56,4.48c-1.54,1.51-2.41,3.41-4.78,3a3.76,3.76,0,0,0-.44-3.44,3.47,3.47,0,0,0-3.22-1.34c-.79.11-1.78.41-2.23-.24a2.14,2.14,0,0,1-.21-1.13,4.48,4.48,0,0,0-2.75-3.68,7.67,7.67,0,0,0-4.74-.3,36.13,36.13,0,0,1-5.08,1.23c-1.74.11-3.73-.65-4.27-2.31-.47-1.44.28-3.13-.39-4.49a4,4,0,0,0-2.76-1.82c-2.87-.72-5.72-.27-8.59.16-2.13.32-3.83-1.15-5.69-2.19-17.17-9.55-34-19.63-50.75-30-17.43-10.8-34.68-21.9-51.63-33.46,0,0-2-20.64-7.69-25,0,0-62.68-40-76.55-35.31-63.41,21.38-53.28,80-53.28,80,4.22,8.81,11.75,25,18.39,34.52,2.27,3.25,7.11,2.29,9.61,5.58,59.58,78.7,158.21,153.14,163,154.19-26.57,92.23-28,206.4-27.51,241.56.09,6.76,12.38,19,13.32,21.3C194.31,795,448.69,805.66,458,791.16c7.14-11.08,17.4-23.3,17.31-29.19-.32-19.88,2.81-101.47,16.06-178.24,2.27-.23,23.37,30.08,44.76,62.31,1.08,1.63,3.68,15.34,4.74,16.94,14.91,22.44,82,32.92,93.76,27.7,2.25-1,26-32,26-70-6.78-15.52-15.88-21.69-26.19-38.5C597.4,521.81,544.69,459,527.45,436.1Z"/><path class="cls-6" d="M652.85,607.17c-5.26,20.09-15.14,57.54-26.47,61.68-15.6,5.7-67.85-20-68.48-24.26s10.79-45.23,10.79-46.21-4.63-5-7.65-3.81-12.68,40.52-12.68,40.52-48.08-82.64-51.46-86.78-6.95-51.49-6.95-53-10.35,2.43-13.46,3c-.89.15,4.67,45.16,4.67,45.16S454.55,744.83,451.6,746.67c-4.15,2.59-99.44,18.64-131.9,18.13s-128.1-32.63-128.1-32.63c-8.8-34.19,36-271.91,36-271.91s-6.42-2.75-8.26-3.06-14.07,36.4-14.07,36.4C146.9,467.6,59.43,367,59.43,367s3.67-.61,14.68-2.05,51.08-18.84,51.08-18.84l-6.42-7.69s-29.36,13.6-45,15.06S27.7,351,26.6,349.81c2.27,3.25,7.11,2.29,9.61,5.58,59.58,78.7,158.21,153.14,163,154.19-26.57,92.23-28,206.4-27.52,241.56.1,6.76,12.39,19,13.33,21.3C194.31,795,448.69,805.66,458,791.16c7.14-11.08,17.4-23.3,17.31-29.19-.32-19.88,2.81-101.47,16.06-178.24,2.27-.23,23.37,30.08,44.76,62.31,1.08,1.63,3.68,15.34,4.74,16.94,14.91,22.44,82,32.92,93.76,27.7,2.25-1,26-32,26-70A70.77,70.77,0,0,0,652.85,607.17Z"/><g class="cls-7"><path d="M327.36,874.12a28.15,28.15,0,0,1,1.4-9.28l-3.94.39s0,3.5.09,10.1C325.73,874.92,326.54,874.51,327.36,874.12Z"/></g><path class="cls-2" d="M178.46,776.74c-1.38,17.78-3.09,42.48-3.09,42.48-22.82,39.18-33.87,48.56-33.87,48.56S253.45,905,344,908.63c58.82,2.35,108.91,9.15,113.32-14.58,4-21.43,9.16-47,10.58-101.77,0-1.41-3.43-6.22-5.84-6.09-14.76.79-63.27,4.48-141.71-.29-86.24-5.24-124.36-12.66-135.25-14.13C183.43,771.55,178.59,775.1,178.46,776.74Z"/><path class="cls-8" d="M280.18,899.19l-1.16,6.3c29,2,59.9,2.82,59.9,2.82l0-6.54Z"/><path class="cls-8" d="M181.89,836.15c.18-1.58.35-3.17.52-4.76-5.76-.6-24.27-3.14-30.29-4-.11.12-.22.24-.34.35.25,1.7.56,3.39-.22,4.86a4.41,4.41,0,0,1-.61.81C159.47,834.69,172.51,836.21,181.89,836.15Z"/><path class="cls-9" d="M319.89,803.22c-75.29-3.63-121.93-10.7-142.4-13.61-2.51-.16-8.21,23.72-7.61,24.59,21.86,3.08,74.17,13.74,149.31,17.37,65.75,3.17,129.48,1,148.68-2.87,2.36.32,2.26-23.54-.32-23.66C442.32,805.75,387.9,806.51,319.89,803.22Z"/><polygon class="cls-2" points="252.36 838.1 235.26 836.39 239.69 789.2 256.79 790.91 252.36 838.1"/><polygon class="cls-2" points="394.55 844.97 377.44 843.25 381.87 796.06 398.98 797.77 394.55 844.97"/><path class="cls-8" d="M473.18,864.58a16,16,0,0,1-1.47-3.5l-28.77-11.9c-.6,2.63-.4,1.79-1,4.44,9.13,5.56,24.84,11.89,33.59,15.57A36.64,36.64,0,0,0,473.18,864.58Z"/><path class="cls-10" d="M424.92,389.11c-5.51,9.67-21.82,37.48-28.29,40.4-6.2,2.79-27.39-17.1-36-25.56-2.86.76-4.63,1-4.63,1h0c-.81-.37-1.6-.4-2.37-.78a3.88,3.88,0,0,0-1.67-.49h0c-10.08,5-32.6,16.55-40.71,15.36-7.88-1.15-16.56-27.76-20.81-40.59a2.91,2.91,0,0,1-2,.2,3.84,3.84,0,0,0-.44-3.48,3.5,3.5,0,0,0-3.22-1.36l-.69.1c3.72,12.7,13.8,50.23,20.14,55.19,7.88,6.17,51-20.32,51-20.32s31.36,33.08,41.51,32.65c8.69-.37,27.43-39.81,32.61-51.09l-2.2-.63-.12,0Z"/><path class="cls-11" d="M323.13,783.77l35.18-377.94-5.23-.45s-28.49,310.86-36.14,377.89Z"/><path class="cls-12" d="M344.28,804.26s-51.94-3-52-2c0,0-1.12,26.95-.68,27.42s52.28,3,52.28,3-.1,4.41-1,4.91c-3.23,1.78-56.84-1.39-58.28-2.82s.4-36.52,1.58-38.39,56.06,1.4,57.07,2.25S344.28,804.26,344.28,804.26Z"/><path class="cls-13" d="M287.24,811.38s-.8,6.18-.4,6.61,13,.63,13.31.41.59-5.32.28-6.15C300.2,811.66,287.72,811,287.24,811.38Z"/><ellipse class="cls-14" cx="280.44" cy="257.05" rx="19.12" ry="27.97" transform="translate(-27.58 33.79) rotate(-6.57)"/><path class="cls-15" d="M353.62,104.68a4.26,4.26,0,0,0,0-.45C353.63,104.52,353.62,104.68,353.62,104.68Z"/><path class="cls-16" d="M455.78,166.87c-.11-35.28-94.55-67-130.65-24.31C312.54,163,295.7,202.31,284.3,242.12c.07-.44.13-.69.13-.69s-44.17,101.43,51.13,122.13c91.72,19.92,114.05-23.3,120-87.08h0C461.33,241,458.8,194.47,455.78,166.87Z"/><g class="cls-17"><ellipse class="cls-18" cx="407.52" cy="282.47" rx="39.67" ry="34.67" transform="translate(-2.86 560.78) rotate(-68.87)"/><ellipse class="cls-19" cx="407.52" cy="282.45" rx="39.41" ry="34.44" transform="translate(-2.84 560.77) rotate(-68.87)"/><ellipse class="cls-20" cx="407.52" cy="282.44" rx="39.15" ry="34.22" transform="translate(-2.82 560.76) rotate(-68.87)"/><ellipse class="cls-21" cx="407.53" cy="282.42" rx="38.89" ry="33.99" transform="translate(-2.8 560.75) rotate(-68.87)"/><ellipse class="cls-22" cx="407.53" cy="282.4" rx="38.63" ry="33.76" transform="translate(-2.79 560.74) rotate(-68.87)"/><ellipse class="cls-23" cx="407.53" cy="282.39" rx="38.37" ry="33.53" transform="translate(-2.77 560.73) rotate(-68.87)"/><ellipse class="cls-24" cx="407.53" cy="282.37" rx="38.11" ry="33.3" transform="translate(-2.75 560.73) rotate(-68.87)"/><ellipse class="cls-25" cx="407.54" cy="282.35" rx="37.85" ry="33.07" transform="translate(-2.74 560.72) rotate(-68.87)"/><ellipse class="cls-26" cx="407.54" cy="282.34" rx="37.58" ry="32.85" transform="translate(-2.72 560.71) rotate(-68.87)"/><ellipse class="cls-27" cx="407.54" cy="282.32" rx="37.32" ry="32.62" transform="translate(-2.7 560.7) rotate(-68.87)"/><ellipse class="cls-28" cx="407.54" cy="282.3" rx="37.06" ry="32.39" transform="translate(-2.69 560.69) rotate(-68.87)"/><ellipse class="cls-29" cx="407.55" cy="282.29" rx="36.8" ry="32.16" transform="translate(-2.67 560.68) rotate(-68.87)"/><ellipse class="cls-30" cx="407.55" cy="282.27" rx="36.54" ry="31.93" transform="translate(-2.65 560.67) rotate(-68.87)"/><ellipse class="cls-31" cx="407.55" cy="282.25" rx="36.28" ry="31.71" transform="translate(-2.63 560.67) rotate(-68.87)"/><ellipse class="cls-32" cx="407.55" cy="282.24" rx="36.02" ry="31.48" transform="translate(-2.62 560.65) rotate(-68.87)"/><ellipse class="cls-33" cx="407.55" cy="282.22" rx="35.76" ry="31.25" transform="translate(-2.6 560.65) rotate(-68.87)"/><ellipse class="cls-34" cx="407.56" cy="282.2" rx="35.5" ry="31.02" transform="translate(-2.58 560.64) rotate(-68.87)"/><ellipse class="cls-35" cx="407.56" cy="282.19" rx="35.24" ry="30.79" transform="translate(-2.57 560.63) rotate(-68.87)"/><ellipse class="cls-36" cx="407.56" cy="282.17" rx="34.97" ry="30.57" transform="translate(-2.55 560.62) rotate(-68.87)"/><ellipse class="cls-37" cx="407.56" cy="282.15" rx="34.71" ry="30.34" transform="translate(-2.53 560.61) rotate(-68.87)"/><ellipse class="cls-38" cx="407.57" cy="282.14" rx="34.45" ry="30.11" transform="translate(-2.52 560.6) rotate(-68.87)"/><ellipse class="cls-39" cx="407.57" cy="282.12" rx="34.19" ry="29.88" transform="translate(-2.5 560.6) rotate(-68.87)"/><ellipse class="cls-40" cx="407.57" cy="282.1" rx="33.93" ry="29.65" transform="translate(-2.48 560.59) rotate(-68.87)"/><ellipse class="cls-41" cx="407.57" cy="282.09" rx="33.67" ry="29.43" transform="translate(-2.46 560.58) rotate(-68.87)"/><ellipse class="cls-42" cx="407.57" cy="282.07" rx="33.41" ry="29.2" transform="translate(-2.45 560.57) rotate(-68.87)"/><ellipse class="cls-43" cx="407.58" cy="282.05" rx="33.15" ry="28.97" transform="translate(-2.43 560.56) rotate(-68.87)"/><ellipse class="cls-44" cx="407.58" cy="282.04" rx="32.89" ry="28.74" transform="translate(-2.41 560.55) rotate(-68.87)"/><ellipse class="cls-45" cx="407.58" cy="282.02" rx="32.63" ry="28.51" transform="translate(-2.39 560.55) rotate(-68.87)"/><ellipse class="cls-46" cx="407.58" cy="282" rx="32.36" ry="28.28" transform="translate(-2.38 560.54) rotate(-68.87)"/><ellipse class="cls-47" cx="407.59" cy="281.99" rx="32.1" ry="28.06" transform="translate(-2.36 560.52) rotate(-68.87)"/><ellipse class="cls-48" cx="407.59" cy="281.97" rx="31.84" ry="27.83" transform="translate(-2.35 560.51) rotate(-68.87)"/><ellipse class="cls-49" cx="407.59" cy="281.95" rx="31.58" ry="27.6" transform="translate(-2.33 560.51) rotate(-68.87)"/><ellipse class="cls-50" cx="407.59" cy="281.94" rx="31.32" ry="27.37" transform="translate(-2.31 560.5) rotate(-68.87)"/><ellipse class="cls-51" cx="407.6" cy="281.92" rx="31.06" ry="27.14" transform="translate(-2.29 560.49) rotate(-68.87)"/><ellipse class="cls-52" cx="407.6" cy="281.9" rx="30.8" ry="26.92" transform="translate(-2.28 560.48) rotate(-68.87)"/><ellipse class="cls-53" cx="407.6" cy="281.89" rx="30.54" ry="26.69" transform="translate(-2.26 560.47) rotate(-68.87)"/><ellipse class="cls-54" cx="407.6" cy="281.87" rx="30.28" ry="26.46" transform="translate(-2.24 560.47) rotate(-68.87)"/><ellipse class="cls-55" cx="407.6" cy="281.85" rx="30.02" ry="26.23" transform="translate(-2.22 560.46) rotate(-68.87)"/><ellipse class="cls-56" cx="407.61" cy="281.83" rx="29.75" ry="26" transform="translate(-2.21 560.45) rotate(-68.87)"/><ellipse class="cls-56" cx="407.61" cy="281.82" rx="29.49" ry="25.78" transform="translate(-2.19 560.44) rotate(-68.87)"/><ellipse class="cls-57" cx="407.61" cy="281.8" rx="29.23" ry="25.55" transform="translate(-2.18 560.43) rotate(-68.87)"/><ellipse class="cls-58" cx="407.61" cy="281.78" rx="28.97" ry="25.32" transform="translate(-2.15 560.43) rotate(-68.87)"/><ellipse class="cls-59" cx="407.62" cy="281.77" rx="28.71" ry="25.09" transform="translate(-2.14 560.41) rotate(-68.87)"/><ellipse class="cls-60" cx="407.62" cy="281.75" rx="28.45" ry="24.86" transform="translate(-2.12 560.41) rotate(-68.87)"/><ellipse class="cls-61" cx="407.62" cy="281.73" rx="28.19" ry="24.64" transform="matrix(0.36, -0.93, 0.93, 0.36, -2.11, 560.4)"/><ellipse class="cls-62" cx="407.62" cy="281.72" rx="27.93" ry="24.41" transform="translate(-2.09 560.39) rotate(-68.87)"/><ellipse class="cls-63" cx="407.63" cy="281.7" rx="27.67" ry="24.18" transform="translate(-2.07 560.38) rotate(-68.87)"/><ellipse class="cls-64" cx="407.63" cy="281.68" rx="27.41" ry="23.95" transform="translate(-2.05 560.37) rotate(-68.87)"/><ellipse class="cls-65" cx="407.63" cy="281.67" rx="27.14" ry="23.72" transform="translate(-2.03 560.37) rotate(-68.87)"/><ellipse class="cls-66" cx="407.63" cy="281.65" rx="26.88" ry="23.49" transform="translate(-2.02 560.36) rotate(-68.87)"/><ellipse class="cls-67" cx="407.63" cy="281.63" rx="26.62" ry="23.27" transform="translate(-2 560.35) rotate(-68.87)"/><ellipse class="cls-68" cx="407.64" cy="281.62" rx="26.36" ry="23.04" transform="translate(-1.99 560.34) rotate(-68.87)"/><ellipse class="cls-69" cx="407.64" cy="281.6" rx="26.1" ry="22.81" transform="translate(-1.97 560.33) rotate(-68.87)"/><ellipse class="cls-70" cx="407.64" cy="281.58" rx="25.84" ry="22.58" transform="translate(-1.95 560.32) rotate(-68.87)"/><ellipse class="cls-71" cx="407.64" cy="281.57" rx="25.58" ry="22.35" transform="translate(-1.94 560.31) rotate(-68.87)"/><ellipse class="cls-72" cx="407.65" cy="281.55" rx="25.32" ry="22.13" transform="matrix(0.36, -0.93, 0.93, 0.36, -1.92, 560.3)"/><ellipse class="cls-73" cx="407.65" cy="281.53" rx="25.06" ry="21.9" transform="translate(-1.9 560.3) rotate(-68.87)"/><ellipse class="cls-74" cx="407.65" cy="281.52" rx="24.8" ry="21.67" transform="translate(-1.89 560.28) rotate(-68.87)"/><ellipse class="cls-75" cx="407.65" cy="281.5" rx="24.53" ry="21.44" transform="translate(-1.87 560.28) rotate(-68.87)"/><ellipse class="cls-76" cx="407.65" cy="281.48" rx="24.27" ry="21.21" transform="translate(-1.85 560.27) rotate(-68.87)"/><ellipse class="cls-77" cx="407.66" cy="281.47" rx="24.01" ry="20.99" transform="translate(-1.83 560.26) rotate(-68.87)"/><ellipse class="cls-78" cx="407.66" cy="281.45" rx="23.75" ry="20.76" transform="translate(-1.82 560.25) rotate(-68.87)"/><ellipse class="cls-79" cx="407.66" cy="281.43" rx="23.49" ry="20.53" transform="translate(-1.8 560.24) rotate(-68.87)"/><ellipse class="cls-80" cx="407.66" cy="281.42" rx="23.23" ry="20.3" transform="matrix(0.36, -0.93, 0.93, 0.36, -1.78, 560.23)"/><ellipse class="cls-81" cx="407.67" cy="281.4" rx="22.97" ry="20.07" transform="translate(-1.76 560.23) rotate(-68.87)"/><path class="cls-82" d="M427.43,284.21c-2.41,12.25-13.21,20.91-24.13,19.35s-17.81-12.76-15.39-25,13.21-20.92,24.12-19.35S429.84,272,427.43,284.21Z"/><ellipse class="cls-83" cx="407.67" cy="281.37" rx="22.45" ry="19.62" transform="translate(-1.73 560.21) rotate(-68.87)"/><ellipse class="cls-84" cx="407.67" cy="281.35" rx="22.19" ry="19.39" transform="translate(-1.71 560.2) rotate(-68.87)"/><ellipse class="cls-85" cx="407.68" cy="281.33" rx="21.92" ry="19.16" transform="translate(-1.69 560.2) rotate(-68.87)"/><ellipse class="cls-86" cx="407.68" cy="281.32" rx="21.66" ry="18.93" transform="translate(-1.68 560.18) rotate(-68.87)"/><ellipse class="cls-87" cx="407.68" cy="281.3" rx="21.4" ry="18.7" transform="translate(-1.66 560.18) rotate(-68.87)"/><ellipse class="cls-88" cx="407.68" cy="281.28" rx="21.14" ry="18.48" transform="translate(-1.64 560.17) rotate(-68.87)"/><ellipse class="cls-89" cx="407.68" cy="281.27" rx="20.88" ry="18.25" transform="translate(-1.63 560.15) rotate(-68.87)"/><ellipse class="cls-90" cx="407.69" cy="281.25" rx="20.62" ry="18.02" transform="translate(-1.61 560.15) rotate(-68.87)"/><ellipse class="cls-91" cx="407.69" cy="281.23" rx="20.36" ry="17.79" transform="translate(-1.59 560.14) rotate(-68.87)"/><path class="cls-92" d="M425.18,283.72c-2.13,10.84-11.69,18.5-21.35,17.12s-15.76-11.29-13.63-22.13,11.7-18.5,21.36-17.12S427.32,272.88,425.18,283.72Z"/><ellipse class="cls-93" cx="407.69" cy="281.2" rx="19.84" ry="17.34" transform="translate(-1.56 560.12) rotate(-68.87)"/></g><ellipse class="cls-18" cx="466.34" cy="285.22" rx="27.97" ry="19.12" transform="translate(4.3 577.35) rotate(-63.75)"/><path class="cls-94" d="M474.52,294.69c-10.51,4.57-20.33,1-26.71-6.2a88.86,88.86,0,0,1-3.22,13.86l.18,0-6.33,36.48c5.49-8.57,9.3-19,12-30.85a13.26,13.26,0,0,0,2.67,2c9.25,5.1,22.53-1.88,29.65-15.58a39.26,39.26,0,0,0,3.75-10.69A24.57,24.57,0,0,1,474.52,294.69Z"/><path class="cls-95" d="M458.78,284.06l8.78,2.73C469.75,272.6,481,269.58,481,269.58,464.94,260.67,458.78,284.06,458.78,284.06Z"/><path class="cls-96" d="M395.51,303.22v0Z"/><path class="cls-97" d="M482.44,134.91c-4.3-11.35-11.72-14.39-20.61-13.76,4.78-2.18,4.08-6.5,4.08-6.5a9.62,9.62,0,0,0-8.52,1.38c6.72-5.36,4.5-14.86,4.5-14.86-14.48,3.71-12.8,11.06-12.8,11.06-3.61-12.21-19.72-18.38-19.72-18.38a17.32,17.32,0,0,0,.26,5c-24.57-22.54-60.17-29.65-60.17-29.65a13.48,13.48,0,0,0-3,8.44,266.35,266.35,0,0,0-40.24-4.77c-9.15,26-4.17,43.06,2.62,53.41,2.45,3.78,5.9,10,17.23,17.33,0,0,11.75,9.44,32.07,13.1,18.17,3.27,45.64-2.11,45.64-2.11C442,157,458.37,217.42,453.57,263.18c-1.09,10.47,10.31-2.18,10.31-2.18A218.42,218.42,0,0,0,468,235.58C468,235.46,493.72,164.73,482.44,134.91Z"/><path class="cls-98" d="M322.7,112c-28.56,4-34.8,104.68-36.8,121.07a22,22,0,0,1-.72,3.27c-.15.59,2.07.78,2,.15a11.54,11.54,0,0,1,.6-3.19c8.55-29.53,43-91.39,58.19-89.77C346,143.52,332.9,132.54,322.7,112Z"/><path class="cls-99" d="M437.79,122.41s.16,0,0,0Z"/><g class="cls-17"><ellipse class="cls-18" cx="319.1" cy="262.83" rx="33.68" ry="40.72" transform="translate(-1.04 1.27) rotate(-0.23)"/><ellipse class="cls-19" cx="319.1" cy="262.83" rx="33.46" ry="40.45" transform="translate(-1.04 1.27) rotate(-0.23)"/><ellipse class="cls-20" cx="319.1" cy="262.83" rx="33.24" ry="40.18" transform="translate(-1.04 1.27) rotate(-0.23)"/><ellipse class="cls-21" cx="319.1" cy="262.83" rx="33.02" ry="39.92" transform="translate(-1.04 1.27) rotate(-0.23)"/><ellipse class="cls-22" cx="319.1" cy="262.83" rx="32.79" ry="39.65" transform="translate(-1.04 1.27) rotate(-0.23)"/><ellipse class="cls-23" cx="319.1" cy="262.83" rx="32.57" ry="39.38" transform="translate(-1.04 1.27) rotate(-0.23)"/><ellipse class="cls-24" cx="319.1" cy="262.83" rx="32.35" ry="39.11" transform="translate(-1.04 1.27) rotate(-0.23)"/><ellipse class="cls-25" cx="319.1" cy="262.83" rx="32.13" ry="38.85" transform="translate(-1.04 1.27) rotate(-0.23)"/><ellipse class="cls-26" cx="319.1" cy="262.83" rx="31.91" ry="38.58" transform="matrix(1, 0, 0, 1, -1.04, 1.27)"/><ellipse class="cls-27" cx="319.1" cy="262.83" rx="31.69" ry="38.31" transform="translate(-1.04 1.27) rotate(-0.23)"/><ellipse class="cls-28" cx="319.1" cy="262.83" rx="31.46" ry="38.04" transform="translate(-1.04 1.27) rotate(-0.23)"/><ellipse class="cls-29" cx="319.1" cy="262.83" rx="31.24" ry="37.77" transform="translate(-1.04 1.27) rotate(-0.23)"/><ellipse class="cls-30" cx="319.1" cy="262.83" rx="31.02" ry="37.51" transform="translate(-1.04 1.27) rotate(-0.23)"/><ellipse class="cls-31" cx="319.1" cy="262.83" rx="30.8" ry="37.24" transform="translate(-1.04 1.27) rotate(-0.23)"/><ellipse class="cls-32" cx="319.1" cy="262.83" rx="30.58" ry="36.97" transform="translate(-1.04 1.27) rotate(-0.23)"/><ellipse class="cls-33" cx="319.1" cy="262.83" rx="30.36" ry="36.7" transform="translate(-1.04 1.27) rotate(-0.23)"/><ellipse class="cls-34" cx="319.1" cy="262.83" rx="30.13" ry="36.43" transform="translate(-1.04 1.27) rotate(-0.23)"/><ellipse class="cls-35" cx="319.1" cy="262.83" rx="29.91" ry="36.17" transform="translate(-1.04 1.27) rotate(-0.23)"/><ellipse class="cls-36" cx="319.1" cy="262.83" rx="29.69" ry="35.9" transform="translate(-1.04 1.27) rotate(-0.23)"/><ellipse class="cls-37" cx="319.1" cy="262.83" rx="29.47" ry="35.63" transform="translate(-1.04 1.27) rotate(-0.23)"/><ellipse class="cls-38" cx="319.1" cy="262.83" rx="29.25" ry="35.36" transform="translate(-1.04 1.27) rotate(-0.23)"/><ellipse class="cls-39" cx="319.1" cy="262.83" rx="29.03" ry="35.09" transform="translate(-1.04 1.27) rotate(-0.23)"/><ellipse class="cls-40" cx="319.1" cy="262.83" rx="28.81" ry="34.83" transform="translate(-1.04 1.27) rotate(-0.23)"/><ellipse class="cls-41" cx="319.1" cy="262.83" rx="28.58" ry="34.56" transform="translate(-1.04 1.27) rotate(-0.23)"/><ellipse class="cls-42" cx="319.1" cy="262.83" rx="28.36" ry="34.29" transform="translate(-1.04 1.27) rotate(-0.23)"/><ellipse class="cls-43" cx="319.1" cy="262.83" rx="28.14" ry="34.02" transform="translate(-1.04 1.27) rotate(-0.23)"/><ellipse class="cls-44" cx="319.1" cy="262.83" rx="27.92" ry="33.76" transform="matrix(1, 0, 0, 1, -1.04, 1.27)"/><ellipse class="cls-45" cx="319.1" cy="262.83" rx="27.7" ry="33.49" transform="translate(-1.04 1.27) rotate(-0.23)"/><ellipse class="cls-46" cx="319.1" cy="262.83" rx="27.48" ry="33.22" transform="translate(-1.04 1.27) rotate(-0.23)"/><ellipse class="cls-47" cx="319.1" cy="262.83" rx="27.25" ry="32.95" transform="translate(-1.04 1.27) rotate(-0.23)"/><ellipse class="cls-48" cx="319.1" cy="262.83" rx="27.03" ry="32.68" transform="translate(-1.04 1.27) rotate(-0.23)"/><ellipse class="cls-49" cx="319.1" cy="262.83" rx="26.81" ry="32.42" transform="translate(-1.04 1.27) rotate(-0.23)"/><ellipse class="cls-50" cx="319.1" cy="262.83" rx="26.59" ry="32.15" transform="translate(-1.04 1.27) rotate(-0.23)"/><ellipse class="cls-51" cx="319.1" cy="262.83" rx="26.37" ry="31.88" transform="translate(-1.04 1.27) rotate(-0.23)"/><ellipse class="cls-52" cx="319.1" cy="262.83" rx="26.15" ry="31.61" transform="translate(-1.04 1.27) rotate(-0.23)"/><ellipse class="cls-53" cx="319.1" cy="262.83" rx="25.92" ry="31.34" transform="translate(-1.04 1.27) rotate(-0.23)"/><ellipse class="cls-54" cx="319.1" cy="262.83" rx="25.7" ry="31.08" transform="translate(-1.04 1.27) rotate(-0.23)"/><ellipse class="cls-55" cx="319.1" cy="262.83" rx="25.48" ry="30.81" transform="translate(-1.04 1.27) rotate(-0.23)"/><ellipse class="cls-56" cx="319.1" cy="262.83" rx="25.26" ry="30.54" transform="translate(-1.04 1.27) rotate(-0.23)"/><ellipse class="cls-56" cx="319.1" cy="262.83" rx="25.04" ry="30.27" transform="translate(-1.04 1.27) rotate(-0.23)"/><ellipse class="cls-57" cx="319.1" cy="262.83" rx="24.82" ry="30" transform="translate(-1.04 1.27) rotate(-0.23)"/><ellipse class="cls-58" cx="319.1" cy="262.83" rx="24.6" ry="29.74" transform="translate(-1.04 1.27) rotate(-0.23)"/><ellipse class="cls-59" cx="319.1" cy="262.83" rx="24.37" ry="29.47" transform="translate(-1.04 1.27) rotate(-0.23)"/><ellipse class="cls-60" cx="319.1" cy="262.83" rx="24.15" ry="29.2" transform="translate(-1.04 1.27) rotate(-0.23)"/><ellipse class="cls-61" cx="319.1" cy="262.83" rx="23.93" ry="28.93" transform="matrix(1, 0, 0, 1, -1.04, 1.27)"/><ellipse class="cls-62" cx="319.1" cy="262.83" rx="23.71" ry="28.67" transform="translate(-1.04 1.27) rotate(-0.23)"/><ellipse class="cls-63" cx="319.1" cy="262.83" rx="23.49" ry="28.4" transform="translate(-1.04 1.27) rotate(-0.23)"/><ellipse class="cls-64" cx="319.1" cy="262.83" rx="23.27" ry="28.13" transform="translate(-1.04 1.27) rotate(-0.23)"/><ellipse class="cls-65" cx="319.1" cy="262.83" rx="23.04" ry="27.86" transform="translate(-1.04 1.27) rotate(-0.23)"/><ellipse class="cls-66" cx="319.1" cy="262.83" rx="22.82" ry="27.59" transform="translate(-1.04 1.27) rotate(-0.23)"/><ellipse class="cls-67" cx="319.1" cy="262.83" rx="22.6" ry="27.33" transform="matrix(1, 0, 0, 1, -1.04, 1.27)"/><ellipse class="cls-68" cx="319.1" cy="262.83" rx="22.38" ry="27.06" transform="translate(-1.04 1.27) rotate(-0.23)"/><ellipse class="cls-69" cx="319.1" cy="262.83" rx="22.16" ry="26.79" transform="matrix(1, 0, 0, 1, -1.04, 1.27)"/><ellipse class="cls-70" cx="319.1" cy="262.83" rx="21.94" ry="26.52" transform="translate(-1.04 1.27) rotate(-0.23)"/><ellipse class="cls-71" cx="319.1" cy="262.83" rx="21.71" ry="26.25" transform="matrix(1, 0, 0, 1, -1.04, 1.27)"/><ellipse class="cls-72" cx="319.1" cy="262.83" rx="21.49" ry="25.99" transform="translate(-1.04 1.27) rotate(-0.23)"/><ellipse class="cls-73" cx="319.1" cy="262.83" rx="21.27" ry="25.72" transform="translate(-1.04 1.27) rotate(-0.23)"/><ellipse class="cls-74" cx="319.1" cy="262.83" rx="21.05" ry="25.45" transform="matrix(1, 0, 0, 1, -1.04, 1.27)"/><ellipse class="cls-75" cx="319.1" cy="262.83" rx="20.83" ry="25.18" transform="translate(-1.04 1.27) rotate(-0.23)"/><ellipse class="cls-76" cx="319.1" cy="262.83" rx="20.61" ry="24.91" transform="translate(-1.04 1.27) rotate(-0.23)"/><ellipse class="cls-77" cx="319.1" cy="262.83" rx="20.39" ry="24.65" transform="translate(-1.04 1.27) rotate(-0.23)"/><ellipse class="cls-78" cx="319.1" cy="262.83" rx="20.16" ry="24.38" transform="translate(-1.04 1.27) rotate(-0.23)"/><ellipse class="cls-79" cx="319.1" cy="262.83" rx="19.94" ry="24.11" transform="translate(-1.04 1.27) rotate(-0.23)"/><ellipse class="cls-80" cx="319.1" cy="262.83" rx="19.72" ry="23.84" transform="translate(-1.04 1.27) rotate(-0.23)"/><ellipse class="cls-81" cx="319.1" cy="262.83" rx="19.5" ry="23.58" transform="matrix(1, 0, 0, 1, -1.04, 1.27)"/><ellipse class="cls-82" cx="319.1" cy="262.83" rx="19.28" ry="23.31" transform="translate(-1.04 1.27) rotate(-0.23)"/><ellipse class="cls-83" cx="319.1" cy="262.83" rx="19.06" ry="23.04" transform="translate(-1.04 1.27) rotate(-0.23)"/><ellipse class="cls-84" cx="319.1" cy="262.83" rx="18.83" ry="22.77" transform="translate(-1.04 1.27) rotate(-0.23)"/><ellipse class="cls-85" cx="319.1" cy="262.83" rx="18.61" ry="22.5" transform="translate(-1.04 1.27) rotate(-0.23)"/><ellipse class="cls-86" cx="319.1" cy="262.83" rx="18.39" ry="22.24" transform="translate(-1.04 1.27) rotate(-0.23)"/><ellipse class="cls-87" cx="319.1" cy="262.83" rx="18.17" ry="21.97" transform="translate(-1.04 1.27) rotate(-0.23)"/><ellipse class="cls-88" cx="319.1" cy="262.83" rx="17.95" ry="21.7" transform="translate(-1.04 1.27) rotate(-0.23)"/><ellipse class="cls-89" cx="319.1" cy="262.83" rx="17.73" ry="21.43" transform="matrix(1, 0, 0, 1, -1.04, 1.27)"/><ellipse class="cls-90" cx="319.1" cy="262.83" rx="17.5" ry="21.16" transform="translate(-1.04 1.27) rotate(-0.23)"/><ellipse class="cls-91" cx="319.1" cy="262.83" rx="17.28" ry="20.9" transform="translate(-1.04 1.27) rotate(-0.23)"/><ellipse class="cls-92" cx="319.1" cy="262.83" rx="17.06" ry="20.63" transform="matrix(1, 0, 0, 1, -1.04, 1.27)"/><ellipse class="cls-93" cx="319.1" cy="262.83" rx="16.84" ry="20.36" transform="translate(-1.04 1.27) rotate(-0.23)"/></g><path class="cls-99" d="M438.23,120.72h0Z"/><path class="cls-100" d="M481.06,131.79a18.89,18.89,0,0,0-7.92-8.63c-3,.08-6.17.3-9.41.51-9.65.64-19.67.5-29-2.3-10.85-3.25-19.78-9.75-28.84-16.29-4.56-3.3-9.11-6.65-13.88-9.66C381.79,89,369.59,82.31,357.44,80.78c-6-.76-12.17.13-18,1.51a38,38,0,0,0-13.72,6.31,35.63,35.63,0,0,1-3.88,2.11,63.81,63.81,0,0,0-.45,12.32c.62-.26,1.19-.49,1.38-.6a38.05,38.05,0,0,1,8.08-3,33.39,33.39,0,0,1,10.3-.93c14.56,1.19,27,9.09,39.13,16.52,5,3,10,6.46,15.31,9.74a181.13,181.13,0,0,0,16.82,9.49c10,4.86,22.6,7.87,33.74,6.6,1.51-.17,3-.27,4.44-.48A97.59,97.59,0,0,0,466,136.51c4.5-1.48,8.37-2.86,11.74-3.83C478.91,132.32,480,132,481.06,131.79Z"/><path class="cls-99" d="M437.56,122.38h0Z"/><path class="cls-101" d="M389.43,195.76S374.82,225,390,248.81l45.06,3.3c3.15-7.05,1.69-15.82.28-27.7C434.16,214.7,389.43,195.76,389.43,195.76Z"/><path class="cls-102" d="M312.4,205.54c-5.23,8.22-10.33,27.27-10.33,27.27l40.62,11.52c22.27-18.42,15.92-55.12,15.92-55.12S317.29,197.85,312.4,205.54Z"/><path class="cls-103" d="M416.33,235.5C397.84,231.34,390,248.81,390,248.81s6.07,2.65,23.26,3.88c18.56,1.34,21.8-.58,21.8-.58S434.82,239.66,416.33,235.5Z"/><path class="cls-103" d="M302.07,232.81s5.09,3.92,17.28,6.64c15.19,3.39,23.34,4.88,23.34,4.88s-.94-11.31-7.92-17.81S314.76,218.32,302.07,232.81Z"/><path class="cls-104" d="M319.35,239.45q9.09,2,14.72,3.17c2.24-6.12,1.24-12.12-2.6-14-4.25-2.06-10.36,1.75-13.65,8.52-.28.59-.52,1.17-.73,1.75Z"/><path class="cls-105" d="M417.69,239.27c-4.23-2.22-10.41,2.09-13.79,9.63a19.09,19.09,0,0,0-1,2.74c2.86.4,6.27.76,10.29,1.05,2.78.2,5.21.33,7.34.4C422.25,246.88,421.21,241.12,417.69,239.27Z"/><path class="cls-106" d="M328.15,220.17c-13.48-2.92-26.06,5.23-26.08,12.64,0,0,7.87-8.37,22.28-5.51,17,3.37,18.34,17,18.34,17C346.34,238.49,346.81,224.22,328.15,220.17Z"/><path class="cls-107" d="M309.67,211.11c18.11-13,40.05-3.21,47.6-11.26,3.71-3.95,1.14-11.23,1.14-11.23C317.51,184.3,309.67,211.11,309.67,211.11Z"/><path class="cls-108" d="M389.9,193.48s-3.06,7-.49,10.77c8,11.76,31.83,6.49,46.31,23.53C435.72,227.78,434,194.77,389.9,193.48Z"/><path class="cls-106" d="M415.09,230.91c-21-3.18-27.19,12.49-25.12,17.9,0,0,8.37-11.49,25.15-9.46,18.24,2.2,19.91,12.76,19.91,12.76C437.85,245.48,435.85,234.05,415.09,230.91Z"/><path class="cls-96" d="M396.7,304.84v0Z"/><path class="cls-109" d="M331.17,238.84a3.78,3.78,0,0,0-3.4-4.64,4.91,4.91,0,0,0-5,4,4.08,4.08,0,0,0,.12,2c2.42.54,4.64,1,6.63,1.44A5,5,0,0,0,331.17,238.84Z"/><path class="cls-109" d="M413.46,246a4.91,4.91,0,0,0-5,4,3.71,3.71,0,0,0,.25,2.3c1.41.14,2.91.27,4.51.38.87.07,1.69.12,2.49.17a4.26,4.26,0,0,0,1.14-2.23A3.78,3.78,0,0,0,413.46,246Z"/><path class="cls-110" d="M324.83,233.39c-2,.68-3.53,2.31-3.44,3.64s1.77,1.87,3.76,1.2,3.52-2.3,3.43-3.64S326.81,232.72,324.83,233.39Z"/><path class="cls-110" d="M410,244.4c-2.18.95-3.8,3-3.62,4.54s2.09,2.05,4.27,1.1,3.8-3,3.62-4.55S412.2,243.45,410,244.4Z"/><path class="cls-111" d="M446.46,145.44c-11.9,6.74-24.51,9.91-38,11.28a1.89,1.89,0,0,0-.44.1c9-.94,15.79-2.26,15.79-2.26a12.5,12.5,0,0,1,6.52,3.32,85.82,85.82,0,0,0,18.17-8C451.11,148.28,449.19,143.9,446.46,145.44Z"/><path class="cls-112" d="M318.12,293.77s-1.07,41.51,38.58,44c42.46,2.64,44.45-37.92,44.45-37.92Z"/><path class="cls-113" d="M320.15,294.62c-.72.76-.6,31.38,36.9,33.69,38,2.33,42.91-26.16,42.53-27C398.4,298.69,322.77,291.85,320.15,294.62Z"/><path class="cls-114" d="M326.7,294.52s-.35,5.87,3.19,10.31c7.9,9.92,50.25,12.83,58.37,4.78,5.34-5.29,5.51-9.93,5.51-9.93Z"/><path class="cls-115" d="M393.77,299.68l-67.07-5.16a17,17,0,0,0,2.78,9.76c2.88-4.44,12.33,3.5,28.5,4.75,17.33,1.33,23.25-2.68,26.77-1.77,2.21.58,2.17,1.87,1.5,3.78a8.84,8.84,0,0,0,2-1.43C393.6,304.32,393.77,299.68,393.77,299.68Z"/><path class="cls-116" d="M463.88,261l-10.16.69c-4.24,18.38-11.88,32.76-21.26,38.61-9.63,6-21.32,5-21.32,5,9.64-22.62-42.32-23.68-56.64-25s-49.44-14.15-47.29,16.25c0,0-16.52-2.12-20.1-27.55-1.5-10.67-.07-29.56.28-34.76l-1.33-.22c-18.6,47.46-27.84,135.69,67.43,144.92,99,9.59,98.63-69.61,98.63-69.61C449.48,291.3,463.88,261,463.88,261ZM356.32,347c-45.16-4.36-38.71-50.87-36.9-52.85,3.16-3.45,10.95,6.56,36.93,10.1s41.27-6.22,44-3.57S398.36,351.09,356.32,347Z"/><path class="cls-117" d="M353.65,293.64c16,2.09,23-5.4,26-11-10.17-1.39-20-1.83-25.14-2.3-6.07-.57-15.87-3.19-25-3.72C330.63,282,335.27,291.25,353.65,293.64Z"/><path class="cls-111" d="M365.4,352.5a43.82,43.82,0,0,1-14.31-.47,4.56,4.56,0,0,0-5.55,4.8c.3,3.24,2.86,6.6,12.17,6.74,9.08.13,12-2.8,12.69-5.76A4.5,4.5,0,0,0,365.4,352.5Z"/><path class="cls-18" d="M355.18,252.81s-15.93-5.29-21.81,8.41c-7.47,17.4,27.08,33,39.55,15.5s-8.54-56.3-8.54-56.3S368.07,239.54,355.18,252.81Z"/><path class="cls-118" d="M332.33,266.22c.09,15.12,29.34,26.34,40.6,10.5a18.63,18.63,0,0,0,1.74-3.08A90.52,90.52,0,0,1,332.33,266.22Z"/><path class="cls-119" d="M367.5,240.15l-4-.7s-3.93,12.76-8.12,14h0c-.62-.15-1.25-.28-1.91-.4-7-1.22-13.17.26-13.69,3.31s4.77,6.33,11.81,7.55c6.59,1.15,12.56.77,13.84-2.71C365.4,261.25,370.44,248,367.5,240.15Z"/><path class="cls-120" d="M325.31,246.22c-3.9-.47-7.5-1.86-11.33-2.54-2.09-.36-3.09,2.58-1.48,3.76,3.62,2.64,8.58,3.14,12.92,3C327.89,250.41,327.64,246.5,325.31,246.22Z"/><path class="cls-120" d="M418.25,258.07a86.61,86.61,0,0,1-11.83-.54c-2.41-.35-3.52,3.61-1.06,4.26a27.27,27.27,0,0,0,13,.67C420.62,261.93,420.91,258.1,418.25,258.07Z"/><path class="cls-121" d="M741.89,1019.47c-5.84-12.25-24.46-30.18-44.17-49.17-5.05-4.86-10.27-9.88-15.22-14.77-21.7-21.43-37.39-32.54-48-33.95-9.95-1.33-16.91,2.28-21.42,6.31-.93,1.49-1.74,2.88-2.48,4-.38.58-.35,3.59-.35,3.59l-.06.08c0,.06,0,.11.08.16a23.33,23.33,0,0,1,23.83-11.18c9.76,1.3,25.31,12.44,46.24,33.1,5,4.9,10.19,9.94,15.25,14.8,19.51,18.79,37.94,36.54,43.54,48.3,6.57,13.81,13.55,31,9.14,41.88-1.77,4.37-5.25,7.46-10.61,9.44l.17.48a24.83,24.83,0,0,0,4.79.52,18.63,18.63,0,0,0,8.43-9.31C756,1051.86,748.72,1033.84,741.89,1019.47Z"/><path class="cls-121" d="M295.89,1143.69c-.92-.48-1.84-.92-2.78-1.3-.41-.17-3.23-.78-4.21-1.11,4.3,3.23,14.66,12.85,12.32,29.35-2.4,16.95-14.49,33.3-21,42.08-2.39,3.23-4,5.37-4.54,6.72-.93,2.2-1.87,7.94-3.29,16.64-3.84,23.52-11,67.32-27.07,85-16.44,18.06-32.57,18.57-40.88,17.2a15.61,15.61,0,0,0,1.75,2.59,2.51,2.51,0,0,0-.07.64,40.71,40.71,0,0,0,4.16.22c9.61,0,23.42-3.41,37.26-18.63,16.68-18.33,23.92-62.7,27.81-86.53,1.29-7.87,2.3-14.08,3.09-16a52,52,0,0,1,4.2-6.11c6.65-9,19-25.74,21.54-43.44A32.9,32.9,0,0,0,295.89,1143.69Z"/><path class="cls-122" d="M156.67,838s97,48.06,97.84,53.61-102.81,111.31-109.83,113.2-89.88,2.63-96.36-1.69-18-30.91-15.57-33.61S151.27,839.1,156.67,838Z"/><path class="cls-123" d="M331.9,911.35s14.88,132.38,34.91,173c1.53,3.12,45,40.16,54.6,38.19,9.47-2,46.43-59.73,46.5-67.54.55-59.36-4.17-160.13-9.13-161.92S331.9,911.35,331.9,911.35Z"/><path class="cls-18" d="M140.6,68.7c.54,0,55.94,28.89,55.94,28.89s31.23-1.68,44.4-8.06,29.89-30.75,31.79-37.22,2.4-16,5.56-23-9.71-12.87-19.21-4.13c0,0,.76-3.37-5.66-7.23s-11.54-2.12-11.54-2.12,1.54-5.24-5.57-8.26A16.24,16.24,0,0,0,223,8.1s.82-5.13-6.25-6.78-14.23,3.8-14.23,3.8-3.16-6.8-12.72-4.73-12.28,22.46-12.28,22.46a56.15,56.15,0,0,0-22,12.9c-10.73,10-19.27,31.39-19.27,31.39Z"/><path class="cls-124" d="M259.54,24.82l-.45.4s.75-3.37-5.67-7.23-11.54-2.12-11.54-2.12,1.54-5.24-5.57-8.26A16.24,16.24,0,0,0,223,8.1s.82-5.13-6.25-6.78-14.23,3.8-14.23,3.8-3.16-6.8-12.72-4.73C184,1.65,180.68,9.63,179,15.72c14.83,6,65.69,26.77,72,25.94C256,41,258.45,31.2,259.54,24.82Z"/><path class="cls-125" d="M269.88,44.69c2.54-5.85,6.74-21,6.74-21s.08-.16.18-.43c-3.17-2.78-9.63-3.63-15.45.21-3.94,7.83-1.16,19.18-1.16,19.18L243.92,57.46s-17.44-2.64-30.35-6.21c-14-3.9-27.69,2.94-30,1.77-2-1-12.34-20.28-15.35-26.35a59.57,59.57,0,0,0-12.77,9.08c-6.58,6.16-12.34,16.58-15.81,23.72a19.7,19.7,0,0,0,3.08,10.25c5,2.53,18.13,9.31,30.15,15.56,20.29,3.72,62.94-3.08,67.45-6.73C245.2,74.62,267.34,50.54,269.88,44.69Z"/><path class="cls-126" d="M258.28,41.8c0-.12,1.42-14.74,6-19.89a16.79,16.79,0,0,0-5.2,3.31,4.5,4.5,0,0,0-1-3.21C254.92,27.9,254,37.36,253.36,40l-12.84,9.4c-1.81.33-5.67.61-8-1.05-1.6-1.11-2.45-3.08-2.53-5.84-.25-8.6,11-21.56,17-26.84a11.89,11.89,0,0,0-5.05.25,5.47,5.47,0,0,0,.06-2.17C236.31,19,224.44,32,224.74,42.51a16.27,16.27,0,0,0,.22,2.16c-3.5.85-7.48,1.13-10-.81s-3.51-5.84-2.74-11c1.34-9.15,14-23.74,16.27-26.31A16.11,16.11,0,0,0,223,8.1a5.32,5.32,0,0,0-.44-2.68C218,10.39,208.36,23,207,32.1a21.12,21.12,0,0,0,.54,9.53c-2.67.58-8,1-11.6-3-3.08-3.45,3-21.31,10.77-35.9a24.11,24.11,0,0,0-4.26,2.43A8.39,8.39,0,0,0,200.88,3c-4.45,8.59-11.32,24.25-10.76,33.34A10.7,10.7,0,0,1,181,35.14c-1.52-1-3.74-4-3.46-12.63l-.05.34a39.47,39.47,0,0,0-5.16,1.87c.16,7.11,2.05,11.91,5.67,14.3a15.63,15.63,0,0,0,8.56,2.63,17,17,0,0,0,5-.67,7.36,7.36,0,0,0,.47.63A16.05,16.05,0,0,0,204.1,46.8,20.9,20.9,0,0,0,210,46a10.74,10.74,0,0,0,1.63,1.53A13.78,13.78,0,0,0,220,50.11a26.49,26.49,0,0,0,6.63-.86,10.09,10.09,0,0,0,2.79,2.89,14.52,14.52,0,0,0,8.07,2.26,21.36,21.36,0,0,0,4.94-.51l.51-.12L258.1,42.66Z"/><path class="cls-18" d="M589.69,416.72l61.86-1.6,1-14.14s28-30.08,29.84-41.25,4.51-29.51-.91-35.89-11.67-6.51-11.67-6.51a7.84,7.84,0,0,0-2.41-8.44c-4.21-3.49-12.64-4.45-12.64-4.45s.36-5.66-5.9-9.15-12.64.48-12.64.48a7.39,7.39,0,0,0-5.77-7.35c-6-1.44-8.67.6-8.67.6s2.89-9.14-3.13-12.87-12.16,10.35-18.78,12.63S576,319.84,574.35,332.12s13,46.36,13,52-.6,32.58-.6,32.58Z"/><path class="cls-127" d="M681.48,323.82c-5.41-6.37-11.67-6.5-11.67-6.5a7.82,7.82,0,0,0-2.41-8.43c-4.21-3.49-12.64-4.46-12.64-4.46s.36-5.65-5.9-9.15-12.64.49-12.64.49a7.39,7.39,0,0,0-5.77-7.35c-6-1.44-8.67.6-8.67.6a2.56,2.56,0,0,0,.08-.29c-4.16,3.54-9.89,9-12,13.88-3.54,8,54.39,38,60.16,38.75s7.58-2,7.58-2,.81-7.12,2.85-8.8l3.16-2.56A11.35,11.35,0,0,0,681.48,323.82Z"/><path class="cls-128" d="M677.56,339.35l-6.14,1.52c-.67-1.94-1.55-4.52-1.61-4.7l-4.74,1.58c.07.21,1.41,4.14,2,6-2.2,4.76-6.38,10.87-9.34,10.38-2.63-.43-3.52-1.37-4-2.05-1.33-2-1.19-6.23.42-12.47,2.31-9,14.11-18.51,18.4-21.73a12.24,12.24,0,0,0-2.82-.53,8.42,8.42,0,0,0,.27-3.81c-4.27,3.14-17.87,13.84-20.69,24.82a39.42,39.42,0,0,0-1.49,9.76c-2.45.38-6,.51-8.07-1-1.17-.89-1.74-2.34-1.73-4.43,0-8,13.2-28.63,19.53-37.71-1.69-.35-2.87-.49-2.87-.49a8.75,8.75,0,0,0-.6-3.27c-3.5,4.95-18.95,27.36-20.86,39.25-2,.67-5.65,1.52-8.77.38a8.08,8.08,0,0,1-4.64-4.55c-3.24-7,10.84-29.42,20.6-42.08a14.86,14.86,0,0,0-4.27,1.61,8.19,8.19,0,0,0-.72-3.32c-4.89,6.48-17.24,23.69-20.3,36.29A12.35,12.35,0,0,1,611,325c-2.05-3-2.59-6.93-1.6-11.77,2.77-13.57,13.86-22.67,17.5-25.33-3.49-.11-5.07,1.1-5.07,1.1a17.6,17.6,0,0,0,.67-4.06c-5.05,4-15.16,13.4-18,27.29a23.34,23.34,0,0,0-.07,10c-1.7.91-3.43,1.84-4.81,2.56q1.62,2,3.2,4l3.48-1.86c.2.32.37.65.59,1a17.87,17.87,0,0,0,7.67,6.11,10.49,10.49,0,0,0,.84,4.37,13.06,13.06,0,0,0,7.5,7.16,14.89,14.89,0,0,0,5.07.84,21.58,21.58,0,0,0,5.49-.76,9.26,9.26,0,0,0,3.41,5.47,13.33,13.33,0,0,0,8.07,2.3,24.76,24.76,0,0,0,3.84-.32,9.91,9.91,0,0,0,.89,1.75c1.5,2.3,3.9,3.7,7.34,4.26a7.65,7.65,0,0,0,1.16.09c6.64,0,11.68-9.33,13.46-13.15l4-1C676.15,343.07,676.83,341.2,677.56,339.35Z"/><path class="cls-18" d="M14.89,312s96.14-3,105.47-12.5,31.75-111,38.86-128.35S199.9,96.91,199.9,96.91L138.84,63S48.27,205,29.61,252.59,14.89,312,14.89,312Z"/><path class="cls-18" d="M634.17,677.12c-7.21,2.53-49.85-2.2-60.95-20.83s-18-50.74-14.34-83.91c.5-4.62,16.52-64.83,22.85-105.14,4-25.7,5.5-71,5.5-71l66,2.05s10,121.62,4.59,184.24S638.19,675.71,634.17,677.12Z"/><path class="cls-129" d="M272.73,52.31c.26-.89.5-1.85.72-2.85-1.26,1.35-19.42,32.35-33.39,37.35s-64.47,4.94-65.3,5.21,3.89,6,5.6,7.58-23.69,42.86-31.93,62.75-34.08,107.19-41.78,116-75.89,19.9-78.81,15.2c-2-3.29,2.23-31.48,5-48.47-1.22,2.71-2.3,5.25-3.2,7.55C11,300.18,14.89,312,14.89,312s96.14-3,105.47-12.5,31.75-111,38.86-128.35c6.74-16.47,37.17-68.31,40.4-73.79,8.19-.6,30.66-2.68,41.32-7.85C254.12,83.15,270.83,58.78,272.73,52.31Z"/><path class="cls-130" d="M661.56,365c-3.2-5.48-42.14-9.14-42.14-9.14-3.3-8.69-26.11-30.93-26.11-30.93l7.31-4.72,4.87-24.38s2.75-.46,9.6-7.16c5.26-5.14,4.55-9.75,3.83-12.3a2.69,2.69,0,0,0-.27-.2c-6-3.74-12.16,10.35-18.78,12.63S576,319.84,574.35,332.12c-1.45,10.59,9.28,37.29,12.25,48.05,15.15,7.93,56.32,15.21,60,13.76C650.87,392.25,664.76,370.47,661.56,365Z"/><path class="cls-131" d="M573.22,656.29c11.1,18.63,53.74,23.36,60.95,20.83,4-1.41,18.24-31.94,23.68-94.57,5.07-58.32-3.29-167.81-4.46-182.56,4.66-5.08,27.36-30.28,29-40.3,1.23-7.46,2.82-18.12,2.13-26.27-.76,4.11-3.93,20.87-5.43,25.71-1.71,5.54-27.92,35.26-29.58,37.13s-16.21,2.48-16.21,2.48,17.38,91.37,13.05,145.72S625.87,648,622.72,650.79s-41.35-12.6-46.07-17.72-17.77-60.69-17.77-60.69C555.25,605.55,562.12,637.66,573.22,656.29Z"/><path class="cls-132" d="M627.41,405.86c-1.6-3.75-29.2-6.68-40.25-7.57-.34,9.08-1.91,46.49-5.43,68.95-5,31.79-16,75.94-20.69,95.46,6,22.49,15.93,59.91,18,62.71,3,4,31.13,13.25,34.77,13.25s6.95-2.32,20.61-56.46S629.4,410.5,627.41,405.86Z"/><path class="cls-133" d="M170.66,99.57C169.81,93,142.33,77.1,133.16,72,114.67,101.28,56.1,195.14,34.44,241.5c-.78,17.05-1.32,43.82,2.86,46.53,6.17,4,53.82-8.12,65.48-13.95S135,183.57,139.66,169.86,171.69,107.46,170.66,99.57Z"/><path class="cls-134" d="M260.37,1255.54c-4.35-13.72-44.27-9-60.21-7.86-2.38,29.4-3.8,67,2.07,85.29,7.59-.13,18.78-.8,27.42-3.35C244.07,1325.36,265.72,1272.43,260.37,1255.54Z"/><path class="cls-135" d="M736.64,1072.28c27-13.6-7.83-70.47-25.3-78.39-14.05-6.36-29.21,29.61-35,45.47C695.73,1050,718.28,1067.91,736.64,1072.28Z"/><polygon class="cls-8" points="485.18 1026.13 488.8 1065.12 496.31 1062.25 493.16 1023.04 485.18 1026.13"/><polygon class="cls-8" points="167.06 1030.16 139.37 1059.5 145.72 1065.73 172.87 1037.51 167.06 1030.16"/></g></g></svg>