<svg xmlns="http://www.w3.org/2000/svg" xmlns:xlink="http://www.w3.org/1999/xlink" viewBox="0 0 634.54 1458.61"><defs><style>.cls-1{fill:url(#Áåçûìÿííûé_ãðàäèåíò_11);}.cls-2{fill:url(#Áåçûìÿííûé_ãðàäèåíò_487);}.cls-3{fill:url(#Áåçûìÿííûé_ãðàäèåíò_6);}.cls-4{fill:#2c2c2d;}.cls-5{fill:#333844;}.cls-6{opacity:0.09;}.cls-7{fill:#292d35;}.cls-8{fill:#1c1d1e;}.cls-9{fill:url(#Áåçûìÿííûé_ãðàäèåíò_501);}.cls-10{fill:#3d3d3d;}.cls-11{fill:url(#Áåçûìÿííûé_ãðàäèåíò_486);}.cls-12{fill:url(#Áåçûìÿííûé_ãðàäèåíò_486-2);}.cls-13{fill:url(#Áåçûìÿííûé_ãðàäèåíò_501-2);}.cls-14{fill:url(#Áåçûìÿííûé_ãðàäèåíò_7);}.cls-15{fill:url(#Áåçûìÿííûé_ãðàäèåíò_7-2);}.cls-16{fill:url(#Áåçûìÿííûé_ãðàäèåíò_20);}.cls-17{fill:url(#Áåçûìÿííûé_ãðàäèåíò_20-2);}.cls-18{fill:url(#Áåçûìÿííûé_ãðàäèåíò_5);}.cls-19{fill:url(#Áåçûìÿííûé_ãðàäèåíò_17);}.cls-20{fill:url(#Áåçûìÿííûé_ãðàäèåíò_19);}.cls-21{fill:url(#Áåçûìÿííûé_ãðàäèåíò_17-2);}.cls-22{fill:url(#Áåçûìÿííûé_ãðàäèåíò_17-3);}.cls-23{fill:#969f91;}.cls-24{fill:#a8afa3;}.cls-25{fill:url(#Áåçûìÿííûé_ãðàäèåíò_5-2);}.cls-26{fill:url(#Áåçûìÿííûé_ãðàäèåíò_17-4);}.cls-27{fill:url(#Áåçûìÿííûé_ãðàäèåíò_19-2);}.cls-28{fill:url(#Áåçûìÿííûé_ãðàäèåíò_17-5);}.cls-29{fill:url(#Áåçûìÿííûé_ãðàäèåíò_17-6);}.cls-30{fill:url(#Áåçûìÿííûé_ãðàäèåíò_5-3);}.cls-31{fill:url(#Áåçûìÿííûé_ãðàäèåíò_17-7);}.cls-32{fill:url(#Áåçûìÿííûé_ãðàäèåíò_19-3);}.cls-33{fill:url(#Áåçûìÿííûé_ãðàäèåíò_17-8);}.cls-34{fill:url(#Áåçûìÿííûé_ãðàäèåíò_17-9);}.cls-35{fill:url(#Áåçûìÿííûé_ãðàäèåíò_5-4);}.cls-36{fill:url(#Áåçûìÿííûé_ãðàäèåíò_17-10);}.cls-37{fill:url(#Áåçûìÿííûé_ãðàäèåíò_19-4);}.cls-38{fill:url(#Áåçûìÿííûé_ãðàäèåíò_17-11);}.cls-39{fill:url(#Áåçûìÿííûé_ãðàäèåíò_17-12);}.cls-40{fill:url(#Áåçûìÿííûé_ãðàäèåíò_5-5);}.cls-41{fill:url(#Áåçûìÿííûé_ãðàäèåíò_17-13);}.cls-42{fill:url(#Áåçûìÿííûé_ãðàäèåíò_19-5);}.cls-43{fill:url(#Áåçûìÿííûé_ãðàäèåíò_17-14);}.cls-44{fill:url(#Áåçûìÿííûé_ãðàäèåíò_17-15);}.cls-45{fill:url(#Áåçûìÿííûé_ãðàäèåíò_5-6);}.cls-46{fill:url(#Áåçûìÿííûé_ãðàäèåíò_17-16);}.cls-47{fill:url(#Áåçûìÿííûé_ãðàäèåíò_19-6);}.cls-48{fill:url(#Áåçûìÿííûé_ãðàäèåíò_17-17);}.cls-49{fill:url(#Áåçûìÿííûé_ãðàäèåíò_17-18);}.cls-50{fill:url(#Áåçûìÿííûé_ãðàäèåíò_5-7);}.cls-51{fill:url(#Áåçûìÿííûé_ãðàäèåíò_17-19);}.cls-52{fill:url(#Áåçûìÿííûé_ãðàäèåíò_19-7);}.cls-53{fill:url(#Áåçûìÿííûé_ãðàäèåíò_17-20);}.cls-54{fill:url(#Áåçûìÿííûé_ãðàäèåíò_17-21);}.cls-55{fill:#ff9e78;}.cls-56{fill:url(#Áåçûìÿííûé_ãðàäèåíò_440);}.cls-57{fill:url(#Áåçûìÿííûé_ãðàäèåíò_487-2);}.cls-58{fill:url(#Áåçûìÿííûé_ãðàäèåíò_440-2);}.cls-59{fill:#d67363;opacity:0.69;}.cls-60{fill:url(#Áåçûìÿííûé_ãðàäèåíò_7-3);}.cls-61{fill:url(#Áåçûìÿííûé_ãðàäèåíò_29);}.cls-62{fill:url(#Áåçûìÿííûé_ãðàäèåíò_29-2);}.cls-63{fill:url(#Áåçûìÿííûé_ãðàäèåíò_440-3);}.cls-64{fill:url(#Áåçûìÿííûé_ãðàäèåíò_440-4);}.cls-65{fill:url(#Áåçûìÿííûé_ãðàäèåíò_29-3);}.cls-66{fill:#3e1208;}.cls-67{fill:url(#Áåçûìÿííûé_ãðàäèåíò_16);}.cls-172,.cls-68{opacity:0.44;}.cls-69{fill:#ff9d77;}.cls-70{fill:#ff9c77;}.cls-71{fill:#ff9b76;}.cls-72{fill:#ff9a76;}.cls-73{fill:#ff9975;}.cls-74{fill:#ff9875;}.cls-75{fill:#ff9774;}.cls-76{fill:#ff9674;}.cls-77{fill:#ff9573;}.cls-78{fill:#ff9472;}.cls-79{fill:#ff9372;}.cls-80{fill:#ff9271;}.cls-81{fill:#ff9171;}.cls-82{fill:#ff9070;}.cls-83{fill:#ff8f70;}.cls-84{fill:#ff8e6f;}.cls-85{fill:#ff8d6f;}.cls-86{fill:#ff8c6e;}.cls-87{fill:#ff8b6e;}.cls-88{fill:#ff8a6d;}.cls-89{fill:#ff896c;}.cls-90{fill:#ff886c;}.cls-91{fill:#ff876b;}.cls-92{fill:#ff866b;}.cls-93{fill:#ff856a;}.cls-94{fill:#ff846a;}.cls-95{fill:#ff8369;}.cls-96{fill:#ff8269;}.cls-97{fill:#ff8168;}.cls-98{fill:#ff8067;}.cls-99{fill:#ff7f67;}.cls-100{fill:#ff7e66;}.cls-101{fill:#ff7d66;}.cls-102{fill:#ff7c65;}.cls-103{fill:#ff7b65;}.cls-104{fill:#ff7a64;}.cls-105{fill:#ff7964;}.cls-106{fill:#ff7863;}.cls-107{fill:#ff7762;}.cls-108{fill:#ff7661;}.cls-109{fill:#ff7561;}.cls-110{fill:#ff7460;}.cls-111{fill:#ff7360;}.cls-112{fill:#ff725f;}.cls-113{fill:#ff715f;}.cls-114{fill:#ff705e;}.cls-115{fill:#ff6f5e;}.cls-116{fill:#ff6e5d;}.cls-117{fill:#ff6d5c;}.cls-118{fill:#ff6c5c;}.cls-119{fill:#ff6b5b;}.cls-120{fill:#ff6a5b;}.cls-121{fill:#ff695a;}.cls-122{fill:#ff685a;}.cls-123{fill:#ff6759;}.cls-124{fill:#ff6659;}.cls-125{fill:#ff6558;}.cls-126{fill:#ff6457;}.cls-127{fill:#ff6357;}.cls-128{fill:#ff6256;}.cls-129{fill:#ff6156;}.cls-130{fill:#ff6055;}.cls-131{fill:#ff5f55;}.cls-132{fill:#ff5e54;}.cls-133{fill:#ff5d54;}.cls-134{fill:#ff5c53;}.cls-135{fill:#ff5b53;}.cls-136{fill:#ff5a52;}.cls-137{fill:#ff5951;}.cls-138{fill:#ff5851;}.cls-139{fill:#ff5750;}.cls-140{fill:#ff5650;}.cls-141{fill:#ff554f;}.cls-142{fill:#ff544f;}.cls-143{fill:#ff534e;}.cls-144{fill:#ff524e;}.cls-145{fill:#ff514d;}.cls-146{fill:url(#Áåçûìÿííûé_ãðàäèåíò_29-4);}.cls-147{fill:url(#Áåçûìÿííûé_ãðàäèåíò_29-5);}.cls-148{fill:#7c302a;}.cls-149{fill:url(#Áåçûìÿííûé_ãðàäèåíò_57);}.cls-150{fill:#59352c;}.cls-151,.cls-155,.cls-162,.cls-171{fill:#fff;}.cls-151{opacity:0.12;}.cls-152{fill:#ffbc80;}.cls-152,.cls-163{opacity:0.11;}.cls-153{fill:url(#Áåçûìÿííûé_ãðàäèåíò_16-2);}.cls-154{fill:url(#Áåçûìÿííûé_ãðàäèåíò_16-3);}.cls-156{fill:url(#Áåçûìÿííûé_ãðàäèåíò_12);}.cls-157{fill:url(#Áåçûìÿííûé_ãðàäèåíò_12-2);}.cls-158{fill:#603f37;}.cls-159{fill:url(#Áåçûìÿííûé_ãðàäèåíò_57-2);}.cls-160{fill:url(#Áåçûìÿííûé_ãðàäèåíò_57-3);}.cls-161{fill:#1e1d1d;}.cls-162{opacity:0.82;}.cls-164{fill:#fb755c;}.cls-165{fill:url(#Áåçûìÿííûé_ãðàäèåíò_3);}.cls-166{fill:#f7f0f0;}.cls-167{fill:#c1bab0;opacity:0.32;}.cls-168{fill:url(#Áåçûìÿííûé_ãðàäèåíò_57-4);}.cls-169{fill:url(#Áåçûìÿííûé_ãðàäèåíò_24);}.cls-170{fill:url(#Áåçûìÿííûé_ãðàäèåíò_29-6);}.cls-171{opacity:0.2;}.cls-172{fill:#ed6954;}</style><linearGradient id="Áåçûìÿííûé_ãðàäèåíò_11" x1="317.27" y1="1469.58" x2="317.27" y2="1387.51" gradientUnits="userSpaceOnUse"><stop offset="0" stop-color="#fff"/><stop offset="1" stop-color="#a5b7c6"/></linearGradient><linearGradient id="Áåçûìÿííûé_ãðàäèåíò_487" x1="348.96" y1="297.09" x2="348.96" y2="323.31" gradientUnits="userSpaceOnUse"><stop offset="0" stop-color="#db7d67"/><stop offset="1" stop-color="#ff9e78"/></linearGradient><linearGradient id="Áåçûìÿííûé_ãðàäèåíò_6" x1="350.12" y1="325.22" x2="350.12" y2="456.79" gradientUnits="userSpaceOnUse"><stop offset="0" stop-color="#deefff"/><stop offset="1" stop-color="#cadbef"/></linearGradient><linearGradient id="Áåçûìÿííûé_ãðàäèåíò_501" x1="212.05" y1="1020.46" x2="227.28" y2="846.31" gradientTransform="matrix(-1.01, 0, -0.07, 0.99, 700.69, 6.1)" gradientUnits="userSpaceOnUse"><stop offset="0" stop-color="#3d434f"/><stop offset="1" stop-color="#333844"/></linearGradient><linearGradient id="Áåçûìÿííûé_ãðàäèåíò_486" x1="131.28" y1="1388.2" x2="131.77" y2="1415.29" gradientUnits="userSpaceOnUse"><stop offset="0" stop-color="#5b5b60"/><stop offset="1" stop-color="#2c2c2d"/></linearGradient><linearGradient id="Áåçûìÿííûé_ãðàäèåíò_486-2" x1="480.56" y1="1388.16" x2="481.06" y2="1415.38" xlink:href="#Áåçûìÿííûé_ãðàäèåíò_486"/><linearGradient id="Áåçûìÿííûé_ãðàäèåíò_501-2" x1="285.27" y1="1043.09" x2="300.66" y2="867.2" gradientTransform="matrix(1.06, 0.04, -0.08, 0.94, 19.11, 13.37)" xlink:href="#Áåçûìÿííûé_ãðàäèåíò_501"/><linearGradient id="Áåçûìÿííûé_ãðàäèåíò_7" x1="349.76" y1="341.22" x2="349.76" y2="364.29" gradientUnits="userSpaceOnUse"><stop offset="0" stop-color="#b3cbe2"/><stop offset="1" stop-color="#cadbef"/></linearGradient><linearGradient id="Áåçûìÿííûé_ãðàäèåíò_7-2" x1="349.53" y1="562.45" x2="349.53" y2="729.75" xlink:href="#Áåçûìÿííûé_ãðàäèåíò_7"/><linearGradient id="Áåçûìÿííûé_ãðàäèåíò_20" x1="290.44" y1="740.29" x2="322.27" y2="740.29" gradientUnits="userSpaceOnUse"><stop offset="0" stop-color="#5f6163"/><stop offset="1" stop-color="#444749"/></linearGradient><linearGradient id="Áåçûìÿííûé_ãðàäèåíò_20-2" x1="308" y1="739.39" x2="322.04" y2="739.39" xlink:href="#Áåçûìÿííûé_ãðàäèåíò_20"/><linearGradient id="Áåçûìÿííûé_ãðàäèåíò_5" x1="2333.46" y1="-515.47" x2="2348.55" y2="-513.43" gradientTransform="matrix(0.84, -0.55, 0.55, 0.84, -1579.36, 2023.56)" gradientUnits="userSpaceOnUse"><stop offset="0" stop-color="#e4ebde"/><stop offset="1" stop-color="#c3cdba"/></linearGradient><linearGradient id="Áåçûìÿííûé_ãðàäèåíò_17" x1="7273.82" y1="1785.51" x2="7293.57" y2="1777.18" gradientTransform="matrix(0.07, -1, 1, 0.07, -2166.25, 7497.88)" gradientUnits="userSpaceOnUse"><stop offset="0" stop-color="#646f60"/><stop offset="1" stop-color="#97a393"/></linearGradient><linearGradient id="Áåçûìÿííûé_ãðàäèåíò_19" x1="7368.63" y1="1811.61" x2="7404.31" y2="1802.17" gradientTransform="matrix(-0.29, -0.96, 0.96, -0.29, 493.27, 7846.02)" gradientUnits="userSpaceOnUse"><stop offset="0" stop-color="#537e4b"/><stop offset="1" stop-color="#a3cd8d"/></linearGradient><linearGradient id="Áåçûìÿííûé_ãðàäèåíò_17-2" x1="7361.28" y1="1789.01" x2="7380.46" y2="1782.09" gradientTransform="matrix(-0.29, -0.96, 0.96, -0.29, 493.27, 7846.02)" xlink:href="#Áåçûìÿííûé_ãðàäèåíò_17"/><linearGradient id="Áåçûìÿííûé_ãðàäèåíò_17-3" x1="7261.78" y1="1795.06" x2="7394.62" y2="1780.5" gradientTransform="matrix(-0.29, -0.96, 0.96, -0.29, 493.27, 7846.02)" xlink:href="#Áåçûìÿííûé_ãðàäèåíò_17"/><linearGradient id="Áåçûìÿííûé_ãðàäèåíò_5-2" x1="2045.21" y1="-488.32" x2="2060.3" y2="-486.28" gradientTransform="translate(-1449.76 1727.46) rotate(-29.12)" xlink:href="#Áåçûìÿííûé_ãðàäèåíò_5"/><linearGradient id="Áåçûìÿííûé_ãðàäèåíò_17-4" x1="7165.06" y1="1516.52" x2="7184.8" y2="1508.19" gradientTransform="translate(195.53 7684.89) rotate(-102.43)" xlink:href="#Áåçûìÿííûé_ãðàäèåíò_17"/><linearGradient id="Áåçûìÿííûé_ãðàäèåíò_19-2" x1="7259.87" y1="1542.62" x2="7295.54" y2="1533.18" gradientTransform="translate(195.53 7684.89) rotate(-102.43)" xlink:href="#Áåçûìÿííûé_ãðàäèåíò_19"/><linearGradient id="Áåçûìÿííûé_ãðàäèåíò_17-5" x1="7252.51" y1="1520.02" x2="7271.7" y2="1513.1" gradientTransform="translate(195.53 7684.89) rotate(-102.43)" xlink:href="#Áåçûìÿííûé_ãðàäèåíò_17"/><linearGradient id="Áåçûìÿííûé_ãðàäèåíò_17-6" x1="7153.02" y1="1526.07" x2="7285.85" y2="1511.51" gradientTransform="translate(195.53 7684.89) rotate(-102.43)" xlink:href="#Áåçûìÿííûé_ãðàäèåíò_17"/><linearGradient id="Áåçûìÿííûé_ãðàäèåíò_5-3" x1="1646.46" y1="-412.95" x2="1661.55" y2="-410.92" gradientTransform="translate(-1235.63 1334.45) rotate(-23.37)" xlink:href="#Áåçûìÿííûé_ãðàäèåíò_5"/><linearGradient id="Áåçûìÿííûé_ãðàäèåíò_17-7" x1="6978.85" y1="1157.02" x2="6998.6" y2="1148.69" gradientTransform="translate(-6903.69 1130.56) rotate(-15.68)" xlink:href="#Áåçûìÿííûé_ãðàäèåíò_17"/><linearGradient id="Áåçûìÿííûé_ãðàäèåíò_19-3" x1="7073.67" y1="1183.12" x2="7109.35" y2="1173.68" gradientTransform="translate(-195.92 7426.89) rotate(-96.68)" xlink:href="#Áåçûìÿííûé_ãðàäèåíò_19"/><linearGradient id="Áåçûìÿííûé_ãðàäèåíò_17-8" x1="7066.31" y1="1160.52" x2="7085.5" y2="1153.6" gradientTransform="translate(-195.92 7426.89) rotate(-96.68)" xlink:href="#Áåçûìÿííûé_ãðàäèåíò_17"/><linearGradient id="Áåçûìÿííûé_ãðàäèåíò_17-9" x1="6966.82" y1="1166.57" x2="7099.66" y2="1152.01" gradientTransform="translate(-195.92 7426.89) rotate(-96.68)" xlink:href="#Áåçûìÿííûé_ãðàäèåíò_17"/><linearGradient id="Áåçûìÿííûé_ãðàäèåíò_5-4" x1="1221.03" y1="-281.51" x2="1236.12" y2="-279.47" gradientTransform="translate(-957.86 927.59) rotate(-17.06)" xlink:href="#Áåçûìÿííûé_ãðàäèåíò_5"/><linearGradient id="Áåçûìÿííûé_ãðàäèåíò_17-10" x1="6730.87" y1="786.63" x2="6750.61" y2="778.3" gradientTransform="translate(-593.74 7097.75) rotate(-90.37)" xlink:href="#Áåçûìÿííûé_ãðàäèåíò_17"/><linearGradient id="Áåçûìÿííûé_ãðàäèåíò_19-4" x1="6825.68" y1="812.73" x2="6861.35" y2="803.29" gradientTransform="translate(-593.74 7097.75) rotate(-90.37)" xlink:href="#Áåçûìÿííûé_ãðàäèåíò_19"/><linearGradient id="Áåçûìÿííûé_ãðàäèåíò_17-11" x1="6818.32" y1="790.13" x2="6837.51" y2="783.21" gradientTransform="translate(-593.74 7097.75) rotate(-90.37)" xlink:href="#Áåçûìÿííûé_ãðàäèåíò_17"/><linearGradient id="Áåçûìÿííûé_ãðàäèåíò_17-12" x1="6718.83" y1="796.18" x2="6851.66" y2="781.62" gradientTransform="translate(-593.74 7097.75) rotate(-90.37)" xlink:href="#Áåçûìÿííûé_ãðàäèåíò_17"/><linearGradient id="Áåçûìÿííûé_ãðàäèåíò_5-5" x1="668.13" y1="-35.39" x2="683.22" y2="-33.35" gradientTransform="translate(-518.2 433.82) rotate(-8.57)" xlink:href="#Áåçûìÿííûé_ãðàäèåíò_5"/><linearGradient id="Áåçûìÿííûé_ãðàäèåíò_17-13" x1="6335.83" y1="326.82" x2="6355.58" y2="318.49" gradientTransform="translate(-1068.03 6589.92) rotate(-81.88)" xlink:href="#Áåçûìÿííûé_ãðàäèåíò_17"/><linearGradient id="Áåçûìÿííûé_ãðàäèåíò_19-5" x1="6430.65" y1="352.92" x2="6466.32" y2="343.48" gradientTransform="translate(-1068.03 6589.92) rotate(-81.88)" xlink:href="#Áåçûìÿííûé_ãðàäèåíò_19"/><linearGradient id="Áåçûìÿííûé_ãðàäèåíò_17-14" x1="6423.29" y1="330.32" x2="6442.47" y2="323.4" gradientTransform="translate(-1068.03 6589.92) rotate(-81.88)" xlink:href="#Áåçûìÿííûé_ãðàäèåíò_17"/><linearGradient id="Áåçûìÿííûé_ãðàäèåíò_17-15" x1="6323.8" y1="336.37" x2="6456.63" y2="321.81" gradientTransform="translate(-1068.03 6589.92) rotate(-81.88)" xlink:href="#Áåçûìÿííûé_ãðàäèåíò_17"/><linearGradient id="Áåçûìÿííûé_ãðàäèåíò_5-6" x1="323.39" y1="176.99" x2="338.48" y2="179.03" gradientTransform="translate(-182.01 138.79) rotate(-2.85)" xlink:href="#Áåçûìÿííûé_ãðàäèåíò_5"/><linearGradient id="Áåçûìÿííûé_ãðàäèåíò_17-16" x1="6032.85" y1="59.75" x2="6052.59" y2="51.42" gradientTransform="translate(-4156.67 4588.04) rotate(-45)" xlink:href="#Áåçûìÿííûé_ãðàäèåíò_17"/><linearGradient id="Áåçûìÿííûé_ãðàäèåíò_19-6" x1="6127.66" y1="85.85" x2="6163.33" y2="76.42" gradientTransform="translate(-1343.54 6208.45) rotate(-76.17)" xlink:href="#Áåçûìÿííûé_ãðàäèåíò_19"/><linearGradient id="Áåçûìÿííûé_ãðàäèåíò_17-17" x1="6120.3" y1="63.25" x2="6139.49" y2="56.34" gradientTransform="translate(-1343.54 6208.45) rotate(-76.17)" xlink:href="#Áåçûìÿííûé_ãðàäèåíò_17"/><linearGradient id="Áåçûìÿííûé_ãðàäèåíò_17-18" x1="6020.81" y1="69.3" x2="6153.65" y2="54.75" gradientTransform="translate(-1343.54 6208.45) rotate(-76.17)" xlink:href="#Áåçûìÿííûé_ãðàäèåíò_17"/><linearGradient id="Áåçûìÿííûé_ãðàäèåíò_5-7" x1="336.97" y1="592.62" x2="280.52" y2="702.88" gradientTransform="matrix(0.97, -0.05, 0.06, 1.03, -153.9, -329.86)" xlink:href="#Áåçûìÿííûé_ãðàäèåíò_5"/><linearGradient id="Áåçûìÿííûé_ãðàäèåíò_17-19" x1="5626.32" y1="-226" x2="5646.07" y2="-234.33" gradientTransform="translate(-1592.61 5717.18) rotate(-69.5)" xlink:href="#Áåçûìÿííûé_ãðàäèåíò_17"/><linearGradient id="Áåçûìÿííûé_ãðàäèåíò_19-7" x1="5721.13" y1="-199.9" x2="5756.81" y2="-209.34" gradientTransform="translate(-1592.61 5717.18) rotate(-69.5)" xlink:href="#Áåçûìÿííûé_ãðàäèåíò_19"/><linearGradient id="Áåçûìÿííûé_ãðàäèåíò_17-20" x1="5713.78" y1="-222.5" x2="5732.96" y2="-229.42" gradientTransform="translate(-1592.61 5717.18) rotate(-69.5)" xlink:href="#Áåçûìÿííûé_ãðàäèåíò_17"/><linearGradient id="Áåçûìÿííûé_ãðàäèåíò_17-21" x1="5614.28" y1="-216.45" x2="5747.12" y2="-231.01" gradientTransform="translate(-1592.61 5717.18) rotate(-69.5)" xlink:href="#Áåçûìÿííûé_ãðàäèåíò_17"/><linearGradient id="Áåçûìÿííûé_ãðàäèåíò_440" x1="179.39" y1="323.49" x2="161.74" y2="360.49" gradientUnits="userSpaceOnUse"><stop offset="0" stop-color="#ffb9a4"/><stop offset="1" stop-color="#ff9e78"/></linearGradient><linearGradient id="Áåçûìÿííûé_ãðàäèåíò_487-2" x1="132.95" y1="450.14" x2="192.78" y2="441.77" xlink:href="#Áåçûìÿííûé_ãðàäèåíò_487"/><linearGradient id="Áåçûìÿííûé_ãðàäèåíò_440-2" x1="139.55" y1="309.78" x2="120.8" y2="349.83" xlink:href="#Áåçûìÿííûé_ãðàäèåíò_440"/><linearGradient id="Áåçûìÿííûé_ãðàäèåíò_7-3" x1="351.13" y1="481.46" x2="347.55" y2="710.4" xlink:href="#Áåçûìÿííûé_ãðàäèåíò_7"/><linearGradient id="Áåçûìÿííûé_ãðàäèåíò_29" x1="6463.41" y1="337.25" x2="6463.41" y2="345.47" gradientTransform="matrix(-1, 0, 0, 1, 6817.2, 0)" gradientUnits="userSpaceOnUse"><stop offset="0" stop-color="#f28c70"/><stop offset="1" stop-color="#ff9e78"/></linearGradient><linearGradient id="Áåçûìÿííûé_ãðàäèåíò_29-2" x1="379.34" y1="503.33" x2="436.39" y2="432.02" gradientTransform="matrix(1, 0, 0, 1, 0, 0)" xlink:href="#Áåçûìÿííûé_ãðàäèåíò_29"/><linearGradient id="Áåçûìÿííûé_ãðàäèåíò_440-3" x1="486.75" y1="403.04" x2="447.66" y2="456.38" xlink:href="#Áåçûìÿííûé_ãðàäèåíò_440"/><linearGradient id="Áåçûìÿííûé_ãðàäèåíò_440-4" x1="6532.69" y1="332.24" x2="6532.86" y2="344.83" gradientTransform="matrix(-1, 0, 0, 1, 6817.2, 0)" xlink:href="#Áåçûìÿííûé_ãðàäèåíò_440"/><linearGradient id="Áåçûìÿííûé_ãðàäèåíò_29-3" x1="-4197.19" y1="368.67" x2="-4157.61" y2="368.67" gradientTransform="translate(4399.31 880.09) rotate(14.41)" xlink:href="#Áåçûìÿííûé_ãðàäèåíò_29"/><linearGradient id="Áåçûìÿííûé_ãðàäèåíò_16" x1="-4090.45" y1="246.47" x2="-4090.45" y2="277.3" gradientTransform="translate(4442.28 -131.32) rotate(0.54)" gradientUnits="userSpaceOnUse"><stop offset="0" stop-color="#c6664f"/><stop offset="1" stop-color="#ff9e78"/></linearGradient><linearGradient id="Áåçûìÿííûé_ãðàäèåíò_29-4" x1="-4009.7" y1="399.57" x2="-3969.58" y2="399.57" gradientTransform="translate(4442.28 -131.32) rotate(0.54)" xlink:href="#Áåçûìÿííûé_ãðàäèåíò_29"/><linearGradient id="Áåçûìÿííûé_ãðàäèåíò_29-5" x1="-3997.03" y1="364.6" x2="-3976.97" y2="364.6" gradientTransform="translate(4442.28 -131.32) rotate(0.54)" xlink:href="#Áåçûìÿííûé_ãðàäèåíò_29"/><linearGradient id="Áåçûìÿííûé_ãðàäèåíò_57" x1="-4068.06" y1="313.6" x2="-4068.53" y2="389.85" gradientTransform="translate(4447.34 -122.3) rotate(2.55)" gradientUnits="userSpaceOnUse"><stop offset="0" stop-color="#75483b"/><stop offset="0.35" stop-color="#704538"/><stop offset="0.75" stop-color="#633c30"/><stop offset="1" stop-color="#563428"/></linearGradient><linearGradient id="Áåçûìÿííûé_ãðàäèåíò_16-2" x1="-4051.44" y1="267.06" x2="-4052.67" y2="341.86" xlink:href="#Áåçûìÿííûé_ãðàäèåíò_16"/><linearGradient id="Áåçûìÿííûé_ãðàäèåíò_16-3" x1="-4131.5" y1="262.97" x2="-4132.69" y2="335.21" xlink:href="#Áåçûìÿííûé_ãðàäèåíò_16"/><linearGradient id="Áåçûìÿííûé_ãðàäèåíò_12" x1="253.84" y1="215.7" x2="261.39" y2="195.57" gradientTransform="translate(49.22 -36.53) rotate(0.12)" gradientUnits="userSpaceOnUse"><stop offset="0" stop-color="#704a3e"/><stop offset="1"/></linearGradient><linearGradient id="Áåçûìÿííûé_ãðàäèåíò_12-2" x1="341.99" y1="212.81" x2="346.52" y2="200.28" xlink:href="#Áåçûìÿííûé_ãðàäèåíò_12"/><linearGradient id="Áåçûìÿííûé_ãðàäèåíò_57-2" x1="-3752.52" y1="367.84" x2="-3753.21" y2="391.74" gradientTransform="matrix(1.02, 0.04, 0.13, 0.98, 4105.78, -88.85)" xlink:href="#Áåçûìÿííûé_ãðàäèåíò_57"/><linearGradient id="Áåçûìÿííûé_ãðàäèåíò_57-3" x1="-3674.6" y1="368.44" x2="-3675.24" y2="390.87" gradientTransform="matrix(1.02, 0.04, 0.13, 0.98, 4105.78, -88.85)" xlink:href="#Áåçûìÿííûé_ãðàäèåíò_57"/><linearGradient id="Áåçûìÿííûé_ãðàäèåíò_3" x1="384.05" y1="225.61" x2="384.05" y2="219.29" gradientTransform="translate(-40.89 32.43) rotate(-0.64)" gradientUnits="userSpaceOnUse"><stop offset="0" stop-color="#7c302a"/><stop offset="0.21" stop-color="#772f29"/><stop offset="0.45" stop-color="#692b26"/><stop offset="0.7" stop-color="#532421"/><stop offset="0.96" stop-color="#331c1a"/><stop offset="1" stop-color="#2d1a19"/></linearGradient><linearGradient id="Áåçûìÿííûé_ãðàäèåíò_57-4" x1="302.43" y1="356.21" x2="303.26" y2="221.98" gradientTransform="matrix(1, 0.01, -0.01, 1, 51.29, -40.5)" xlink:href="#Áåçûìÿííûé_ãðàäèåíò_57"/><linearGradient id="Áåçûìÿííûé_ãðàäèåíò_24" x1="377.04" y1="191.05" x2="377.04" y2="195.97" gradientTransform="translate(-40.89 32.43) rotate(-0.64)" gradientUnits="userSpaceOnUse"><stop offset="0" stop-color="#4c2e25"/><stop offset="0.39" stop-color="#513127"/><stop offset="0.83" stop-color="#5e3a2e"/><stop offset="1" stop-color="#663f32"/></linearGradient><linearGradient id="Áåçûìÿííûé_ãðàäèåíò_29-6" x1="-4103.27" y1="382.55" x2="-4103.27" y2="368.85" gradientTransform="translate(4442.28 -131.32) rotate(0.54)" xlink:href="#Áåçûìÿííûé_ãðàäèåíò_29"/></defs><g id="Layer_2" data-name="Layer 2"><g id="Ñëîé_1" data-name="Ñëîé 1"><path class="cls-1" d="M634.54,1431.18s-142,27.43-317.27,27.43S0,1431.18,0,1431.18s142.05-27.43,317.27-27.43S634.54,1431.18,634.54,1431.18Z"/><path class="cls-2" d="M418.93,309.85a247.3,247.3,0,0,0-26.05-4.19l1.44-57.36c.47-17.47-18.05-31.48-42.05-31.1h0c-23,.38-43.08,15-43.55,32.47l-1.49,57.22a231,231,0,0,0-28.92,6.25l.66,52.7H419.61Z"/><path class="cls-3" d="M607,552.79c2.94-17.42-19.27-65.6-37.74-105.46-19-41-43.06-82.63-56-97.15-21.52-24.22-71.7-36.38-95.55-40.83l-.24-.9c-6.63-19.91-24.21-19-24.21-19-4.37,32.16-42.59,41.67-42.59,41.67-34.88-12.6-43.16-34.88-43.16-34.88-13.76.11-22,10.57-24.77,14.77-40.55,2.31-76.8,18.36-99.75,43.6C153.16,387.44,96.15,492.89,93,542.27c2.85,35.17,32.8,102.19,106.47,45.58-4.63,67.46-4.08,64.4-.58,99.39.68,6.74,9.81,14.72,10.93,16.9,11.23,21.65,278.59,18.56,279.16,1.32.1-3,10.18-10.49,10.61-16.37,2.7-36.55,3.48-38.8,1.69-113.56,26.45,35.64,75,28.44,87.44,20.67C598.06,590.32,605.72,560.47,607,552.79Z"/><path class="cls-4" d="M162.07,1367.06c-1,.52-80.88,44.1-81.77,57.82,0,.56-2.28,1-2.62,1.41l-.12,5.38c42.77,14.39,128.85-2.61,128.85-2.61s.2,3.44,1.06,3.53c17.05,1.73,46-2.2,48-3.81.4-.33,1-5,.84-9.09,0-.39-1.12-1.31-1.12-1.31.93-16.18.9-47.38,1-48.11C259.05,1356.22,168.63,1342.85,162.07,1367.06Z"/><path class="cls-4" d="M450.43,1367.06c1.05.52,80.88,44.1,81.77,57.82,0,.56,2.28,1,2.62,1.41l.12,5.38c-42.77,14.39-128.85-2.61-128.85-2.61s-.2,3.44-1.06,3.53c-17,1.73-46-2.2-48-3.81-.4-.33-1-5-.83-9.09,0-.39,1.11-1.31,1.11-1.31-.93-16.18-.9-47.38-1-48.11C353.45,1356.22,443.87,1342.85,450.43,1367.06Z"/><path class="cls-5" d="M262.48,1390.53c28.47-315.35,78.28-566.43,80.66-636.7L199.59,737.92c-9.91,110.46-38.22,395.45-55,639,0,0,13.62-7.77,40.9-6.35,26,1.36,55.68,17.52,70.36,22Z"/><path class="cls-5" d="M351,1390.44c-9.72-317.28-2.06-566.34-4.44-636.61L490.1,737.92c9.91,110.46-21.57,403.84-22.1,639,0,0-14-7.6-40.82-6.41-34.23,1.53-55.92,17.52-70.6,22Z"/><g class="cls-6"><path d="M352.06,796.91a28.36,28.36,0,0,1,1.17-9.34l-3.92.58s.12,3.49.33,10.08C350.45,797.79,351.25,797.34,352.06,796.91Z"/></g><path class="cls-5" d="M200.89,706.74c-4.22,80.14-5.39,117.74-5.39,117.74s83.48,6.87,174,6.12c58.83-.48,109,3.89,112.87-20,3.46-21.63,7.59-49,9.66-103.76l-3.54-3.49c-14.73,1.5-67.15,6.72-145.64,5.74-86.29-1.08-124.57-6.66-135.48-7.6C205.72,701.32,201,705.1,200.89,706.74Z"/><path class="cls-7" d="M318.09,823.64l-1,6.36c23.9.81,54.84.17,54.84.17l-.13-6.54Z"/><path class="cls-7" d="M193.52,803.76c6.75-4.41,22.71-14.28,30.88-21.8Q223,780,221.63,778.1c-4.7,3.48-22.34,14.45-27.39,17.94Z"/><path class="cls-8" d="M342.85,726.39c-75.31,0-122-3.35-142.54-5.26-2.51,0-4.09,27.13-1.24,28.39,21.91,2,68.61,5.24,143.78,5.24,65.77,0,121.07-3.81,148.14-5.81,2.37.21,3-27.87.42-27.87C466.22,723,410.88,726.39,342.85,726.39Z"/><polygon class="cls-5" points="276.24 764.52 259.11 763.63 262.37 716.24 279.5 717.13 276.24 764.52"/><polygon class="cls-5" points="418.46 764.52 401.33 763.63 404.59 716.24 421.73 717.13 418.46 764.52"/><path class="cls-7" d="M492,794.66l-27.78-17c-1.05,2.52-.71,1.72-1.71,4.25,7.72,6.61,21.32,14.86,29.45,19.89Q492,798.17,492,794.66Z"/><path class="cls-9" d="M473.62,834.29s-7.49,226.42-12.69,231.27-32.2,25-38.89,24.3c-10.84-1-60.82-24.19-63.06-31.64s2.41-213.71,2.08-219.39C360.82,834.77,473.62,834.29,473.62,834.29Z"/><path class="cls-5" d="M348,1267.38c-.18,0-.29,49.84-.69,55.48-.26,3.53-2.27,6.64-3.86,9.8s-2.82,6.91-1.46,10.18c1.14,2.72,3.89,4.56,4.87,7.35,1.29,3.69-.8,7.18-1.05,10.81-.28,4,.88,8.45,1.13,12.57.13,2-.49,15,1.62,16.2s8.05,2.77,8.05,2.77c17.12-3.64,44.47-15.32,66.08-20.41C447.22,1366.35,468,1377,468,1377c.05-3.65,5.37-12.27,5.78-13.83,2.23-8.57-7.13-9.41-4.8-13.91,7.59-14.6-1.88-18.3-.39-25,.76-3.43,4.87-6.72,4.92-10.23,0-2.9-2.05-6.06-3.47-8.59-2.75-4.87.23-45.45.32-45.46C462.92,1260.41,348,1267.38,348,1267.38Z"/><path class="cls-5" d="M273.81,1277.43s-5.53,48.51-5.12,54.15c.25,3.53.38,7.92,2,11.08s2.82,6.91,1.45,10.18c-1.14,2.72-3.89,4.56-4.86,7.35-1.3,3.69.79,7.18,1,10.81.28,4-3.89,10.41-4.15,14.54-.12,2,3.51,13,1.41,14.23a23.68,23.68,0,0,1-8.67,2.55c-30.94,0-45.28-23.21-65.13-28.29-24.45-6.26-47.15,2.87-47.15,2.87.85-4.16.56-14.53-.26-15.93a22.83,22.83,0,0,1-2.95-8.12c-.66-6.85,7.94-12.38,6.45-19.09-.76-3.43-4.08-6.07-4.14-9.58,0-2.9,2.15-5.27,3.57-7.79,2.75-4.87,5.42-49.44,5.42-49.44C159.72,1268.78,273.8,1277.43,273.81,1277.43Z"/><path class="cls-10" d="M205.24,1422.24c-22.83,2.8-48.71,6-70.35,6.35-32.86.56-49-2.59-54.55-4,0,.1,0,.21,0,.31,0,.56-2.28,1-2.62,1.41v.15c2.82.92,16.45,4.74,49.46,4.74q3.73,0,7.79-.07c21.78-.37,47.73-3.56,70.62-6.37,22.14-2.71,41.29-5.06,50.75-4.15,0-.3,0-.61,0-.9s-1.11-1.31-1.11-1.31l0-.41C245.07,1417.35,226.53,1419.63,205.24,1422.24Z"/><path class="cls-10" d="M407.24,1422.24c22.83,2.8,48.7,6,70.34,6.35,32.85.56,49-2.6,54.59-4,0,.11,0,.22,0,.32,0,.56,2.28,1,2.62,1.41v.13c-2.82.93-16.49,4.76-49.5,4.76q-3.72,0-7.79-.07c-21.77-.37-47.71-3.56-70.6-6.37-22.13-2.71-41.28-5.06-50.74-4.15,0-.3,0-.61,0-.9s1.11-1.31,1.11-1.31,0-.28,0-.41C367.42,1417.35,386,1419.63,407.24,1422.24Z"/><path class="cls-11" d="M177.81,1410.15c-28.3-16.8-53.82-15.11-72-9.14-9,6.14-16.79,12.13-21.34,17,6.31,1.49,17.64,3.12,37.7,3.62C162.06,1422.59,184.74,1414.27,177.81,1410.15Z"/><path class="cls-12" d="M528.11,1418.09c-4.61-4.95-12.67-11.1-21.91-17.4-18.09-5.71-43.18-7-71,9.46-6.93,4.12,15.75,12.44,55.62,11.45C510.46,1421.11,521.71,1419.55,528.11,1418.09Z"/><path class="cls-13" d="M206.17,830.54s-28.81,216.92-24.11,221.72,31.09,25.43,38.2,25.06c11.52-.58,69-26.9,72.47-33.89s32-205.64,27.71-205.69S206.17,830.54,206.17,830.54Z"/><path class="cls-14" d="M418,309.4c-4.67,10.1-18.55,39.2-24.75,42.65-5.94,3.32-28.75-14.71-38-22.4-2.78,1-4.52,1.43-4.52,1.43-1.45-.52-2.84-1.07-4.2-1.62-9.57,6.26-31,19.61-39.22,19.12-9.19-.55-20.86-29.09-24.75-37.59-1.62.1-4,.27-5.62.42,4,9.92,17.16,43.47,24.28,48.13C309.6,365,350.3,335,350.3,335s34.06,30.3,44.13,29c8.64-1.11,23.95-42,28.15-53.68C421,310,419.47,309.67,418,309.4Z"/><path class="cls-15" d="M352.18,709.1l.9-377.38h-5.25s.06,312-1.86,377.41Z"/><path class="cls-16" d="M367.24,726.25s-52-.53-52,.47c0,0-.45,27,0,27.44s52.31.42,52.31.42,0,4.42-.88,5c-3.18,1.93-56.82,1.36-58.3,0s-.5-36.52.64-38.45,56-1.3,57.07-.51S367.24,726.25,367.24,726.25Z"/><path class="cls-17" d="M310.43,736.12s-.65,6.22-.24,6.63,13,0,13.31-.24.46-5.33.12-6.15C323.38,735.78,310.9,735.71,310.43,736.12Z"/><path class="cls-18" d="M51.66,232.63c-.58,1.71,42.41,157.92,43.62,158.59s69.77-15.74,71.73-19.41-37.48-158.29-41.16-159.25S52.21,231,51.66,232.63Z"/><circle class="cls-19" cx="121.08" cy="356.83" r="10.12" transform="translate(-117.83 65.44) rotate(-20.61)"/><path class="cls-20" d="M114,265.47c.49.31,9.89-.73,10.16-2.16s-6.71-29.89-8.33-30.88-9.43,2.44-10.19,3S112.44,264.47,114,265.47Z"/><path class="cls-21" d="M87.85,275.36s14.25-2.85,14.82-3.43-6-25.37-6.79-25.79-14.94,3.55-15.14,4.51S86.89,274.91,87.85,275.36Z"/><path class="cls-22" d="M55.55,236c.38,1.27,42.08,151.13,42.08,151.13s63.21-14.91,64.22-17.06-38.1-151.83-39-152.93S55.18,234.78,55.55,236Zm86.22,81.14,3.78,16s-5.19,2.26-5.43,4.33,6.71,26.37,7,27,5.57,1.39,5.57,1.39l.77,3.06s-51.29,13.47-51.91,12.92L87.35,330.8s10.47,11.66,29.28,7C138.75,332.38,141.77,317.18,141.77,317.18Zm-26.46-94c1.51.81,18.33,63.59,18.33,63.59s-13.9-10-31.58-5.27c-18.19,4.9-22.65,18.65-22.65,18.65s-1.43-5-3.48-12.15c3.25-.77,8.18-2.05,8.32-2.66.2-.92-10.26-41.8-10.78-41.93s-6.12,1.71-9.29,2.72c-1.58-5.81-2.59-9.78-2.51-10.08C62,234.81,113.8,222.35,115.31,223.17Z"/><ellipse class="cls-23" cx="111.08" cy="308.94" rx="26.05" ry="21.87" transform="translate(-57.39 27.16) rotate(-11.1)"/><path class="cls-24" d="M70.06,280.4s6.15-1.39,6.33-1.88-6.32-27.1-7-27.23-6,1-6.15,1.83S70.06,280.4,70.06,280.4Z"/><path class="cls-24" d="M97.74,377.44s5.52-1.25,5.7-1.74-6.32-27.1-7-27.22-6,1-6.15,1.83S97.74,377.44,97.74,377.44Z"/><path class="cls-25" d="M68.27,223.57c-.7,1.66,30.85,160.57,32,161.33s70.73-10.64,72.95-14.16-25.9-160.58-29.5-161.81S69,222,68.27,223.57Z"/><path class="cls-26" d="M126.33,342.59a10.12,10.12,0,1,1-7.71,12.06A10.13,10.13,0,0,1,126.33,342.59Z"/><path class="cls-27" d="M128.09,260.85c.46.34,9.92,0,10.29-1.43s-4.53-30.29-6.07-31.4-9.58,1.75-10.38,2.29S126.59,259.73,128.09,260.85Z"/><path class="cls-28" d="M101.27,268.81s14.42-1.81,15-2.35-4.14-25.73-4.89-26.21S96.25,242.7,96,243.65,100.35,268.29,101.27,268.81Z"/><path class="cls-29" d="M71.91,227.25c.29,1.29,31,153.79,31,153.79S167,370.75,168.2,368.68s-27-154.19-27.82-155.36S71.63,226,71.91,227.25ZM152,314.43l2.6,16.25s-5.33,1.88-5.72,3.93,4.77,26.79,5,27.43,5.45,1.79,5.45,1.79l.55,3.1s-52.13,9.72-52.71,9.12l-10.48-52s9.59,12.39,28.69,9.13C147.9,329.37,152,314.43,152,314.43Zm-19.57-95.69c1.44.93,13.67,64.76,13.67,64.76S133,272.49,115,276c-18.5,3.56-23.94,17-23.94,17s-1.07-5.06-2.59-12.37c3.3-.54,8.31-1.45,8.49-2.05.27-.9-7.2-42.43-7.71-42.6-.36-.12-6.22,1.26-9.47,2A102.93,102.93,0,0,1,78,227.7C78.44,226.5,131,217.82,132.45,218.74Z"/><ellipse class="cls-23" cx="122" cy="303.99" rx="26.05" ry="21.87" transform="translate(-35.83 16.97) rotate(-6.94)"/><path class="cls-24" d="M83.17,272.55s6.23-.95,6.45-1.42-4.34-27.49-5-27.66-6,.57-6.26,1.38S83.17,272.55,83.17,272.55Z"/><path class="cls-24" d="M103.73,371.34s5.6-.84,5.82-1.32-4.34-27.49-5-27.66-6,.58-6.26,1.38S103.73,371.34,103.73,371.34Z"/><path class="cls-30" d="M89.33,217.41C88.47,219,103.94,380.26,105,381.14s71.44-3.51,74-6.79-9.69-162.37-13.15-164S90.16,215.88,89.33,217.41Z"/><circle class="cls-31" cx="136.35" cy="351.7" r="10.12" transform="translate(-232.35 431.34) rotate(-81)"/><path class="cls-32" d="M145.12,260.49c.42.39,9.86,1,10.38-.39s-1.47-30.6-2.9-31.85-9.71.78-10.55,1.24S143.74,259.23,145.12,260.49Z"/><path class="cls-33" d="M117.63,265.73s14.53-.36,15.19-.83-1.54-26-2.24-26.58-15.33.93-15.7,1.84S116.77,265.11,117.63,265.73Z"/><path class="cls-34" d="M92.58,221.44C92.74,222.75,108,377.55,108,377.55s64.82-3.81,66.19-5.76S162.81,215.68,162.1,214.43,92.43,220.13,92.58,221.44Zm71,94.76,1,16.43S159,334,158.43,336s2.07,27.13,2.28,27.8,5.25,2.33,5.25,2.33l.23,3.14s-52.84,4.45-53.35,3.8l-5.23-52.78s8.3,13.29,27.63,12C158,330.65,163.56,316.2,163.56,316.2ZM153.67,219c1.34,1.07,7.11,65.8,7.11,65.8s-12-12.27-30.2-10.62c-18.76,1.7-25.52,14.47-25.52,14.47s-.55-5.14-1.34-12.56c3.33-.21,8.41-.61,8.65-1.2.36-.86-2.91-42.93-3.4-43.15s-6.32.63-9.62,1.08c-.56-6-.87-10.08-.74-10.36C99.16,221.34,152.32,218,153.67,219Z"/><ellipse class="cls-23" cx="134.74" cy="302.8" rx="26.05" ry="21.87" transform="translate(-6.27 2.87) rotate(-1.19)"/><path class="cls-24" d="M99.24,267.63s6.3-.31,6.56-.77-1.56-27.78-2.22-28-6.06,0-6.37.75S99.24,267.63,99.24,267.63Z"/><path class="cls-24" d="M109.82,368s5.65-.28,5.91-.74-1.56-27.78-2.23-28-6,0-6.36.75S109.82,368,109.82,368Z"/><path class="cls-35" d="M113.65,213.45c-1,1.48-3.39,163.47-2.41,164.46s71.39,4.37,74.3,1.39,8.22-162.45,5-164.4S114.64,212,113.65,213.45Z"/><path class="cls-36" d="M145.55,342a10.12,10.12,0,1,1-10.05,10.19A10.13,10.13,0,0,1,145.55,342Z"/><path class="cls-37" d="M164.36,262.4c.37.43,9.7,2.06,10.36.76s1.9-30.58.62-32-9.74-.29-10.63.07S163.12,261,164.36,262.4Z"/><path class="cls-38" d="M136.46,264.58s14.48,1.25,15.19.85,1.33-26,.69-26.66-15.34-.77-15.8.1S135.67,263.88,136.46,264.58Z"/><path class="cls-39" d="M116.44,217.81c0,1.32-1.81,156.87-1.81,156.87s64.86,3.34,66.43,1.55,5.81-156.42,5.24-157.74S116.43,216.49,116.44,217.81Zm60.12,102-.85,16.44s-5.61.72-6.42,2.64-.93,27.2-.78,27.88,5,2.89,5,2.89l-.11,3.15s-53-1.39-53.45-2.09l.61-53s6.79,14.12,26.15,14.92C169.41,333.55,176.56,319.8,176.56,319.8Zm.85-97.66c1.22,1.2-.16,66.18-.16,66.18s-10.55-13.51-28.85-13.88c-18.84-.37-27,11.58-27,11.58s0-5.17.06-12.64c3.33.17,8.42.32,8.72-.23.45-.83,1.83-43,1.37-43.27s-6.36-.07-9.69,0c.11-6,.25-10.12.41-10.38C123,218.44,176.19,220.93,177.41,222.14Z"/><ellipse class="cls-23" cx="149.39" cy="303.32" rx="21.87" ry="26.05" transform="translate(-166.05 425.04) rotate(-84.88)"/><path class="cls-24" d="M118,264.46s6.29.38,6.6,0,1.5-27.78.87-28.09-6-.7-6.41,0S118,264.46,118,264.46Z"/><path class="cls-24" d="M117.45,365.37s5.65.34,6-.08,1.5-27.79.87-28.1-6-.69-6.41,0S117.45,365.37,117.45,365.37Z"/><path class="cls-40" d="M136.92,211.51c-1.24,1.31-27.48,161.18-26.66,162.3s70,14.86,73.28,12.34,32.11-159.45,29.17-161.87S138.11,210.24,136.92,211.51Z"/><path class="cls-41" d="M149.5,343.33a10.12,10.12,0,1,1-11.45,8.59A10.13,10.13,0,0,1,149.5,343.33Z"/><path class="cls-42" d="M179.85,267.41c.31.48,9.29,3.46,10.13,2.28s6.4-30,5.33-31.54-9.58-1.72-10.51-1.5S178.83,265.84,179.85,267.41Z"/><path class="cls-43" d="M151.93,265.45s14.14,3.37,14.9,3.08S172,243,171.45,242.26s-15.06-3-15.64-2.23S151.25,264.64,151.93,265.45Z"/><path class="cls-44" d="M139,216.23c-.18,1.31-24.94,154.89-24.94,154.89s63.65,12.87,65.47,11.34S208.4,228.61,208,227.22,139.22,214.93,139,216.23ZM183.45,326l-3.27,16.13s-5.66-.11-6.74,1.67-4.93,26.76-4.9,27.46,4.48,3.59,4.48,3.59l-.58,3.1s-52.22-9.2-52.55-10l8.42-52.36s4.64,15,23.67,18.62C174.34,338.52,183.45,326,183.45,326Zm15.25-96.47c1,1.38-9.93,65.44-9.93,65.44s-8.44-14.92-26.49-18c-18.57-3.15-28.36,7.48-28.36,7.48s.77-5.12,1.91-12.49c3.28.65,8.29,1.55,8.67,1.05.57-.75,8.15-42.25,7.74-42.59s-6.28-1-9.59-1.41c1-5.95,1.74-10,1.94-10.21C145.41,217.82,197.67,228.14,198.7,229.51Z"/><ellipse class="cls-23" cx="159" cy="305.67" rx="21.87" ry="26.05" transform="translate(-175.49 388.29) rotate(-76.39)"/><path class="cls-24" d="M133.67,262.6s6.17,1.3,6.54.93,5.58-27.26,5-27.66-5.84-1.58-6.34-.91S133.67,262.6,133.67,262.6Z"/><path class="cls-24" d="M118.26,362.32s5.53,1.18,5.9.81,5.59-27.27,5-27.67-5.85-1.57-6.35-.9S118.26,362.32,118.26,362.32Z"/><path class="cls-45" d="M158.29,212.1C156.92,213.29,114.9,369.75,115.6,371s68.14,21.75,71.69,19.58,47.83-155.47,45.14-158.16S159.6,211,158.29,212.1Z"/><circle class="cls-46" cx="155.26" cy="354.36" r="10.12" transform="translate(-160.97 131.48) rotate(-31.16)"/><path class="cls-47" d="M195.44,272c.26.51,8.9,4.37,9.85,3.27s9.35-29.17,8.45-30.84-9.36-2.68-10.31-2.55S194.59,270.34,195.44,272Z"/><path class="cls-48" d="M167.86,267.28s13.73,4.76,14.51,4.54,7.68-24.91,7.22-25.67-14.68-4.51-15.35-3.78S167.26,266.4,167.86,267.28Z"/><path class="cls-49" d="M159.92,217c-.31,1.28-40.24,151.63-40.24,151.63s62,19.15,64,17.8,44-150.21,43.79-151.63S160.24,215.74,159.92,217Zm33.27,113.62-4.86,15.73s-5.62-.68-6.87,1-7.58,26.13-7.61,26.83,4.1,4,4.1,4l-.89,3s-51-14.36-51.3-15.15l13.6-51.26s3.12,15.36,21.69,20.89C182.88,342.22,193.19,330.64,193.19,330.64ZM218,236.18c.89,1.47-16.39,64.12-16.39,64.12s-6.91-15.69-24.57-20.54c-18.17-5-29,4.61-29,4.61s1.28-5,3.15-12.23c3.19,1,8.09,2.37,8.52,1.91.64-.69,12.32-41.23,11.94-41.61s-6.14-1.63-9.39-2.36c1.58-5.81,2.72-9.75,2.94-10C166.11,219.23,217.08,234.7,218,236.18Z"/><ellipse class="cls-23" cx="170.89" cy="308" rx="21.87" ry="26.05" transform="translate(-176.31 367.34) rotate(-70.68)"/><path class="cls-24" d="M150,262.62s6,1.91,6.41,1.58,8.28-26.57,7.74-27-5.66-2.15-6.23-1.53S150,262.62,150,262.62Z"/><path class="cls-24" d="M124.7,360.31s5.39,1.72,5.8,1.39,8.27-26.57,7.73-27-5.66-2.14-6.22-1.53S124.7,360.31,124.7,360.31Z"/><path class="cls-50" d="M185.11,216.31c-1.49,1-61.4,151.54-60.84,152.81s65.16,29.52,68.93,27.77S258.76,248,256.4,245,186.55,215.33,185.11,216.31Z"/><path class="cls-51" d="M169.14,347.76a10.12,10.12,0,1,1-13,5.94A10.13,10.13,0,0,1,169.14,347.76Z"/><path class="cls-52" d="M215.06,280.11c.2.54,8.33,5.38,9.41,4.4s12.67-27.89,12-29.66-9-3.74-9.95-3.72S214.4,278.36,215.06,280.11Z"/><path class="cls-53" d="M188.21,272.22s13.09,6.32,13.89,6.2,10.52-23.86,10.15-24.67-14.06-6.18-14.81-5.53S187.72,271.28,188.21,272.22Z"/><path class="cls-54" d="M186.16,221.38c-.46,1.23-57.56,145.93-57.56,145.93s59.41,26.22,61.51,25.11S251.27,248.33,251.2,246.9,186.62,220.14,186.16,221.38ZM206,338.09l-6.66,15.06s-5.49-1.32-6.93.18-10.56,25.08-10.67,25.77,3.6,4.47,3.6,4.47l-1.23,2.9s-49-20.18-49.2-21l19.46-49.34s1.32,15.62,19.12,23.26C194.44,348.39,206,338.09,206,338.09Zm35.58-90.95c.71,1.56-23.73,61.78-23.73,61.78s-5-16.38-22-23.24c-17.46-7.06-29.31,1.22-29.31,1.22s1.86-4.83,4.55-11.79c3.06,1.34,7.76,3.29,8.24,2.89.72-.61,17-39.53,16.69-39.95s-5.91-2.32-9.06-3.43c2.25-5.59,3.84-9.36,4.08-9.55C192.05,224.29,240.88,245.58,241.6,247.14Z"/><ellipse class="cls-23" cx="186.5" cy="313.01" rx="21.87" ry="26.05" transform="translate(-176.59 343.49) rotate(-64.01)"/><path class="cls-24" d="M171,265.51s5.74,2.6,6.18,2.32,11.3-25.44,10.82-25.95-5.37-2.79-6-2.25S171,265.51,171,265.51Z"/><path class="cls-24" d="M134.55,359.62s5.15,2.33,5.6,2.05,11.29-25.44,10.82-25.95-5.38-2.79-6-2.25S134.55,359.62,134.55,359.62Z"/><path class="cls-55" d="M108.43,400.61c-1.11-.67-17.55-7.56-15.78-18.67s31.72-71.63,46.6-78.23c12.95-5.73,11.14,10.32,9,15.34-1.43,3.29-10.66,24-10.66,24s15.77-32.23,24-34.89,14.22,1.78,13.78,8.44c0,0,8-1.78,13.33,2s1.78,14,1.78,14,4.66-2.89,7.33,4.89S184,389.05,185.33,392.16s6.94,8,9.24,17.09c2.43,9.58-2.65,33.69-3.76,38.73-2.71,12.41,11.52,93.9,1.19,112.8S146.23,598,137.07,595s-39-53.15-33.66-67.32,30.86-89,30.27-96.38-12-13.47-14.32-16.42S108.43,400.61,108.43,400.61Z"/><path class="cls-56" d="M133.61,353.09s48.9,28.39,49.94,28S196.9,346,197,340.89s-2.6-7.34-2.88-7.41-4.67,0-4.67,0,2.54-9.43.9-12.15-9.27-5.08-12.63-4.46-3.37.89-3.37.89,1.31-5.84-3.29-7.48-6.8-1.65-8.93-1.1-8.16,5.15-16.06,19.42S133.61,353.09,133.61,353.09Z"/><path class="cls-57" d="M190.81,448c1.11-5,5.38-28.08,3.91-37.86s-8.06-14.85-9.39-18,15.11-46.89,12.44-54.67-7.33-4.89-7.33-4.89,3.55-10.22-1.78-14-13.33-2-13.33-2c.44-6.66-5.56-11.11-13.78-8.44s-24,34.89-24,34.89,9.78-20.79,11.17-24.1c3.2-7.66,3.48-21-9.47-15.24-14.88,6.6-44.82,67.12-46.6,78.23s14.67,18,15.78,18.67c0,0,8.56,11.35,10.93,14.3s13.73,9,14.32,16.42-25,82.2-30.27,96.38,24.51,64.37,33.66,67.32,44.59-15.35,54.93-34.25S188.1,460.39,190.81,448Zm-29-15.66c-5.46,3.12-24.2-4.69-27.32-8.25s-9.93-5.8-12.49-8.7-9.26-14.61-11.37-16.17-11.94-5.47-14.39-9.93-1.45-9.92,1.34-16.5,28.43-58.77,37-64.12,13.69-6.07,13.6,4.6c-.08,8.34-34,74-34.13,74.94s1.83,1.83,1.83,1.83,34.87-77.13,45.24-80,12.38,3.9,12.38,7.14-42.15,80.51-41.93,81.29,2.79,2,2.79,2,37.91-80.29,42.71-81.85,15.36.06,11.9,12.17c-3.62,12.7-41.59,76.11-41.26,76.78s3.49,1.7,3.49,1.7,37.46-72.81,39-73.59,6.69-1.34,6.24,5.35S167.26,429.2,161.8,432.32Z"/><path class="cls-58" d="M108,351.49s19.33,9.89,19.42,9.71,18.94-39.34,20.82-46.41c2.25-8.51-3.58-12.3-11.11-8.18C127.09,312.09,108,351.49,108,351.49Z"/><path class="cls-59" d="M159.33,441.49l.29-4c-15.5-1.11-23.82-6.79-26.86-9.38a9.13,9.13,0,0,1,.92,3.21,10.38,10.38,0,0,1-.22,2.31C138.22,436.75,146.51,440.57,159.33,441.49Z"/><path class="cls-60" d="M588.68,596.2c9.38-5.88,17-35.73,18.34-43.42.81-4.76-.28-11.85-2.65-20.42-5.74,12.31-18.12,38.53-20.26,40.15-2.81,2.13-23.88,5.26-26.75,3.62S479,474.35,479,474.35l-8.2-62-6.61-.95-1.89,23.37L315.36,421.22s6.94,10.87,17.44,16.37c5.27,2.76,57.23,22.78,60.1,23.19S479,564.23,479,564.23,478,673,471.05,676.94,359.1,689.27,351.27,688.28s-124.34-5.09-132.73-13,19.73-269.46,19.73-269.46h-8.74L202.19,561.67s-46.27,38.64-71.84,27.71c-21-9-31.25-51.38-34.24-66.22A115.89,115.89,0,0,0,93,542.31c2.85,35.17,32.8,102.17,106.47,45.56-4.63,67.46-4.08,64.39-.58,99.38.68,6.74,9.81,14.72,10.93,16.89,0,0,71.81,5,138.8,5,69.69,0,140.36-3.66,140.36-3.66.1-3,10.18-10.49,10.61-16.37,2.7-36.55,3.48-38.8,1.69-113.56C527.69,611.17,576.28,604,588.68,596.2Z"/><path class="cls-55" d="M435.89,391.75c-11.74-17.3-49.37-54.05-61.47-56.72s-25.28,6.05-25.28,6.05-70.44-8-93.38-4.27c-14.53,2.39-11.64,18.73,2.37,19.2,20.74.68,47.42,5.28,47.42,5.28a18,18,0,0,0-3.38,13.25c1.07,8,4.63,12.37,4.63,12.37s-1.78,6.14-.72,11.48,5.7,9.79,5.7,9.79A21.67,21.67,0,0,0,318,424.55c7.29,7.65,67.27,9.61,69.4,11.39s110.44,136.42,149,156.31,66.15-40.13,55.12-75.53C579.71,478.84,485.37,464.67,435.89,391.75Z"/><path class="cls-61" d="M363.89,344.34s-20.42-3.87-20.91-3.92c3.87.4,6.16.66,6.16.66A45.91,45.91,0,0,1,364.6,335c-2,1.47-4.27,3.48-3.89,4.45A32.19,32.19,0,0,0,363.89,344.34Z"/><path class="cls-62" d="M592.92,546.61c0,.11-13.59,32.73-35.75,34.51S388,421.55,386,421.4s-63.46-2.61-65.3-5.21-2.15-9.05-2.15-9.05a17.74,17.74,0,0,1-5.21-11c-.77-7.21.15-10,.15-10s-4.29-7.2-4.6-13.18,3.22-9.35,3.84-9.35,6.74.46,6.74.46l-.73-5.91S260.21,356.7,254,353s-9.28-10.51.47-15.89a15.17,15.17,0,0,0-6.25,3.51c-4.89,5.6-.67,15.06,9.95,15.42,20.74.69,47.42,5.28,47.42,5.28a18,18,0,0,0-3.38,13.25h0c1.07,8,4.63,12.37,4.63,12.37s-1.78,6.14-.72,11.48,5.7,9.79,5.7,9.79A21.67,21.67,0,0,0,318,424.55c7.29,7.65,67.27,9.61,69.4,11.39s110.44,136.42,149,156.31C565.21,607.12,587.89,577.37,592.92,546.61Z"/><path class="cls-63" d="M551.64,571.61c18.63,7.24,30.46-5.52,36.91-27.25,5.41-18.22-1.92-34.43-8-43.9-29-27.45-102.82-47.13-144.61-108.71-6.15-9.06-19.41-23.47-32.38-35.51-6.94-4.87-19.63-18.15-32.62-20.43-.89-.16-7.48-.38-8,3.33-.21,1.49,5.49,9.32,5.34,9.23-4.88-3-18.88-6.75-20.49-7.08a184.42,184.42,0,0,0-24.15-2.63c-3.72.54-.7,66,1.46,68.82s65.68,1.86,66.61,1.86S533,564.37,551.64,571.61Z"/><path class="cls-64" d="M317.51,338c0,4.46.65,13.18-4,13.6-5.69.52-58.72-.07-61.57-5-1.77-3.07-.27-6.95,2.19-9.48a15,15,0,0,1,1.6-.35C268.46,334.73,295.71,336.26,317.51,338Z"/><ellipse class="cls-65" cx="261.38" cy="197.67" rx="19.12" ry="27.97" transform="translate(-39.75 68.39) rotate(-13.86)"/><path class="cls-66" d="M314.63,37.24s0-.17,0-.45C314.61,37.08,314.63,37.24,314.63,37.24Z"/><path class="cls-67" d="M423.85,86c-4.59-35-102.28-54.44-132.67-7.53-9.9,21.89-21.61,63-27.87,103.94,0-.44,0-.7,0-.7s-30.94,106.21,66.22,114.65c93.51,8.12,110.17-37.59,108-101.61h0C438.77,158.78,430.35,113,423.85,86Z"/><g class="cls-68"><ellipse class="cls-55" cx="390.66" cy="206.75" rx="39.67" ry="34.67" transform="translate(96.47 536.63) rotate(-76.16)"/><ellipse class="cls-69" cx="390.66" cy="206.74" rx="39.42" ry="34.45" transform="translate(96.49 536.62) rotate(-76.16)"/><ellipse class="cls-70" cx="390.66" cy="206.72" rx="39.16" ry="34.23" transform="translate(96.5 536.6) rotate(-76.16)"/><ellipse class="cls-71" cx="390.66" cy="206.71" rx="38.91" ry="34" transform="translate(96.52 536.59) rotate(-76.16)"/><ellipse class="cls-72" cx="390.66" cy="206.69" rx="38.66" ry="33.78" transform="translate(96.54 536.58) rotate(-76.16)"/><ellipse class="cls-73" cx="390.66" cy="206.67" rx="38.4" ry="33.56" transform="translate(96.55 536.56) rotate(-76.16)"/><ellipse class="cls-74" cx="390.66" cy="206.66" rx="38.15" ry="33.34" transform="translate(96.57 536.55) rotate(-76.16)"/><ellipse class="cls-75" cx="390.66" cy="206.64" rx="37.89" ry="33.12" transform="translate(96.59 536.54) rotate(-76.16)"/><ellipse class="cls-76" cx="390.66" cy="206.62" rx="37.64" ry="32.89" transform="translate(96.6 536.53) rotate(-76.16)"/><ellipse class="cls-77" cx="390.66" cy="206.61" rx="37.38" ry="32.67" transform="translate(96.62 536.51) rotate(-76.16)"/><ellipse class="cls-78" cx="390.66" cy="206.59" rx="37.13" ry="32.45" transform="translate(96.64 536.5) rotate(-76.16)"/><ellipse class="cls-79" cx="390.66" cy="206.57" rx="36.88" ry="32.23" transform="translate(96.65 536.49) rotate(-76.16)"/><ellipse class="cls-80" cx="390.66" cy="206.56" rx="36.62" ry="32" transform="translate(96.67 536.48) rotate(-76.16)"/><ellipse class="cls-81" cx="390.66" cy="206.54" rx="36.37" ry="31.78" transform="translate(96.69 536.47) rotate(-76.16)"/><ellipse class="cls-82" cx="390.66" cy="206.52" rx="36.11" ry="31.56" transform="translate(96.7 536.45) rotate(-76.16)"/><ellipse class="cls-83" cx="390.66" cy="206.51" rx="35.86" ry="31.34" transform="translate(96.72 536.44) rotate(-76.16)"/><ellipse class="cls-84" cx="390.66" cy="206.49" rx="35.6" ry="31.12" transform="translate(96.73 536.43) rotate(-76.16)"/><ellipse class="cls-85" cx="390.66" cy="206.47" rx="35.35" ry="30.89" transform="translate(96.75 536.42) rotate(-76.16)"/><ellipse class="cls-86" cx="390.66" cy="206.46" rx="35.1" ry="30.67" transform="translate(96.76 536.4) rotate(-76.16)"/><ellipse class="cls-87" cx="390.66" cy="206.44" rx="34.84" ry="30.45" transform="translate(96.78 536.39) rotate(-76.16)"/><ellipse class="cls-88" cx="390.66" cy="206.43" rx="34.59" ry="30.23" transform="translate(96.79 536.38) rotate(-76.16)"/><ellipse class="cls-89" cx="390.66" cy="206.41" rx="34.33" ry="30" transform="translate(96.81 536.36) rotate(-76.16)"/><ellipse class="cls-90" cx="390.66" cy="206.39" rx="34.08" ry="29.78" transform="translate(96.83 536.36) rotate(-76.16)"/><ellipse class="cls-91" cx="390.66" cy="206.38" rx="33.82" ry="29.56" transform="translate(96.84 536.34) rotate(-76.16)"/><ellipse class="cls-92" cx="390.66" cy="206.36" rx="33.57" ry="29.34" transform="translate(96.86 536.33) rotate(-76.16)"/><ellipse class="cls-93" cx="390.66" cy="206.34" rx="33.32" ry="29.12" transform="translate(96.87 536.32) rotate(-76.16)"/><ellipse class="cls-94" cx="390.66" cy="206.33" rx="33.06" ry="28.89" transform="translate(96.89 536.31) rotate(-76.16)"/><ellipse class="cls-95" cx="390.66" cy="206.31" rx="32.81" ry="28.67" transform="translate(96.91 536.29) rotate(-76.16)"/><ellipse class="cls-96" cx="390.66" cy="206.29" rx="32.55" ry="28.45" transform="translate(96.93 536.28) rotate(-76.16)"/><ellipse class="cls-97" cx="390.66" cy="206.28" rx="32.3" ry="28.23" transform="translate(96.94 536.27) rotate(-76.16)"/><ellipse class="cls-98" cx="390.66" cy="206.26" rx="32.04" ry="28" transform="translate(96.96 536.26) rotate(-76.16)"/><ellipse class="cls-99" cx="390.66" cy="206.24" rx="31.79" ry="27.78" transform="translate(96.97 536.24) rotate(-76.16)"/><ellipse class="cls-100" cx="390.66" cy="206.23" rx="31.53" ry="27.56" transform="translate(96.99 536.23) rotate(-76.16)"/><ellipse class="cls-101" cx="390.66" cy="206.21" rx="31.28" ry="27.34" transform="translate(97.01 536.22) rotate(-76.16)"/><ellipse class="cls-102" cx="390.66" cy="206.19" rx="31.03" ry="27.11" transform="translate(97.02 536.21) rotate(-76.16)"/><ellipse class="cls-103" cx="390.66" cy="206.18" rx="30.77" ry="26.89" transform="translate(97.04 536.19) rotate(-76.16)"/><ellipse class="cls-104" cx="390.66" cy="206.16" rx="30.52" ry="26.67" transform="translate(97.05 536.18) rotate(-76.16)"/><ellipse class="cls-105" cx="390.66" cy="206.15" rx="30.26" ry="26.45" transform="translate(97.07 536.17) rotate(-76.16)"/><ellipse class="cls-106" cx="390.66" cy="206.13" rx="30.01" ry="26.23" transform="translate(97.09 536.16) rotate(-76.16)"/><ellipse class="cls-107" cx="390.66" cy="206.11" rx="29.75" ry="26" transform="translate(97.1 536.14) rotate(-76.16)"/><ellipse class="cls-107" cx="390.66" cy="206.1" rx="29.5" ry="25.78" transform="translate(97.12 536.13) rotate(-76.16)"/><ellipse class="cls-108" cx="390.66" cy="206.08" rx="29.25" ry="25.56" transform="translate(97.13 536.12) rotate(-76.16)"/><ellipse class="cls-109" cx="390.66" cy="206.06" rx="28.99" ry="25.34" transform="translate(97.15 536.11) rotate(-76.16)"/><ellipse class="cls-110" cx="390.66" cy="206.05" rx="28.74" ry="25.11" transform="translate(97.16 536.09) rotate(-76.16)"/><ellipse class="cls-111" cx="390.66" cy="206.03" rx="28.48" ry="24.89" transform="translate(97.18 536.08) rotate(-76.16)"/><ellipse class="cls-112" cx="390.66" cy="206.01" rx="28.23" ry="24.67" transform="translate(97.2 536.07) rotate(-76.16)"/><ellipse class="cls-113" cx="390.66" cy="206" rx="27.97" ry="24.45" transform="translate(97.21 536.06) rotate(-76.16)"/><ellipse class="cls-114" cx="390.66" cy="205.98" rx="27.72" ry="24.23" transform="translate(97.23 536.05) rotate(-76.16)"/><ellipse class="cls-115" cx="390.66" cy="205.96" rx="27.47" ry="24" transform="translate(97.25 536.03) rotate(-76.16)"/><ellipse class="cls-116" cx="390.66" cy="205.95" rx="27.21" ry="23.78" transform="translate(97.26 536.02) rotate(-76.16)"/><ellipse class="cls-117" cx="390.66" cy="205.93" rx="26.96" ry="23.56" transform="translate(97.28 536.01) rotate(-76.16)"/><ellipse class="cls-118" cx="390.66" cy="205.91" rx="26.7" ry="23.34" transform="translate(97.29 535.99) rotate(-76.16)"/><ellipse class="cls-119" cx="390.66" cy="205.9" rx="26.45" ry="23.11" transform="translate(97.31 535.98) rotate(-76.16)"/><ellipse class="cls-120" cx="390.66" cy="205.88" rx="26.19" ry="22.89" transform="translate(97.33 535.97) rotate(-76.16)"/><ellipse class="cls-121" cx="390.66" cy="205.87" rx="25.94" ry="22.67" transform="translate(97.34 535.96) rotate(-76.16)"/><ellipse class="cls-122" cx="390.66" cy="205.85" rx="25.69" ry="22.45" transform="translate(97.36 535.95) rotate(-76.16)"/><ellipse class="cls-123" cx="390.66" cy="205.83" rx="25.43" ry="22.23" transform="translate(97.37 535.93) rotate(-76.16)"/><ellipse class="cls-124" cx="390.66" cy="205.82" rx="25.18" ry="22" transform="translate(97.4 535.93) rotate(-76.16)"/><ellipse class="cls-125" cx="390.66" cy="205.8" rx="24.92" ry="21.78" transform="translate(97.41 535.91) rotate(-76.16)"/><ellipse class="cls-126" cx="390.66" cy="205.78" rx="24.67" ry="21.56" transform="translate(97.43 535.9) rotate(-76.16)"/><ellipse class="cls-127" cx="390.66" cy="205.77" rx="24.41" ry="21.34" transform="translate(97.44 535.88) rotate(-76.16)"/><ellipse class="cls-128" cx="390.66" cy="205.75" rx="24.16" ry="21.11" transform="translate(97.46 535.87) rotate(-76.16)"/><ellipse class="cls-129" cx="390.66" cy="205.73" rx="23.91" ry="20.89" transform="translate(97.47 535.86) rotate(-76.16)"/><ellipse class="cls-130" cx="390.66" cy="205.72" rx="23.65" ry="20.67" transform="translate(97.49 535.85) rotate(-76.16)"/><ellipse class="cls-131" cx="390.66" cy="205.7" rx="23.4" ry="20.45" transform="translate(97.5 535.83) rotate(-76.16)"/><ellipse class="cls-132" cx="390.66" cy="205.68" rx="23.14" ry="20.23" transform="translate(97.52 535.82) rotate(-76.16)"/><ellipse class="cls-133" cx="390.66" cy="205.67" rx="22.89" ry="20" transform="translate(97.54 535.81) rotate(-76.16)"/><ellipse class="cls-134" cx="390.66" cy="205.65" rx="22.63" ry="19.78" transform="translate(97.55 535.8) rotate(-76.16)"/><ellipse class="cls-135" cx="390.66" cy="205.63" rx="22.38" ry="19.56" transform="translate(97.57 535.78) rotate(-76.16)"/><ellipse class="cls-136" cx="390.66" cy="205.62" rx="22.13" ry="19.34" transform="translate(97.58 535.77) rotate(-76.16)"/><ellipse class="cls-137" cx="390.66" cy="205.6" rx="21.87" ry="19.11" transform="translate(97.6 535.76) rotate(-76.16)"/><ellipse class="cls-138" cx="390.66" cy="205.58" rx="21.62" ry="18.89" transform="translate(97.61 535.74) rotate(-76.16)"/><ellipse class="cls-139" cx="390.66" cy="205.57" rx="21.36" ry="18.67" transform="translate(97.63 535.73) rotate(-76.16)"/><ellipse class="cls-140" cx="390.66" cy="205.55" rx="21.11" ry="18.45" transform="translate(97.65 535.72) rotate(-76.16)"/><ellipse class="cls-141" cx="390.67" cy="205.54" rx="20.85" ry="18.22" transform="translate(97.67 535.71) rotate(-76.16)"/><ellipse class="cls-142" cx="390.67" cy="205.52" rx="20.6" ry="18" transform="translate(97.68 535.7) rotate(-76.16)"/><ellipse class="cls-143" cx="390.67" cy="205.5" rx="20.35" ry="17.78" transform="translate(97.7 535.68) rotate(-76.16)"/><ellipse class="cls-144" cx="390.67" cy="205.49" rx="20.09" ry="17.56" transform="translate(97.71 535.67) rotate(-76.16)"/><ellipse class="cls-145" cx="390.67" cy="205.47" rx="19.84" ry="17.34" transform="translate(97.73 535.66) rotate(-76.16)"/></g><ellipse class="cls-55" cx="449.35" cy="204.01" rx="27.97" ry="19.12" transform="translate(110.45 562.74) rotate(-71.05)"/><path class="cls-146" d="M458.67,212.37c-9.84,5.86-20.05,3.54-27.28-2.76A88.38,88.38,0,0,1,430,223.77h.19l-1.65,37c4.36-9.2,6.82-20,8-32.12a13.18,13.18,0,0,0,2.89,1.61c9.83,3.89,22.11-4.72,27.44-19.21A39.36,39.36,0,0,0,469.19,200,24.52,24.52,0,0,1,458.67,212.37Z"/><path class="cls-147" d="M441.71,203.83l9.05,1.59c.38-14.35,11.17-18.78,11.17-18.78C444.85,179.84,441.71,203.83,441.71,203.83Z"/><path class="cls-148" d="M381.37,228.86l0,.07A.31.31,0,0,0,381.37,228.86Z"/><path class="cls-149" d="M446.24,50.87c-5.7-10.71-13.45-12.77-22.19-11,4.46-2.77,3.22-7,3.22-7A9.59,9.59,0,0,0,419,35.33c6-6.17,2.57-15.31,2.57-15.31-13.88,5.52-11.29,12.59-11.29,12.59-5.13-11.65-21.9-15.73-21.9-15.73a18.14,18.14,0,0,0,.89,4.89C362.05,2.54,325.83,0,325.83,0a13.45,13.45,0,0,0-1.9,8.76,265,265,0,0,0-40.53.37c-5.77,26.94,1.34,43.24,9.39,52.65,2.9,3.44,7.11,9.19,19.28,15,0,0,12.86,7.88,33.47,8.93,18.44.94,45-7.89,45-7.89,18.43.13,42.29,58,43.34,104,.24,10.52,9.74-1.33,9.74-1.33a243.88,243.88,0,0,0,1-27.88C444.7,152.44,461.21,79,446.24,50.87Z"/><path class="cls-150" d="M284.88,48.42C257.05,56,263.65,156.67,263.75,173.18a22.6,22.6,0,0,1-.3,3.34c-.08.6,2.15.51,2-.11a11.58,11.58,0,0,1,.19-3.24c4.73-30.39,31-96.11,46.33-96.43C312,76.74,297.61,67.51,284.88,48.42Z"/><path class="cls-151" d="M400.36,44.15c.05,0,.16,0,0,0Z"/><g class="cls-68"><ellipse class="cls-55" cx="300.46" cy="198.49" rx="33.68" ry="40.72" transform="translate(-23.39 41.02) rotate(-7.52)"/><ellipse class="cls-69" cx="300.46" cy="198.49" rx="33.46" ry="40.46" transform="translate(-23.39 41.02) rotate(-7.52)"/><ellipse class="cls-70" cx="300.46" cy="198.5" rx="33.25" ry="40.2" transform="translate(-23.39 41.02) rotate(-7.52)"/><ellipse class="cls-71" cx="300.46" cy="198.5" rx="33.03" ry="39.94" transform="translate(-23.39 41.02) rotate(-7.52)"/><ellipse class="cls-72" cx="300.46" cy="198.49" rx="32.82" ry="39.68" transform="translate(-23.39 41.03) rotate(-7.52)"/><ellipse class="cls-73" cx="300.46" cy="198.49" rx="32.6" ry="39.42" transform="translate(-23.39 41.02) rotate(-7.52)"/><ellipse class="cls-74" cx="300.46" cy="198.49" rx="32.38" ry="39.15" transform="translate(-23.39 41.02) rotate(-7.52)"/><ellipse class="cls-75" cx="300.46" cy="198.49" rx="32.17" ry="38.89" transform="translate(-23.39 41.03) rotate(-7.52)"/><ellipse class="cls-76" cx="300.46" cy="198.5" rx="31.95" ry="38.63" transform="translate(-23.39 41.03) rotate(-7.52)"/><ellipse class="cls-77" cx="300.46" cy="198.5" rx="31.74" ry="38.37" transform="translate(-23.39 41.02) rotate(-7.52)"/><ellipse class="cls-78" cx="300.46" cy="198.5" rx="31.52" ry="38.11" transform="translate(-23.39 41.02) rotate(-7.52)"/><ellipse class="cls-79" cx="300.46" cy="198.49" rx="31.3" ry="37.85" transform="translate(-23.39 41.03) rotate(-7.52)"/><ellipse class="cls-80" cx="300.46" cy="198.49" rx="31.09" ry="37.59" transform="translate(-23.39 41.02) rotate(-7.52)"/><ellipse class="cls-81" cx="300.46" cy="198.49" rx="30.87" ry="37.33" transform="translate(-23.39 41.02) rotate(-7.52)"/><ellipse class="cls-82" cx="300.46" cy="198.49" rx="30.66" ry="37.07" transform="translate(-23.39 41.02) rotate(-7.52)"/><ellipse class="cls-83" cx="300.46" cy="198.49" rx="30.44" ry="36.81" transform="matrix(0.99, -0.13, 0.13, 0.99, -23.39, 41.03)"/><ellipse class="cls-84" cx="300.46" cy="198.5" rx="30.23" ry="36.54" transform="translate(-23.39 41.02) rotate(-7.52)"/><ellipse class="cls-85" cx="300.46" cy="198.5" rx="30.01" ry="36.28" transform="translate(-23.39 41.02) rotate(-7.52)"/><ellipse class="cls-86" cx="300.46" cy="198.49" rx="29.79" ry="36.02" transform="translate(-23.39 41.02) rotate(-7.52)"/><ellipse class="cls-87" cx="300.46" cy="198.49" rx="29.58" ry="35.76" transform="translate(-23.39 41.03) rotate(-7.52)"/><ellipse class="cls-88" cx="300.46" cy="198.5" rx="29.36" ry="35.5" transform="translate(-23.39 41.03) rotate(-7.52)"/><ellipse class="cls-89" cx="300.46" cy="198.5" rx="29.15" ry="35.24" transform="translate(-23.39 41.03) rotate(-7.52)"/><ellipse class="cls-90" cx="300.46" cy="198.5" rx="28.93" ry="34.98" transform="translate(-23.39 41.03) rotate(-7.52)"/><ellipse class="cls-91" cx="300.46" cy="198.49" rx="28.71" ry="34.72" transform="matrix(0.99, -0.13, 0.13, 0.99, -23.39, 41.02)"/><ellipse class="cls-92" cx="300.46" cy="198.5" rx="28.5" ry="34.46" transform="translate(-23.39 41.02) rotate(-7.52)"/><ellipse class="cls-93" cx="300.46" cy="198.49" rx="28.28" ry="34.19" transform="translate(-23.39 41.02) rotate(-7.52)"/><ellipse class="cls-94" cx="300.46" cy="198.49" rx="28.07" ry="33.93" transform="translate(-23.39 41.02) rotate(-7.52)"/><ellipse class="cls-95" cx="300.46" cy="198.49" rx="27.85" ry="33.67" transform="translate(-23.39 41.03) rotate(-7.52)"/><ellipse class="cls-96" cx="300.46" cy="198.49" rx="27.63" ry="33.41" transform="translate(-23.39 41.03) rotate(-7.52)"/><ellipse class="cls-97" cx="300.46" cy="198.49" rx="27.42" ry="33.15" transform="translate(-23.39 41.03) rotate(-7.52)"/><ellipse class="cls-98" cx="300.46" cy="198.49" rx="27.2" ry="32.89" transform="translate(-23.39 41.02) rotate(-7.52)"/><ellipse class="cls-99" cx="300.46" cy="198.5" rx="26.99" ry="32.63" transform="translate(-23.39 41.03) rotate(-7.52)"/><ellipse class="cls-100" cx="300.46" cy="198.5" rx="26.77" ry="32.37" transform="translate(-23.39 41.02) rotate(-7.52)"/><ellipse class="cls-101" cx="300.46" cy="198.5" rx="26.56" ry="32.11" transform="matrix(0.99, -0.13, 0.13, 0.99, -23.39, 41.03)"/><ellipse class="cls-102" cx="300.46" cy="198.5" rx="26.34" ry="31.85" transform="matrix(0.99, -0.13, 0.13, 0.99, -23.39, 41.02)"/><ellipse class="cls-103" cx="300.46" cy="198.49" rx="26.12" ry="31.58" transform="translate(-23.39 41.02) rotate(-7.52)"/><ellipse class="cls-104" cx="300.46" cy="198.49" rx="25.91" ry="31.32" transform="matrix(0.99, -0.13, 0.13, 0.99, -23.39, 41.02)"/><ellipse class="cls-105" cx="300.46" cy="198.49" rx="25.69" ry="31.06" transform="translate(-23.39 41.02) rotate(-7.52)"/><ellipse class="cls-106" cx="300.46" cy="198.5" rx="25.48" ry="30.8" transform="translate(-23.39 41.02) rotate(-7.52)"/><ellipse class="cls-107" cx="300.46" cy="198.5" rx="25.26" ry="30.54" transform="translate(-23.39 41.02) rotate(-7.52)"/><ellipse class="cls-107" cx="300.46" cy="198.49" rx="25.04" ry="30.28" transform="matrix(0.99, -0.13, 0.13, 0.99, -23.39, 41.03)"/><ellipse class="cls-108" cx="300.46" cy="198.49" rx="24.83" ry="30.02" transform="translate(-23.39 41.03) rotate(-7.52)"/><ellipse class="cls-109" cx="300.46" cy="198.49" rx="24.61" ry="29.76" transform="translate(-23.39 41.03) rotate(-7.52)"/><ellipse class="cls-110" cx="300.46" cy="198.49" rx="24.4" ry="29.5" transform="translate(-23.39 41.02) rotate(-7.52)"/><ellipse class="cls-111" cx="300.46" cy="198.5" rx="24.18" ry="29.24" transform="translate(-23.39 41.03) rotate(-7.52)"/><ellipse class="cls-112" cx="300.46" cy="198.5" rx="23.96" ry="28.97" transform="translate(-23.39 41.02) rotate(-7.52)"/><ellipse class="cls-113" cx="300.46" cy="198.5" rx="23.75" ry="28.71" transform="translate(-23.39 41.02) rotate(-7.52)"/><ellipse class="cls-114" cx="300.46" cy="198.49" rx="23.53" ry="28.45" transform="translate(-23.39 41.02) rotate(-7.52)"/><ellipse class="cls-115" cx="300.46" cy="198.49" rx="23.32" ry="28.19" transform="translate(-23.39 41.03) rotate(-7.52)"/><ellipse class="cls-116" cx="300.46" cy="198.49" rx="23.1" ry="27.93" transform="translate(-23.39 41.03) rotate(-7.52)"/><ellipse class="cls-117" cx="300.46" cy="198.49" rx="22.89" ry="27.67" transform="translate(-23.39 41.02) rotate(-7.52)"/><ellipse class="cls-118" cx="300.46" cy="198.49" rx="22.67" ry="27.41" transform="translate(-23.39 41.02) rotate(-7.52)"/><ellipse class="cls-119" cx="300.46" cy="198.5" rx="22.45" ry="27.15" transform="translate(-23.39 41.02) rotate(-7.52)"/><ellipse class="cls-120" cx="300.46" cy="198.5" rx="22.24" ry="26.89" transform="translate(-23.39 41.03) rotate(-7.52)"/><ellipse class="cls-121" cx="300.46" cy="198.49" rx="22.02" ry="26.63" transform="matrix(0.99, -0.13, 0.13, 0.99, -23.39, 41.02)"/><ellipse class="cls-122" cx="300.46" cy="198.5" rx="21.81" ry="26.36" transform="translate(-23.39 41.02) rotate(-7.52)"/><ellipse class="cls-123" cx="300.46" cy="198.5" rx="21.59" ry="26.1" transform="translate(-23.39 41.03) rotate(-7.52)"/><ellipse class="cls-124" cx="300.46" cy="198.5" rx="21.37" ry="25.84" transform="translate(-23.39 41.03) rotate(-7.52)"/><ellipse class="cls-125" cx="300.46" cy="198.49" rx="21.16" ry="25.58" transform="translate(-23.39 41.02) rotate(-7.52)"/><ellipse class="cls-126" cx="300.46" cy="198.5" rx="20.94" ry="25.32" transform="translate(-23.39 41.02) rotate(-7.52)"/><ellipse class="cls-127" cx="300.46" cy="198.5" rx="20.73" ry="25.06" transform="translate(-23.39 41.03) rotate(-7.52)"/><ellipse class="cls-128" cx="300.46" cy="198.49" rx="20.51" ry="24.8" transform="translate(-23.39 41.02) rotate(-7.52)"/><ellipse class="cls-129" cx="300.46" cy="198.49" rx="20.29" ry="24.54" transform="translate(-23.39 41.03) rotate(-7.52)"/><ellipse class="cls-130" cx="300.46" cy="198.49" rx="20.08" ry="24.28" transform="translate(-23.39 41.02) rotate(-7.52)"/><ellipse class="cls-131" cx="300.46" cy="198.49" rx="19.86" ry="24.01" transform="translate(-23.39 41.02) rotate(-7.52)"/><ellipse class="cls-132" cx="300.46" cy="198.49" rx="19.65" ry="23.75" transform="matrix(0.99, -0.13, 0.13, 0.99, -23.39, 41.03)"/><ellipse class="cls-133" cx="300.46" cy="198.5" rx="19.43" ry="23.49" transform="translate(-23.39 41.02) rotate(-7.52)"/><ellipse class="cls-134" cx="300.46" cy="198.5" rx="19.21" ry="23.23" transform="matrix(0.99, -0.13, 0.13, 0.99, -23.39, 41.02)"/><ellipse class="cls-135" cx="300.46" cy="198.5" rx="19" ry="22.97" transform="matrix(0.99, -0.13, 0.13, 0.99, -23.39, 41.02)"/><ellipse class="cls-136" cx="300.46" cy="198.5" rx="18.78" ry="22.71" transform="translate(-23.39 41.03) rotate(-7.52)"/><ellipse class="cls-137" cx="300.46" cy="198.49" rx="18.57" ry="22.45" transform="translate(-23.39 41.02) rotate(-7.52)"/><ellipse class="cls-138" cx="300.46" cy="198.49" rx="18.35" ry="22.19" transform="translate(-23.39 41.02) rotate(-7.52)"/><ellipse class="cls-139" cx="300.46" cy="198.49" rx="18.14" ry="21.93" transform="translate(-23.39 41.02) rotate(-7.52)"/><ellipse class="cls-140" cx="300.46" cy="198.49" rx="17.92" ry="21.67" transform="translate(-23.39 41.03) rotate(-7.52)"/><ellipse class="cls-141" cx="300.46" cy="198.5" rx="17.7" ry="21.4" transform="translate(-23.39 41.03) rotate(-7.52)"/><ellipse class="cls-142" cx="300.46" cy="198.49" rx="17.49" ry="21.14" transform="translate(-23.39 41.02) rotate(-7.52)"/><ellipse class="cls-143" cx="300.46" cy="198.49" rx="17.27" ry="20.88" transform="translate(-23.39 41.02) rotate(-7.52)"/><ellipse class="cls-144" cx="300.46" cy="198.49" rx="17.06" ry="20.62" transform="translate(-23.39 41.03) rotate(-7.52)"/><path class="cls-145" d="M317.35,198.67c.38,11.21-6.87,20.22-16.2,20.13s-17.2-9.26-17.58-20.48,6.87-20.22,16.2-20.13S317,187.45,317.35,198.67Z"/></g><path class="cls-151" d="M400.56,42.84Z"/><path class="cls-152" d="M444.47,48a18.88,18.88,0,0,0-8.94-7.56c-3,.46-6.09,1.08-9.28,1.71-9.48,1.85-19.44,3-29.05,1.4C386,41.66,376.33,36.34,366.53,31c-4.95-2.69-9.89-5.43-15-7.81-10.95-5.1-23.9-10.17-36.15-10.14-6.06,0-12.06,1.68-17.7,3.79a38.1,38.1,0,0,0-12.8,8,35.66,35.66,0,0,1-3.58,2.58,63.52,63.52,0,0,0,1.11,12.28c.59-.34,1.12-.64,1.3-.77a37.62,37.62,0,0,1,7.63-4,33.12,33.12,0,0,1,10.1-2.23C316,32,329.37,38.24,342.35,44.08c5.31,2.38,10.71,5.14,16.42,7.72a178.17,178.17,0,0,0,17.89,7.27c10.5,3.56,23.42,4.94,34.31,2.27,1.47-.36,2.92-.65,4.33-1a97,97,0,0,0,14.83-5.75c4.28-2,7.94-3.9,11.17-5.29C442.41,48.76,443.47,48.33,444.47,48Z"/><path class="cls-151" d="M400.13,44.14h0Z"/><path class="cls-153" d="M362.89,124.56s-12,29.34,6.09,51c0,0,40.14,7.7,45.1-2.44.86-1.74.47-14.85-2.43-26.46C409.27,137.21,362.89,124.56,362.89,124.56Z"/><path class="cls-154" d="M286,142.74c-3.5,8.42-6.25,28.14-6.25,28.14l41.74,6.27c19.76-21.09,9-52.29,9-52.29S289.51,134.32,286,142.74Z"/><path class="cls-155" d="M393.43,159C374.57,157.26,369,175.59,369,175.59s5.09,3.2,23.74,2.79c22.11-.48,21.36-5.23,21.36-5.23S412.3,160.82,393.43,159Z"/><path class="cls-155" d="M279.76,170.88s.53,3.65,17.12,6.11c19.68,2.92,24.62.16,24.62.16s-2.36-11.1-10.11-16.66S290.5,154.9,279.76,170.88Z"/><path class="cls-156" d="M296.88,177a107.72,107.72,0,0,0,15.39,1.34c2.23-7,.54-13.83-3.88-15.32s-10.06,3.06-12.46,10.19a18.57,18.57,0,0,0-.81,3.52Z"/><path class="cls-157" d="M392.72,178.38c2.56,0,4.8-.17,6.78-.33,1.62-7.21-.12-13.9-4.24-15.44-4.48-1.67-10.06,3.39-12.46,11.3a23.18,23.18,0,0,0-.78,4.27C385,178.38,388.49,178.48,392.72,178.38Z"/><path class="cls-158" d="M302.6,156c-13.74-1.2-23.76,7.5-22.84,14.85,0,0,7.37-9.16,22-8.15,17.26,1.18,19.7,14.42,19.7,14.42C324.39,170.9,321.62,157.68,302.6,156Z"/><path class="cls-159" d="M283.6,151.4c18.41-17.47,40.56-6.31,47-15.25,3.17-4.39-.17-11.29-.17-11.29C284.65,121.22,283.6,151.4,283.6,151.4Z"/><path class="cls-160" d="M362.89,124.56s-2.16,6.94.87,10.35c9.44,10.65,28.06-3.11,48.79,16.47C412.55,151.38,411,118.78,362.89,124.56Z"/><path class="cls-158" d="M391.48,156.85c-21.22-.49-25.25,13.64-22.5,18.74,0,0,6.56-10.2,23.45-10.88,17.38-.69,21.65,8.44,21.65,8.44C416.05,166.21,412.48,157.34,391.48,156.85Z"/><path class="cls-148" d="M382.76,230.32a.73.73,0,0,1,0,.08A.73.73,0,0,0,382.76,230.32Z"/><path class="cls-161" d="M309.39,173.17a4.93,4.93,0,0,1-4.45,4.62,3.78,3.78,0,0,1-4-4.17,4.9,4.9,0,0,1,4.44-4.62A3.78,3.78,0,0,1,309.39,173.17Z"/><path class="cls-161" d="M395.88,174a4.62,4.62,0,0,1-4.49,4.26,3.48,3.48,0,0,1-3.92-3.81,4.92,4.92,0,0,1,4.45-4.62A3.78,3.78,0,0,1,395.88,174Z"/><path class="cls-162" d="M302.4,168.57c-1.89.92-3.21,2.73-2.95,4s2,1.64,3.88.72,3.21-2.73,2.95-4.05S304.29,167.65,302.4,168.57Z"/><path class="cls-162" d="M388.36,168.9c-1.87,1.12-3.11,3.16-2.76,4.56s2.14,1.62,4,.5,3.11-3.16,2.76-4.56S390.23,167.78,388.36,168.9Z"/><path class="cls-163" d="M411.89,65.89c-10.95,8.2-23.06,12.94-36.3,16a1.5,1.5,0,0,0-.42.15c8.84-2.08,15.38-4.25,15.38-4.25a12.59,12.59,0,0,1,6.89,2.47,86,86,0,0,0,17-10.29C416.86,68.12,414.4,64,411.89,65.89Z"/><path class="cls-164" d="M303.41,229.3s4.78,40.86,44.42,38.27c42.45-2.77,38.71-42.8,38.71-42.8Z"/><path class="cls-165" d="M305.53,229.9c-.61.84,2.44,26.16,41.15,25.73,38.1-.42,39-28.4,38.49-29.19C383.67,224,307.78,226.81,305.53,229.9Z"/><path class="cls-166" d="M311,228s.17,5.84,4.13,9.89c8.82,9.05,51.54,7.84,58.95-.9,4.88-5.74,4.63-10.35,4.63-10.35Z"/><path class="cls-167" d="M378.74,226.66,311,228a16.67,16.67,0,0,0,3.67,9.39c2.48-4.67,12.68,2.27,29,2,17.5-.35,23.07-4.9,26.68-4.33,2.27.36,2.34,1.64,1.85,3.59a9,9,0,0,0,1.88-1.61C379,231.27,378.74,226.66,378.74,226.66Z"/><path class="cls-168" d="M443.63,180.45l-9.78-.18c-1.88,18.78-7.63,34-16.19,41a45.6,45.6,0,0,1-18.94,8.94c4.54-23-45.73-20.34-60.1-19.84S287.7,211,293,232.87c0,0-16.74.6-23.51-24.16-2.85-10.4-3.83-29.32-4.14-34.52l-1.35-.05c-12.42,49.43-10.37,135.63,85.3,132.69,99.46-3.06,89.51-76.81,89.51-76.81C433.94,212.45,443.63,180.45,443.63,180.45ZM347.51,276.4c-45.36,1.41-43.57-42.26-42-44.45,2.7-3.83,11.05,3.66,37.28,3.87s39.4-8.44,42.5-6.17S389.71,275.09,347.51,276.4Z"/><path class="cls-169" d="M338.64,224.67c16.34,0,22.31-8.47,24.45-14.42-10-.49-19.43-.05-24.47.13-6.11.21-16.22.36-25.41,2.13C315.62,217.72,322,224.64,338.64,224.67Z"/><path class="cls-163" d="M357.77,281.57a44.12,44.12,0,0,1-14.26,1.34,4.56,4.56,0,0,0-4.9,5.46c.71,3.18,3.68,6.19,12.93,5.15,9-1,11.57-4.31,11.86-7.33A4.49,4.49,0,0,0,357.77,281.57Z"/><path class="cls-55" d="M335,184s-16.47-3.22-20.56,11.11c-5.21,18.21,31.06,29.35,41.2,10.36S340,150.68,340,150.68,346.07,169.18,335,184Z"/><path class="cls-170" d="M314,200.18c2,15,32.44,22.4,41.6,5.26a18.06,18.06,0,0,0,1.34-3.28A90.51,90.51,0,0,1,314,200.18Z"/><path class="cls-171" d="M345.58,169.86l-4.09-.19s-2.27,13.16-6.28,15h0c-.64-.07-1.28-.12-1.94-.15-7.14-.32-13,1.93-13.17,5s5.54,5.67,12.68,6c6.68.3,12.56-.83,13.38-4.45C346.18,191.05,349.5,177.31,345.58,169.86Z"/><path class="cls-172" d="M305.61,182.12c-3.93,0-7.68-.89-11.56-1.08-2.12-.09-2.74,3-1,3.92,3.92,2.16,8.9,2,13.2,1.37C308.7,186,308,182.1,305.61,182.12Z"/><path class="cls-172" d="M399.3,182.08a87.87,87.87,0,0,1-11.8,1c-2.44,0-3,4-.52,4.37,4.25.57,8.92.53,13-1C402.14,185.61,401.94,181.77,399.3,182.08Z"/></g></g></svg>