<svg xmlns="http://www.w3.org/2000/svg" xmlns:xlink="http://www.w3.org/1999/xlink" viewBox="0 0 634.54 1464.62"><defs><style>.cls-1{fill:url(#Áåçûìÿííûé_ãðàäèåíò_11);}.cls-2{fill:#2c2c2d;}.cls-3{fill:#333844;}.cls-4{opacity:0.09;}.cls-5{fill:#292d35;}.cls-6{fill:#1c1d1e;}.cls-7{fill:url(#Áåçûìÿííûé_ãðàäèåíò_501);}.cls-8{fill:#3d3d3d;}.cls-9{fill:url(#Áåçûìÿííûé_ãðàäèåíò_486);}.cls-10{fill:url(#Áåçûìÿííûé_ãðàäèåíò_486-2);}.cls-11{fill:url(#Áåçûìÿííûé_ãðàäèåíò_501-2);}.cls-12{fill:url(#Áåçûìÿííûé_ãðàäèåíò_20);}.cls-13{fill:url(#Áåçûìÿííûé_ãðàäèåíò_20-2);}.cls-14{fill:url(#Áåçûìÿííûé_ãðàäèåíò_487);}.cls-15{fill:url(#Áåçûìÿííûé_ãðàäèåíò_6);}.cls-16{fill:url(#Áåçûìÿííûé_ãðàäèåíò_7);}.cls-17{fill:url(#Áåçûìÿííûé_ãðàäèåíò_7-2);}.cls-18{fill:url(#Áåçûìÿííûé_ãðàäèåíò_7-3);}.cls-19{fill:url(#Áåçûìÿííûé_ãðàäèåíò_6-2);}.cls-20{fill:url(#Áåçûìÿííûé_ãðàäèåíò_6-3);}.cls-21{fill:url(#Áåçûìÿííûé_ãðàäèåíò_16);}.cls-22{fill:url(#Áåçûìÿííûé_ãðàäèåíò_16-2);}.cls-23{fill:url(#Áåçûìÿííûé_ãðàäèåíò_29);}.cls-24{fill:#3e1208;}.cls-25{fill:url(#Áåçûìÿííûé_ãðàäèåíò_16-3);}.cls-26{opacity:0.44;}.cls-27{fill:#ff9e78;}.cls-28{fill:#ff9d77;}.cls-29{fill:#ff9c77;}.cls-30{fill:#ff9b76;}.cls-31{fill:#ff9a76;}.cls-32{fill:#ff9975;}.cls-33{fill:#ff9875;}.cls-34{fill:#ff9774;}.cls-35{fill:#ff9674;}.cls-36{fill:#ff9573;}.cls-37{fill:#ff9472;}.cls-38{fill:#ff9372;}.cls-39{fill:#ff9271;}.cls-40{fill:#ff9171;}.cls-41{fill:#ff9070;}.cls-42{fill:#ff8f70;}.cls-43{fill:#ff8e6f;}.cls-44{fill:#ff8d6f;}.cls-45{fill:#ff8c6e;}.cls-46{fill:#ff8b6e;}.cls-47{fill:#ff8a6d;}.cls-48{fill:#ff896c;}.cls-49{fill:#ff886c;}.cls-50{fill:#ff876b;}.cls-51{fill:#ff866b;}.cls-52{fill:#ff856a;}.cls-53{fill:#ff846a;}.cls-54{fill:#ff8369;}.cls-55{fill:#ff8269;}.cls-56{fill:#ff8168;}.cls-57{fill:#ff8067;}.cls-58{fill:#ff7f67;}.cls-59{fill:#ff7e66;}.cls-60{fill:#ff7d66;}.cls-61{fill:#ff7c65;}.cls-62{fill:#ff7b65;}.cls-63{fill:#ff7a64;}.cls-64{fill:#ff7964;}.cls-65{fill:#ff7863;}.cls-66{fill:#ff7762;}.cls-67{fill:#ff7661;}.cls-68{fill:#ff7561;}.cls-69{fill:#ff7460;}.cls-70{fill:#ff7360;}.cls-71{fill:#ff725f;}.cls-72{fill:#ff715f;}.cls-73{fill:#ff705e;}.cls-74{fill:#ff6f5e;}.cls-75{fill:#ff6e5d;}.cls-76{fill:#ff6d5c;}.cls-77{fill:#ff6c5c;}.cls-78{fill:#ff6b5b;}.cls-79{fill:#ff6a5b;}.cls-80{fill:#ff695a;}.cls-81{fill:#ff685a;}.cls-82{fill:#ff6759;}.cls-83{fill:#ff6659;}.cls-84{fill:#ff6558;}.cls-85{fill:#ff6457;}.cls-86{fill:#ff6357;}.cls-87{fill:#ff6256;}.cls-88{fill:#ff6156;}.cls-89{fill:#ff6055;}.cls-90{fill:#ff5f55;}.cls-91{fill:#ff5e54;}.cls-92{fill:#ff5d54;}.cls-93{fill:#ff5c53;}.cls-94{fill:#ff5b53;}.cls-95{fill:#ff5a52;}.cls-96{fill:#ff5951;}.cls-97{fill:#ff5851;}.cls-98{fill:#ff5750;}.cls-99{fill:#ff5650;}.cls-100{fill:#ff554f;}.cls-101{fill:#ff544f;}.cls-102{fill:#ff534e;}.cls-103{fill:#ff524e;}.cls-104{fill:#ff514d;}.cls-105{fill:url(#Áåçûìÿííûé_ãðàäèåíò_29-2);}.cls-106{fill:url(#Áåçûìÿííûé_ãðàäèåíò_29-3);}.cls-107{fill:#7c302a;}.cls-108{fill:url(#Áåçûìÿííûé_ãðàäèåíò_57);}.cls-109{fill:#59352c;}.cls-110,.cls-114,.cls-124,.cls-127{fill:#fff;}.cls-110{opacity:0.12;}.cls-111{fill:#ffbc80;}.cls-111,.cls-137{opacity:0.11;}.cls-112{fill:url(#Áåçûìÿííûé_ãðàäèåíò_16-4);}.cls-113{fill:url(#Áåçûìÿííûé_ãðàäèåíò_16-5);}.cls-115{fill:url(#Áåçûìÿííûé_ãðàäèåíò_12);}.cls-116{fill:url(#Áåçûìÿííûé_ãðàäèåíò_12-2);}.cls-117{fill:#603f37;}.cls-118{fill:#1e1d1d;}.cls-119{fill:url(#Áåçûìÿííûé_ãðàäèåíò_57-2);}.cls-120{fill:url(#Áåçûìÿííûé_ãðàäèåíò_57-3);}.cls-121{fill:url(#Áåçûìÿííûé_ãðàäèåíò_16-6);}.cls-122{fill:#fb755c;}.cls-123{fill:url(#Áåçûìÿííûé_ãðàäèåíò_57-4);}.cls-124{opacity:0.82;}.cls-125{fill:url(#Áåçûìÿííûé_ãðàäèåíò_24);}.cls-126{fill:url(#Áåçûìÿííûé_ãðàäèåíò_29-4);}.cls-127{opacity:0.2;}.cls-128{fill:#cc5c50;opacity:0.34;}.cls-129{opacity:0.1;}.cls-130{fill:url(#Áåçûìÿííûé_ãðàäèåíò_29-5);}.cls-131{fill:#e4856b;}.cls-132{fill:#f87f67;}.cls-133{fill:url(#Áåçûìÿííûé_ãðàäèåíò_440);}.cls-134{fill:url(#Áåçûìÿííûé_ãðàäèåíò_440-2);}.cls-135{fill:url(#Áåçûìÿííûé_ãðàäèåíò_440-3);}.cls-136{fill:url(#Áåçûìÿííûé_ãðàäèåíò_440-4);}</style><linearGradient id="Áåçûìÿííûé_ãðàäèåíò_11" x1="317.27" y1="1475.6" x2="317.27" y2="1393.53" gradientUnits="userSpaceOnUse"><stop offset="0" stop-color="#fff"/><stop offset="1" stop-color="#a5b7c6"/></linearGradient><linearGradient id="Áåçûìÿííûé_ãðàäèåíò_501" x1="2839.25" y1="1027.31" x2="2854.48" y2="853.19" gradientTransform="matrix(-1.01, 0, -0.07, 0.99, 3370.82, 7.16)" gradientUnits="userSpaceOnUse"><stop offset="0" stop-color="#3d434f"/><stop offset="1" stop-color="#333844"/></linearGradient><linearGradient id="Áåçûìÿííûé_ãðàäèåíò_486" x1="140.28" y1="1394.21" x2="140.77" y2="1421.3" gradientUnits="userSpaceOnUse"><stop offset="0" stop-color="#5b5b60"/><stop offset="1" stop-color="#2c2c2d"/></linearGradient><linearGradient id="Áåçûìÿííûé_ãðàäèåíò_486-2" x1="489.56" y1="1394.18" x2="490.06" y2="1421.39" xlink:href="#Áåçûìÿííûé_ãðàäèåíò_486"/><linearGradient id="Áåçûìÿííûé_ãðàäèåíò_501-2" x1="372.23" y1="1099.49" x2="387.62" y2="923.61" gradientTransform="matrix(1.06, 0.04, -0.08, 0.94, -54.68, -37.52)" xlink:href="#Áåçûìÿííûé_ãðàäèåíò_501"/><linearGradient id="Áåçûìÿííûé_ãðàäèåíò_20" x1="314.44" y1="746.31" x2="346.27" y2="746.31" gradientUnits="userSpaceOnUse"><stop offset="0" stop-color="#5f6163"/><stop offset="1" stop-color="#444749"/></linearGradient><linearGradient id="Áåçûìÿííûé_ãðàäèåíò_20-2" x1="332" y1="745.41" x2="346.04" y2="745.41" xlink:href="#Áåçûìÿííûé_ãðàäèåíò_20"/><linearGradient id="Áåçûìÿííûé_ãðàäèåíò_487" x1="361.91" y1="298.9" x2="361.91" y2="325.09" gradientUnits="userSpaceOnUse"><stop offset="0" stop-color="#db7d67"/><stop offset="1" stop-color="#ff9e78"/></linearGradient><linearGradient id="Áåçûìÿííûé_ãðàäèåíò_6" x1="375.85" y1="327.15" x2="375.85" y2="458.86" gradientUnits="userSpaceOnUse"><stop offset="0" stop-color="#deefff"/><stop offset="1" stop-color="#cadbef"/></linearGradient><linearGradient id="Áåçûìÿííûé_ãðàäèåíò_7" x1="378.41" y1="473.53" x2="378.41" y2="738.85" gradientUnits="userSpaceOnUse"><stop offset="0" stop-color="#b3cbe2"/><stop offset="1" stop-color="#cadbef"/></linearGradient><linearGradient id="Áåçûìÿííûé_ãðàäèåíò_7-2" x1="362.79" y1="343.11" x2="362.79" y2="366.18" xlink:href="#Áåçûìÿííûé_ãðàäèåíò_7"/><linearGradient id="Áåçûìÿííûé_ãðàäèåíò_7-3" x1="364.51" y1="565.58" x2="364.51" y2="733.78" xlink:href="#Áåçûìÿííûé_ãðàäèåíò_7"/><linearGradient id="Áåçûìÿííûé_ãðàäèåíò_6-2" x1="223.54" y1="516.24" x2="242.61" y2="539.76" xlink:href="#Áåçûìÿííûé_ãðàäèåíò_6"/><linearGradient id="Áåçûìÿííûé_ãðàäèåíò_6-3" x1="493.87" y1="493.86" x2="528.61" y2="536.71" xlink:href="#Áåçûìÿííûé_ãðàäèåíò_6"/><linearGradient id="Áåçûìÿííûé_ãðàäèåíò_16" x1="298.45" y1="560.51" x2="372.46" y2="560.51" gradientUnits="userSpaceOnUse"><stop offset="0" stop-color="#c6664f"/><stop offset="1" stop-color="#ff9e78"/></linearGradient><linearGradient id="Áåçûìÿííûé_ãðàäèåíò_16-2" x1="397.94" y1="622.03" x2="423.44" y2="556.68" xlink:href="#Áåçûìÿííûé_ãðàäèåíò_16"/><linearGradient id="Áåçûìÿííûé_ãðàäèåíò_29" x1="263.15" y1="97.16" x2="302.73" y2="97.16" gradientTransform="translate(31.81 31.64) rotate(14.41)" gradientUnits="userSpaceOnUse"><stop offset="0" stop-color="#f28c70"/><stop offset="1" stop-color="#ff9e78"/></linearGradient><linearGradient id="Áåçûìÿííûé_ãðàäèåíò_16-3" x1="369.87" y1="-24.06" x2="369.87" y2="6.77" gradientTransform="translate(0.49 93.99) rotate(1.01)" xlink:href="#Áåçûìÿííûé_ãðàäèåíò_16"/><linearGradient id="Áåçûìÿííûé_ãðàäèåíò_29-2" x1="450.63" y1="129.06" x2="490.75" y2="129.06" gradientTransform="translate(0.49 93.99) rotate(1.01)" xlink:href="#Áåçûìÿííûé_ãðàäèåíò_29"/><linearGradient id="Áåçûìÿííûé_ãðàäèåíò_29-3" x1="463.3" y1="94.08" x2="483.36" y2="94.08" gradientTransform="translate(0.49 93.99) rotate(1.01)" xlink:href="#Áåçûìÿííûé_ãðàäèåíò_29"/><linearGradient id="Áåçûìÿííûé_ãðàäèåíò_57" x1="380.52" y1="-67.05" x2="380.05" y2="9.2" gradientTransform="translate(7.64 57.21) rotate(3.02)" gradientUnits="userSpaceOnUse"><stop offset="0" stop-color="#75483b"/><stop offset="0.35" stop-color="#704538"/><stop offset="0.75" stop-color="#633c30"/><stop offset="1" stop-color="#563428"/></linearGradient><linearGradient id="Áåçûìÿííûé_ãðàäèåíò_16-4" x1="407.47" y1="12.67" x2="406.43" y2="76.36" gradientTransform="translate(0.49 93.99) rotate(1.01)" xlink:href="#Áåçûìÿííûé_ãðàäèåíò_16"/><linearGradient id="Áåçûìÿííûé_ãðàäèåíò_16-5" x1="330.18" y1="18.06" x2="329.22" y2="76.55" gradientTransform="translate(0.49 93.99) rotate(1.01)" xlink:href="#Áåçûìÿííûé_ãðàäèåíò_16"/><linearGradient id="Áåçûìÿííûé_ãðàäèåíò_12" x1="406.15" y1="176.95" x2="425.32" y2="176.95" gradientUnits="userSpaceOnUse"><stop offset="0" stop-color="#704a3e"/><stop offset="1"/></linearGradient><linearGradient id="Áåçûìÿííûé_ãðàäèåíò_12-2" x1="318.2" y1="176.53" x2="337.42" y2="176.53" xlink:href="#Áåçûìÿííûé_ãðàäèåíò_12"/><linearGradient id="Áåçûìÿííûé_ãðàäèåíò_57-2" x1="326.11" y1="278.34" x2="325.58" y2="296.87" gradientTransform="matrix(0.99, 0.16, -0.05, 1, 24.79, -197.15)" xlink:href="#Áåçûìÿííûé_ãðàäèåíò_57"/><linearGradient id="Áåçûìÿííûé_ãðàäèåíò_57-3" x1="372.94" y1="229.86" x2="372.5" y2="245.22" gradientTransform="matrix(0.97, -0.14, -0.05, 1.04, 55.56, -46.03)" xlink:href="#Áåçûìÿííûé_ãðàäèåíò_57"/><linearGradient id="Áåçûìÿííûé_ãðàäèåíò_16-6" x1="357.71" y1="236.36" x2="357.13" y2="250.17" xlink:href="#Áåçûìÿííûé_ãðàäèåíò_16"/><linearGradient id="Áåçûìÿííûé_ãðàäèåíò_57-4" x1="369.57" y1="318.8" x2="370.4" y2="184.02" gradientTransform="matrix(1, 0, 0, 1, 0, 0)" xlink:href="#Áåçûìÿííûé_ãðàäèåíò_57"/><linearGradient id="Áåçûìÿííûé_ãðàäèåíò_24" x1="356.61" y1="216.61" x2="357.17" y2="231.83" gradientUnits="userSpaceOnUse"><stop offset="0" stop-color="#4c2e25"/><stop offset="0.39" stop-color="#513127"/><stop offset="0.83" stop-color="#5e3a2e"/><stop offset="1" stop-color="#663f32"/></linearGradient><linearGradient id="Áåçûìÿííûé_ãðàäèåíò_29-4" x1="356.91" y1="121.03" x2="356.91" y2="107.33" gradientTransform="translate(0.49 93.99) rotate(1.01)" xlink:href="#Áåçûìÿííûé_ãðàäèåíò_29"/><linearGradient id="Áåçûìÿííûé_ãðàäèåíò_29-5" x1="387.39" y1="374.24" x2="270.37" y2="364.74" gradientTransform="translate(15.73 53.44) rotate(2.5)" xlink:href="#Áåçûìÿííûé_ãðàäèåíò_29"/><linearGradient id="Áåçûìÿííûé_ãðàäèåíò_440" x1="372.33" y1="192.39" x2="370.78" y2="208.68" gradientTransform="translate(15.73 53.44) rotate(2.5)" gradientUnits="userSpaceOnUse"><stop offset="0" stop-color="#ffb9a4"/><stop offset="1" stop-color="#ff9e78"/></linearGradient><linearGradient id="Áåçûìÿííûé_ãðàäèåíò_440-2" x1="328.03" y1="192.13" x2="315.37" y2="203.76" xlink:href="#Áåçûìÿííûé_ãðàäèåíò_440"/><linearGradient id="Áåçûìÿííûé_ãðàäèåíò_440-3" x1="199.46" y1="328.78" x2="318.01" y2="379.05" xlink:href="#Áåçûìÿííûé_ãðàäèåíò_440"/><linearGradient id="Áåçûìÿííûé_ãðàäèåíò_440-4" x1="452.92" y1="496.77" x2="442.82" y2="556.63" gradientTransform="matrix(1, 0, 0, 1, 0, 0)" xlink:href="#Áåçûìÿííûé_ãðàäèåíò_440"/></defs><g id="Layer_2" data-name="Layer 2"><g id="Ñëîé_1" data-name="Ñëîé 1"><path class="cls-1" d="M634.54,1437.19s-142,27.43-317.27,27.43S0,1437.19,0,1437.19s142.05-27.43,317.27-27.43S634.54,1437.19,634.54,1437.19Z"/><path class="cls-2" d="M171.07,1373.07c-1,.53-80.88,44.11-81.77,57.83,0,.56-2.28,1-2.62,1.4l-.12,5.39c42.77,14.38,128.85-2.61,128.85-2.61s.2,3.43,1.06,3.52c17.05,1.74,46-2.19,48-3.8.4-.34,1-5,.84-9.1,0-.39-1.12-1.31-1.12-1.31.93-16.17.9-47.38,1-48.11C268.05,1362.24,177.63,1348.87,171.07,1373.07Z"/><path class="cls-2" d="M459.43,1373.07c1.05.53,80.88,44.11,81.77,57.83,0,.56,2.28,1,2.62,1.4l.12,5.39c-42.77,14.38-128.85-2.61-128.85-2.61s-.2,3.43-1.06,3.52c-17,1.74-46-2.19-48-3.8-.4-.34-1-5-.83-9.1,0-.39,1.11-1.31,1.11-1.31-.93-16.17-.9-47.38-1-48.11C362.45,1362.24,452.87,1348.87,459.43,1373.07Z"/><path class="cls-3" d="M271.48,1396.54c28.47-315.35,89.28-566.42,91.66-636.7l-143.55-15.9c-9.91,110.46-49.22,395.45-66,639,0,0,13.62-7.76,40.9-6.34,26,1.35,55.68,17.51,70.36,22Z"/><path class="cls-3" d="M360,1396.46c-9.72-317.28,8.94-566.34,6.56-636.62l143.55-15.9C520,854.4,477.53,1147.78,477,1383c0,0-14-7.6-40.82-6.4-34.23,1.52-55.92,17.51-70.6,22Z"/><g class="cls-4"><path d="M372.06,802.93a28.42,28.42,0,0,1,1.17-9.35l-3.92.58s.12,3.49.33,10.09C370.45,803.81,371.25,803.35,372.06,802.93Z"/></g><path class="cls-3" d="M220.89,712.76c-4.22,80.14-5.39,117.74-5.39,117.74s83.48,6.86,174,6.12c58.83-.48,109,3.89,112.87-20C505.83,795,509,769.87,511,715.05l-6.51-6.79c-14.73,1.51-63.19,7.8-141.68,6.82-86.29-1.08-124.57-6.67-135.48-7.61C225.72,707.33,221,711.11,220.89,712.76Z"/><path class="cls-5" d="M338.09,829.66l-1,6.36c23.9.81,54.84.17,54.84.17l-.13-6.54Z"/><path class="cls-5" d="M213.52,809.77c6.75-4.41,22.71-14.28,30.88-21.8q-1.38-1.94-2.77-3.85c-4.7,3.48-22.34,14.45-27.39,17.94Z"/><path class="cls-6" d="M362.85,732.41c-75.31,0-122-3.35-142.54-5.27-2.51,0-4.09,27.14-1.24,28.4,21.91,2,68.61,5.24,143.78,5.24,65.77,0,121.07-3.81,148.14-5.81,2.37.2,1.5-27.87-1.08-27.87C484.71,729,430.88,732.41,362.85,732.41Z"/><polygon class="cls-3" points="296.24 770.54 279.11 769.65 282.37 722.26 299.5 723.14 296.24 770.54"/><polygon class="cls-3" points="438.46 770.54 421.33 769.65 424.59 722.26 441.73 723.14 438.46 770.54"/><path class="cls-5" d="M511.44,800.32l-27.19-16.67c-1.05,2.51-.71,1.71-1.71,4.25,7.72,6.61,20.61,14.86,28.74,19.88C511.3,805.38,511.44,802.65,511.44,800.32Z"/><path class="cls-7" d="M500.18,840.3s-14.05,226.42-19.25,231.28-32.2,25-38.89,24.3c-10.84-1.06-60.82-24.19-63.06-31.65s2.41-213.7,2.08-219.38C380.82,840.79,500.18,840.3,500.18,840.3Z"/><path class="cls-3" d="M357.52,1275.41c-.18,0-.84,47.83-1.24,53.46-.26,3.53-2.27,6.65-3.86,9.81s-2.82,6.91-1.46,10.17c1.14,2.73,3.89,4.57,4.87,7.36,1.29,3.68-.8,7.18-1.05,10.81-.28,4,.88,8.44,1.13,12.57.13,2-.49,15,1.62,16.19s8.05,2.78,8.05,2.78c17.12-3.65,46.33-15.92,67.94-21A63.26,63.26,0,0,1,477,1383c.05-3.64,5.37-12.27,5.78-13.83,2.23-8.56-7.13-9.41-4.8-13.9,7.59-14.6-1.88-18.31-.39-25,.76-3.43,4.87-6.72,4.92-10.24,0-2.89-1.88-8.07-2.63-10.87C478,1302,480,1267,480,1267,472.55,1267.46,357.52,1275.41,357.52,1275.41Z"/><path class="cls-3" d="M284.75,1271s-6.68,65.54-5.08,68.7,2.82,6.91,1.45,10.17c-1.14,2.73-3.89,4.57-4.86,7.36-1.3,3.68.79,7.18,1,10.81.28,4-.87,8.44-1.13,12.57-.13,2-1.61,16.19-1.61,16.19l-9.65,2.56c-30.94,0-43.83-16.26-63.68-21.34-24.45-6.26-47.62,4.91-47.62,4.91.43-6.22.11-24.62-.53-26.1-1-2.29-2.44-4.46-2.68-7-.66-6.84,7.94-12.37,6.45-19.09-.76-3.43-4.08-6.06-4.14-9.58,0-2.9,2.15-5.26,3.57-7.79,2.75-4.87,7.11-52,7.11-52C170.41,1263.19,284.75,1271,284.75,1271Z"/><path class="cls-8" d="M214.24,1428.26c-22.83,2.8-48.71,6-70.35,6.34-32.86.56-49-2.58-54.55-4,0,.11,0,.22,0,.32,0,.56-2.28,1-2.62,1.4v.15c2.82.93,16.45,4.74,49.46,4.74q3.74,0,7.79-.06c21.78-.38,47.73-3.56,70.62-6.37,22.14-2.72,41.29-5.07,50.75-4.16q0-.45,0-.9c0-.39-1.11-1.31-1.11-1.31l0-.4C254.07,1423.37,235.53,1425.64,214.24,1428.26Z"/><path class="cls-8" d="M416.24,1428.26c22.83,2.8,48.7,6,70.34,6.34,32.85.56,49-2.59,54.59-4,0,.1,0,.22,0,.32,0,.56,2.28,1,2.62,1.4v.14c-2.82.93-16.49,4.75-49.5,4.75q-3.72,0-7.79-.06c-21.77-.38-47.71-3.56-70.6-6.37-22.13-2.72-41.28-5.07-50.74-4.16l0-.9c0-.39,1.11-1.31,1.11-1.31s0-.27,0-.4C376.42,1423.37,395,1425.64,416.24,1428.26Z"/><path class="cls-9" d="M186.81,1416.17c-28.31-16.8-53.82-15.12-72-9.15-9,6.15-16.79,12.13-21.34,17,6.31,1.49,17.64,3.12,37.7,3.62C171.06,1428.61,193.74,1420.28,186.81,1416.17Z"/><path class="cls-10" d="M537.11,1424.1c-4.61-4.95-12.67-11.1-21.91-17.4-18.09-5.7-43.18-7-71,9.47-6.93,4.11,15.75,12.44,55.62,11.45C519.46,1427.13,530.71,1425.56,537.11,1424.1Z"/><path class="cls-11" d="M222.17,836.56s-32,211-27.26,215.82,34.24,31.32,41.35,31c11.52-.59,63.24-26.62,66.73-33.61s37.73-205.93,33.45-206S222.17,836.56,222.17,836.56Z"/><path class="cls-12" d="M391.24,732.27s-52-.54-52,.46c0,0-.45,27,0,27.45s52.31.42,52.31.42,0,4.41-.88,5c-3.18,1.93-56.82,1.35-58.3,0s-.5-36.53.64-38.45,56-1.31,57.07-.51S391.24,732.27,391.24,732.27Z"/><path class="cls-13" d="M334.43,742.14s-.65,6.21-.24,6.63,13,0,13.31-.24.46-5.34.12-6.15C347.38,741.79,334.9,741.72,334.43,742.14Z"/><path class="cls-14" d="M431.93,311.66a250.36,250.36,0,0,0-26.05-4.15L407,250.17c.47-17.47-18.43-31.46-42.43-31.08h0c-23,.38-42.71,15-43.18,32.47L320,308.78A229.29,229.29,0,0,0,291.22,315l.75,52.63H432.61Z"/><path class="cls-15" d="M564.81,517.49c-.24-2.33-14.11-13.09-14.12-15.46-.4-63.47,2.24-132-14.55-150.88-21.52-24.23-81.52-35.46-105.37-39.91l-.24-.9c-6.63-19.91-24.21-19-24.21-19C402,323.46,363.73,333,363.73,333c-34.88-12.6-43.16-34.88-43.16-34.88-13.76.11-22,10.57-24.77,14.77-40.55,2.31-77.05,19-91.47,35.06-29.73,33-15.88,194.41-9.9,237.67.73,3.5,10.78,11.18,23.51,18.6-2.91,36-4.79,67.91-3.09,84.94.68,6.74,9.81,14.72,10.93,16.9.74,1.43,2.61,2.75,5.43,4H503a2.42,2.42,0,0,0,1-1.71c.1-3,11.12-11.44,11.55-17.32,2.7-36.55,3.61-3.57,1.82-78.33,22.33-4.21,35.19-17.48,41.64-25.07C563.89,581.84,567.58,545.24,564.81,517.49Z"/><path class="cls-16" d="M565.68,532.24l-6.11,28.27-25.48,8.18L463.31,523.4l15.52-125.82H471.4L453.2,525.4l12.94,9.75s-145.2,14.55-146.67,14.38-41.4-56.06-41.4-56.06-10.93-95.87-12.45-95.87-6.16,2.83-6.16,2.83l6.16,80.89-9.4,22.24,54.18,67.95s-35.61,28.71-38,29.92-53.43-8.92-61.11-15.39c-5.48-4.61-15.09-21.14-20.18-30.27,1.18,12.4,2.38,22.71,3.36,29.82.73,3.5,10.78,11.18,23.51,18.6-2.91,36-4.79,67.91-3.09,84.94.68,6.74,12.07,19,13.19,21.17,0,0,70.27,8.23,136.92,8.45,69.57.23,137.81-6.84,137.81-6.84.1-2.95,12.35-15,12.78-20.93,2.7-36.55,3.61-3.57,1.82-78.33,22.33-4.21,35.19-17.48,41.64-25.07C563.06,582.81,566.28,556.8,565.68,532.24ZM479.81,676.11c0,1.06-103.52,15.49-112.32,16.55s-131.34-20.42-132-22.54,3.87-43.31,3.87-43.31c35.56,1.76,123.27-16.5,123.27-16.5l120,17.56S479.81,675.05,479.81,676.11Z"/><path class="cls-17" d="M431,311.29c-4.67,10.1-18.55,39.2-24.75,42.65-5.95,3.32-28.75-14.71-38-22.4-2.78,1-4.52,1.43-4.52,1.43-1.45-.52-2.84-1.07-4.2-1.62-9.57,6.26-31,19.62-39.22,19.12-9.19-.55-20.62-29.11-24.51-37.61-1.62.11-4.19.29-5.8.44,4,9.91,17.1,43.47,24.22,48.13,8.38,5.48,49.08-24.59,49.08-24.59s34.06,30.3,44.13,29c8.64-1.11,23.95-42,28.15-53.68C434,311.85,432.47,311.56,431,311.29Z"/><path class="cls-18" d="M368.18,713l-2.1-379.41h-5.25s3.06,312,1.14,379.44Z"/><path class="cls-19" d="M198.48,562.69c.25.78,14.74,20.95,15.51,21.47s60.53-44.49,60.53-44.49,11-25,11-26.48-16.37-15.9-30.25-12.54-52.43,27.64-54.24,29.46S198.48,562.69,198.48,562.69Z"/><path class="cls-20" d="M564.81,517.49c-.23-2.28-13.46-12.59-14.09-15.27-8.56-2.87-28-8.13-34.2-8.33-7.61-.25-45.67,11.29-47.64,12.28s-5.4,14.48-5.4,14.48l73.18,45.68s20.87-5.16,23.44-8.24c1.38-1.65,3.72-14,5.6-25.15C565.59,527.66,565.3,522.44,564.81,517.49Z"/><path class="cls-21" d="M274.44,517.81l-8.82,67.24,63.23-7.13s139.69,32.68,169,29.72,49.08-41.87,49.44-52.38c.38-11-27.55-37.26-42.91-41.3s-178.8,9.16-178.8,9.16Z"/><path class="cls-22" d="M546,554.64c0,.44-14.77,42.19-52.67,43.67s-161.67-35.54-161.67-35.54L310,566.33l-15.93,2.94s.92,6.28,1.9,12.36l32.86-3.71s139.69,32.68,169,29.72,49.08-41.87,49.44-52.38c.07-2-.84-4.62-2.48-7.49C545.29,550.4,546,554.35,546,554.64Z"/><ellipse class="cls-23" cx="281.66" cy="196.14" rx="19.12" ry="27.97" transform="matrix(0.97, -0.23, 0.23, 0.97, -37.78, 70.59)"/><path class="cls-24" d="M336.18,37.15s0-.17,0-.45C336.16,37,336.18,37.15,336.18,37.15Z"/><path class="cls-25" d="M445,86.76c-4.31-35-101.84-55.27-132.61-8.61C302.31,100,290.26,141,283.67,181.85c0-.44.05-.7.05-.7s-31.81,106,65.28,115.19c93.43,8.89,110.46-36.68,108.81-100.72h0C459.32,159.7,451.28,113.8,445,86.76Z"/><g class="cls-26"><ellipse class="cls-27" cx="410.66" cy="212.28" rx="39.67" ry="34.67" transform="translate(103.49 557.75) rotate(-75.69)"/><ellipse class="cls-28" cx="410.66" cy="212.28" rx="39.42" ry="34.45" transform="translate(103.49 557.75) rotate(-75.69)"/><ellipse class="cls-29" cx="410.66" cy="212.28" rx="39.16" ry="34.23" transform="translate(103.49 557.75) rotate(-75.69)"/><ellipse class="cls-30" cx="410.66" cy="212.28" rx="38.91" ry="34" transform="translate(103.49 557.75) rotate(-75.69)"/><ellipse class="cls-31" cx="410.66" cy="212.28" rx="38.66" ry="33.78" transform="translate(103.49 557.75) rotate(-75.69)"/><ellipse class="cls-32" cx="410.66" cy="212.28" rx="38.4" ry="33.56" transform="translate(103.49 557.75) rotate(-75.69)"/><ellipse class="cls-33" cx="410.66" cy="212.28" rx="38.15" ry="33.34" transform="translate(103.49 557.75) rotate(-75.69)"/><ellipse class="cls-34" cx="410.66" cy="212.28" rx="37.89" ry="33.12" transform="translate(103.49 557.75) rotate(-75.69)"/><ellipse class="cls-35" cx="410.66" cy="212.28" rx="37.64" ry="32.89" transform="translate(103.49 557.75) rotate(-75.69)"/><ellipse class="cls-36" cx="410.66" cy="212.28" rx="37.38" ry="32.67" transform="translate(103.49 557.75) rotate(-75.69)"/><ellipse class="cls-37" cx="410.66" cy="212.28" rx="37.13" ry="32.45" transform="translate(103.49 557.75) rotate(-75.69)"/><ellipse class="cls-38" cx="410.66" cy="212.28" rx="36.88" ry="32.23" transform="translate(103.49 557.74) rotate(-75.69)"/><ellipse class="cls-39" cx="410.66" cy="212.28" rx="36.62" ry="32" transform="translate(103.49 557.75) rotate(-75.69)"/><ellipse class="cls-40" cx="410.66" cy="212.28" rx="36.37" ry="31.78" transform="translate(103.49 557.74) rotate(-75.69)"/><ellipse class="cls-41" cx="410.66" cy="212.28" rx="36.11" ry="31.56" transform="translate(103.49 557.75) rotate(-75.69)"/><ellipse class="cls-42" cx="410.66" cy="212.28" rx="35.86" ry="31.34" transform="translate(103.49 557.74) rotate(-75.69)"/><ellipse class="cls-43" cx="410.66" cy="212.28" rx="35.6" ry="31.12" transform="translate(103.49 557.75) rotate(-75.69)"/><ellipse class="cls-44" cx="410.66" cy="212.28" rx="35.35" ry="30.89" transform="translate(103.49 557.75) rotate(-75.69)"/><ellipse class="cls-45" cx="410.66" cy="212.28" rx="35.1" ry="30.67" transform="translate(103.49 557.75) rotate(-75.69)"/><ellipse class="cls-46" cx="410.66" cy="212.28" rx="34.84" ry="30.45" transform="translate(103.49 557.75) rotate(-75.69)"/><ellipse class="cls-47" cx="410.66" cy="212.28" rx="34.59" ry="30.23" transform="translate(103.49 557.75) rotate(-75.69)"/><ellipse class="cls-48" cx="410.66" cy="212.28" rx="34.33" ry="30" transform="translate(103.49 557.74) rotate(-75.69)"/><ellipse class="cls-49" cx="410.66" cy="212.28" rx="34.08" ry="29.78" transform="translate(103.49 557.75) rotate(-75.69)"/><ellipse class="cls-50" cx="410.66" cy="212.28" rx="33.82" ry="29.56" transform="translate(103.49 557.75) rotate(-75.69)"/><ellipse class="cls-51" cx="410.66" cy="212.28" rx="33.57" ry="29.34" transform="translate(103.49 557.75) rotate(-75.69)"/><ellipse class="cls-52" cx="410.66" cy="212.28" rx="33.32" ry="29.12" transform="translate(103.49 557.75) rotate(-75.69)"/><ellipse class="cls-53" cx="410.66" cy="212.28" rx="33.06" ry="28.89" transform="translate(103.49 557.75) rotate(-75.69)"/><ellipse class="cls-54" cx="410.66" cy="212.28" rx="32.81" ry="28.67" transform="translate(103.49 557.74) rotate(-75.69)"/><ellipse class="cls-55" cx="410.66" cy="212.28" rx="32.55" ry="28.45" transform="translate(103.49 557.75) rotate(-75.69)"/><ellipse class="cls-56" cx="410.66" cy="212.28" rx="32.3" ry="28.23" transform="translate(103.49 557.74) rotate(-75.69)"/><ellipse class="cls-57" cx="410.66" cy="212.28" rx="32.04" ry="28" transform="translate(103.49 557.75) rotate(-75.69)"/><ellipse class="cls-58" cx="410.66" cy="212.28" rx="31.79" ry="27.78" transform="translate(103.49 557.75) rotate(-75.69)"/><ellipse class="cls-59" cx="410.66" cy="212.28" rx="31.53" ry="27.56" transform="translate(103.49 557.75) rotate(-75.69)"/><ellipse class="cls-60" cx="410.66" cy="212.28" rx="31.28" ry="27.34" transform="translate(103.49 557.74) rotate(-75.69)"/><ellipse class="cls-61" cx="410.66" cy="212.28" rx="31.03" ry="27.11" transform="translate(103.49 557.75) rotate(-75.69)"/><ellipse class="cls-62" cx="410.66" cy="212.28" rx="30.77" ry="26.89" transform="translate(103.49 557.75) rotate(-75.69)"/><ellipse class="cls-63" cx="410.66" cy="212.28" rx="30.52" ry="26.67" transform="translate(103.49 557.75) rotate(-75.69)"/><ellipse class="cls-64" cx="410.66" cy="212.28" rx="30.26" ry="26.45" transform="translate(103.49 557.74) rotate(-75.69)"/><ellipse class="cls-65" cx="410.66" cy="212.28" rx="30.01" ry="26.23" transform="translate(103.49 557.74) rotate(-75.69)"/><ellipse class="cls-66" cx="410.66" cy="212.28" rx="29.75" ry="26" transform="translate(103.49 557.74) rotate(-75.69)"/><ellipse class="cls-66" cx="410.66" cy="212.28" rx="29.5" ry="25.78" transform="translate(103.49 557.75) rotate(-75.69)"/><ellipse class="cls-67" cx="410.66" cy="212.28" rx="29.25" ry="25.56" transform="translate(103.49 557.74) rotate(-75.69)"/><ellipse class="cls-68" cx="410.66" cy="212.28" rx="28.99" ry="25.34" transform="translate(103.49 557.75) rotate(-75.69)"/><ellipse class="cls-69" cx="410.66" cy="212.28" rx="28.74" ry="25.11" transform="translate(103.49 557.75) rotate(-75.69)"/><ellipse class="cls-70" cx="410.66" cy="212.28" rx="28.48" ry="24.89" transform="translate(103.49 557.75) rotate(-75.69)"/><ellipse class="cls-71" cx="410.66" cy="212.28" rx="28.23" ry="24.67" transform="translate(103.5 557.75) rotate(-75.69)"/><ellipse class="cls-72" cx="410.66" cy="212.28" rx="27.97" ry="24.45" transform="translate(103.49 557.74) rotate(-75.69)"/><ellipse class="cls-73" cx="410.66" cy="212.28" rx="27.72" ry="24.23" transform="translate(103.49 557.75) rotate(-75.69)"/><ellipse class="cls-74" cx="410.66" cy="212.28" rx="27.47" ry="24" transform="translate(103.49 557.74) rotate(-75.69)"/><ellipse class="cls-75" cx="410.66" cy="212.28" rx="27.21" ry="23.78" transform="translate(103.49 557.75) rotate(-75.69)"/><ellipse class="cls-76" cx="410.66" cy="212.28" rx="26.96" ry="23.56" transform="translate(103.49 557.75) rotate(-75.69)"/><ellipse class="cls-77" cx="410.66" cy="212.28" rx="26.7" ry="23.34" transform="translate(103.49 557.75) rotate(-75.69)"/><ellipse class="cls-78" cx="410.66" cy="212.28" rx="26.45" ry="23.11" transform="translate(103.49 557.75) rotate(-75.69)"/><ellipse class="cls-79" cx="410.66" cy="212.28" rx="26.19" ry="22.89" transform="translate(103.49 557.75) rotate(-75.69)"/><ellipse class="cls-80" cx="410.66" cy="212.28" rx="25.94" ry="22.67" transform="translate(103.49 557.75) rotate(-75.69)"/><ellipse class="cls-81" cx="410.66" cy="212.28" rx="25.69" ry="22.45" transform="translate(103.49 557.75) rotate(-75.69)"/><ellipse class="cls-82" cx="410.66" cy="212.28" rx="25.43" ry="22.23" transform="translate(103.49 557.74) rotate(-75.69)"/><ellipse class="cls-83" cx="410.66" cy="212.28" rx="25.18" ry="22" transform="translate(103.49 557.75) rotate(-75.69)"/><ellipse class="cls-84" cx="410.66" cy="212.28" rx="24.92" ry="21.78" transform="translate(103.49 557.75) rotate(-75.69)"/><ellipse class="cls-85" cx="410.66" cy="212.28" rx="24.67" ry="21.56" transform="translate(103.49 557.75) rotate(-75.69)"/><ellipse class="cls-86" cx="410.66" cy="212.28" rx="24.41" ry="21.34" transform="translate(103.49 557.75) rotate(-75.69)"/><ellipse class="cls-87" cx="410.66" cy="212.28" rx="24.16" ry="21.11" transform="translate(103.49 557.75) rotate(-75.69)"/><ellipse class="cls-88" cx="410.66" cy="212.28" rx="23.91" ry="20.89" transform="translate(103.49 557.75) rotate(-75.69)"/><ellipse class="cls-89" cx="410.66" cy="212.28" rx="23.65" ry="20.67" transform="translate(103.49 557.75) rotate(-75.69)"/><ellipse class="cls-90" cx="410.66" cy="212.28" rx="23.4" ry="20.45" transform="translate(103.49 557.74) rotate(-75.69)"/><ellipse class="cls-91" cx="410.66" cy="212.28" rx="23.14" ry="20.23" transform="translate(103.49 557.75) rotate(-75.69)"/><ellipse class="cls-92" cx="410.66" cy="212.28" rx="22.89" ry="20" transform="translate(103.49 557.74) rotate(-75.69)"/><ellipse class="cls-93" cx="410.66" cy="212.28" rx="22.63" ry="19.78" transform="translate(103.49 557.75) rotate(-75.69)"/><ellipse class="cls-94" cx="410.66" cy="212.28" rx="22.38" ry="19.56" transform="translate(103.49 557.74) rotate(-75.69)"/><ellipse class="cls-95" cx="410.66" cy="212.28" rx="22.13" ry="19.34" transform="translate(103.5 557.75) rotate(-75.69)"/><ellipse class="cls-96" cx="410.66" cy="212.28" rx="21.87" ry="19.11" transform="translate(103.49 557.75) rotate(-75.69)"/><ellipse class="cls-97" cx="410.66" cy="212.28" rx="21.62" ry="18.89" transform="translate(103.49 557.75) rotate(-75.69)"/><ellipse class="cls-98" cx="410.66" cy="212.28" rx="21.36" ry="18.67" transform="translate(103.49 557.74) rotate(-75.69)"/><ellipse class="cls-99" cx="410.66" cy="212.28" rx="21.11" ry="18.45" transform="translate(103.49 557.74) rotate(-75.69)"/><ellipse class="cls-100" cx="410.66" cy="212.28" rx="20.85" ry="18.22" transform="translate(103.49 557.74) rotate(-75.69)"/><ellipse class="cls-101" cx="410.66" cy="212.28" rx="20.6" ry="18" transform="translate(103.49 557.75) rotate(-75.69)"/><ellipse class="cls-102" cx="410.66" cy="212.28" rx="20.35" ry="17.78" transform="translate(103.49 557.74) rotate(-75.69)"/><ellipse class="cls-103" cx="410.66" cy="212.28" rx="20.09" ry="17.56" transform="translate(103.49 557.75) rotate(-75.69)"/><ellipse class="cls-104" cx="410.66" cy="212.28" rx="19.84" ry="17.34" transform="translate(103.49 557.74) rotate(-75.69)"/></g><ellipse class="cls-27" cx="469.53" cy="205.01" rx="27.97" ry="19.12" transform="translate(120.05 579.65) rotate(-70.58)"/><path class="cls-105" d="M478.78,213.45c-9.89,5.78-20.08,3.37-27.26-3A88.67,88.67,0,0,1,450,224.61h.18l-1.95,37c4.44-9.16,7-19.93,8.27-32a13.91,13.91,0,0,0,2.88,1.64c9.8,4,22.15-4.54,27.6-19a39.26,39.26,0,0,0,2.45-11.06A24.61,24.61,0,0,1,478.78,213.45Z"/><path class="cls-106" d="M461.89,204.77l9,1.67c.49-14.35,11.32-18.69,11.32-18.69C465.23,180.81,461.89,204.77,461.89,204.77Z"/><path class="cls-107" d="M401.35,229.3a.37.37,0,0,0,0,.08A.28.28,0,0,0,401.35,229.3Z"/><path class="cls-108" d="M467.67,51.86C462.06,41.1,454.32,39,445.58,40.65c4.47-2.74,3.27-6.94,3.27-6.94a9.6,9.6,0,0,0-8.29,2.39c6-6.13,2.7-15.3,2.7-15.3-13.94,5.41-11.4,12.5-11.4,12.5-5-11.69-21.77-15.91-21.77-15.91a17.76,17.76,0,0,0,.85,4.9C383.88,2.83,347.68,0,347.68,0a13.43,13.43,0,0,0-2,8.74,265.61,265.61,0,0,0-40.53,0c-6,26.89,1,43.25,8.95,52.72,2.88,3.47,7,9.26,19.16,15.16a60.59,60.59,0,0,0,33.94,13c18.43,1.09,44.53-11.34,44.53-11.34,18.43.28,41.81,58.31,42.49,104.32.15,10.52,9.75-1.25,9.75-1.25a242.28,242.28,0,0,0,1.26-27.87C465.3,153.41,482.41,80.13,467.67,51.86Z"/><path class="cls-109" d="M306.34,48.08c-27.89,7.31-22.12,108.08-22.15,124.58a24.31,24.31,0,0,1-.33,3.34c-.09.61,2.15.53,2-.09a11.89,11.89,0,0,1,.21-3.24c5-30.34,31.82-95.86,47.12-96C333.22,76.62,318.91,67.28,306.34,48.08Z"/><path class="cls-110" d="M421.85,44.76s.16,0,0,0Z"/><g class="cls-26"><ellipse class="cls-27" cx="320.53" cy="203.28" rx="33.68" ry="40.72" transform="translate(-22.53 40.88) rotate(-7.05)"/><ellipse class="cls-28" cx="320.53" cy="203.28" rx="33.46" ry="40.46" transform="translate(-22.53 40.88) rotate(-7.05)"/><ellipse class="cls-29" cx="320.53" cy="203.28" rx="33.25" ry="40.2" transform="translate(-22.53 40.88) rotate(-7.05)"/><ellipse class="cls-30" cx="320.53" cy="203.28" rx="33.03" ry="39.94" transform="translate(-22.53 40.88) rotate(-7.05)"/><ellipse class="cls-31" cx="320.53" cy="203.28" rx="32.82" ry="39.68" transform="translate(-22.53 40.88) rotate(-7.05)"/><ellipse class="cls-32" cx="320.53" cy="203.28" rx="32.6" ry="39.42" transform="translate(-22.53 40.88) rotate(-7.05)"/><ellipse class="cls-33" cx="320.53" cy="203.28" rx="32.38" ry="39.15" transform="translate(-22.53 40.88) rotate(-7.05)"/><ellipse class="cls-34" cx="320.53" cy="203.28" rx="32.17" ry="38.89" transform="translate(-22.53 40.88) rotate(-7.05)"/><ellipse class="cls-35" cx="320.53" cy="203.28" rx="31.95" ry="38.63" transform="translate(-22.53 40.88) rotate(-7.05)"/><ellipse class="cls-36" cx="320.53" cy="203.28" rx="31.74" ry="38.37" transform="translate(-22.53 40.88) rotate(-7.05)"/><ellipse class="cls-37" cx="320.53" cy="203.28" rx="31.52" ry="38.11" transform="translate(-22.53 40.88) rotate(-7.05)"/><ellipse class="cls-38" cx="320.53" cy="203.28" rx="31.3" ry="37.85" transform="translate(-22.53 40.88) rotate(-7.05)"/><ellipse class="cls-39" cx="320.53" cy="203.28" rx="31.09" ry="37.59" transform="translate(-22.53 40.88) rotate(-7.05)"/><ellipse class="cls-40" cx="320.53" cy="203.28" rx="30.87" ry="37.33" transform="translate(-22.53 40.88) rotate(-7.05)"/><ellipse class="cls-41" cx="320.53" cy="203.28" rx="30.66" ry="37.07" transform="translate(-22.53 40.88) rotate(-7.05)"/><ellipse class="cls-42" cx="320.53" cy="203.28" rx="30.44" ry="36.81" transform="translate(-22.53 40.88) rotate(-7.05)"/><ellipse class="cls-43" cx="320.53" cy="203.28" rx="30.23" ry="36.54" transform="translate(-22.53 40.88) rotate(-7.05)"/><ellipse class="cls-44" cx="320.53" cy="203.28" rx="30.01" ry="36.28" transform="translate(-22.53 40.88) rotate(-7.05)"/><ellipse class="cls-45" cx="320.53" cy="203.28" rx="29.79" ry="36.02" transform="translate(-22.53 40.88) rotate(-7.05)"/><ellipse class="cls-46" cx="320.53" cy="203.28" rx="29.58" ry="35.76" transform="translate(-22.53 40.88) rotate(-7.05)"/><ellipse class="cls-47" cx="320.53" cy="203.28" rx="29.36" ry="35.5" transform="translate(-22.53 40.88) rotate(-7.05)"/><ellipse class="cls-48" cx="320.53" cy="203.28" rx="29.15" ry="35.24" transform="translate(-22.53 40.88) rotate(-7.05)"/><ellipse class="cls-49" cx="320.53" cy="203.28" rx="28.93" ry="34.98" transform="translate(-22.53 40.88) rotate(-7.05)"/><ellipse class="cls-50" cx="320.53" cy="203.28" rx="28.71" ry="34.72" transform="translate(-22.53 40.88) rotate(-7.05)"/><ellipse class="cls-51" cx="320.53" cy="203.28" rx="28.5" ry="34.46" transform="translate(-22.53 40.88) rotate(-7.05)"/><ellipse class="cls-52" cx="320.53" cy="203.28" rx="28.28" ry="34.2" transform="translate(-22.53 40.88) rotate(-7.05)"/><ellipse class="cls-53" cx="320.53" cy="203.28" rx="28.07" ry="33.93" transform="translate(-22.53 40.88) rotate(-7.05)"/><ellipse class="cls-54" cx="320.53" cy="203.28" rx="27.85" ry="33.67" transform="translate(-22.53 40.88) rotate(-7.05)"/><ellipse class="cls-55" cx="320.53" cy="203.28" rx="27.63" ry="33.41" transform="translate(-22.53 40.88) rotate(-7.05)"/><ellipse class="cls-56" cx="320.53" cy="203.28" rx="27.42" ry="33.15" transform="translate(-22.53 40.88) rotate(-7.05)"/><ellipse class="cls-57" cx="320.53" cy="203.28" rx="27.2" ry="32.89" transform="translate(-22.53 40.88) rotate(-7.05)"/><ellipse class="cls-58" cx="320.53" cy="203.28" rx="26.99" ry="32.63" transform="translate(-22.53 40.88) rotate(-7.05)"/><ellipse class="cls-59" cx="320.53" cy="203.28" rx="26.77" ry="32.37" transform="translate(-22.53 40.88) rotate(-7.05)"/><ellipse class="cls-60" cx="320.53" cy="203.28" rx="26.56" ry="32.11" transform="translate(-22.53 40.88) rotate(-7.05)"/><ellipse class="cls-61" cx="320.53" cy="203.28" rx="26.34" ry="31.85" transform="translate(-22.53 40.88) rotate(-7.05)"/><ellipse class="cls-62" cx="320.53" cy="203.28" rx="26.12" ry="31.58" transform="translate(-22.53 40.88) rotate(-7.05)"/><ellipse class="cls-63" cx="320.53" cy="203.28" rx="25.91" ry="31.32" transform="translate(-22.53 40.88) rotate(-7.05)"/><ellipse class="cls-64" cx="320.53" cy="203.28" rx="25.69" ry="31.06" transform="translate(-22.53 40.88) rotate(-7.05)"/><ellipse class="cls-65" cx="320.53" cy="203.28" rx="25.48" ry="30.8" transform="translate(-22.53 40.88) rotate(-7.05)"/><ellipse class="cls-66" cx="320.53" cy="203.28" rx="25.26" ry="30.54" transform="translate(-22.53 40.88) rotate(-7.05)"/><ellipse class="cls-66" cx="320.53" cy="203.28" rx="25.04" ry="30.28" transform="translate(-22.53 40.88) rotate(-7.05)"/><ellipse class="cls-67" cx="320.53" cy="203.28" rx="24.83" ry="30.02" transform="translate(-22.53 40.88) rotate(-7.05)"/><ellipse class="cls-68" cx="320.53" cy="203.28" rx="24.61" ry="29.76" transform="translate(-22.53 40.88) rotate(-7.05)"/><ellipse class="cls-69" cx="320.53" cy="203.28" rx="24.4" ry="29.5" transform="translate(-22.53 40.88) rotate(-7.05)"/><ellipse class="cls-70" cx="320.53" cy="203.28" rx="24.18" ry="29.24" transform="translate(-22.53 40.88) rotate(-7.05)"/><ellipse class="cls-71" cx="320.53" cy="203.28" rx="23.96" ry="28.97" transform="translate(-22.53 40.88) rotate(-7.05)"/><ellipse class="cls-72" cx="320.53" cy="203.28" rx="23.75" ry="28.71" transform="translate(-22.53 40.88) rotate(-7.05)"/><ellipse class="cls-73" cx="320.53" cy="203.28" rx="23.53" ry="28.45" transform="translate(-22.52 40.87) rotate(-7.05)"/><ellipse class="cls-74" cx="320.53" cy="203.28" rx="23.32" ry="28.19" transform="translate(-22.53 40.88) rotate(-7.05)"/><ellipse class="cls-75" cx="320.53" cy="203.28" rx="23.1" ry="27.93" transform="translate(-22.53 40.88) rotate(-7.05)"/><ellipse class="cls-76" cx="320.53" cy="203.28" rx="22.89" ry="27.67" transform="translate(-22.53 40.88) rotate(-7.05)"/><ellipse class="cls-77" cx="320.53" cy="203.28" rx="22.67" ry="27.41" transform="translate(-22.53 40.88) rotate(-7.05)"/><ellipse class="cls-78" cx="320.53" cy="203.28" rx="22.45" ry="27.15" transform="translate(-22.53 40.88) rotate(-7.05)"/><ellipse class="cls-79" cx="320.53" cy="203.28" rx="22.24" ry="26.89" transform="translate(-22.53 40.88) rotate(-7.05)"/><ellipse class="cls-80" cx="320.53" cy="203.28" rx="22.02" ry="26.63" transform="translate(-22.53 40.88) rotate(-7.05)"/><ellipse class="cls-81" cx="320.53" cy="203.28" rx="21.81" ry="26.36" transform="translate(-22.53 40.88) rotate(-7.05)"/><ellipse class="cls-82" cx="320.53" cy="203.28" rx="21.59" ry="26.1" transform="translate(-22.53 40.88) rotate(-7.05)"/><ellipse class="cls-83" cx="320.53" cy="203.28" rx="21.37" ry="25.84" transform="translate(-22.53 40.88) rotate(-7.05)"/><ellipse class="cls-84" cx="320.53" cy="203.28" rx="21.16" ry="25.58" transform="translate(-22.53 40.88) rotate(-7.05)"/><ellipse class="cls-85" cx="320.53" cy="203.28" rx="20.94" ry="25.32" transform="translate(-22.53 40.88) rotate(-7.05)"/><ellipse class="cls-86" cx="320.53" cy="203.28" rx="20.73" ry="25.06" transform="translate(-22.53 40.88) rotate(-7.05)"/><ellipse class="cls-87" cx="320.53" cy="203.28" rx="20.51" ry="24.8" transform="translate(-22.53 40.88) rotate(-7.05)"/><ellipse class="cls-88" cx="320.53" cy="203.28" rx="20.29" ry="24.54" transform="translate(-22.53 40.88) rotate(-7.05)"/><ellipse class="cls-89" cx="320.53" cy="203.28" rx="20.08" ry="24.28" transform="translate(-22.53 40.88) rotate(-7.05)"/><ellipse class="cls-90" cx="320.53" cy="203.28" rx="19.86" ry="24.01" transform="translate(-22.53 40.88) rotate(-7.05)"/><ellipse class="cls-91" cx="320.53" cy="203.28" rx="19.65" ry="23.75" transform="translate(-22.53 40.88) rotate(-7.05)"/><ellipse class="cls-92" cx="320.53" cy="203.28" rx="19.43" ry="23.49" transform="translate(-22.53 40.88) rotate(-7.05)"/><ellipse class="cls-93" cx="320.53" cy="203.28" rx="19.21" ry="23.23" transform="translate(-22.53 40.88) rotate(-7.05)"/><ellipse class="cls-94" cx="320.53" cy="203.28" rx="19" ry="22.97" transform="translate(-22.53 40.88) rotate(-7.05)"/><ellipse class="cls-95" cx="320.53" cy="203.28" rx="18.78" ry="22.71" transform="translate(-22.53 40.88) rotate(-7.05)"/><path class="cls-96" d="M339.15,203.62c.32,12.37-7.75,22.24-18,22s-18.88-10.37-19.2-22.73,7.76-22.24,18-22.05S338.83,191.25,339.15,203.62Z"/><ellipse class="cls-97" cx="320.53" cy="203.28" rx="18.35" ry="22.19" transform="translate(-22.53 40.88) rotate(-7.05)"/><ellipse class="cls-98" cx="320.53" cy="203.28" rx="18.14" ry="21.93" transform="translate(-22.53 40.88) rotate(-7.05)"/><ellipse class="cls-99" cx="320.53" cy="203.28" rx="17.92" ry="21.67" transform="translate(-22.53 40.88) rotate(-7.05)"/><ellipse class="cls-100" cx="320.53" cy="203.28" rx="17.7" ry="21.4" transform="translate(-22.53 40.88) rotate(-7.05)"/><ellipse class="cls-101" cx="320.53" cy="203.28" rx="17.49" ry="21.14" transform="translate(-22.53 40.88) rotate(-7.05)"/><path class="cls-102" d="M337.85,203.6c.3,11.5-7.21,20.68-16.78,20.51s-17.56-9.65-17.86-21.15,7.21-20.69,16.78-20.51S337.56,192.09,337.85,203.6Z"/><ellipse class="cls-103" cx="320.53" cy="203.28" rx="17.06" ry="20.62" transform="translate(-22.53 40.88) rotate(-7.05)"/><ellipse class="cls-104" cx="320.53" cy="203.28" rx="16.84" ry="20.36" transform="translate(-22.53 40.88) rotate(-7.05)"/></g><path class="cls-110" d="M421.88,46.58Z"/><path class="cls-111" d="M465.93,48.93A18.87,18.87,0,0,0,457,41.3c-3,.44-6.09,1-9.28,1.63-9.5,1.78-19.47,2.83-29.07,1.16-11.16-1.94-20.8-7.34-30.57-12.76-4.93-2.73-9.84-5.51-14.93-7.93C362.28,18.21,349.37,13,337.12,13c-6.06,0-12.06,1.58-17.72,3.65a38,38,0,0,0-12.87,7.89,38,38,0,0,1-3.6,2.56,63.17,63.17,0,0,0,1,12.28c.59-.33,1.13-.63,1.3-.75a37.94,37.94,0,0,1,7.66-4A33.4,33.4,0,0,1,323,32.46c14.6-.55,27.89,5.81,40.82,11.75,5.29,2.43,10.66,5.23,16.36,7.86A182.15,182.15,0,0,0,398,59.49c10.48,3.64,23.38,5.13,34.29,2.55,1.48-.35,2.93-.63,4.35-1a98.81,98.81,0,0,0,14.87-5.62c4.3-2,8-3.84,11.21-5.21C463.86,49.71,464.92,49.29,465.93,48.93Z"/><path class="cls-110" d="M421.62,44.75h0Z"/><path class="cls-112" d="M377.94,139.42a53.35,53.35,0,0,0,11.16,45.51l45.12-2.07s3.55-18.55-1.1-32.87C430.1,140.69,377.94,139.42,377.94,139.42Z"/><path class="cls-113" d="M305.83,148.75c-3.59,8.26-5.91,30.74-5.91,30.74l41.69,6.61C361.54,165.17,357,144.41,357,144.41S309.47,140.39,305.83,148.75Z"/><path class="cls-114" d="M415.06,168.49c-18.85-1.93-26,16-26,16s4.83,1.22,23.49,1c22.11-.31,21.66-2.64,21.66-2.64S433.92,170.42,415.06,168.49Z"/><path class="cls-114" d="M299.92,179.49s1.07,5,18.86,5.44c21.59.49,22.83,1.17,22.83,1.17A18.5,18.5,0,0,0,336,173.63C328.09,166.07,312.49,161.11,299.92,179.49Z"/><path class="cls-115" d="M412.59,168.36a15.18,15.18,0,0,0-6.28,10.36,13.27,13.27,0,0,0,.69,6.81l5.56,0c4.13-.06,7.47-.19,10.18-.36a15.75,15.75,0,0,0,2.41-6.34,12.14,12.14,0,0,0-1.4-8.22h0c-.32,0-.65-.29-1-.41l-.46-.17-.72-.24-.48-.15-1-.25-.27-.08c-.42-.1-.86-.19-1.31-.28l-.44-.08-1.05-.17-.45-.07-1.54-.19c-.45-.05-.89-.07-1.34-.09Z"/><path class="cls-116" d="M334.47,185.46a18,18,0,0,0,2.46-6.71,30.14,30.14,0,0,0,.49-3.14c0-.14,0-.27,0-.4a17.58,17.58,0,0,0-1.44-1.58,25,25,0,0,0-10.42-6l-.17.07c-.27.16-.53.34-.79.52a14.09,14.09,0,0,0-2.87,2.69,16,16,0,0,0-3.4,7.72,16.13,16.13,0,0,0,.55,6.33C326.14,185.1,331.1,185.29,334.47,185.46Z"/><path class="cls-117" d="M324.63,164.7c-15.32-2.58-25.93,8.49-24.71,14.79,0,0,8.83-8.36,21.53-6.87,16,1.88,20.16,13.48,20.16,13.48C344.75,180.22,343.29,167.84,324.63,164.7Z"/><path class="cls-118" d="M419.53,179a3.78,3.78,0,0,0-3.93-4.2,4.91,4.91,0,0,0-4.48,4.58,3.88,3.88,0,0,0,2.19,3.87l2.46.23A5,5,0,0,0,419.53,179Z"/><path class="cls-119" d="M305,151c18.12-11.14,43,6.64,50.89-1.58,3.06-3.17,1.56-12.27,1.56-12.27C312.13,126.34,305,151,305,151Z"/><path class="cls-120" d="M377.94,139.42s-1.78,10,1.36,12.25c12.24,9,48.51-10.08,53.82-1.68C433.12,150,430.87,126.63,377.94,139.42Z"/><path class="cls-117" d="M409.85,165.69c-19.86.34-23.65,15.88-20.78,18.84,0,0,3.88-11.22,22.58-10.9,18.5.31,22.57,9.23,22.57,9.23C434.74,176.5,430.85,165.33,409.85,165.69Z"/><path class="cls-107" d="M402.72,230.78l0,.08A.33.33,0,0,0,402.72,230.78Z"/><path class="cls-118" d="M331.53,179a3.78,3.78,0,0,0-3.93-4.2,4.91,4.91,0,0,0-4.48,4.58,3.88,3.88,0,0,0,2.19,3.87l2.46.23A5,5,0,0,0,331.53,179Z"/><path class="cls-121" d="M358.19,233.06c-17.91-2.19-32.34,9.16-32.34,9.16s1.19,8.13,8,8.5c7.48.42,17.35-4.84,23.48-5,11.64-.29,15.13,9.38,21.63,7.64s10.12-10.83,10.12-10.83A91.75,91.75,0,0,0,358.19,233.06Z"/><path class="cls-122" d="M328.32,241.72s.22,3,6.87,4.44,12.58-6,24.12-4.44,15.13,9.38,21.63,7.64,9.12-7.85,9.12-7.85a69.31,69.31,0,0,0-30.75-12C341.4,227.32,328.32,241.72,328.32,241.72Z"/><path class="cls-123" d="M464,181.41l-9.78-.26c-2,18.76-9.87,30.41-15.5,39.22-9.28,14.51-34.09,24-34.09,24-7.89-17.8-25.88-29.93-47.82-29.91-10.77,0-27.79,3.7-42,22.27,0,0-17.9-4.21-25.11-28.47-3.07-10.34-3.58-29.34-3.85-34.55l-1.35-.06C271.63,223,263,301.42,353.85,305.58c99.41,4.55,105-74.64,105-74.64C454,213.33,464,181.41,464,181.41Zm-79.75,74c-8.12,6.42-13.84-4.93-26.8-5.32-13.81-.42-23.52,9.68-29.58,2.79C321.44,245.54,340.94,233,358,234,380.15,235.24,389.8,251,384.25,255.38Z"/><path class="cls-124" d="M322.94,177.89c-2.15,1-3.66,3-3.38,4.45s2.25,1.84,4.41.84,3.66-3,3.38-4.46S325.1,176.89,322.94,177.89Z"/><path class="cls-124" d="M410.94,177.89c-2.15,1-3.66,3-3.38,4.45s2.25,1.84,4.41.84,3.66-3,3.38-4.46S413.1,176.89,410.94,177.89Z"/><path class="cls-125" d="M357.14,230.86c12.9-.06,19.69-6.27,23.08-11.32a51.85,51.85,0,0,0-5.71-2.28,65.16,65.16,0,0,0-17.7-2.82,49.31,49.31,0,0,0-23.55,6.07C337.11,224.77,344.35,230.92,357.14,230.86Z"/><path class="cls-27" d="M355,193s-16.45-3.36-20.66,10.94c-5.35,18.16,30.82,29.59,41.12,10.7s-15.17-54.89-15.17-54.89S366.24,178.33,355,193Z"/><path class="cls-126" d="M333.93,209.07c1.88,15,32.26,22.66,41.56,5.61a19.11,19.11,0,0,0,1.36-3.27A90.56,90.56,0,0,1,333.93,209.07Z"/><path class="cls-127" d="M365.75,179l-4.09-.22s-2.38,13.14-6.4,14.91h0c-.63-.08-1.27-.14-1.94-.17-7.13-.38-13,1.82-13.2,4.91s5.49,5.72,12.62,6.09c6.69.36,12.57-.73,13.43-4.33C366.18,200.21,369.61,186.49,365.75,179Z"/><path class="cls-128" d="M326.15,190.41c-4.85-.21-9.49-.53-14-2-2.65-.87-4.89,3.07-2.2,4.1a33.31,33.31,0,0,0,15.73,2.35C328.09,194.52,328.76,190.52,326.15,190.41Z"/><path class="cls-128" d="M420.77,189.07c-5.41.73-10.59,1.41-16.07,1.06-2.92-.19-2.8,4.23,0,4.5a42.31,42.31,0,0,0,16.65-1.24C423.64,192.69,423.33,188.73,420.77,189.07Z"/><path class="cls-129" d="M421,279.19c-.66-8.7-27.93-15.93-41.93-15.44s-45.11,25.47-45.11,25.47,0-33.53-11.1-36.81c-7.91-2.34-15.06,1-12.76,10.68,1.76,7.42-1.1,23.19-2.55,30.18,11.35,6.94,26.46,11.4,46.33,12.31,26.87,1.23,46.87-3.66,61.76-11.45C418.22,290.25,421.36,284.39,421,279.19Z"/><path class="cls-27" d="M305.48,347.2c.6-9.18-1.61-28.35.65-36.8s7.55-46.24,6.11-51.09,7.37-9.91,13.61-1.55,3,38.11,4.26,38.49,35.5-26.52,46.49-28.52,36.15,7.86,38,10.09,2.48,7.53-3.08,10.1-17.75-1.93-20.76-1.07-15.36,7.58-18.52,15.7c0,0,18.24,2.12,24.42,8S398,325.14,398,325.14s7.53,5.45,6.25,12-3.73,9.74-3.73,9.74,6.14,7,3.15,14.83-19.15,22.61-22.76,22.13a20.14,20.14,0,0,1-6-1.75s-7.88,10.22-13.48,13.77-12.57,8-13.22,7.85S300.05,376,300.05,376,305,354.51,305.48,347.2Z"/><path class="cls-27" d="M304.74,353.72,350,395.82s-24,142.67-38.7,183-93.93,1.36-94.72-7.46S300.49,388.26,304.74,353.72Z"/><path class="cls-130" d="M409.81,286c-4.68.84-16.24-1.31-21-1.77-8.33-.81-18.38,9.95-18.38,9.95l-13.08-1.71c-.41,1.8-.79,3.6-1.12,5.41a35.07,35.07,0,0,0-.58,3.48c-.13,1.66,1.36,2,2.75,2.5a8.75,8.75,0,0,1,4.36,3.35c3.08,4.64.83,11.54,4.25,15.93,2,2.54,5.52,3.67,7.12,6.48,1.89,3.32.35,7.66,1.75,11.22.68,1.73,2,3.13,2.92,4.75,1.8,3.2,1,6,1,9.39a6.51,6.51,0,0,1-.85,3.33,36.14,36.14,0,0,1-5.55,7.25,205.38,205.38,0,0,1-18.69,17.55c-4.77,4.08-9.59,8.15-14.62,11.91-.27.2-.7.67-1,.74-.6.12-23.9,142.55-36.54,155.49-6.46,6.62-35.19,30.73-50,26.19-10.48-3.21-20.39-31.85-20.94-34-1.13-4.33,72.94-170.56,75.27-181s4.72-31.13,5.43-34.45c0,0,15.88-26.69,21.85-34.22-2.26,1.56-3.72,2.49-4,2.41-1.3-.38,2-30.13-4.26-38.49s-15.05-3.3-13.61,1.55-3.85,42.63-6.11,51.09-.05,27.62-.65,36.8a88.34,88.34,0,0,1-1.27,8.83c-8.63,41.15-88.4,205.79-87.63,214.36.39,4.27,18.42,36.84,35.6,39.4,23.55,3.51,51.54-11.14,59.12-31.93,12.51-34.31,31.71-142.49,37.19-174.2,1.48-.47,7.78-4.53,12.94-7.8,5.6-3.55,13.48-13.77,13.48-13.77a20.14,20.14,0,0,0,6,1.75c3.61.48,19.78-14.33,22.76-22.13s-3.15-14.83-3.15-14.83,2.45-3.2,3.73-9.74-6.25-12-6.25-12,4.84-8.71-1.34-14.59-24.42-8-24.42-8c3.16-8.12,15.51-14.84,18.52-15.7s15.2,3.63,20.76,1.07c4.83-2.23,5-6.54,3.74-9.09C415.28,280.79,415,285.1,409.81,286Z"/><path class="cls-131" d="M330.11,296.25c-.39-.11-.37-2.93-.31-7-6.24,7.1-13.8,16.4-15,17.91l4.05,3.29c3.47-4.28,8-9.75,12.07-14.49A1.77,1.77,0,0,1,330.11,296.25Z"/><path class="cls-131" d="M375.39,297.58c-6.68-1.28-13.46-2.53-16.43-3.09-.2,1.74-.39,3.71-.62,5.44,2.6.5,8.18,1.49,14,2.54A18.26,18.26,0,0,1,375.39,297.58Z"/><path class="cls-132" d="M374.11,302.8c2.41.44,4.79.88,7,1.3C378.25,303.46,375.72,303,374.11,302.8Z"/><path class="cls-131" d="M400.6,327.49a19.77,19.77,0,0,0-2.57-2.35,16.48,16.48,0,0,0,1.34-3.53c-6.61-2.06-17.61-5-24.63-4.31l.52,5.19C382.38,321.79,395.21,325.7,400.6,327.49Z"/><path class="cls-131" d="M400.55,346.88a19.65,19.65,0,0,0,2.48-5.09c-5.69-2.41-14.93-4.5-24-6.31-.07,1.76.66,4,.61,5.79,11.27,2.3,18.18,4.55,21.23,6C400.69,347,400.55,346.88,400.55,346.88Z"/><path class="cls-131" d="M394.9,364.54l-4.19-3.11-15.8,20.66a20.61,20.61,0,0,0,5.67,1.69Z"/><path class="cls-133" d="M376.6,267.73c-7.81,1.42-27.34,15.42-38.45,23.27.71,2.42,2.29,5.73,5.58,5.75,5.18,0,36.36-17.27,39-17.46s24.17,6.15,28.07,3.72c2.72-1.69,3.51-3.86,3.33-5.64C410,274.51,387,265.85,376.6,267.73Z"/><path class="cls-134" d="M313.35,255.28c1.06.18,3.27,2.43,3.36,6.52.08,3.31-6.7,32.39-1.93,32.94,4.05.47,11.3-3.12,15.06-9.24.08-9.5-.17-22.62-4-27.74C321.47,251.89,315.84,252.64,313.35,255.28Z"/><path class="cls-135" d="M375,332.26c-.9-4.68-5.68-7-8-9.1s-1.77-11.06-5-16.85-27.72-10.84-29.23-10.77-20.83,34-20.83,34L305.54,346c0,.4,0,.8-.06,1.18a127,127,0,0,1-2.13,13.35c-8.15,31.8-46.55,115.74-69.47,167.71-1.19,5.6-2.07,10.75-1.91,13.21.44,6.92,4.56,32.19,20.5,36s41.87-16.68,52.44-29.94S339,395.78,339,395.78s35.35-28.33,39.05-34.19,3.72-11.88.7-16S375.87,337,375,332.26Z"/><path class="cls-136" d="M504.38,514c-11.49-3-105.88,3.61-152.68,7.13-2.18,7.52-5.75,26.29,9.13,35.87,18.88,12.16,148.33,29.57,156.21,25.3,7.12-3.85,23.05-30.2,25.37-38.2C533.79,532,515.69,516.93,504.38,514Z"/><path class="cls-137" d="M433,67.89c1.9-2.08-1.13-4.92-3.16-3a94,94,0,0,1-21.47,15c2.14-.91,3.38-1.5,3.38-1.5a12.16,12.16,0,0,1,6.34,2.17A75.49,75.49,0,0,0,433,67.89Z"/></g></g></svg>