<svg xmlns="http://www.w3.org/2000/svg" viewBox="0 0 1342.99 2380.41"><defs><style>.cls-1{fill:#fe9a78;}.cls-2{fill:#6d7db3;}.cls-14,.cls-3,.cls-95{fill:#fff;}.cls-3{opacity:0.07;}.cls-4{fill:#363c42;}.cls-5,.cls-94{opacity:0.11;}.cls-6,.cls-7,.cls-98,.cls-99{fill:#f78769;}.cls-6{opacity:0.5;}.cls-8,.cls-99{opacity:0.7;}.cls-9{fill:#3d4041;}.cls-10{fill:#dfe5ea;}.cls-11{fill:#002a3d;opacity:0.08;}.cls-12{fill:#7588bc;}.cls-13{fill:#b0b5c1;}.cls-14{opacity:0.12;}.cls-15{fill:#b6bdce;}.cls-16{fill:#6c332e;}.cls-17{fill:#381911;}.cls-18{opacity:0.4;}.cls-19{fill:#fd9977;}.cls-20{fill:#fd9877;}.cls-21{fill:#fc9776;}.cls-22{fill:#fc9675;}.cls-23{fill:#fb9575;}.cls-24{fill:#fa9474;}.cls-25{fill:#fa9373;}.cls-26{fill:#f99273;}.cls-27{fill:#f99172;}.cls-28{fill:#f89071;}.cls-29{fill:#f88f71;}.cls-30{fill:#f78e70;}.cls-31{fill:#f68d6f;}.cls-32{fill:#f68c6f;}.cls-33{fill:#f58b6e;}.cls-34{fill:#f58a6d;}.cls-35{fill:#f4896d;}.cls-36{fill:#f3886c;}.cls-37{fill:#f3876b;}.cls-38{fill:#f2866b;}.cls-39{fill:#f2856a;}.cls-40{fill:#f18469;}.cls-41{fill:#f08369;}.cls-42{fill:#f08268;}.cls-43{fill:#ef8167;}.cls-44{fill:#ef8067;}.cls-45{fill:#ee7f66;}.cls-46{fill:#ee7e65;}.cls-47{fill:#ed7d65;}.cls-48{fill:#ec7c64;}.cls-49{fill:#ec7b63;}.cls-50{fill:#eb7a63;}.cls-51{fill:#eb7962;}.cls-52{fill:#ea7861;}.cls-53{fill:#e97761;}.cls-54{fill:#e97660;}.cls-55{fill:#e8765f;}.cls-56{fill:#e8755e;}.cls-57{fill:#e7745e;}.cls-58{fill:#e6735d;}.cls-59{fill:#e6725c;}.cls-60{fill:#e5715c;}.cls-61{fill:#e5705b;}.cls-62{fill:#e46f5a;}.cls-63{fill:#e36e5a;}.cls-64{fill:#e36d59;}.cls-65{fill:#e26c58;}.cls-66{fill:#e26b58;}.cls-67{fill:#e16a57;}.cls-68{fill:#e16956;}.cls-69{fill:#e06856;}.cls-70{fill:#df6755;}.cls-71{fill:#df6654;}.cls-72{fill:#de6554;}.cls-73{fill:#de6453;}.cls-74{fill:#dd6352;}.cls-75{fill:#dc6252;}.cls-76{fill:#dc6151;}.cls-77{fill:#db6050;}.cls-78{fill:#db5f50;}.cls-79{fill:#da5e4f;}.cls-80{fill:#d95d4e;}.cls-81{fill:#d95c4e;}.cls-82{fill:#d85b4d;}.cls-83{fill:#d85a4c;}.cls-84{fill:#d7594c;}.cls-85{fill:#d7584b;}.cls-86{fill:#d6574a;}.cls-87{fill:#d5564a;}.cls-88{fill:#d55549;}.cls-89{fill:#d45448;}.cls-90{fill:#d45348;}.cls-91{fill:#d35247;}.cls-92{fill:#4f372d;}.cls-93{fill:#422e26;}.cls-94{fill:#e4902f;}.cls-100,.cls-95{opacity:0.2;}.cls-96{fill:#e8745d;}.cls-97{opacity:0.16;}.cls-98{opacity:0.53;}.cls-100{fill:#4f0000;}</style></defs><g id="Layer_2" data-name="Layer 2"><g id="Ñëîé_1" data-name="Ñëîé 1"><path class="cls-1" d="M529,429.5c21.07-24.52-66.57-110.85-66.57-110.85S182.82,536.37,82.58,675.38,14.92,869.56,84.43,928C164.18,995.11,450,1057.1,450,1057.1L619.59,784.55,295,761.12S373.15,610.93,529,429.5Z"/><path class="cls-2" d="M171.7,890.17C67.15,916.31,23,870.54,20.74,801.26,12.07,856.34,41.06,891.54,84.43,928,164.18,995.11,450,1057.1,450,1057.1L627.58,779.46c-4.93,7.71-23.13-6.35-26.38-8.83-7.4-5.67-19-4.91-25.55,1.67-.59-5.42-7.85-6.65-13.29-6.44l-20.5.81-51.38,2c-28.28,1.11-56.7-1.66-84.92-5.27-13.5-1.73-27.69-6.72-41.31-6.61a55.6,55.6,0,0,1-7.07,0c-2.18-.27-4.28-1-6.44-1.47a27.55,27.55,0,0,0-20.19,3.46c-1.43-5.33-7.59-8.25-13.11-7.88-15.29,1-19.15,18.62-25.77,30.16a346.93,346.93,0,0,1-27.26,40.76C240.75,852.19,210,880.61,171.7,890.17Z"/><path class="cls-3" d="M359.18,419.51S160.3,592,97.4,689.5s88.39,128,130.18,77.6,156.08-255.61,193.2-305S422.92,362.1,359.18,419.51Z"/><path class="cls-4" d="M700.21,2081.26c-1.14-.07-25.42,4.58-26.59,4.42C582,2072.89,497.14,1962.24,405.81,1948c-8.68,77.18-13.23,238.19-10.06,432.39H667.93C679.27,2223.77,694.84,2110.43,700.21,2081.26Z"/><path class="cls-4" d="M1085.94,1970.63l-295.6,46.59c-35.78,3.1-33.51,170.09-9.1,363.19H1077C1071.33,2176.12,1085.65,1974.64,1085.94,1970.63Z"/><path class="cls-4" d="M395.84,2109s197.85,21.4,411.4,19.48c138.78-1.25,257.22,10,266.25-51.78,8.39-57.42,14.85-126.26,20-198.19H410C402.49,2004.43,395.84,2109,395.84,2109Z"/><path class="cls-5" d="M714.58,2088.24c-206.6,7.62-43.42,40.07-23.8,40.26,34.85.8,35.25,1,72.37,1a81.59,81.59,0,0,1,.11,10.7C763.89,2140,920.71,2080.64,714.58,2088.24Z"/><path class="cls-1" d="M1057.21,2220.74c-16,27.09,17.77,27.09,29.73,10.42s36.27-100.74,36.27-100.74l12.9-149.11s-56.67,56.71-66.4,106.73S1073.19,2193.64,1057.21,2220.74Z"/><path class="cls-6" d="M1057.21,2220.74c-16,27.09,17.77,27.09,29.73,10.42s36.27-100.74,36.27-100.74l12.9-149.11s-56.67,56.71-66.4,106.73S1073.19,2193.64,1057.21,2220.74Z"/><path class="cls-7" d="M783.74,564.34h0c-53.66-.93-92.7,26-93.3,64.32L671.19,802.87c-.6,38.36,53.62,44.25,107.29,45.18s97.57-5.46,98.18-43.83V639.32C877.25,601,837.41,565.26,783.74,564.34Z"/><path class="cls-1" d="M1150.3,1956.74s-61,100.67-63.29,142.61,49.18,181.23,57.51,195.43,13.1,24.14,23.81,21.82c0,0,2.84,9.47,11.54,24.25s27.52,6.11,27.47-6.6,3-47.47,1-69.42c0,0,3.32,29.44,7.14,45.5,5,21.05,27.63,16.39,29.48-2.21.61-6.12,1.66-27.15,2.79-52.61.12-2.72.21-5.15.27-7.4,3.12,17.39,19.4,13.58,24,2.69,4.93-11.64,11-35.54,13.74-59.67,2.11-18.25,8.35-64.68,9.32-86.83,1.15-26.31,13.47-82.79-9.58-118.58S1150.3,1956.74,1150.3,1956.74Z"/><path class="cls-6" d="M1150.8,2121.57a107.65,107.65,0,0,1-54.66-57.72c-5.1,13.6-8.62,26.05-9.13,35.5-2.28,41.93,49.18,181.23,57.51,195.43s13.1,24.14,23.81,21.82c0,0,2.84,9.47,11.54,24.25s27.52,6.11,27.47-6.6,3-47.47,1-69.42c0,0,3.32,29.44,7.14,45.5,5,21,27.63,16.39,29.48-2.21.61-6.12,1.66-27.15,2.79-52.61.12-2.72.21-5.15.27-7.4,3.12,17.39,19.4,13.58,24,2.69,4.93-11.64,11-35.54,13.74-59.67,2.11-18.25,8.35-64.68,9.32-86.83.5-11.51,3.14-28.78,4-47.57a140.29,140.29,0,0,1-19.42,33.76C1249.72,2128.53,1194.83,2141.68,1150.8,2121.57Z"/><path class="cls-1" d="M960.9,785.12l23.44,247.2c40.67,80,130.35,304,132.46,450.34,2.86,199.28,75.19,196.88,10,547.86l154.09-51c19.27-126.41,54.78-324.94,43.91-512.14C1284.63,775.77,967.69,798.45,960.9,785.12Z"/><g class="cls-8"><path class="cls-7" d="M960.9,785.12l23.44,247.2c40.67,80,130.35,304,132.46,450.34.14,10,.47,19.57.94,28.67,31.19-28.11,76.46-42,117.16-33.6,43.94,9,74.52,36.23,91.8,73,.22-27.86-.28-55.74-1.88-83.38C1284.63,775.77,967.69,798.45,960.9,785.12Z"/></g><path class="cls-2" d="M960.9,785.12l23.44,247.2c34.49,67.86,104.22,239.29,125.89,379.06a909.76,909.76,0,0,1,106.37-15.8c34-2.92,68.2-4,102.4-4.09C1260.88,777.17,967.43,797.94,960.9,785.12Z"/><polygon class="cls-9" points="820.82 1999.22 880.57 2005.71 962.15 1860.72 905.05 1860.72 820.82 1999.22"/><path class="cls-7" d="M578.16,800V930.92H967.24v-144C850.57,752.44,691.12,752.76,578.16,800Z"/><path class="cls-10" d="M947.55,779.64c-11.27,67.13-95.72,82.29-188.15,83.79-83.45,1.35-121.34-16.66-136.06-80.71C595.68,787.5,525.15,810,486.06,835V1962.38c62,13.9,152.69,27.84,263.57,26.41,119.08-1.53,207.47-18.07,262.27-32.34V798a200.73,200.73,0,0,0-33-9.83C968.79,785.29,958.34,782.47,947.55,779.64Z"/><path class="cls-2" d="M649.48,777.48c-50.08,0-149.91,40.73-180.46,70.59-65.38,63.88-66.15,220.65-72.37,448.48C390,1541,389.9,1517.22,358.31,1988.89c0,0,137.27,32.42,306.3,41.63C641.32,1692.15,711.49,948.93,716.83,894,713.29,876.48,660.62,826,649.48,777.48Z"/><path class="cls-2" d="M1121.76,992.09c0-22.05,4-173.43-142.85-203.9-10.12-2.9-56.63-15.1-67.42-17.92-9.68,57.62-33.09,46.06-101.91,122.29-6.68,67-60,616.26-48.07,1150.39,205.17-4.43,374.6-74.53,374.6-74.53C1113.68,1705.5,1121.16,1222.52,1121.76,992.09Z"/><path class="cls-11" d="M622.77,780.41h0s-25.36,114.14-.08,163.82c0,0,6.5-71.46,37.93-59,20.87,8.25,41.34,37.93,52.9,56.5,1.56-24.86,2.71-41.54,3.31-47.73-3.43-16.94-52.89-64.85-66.09-111.92A143.57,143.57,0,0,0,622.77,780.41Z"/><path class="cls-12" d="M653,826.28c-.54,3.91-53.77,394.58-69.14,724.51-10.21,219.1-6.93,385.42-3.52,473.19q12.28,1.24,25,2.35c-3.43-86.19-6.92-253.17,3.39-474.38,14.32-307.33,61.62-667.73,68.17-716.68-1.4-2.07-2.77-4.16-4.13-6.28Z"/><path class="cls-12" d="M884.38,837.38l-15-1.68c-3.32,2.75-6.91,5.73-10.74,9-6.54,61.64-40.32,395-41,709.07-.52,227.53,8.67,395.84,15.08,485q12.51-1.15,24.72-2.57c-6.37-88.84-15.47-256.17-15-482.41C843.2,1209.14,884,841.06,884.38,837.38Z"/><path class="cls-11" d="M929,780.41a134.23,134.23,0,0,0-19.67.62c-10.88,45.75-35.56,40.45-99.76,111.56-.76,7.67-4.23,32.09-5.8,61.37,21.11-22.06,69.79-61.84,87.38-68.8,31.43-12.42,37.93,59.07,37.93,59.07,25.28-49.68-.08-163.82-.08-163.82Z"/><polygon class="cls-12" points="443.83 1006.86 431.25 1033.03 647.77 996.61 643.77 972.09 443.83 1006.86"/><path class="cls-12" d="M679.58,728.34s-25.83,9.58-60,56.21-3.11,143.05-3.11,143.05,5.18-22.77,16.59-60.92C649.84,810.62,716.83,894,716.83,894s-6-32.86-19.61-63.59C676.52,783.72,679.58,728.34,679.58,728.34Z"/><ellipse class="cls-13" cx="653.98" cy="1324.83" rx="16.64" ry="14.75"/><ellipse class="cls-13" cx="635.34" cy="1548.42" rx="16.64" ry="14.75"/><ellipse class="cls-13" cx="629.13" cy="1722.32" rx="16.64" ry="14.75"/><ellipse class="cls-13" cx="629.13" cy="1902.43" rx="16.64" ry="14.75"/><ellipse class="cls-13" cx="685.03" cy="964.61" rx="16.64" ry="14.75"/><ellipse class="cls-13" cx="668.36" cy="1131.35" rx="16.64" ry="14.75"/><rect class="cls-12" x="946.84" y="897.5" width="24.84" height="205.23" transform="translate(-214.19 1737.29) rotate(-78.33)"/><path class="cls-12" d="M876.59,736.26s1.78,20-18.93,66.61c-13.63,30.73-43.47,52.79-48.29,92.07,0,0,92.57-84.32,109.34-28.26,11.41,38.15,16.59,60.92,16.59,60.92s31.05-96.43-3.11-143.05S876.59,736.26,876.59,736.26Z"/><path class="cls-14" d="M679.58,728.34s-6.53,2.49-17.29,10.74c-24.75,23.6-20.8,71.24-9.75,108.41,25.94-1.13,64.29,46.47,64.29,46.47s-6-32.86-19.61-63.59C676.52,783.72,679.58,728.34,679.58,728.34Z"/><path class="cls-14" d="M876.59,736.26s1.78,20-18.93,66.61c-13.63,30.73-43.47,52.79-48.29,92.07,0,0,53.6-48.79,86.62-47.41,6.14-38.94,6.47-78.22-18.88-111.19Z"/><path class="cls-12" d="M562.2,765.87l-20.34.8-16.72.66c-37,46.25-97.43,179.82-119.11,290.78-5.26,67.11-6.88,147.05-9.38,238.44-.44,16.15-.85,31.12-1.25,45.15,29.88-389.71,145-546.2,169.66-575.4C564.18,766.15,563.21,766,562.2,765.87Z"/><path class="cls-12" d="M978.91,788.19l-3.69-1c21.3,18.75,84.21,115.08,115.36,604.16l25-1.59c-23.92-375.65-66.9-528.93-101-590.68A199.68,199.68,0,0,0,978.91,788.19Z"/><path class="cls-15" d="M1065.88,1272.62c-4.4,29.25,3.72,82.37,15.57,148,10.17,56.35,39,67.82,39,67.82,64.45-61.41,202.88-45.1,202.88-45.1,15.29-4.8,19.45-22.29,19.45-22.29,2.79-39.6-19.45-201.47-19.45-201.47C1291.33,1170.29,1072.49,1228.65,1065.88,1272.62Z"/><path class="cls-12" d="M429.85,1317.59a38.66,38.66,0,0,0,18.39,35.81l35.62,21.75a30.42,30.42,0,0,0,32.17-.27l46.28-29.36a37.44,37.44,0,0,0,17.28-28.77L590.69,1171H440.63Z"/><path class="cls-12" d="M1045.38,1187.66H883.52v144.66a42.57,42.57,0,0,0,18,34.8l30.28,21.36a44.21,44.21,0,0,0,53.42-1.88l44.48-36.29a53.5,53.5,0,0,0,19.63-43.23Z"/><path class="cls-16" d="M819.9,574a1.12,1.12,0,0,0,0-.2S819.88,573.9,819.9,574Z"/><path class="cls-7" d="M532.17,433.69c-25.1,8.1-36.57,44.64-25.61,81.6s40.19,60.35,65.3,52.24,36.57-44.64,25.61-81.6S557.28,425.58,532.17,433.69Z"/><path class="cls-17" d="M665.47,93.86s0-.42-.13-1.12C665.41,93.46,665.47,93.86,665.47,93.86Z"/><path class="cls-1" d="M970.7,478.94c.79-89.77-11.7-203.38-29.61-270.33-13.65-87-258.66-129.45-331.57-10.49-23.33,55.24-61.36,158.35-74.41,260.9,0-1.1,0-1.76,0-1.76s-68.3,272.57,174.47,290.9,270.53-109.6,261.09-269.24Z"/><g class="cls-18"><path class="cls-1" d="M621.52,423.4c-48.21-.9-88.1,39.24-89.11,89.66s37.27,92,85.48,92.94S706,566.76,707,516.34,669.73,424.31,621.52,423.4Z"/><path class="cls-19" d="M621.51,424c-47.88-.9-87.5,39-88.5,89s37,91.4,84.89,92.3,87.5-39,88.5-89S669.39,424.93,621.51,424Z"/><path class="cls-20" d="M621.5,424.65c-47.55-.89-86.9,38.7-87.89,88.43s36.75,90.77,84.3,91.67,86.9-38.7,87.89-88.43S669.05,425.55,621.5,424.65Z"/><ellipse class="cls-21" cx="619.71" cy="514.7" rx="89.44" ry="85.51" transform="translate(85.57 1117.73) rotate(-88.18)"/><ellipse class="cls-22" cx="619.71" cy="514.7" rx="88.82" ry="84.92" transform="translate(85.56 1117.73) rotate(-88.18)"/><ellipse class="cls-23" cx="619.71" cy="514.7" rx="88.19" ry="84.32" transform="translate(85.56 1117.73) rotate(-88.18)"/><path class="cls-24" d="M621.45,427.15c-46.23-.86-84.49,37.63-85.45,86s35.73,88.25,82,89.12,84.49-37.63,85.45-86S667.68,428,621.45,427.15Z"/><ellipse class="cls-25" cx="619.71" cy="514.7" rx="86.94" ry="83.12" transform="translate(85.56 1117.73) rotate(-88.18)"/><path class="cls-26" d="M621.42,428.4c-45.56-.85-83.27,37.09-84.22,84.75s35.22,87,80.79,87.85,83.28-37.09,84.23-84.75S667,429.26,621.42,428.4Z"/><ellipse class="cls-27" cx="619.71" cy="514.7" rx="85.69" ry="81.93" transform="translate(85.56 1117.72) rotate(-88.18)"/><ellipse class="cls-28" cx="619.71" cy="514.7" rx="85.06" ry="81.33" transform="translate(85.56 1117.73) rotate(-88.18)"/><ellipse class="cls-29" cx="619.71" cy="514.7" rx="84.44" ry="80.73" transform="translate(85.56 1117.73) rotate(-88.18)"/><ellipse class="cls-30" cx="619.71" cy="514.7" rx="83.81" ry="80.13" transform="translate(85.56 1117.73) rotate(-88.18)"/><ellipse class="cls-31" cx="619.71" cy="514.7" rx="83.19" ry="79.53" transform="translate(85.57 1117.73) rotate(-88.18)"/><ellipse class="cls-32" cx="619.71" cy="514.7" rx="82.56" ry="78.94" transform="translate(85.56 1117.73) rotate(-88.18)"/><ellipse class="cls-33" cx="619.71" cy="514.7" rx="81.94" ry="78.34" transform="translate(85.56 1117.73) rotate(-88.18)"/><ellipse class="cls-34" cx="619.71" cy="514.7" rx="81.31" ry="77.74" transform="matrix(0.03, -1, 1, 0.03, 85.56, 1117.73)"/><ellipse class="cls-35" cx="619.71" cy="514.7" rx="80.68" ry="77.14" transform="translate(85.56 1117.73) rotate(-88.18)"/><ellipse class="cls-36" cx="619.71" cy="514.7" rx="80.06" ry="76.54" transform="translate(85.56 1117.73) rotate(-88.18)"/><ellipse class="cls-37" cx="619.71" cy="514.7" rx="79.43" ry="75.95" transform="translate(85.55 1117.72) rotate(-88.18)"/><ellipse class="cls-38" cx="619.71" cy="514.7" rx="78.81" ry="75.35" transform="translate(85.56 1117.72) rotate(-88.18)"/><ellipse class="cls-39" cx="619.71" cy="514.7" rx="78.18" ry="74.75" transform="translate(85.55 1117.72) rotate(-88.18)"/><ellipse class="cls-40" cx="619.71" cy="514.7" rx="77.56" ry="74.15" transform="translate(85.55 1117.72) rotate(-88.18)"/><ellipse class="cls-41" cx="619.71" cy="514.7" rx="76.93" ry="73.55" transform="translate(85.56 1117.72) rotate(-88.18)"/><ellipse class="cls-42" cx="619.71" cy="514.7" rx="76.31" ry="72.96" transform="matrix(0.03, -1, 1, 0.03, 85.55, 1117.72)"/><ellipse class="cls-43" cx="619.71" cy="514.7" rx="75.68" ry="72.36" transform="translate(85.55 1117.72) rotate(-88.18)"/><ellipse class="cls-44" cx="619.71" cy="514.7" rx="75.06" ry="71.76" transform="translate(85.55 1117.72) rotate(-88.18)"/><ellipse class="cls-45" cx="619.71" cy="514.7" rx="74.43" ry="71.16" transform="translate(85.54 1117.71) rotate(-88.18)"/><ellipse class="cls-46" cx="619.71" cy="514.7" rx="73.8" ry="70.56" transform="translate(85.56 1117.72) rotate(-88.18)"/><ellipse class="cls-47" cx="619.71" cy="514.7" rx="73.18" ry="69.97" transform="translate(85.55 1117.71) rotate(-88.18)"/><ellipse class="cls-48" cx="619.71" cy="514.7" rx="72.55" ry="69.37" transform="matrix(0.03, -1, 1, 0.03, 85.55, 1117.72)"/><ellipse class="cls-49" cx="619.71" cy="514.7" rx="71.93" ry="68.77" transform="translate(85.55 1117.72) rotate(-88.18)"/><ellipse class="cls-50" cx="619.71" cy="514.7" rx="71.3" ry="68.17" transform="translate(85.54 1117.71) rotate(-88.18)"/><ellipse class="cls-51" cx="619.71" cy="514.7" rx="70.68" ry="67.57" transform="translate(85.54 1117.71) rotate(-88.18)"/><ellipse class="cls-52" cx="619.71" cy="514.7" rx="70.05" ry="66.98" transform="translate(85.55 1117.71) rotate(-88.18)"/><ellipse class="cls-53" cx="619.71" cy="514.7" rx="69.43" ry="66.38" transform="translate(85.54 1117.71) rotate(-88.18)"/><ellipse class="cls-54" cx="619.71" cy="514.7" rx="68.8" ry="65.78" transform="translate(85.55 1117.72) rotate(-88.18)"/><ellipse class="cls-55" cx="619.71" cy="514.7" rx="68.17" ry="65.18" transform="translate(85.54 1117.71) rotate(-88.18)"/><ellipse class="cls-56" cx="619.71" cy="514.7" rx="67.55" ry="64.58" transform="translate(85.54 1117.71) rotate(-88.18)"/><ellipse class="cls-57" cx="619.71" cy="514.7" rx="66.92" ry="63.99" transform="translate(85.54 1117.71) rotate(-88.18)"/><ellipse class="cls-58" cx="619.71" cy="514.7" rx="66.3" ry="63.39" transform="translate(85.54 1117.71) rotate(-88.18)"/><ellipse class="cls-59" cx="619.71" cy="514.7" rx="65.67" ry="62.79" transform="translate(85.54 1117.71) rotate(-88.18)"/><ellipse class="cls-60" cx="619.71" cy="514.7" rx="65.05" ry="62.19" transform="translate(85.53 1117.7) rotate(-88.18)"/><ellipse class="cls-61" cx="619.71" cy="514.7" rx="64.42" ry="61.59" transform="translate(85.54 1117.71) rotate(-88.18)"/><ellipse class="cls-62" cx="619.71" cy="514.7" rx="63.8" ry="61" transform="translate(85.53 1117.7) rotate(-88.17)"/><ellipse class="cls-63" cx="619.71" cy="514.7" rx="63.17" ry="60.4" transform="matrix(0.03, -1, 1, 0.03, 85.54, 1117.71)"/><ellipse class="cls-64" cx="619.71" cy="514.7" rx="62.55" ry="59.8" transform="matrix(0.03, -1, 1, 0.03, 85.54, 1117.71)"/><ellipse class="cls-65" cx="619.71" cy="514.7" rx="61.92" ry="59.2" transform="translate(85.54 1117.7) rotate(-88.18)"/><ellipse class="cls-66" cx="619.71" cy="514.7" rx="61.29" ry="58.6" transform="matrix(0.03, -1, 1, 0.03, 85.53, 1117.7)"/><ellipse class="cls-67" cx="619.71" cy="514.7" rx="60.67" ry="58.01" transform="translate(85.53 1117.7) rotate(-88.17)"/><ellipse class="cls-68" cx="619.71" cy="514.7" rx="60.04" ry="57.41" transform="translate(85.53 1117.7) rotate(-88.18)"/><ellipse class="cls-69" cx="619.71" cy="514.7" rx="59.42" ry="56.81" transform="translate(85.54 1117.71) rotate(-88.18)"/><ellipse class="cls-70" cx="619.71" cy="514.7" rx="58.79" ry="56.21" transform="translate(85.52 1117.69) rotate(-88.17)"/><ellipse class="cls-71" cx="619.71" cy="514.7" rx="58.17" ry="55.61" transform="translate(85.53 1117.7) rotate(-88.17)"/><ellipse class="cls-72" cx="619.71" cy="514.7" rx="57.54" ry="55.02" transform="matrix(0.03, -1, 1, 0.03, 85.52, 1117.69)"/><ellipse class="cls-73" cx="619.71" cy="514.7" rx="56.92" ry="54.42" transform="translate(85.52 1117.69) rotate(-88.17)"/><ellipse class="cls-74" cx="619.71" cy="514.7" rx="56.29" ry="53.82" transform="matrix(0.03, -1, 1, 0.03, 85.53, 1117.7)"/><ellipse class="cls-75" cx="619.71" cy="514.7" rx="55.67" ry="53.22" transform="translate(85.52 1117.69) rotate(-88.17)"/><ellipse class="cls-76" cx="619.71" cy="514.7" rx="55.04" ry="52.62" transform="translate(85.52 1117.69) rotate(-88.17)"/><path class="cls-77" d="M620.79,460.3c-28.73-.54-52.5,23.38-53.1,53.42s22.2,54.84,50.93,55.38,52.5-23.38,53.1-53.42S649.52,460.84,620.79,460.3Z"/><path class="cls-78" d="M620.78,460.92c-28.4-.53-51.9,23.11-52.49,52.81s22,54.21,50.34,54.75,51.9-23.11,52.49-52.81S649.18,461.46,620.78,460.92Z"/><ellipse class="cls-79" cx="619.71" cy="514.7" rx="53.16" ry="50.83" transform="matrix(0.03, -1, 1, 0.03, 85.53, 1117.7)"/><path class="cls-80" d="M620.75,462.17c-27.74-.52-50.69,22.58-51.27,51.59s21.44,53,49.18,53.47,50.69-22.57,51.27-51.59S648.49,462.69,620.75,462.17Z"/><ellipse class="cls-81" cx="619.71" cy="514.7" rx="51.91" ry="49.63" transform="translate(85.52 1117.69) rotate(-88.17)"/><path class="cls-82" d="M620.73,463.42c-27.08-.51-49.49,22-50.05,50.36s20.93,51.69,48,52.2,49.49-22,50.05-50.36S647.8,463.93,620.73,463.42Z"/><path class="cls-83" d="M620.71,464.05c-26.74-.5-48.88,21.77-49.43,49.74S592,564.85,618.7,565.35s48.88-21.76,49.44-49.74S647.46,464.55,620.71,464.05Z"/><path class="cls-84" d="M620.7,464.67c-26.41-.49-48.28,21.5-48.83,49.13s20.42,50.43,46.84,50.93,48.28-21.5,48.83-49.13S647.12,465.17,620.7,464.67Z"/><path class="cls-85" d="M620.69,465.3c-26.09-.49-47.67,21.23-48.22,48.51s20.17,49.8,46.25,50.29,47.68-21.23,48.22-48.51S646.78,465.79,620.69,465.3Z"/><path class="cls-86" d="M620.68,465.92c-25.76-.48-47.07,21-47.61,47.9S593,563,618.73,563.48s47.08-21,47.61-47.9S646.43,466.41,620.68,465.92Z"/><path class="cls-87" d="M620.67,466.55c-25.43-.48-46.47,20.69-47,47.28s19.65,48.54,45.08,49,46.46-20.69,47-47.28S646.09,467,620.67,466.55Z"/><path class="cls-88" d="M620.65,467.18c-25.09-.48-45.86,20.42-46.38,46.67s19.39,47.9,44.49,48.38,45.86-20.43,46.39-46.68S645.75,467.65,620.65,467.18Z"/><path class="cls-89" d="M620.64,467.8c-24.77-.46-45.26,20.16-45.78,46.06S594,561.13,618.77,561.6s45.26-20.15,45.78-46.06S645.41,468.27,620.64,467.8Z"/><path class="cls-90" d="M620.63,468.43c-24.44-.46-44.66,19.88-45.17,45.44s18.89,46.65,43.32,47.1,44.66-19.88,45.17-45.44S645.06,468.89,620.63,468.43Z"/><path class="cls-91" d="M620.62,469.05c-24.11-.45-44.06,19.62-44.56,44.83s18.63,46,42.74,46.47,44.05-19.62,44.55-44.83S644.72,469.5,620.62,469.05Z"/></g><g class="cls-18"><ellipse class="cls-1" cx="855.91" cy="519.14" rx="91.32" ry="95.1" transform="translate(332.02 1372.15) rotate(-89.68)"/><ellipse class="cls-19" cx="855.91" cy="519.14" rx="90.69" ry="94.45" transform="translate(332.02 1372.15) rotate(-89.68)"/><ellipse class="cls-20" cx="855.91" cy="519.14" rx="90.06" ry="93.8" transform="translate(332.01 1372.15) rotate(-89.68)"/><ellipse class="cls-21" cx="855.91" cy="519.14" rx="89.44" ry="93.15" transform="translate(332.03 1372.16) rotate(-89.68)"/><ellipse class="cls-22" cx="855.91" cy="519.14" rx="88.81" ry="92.49" transform="translate(332.02 1372.15) rotate(-89.68)"/><ellipse class="cls-23" cx="855.91" cy="519.14" rx="88.19" ry="91.84" transform="translate(332.01 1372.15) rotate(-89.68)"/><ellipse class="cls-24" cx="855.91" cy="519.14" rx="87.56" ry="91.19" transform="translate(332.01 1372.15) rotate(-89.68)"/><ellipse class="cls-25" cx="855.91" cy="519.14" rx="86.94" ry="90.54" transform="translate(332.02 1372.15) rotate(-89.68)"/><ellipse class="cls-26" cx="855.91" cy="519.14" rx="86.31" ry="89.89" transform="translate(332.02 1372.15) rotate(-89.68)"/><ellipse class="cls-27" cx="855.91" cy="519.14" rx="85.69" ry="89.24" transform="translate(332.01 1372.15) rotate(-89.68)"/><ellipse class="cls-28" cx="855.91" cy="519.14" rx="85.06" ry="88.59" transform="translate(332.01 1372.14) rotate(-89.68)"/><ellipse class="cls-29" cx="855.91" cy="519.14" rx="84.44" ry="87.93" transform="translate(332.01 1372.15) rotate(-89.68)"/><ellipse class="cls-30" cx="855.91" cy="519.14" rx="83.81" ry="87.28" transform="translate(332 1372.14) rotate(-89.68)"/><ellipse class="cls-31" cx="855.91" cy="519.14" rx="83.18" ry="86.63" transform="translate(332.02 1372.15) rotate(-89.68)"/><ellipse class="cls-32" cx="855.91" cy="519.14" rx="82.56" ry="85.98" transform="translate(332.01 1372.14) rotate(-89.68)"/><ellipse class="cls-33" cx="855.91" cy="519.14" rx="81.93" ry="85.33" transform="translate(332 1372.14) rotate(-89.68)"/><ellipse class="cls-34" cx="855.91" cy="519.14" rx="81.31" ry="84.68" transform="translate(332.02 1372.15) rotate(-89.68)"/><ellipse class="cls-35" cx="855.91" cy="519.14" rx="80.68" ry="84.03" transform="translate(332.01 1372.14) rotate(-89.68)"/><ellipse class="cls-36" cx="855.91" cy="519.14" rx="80.06" ry="83.37" transform="translate(332.01 1372.15) rotate(-89.68)"/><ellipse class="cls-37" cx="855.91" cy="519.14" rx="79.43" ry="82.72" transform="translate(332.02 1372.15) rotate(-89.68)"/><ellipse class="cls-38" cx="855.91" cy="519.14" rx="78.81" ry="82.07" transform="translate(332.01 1372.15) rotate(-89.68)"/><ellipse class="cls-39" cx="855.91" cy="519.14" rx="78.18" ry="81.42" transform="translate(332.01 1372.15) rotate(-89.68)"/><ellipse class="cls-40" cx="855.91" cy="519.14" rx="77.56" ry="80.77" transform="matrix(0.01, -1, 1, 0.01, 332.01, 1372.15)"/><ellipse class="cls-41" cx="855.91" cy="519.14" rx="76.93" ry="80.12" transform="translate(332.01 1372.14) rotate(-89.68)"/><ellipse class="cls-42" cx="855.91" cy="519.14" rx="76.3" ry="79.47" transform="translate(332.01 1372.15) rotate(-89.68)"/><ellipse class="cls-43" cx="855.91" cy="519.14" rx="75.68" ry="78.82" transform="translate(332.02 1372.15) rotate(-89.68)"/><ellipse class="cls-44" cx="855.91" cy="519.14" rx="75.05" ry="78.16" transform="translate(332.01 1372.14) rotate(-89.68)"/><ellipse class="cls-45" cx="855.91" cy="519.14" rx="74.43" ry="77.51" transform="translate(332 1372.14) rotate(-89.68)"/><ellipse class="cls-46" cx="855.91" cy="519.14" rx="73.8" ry="76.86" transform="translate(332 1372.14) rotate(-89.68)"/><ellipse class="cls-47" cx="855.91" cy="519.14" rx="73.18" ry="76.21" transform="translate(332.01 1372.14) rotate(-89.68)"/><ellipse class="cls-48" cx="855.91" cy="519.14" rx="72.55" ry="75.56" transform="translate(332 1372.14) rotate(-89.68)"/><ellipse class="cls-49" cx="855.91" cy="519.14" rx="71.93" ry="74.91" transform="translate(332 1372.14) rotate(-89.68)"/><ellipse class="cls-50" cx="855.91" cy="519.14" rx="71.3" ry="74.26" transform="translate(332 1372.14) rotate(-89.68)"/><ellipse class="cls-51" cx="855.91" cy="519.14" rx="70.68" ry="73.6" transform="translate(332 1372.14) rotate(-89.68)"/><ellipse class="cls-52" cx="855.91" cy="519.14" rx="70.05" ry="72.95" transform="translate(332 1372.14) rotate(-89.68)"/><ellipse class="cls-53" cx="855.91" cy="519.14" rx="69.42" ry="72.3" transform="translate(332.01 1372.15) rotate(-89.68)"/><ellipse class="cls-54" cx="855.91" cy="519.14" rx="68.8" ry="71.65" transform="translate(331.99 1372.14) rotate(-89.68)"/><ellipse class="cls-55" cx="855.91" cy="519.14" rx="68.17" ry="71" transform="translate(332 1372.14) rotate(-89.68)"/><ellipse class="cls-56" cx="855.91" cy="519.14" rx="67.55" ry="70.35" transform="translate(332 1372.14) rotate(-89.68)"/><ellipse class="cls-57" cx="855.91" cy="519.14" rx="66.92" ry="69.7" transform="matrix(0.01, -1, 1, 0.01, 332.01, 1372.14)"/><ellipse class="cls-58" cx="855.91" cy="519.14" rx="66.3" ry="69.04" transform="translate(332 1372.14) rotate(-89.68)"/><ellipse class="cls-59" cx="855.91" cy="519.14" rx="65.67" ry="68.39" transform="translate(331.99 1372.13) rotate(-89.68)"/><ellipse class="cls-60" cx="855.91" cy="519.14" rx="65.05" ry="67.74" transform="matrix(0.01, -1, 1, 0.01, 331.99, 1372.14)"/><ellipse class="cls-61" cx="855.91" cy="519.14" rx="64.42" ry="67.09" transform="translate(331.98 1372.13) rotate(-89.68)"/><ellipse class="cls-62" cx="855.91" cy="519.14" rx="63.8" ry="66.44" transform="translate(332 1372.14) rotate(-89.68)"/><ellipse class="cls-63" cx="855.91" cy="519.14" rx="63.17" ry="65.79" transform="translate(331.99 1372.14) rotate(-89.68)"/><ellipse class="cls-64" cx="855.91" cy="519.14" rx="62.54" ry="65.14" transform="translate(331.98 1372.13) rotate(-89.68)"/><ellipse class="cls-65" cx="855.91" cy="519.14" rx="61.92" ry="64.49" transform="translate(332 1372.14) rotate(-89.68)"/><ellipse class="cls-66" cx="855.91" cy="519.14" rx="61.29" ry="63.83" transform="translate(331.99 1372.14) rotate(-89.68)"/><ellipse class="cls-67" cx="855.91" cy="519.14" rx="60.67" ry="63.18" transform="translate(331.99 1372.14) rotate(-89.68)"/><ellipse class="cls-68" cx="855.91" cy="519.14" rx="60.04" ry="62.53" transform="translate(332 1372.14) rotate(-89.68)"/><ellipse class="cls-69" cx="855.91" cy="519.14" rx="59.42" ry="61.88" transform="matrix(0.01, -1, 1, 0.01, 331.99, 1372.13)"/><ellipse class="cls-70" cx="855.91" cy="519.14" rx="58.79" ry="61.23" transform="translate(331.99 1372.14) rotate(-89.68)"/><ellipse class="cls-71" cx="855.91" cy="519.14" rx="58.17" ry="60.58" transform="translate(332 1372.14) rotate(-89.68)"/><ellipse class="cls-72" cx="855.91" cy="519.14" rx="57.54" ry="59.93" transform="translate(331.99 1372.13) rotate(-89.68)"/><ellipse class="cls-73" cx="855.91" cy="519.14" rx="56.92" ry="59.27" transform="translate(331.99 1372.14) rotate(-89.68)"/><ellipse class="cls-74" cx="855.91" cy="519.14" rx="56.29" ry="58.62" transform="translate(331.98 1372.13) rotate(-89.68)"/><ellipse class="cls-75" cx="855.91" cy="519.14" rx="55.66" ry="57.97" transform="translate(331.98 1372.13) rotate(-89.68)"/><ellipse class="cls-76" cx="855.91" cy="519.14" rx="55.04" ry="57.32" transform="translate(331.97 1372.12) rotate(-89.68)"/><ellipse class="cls-77" cx="855.91" cy="519.14" rx="54.41" ry="56.67" transform="translate(331.96 1372.12) rotate(-89.68)"/><ellipse class="cls-78" cx="855.91" cy="519.14" rx="53.79" ry="56.02" transform="translate(331.98 1372.13) rotate(-89.68)"/><ellipse class="cls-79" cx="855.91" cy="519.14" rx="53.16" ry="55.37" transform="translate(331.97 1372.12) rotate(-89.68)"/><ellipse class="cls-80" cx="855.91" cy="519.14" rx="52.54" ry="54.71" transform="translate(331.98 1372.13) rotate(-89.68)"/><ellipse class="cls-81" cx="855.91" cy="519.14" rx="51.91" ry="54.06" transform="translate(331.99 1372.13) rotate(-89.68)"/><ellipse class="cls-82" cx="855.91" cy="519.14" rx="51.29" ry="53.41" transform="translate(331.97 1372.12) rotate(-89.68)"/><ellipse class="cls-83" cx="855.91" cy="519.14" rx="50.66" ry="52.76" transform="translate(331.98 1372.13) rotate(-89.68)"/><ellipse class="cls-84" cx="855.91" cy="519.14" rx="50.04" ry="52.11" transform="translate(331.98 1372.13) rotate(-89.68)"/><ellipse class="cls-85" cx="855.91" cy="519.14" rx="49.41" ry="51.46" transform="translate(331.99 1372.13) rotate(-89.68)"/><ellipse class="cls-86" cx="855.91" cy="519.14" rx="48.79" ry="50.81" transform="translate(331.97 1372.12) rotate(-89.68)"/><ellipse class="cls-87" cx="855.91" cy="519.14" rx="48.16" ry="50.16" transform="translate(331.98 1372.13) rotate(-89.68)"/><ellipse class="cls-88" cx="855.91" cy="519.14" rx="47.53" ry="49.5" transform="translate(331.99 1372.13) rotate(-89.68)"/><ellipse class="cls-89" cx="855.91" cy="519.14" rx="46.91" ry="48.85" transform="translate(331.95 1372.11) rotate(-89.68)"/><ellipse class="cls-90" cx="855.91" cy="519.14" rx="46.28" ry="48.2" transform="matrix(0.01, -1, 1, 0.01, 331.97, 1372.12)"/><ellipse class="cls-91" cx="855.91" cy="519.14" rx="45.66" ry="47.55" transform="translate(331.96 1372.12) rotate(-89.68)"/></g><ellipse class="cls-1" cx="1000.73" cy="501.39" rx="69.82" ry="47.74" transform="translate(221.38 1304.8) rotate(-72.48)"/><path class="cls-7" d="M1025.32,521.66c-24.21,15.24-49.81,10.07-68.27-5.18.26,30.78-6.71,89.15-51.3,148.41C870,712.47,793.21,727.74,736.3,725.24c-135.78-6-171.2-47.71-198.72-103.93,18.71,61.58,65.3,118.79,172,126.85C907.42,763.09,962.48,680.93,971,563.65a33.6,33.6,0,0,0,7.32,3.84c24.77,9.07,54.89-13.17,67.27-49.67A98.9,98.9,0,0,0,1050.8,490,61.48,61.48,0,0,1,1025.32,521.66Z"/><path class="cls-7" d="M981.64,501.41l22.7,3.41c0-35.84,26.7-47.57,26.7-47.57C988,441.36,981.64,501.41,981.64,501.41Z"/><path class="cls-16" d="M832.68,567.84a1.81,1.81,0,0,0,0-.2S832.66,567.72,832.68,567.84Z"/><path class="cls-92" d="M770.76,85.55C519.07,100.82,554.09,379.89,554.09,379.89c15.44-82.85,67.84-185.4,107.46-187.22,0,0,34.25,28.34,85.76,29.67,46.08,1.19,110.16-32,110.16-32,46-.82,97.77,141.79,103.28,256.52C962,473.12,985,443,985,443S1017.39,70.57,770.76,85.55Z"/><path class="cls-92" d="M902.14,108C828.38-5.94,585.78,25.66,585.78,25.66c-24.23,128.69,65.67,158.23,65.67,158.23s210.09-36.23,241.72-13.64,92.64,203.06,92.64,203.06,54.7-187.7,15.53-257.07C972.59,65.31,902.14,108,902.14,108Z"/><path class="cls-92" d="M679.71,0c.77,17.06,15.38,34.48,15.38,34.48S948.33,208.6,902.14,108,679.71,0,679.71,0Z"/><path class="cls-92" d="M943.53,73.69c-14.32,2.13-17.72,8.88-17.72,8.88,10.4-18.75,3.45-44.41,3.45-44.41-28,15.84-25.38,38.16-25.38,38.16-13.53-28.75-55.63-37.88-55.63-37.88,1.23,23.7,26.37,48,27.73,48.76l21.69,33.46,45.39-6.88-4.37-20.26C946.15,83,943.53,73.69,943.53,73.69Z"/><path class="cls-93" d="M592,123.74c-74,22.07-54.29,316.69-54.29,316.69,15.44-82.84,84.19-245.94,123.81-247.76C661.55,192.67,625,170.58,592,123.74Z"/><path class="cls-14" d="M879.81,105.7l0,0C880,105.71,880.24,105.68,879.81,105.7Z"/><path class="cls-14" d="M879.83,110.41h0Z"/><path class="cls-94" d="M972.84,93.24c-9.07,1.39-18.64,3.58-28.51,5.78-23.55,5.22-48.33,8.68-72.42,5.31-28-3.91-52.51-16.58-77.32-29.29-12.52-6.42-25-12.94-37.92-18.56-27.65-12-60.27-23.88-90.84-23-15.14.41-30,4.94-43.93,10.57a94.63,94.63,0,0,0-31.44,20.76,87.72,87.72,0,0,0-8.56,9.91,156.11,156.11,0,0,0,3.5,27.72c1-.78,2-1.57,3-2.39a93.36,93.36,0,0,1,18.77-10.55,83,83,0,0,1,25.07-6.22c36.38-2.58,70.06,12.2,102.81,25.94,13.41,5.63,27,12.17,41.47,18.25a451.82,451.82,0,0,0,45.08,17c26.44,8.22,58.76,10.86,85.77,3.52,3.65-1,7.26-1.82,10.76-2.88a243.36,243.36,0,0,0,36.65-15.27c10.54-5.35,19.56-10.23,27.52-13.91a99.59,99.59,0,0,1,14.92-5.87A44.84,44.84,0,0,0,972.84,93.24Z"/><path class="cls-14" d="M879.27,105.74h0Z"/><path class="cls-1" d="M710.06,482.94s-35.51-26.32-48.57,19.11S739,575.34,764.34,528s-38.91-136.73-38.91-136.73S737.79,446,710.06,482.94Z"/><path class="cls-95" d="M710.06,482.94s-34.49-24.78-47.61,16a323.67,323.67,0,0,0,56.6,9.11c11.11-26,15.05-54.14,16.5-84.58-2.48,0-5,0-7.44-.12C727.92,441.65,724.31,464,710.06,482.94Z"/><path class="cls-92" d="M960.53,442.79c-12.69,126.49-141,142.48-142.2,140.49,31,30.92,7.2,82.26-32.28,65.09-13.34-5.81-26.71-19.34-55.46-20-29.88-.72-46.18,12.48-54.07,16.87-32.29,18-71.43-12.27-32.29-69.87,0,0-43.71-9.31-57.06-16.69-25.42-14-37.93-42.91-44.07-70a222.25,222.25,0,0,1-4.89-34c-.28-4.18-1.51-10.11-.47-14.27-31.09,123.38-53.22,323.18,206.72,320.48s229.4-200.6,229.4-200.6C961.64,516.44,985,443,985,443Z"/><path class="cls-96" d="M798.55,606.82c-14.38-10.41-39.13-27.67-72.31-27.29-33.47.54-60.59,19.29-73.23,30.47a12.5,12.5,0,0,0-.52,18.31l1.06,1a12.44,12.44,0,0,0,16.18,1.14c10.75-8,31.39-20.27,57.17-20.69,25.57-.45,45.91,10.43,56.69,17.8A12.58,12.58,0,0,0,799.84,626l.42-.43A12.5,12.5,0,0,0,798.55,606.82Z"/><path class="cls-92" d="M718.47,527.75s-29.72-12.83-74.53,13.14c-34.29,19.88-47.34,63.24-47.34,63.24s47.48,9.92,127.19-18c79.37,37.85,142,21.15,142,21.15S836.56,512,718.47,527.75Z"/><path class="cls-7" d="M660.5,514.76c5,37.43,81,56,103.84,13.21a47.1,47.1,0,0,0,3.35-8.19C731.87,527.08,694.64,524.63,660.5,514.76Z"/><ellipse class="cls-97" cx="730.61" cy="663.46" rx="18.24" ry="30.61" transform="translate(63.08 1390.35) rotate(-89.68)"/><path class="cls-98" d="M755.59,307.88c-6-1.44-20.61,38.21-19.71,57.53,0,0-7.31-38.67-12-37.65s1.77,52,10.48,55.87S761.55,309.32,755.59,307.88Z"/><path class="cls-99" d="M592.19,385.09c-14.14,31.32-10.55,54.65-10.55,54.65s32.49,28.86,45.94,30c12.77,1.11,54.88-12.17,54.88-12.17,32.61-55.65,22.22-96.67,22.22-96.67C675.28,351.54,592.19,385.09,592.19,385.09Z"/><path class="cls-99" d="M808.38,377.3l-17.11-31.77c-24,54.59,9.56,109.18,9.56,109.18l107.18,0s20.24-25.66.46-56.75C892.06,372.11,808.38,377.3,808.38,377.3Z"/><path class="cls-93" d="M611.93,376c-15.48,5.81-20.32,15.83-20.32,15.83,60.64,11.76,98.15,5.11,109-8.34,12.68-15.68-1.74-43.57-1.74-43.57C671.83,365.84,643.37,364.21,611.93,376Z"/><path class="cls-93" d="M887.71,380.78c-31.43-11.8-69.38-9.33-96.44-35.25,0,0-14.42,27.89-1.75,43.57,10.88,13.45,58.31,20.58,119,8.81C908.47,397.91,903.2,386.59,887.71,380.78Z"/><path class="cls-17" d="M623.76,114.66s0-.41-.13-1.1C623.7,114.27,623.76,114.66,623.76,114.66Z"/><path class="cls-14" d="M834.08,119.13l0,0C834.23,119.13,834.5,119.09,834.08,119.13Z"/><path class="cls-14" d="M834.15,122.41h0Z"/><path class="cls-14" d="M833.55,119.18h.16Z"/><path class="cls-100" d="M855.93,215.13s2.87-.73,2.35-10-85-27.48-85-27.48L574.39,292.19c-13.82,42.21-27.08,90.71-35.33,140.06a33.15,33.15,0,0,0-6.89,1.44c-18.78,6.06-29.92,28-29.76,54.19,70.07-60.75,147.45-90.81,180.71-137.64,15-21.18,134.44,4.27,159.15-5s23.3-37.7,23.3-37.7,13.26-18.06,16.28-24.68.44-17.28.44-17.28S897.35,252.45,894.9,245C890.14,230.46,855.93,215.13,855.93,215.13Z"/><path class="cls-1" d="M876.73,233.87c-9.51-7.61-35.76-19.79-35.76-19.79s11.79-14.46,5.7-22.83-97.4-39.57-114.15-40.33-119.47,12.17-133.17,19-152,166-152,166L516,440.48s5.71-.7,13.36-11.49,28.88-7.16,64.26-28.46,65.07-68.49,86-75,124.81,11,153,0,16-28.54,16-28.54c6.46-1.14,22.07-9.51,22.45-19.41a15.5,15.5,0,0,0-7.61-14.07C880.54,259.74,886.25,241.48,876.73,233.87Z"/><path class="cls-7" d="M876.73,233.87c-9.51-7.61-35.76-19.79-35.76-19.79s11.79-14.46,5.7-22.83-97.4-39.57-114.15-40.33c-13.83-.63-86.33,8.09-118.86,15l117.09-12.47c61.39,7.61,96.9,31,106.54,37s2,14.71-1.52,15.22-82.19-34.5-87.26-35.51-102,5.58-102,5.58l3.05,6.09s89.79-4.06,96.39-3.56,118.53,47.75,124.8,57.84-2,16.74-8.62,18.26S751,212.81,742.42,210.78s-80.67,0-80.67,0l1,10.15s70.52-.51,75.08,0,119.22,37,125.31,48.2-4.56,20.29-12.17,20.8S763.73,262,752.56,261s-97.4-3.55-97.4-3.55l-2.87,8.12s180.94,26.88,185,30.1,5.07,7.44,0,15.05-176.55-22.32-176.55-22.32C638.92,332.6,588.26,397.19,566,414.9a207.62,207.62,0,0,0,27.65-14.37c35.39-21.31,65.07-68.49,86-75s124.81,11,153,0,16-28.54,16-28.54c6.46-1.14,22.07-9.51,22.45-19.41a15.5,15.5,0,0,0-7.61-14.07C880.54,259.74,886.25,241.48,876.73,233.87Z"/><path class="cls-17" d="M629.21,461.77c-35.66-2.46-47.62-26.2-47.62-26.2s-2.65,46,42.95,48c56.51,2.44,67.84-46.47,67.84-46.47S666.33,464.34,629.21,461.77Z"/><path class="cls-17" d="M845.42,465.32c-44.65-7.14-56.06-36.85-56.06-36.85s-4.1,52,49.65,58.21c52.74,6.09,71.46-36.56,71.46-36.56S878.17,470.57,845.42,465.32Z"/><path class="cls-15" d="M286,775.89c-37.21,75.55-97.32,121-155.25,120.46-95.47-.93-118.86-76.29-95.17-142.49,7.35-20.52,42.16-71.69,42.16-71.69S51.34,694.06,19.21,745.4C-1.92,779.15-26,876.89,69,923.66c102.72,50.55,179.19-23.57,221.09-93.9,30.34-50.93,20.74-97,20.74-97A362.47,362.47,0,0,0,286,775.89Z"/></g></g></svg>