<svg id="Ñëîé_1" data-name="Ñëîé 1" xmlns="http://www.w3.org/2000/svg" xmlns:xlink="http://www.w3.org/1999/xlink" viewBox="0 0 500 500"><defs><style>.cls-1,.cls-102,.cls-110,.cls-93,.cls-94{fill:#fff;}.cls-2{fill:#6d7db3;}.cls-106,.cls-107,.cls-108,.cls-109,.cls-3{fill:#d78c74;}.cls-4{fill:#381911;}.cls-5{fill:#e5a185;}.cls-6{opacity:0.38;}.cls-7{fill:#e5a084;}.cls-8{fill:#e59f83;}.cls-9{fill:#e49e83;}.cls-10{fill:#e49d82;}.cls-11{fill:#e49c81;}.cls-12{fill:#e49b80;}.cls-13{fill:#e49a80;}.cls-14{fill:#e3997f;}.cls-15{fill:#e3987e;}.cls-16{fill:#e3977d;}.cls-17{fill:#e3967c;}.cls-18{fill:#e2957c;}.cls-19{fill:#e2947b;}.cls-20{fill:#e2937a;}.cls-21{fill:#e29279;}.cls-22{fill:#e29179;}.cls-23{fill:#e19078;}.cls-24{fill:#e18f77;}.cls-25{fill:#e18e76;}.cls-26{fill:#e18d75;}.cls-27{fill:#e18c75;}.cls-28{fill:#e08b74;}.cls-29{fill:#e08a73;}.cls-30{fill:#e08972;}.cls-31{fill:#e08872;}.cls-32{fill:#df8771;}.cls-33{fill:#df8670;}.cls-34{fill:#df856f;}.cls-35{fill:#df846f;}.cls-36{fill:#df836e;}.cls-37{fill:#de826d;}.cls-38{fill:#de816c;}.cls-39{fill:#de806b;}.cls-40{fill:#de7f6b;}.cls-41{fill:#de7e6a;}.cls-42{fill:#dd7d69;}.cls-43{fill:#dd7c68;}.cls-44{fill:#dd7b68;}.cls-45{fill:#dd7a67;}.cls-46{fill:#dd7a66;}.cls-47{fill:#dc7965;}.cls-48{fill:#dc7864;}.cls-49{fill:#dc7764;}.cls-50{fill:#dc7663;}.cls-51{fill:#db7562;}.cls-52{fill:#db7461;}.cls-53{fill:#db7361;}.cls-54{fill:#db7260;}.cls-55{fill:#db715f;}.cls-56{fill:#da705e;}.cls-57{fill:#da6f5d;}.cls-58{fill:#da6e5d;}.cls-59{fill:#da6d5c;}.cls-60{fill:#da6c5b;}.cls-61{fill:#d96b5a;}.cls-62{fill:#d96a5a;}.cls-63{fill:#d96959;}.cls-64{fill:#d96858;}.cls-65{fill:#d86757;}.cls-66{fill:#d86657;}.cls-67{fill:#d86556;}.cls-68{fill:#d86455;}.cls-69{fill:#d86354;}.cls-70{fill:#d76253;}.cls-71{fill:#d76153;}.cls-72{fill:#d76052;}.cls-73{fill:#d75f51;}.cls-74{fill:#d75e50;}.cls-75{fill:#d65d50;}.cls-76{fill:#d65c4f;}.cls-77{fill:#d65b4e;}.cls-78{fill:#d65a4d;}.cls-79{fill:#d5594c;}.cls-80{fill:#d5584c;}.cls-81{fill:#d5574b;}.cls-82{fill:#d5564a;}.cls-83{fill:#d55549;}.cls-84{fill:#d45449;}.cls-85{fill:#d45348;}.cls-86{fill:#d45247;}.cls-87{fill:#ce826e;}.cls-88{fill:url(#Áåçûìÿííûé_ãðàäèåíò_9);}.cls-89{fill:url(#Áåçûìÿííûé_ãðàäèåíò_9-2);}.cls-90{fill:#422e26;}.cls-91{fill:#6c332e;}.cls-92{fill:#4f372d;}.cls-93{opacity:0.2;}.cls-94{opacity:0.12;}.cls-95{fill:#e5912f;}.cls-102,.cls-95{opacity:0.11;}.cls-96{opacity:0.19;}.cls-97{fill:#3d4041;}.cls-98{fill:#363c42;}.cls-99{fill:#dfe5ea;}.cls-100{fill:#002a3d;opacity:0.08;}.cls-101{fill:#7588bc;}.cls-103{fill:#b0b5c1;}.cls-104{fill:#b6bdce;}.cls-105{fill:#0b0e3a;opacity:0.09;}.cls-106{opacity:0.4;}.cls-107{opacity:0.36;}.cls-108{opacity:0.22;}.cls-109{opacity:0.55;}.cls-110{opacity:0.82;}</style><linearGradient id="Áåçûìÿííûé_ãðàäèåíò_9" x1="223.03" y1="136.19" x2="228.17" y2="122.49" gradientUnits="userSpaceOnUse"><stop offset="0" stop-color="#5c3333"/><stop offset="1"/></linearGradient><linearGradient id="Áåçûìÿííûé_ãðàäèåíò_9-2" x1="274.48" y1="137.8" x2="279.29" y2="123.2" xlink:href="#Áåçûìÿííûé_ãðàäèåíò_9"/></defs><rect class="cls-1" width="500" height="500"/><path class="cls-2" d="M384,376l-76.25-18.17L286.64,214.48S400.73,216,384,376Z"/><path class="cls-2" d="M214.14,216.71,158.86,376l-55.29,4.37S106,220.45,214.14,216.71Z"/><ellipse class="cls-3" cx="199.68" cy="141.08" rx="11.38" ry="16.64" transform="translate(-30.61 58.98) rotate(-15.62)"/><path class="cls-3" d="M252.94,170.05h0c-14.22-.16-24.6,6.37-24.8,15.62L222,227.35c-.2,9.25,15,11,29.23,11.12s26.89-2.1,27.1-11.36L277.48,188C277.68,178.78,267.16,170.21,252.94,170.05Z"/><path class="cls-4" d="M231.26,46s0-.1,0-.26Z"/><path class="cls-5" d="M297.09,73c-3.37-20.71-61.81-30.5-79-2.06-5.49,13.19-14.41,37.81-17.38,62.27,0-.27,0-.42,0-.42s-15.92,65,42,69.08,64.32-26.48,61.86-64.5h0C304.57,116,301.44,88.9,297.09,73Z"/><g class="cls-6"><ellipse class="cls-5" cx="220.92" cy="144.4" rx="22.66" ry="20.8" transform="translate(73.49 363.31) rotate(-89.21)"/><path class="cls-7" d="M221.23,121.88c-11.42-.15-20.81,9.8-21,22.23s8.94,22.65,20.36,22.81,20.81-9.8,21-22.24S232.64,122,221.23,121.88Z"/><path class="cls-8" d="M221.23,122c-11.35-.15-20.68,9.74-20.85,22.1s8.88,22.5,20.23,22.65,20.68-9.73,20.85-22.09S232.57,122.18,221.23,122Z"/><ellipse class="cls-9" cx="220.92" cy="144.4" rx="22.24" ry="20.41" transform="translate(73.5 363.31) rotate(-89.21)"/><ellipse class="cls-10" cx="220.92" cy="144.4" rx="22.09" ry="20.28" transform="translate(73.49 363.31) rotate(-89.21)"/><ellipse class="cls-11" cx="220.92" cy="144.4" rx="21.95" ry="20.15" transform="translate(73.49 363.31) rotate(-89.21)"/><ellipse class="cls-12" cx="220.92" cy="144.4" rx="21.81" ry="20.02" transform="translate(73.49 363.31) rotate(-89.21)"/><path class="cls-13" d="M221.22,122.73c-11-.15-20,9.43-20.19,21.4s8.6,21.78,19.59,21.94,20-9.43,20.19-21.4S232.2,122.88,221.22,122.73Z"/><ellipse class="cls-14" cx="220.92" cy="144.4" rx="21.53" ry="19.76" transform="translate(73.49 363.31) rotate(-89.21)"/><ellipse class="cls-15" cx="220.92" cy="144.4" rx="21.39" ry="19.63" transform="translate(73.5 363.31) rotate(-89.21)"/><path class="cls-16" d="M221.21,123.16c-10.77-.15-19.63,9.24-19.79,21s8.43,21.36,19.2,21.51,19.64-9.24,19.8-21S232,123.31,221.21,123.16Z"/><path class="cls-17" d="M221.21,123.3c-10.7-.15-19.5,9.18-19.66,20.83s8.38,21.22,19.08,21.37,19.5-9.18,19.66-20.83S231.91,123.45,221.21,123.3Z"/><ellipse class="cls-18" cx="220.92" cy="144.4" rx="20.96" ry="19.24" transform="translate(73.49 363.31) rotate(-89.21)"/><ellipse class="cls-19" cx="220.92" cy="144.4" rx="20.82" ry="19.11" transform="translate(73.5 363.31) rotate(-89.21)"/><ellipse class="cls-20" cx="220.92" cy="144.4" rx="20.68" ry="18.98" transform="translate(73.5 363.31) rotate(-89.21)"/><path class="cls-21" d="M221.2,123.87c-10.41-.15-19,8.93-19.13,20.27s8.15,20.65,18.56,20.79,19-8.93,19.14-20.27S231.61,124,221.2,123.87Z"/><path class="cls-22" d="M221.2,124c-10.34-.15-18.85,8.87-19,20.13s8.1,20.51,18.44,20.65,18.84-8.87,19-20.13S231.54,124.15,221.2,124Z"/><ellipse class="cls-23" cx="220.92" cy="144.4" rx="20.25" ry="18.59" transform="translate(73.49 363.31) rotate(-89.21)"/><ellipse class="cls-24" cx="220.92" cy="144.4" rx="20.11" ry="18.46" transform="translate(73.49 363.31) rotate(-89.21)"/><ellipse class="cls-25" cx="220.92" cy="144.4" rx="19.97" ry="18.33" transform="translate(73.49 363.31) rotate(-89.21)"/><ellipse class="cls-26" cx="220.92" cy="144.4" rx="19.83" ry="18.2" transform="translate(73.49 363.31) rotate(-89.21)"/><path class="cls-27" d="M221.19,124.72c-10-.14-18.19,8.56-18.34,19.43s7.82,19.8,17.8,19.93,18.19-8.56,18.34-19.43S231.17,124.85,221.19,124.72Z"/><ellipse class="cls-28" cx="220.92" cy="144.4" rx="19.54" ry="17.94" transform="translate(73.49 363.31) rotate(-89.21)"/><ellipse class="cls-29" cx="220.92" cy="144.4" rx="19.4" ry="17.81" transform="translate(73.49 363.31) rotate(-89.21)"/><ellipse class="cls-30" cx="220.92" cy="144.4" rx="19.26" ry="17.68" transform="translate(73.49 363.31) rotate(-89.21)"/><ellipse class="cls-31" cx="220.92" cy="144.4" rx="19.12" ry="17.55" transform="translate(73.49 363.3) rotate(-89.21)"/><ellipse class="cls-32" cx="220.92" cy="144.4" rx="18.98" ry="17.42" transform="translate(73.49 363.31) rotate(-89.21)"/><ellipse class="cls-33" cx="220.92" cy="144.4" rx="18.84" ry="17.29" transform="translate(73.49 363.31) rotate(-89.21)"/><ellipse class="cls-34" cx="220.92" cy="144.4" rx="18.69" ry="17.16" transform="translate(73.49 363.31) rotate(-89.21)"/><ellipse class="cls-35" cx="220.92" cy="144.4" rx="18.55" ry="17.03" transform="translate(73.48 363.3) rotate(-89.21)"/><path class="cls-36" d="M221.17,126c-9.33-.13-17,8-17.15,18.18s7.31,18.51,16.64,18.64,17-8,17.16-18.18S230.51,126.12,221.17,126Z"/><ellipse class="cls-37" cx="220.92" cy="144.4" rx="18.27" ry="16.77" transform="translate(73.49 363.31) rotate(-89.21)"/><ellipse class="cls-38" cx="220.92" cy="144.4" rx="18.13" ry="16.64" transform="translate(73.49 363.31) rotate(-89.21)"/><ellipse class="cls-39" cx="220.92" cy="144.4" rx="17.99" ry="16.51" transform="translate(73.49 363.31) rotate(-89.21)"/><ellipse class="cls-40" cx="220.92" cy="144.4" rx="17.84" ry="16.38" transform="matrix(0.01, -1, 1, 0.01, 73.5, 363.31)"/><ellipse class="cls-41" cx="220.92" cy="144.4" rx="17.7" ry="16.25" transform="translate(73.49 363.31) rotate(-89.21)"/><ellipse class="cls-42" cx="220.92" cy="144.4" rx="17.56" ry="16.12" transform="translate(73.49 363.31) rotate(-89.21)"/><ellipse class="cls-43" cx="220.92" cy="144.4" rx="17.42" ry="15.99" transform="translate(73.49 363.3) rotate(-89.21)"/><ellipse class="cls-44" cx="220.92" cy="144.4" rx="17.28" ry="15.86" transform="translate(73.49 363.31) rotate(-89.21)"/><ellipse class="cls-45" cx="220.92" cy="144.4" rx="17.14" ry="15.73" transform="translate(73.49 363.31) rotate(-89.21)"/><ellipse class="cls-46" cx="220.92" cy="144.4" rx="17" ry="15.6" transform="translate(73.49 363.31) rotate(-89.21)"/><ellipse class="cls-47" cx="220.92" cy="144.4" rx="16.85" ry="15.47" transform="translate(73.49 363.31) rotate(-89.21)"/><ellipse class="cls-48" cx="220.92" cy="144.4" rx="16.71" ry="15.34" transform="translate(73.5 363.31) rotate(-89.21)"/><ellipse class="cls-49" cx="220.92" cy="144.4" rx="16.57" ry="15.21" transform="translate(73.49 363.31) rotate(-89.21)"/><ellipse class="cls-50" cx="220.92" cy="144.4" rx="16.43" ry="15.08" transform="translate(73.49 363.31) rotate(-89.21)"/><ellipse class="cls-51" cx="220.92" cy="144.4" rx="16.29" ry="14.95" transform="translate(73.49 363.31) rotate(-89.21)"/><path class="cls-52" d="M221.14,128.26c-8.19-.12-14.92,7-15,15.94s6.41,16.23,14.59,16.34,14.93-7,15.05-15.94S229.32,128.37,221.14,128.26Z"/><path class="cls-53" d="M221.14,128.4c-8.12-.11-14.79,7-14.91,15.8s6.35,16.09,14.47,16.2,14.79-7,14.91-15.8S229.25,128.51,221.14,128.4Z"/><ellipse class="cls-54" cx="220.92" cy="144.4" rx="15.86" ry="14.56" transform="translate(73.49 363.31) rotate(-89.21)"/><ellipse class="cls-55" cx="220.92" cy="144.4" rx="15.72" ry="14.43" transform="translate(73.49 363.31) rotate(-89.21)"/><path class="cls-56" d="M221.13,128.82c-7.9-.11-14.4,6.78-14.51,15.38S212.8,159.87,220.7,160s14.4-6.78,14.52-15.38S229,128.93,221.13,128.82Z"/><ellipse class="cls-57" cx="220.92" cy="144.4" rx="15.44" ry="14.17" transform="translate(73.49 363.31) rotate(-89.21)"/><ellipse class="cls-58" cx="220.92" cy="144.4" rx="15.3" ry="14.04" transform="translate(73.49 363.31) rotate(-89.21)"/><ellipse class="cls-59" cx="220.92" cy="144.4" rx="15.15" ry="13.91" transform="translate(73.49 363.31) rotate(-89.21)"/><ellipse class="cls-60" cx="220.92" cy="144.4" rx="15.01" ry="13.78" transform="translate(73.5 363.31) rotate(-89.21)"/><ellipse class="cls-61" cx="220.92" cy="144.4" rx="14.87" ry="13.65" transform="translate(73.49 363.31) rotate(-89.21)"/><path class="cls-62" d="M221.12,129.67c-7.47-.1-13.61,6.41-13.72,14.54s5.85,14.81,13.31,14.92,13.62-6.41,13.73-14.54S228.59,129.77,221.12,129.67Z"/><ellipse class="cls-63" cx="220.92" cy="144.4" rx="14.59" ry="13.39" transform="translate(73.49 363.31) rotate(-89.21)"/><ellipse class="cls-64" cx="220.92" cy="144.4" rx="14.45" ry="13.26" transform="translate(73.5 363.32) rotate(-89.21)"/><ellipse class="cls-65" cx="220.92" cy="144.4" rx="14.3" ry="13.13" transform="translate(73.49 363.31) rotate(-89.21)"/><path class="cls-66" d="M221.11,130.24c-7.18-.1-13.09,6.16-13.19,14s5.62,14.24,12.8,14.34,13.09-6.16,13.2-14S228.29,130.34,221.11,130.24Z"/><path class="cls-67" d="M221.11,130.38c-7.11-.1-13,6.1-13.06,13.84s5.57,14.1,12.67,14.2,13-6.1,13.07-13.84S228.22,130.48,221.11,130.38Z"/><ellipse class="cls-68" cx="220.92" cy="144.4" rx="13.88" ry="12.74" transform="translate(73.5 363.31) rotate(-89.21)"/><path class="cls-69" d="M221.11,130.66c-7-.09-12.7,6-12.8,13.57s5.45,13.81,12.42,13.91,12.69-6,12.8-13.57S228.07,130.76,221.11,130.66Z"/><ellipse class="cls-70" cx="220.92" cy="144.4" rx="13.6" ry="12.48" transform="translate(73.49 363.31) rotate(-89.21)"/><path class="cls-71" d="M221.1,131c-6.82-.1-12.43,5.85-12.53,13.28s5.34,13.53,12.16,13.62,12.44-5.85,12.54-13.28S227.92,131,221.1,131Z"/><path class="cls-72" d="M221.1,131.09c-6.75-.1-12.3,5.79-12.4,13.14s5.28,13.39,12,13.48,12.31-5.79,12.41-13.14S227.85,131.18,221.1,131.09Z"/><path class="cls-73" d="M221.1,131.23c-6.68-.09-12.17,5.73-12.27,13s5.23,13.25,11.91,13.34,12.17-5.73,12.27-13S227.78,131.32,221.1,131.23Z"/><path class="cls-74" d="M221.1,131.37c-6.61-.09-12,5.67-12.14,12.86s5.17,13.11,11.78,13.2,12-5.67,12.14-12.87S227.7,131.46,221.1,131.37Z"/><path class="cls-75" d="M221.09,131.51c-6.53-.09-11.91,5.61-12,12.73s5.12,13,11.65,13,11.91-5.61,12-12.73S227.63,131.6,221.09,131.51Z"/><path class="cls-76" d="M221.09,131.65c-6.46-.08-11.78,5.55-11.87,12.59s5.06,12.82,11.52,12.9,11.78-5.54,11.88-12.58S227.55,131.74,221.09,131.65Z"/><path class="cls-77" d="M221.09,131.8c-6.39-.09-11.65,5.48-11.74,12.44s5,12.67,11.39,12.76,11.65-5.48,11.75-12.44S227.48,131.88,221.09,131.8Z"/><path class="cls-78" d="M221.09,131.94c-6.32-.09-11.52,5.42-11.61,12.3s5,12.53,11.27,12.62,11.51-5.42,11.61-12.3S227.41,132,221.09,131.94Z"/><path class="cls-79" d="M221.09,132.08c-6.25-.09-11.39,5.36-11.48,12.16s4.89,12.39,11.14,12.48,11.38-5.36,11.48-12.16S227.33,132.16,221.09,132.08Z"/><path class="cls-80" d="M221.08,132.22c-6.17-.08-11.25,5.3-11.34,12s4.83,12.24,11,12.33,11.26-5.3,11.35-12S227.26,132.31,221.08,132.22Z"/><path class="cls-81" d="M221.08,132.36c-6.1-.08-11.12,5.24-11.21,11.89s4.78,12.1,10.88,12.19,11.13-5.24,11.22-11.89S227.19,132.45,221.08,132.36Z"/><path class="cls-82" d="M221.08,132.5c-6-.08-11,5.18-11.08,11.75s4.72,12,10.75,12,11-5.17,11.09-11.74S227.11,132.59,221.08,132.5Z"/><path class="cls-83" d="M221.08,132.65c-6-.09-10.86,5.11-11,11.6s4.67,11.82,10.63,11.9,10.86-5.11,11-11.6S227,132.73,221.08,132.65Z"/><path class="cls-84" d="M221.08,132.79c-5.89-.08-10.74,5.05-10.82,11.46s4.61,11.68,10.5,11.76,10.73-5,10.82-11.46S227,132.87,221.08,132.79Z"/><path class="cls-85" d="M221.07,132.93c-5.81-.08-10.6,5-10.68,11.32s4.55,11.54,10.37,11.62,10.6-5,10.69-11.33S226.89,133,221.07,132.93Z"/><path class="cls-86" d="M221.07,133.07c-5.74-.08-10.47,4.93-10.55,11.19s4.5,11.39,10.24,11.47,10.47-4.93,10.56-11.19S226.82,133.15,221.07,133.07Z"/></g><g class="cls-6"><circle class="cls-5" cx="278.2" cy="146.17" r="22.66" transform="translate(9.63 309.36) rotate(-59)"/><circle class="cls-7" cx="278.2" cy="146.17" r="22.52" transform="translate(102.4 406.67) rotate(-83.7)"/><circle class="cls-8" cx="278.2" cy="146.17" r="22.38" transform="translate(-32.82 191.21) rotate(-35.96)"/><circle class="cls-9" cx="278.2" cy="146.17" r="22.24" transform="translate(83.02 392.48) rotate(-79.32)"/><circle class="cls-10" cx="278.2" cy="146.17" r="22.09" transform="translate(-33.36 187.29) rotate(-35.24)"/><circle class="cls-11" cx="278.2" cy="146.17" r="21.95" transform="translate(-33.3 104.59) rotate(-20.11)"/><circle class="cls-12" cx="278.2" cy="146.17" r="21.81" transform="translate(11.33 312.14) rotate(-59.59)"/><circle class="cls-13" cx="278.2" cy="146.17" r="21.67" transform="translate(-1.42 289.61) rotate(-54.88)"/><circle class="cls-14" cx="278.2" cy="146.17" r="21.53" transform="translate(-2.61 287.28) rotate(-54.4)"/><circle class="cls-15" cx="278.2" cy="146.17" r="21.39" transform="translate(-34.75 117.46) rotate(-22.48)"/><circle class="cls-16" cx="278.2" cy="146.17" r="21.24" transform="translate(-35.14 170.3) rotate(-32.12)"/><circle class="cls-17" cx="278.2" cy="146.17" r="21.1" transform="translate(37.02 347.66) rotate(-67.59)"/><circle class="cls-18" cx="278.2" cy="146.17" r="20.96" transform="translate(-33.04 102.69) rotate(-19.76)"/><circle class="cls-19" cx="278.2" cy="146.17" r="20.82" transform="translate(-21.88 239.53) rotate(-45)"/><circle class="cls-20" cx="278.2" cy="146.17" r="20.68" transform="translate(62.65 374.87) rotate(-74.41)"/><circle class="cls-21" cx="278.2" cy="146.17" r="20.54" transform="translate(23.7 330.55) rotate(-63.64)"/><path class="cls-22" d="M278.49,125.78a20.4,20.4,0,1,0,20.11,20.67A20.4,20.4,0,0,0,278.49,125.78Z"/><circle class="cls-23" cx="278.2" cy="146.17" r="20.25" transform="translate(-26.9 70.84) rotate(-13.85)"/><path class="cls-24" d="M278.48,126.06a20.11,20.11,0,1,0,19.83,20.39A20.11,20.11,0,0,0,278.48,126.06Z"/><path class="cls-25" d="M278.48,126.21a20,20,0,1,0,19.69,20.24A20,20,0,0,0,278.48,126.21Z"/><circle class="cls-26" cx="278.2" cy="146.17" r="19.83" transform="translate(-12.82 27.56) rotate(-5.54)"/><circle class="cls-27" cx="278.2" cy="146.17" r="19.69" transform="translate(-33.19 188.61) rotate(-35.48)"/><circle class="cls-28" cx="278.2" cy="146.17" r="19.54" transform="translate(99.42 404.63) rotate(-83.04)"/><circle class="cls-29" cx="278.2" cy="146.17" r="19.4" transform="translate(114.67 414.54) rotate(-86.36)"/><circle class="cls-30" cx="278.2" cy="146.17" r="19.26" transform="translate(-31.96 196.81) rotate(-36.99)"/><circle class="cls-31" cx="278.2" cy="146.17" r="19.12" transform="translate(112.61 413.27) rotate(-85.92)"/><path class="cls-32" d="M278.47,127.2a19,19,0,1,0,18.71,19.24A19,19,0,0,0,278.47,127.2Z"/><path class="cls-33" d="M278.46,127.34A18.84,18.84,0,1,0,297,146.43,18.83,18.83,0,0,0,278.46,127.34Z"/><circle class="cls-34" cx="278.2" cy="146.17" r="18.69" transform="translate(2.99 297.91) rotate(-56.59)"/><circle class="cls-35" cx="278.2" cy="146.17" r="18.55" transform="translate(-21.88 239.53) rotate(-45)"/><circle class="cls-36" cx="278.2" cy="146.17" r="18.41" transform="translate(-18.07 41.37) rotate(-8.24)"/><circle class="cls-37" cx="278.2" cy="146.17" r="18.27" transform="translate(-34.67 116.66) rotate(-22.33)"/><circle class="cls-38" cx="278.2" cy="146.17" r="18.13" transform="translate(-34.17 180.59) rotate(-34.01)"/><circle class="cls-39" cx="278.2" cy="146.17" r="17.99" transform="translate(54.87 367.28) rotate(-72.43)"/><circle class="cls-40" cx="278.2" cy="146.17" r="17.85" transform="translate(-34.78 174.6) rotate(-32.91)"/><circle class="cls-41" cx="278.2" cy="146.17" r="17.7" transform="translate(-21.88 239.53) rotate(-45)"/><circle class="cls-42" cx="278.2" cy="146.17" r="17.56" transform="translate(19.93 325.23) rotate(-62.45)"/><path class="cls-43" d="M278.44,128.76a17.42,17.42,0,1,0,17.18,17.65A17.4,17.4,0,0,0,278.44,128.76Z"/><path class="cls-44" d="M278.44,128.9a17.28,17.28,0,1,0,17,17.51A17.27,17.27,0,0,0,278.44,128.9Z"/><circle class="cls-45" cx="278.2" cy="146.17" r="17.14" transform="translate(-31.54 93.02) rotate(-17.98)"/><circle class="cls-46" cx="278.2" cy="146.17" r="17" transform="translate(-31.23 91.25) rotate(-17.65)"/><path class="cls-47" d="M278.44,129.32a16.86,16.86,0,1,0,16.62,17.09A16.86,16.86,0,0,0,278.44,129.32Z"/><circle class="cls-48" cx="278.2" cy="146.17" r="16.71" transform="translate(107.18 409.83) rotate(-84.75)"/><circle class="cls-49" cx="278.2" cy="146.17" r="16.57"/><circle class="cls-50" cx="278.2" cy="146.17" r="16.43"/><path class="cls-51" d="M278.43,129.89a16.29,16.29,0,1,0,16.06,16.51A16.28,16.28,0,0,0,278.43,129.89Z"/><path class="cls-52" d="M278.43,130a16.15,16.15,0,1,0,15.92,16.37A16.15,16.15,0,0,0,278.43,130Z"/><circle class="cls-53" cx="278.2" cy="146.17" r="16" transform="matrix(1, -0.09, 0.09, 1, -11.99, 25.53)"/><path class="cls-54" d="M278.42,130.31a15.86,15.86,0,1,0,15.64,16.08A15.87,15.87,0,0,0,278.42,130.31Z"/><circle class="cls-55" cx="278.2" cy="146.17" r="15.72" transform="translate(-24.65 62.26) rotate(-12.23)"/><circle class="cls-56" cx="278.2" cy="146.17" r="15.58" transform="translate(-23.9 232.75) rotate(-43.71)"/><path class="cls-57" d="M278.42,130.74a15.44,15.44,0,1,0,15.22,15.65A15.44,15.44,0,0,0,278.42,130.74Z"/><circle class="cls-58" cx="278.2" cy="146.17" r="15.3" transform="translate(-29.47 210.21) rotate(-39.48)"/><circle class="cls-59" cx="278.2" cy="146.17" r="15.15" transform="translate(-15.47 34.28) rotate(-6.86)"/><path class="cls-60" d="M278.41,131.16a15,15,0,1,0,14.81,15.22A15,15,0,0,0,278.41,131.16Z"/><circle class="cls-61" cx="278.2" cy="146.17" r="14.87" transform="translate(46.68 358.69) rotate(-70.27)"/><path class="cls-62" d="M278.41,131.45a14.73,14.73,0,1,0,14.52,14.93A14.72,14.72,0,0,0,278.41,131.45Z"/><circle class="cls-63" cx="278.2" cy="146.17" r="14.59" transform="translate(-34.32 113.11) rotate(-21.68)"/><circle class="cls-64" cx="278.2" cy="146.17" r="14.45" transform="translate(-21.88 239.53) rotate(-45)"/><circle class="cls-65" cx="278.2" cy="146.17" r="14.3" transform="translate(21.76 327.84) rotate(-63.03)"/><circle class="cls-66" cx="278.2" cy="146.17" r="14.16" transform="translate(-35.86 134.84) rotate(-25.65)"/><circle class="cls-67" cx="278.2" cy="146.17" r="14.02" transform="translate(-32.89 101.61) rotate(-19.57)"/><circle class="cls-68" cx="278.2" cy="146.17" r="13.88" transform="translate(-34.34 113.33) rotate(-21.72)"/><circle class="cls-69" cx="278.2" cy="146.17" r="13.74" transform="translate(7.14 305.19) rotate(-58.12)"/><circle class="cls-70" cx="278.2" cy="146.17" r="13.6" transform="translate(52.73 365.1) rotate(-71.87)"/><path class="cls-71" d="M278.39,132.72a13.46,13.46,0,1,0,13.27,13.64A13.46,13.46,0,0,0,278.39,132.72Z"/><circle class="cls-72" cx="278.2" cy="146.17" r="13.31" transform="translate(-29.5 210.07) rotate(-39.45)"/><path class="cls-73" d="M278.39,133a13.17,13.17,0,1,0,13,13.36A13.18,13.18,0,0,0,278.39,133Z"/><circle class="cls-74" cx="278.2" cy="146.17" r="13.03" transform="translate(27.04 335.07) rotate(-64.67)"/><circle class="cls-75" cx="278.2" cy="146.17" r="12.89" transform="translate(81.02 390.88) rotate(-78.86)"/><path class="cls-76" d="M278.38,133.43A12.75,12.75,0,1,0,291,146.35,12.74,12.74,0,0,0,278.38,133.43Z"/><path class="cls-77" d="M278.38,133.57a12.61,12.61,0,1,0,12.43,12.78A12.61,12.61,0,0,0,278.38,133.57Z"/><circle class="cls-78" cx="278.2" cy="146.17" r="12.46" transform="translate(-22.43 54.62) rotate(-10.78)"/><path class="cls-79" d="M278.37,133.85a12.32,12.32,0,1,0,12.15,12.49A12.33,12.33,0,0,0,278.37,133.85Z"/><path class="cls-80" d="M278.37,134a12.18,12.18,0,1,0,12,12.34A12.17,12.17,0,0,0,278.37,134Z"/><path class="cls-81" d="M278.37,134.14a12,12,0,1,0,11.87,12.2A12,12,0,0,0,278.37,134.14Z"/><circle class="cls-82" cx="278.2" cy="146.17" r="11.9" transform="matrix(0.13, -0.99, 0.99, 0.13, 98.32, 403.87)"/><circle class="cls-83" cx="278.2" cy="146.17" r="11.76" transform="translate(111.22 412.41) rotate(-85.62)"/><path class="cls-84" d="M278.36,134.56a11.62,11.62,0,1,0,11.46,11.77A11.61,11.61,0,0,0,278.36,134.56Z"/><circle class="cls-85" cx="278.2" cy="146.17" r="11.47" transform="translate(-32.33 97.86) rotate(-18.88)"/><path class="cls-86" d="M278.36,134.85a11.33,11.33,0,1,0,11.17,11.48A11.31,11.31,0,0,0,278.36,134.85Z"/></g><ellipse class="cls-5" cx="311.69" cy="142.65" rx="16.64" ry="11.38" transform="translate(83.26 398.23) rotate(-72.8)"/><path class="cls-3" d="M317.57,147.45c-5.74,3.66-11.85,2.47-16.27-1.14.11,7.33-1.48,21.25-12,35.43-8.47,11.38-26.74,15.12-40.3,14.6-32.36-1.23-40.86-11.14-47.49-24.5,4.54,14.65,15.72,28.22,41.16,30,47.15,3.29,60.16-16.35,62-44.31a7.82,7.82,0,0,0,1.75.9c5.91,2.13,13.06-3.21,16-11.92a23.47,23.47,0,0,0,1.2-6.64A14.56,14.56,0,0,1,317.57,147.45Z"/><path class="cls-3" d="M307.14,142.68l5.41.79c0-8.54,6.3-11.38,6.3-11.38C308.57,128.37,307.14,142.68,307.14,142.68Z"/><path class="cls-87" d="M229.5,162.78s-.95,3.18.61,4.74,6.06,5.65,20,5c13.2-.63,19.18-5.5,20.35-7.75s-.16-5.52-.16-5.52Z"/><path class="cls-1" d="M278.5,121.15c-11.23-1-15.24,10.35-15.24,10.35s2.3,3.11,14.1,3.35c13.65.27,12.72-4.93,12.72-4.93S289.73,122.15,278.5,121.15Z"/><path class="cls-1" d="M210.18,129s-1.34,4.57,10.89,5.1c12.84.56,14-1.5,14-1.5S222.86,109.89,210.18,129Z"/><path class="cls-88" d="M229.27,134c.07-.18.15-.35.21-.53,1.4-4.25.38-8.41-2.3-9.3s-6,1.85-7.38,6.1a11.78,11.78,0,0,0-.59,3.65c.59.05,1.2.09,1.86.12A71.41,71.41,0,0,0,229.27,134Z"/><path class="cls-89" d="M281.15,134c1.4-4.71.38-9.33-2.29-10.3s-6,2-7.38,6.75a16.35,16.35,0,0,0-.56,3.88,52.1,52.1,0,0,0,6.44.51c1.3,0,2.47,0,3.52-.07C281,134.53,281.07,134.27,281.15,134Z"/><path class="cls-4" d="M222,119.56c-9.24-.39-11.81,9.41-11.81,9.41a15.43,15.43,0,0,1,11.15-4.87c7.84-.07,13.7,8.47,13.7,8.47S234.47,120.09,222,119.56Z"/><path class="cls-90" d="M212.18,110.68l.78,4.46c12-7.47,28-6.92,28-6.92l.68-11C220.29,99,212.18,110.68,212.18,110.68Z"/><path class="cls-90" d="M263.68,96.91l-2.42,9.77s20.52,2.49,29.68,10.09l1.74-4.24S284.47,100.07,263.68,96.91Z"/><path class="cls-4" d="M277.14,119.53c-12.6-.75-13.9,11.73-13.9,11.73s3.05-7,14-6.2,12.88,4.86,12.88,4.86S289.19,120.26,277.14,119.53Z"/><path class="cls-91" d="M271.73,158.66v0Z"/><path class="cls-5" d="M242.4,138.64s-8.49-6.22-11.54,4.62,18.56,17.36,24.54,6S246,116.77,246,116.77,249,129.81,242.4,138.64Z"/><path class="cls-92" d="M307.86,128.75H302c-1.06,11.18-4.86,18.21-9.23,22.63a12.66,12.66,0,0,1-13.3,2.94c-6.82-2.43-16.95-6.68-35-5,0,0-32.29,17.57-40-3.16a58.94,58.94,0,0,1-3.19-17.41c-7.24,29.44-10.46,75.57,50.53,75.56,61.94,0,53.55-47.57,53.55-47.57C302.4,146.29,307.86,128.75,307.86,128.75Zm-35,40c-3.79,4.45-10.85,8.46-21.1,9.07-1,.06-1.92.08-2.84.08-10,0-17-3.26-21.2-6.19a5.12,5.12,0,0,1-.23-8.28h0a72.85,72.85,0,0,0,23.55,2.41A56.2,56.2,0,0,0,272,160.65C274.9,162.4,275.08,166.16,272.89,168.72Z"/><path class="cls-93" d="M242.4,138.64s-8.25-5.85-11.32,3.89a76.76,76.76,0,0,0,13.5,2.09c2.73-6.49,3.6-13.54,3.87-21.18l-1.85-.53C246.77,127.49,246.18,133.56,242.4,138.64Z"/><path class="cls-92" d="M256.34,43.87c-59.95,4-51.24,70.43-51.24,70.43C208.67,94.54,221,70,230.46,69.54a36,36,0,0,0,20.47,7c11,.22,26.21-7.77,26.21-7.77,11-.26,23.49,33.66,24.95,61,.33,6.25,5.77-1,5.77-1S315.08,40,256.34,43.87Z"/><path class="cls-92" d="M287.67,49.05c-17.72-27-75.49-19.2-75.49-19.2C206.58,60.55,228,67.47,228,67.47s50-8.92,57.58-3.58S308,112.15,308,112.15s12.79-44.79,3.36-61.27C304.4,38.78,287.67,49.05,287.67,49.05Z"/><path class="cls-92" d="M234.53,23.61c.21,4.07,3.71,8.2,3.71,8.2S298.81,73,287.67,49.05,234.53,23.61,234.53,23.61Z"/><path class="cls-92" d="M297.49,40.82c-3.41.53-4.21,2.14-4.21,2.14,2.45-4.48.76-10.59.76-10.59-6.65,3.81-6,9.13-6,9.13-3.26-6.83-13.31-9-13.31-9,.32,5.65,6.35,11.41,6.67,11.59l5.22,7.94,10.8-1.7-1.07-4.82A5.9,5.9,0,0,0,297.49,40.82Z"/><path class="cls-90" d="M213.8,53.21c-17.61,5.36-12.51,75.53-12.51,75.53C204.86,109,221,70,230.46,69.54A62.2,62.2,0,0,1,213.8,53.21Z"/><path class="cls-94" d="M282.36,48.54s.09,0,0,0Z"/><path class="cls-94" d="M282.36,48Z"/><path class="cls-95" d="M304.5,45.44c-2.16.34-4.44.88-6.78,1.41-5.61,1.28-11.51,2.13-17.25,1.36-6.68-.89-12.54-3.88-18.47-6.87-3-1.51-6-3.05-9.06-4.37-6.6-2.83-14.39-5.61-21.67-5.37a30.61,30.61,0,0,0-10.46,2.57,22.71,22.71,0,0,0-7.46,5,22.33,22.33,0,0,0-2,2.37,37.94,37.94,0,0,0,.87,6.61l.72-.58A22.29,22.29,0,0,1,217.37,45a19.88,19.88,0,0,1,6-1.51c8.66-.67,16.7,2.81,24.53,6,3.2,1.33,6.46,2.87,9.9,4.29a105.5,105.5,0,0,0,10.77,4c6.31,1.93,14,2.51,20.44.73.87-.24,1.72-.45,2.56-.7a58.49,58.49,0,0,0,8.71-3.69c2.5-1.29,4.65-2.46,6.54-3.35a23.59,23.59,0,0,1,3.55-1.42A10.67,10.67,0,0,0,304.5,45.44Z"/><path class="cls-94" d="M282.22,48.54h0Z"/><path class="cls-3" d="M230.64,146.29c1.23,8.91,19.36,13.23,24.76,3a11.16,11.16,0,0,0,.79-2A53.78,53.78,0,0,1,230.64,146.29Z"/><path class="cls-96" d="M248.12,182.11a32.49,32.49,0,0,0,10.56-1.05,3.34,3.34,0,0,1,4.19,3.41c-.21,2.24-2.08,4.68-8.76,5.47-6.85.81-9.06-1.41-9.59-3.76A3.38,3.38,0,0,1,248.12,182.11Z"/><polygon class="cls-97" points="282.16 476.97 268.15 500 282.98 500 295.94 476.97 282.16 476.97"/><path class="cls-98" d="M169.38,476.24A121.05,121.05,0,0,0,168.07,500H313l.64-27.56Z"/><path class="cls-98" d="M165.7,500h3.41l-3.35-1.14C165.74,499.16,165.72,499.56,165.7,500Z"/><path class="cls-98" d="M312.65,493.64,268.94,500h46.5C315.29,495.75,314.49,493.54,312.65,493.64Z"/><path class="cls-3" d="M203.24,220.88v31.61h93.93l-2.92-34.32C266.08,209.84,230.51,209.48,203.24,220.88Z"/><path class="cls-99" d="M300,218c-2.45-.7-4.81,1.65-7.41,1-2.72,16.21-23.27,16.84-45.59,17.2-20.15.32-29.29-4-32.85-19.49-6.67,1.16-23.7,6.58-33.14,12.62V500H308V220.41A49,49,0,0,0,300,218Z"/><path class="cls-2" d="M236.71,243.57c-.85-4.22-13.57-16.42-16.26-28.12-12.09,0-36.19,9.83-43.56,17-15.79,15.42-16,53.27-17.47,108.27-1.58,57.62-1.63,53.54-8.73,159.24h72.57C220.72,412.61,235.51,255.94,236.71,243.57Z"/><path class="cls-2" d="M334.47,267.26c0-5.32,1-41.87-34.48-49.23-2.45-.7-13.68-3.64-16.28-4.32-2.34,13.91-8,11.12-24.6,29.52C257.58,258.53,246,378,247.17,500h90.52C332.58,435.92,334.33,322,334.47,267.26Z"/><path class="cls-100" d="M214,216.12h0s-6.12,27.57,0,39.57c0,0,1.57-17.24,9.15-14.25,5,2,10,9.17,12.77,13.65.38-6,.66-10,.8-11.52-.82-4.09-12.77-15.67-16-27A36.14,36.14,0,0,0,214,216.12Z"/><path class="cls-101" d="M210.61,402.42c3.46-74.19,14.88-161.2,16.46-173-.34-.5-.67-1-1-1.52l-4.76-.65c-.13.94-13,95.26-16.69,174.91-1.93,41.44-1.86,75.05-1.35,97.86h6C208.75,477.32,208.68,443.81,210.61,402.42Z"/><path class="cls-101" d="M267,402.88c.19-83.22,10-172.08,10.14-173l-3.63-.41c-.81.67-1.67,1.39-2.6,2.18-1.58,14.88-9.73,95.35-9.9,171.18-.1,41,1.11,74.06,2.38,97.14h6C268.16,477,266.94,444,267,402.88Z"/><path class="cls-100" d="M287.94,216.12a33.75,33.75,0,0,0-4.75.17c-2.63,11-8.59,9.77-24.08,26.94-.19,1.85-1,7.75-1.4,14.82,5.09-5.32,16.84-14.93,21.09-16.61,7.59-3,9.16,14.25,9.16,14.25,6.1-12,0-39.56,0-39.57Z"/><polygon class="cls-101" points="170.81 270.82 167.77 277.14 220.04 268.35 219.08 262.43 170.81 270.82"/><path class="cls-101" d="M225.5,203.58s-4,2.32-12.26,13.57-.75,34.54-.75,34.54,1.25-5.5,4-14.71c4-13.53,20.22,6.59,20.22,6.59A47.76,47.76,0,0,0,232,228.22C224.75,214.75,225.5,203.58,225.5,203.58Z"/><path class="cls-102" d="M232,228.22c-7.23-13.47-6.48-24.64-6.48-24.64l-.1.07c-1.56,4-3.58,7.35-4.52,11.72a71.44,71.44,0,0,0-1.7,12.95c-.05,1.52,0,3,.07,4.54,6.05-3.48,17.46,10.71,17.46,10.71A47.76,47.76,0,0,0,232,228.22Z"/><ellipse class="cls-103" cx="221.54" cy="347.59" rx="4.02" ry="3.56"/><path class="cls-103" d="M217,398a3.59,3.59,0,1,0,4,3.56A3.81,3.81,0,0,0,217,398Z"/><ellipse class="cls-103" cx="215.54" cy="443.55" rx="4.02" ry="3.56"/><path class="cls-103" d="M215.54,483.47a3.59,3.59,0,1,0,4,3.57A3.82,3.82,0,0,0,215.54,483.47Z"/><ellipse class="cls-103" cx="229.04" cy="260.62" rx="4.02" ry="3.56"/><ellipse class="cls-103" cx="225.01" cy="300.88" rx="4.02" ry="3.56"/><rect class="cls-101" x="292.24" y="244.42" width="6" height="49.55" transform="translate(-28.1 503.9) rotate(-78.33)"/><path class="cls-101" d="M277.84,205s.16,6-7.13,16.58c-4.6,6.68-10.49,12.74-11.66,22.23,0,0,22.35-20.36,26.4-6.83,2.76,9.21,4,14.71,4,14.71s8.91-23.72.67-35S277.84,205,277.84,205Z"/><path class="cls-102" d="M279.45,227.13c1.21-7.47,1.34-15.07-1.49-22.11l-.12,0s.16,6-7.13,16.58c-4.6,6.68-10.49,12.74-11.66,22.23,0,0,11-10,19-11.32A30.49,30.49,0,0,0,279.45,227.13Z"/><path class="cls-101" d="M164.5,270.87a160,160,0,0,0-3.75,27.65c-.59,12.64-.91,26.76-1.33,42.24-.11,3.91-.21,7.52-.31,10.91,7.22-92.52,27-124.83,33-131.76a28.68,28.68,0,0,0-11.1,3.75C174.91,231.93,169.23,249.83,164.5,270.87Z"/><path class="cls-101" d="M334.16,389h0c-1-19,.11-37.84.18-55.54-6.52-70.73-19-101.9-26.39-115.23-.66-.27-3-1.85-9.09-2.22C298.84,216,326.16,271,334.16,389Z"/><path class="cls-101" d="M167.43,345.84a9.33,9.33,0,0,0,4.44,8.65l8.6,5.25a7.35,7.35,0,0,0,7.77-.07l11.17-7.08a9.06,9.06,0,0,0,4.17-6.95l2.68-35.19H170Z"/><path class="cls-101" d="M277,314.48V349.4a10.27,10.27,0,0,0,4.35,8.4l7.31,5.16a10.67,10.67,0,0,0,12.9-.46l10.74-8.76A12.93,12.93,0,0,0,317,343.31l-1-28.83Z"/><path class="cls-104" d="M352,335.11C335.78,332.18,321,340.53,312.2,353c-19.85,28.11,2.5,76.59,39.93,76.49,35.94-.09,47.67-43.7,31.26-73-5.79-10.35-16.47-17.6-27.54-20.5Q353.92,335.44,352,335.11Z"/><ellipse class="cls-104" cx="138.03" cy="380.46" rx="45.11" ry="40.71" transform="translate(-265.23 414.89) rotate(-74.94)"/><path class="cls-3" d="M289.38,318.12s6.83-10.81,8.09-14.5,4-3.89,7.68-6.21,7.9-5.68,9.79-6.73,7.26,4,1.37,11.26S289.38,318.12,289.38,318.12Z"/><path class="cls-105" d="M334.08,370.14a14.25,14.25,0,0,0-2.46.2c-3.19.7-21.87-2.11-47.12-2.11-22.62,0-43.7-6.43-58.43-11.06s-19.9-10.06-33.37-9.85S168.25,356,164,363.25a109.15,109.15,0,0,0-5.58,11c-.75,21.06-1.68,35.9-4.26,74.25,8.29.2,17,.17,25.34-.2,28.2-1.26,61.26-18.89,61.26-18.89s59.49,26.06,94.47,22.43C334.43,426.09,334.14,397.66,334.08,370.14Z"/><path class="cls-5" d="M152.17,345.83c-10.39-2.52-29.66-4.95-41.17,17.79-7.41,14.63-4,32.3-.66,43a17.14,17.14,0,0,0,14.24,12c12.91,1.59,35.06,2.62,54.92,1.73,28.2-1.26,67.59-24.83,67.59-24.83L272.29,378c-7.49-6.09-14.94-12.22-22.15-18.65C234.5,361.26,162.28,348.29,152.17,345.83Z"/><path class="cls-5" d="M369.56,317.83a3.62,3.62,0,0,0,1.61-3.3c0-2.45-2.74-4.28-6.59-5.68s-7.16-2.74-7.16-2.74c3.79-2.59,2-6.66.63-6.94s-6.94-2.46-10-3.3-18.94-1.33-22.73-1.05S316.38,298.26,307,303s-20.49,13.75-24.49,19.29-4.84,15.22-7.08,21.12-11.23,12.91-24.14,15.71c-.33.07-.71.13-1.13.18,7.21,6.43,14.66,12.56,22.15,18.65l41-28.48c7.68,1.16,15.47-6.92,17.16-7.2s4.18-2.92,7.28-4.24c5.63-2.38,13.87-2.28,19.94-3.88a6.93,6.93,0,0,0,5.26-6.32c5-.42,8.7-2.8,8.84-5.82A4.5,4.5,0,0,0,369.56,317.83Z"/><path class="cls-106" d="M248,372c-7.51-4.58-16.19-8.87-23.76-14.23-27.26-3.3-64.93-10.2-72-11.93-10.39-2.52-29.66-4.95-41.17,17.79-7.41,14.63-4,32.3-.66,43a17.14,17.14,0,0,0,14.24,12c12.91,1.59,35.06,2.62,54.92,1.73,28.2-1.26,67.59-24.83,67.59-24.83l18.39-12.79Q256.72,377.34,248,372ZM130.33,398c-13.66-7-21.33-14.34-11-30s49.1-7.18,49.1-7.18c11.76,3.48,37.24,18.85,40.94,22S144,405,130.33,398Z"/><path class="cls-106" d="M248,372c-7.51-4.58-16.19-8.87-23.76-14.23-27.26-3.3-64.93-10.2-72-11.93,0,0,18.08,5.3,25.08,8.74A157,157,0,0,1,212.5,378c7.66,6.84,13.1,17.59,6.32,27.29-2.9,4.15-7.41,7.05-12.38,8.82-.06.14-.11.29-.18.42,21.36-7.36,40.83-19,40.83-19l18.39-12.79Q256.72,377.34,248,372Z"/><path class="cls-107" d="M346.79,334.13c-4,.16-7,.37-11.41,3-5.43,3.18-9.37,3.05-15.53,2.56-6.85-.54-13.39-1.67-20.29-1.84-4.79-.12-22.6-2.35-18.44-13.26-2.86,5.65-3.75,13.7-5.71,18.85-2.25,5.89-11.23,12.91-24.14,15.71-4.17.91-14.92.1-27.9-1.49,3.38,2,6.72,4,10,6.23,10,6.64,19.69,13.73,29.49,20.65l50.4-35c7.68,1.16,15.47-6.92,17.16-7.2s4.18-2.92,7.28-4.24c5.63-2.38,13.87-2.28,19.94-3.88a6.76,6.76,0,0,0,5-4.95C360.32,334.06,351.07,334,346.79,334.13Z"/><path class="cls-5" d="M164,335.25c4.25-7.3,15.23-15.72,28.7-15.93s18.64,5.22,33.37,9.85,35.81,11.06,58.43,11.06c25.25,0,43.93,2.81,47.12,2.11s26-.09,37.88,9.33c19.25,15.25,12.75,49.9-4.75,66.33-15.88,14.91-74.1.54-107-20-36.92-23-72-43.76-80-46.34-8.25-2.67-19.89-4.08-19.89-4.08A108.25,108.25,0,0,1,164,335.25Z"/><path class="cls-108" d="M369.5,351.67c-9.8-7.77-27.05-9.55-34.57-9.54,24.45,9,28.16,25.64,26.54,35.92-1.5,9.43-9.23,16.09-18.29,18.06-11.33,2.46-24.34-.84-35.06-4.57-11.72-4.07-22.65-10.06-33.49-16-11.27-6.19-22.54-12.51-34.74-16.69-13.38-4.58-27.36-7.16-40.68-11.93-7.07-2.53-22-6.13-21.5-15.91.26-4.77,4.66-8.34,8.83-10,5.66-2.21,11.69-.44,17.52-.27a37.67,37.67,0,0,0-11.36-1.44c-13.47.21-24.45,8.63-28.7,15.93a108.25,108.25,0,0,0-6.14,12.34s11.64,1.41,19.89,4.08c8,2.58,43,23.34,80,46.34,32.94,20.53,91.16,34.9,107,20C382.25,401.57,388.75,366.92,369.5,351.67Z"/><path class="cls-109" d="M341.43,304.17a155,155,0,0,0,19,3.14c-1.82-.7-3-1.2-3-1.2a4.55,4.55,0,0,0,2.2-4.73c-1.37,4.12-10.33,2.68-17.71.85-10.74-2.65-18.18,1.48-24.16,4.8l-1.19.66a61,61,0,0,1-11.05,4.77c.55,1.73,7.2-.37,12-3l1.2-.67C324.69,305.46,331.45,301.7,341.43,304.17Z"/><path class="cls-109" d="M358.89,316.4A91.06,91.06,0,0,1,371,319.14h0a4.37,4.37,0,0,0-1.12-1.13h0l-.14-.09h0l-.09,0h0l0,0a3.62,3.62,0,0,0,1.61-3.31l-.3-.13c-1.81,2.07-7.89.57-11.7,0-6.31-.9-19.35-1.64-25.43-.74-5.05.75-26.08,8.42-22,9.28,1.67.35,17.5-6.59,22.26-7.3C339.39,314.87,352,315.42,358.89,316.4Z"/><path class="cls-109" d="M361.27,323a9,9,0,0,0-2.76-.09,16.34,16.34,0,0,1-4.64-.23c-4.43-.91-13.43,1.6-18.4,3.18-5.93,1.89-20.88,8.14-17.65,8.93,1.81.44,12.57-5.21,18.26-7,8.14-2.59,14.47-3.73,17.38-3.13a18.23,18.23,0,0,0,5.18.26,13.19,13.19,0,0,1,2.15,0c3.17.34,1.53,5.29,1.49,5.41a7.23,7.23,0,0,0,.61-2.45c5-.42,8.7-2.8,8.84-5.82C370.5,325.24,363,323.39,361.27,323Z"/><path class="cls-110" d="M224.9,128.11c.35.88-1,2.26-3.11,3.08s-4,.75-4.37-.13,1-2.26,3.11-3.08S224.55,127.22,224.9,128.11Z"/><path class="cls-110" d="M276.28,129.35c.35.89-.78,2.16-2.53,2.85s-3.45.54-3.8-.35.79-2.16,2.54-2.85S275.94,128.47,276.28,129.35Z"/></svg>