<svg xmlns="http://www.w3.org/2000/svg" xmlns:xlink="http://www.w3.org/1999/xlink" viewBox="0 0 293.67 476.39"><defs><style>.cls-1{fill:#6d7db3;}.cls-106,.cls-107,.cls-108,.cls-109,.cls-2{fill:#d78c74;}.cls-3{fill:#381911;}.cls-4{fill:#e5a185;}.cls-5{opacity:0.38;}.cls-6{fill:#e5a084;}.cls-7{fill:#e59f83;}.cls-8{fill:#e49e83;}.cls-9{fill:#e49d82;}.cls-10{fill:#e49c81;}.cls-11{fill:#e49b80;}.cls-12{fill:#e49a80;}.cls-13{fill:#e3997f;}.cls-14{fill:#e3987e;}.cls-15{fill:#e3977d;}.cls-16{fill:#e3967c;}.cls-17{fill:#e2957c;}.cls-18{fill:#e2947b;}.cls-19{fill:#e2937a;}.cls-20{fill:#e29279;}.cls-21{fill:#e29179;}.cls-22{fill:#e19078;}.cls-23{fill:#e18f77;}.cls-24{fill:#e18e76;}.cls-25{fill:#e18d75;}.cls-26{fill:#e18c75;}.cls-27{fill:#e08b74;}.cls-28{fill:#e08a73;}.cls-29{fill:#e08972;}.cls-30{fill:#e08872;}.cls-31{fill:#df8771;}.cls-32{fill:#df8670;}.cls-33{fill:#df856f;}.cls-34{fill:#df846f;}.cls-35{fill:#df836e;}.cls-36{fill:#de826d;}.cls-37{fill:#de816c;}.cls-38{fill:#de806b;}.cls-39{fill:#de7f6b;}.cls-40{fill:#de7e6a;}.cls-41{fill:#dd7d69;}.cls-42{fill:#dd7c68;}.cls-43{fill:#dd7b68;}.cls-44{fill:#dd7a67;}.cls-45{fill:#dd7a66;}.cls-46{fill:#dc7965;}.cls-47{fill:#dc7864;}.cls-48{fill:#dc7764;}.cls-49{fill:#dc7663;}.cls-50{fill:#db7562;}.cls-51{fill:#db7461;}.cls-52{fill:#db7361;}.cls-53{fill:#db7260;}.cls-54{fill:#db715f;}.cls-55{fill:#da705e;}.cls-56{fill:#da6f5d;}.cls-57{fill:#da6e5d;}.cls-58{fill:#da6d5c;}.cls-59{fill:#da6c5b;}.cls-60{fill:#d96b5a;}.cls-61{fill:#d96a5a;}.cls-62{fill:#d96959;}.cls-63{fill:#d96858;}.cls-64{fill:#d86757;}.cls-65{fill:#d86657;}.cls-66{fill:#d86556;}.cls-67{fill:#d86455;}.cls-68{fill:#d86354;}.cls-69{fill:#d76253;}.cls-70{fill:#d76153;}.cls-71{fill:#d76052;}.cls-72{fill:#d75f51;}.cls-73{fill:#d75e50;}.cls-74{fill:#d65d50;}.cls-75{fill:#d65c4f;}.cls-76{fill:#d65b4e;}.cls-77{fill:#d65a4d;}.cls-78{fill:#d5594c;}.cls-79{fill:#d5584c;}.cls-80{fill:#d5574b;}.cls-81{fill:#d5564a;}.cls-82{fill:#d55549;}.cls-83{fill:#d45449;}.cls-84{fill:#d45348;}.cls-85{fill:#d45247;}.cls-86{fill:#ce826e;}.cls-102,.cls-110,.cls-87,.cls-93,.cls-94{fill:#fff;}.cls-88{fill:url(#Áåçûìÿííûé_ãðàäèåíò_9);}.cls-89{fill:url(#Áåçûìÿííûé_ãðàäèåíò_9-2);}.cls-90{fill:#422e26;}.cls-91{fill:#6c332e;}.cls-92{fill:#4f372d;}.cls-93{opacity:0.2;}.cls-94{opacity:0.12;}.cls-95{fill:#e5912f;}.cls-102,.cls-95{opacity:0.11;}.cls-96{opacity:0.19;}.cls-97{fill:#3d4041;}.cls-98{fill:#363c42;}.cls-99{fill:#dfe5ea;}.cls-100{fill:#002a3d;opacity:0.08;}.cls-101{fill:#7588bc;}.cls-103{fill:#b0b5c1;}.cls-104{fill:#b6bdce;}.cls-105{fill:#0b0e3a;opacity:0.09;}.cls-106{opacity:0.4;}.cls-107{opacity:0.36;}.cls-108{opacity:0.22;}.cls-109{opacity:0.55;}.cls-110{opacity:0.82;}</style><linearGradient id="Áåçûìÿííûé_ãðàäèåíò_9" x1="126.03" y1="112.58" x2="131.17" y2="98.87" gradientUnits="userSpaceOnUse"><stop offset="0" stop-color="#5c3333"/><stop offset="1"/></linearGradient><linearGradient id="Áåçûìÿííûé_ãðàäèåíò_9-2" x1="177.48" y1="114.19" x2="182.29" y2="99.59" xlink:href="#Áåçûìÿííûé_ãðàäèåíò_9"/></defs><g id="Layer_2" data-name="Layer 2"><g id="Ñëîé_1" data-name="Ñëîé 1"><path class="cls-1" d="M287,352.35l-76.25-18.18L189.64,190.86S303.73,192.39,287,352.35Z"/><path class="cls-1" d="M117.14,193.1,61.86,352.35,6.57,356.72S9,196.84,117.14,193.1Z"/><ellipse class="cls-2" cx="102.68" cy="117.47" rx="11.38" ry="16.64" transform="translate(-27.84 31.99) rotate(-15.62)"/><path class="cls-2" d="M155.94,146.44h0c-14.22-.16-24.6,6.37-24.8,15.62L125,203.74c-.2,9.25,15,11,29.23,11.12s26.89-2.11,27.1-11.36l-.84-39.08C180.68,155.17,170.16,146.6,155.94,146.44Z"/><path class="cls-3" d="M134.26,22.38s0-.1,0-.26Z"/><path class="cls-4" d="M200.09,49.36c-3.37-20.71-61.81-30.5-79-2.06-5.49,13.19-14.41,37.81-17.38,62.27,0-.27,0-.42,0-.42s-15.92,65,42,69.08,64.32-26.48,61.86-64.5h0C207.57,92.34,204.44,65.29,200.09,49.36Z"/><g class="cls-5"><ellipse class="cls-4" cx="123.92" cy="120.79" rx="22.66" ry="20.8" transform="translate(1.44 243.03) rotate(-89.21)"/><path class="cls-6" d="M124.23,98.27c-11.42-.16-20.81,9.8-21,22.23s8.94,22.65,20.36,22.8,20.81-9.79,21-22.23S135.64,98.43,124.23,98.27Z"/><path class="cls-7" d="M124.23,98.41c-11.35-.15-20.68,9.74-20.85,22.1s8.88,22.5,20.23,22.65,20.68-9.73,20.85-22.09S135.57,98.57,124.23,98.41Z"/><ellipse class="cls-8" cx="123.92" cy="120.79" rx="22.24" ry="20.41" transform="translate(1.44 243.04) rotate(-89.21)"/><ellipse class="cls-9" cx="123.92" cy="120.79" rx="22.09" ry="20.28" transform="translate(1.44 243.03) rotate(-89.21)"/><ellipse class="cls-10" cx="123.92" cy="120.79" rx="21.95" ry="20.15" transform="translate(1.44 243.03) rotate(-89.21)"/><ellipse class="cls-11" cx="123.92" cy="120.79" rx="21.81" ry="20.02" transform="translate(1.44 243.03) rotate(-89.21)"/><path class="cls-12" d="M124.22,99.12c-11-.15-20,9.43-20.19,21.39s8.6,21.79,19.59,22,20-9.43,20.19-21.4S135.2,99.27,124.22,99.12Z"/><ellipse class="cls-13" cx="123.92" cy="120.79" rx="21.53" ry="19.76" transform="translate(1.44 243.03) rotate(-89.21)"/><ellipse class="cls-14" cx="123.92" cy="120.79" rx="21.39" ry="19.63" transform="translate(1.44 243.03) rotate(-89.21)"/><path class="cls-15" d="M124.21,99.55c-10.77-.15-19.63,9.24-19.79,21s8.43,21.36,19.2,21.51,19.64-9.24,19.8-21S135,99.69,124.21,99.55Z"/><path class="cls-16" d="M124.21,99.69c-10.7-.15-19.5,9.18-19.66,20.83s8.38,21.22,19.08,21.37,19.5-9.18,19.66-20.83S134.91,99.84,124.21,99.69Z"/><ellipse class="cls-17" cx="123.92" cy="120.79" rx="20.96" ry="19.24" transform="translate(1.44 243.03) rotate(-89.21)"/><ellipse class="cls-18" cx="123.92" cy="120.79" rx="20.82" ry="19.11" transform="translate(1.44 243.03) rotate(-89.21)"/><ellipse class="cls-19" cx="123.92" cy="120.79" rx="20.68" ry="18.98" transform="translate(1.44 243.03) rotate(-89.21)"/><path class="cls-20" d="M124.2,100.25c-10.41-.14-19,8.94-19.13,20.28s8.15,20.65,18.56,20.79,19-8.93,19.14-20.27S134.61,100.4,124.2,100.25Z"/><path class="cls-21" d="M124.2,100.4c-10.34-.15-18.85,8.87-19,20.13s8.1,20.51,18.44,20.65,18.84-8.87,19-20.13S134.54,100.54,124.2,100.4Z"/><ellipse class="cls-22" cx="123.92" cy="120.79" rx="20.25" ry="18.59" transform="translate(1.43 243.03) rotate(-89.21)"/><ellipse class="cls-23" cx="123.92" cy="120.79" rx="20.11" ry="18.46" transform="translate(1.44 243.03) rotate(-89.21)"/><ellipse class="cls-24" cx="123.92" cy="120.79" rx="19.97" ry="18.33" transform="translate(1.43 243.03) rotate(-89.21)"/><ellipse class="cls-25" cx="123.92" cy="120.79" rx="19.83" ry="18.2" transform="translate(1.43 243.03) rotate(-89.21)"/><path class="cls-26" d="M124.19,101.1c-10-.13-18.19,8.57-18.34,19.44s7.82,19.8,17.8,19.93S141.84,131.91,142,121,134.17,101.24,124.19,101.1Z"/><ellipse class="cls-27" cx="123.92" cy="120.79" rx="19.54" ry="17.94" transform="translate(1.43 243.03) rotate(-89.21)"/><ellipse class="cls-28" cx="123.92" cy="120.79" rx="19.4" ry="17.81" transform="translate(1.43 243.03) rotate(-89.21)"/><ellipse class="cls-29" cx="123.92" cy="120.79" rx="19.26" ry="17.68" transform="translate(1.43 243.03) rotate(-89.21)"/><ellipse class="cls-30" cx="123.92" cy="120.79" rx="19.12" ry="17.55" transform="translate(1.43 243.03) rotate(-89.21)"/><ellipse class="cls-31" cx="123.92" cy="120.79" rx="18.98" ry="17.42" transform="translate(1.44 243.03) rotate(-89.21)"/><ellipse class="cls-32" cx="123.92" cy="120.79" rx="18.84" ry="17.29" transform="translate(1.43 243.03) rotate(-89.21)"/><ellipse class="cls-33" cx="123.92" cy="120.79" rx="18.69" ry="17.16" transform="translate(1.43 243.03) rotate(-89.21)"/><ellipse class="cls-34" cx="123.92" cy="120.79" rx="18.55" ry="17.03" transform="translate(1.43 243.03) rotate(-89.21)"/><path class="cls-35" d="M124.17,102.38c-9.33-.13-17,8-17.15,18.18s7.31,18.51,16.64,18.64,17-8,17.16-18.18S133.51,102.51,124.17,102.38Z"/><ellipse class="cls-36" cx="123.92" cy="120.79" rx="18.27" ry="16.77" transform="translate(1.43 243.03) rotate(-89.21)"/><ellipse class="cls-37" cx="123.92" cy="120.79" rx="18.13" ry="16.64" transform="translate(1.44 243.03) rotate(-89.21)"/><ellipse class="cls-38" cx="123.92" cy="120.79" rx="17.99" ry="16.51" transform="translate(1.43 243.03) rotate(-89.21)"/><ellipse class="cls-39" cx="123.92" cy="120.79" rx="17.84" ry="16.38" transform="matrix(0.01, -1, 1, 0.01, 1.44, 243.03)"/><ellipse class="cls-40" cx="123.92" cy="120.79" rx="17.7" ry="16.25" transform="translate(1.43 243.03) rotate(-89.21)"/><ellipse class="cls-41" cx="123.92" cy="120.79" rx="17.56" ry="16.12" transform="translate(1.43 243.03) rotate(-89.21)"/><ellipse class="cls-42" cx="123.92" cy="120.79" rx="17.42" ry="15.99" transform="translate(1.43 243.03) rotate(-89.21)"/><ellipse class="cls-43" cx="123.92" cy="120.79" rx="17.28" ry="15.86" transform="translate(1.44 243.03) rotate(-89.21)"/><ellipse class="cls-44" cx="123.92" cy="120.79" rx="17.14" ry="15.73" transform="translate(1.43 243.03) rotate(-89.21)"/><ellipse class="cls-45" cx="123.92" cy="120.79" rx="17" ry="15.6" transform="translate(1.43 243.03) rotate(-89.21)"/><ellipse class="cls-46" cx="123.92" cy="120.79" rx="16.85" ry="15.47" transform="translate(1.43 243.03) rotate(-89.21)"/><ellipse class="cls-47" cx="123.92" cy="120.79" rx="16.71" ry="15.34" transform="translate(1.44 243.04) rotate(-89.21)"/><ellipse class="cls-48" cx="123.92" cy="120.79" rx="16.57" ry="15.21" transform="translate(1.43 243.03) rotate(-89.21)"/><ellipse class="cls-49" cx="123.92" cy="120.79" rx="16.43" ry="15.08" transform="translate(1.44 243.03) rotate(-89.21)"/><ellipse class="cls-50" cx="123.92" cy="120.79" rx="16.29" ry="14.95" transform="translate(1.43 243.03) rotate(-89.21)"/><path class="cls-51" d="M124.14,104.64c-8.19-.11-14.92,7-15,15.94s6.41,16.24,14.59,16.35,14.93-7,15.05-15.94S132.33,104.76,124.14,104.64Z"/><path class="cls-52" d="M124.14,104.79c-8.12-.12-14.79,7-14.91,15.8s6.35,16.09,14.47,16.2,14.79-7,14.91-15.8S132.25,104.9,124.14,104.79Z"/><ellipse class="cls-53" cx="123.92" cy="120.79" rx="15.86" ry="14.56" transform="translate(1.44 243.03) rotate(-89.21)"/><ellipse class="cls-54" cx="123.92" cy="120.79" rx="15.72" ry="14.43" transform="translate(1.43 243.03) rotate(-89.21)"/><path class="cls-55" d="M124.13,105.21c-7.9-.11-14.4,6.78-14.51,15.38s6.18,15.67,14.08,15.78,14.4-6.78,14.52-15.38S132,105.32,124.13,105.21Z"/><ellipse class="cls-56" cx="123.92" cy="120.79" rx="15.44" ry="14.17" transform="translate(1.43 243.03) rotate(-89.21)"/><ellipse class="cls-57" cx="123.92" cy="120.79" rx="15.3" ry="14.04" transform="translate(1.44 243.03) rotate(-89.21)"/><ellipse class="cls-58" cx="123.92" cy="120.79" rx="15.15" ry="13.91" transform="translate(1.43 243.03) rotate(-89.21)"/><ellipse class="cls-59" cx="123.92" cy="120.79" rx="15.01" ry="13.78" transform="translate(1.44 243.04) rotate(-89.21)"/><ellipse class="cls-60" cx="123.92" cy="120.79" rx="14.87" ry="13.65" transform="translate(1.44 243.03) rotate(-89.21)"/><path class="cls-61" d="M124.12,106.06c-7.47-.1-13.61,6.41-13.72,14.54s5.85,14.81,13.31,14.92,13.62-6.41,13.73-14.55S131.59,106.16,124.12,106.06Z"/><ellipse class="cls-62" cx="123.92" cy="120.79" rx="14.59" ry="13.39" transform="translate(1.43 243.03) rotate(-89.21)"/><ellipse class="cls-63" cx="123.92" cy="120.79" rx="14.45" ry="13.26" transform="translate(1.44 243.04) rotate(-89.21)"/><ellipse class="cls-64" cx="123.92" cy="120.79" rx="14.3" ry="13.13" transform="translate(1.44 243.03) rotate(-89.21)"/><path class="cls-65" d="M124.11,106.63c-7.18-.1-13.09,6.16-13.19,14s5.62,14.24,12.8,14.34,13.09-6.16,13.2-14S131.29,106.73,124.11,106.63Z"/><path class="cls-66" d="M124.11,106.77c-7.11-.1-13,6.1-13.06,13.84s5.57,14.1,12.67,14.2,13-6.1,13.07-13.84S131.22,106.87,124.11,106.77Z"/><ellipse class="cls-67" cx="123.92" cy="120.79" rx="13.88" ry="12.74" transform="translate(1.44 243.04) rotate(-89.21)"/><path class="cls-68" d="M124.11,107.05c-7-.09-12.7,6-12.8,13.56s5.45,13.82,12.42,13.91,12.69-6,12.8-13.56S131.07,107.15,124.11,107.05Z"/><ellipse class="cls-69" cx="123.92" cy="120.79" rx="13.6" ry="12.48" transform="translate(1.43 243.03) rotate(-89.21)"/><path class="cls-70" d="M124.1,107.34c-6.82-.1-12.43,5.85-12.53,13.28s5.34,13.53,12.16,13.62,12.44-5.85,12.54-13.28S130.92,107.43,124.1,107.34Z"/><path class="cls-71" d="M124.1,107.48c-6.75-.1-12.3,5.79-12.4,13.14s5.28,13.39,12,13.48S136,128.31,136.14,121,130.85,107.57,124.1,107.48Z"/><path class="cls-72" d="M124.1,107.62c-6.68-.09-12.17,5.73-12.27,13s5.23,13.25,11.91,13.34,12.17-5.73,12.27-13S130.78,107.71,124.1,107.62Z"/><path class="cls-73" d="M124.1,107.76c-6.61-.09-12,5.67-12.14,12.86s5.17,13.11,11.78,13.2,12-5.67,12.14-12.87S130.7,107.85,124.1,107.76Z"/><path class="cls-74" d="M124.09,107.9c-6.53-.09-11.91,5.61-12,12.73s5.12,13,11.65,13.05,11.91-5.61,12-12.73S130.63,108,124.09,107.9Z"/><path class="cls-75" d="M124.09,108c-6.46-.09-11.78,5.55-11.87,12.59s5.06,12.81,11.52,12.9S135.52,128,135.62,121,130.55,108.13,124.09,108Z"/><path class="cls-76" d="M124.09,108.18c-6.39-.08-11.65,5.49-11.74,12.45s5,12.67,11.39,12.76,11.65-5.48,11.75-12.44S130.48,108.27,124.09,108.18Z"/><path class="cls-77" d="M124.09,108.33c-6.32-.09-11.52,5.42-11.61,12.3s5,12.53,11.27,12.62,11.51-5.42,11.61-12.3S130.41,108.41,124.09,108.33Z"/><path class="cls-78" d="M124.09,108.47c-6.25-.09-11.39,5.36-11.48,12.16s4.89,12.39,11.14,12.48,11.38-5.36,11.48-12.17S130.33,108.55,124.09,108.47Z"/><path class="cls-79" d="M124.08,108.61c-6.17-.09-11.25,5.3-11.34,12s4.83,12.25,11,12.34,11.26-5.3,11.35-12S130.26,108.69,124.08,108.61Z"/><path class="cls-80" d="M124.08,108.75c-6.1-.08-11.12,5.24-11.21,11.89s4.78,12.1,10.88,12.19,11.13-5.24,11.22-11.89S130.19,108.84,124.08,108.75Z"/><path class="cls-81" d="M124.08,108.89c-6-.08-11,5.18-11.08,11.75s4.72,12,10.75,12,11-5.17,11.09-11.74S130.11,109,124.08,108.89Z"/><path class="cls-82" d="M124.08,109c-6-.08-10.86,5.12-11,11.61s4.67,11.82,10.63,11.9,10.86-5.11,11-11.6S130,109.12,124.08,109Z"/><path class="cls-83" d="M124.08,109.18c-5.89-.08-10.74,5-10.82,11.46s4.61,11.68,10.5,11.76,10.73-5.05,10.82-11.46S130,109.26,124.08,109.18Z"/><path class="cls-84" d="M124.08,109.32c-5.82-.08-10.61,5-10.69,11.32s4.55,11.54,10.37,11.62,10.6-5,10.69-11.33S129.89,109.4,124.08,109.32Z"/><path class="cls-85" d="M124.07,109.46c-5.74-.08-10.47,4.93-10.55,11.19S118,132,123.76,132.12s10.47-4.93,10.56-11.19S129.82,109.54,124.07,109.46Z"/></g><g class="cls-5"><circle class="cls-4" cx="181.2" cy="122.56" r="22.66" transform="translate(-17.18 214.77) rotate(-59)"/><circle class="cls-6" cx="181.2" cy="122.56" r="22.52" transform="translate(39.51 289.23) rotate(-83.7)"/><circle class="cls-7" cx="181.2" cy="122.56" r="22.38" transform="translate(-37.44 129.75) rotate(-35.96)"/><circle class="cls-8" cx="181.2" cy="122.56" r="22.24" transform="translate(27.19 277.93) rotate(-79.32)"/><circle class="cls-9" cx="181.2" cy="122.56" r="22.09" transform="translate(-37.51 127) rotate(-35.24)"/><circle class="cls-10" cx="181.2" cy="122.56" r="21.95" transform="translate(-31.1 69.79) rotate(-20.11)"/><circle class="cls-11" cx="181.2" cy="122.56" r="21.81" transform="translate(-16.21 216.82) rotate(-59.59)"/><circle class="cls-12" cx="181.2" cy="122.56" r="21.67" transform="translate(-23.3 200.25) rotate(-54.88)"/><circle class="cls-13" cx="181.2" cy="122.56" r="21.53" transform="translate(-23.94 198.54) rotate(-54.4)"/><circle class="cls-14" cx="181.2" cy="122.56" r="21.39" transform="translate(-33.09 78.59) rotate(-22.48)"/><circle class="cls-15" cx="181.2" cy="122.56" r="21.24" transform="translate(-37.43 115.11) rotate(-32.12)"/><circle class="cls-16" cx="181.2" cy="122.56" r="21.1" transform="translate(-1.18 243.37) rotate(-67.59)"/><circle class="cls-17" cx="181.2" cy="122.56" r="20.96" transform="translate(-30.77 68.5) rotate(-19.76)"/><circle class="cls-18" cx="181.2" cy="122.56" r="20.82" transform="translate(-33.59 164.03) rotate(-45)"/><circle class="cls-19" cx="181.2" cy="122.56" r="20.68" transform="translate(14.46 264.17) rotate(-74.41)"/><circle class="cls-20" cx="181.2" cy="122.56" r="20.54" transform="translate(-9.07 230.51) rotate(-63.64)"/><path class="cls-21" d="M181.49,102.17a20.4,20.4,0,1,0,20.11,20.67A20.4,20.4,0,0,0,181.49,102.17Z"/><circle class="cls-22" cx="181.2" cy="122.56" r="20.25" transform="translate(-24.07 46.94) rotate(-13.85)"/><path class="cls-23" d="M181.48,102.45a20.11,20.11,0,1,0,19.83,20.39A20.11,20.11,0,0,0,181.48,102.45Z"/><path class="cls-24" d="M181.48,102.6a20,20,0,1,0,19.69,20.24A20,20,0,0,0,181.48,102.6Z"/><circle class="cls-25" cx="181.2" cy="122.56" r="19.83" transform="translate(-10.99 18.08) rotate(-5.54)"/><circle class="cls-26" cx="181.2" cy="122.56" r="19.69" transform="translate(-37.49 127.92) rotate(-35.48)"/><circle class="cls-27" cx="181.2" cy="122.56" r="19.54" transform="translate(37.6 287.59) rotate(-83.04)"/><circle class="cls-28" cx="181.2" cy="122.56" r="19.4" transform="translate(47.39 295.62) rotate(-86.36)"/><circle class="cls-29" cx="181.2" cy="122.56" r="19.26" transform="translate(-37.27 133.7) rotate(-36.99)"/><circle class="cls-30" cx="181.2" cy="122.56" r="19.12" transform="translate(46.06 294.59) rotate(-85.92)"/><path class="cls-31" d="M181.47,103.59a19,19,0,1,0,18.71,19.23A19,19,0,0,0,181.47,103.59Z"/><path class="cls-32" d="M181.46,103.73A18.84,18.84,0,1,0,200,122.82,18.83,18.83,0,0,0,181.46,103.73Z"/><circle class="cls-33" cx="181.2" cy="122.56" r="18.69" transform="translate(-20.88 206.33) rotate(-56.59)"/><circle class="cls-34" cx="181.2" cy="122.56" r="18.55" transform="translate(-33.59 164.03) rotate(-45)"/><circle class="cls-35" cx="181.2" cy="122.56" r="18.41" transform="translate(-15.69 27.23) rotate(-8.24)"/><circle class="cls-36" cx="181.2" cy="122.56" r="18.27" transform="translate(-32.98 78.04) rotate(-22.33)"/><circle class="cls-37" cx="181.2" cy="122.56" r="18.13" transform="translate(-37.56 122.31) rotate(-34.01)"/><circle class="cls-38" cx="181.2" cy="122.56" r="17.99" transform="translate(9.66 258.32) rotate(-72.43)"/><circle class="cls-39" cx="181.2" cy="122.56" r="17.85" transform="translate(-37.51 118.11) rotate(-32.91)"/><circle class="cls-40" cx="181.2" cy="122.56" r="17.7" transform="translate(-33.59 164.03) rotate(-45)"/><circle class="cls-41" cx="181.2" cy="122.56" r="17.56" transform="translate(-11.27 226.54) rotate(-62.45)"/><path class="cls-42" d="M181.44,105.14a17.42,17.42,0,1,0,17.18,17.66A17.41,17.41,0,0,0,181.44,105.14Z"/><path class="cls-43" d="M181.44,105.29a17.28,17.28,0,1,0,17,17.51A17.27,17.27,0,0,0,181.44,105.29Z"/><circle class="cls-44" cx="181.2" cy="122.56" r="17.14" transform="translate(-28.98 61.92) rotate(-17.98)"/><circle class="cls-45" cx="181.2" cy="122.56" r="17" transform="translate(-28.63 60.72) rotate(-17.65)"/><path class="cls-46" d="M181.44,105.71a16.86,16.86,0,1,0,16.62,17.09A16.86,16.86,0,0,0,181.44,105.71Z"/><circle class="cls-47" cx="181.2" cy="122.56" r="16.71" transform="translate(42.57 291.79) rotate(-84.75)"/><circle class="cls-48" cx="181.2" cy="122.56" r="16.57"/><circle class="cls-49" cx="181.2" cy="122.56" r="16.43"/><path class="cls-50" d="M181.43,106.28a16.29,16.29,0,1,0,16.06,16.51A16.27,16.27,0,0,0,181.43,106.28Z"/><path class="cls-51" d="M181.43,106.42a16.15,16.15,0,1,0,15.92,16.37A16.14,16.14,0,0,0,181.43,106.42Z"/><circle class="cls-52" cx="181.2" cy="122.56" r="16" transform="matrix(1, -0.09, 0.09, 1, -10.26, 16.74)"/><path class="cls-53" d="M181.42,106.7a15.86,15.86,0,1,0,15.64,16.08A15.87,15.87,0,0,0,181.42,106.7Z"/><circle class="cls-54" cx="181.2" cy="122.56" r="15.72" transform="translate(-21.85 41.18) rotate(-12.23)"/><circle class="cls-55" cx="181.2" cy="122.56" r="15.58" transform="translate(-34.47 159.18) rotate(-43.71)"/><path class="cls-56" d="M181.42,107.13a15.44,15.44,0,1,0,15.22,15.65A15.44,15.44,0,0,0,181.42,107.13Z"/><circle class="cls-57" cx="181.2" cy="122.56" r="15.3" transform="translate(-36.59 143.16) rotate(-39.48)"/><circle class="cls-58" cx="181.2" cy="122.56" r="15.15" transform="translate(-13.34 22.52) rotate(-6.86)"/><path class="cls-59" d="M181.41,107.55a15,15,0,1,0,14.81,15.22A15,15,0,0,0,181.41,107.55Z"/><circle class="cls-60" cx="181.2" cy="122.56" r="14.87" transform="translate(4.66 251.75) rotate(-70.27)"/><path class="cls-61" d="M181.41,107.84a14.73,14.73,0,1,0,14.52,14.93A14.72,14.72,0,0,0,181.41,107.84Z"/><circle class="cls-62" cx="181.2" cy="122.56" r="14.59" transform="translate(-32.46 75.61) rotate(-21.68)"/><circle class="cls-63" cx="181.2" cy="122.56" r="14.45" transform="translate(-33.59 164.03) rotate(-45)"/><circle class="cls-64" cx="181.2" cy="122.56" r="14.3" transform="translate(-10.21 228.48) rotate(-63.03)"/><circle class="cls-65" cx="181.2" cy="122.56" r="14.16" transform="translate(-35.2 90.52) rotate(-25.65)"/><circle class="cls-66" cx="181.2" cy="122.56" r="14.02" transform="translate(-30.58 67.76) rotate(-19.57)"/><circle class="cls-67" cx="181.2" cy="122.56" r="13.88" transform="translate(-32.49 75.75) rotate(-21.72)"/><circle class="cls-68" cx="181.2" cy="122.56" r="13.74" transform="translate(-18.58 211.69) rotate(-58.12)"/><circle class="cls-69" cx="181.2" cy="122.56" r="13.6" transform="translate(8.35 256.65) rotate(-71.87)"/><path class="cls-70" d="M181.39,109.11a13.46,13.46,0,1,0,13.27,13.64A13.46,13.46,0,0,0,181.39,109.11Z"/><circle class="cls-71" cx="181.2" cy="122.56" r="13.31" transform="translate(-36.6 143.06) rotate(-39.45)"/><path class="cls-72" d="M181.39,109.39a13.17,13.17,0,1,0,13,13.35A13.18,13.18,0,0,0,181.39,109.39Z"/><circle class="cls-73" cx="181.2" cy="122.56" r="13.03" transform="translate(-7.11 233.89) rotate(-64.67)"/><circle class="cls-74" cx="181.2" cy="122.56" r="12.89" transform="translate(25.93 276.67) rotate(-78.86)"/><path class="cls-75" d="M181.38,109.82A12.75,12.75,0,1,0,194,122.74,12.74,12.74,0,0,0,181.38,109.82Z"/><path class="cls-76" d="M181.38,110a12.61,12.61,0,1,0,12.43,12.78A12.61,12.61,0,0,0,181.38,110Z"/><circle class="cls-77" cx="181.2" cy="122.56" r="12.46" transform="translate(-19.73 36.06) rotate(-10.78)"/><path class="cls-78" d="M181.37,110.24a12.32,12.32,0,1,0,12.15,12.49A12.33,12.33,0,0,0,181.37,110.24Z"/><path class="cls-79" d="M181.37,110.38a12.18,12.18,0,1,0,12,12.35A12.18,12.18,0,0,0,181.37,110.38Z"/><path class="cls-80" d="M181.37,110.53a12,12,0,1,0,11.87,12.2A12,12,0,0,0,181.37,110.53Z"/><circle class="cls-81" cx="181.2" cy="122.56" r="11.9" transform="matrix(0.13, -0.99, 0.99, 0.13, 36.9, 286.98)"/><circle class="cls-82" cx="181.2" cy="122.56" r="11.76" transform="translate(45.17 293.88) rotate(-85.62)"/><path class="cls-83" d="M181.36,111a11.62,11.62,0,1,0,11.46,11.77A11.61,11.61,0,0,0,181.36,111Z"/><circle class="cls-84" cx="181.2" cy="122.56" r="11.47" transform="translate(-29.91 65.21) rotate(-18.88)"/><path class="cls-85" d="M181.36,111.23a11.33,11.33,0,1,0,11.17,11.49A11.33,11.33,0,0,0,181.36,111.23Z"/></g><ellipse class="cls-4" cx="214.69" cy="119.04" rx="16.64" ry="11.38" transform="translate(37.49 288.94) rotate(-72.8)"/><path class="cls-2" d="M220.57,123.84c-5.74,3.66-11.85,2.47-16.27-1.14.11,7.33-1.48,21.25-12,35.43-8.47,11.38-26.74,15.12-40.3,14.6-32.36-1.24-40.86-11.14-47.49-24.5,4.54,14.65,15.72,28.22,41.16,30,47.15,3.29,60.16-16.36,62-44.31a7.82,7.82,0,0,0,1.75.9c5.91,2.13,13.06-3.21,16-11.92a23.47,23.47,0,0,0,1.2-6.64A14.56,14.56,0,0,1,220.57,123.84Z"/><path class="cls-2" d="M210.14,119.07l5.41.78c0-8.54,6.3-11.37,6.3-11.37C211.57,104.76,210.14,119.07,210.14,119.07Z"/><path class="cls-86" d="M132.5,139.17s-.95,3.18.61,4.74,6.06,5.65,20,5c13.2-.63,19.18-5.5,20.35-7.75s-.16-5.53-.16-5.53Z"/><path class="cls-87" d="M181.5,97.54c-11.23-1-15.24,10.35-15.24,10.35s2.3,3.11,14.1,3.34c13.65.28,12.72-4.92,12.72-4.92S192.73,98.54,181.5,97.54Z"/><path class="cls-87" d="M113.18,105.36s-1.34,4.57,10.89,5.1c12.84.56,14-1.5,14-1.5S125.86,86.28,113.18,105.36Z"/><path class="cls-88" d="M132.27,110.42c.07-.18.15-.35.21-.54,1.4-4.24.38-8.41-2.3-9.29s-6,1.85-7.38,6.1a11.78,11.78,0,0,0-.59,3.65c.59,0,1.2.09,1.86.12A71.41,71.41,0,0,0,132.27,110.42Z"/><path class="cls-89" d="M184.15,110.4c1.4-4.71.38-9.33-2.29-10.31s-6,2-7.38,6.76a16.34,16.34,0,0,0-.56,3.87,48.46,48.46,0,0,0,6.44.51c1.3,0,2.47,0,3.52-.06C184,110.92,184.07,110.66,184.15,110.4Z"/><path class="cls-3" d="M125,96c-9.24-.39-11.81,9.41-11.81,9.41a15.43,15.43,0,0,1,11.15-4.87c7.84-.07,13.7,8.47,13.7,8.47S137.47,96.47,125,96Z"/><path class="cls-90" d="M115.18,87.07l.78,4.46C128,84.06,144,84.6,144,84.6l.68-11C123.29,75.38,115.18,87.07,115.18,87.07Z"/><path class="cls-90" d="M166.68,73.3l-2.42,9.77s20.52,2.49,29.68,10.09l1.74-4.24S187.47,76.46,166.68,73.3Z"/><path class="cls-3" d="M180.14,95.92c-12.6-.75-13.9,11.73-13.9,11.73s3-7,14-6.2,12.88,4.86,12.88,4.86S192.19,96.64,180.14,95.92Z"/><path class="cls-91" d="M174.73,135.05v0Z"/><path class="cls-4" d="M145.4,115s-8.49-6.22-11.54,4.62,18.56,17.36,24.54,6S149,93.16,149,93.16,152,106.2,145.4,115Z"/><path class="cls-92" d="M210.86,105.14H205c-1.06,11.18-4.86,18.21-9.23,22.63a12.68,12.68,0,0,1-13.3,2.94c-6.82-2.43-16.95-6.69-35-5,0,0-32.29,17.56-40-3.16a58.94,58.94,0,0,1-3.19-17.41c-7.24,29.44-10.46,75.57,50.53,75.56,61.94,0,53.55-47.57,53.55-47.57C205.4,122.68,210.86,105.14,210.86,105.14Zm-35,40c-3.79,4.45-10.85,8.46-21.1,9.07-1,0-1.92.08-2.84.08-10,0-17-3.26-21.2-6.19a5.12,5.12,0,0,1-.23-8.28h0a72.85,72.85,0,0,0,23.55,2.41A56.09,56.09,0,0,0,175,137C177.9,138.78,178.08,142.55,175.89,145.11Z"/><path class="cls-93" d="M145.4,115s-8.25-5.86-11.32,3.89a76.76,76.76,0,0,0,13.5,2.09c2.73-6.49,3.6-13.54,3.87-21.19l-1.85-.52C149.77,103.88,149.18,110,145.4,115Z"/><path class="cls-92" d="M159.34,20.26c-59.95,4-51.24,70.42-51.24,70.42,3.57-19.75,15.92-44.26,25.36-44.75a36,36,0,0,0,20.47,7c11,.22,26.21-7.77,26.21-7.77,11-.26,23.49,33.65,25,61,.33,6.26,5.77-1,5.77-1S218.08,16.37,159.34,20.26Z"/><path class="cls-92" d="M190.67,25.44c-17.72-27-75.49-19.2-75.49-19.2C109.58,36.94,131,43.85,131,43.85s50-8.91,57.58-3.57S211,88.54,211,88.54s12.79-44.79,3.36-61.27C207.4,15.17,190.67,25.44,190.67,25.44Z"/><path class="cls-92" d="M137.53,0c.21,4.06,3.71,8.2,3.71,8.2s60.57,41.15,49.43,17.24S137.53,0,137.53,0Z"/><path class="cls-92" d="M200.49,17.21c-3.41.52-4.21,2.14-4.21,2.14,2.45-4.48.76-10.59.76-10.59-6.65,3.81-6,9.13-6,9.13-3.26-6.84-13.31-9-13.31-9,.32,5.65,6.35,11.41,6.67,11.59l5.22,7.94,10.8-1.7-1.07-4.82A5.9,5.9,0,0,0,200.49,17.21Z"/><path class="cls-90" d="M116.8,29.6c-17.61,5.36-12.51,75.53-12.51,75.53,3.57-19.76,19.73-58.71,29.17-59.2A62.2,62.2,0,0,1,116.8,29.6Z"/><path class="cls-94" d="M185.36,24.93s.09,0,0,0Z"/><path class="cls-94" d="M185.36,24.39Z"/><path class="cls-95" d="M207.5,21.83c-2.16.34-4.44.88-6.78,1.41-5.61,1.28-11.51,2.13-17.25,1.36-6.68-.89-12.54-3.88-18.47-6.87-3-1.51-6-3.05-9.06-4.37-6.6-2.84-14.39-5.61-21.67-5.37a30.61,30.61,0,0,0-10.46,2.57,22.71,22.71,0,0,0-7.46,5,22.33,22.33,0,0,0-2,2.37,37.82,37.82,0,0,0,.87,6.6l.72-.57a22.29,22.29,0,0,1,4.46-2.54,19.88,19.88,0,0,1,6-1.51c8.66-.67,16.7,2.81,24.53,6,3.2,1.32,6.46,2.87,9.9,4.29a105.5,105.5,0,0,0,10.77,4c6.31,1.93,14,2.51,20.44.73.87-.24,1.72-.45,2.56-.7a58.49,58.49,0,0,0,8.71-3.69c2.5-1.29,4.65-2.46,6.54-3.35a23.59,23.59,0,0,1,3.55-1.42A10.67,10.67,0,0,0,207.5,21.83Z"/><path class="cls-94" d="M185.22,24.93h0Z"/><path class="cls-2" d="M133.64,122.68c1.23,8.91,19.36,13.23,24.76,3a11.16,11.16,0,0,0,.79-2A53.78,53.78,0,0,1,133.64,122.68Z"/><path class="cls-96" d="M151.12,158.5a32.49,32.49,0,0,0,10.56-1.05,3.34,3.34,0,0,1,4.19,3.41c-.21,2.24-2.08,4.68-8.76,5.47-6.85.81-9.06-1.41-9.59-3.76A3.38,3.38,0,0,1,151.12,158.5Z"/><polygon class="cls-97" points="185.16 453.36 171.15 476.39 185.98 476.39 198.94 453.36 185.16 453.36"/><path class="cls-98" d="M72.38,452.63a121.05,121.05,0,0,0-1.31,23.76H216l.64-27.56Z"/><path class="cls-98" d="M68.7,476.39h3.41l-3.35-1.14C68.74,475.55,68.72,476,68.7,476.39Z"/><path class="cls-98" d="M215.65,470l-43.71,6.36h46.5C218.29,472.14,217.49,469.93,215.65,470Z"/><path class="cls-2" d="M106.24,197.27v31.61h93.93l-2.92-34.33C169.08,186.23,133.51,185.87,106.24,197.27Z"/><path class="cls-99" d="M203,194.42c-2.45-.7-4.81,1.65-7.41,1-2.72,16.2-23.27,16.83-45.59,17.2-20.15.32-29.29-4-32.85-19.49-6.67,1.16-23.7,6.58-33.14,12.62V476.39H211V196.8A48,48,0,0,0,203,194.42Z"/><path class="cls-1" d="M139.71,220c-.85-4.22-13.57-16.42-16.26-28.12-12.09,0-36.19,9.83-43.56,17-15.79,15.42-16,53.27-17.47,108.27-1.58,57.62-1.63,53.53-8.73,159.24h72.57C123.72,389,138.51,232.32,139.71,220Z"/><path class="cls-1" d="M237.47,243.65c0-5.32,1-41.87-34.48-49.23-2.45-.7-13.68-3.64-16.28-4.32-2.34,13.91-8,11.12-24.6,29.52-1.53,15.3-13.11,134.76-11.94,256.77h90.52C235.58,412.31,237.33,298.42,237.47,243.65Z"/><path class="cls-100" d="M117,192.51h0s-6.12,27.57,0,39.57c0,0,1.57-17.24,9.15-14.25,5,2,10,9.17,12.77,13.65.38-6,.66-10,.8-11.52-.82-4.09-12.77-15.67-16-27A36.14,36.14,0,0,0,117,192.51Z"/><path class="cls-101" d="M113.61,378.81c3.46-74.2,14.88-161.2,16.46-173-.34-.5-.67-1-1-1.52l-4.76-.65c-.13.94-13,95.26-16.69,174.91-1.93,41.44-1.86,75.05-1.35,97.86h6C111.75,453.71,111.68,420.2,113.61,378.81Z"/><path class="cls-101" d="M170,379.26c.19-83.21,10-172.07,10.14-173l-3.63-.41c-.81.67-1.67,1.39-2.6,2.18-1.58,14.88-9.73,95.34-9.9,171.18-.1,41,1.11,74.06,2.38,97.14h6C171.16,453.41,169.94,420.37,170,379.26Z"/><path class="cls-100" d="M190.94,192.51a33.75,33.75,0,0,0-4.75.17c-2.63,11-8.58,9.77-24.08,26.94-.19,1.85-1,7.75-1.4,14.82,5.09-5.33,16.84-14.93,21.09-16.61,7.59-3,9.16,14.25,9.16,14.25,6.1-12,0-39.57,0-39.57Z"/><polygon class="cls-101" points="73.81 247.21 70.77 253.53 123.04 244.74 122.08 238.82 73.81 247.21"/><path class="cls-101" d="M128.5,180s-4,2.32-12.26,13.57-.75,34.54-.75,34.54,1.25-5.5,4-14.71c4.05-13.53,20.22,6.59,20.22,6.59A47.76,47.76,0,0,0,135,204.61C127.75,191.14,128.5,180,128.5,180Z"/><path class="cls-102" d="M135,204.61C127.75,191.14,128.5,180,128.5,180l-.1.07c-1.56,4.05-3.58,7.35-4.52,11.72a71.44,71.44,0,0,0-1.7,13c-.05,1.52,0,3,.07,4.54,6.05-3.49,17.46,10.71,17.46,10.71A47.76,47.76,0,0,0,135,204.61Z"/><ellipse class="cls-103" cx="124.54" cy="323.98" rx="4.02" ry="3.56"/><path class="cls-103" d="M120,374.4a3.59,3.59,0,1,0,4,3.56A3.81,3.81,0,0,0,120,374.4Z"/><ellipse class="cls-103" cx="118.54" cy="419.94" rx="4.02" ry="3.56"/><path class="cls-103" d="M118.54,459.86a3.59,3.59,0,1,0,4,3.57A3.81,3.81,0,0,0,118.54,459.86Z"/><ellipse class="cls-103" cx="132.04" cy="237.01" rx="4.02" ry="3.56"/><ellipse class="cls-103" cx="128.01" cy="277.27" rx="4.02" ry="3.56"/><rect class="cls-101" x="195.24" y="220.81" width="6" height="49.55" transform="translate(-82.36 390.06) rotate(-78.33)"/><path class="cls-101" d="M180.84,181.39s.16,6-7.13,16.58c-4.6,6.68-10.49,12.74-11.66,22.22,0,0,22.35-20.35,26.4-6.82,2.76,9.21,4,14.71,4,14.71s8.91-23.72.67-35S180.84,181.39,180.84,181.39Z"/><path class="cls-102" d="M182.45,203.52c1.21-7.48,1.34-15.07-1.49-22.11l-.12,0s.16,6-7.13,16.58c-4.6,6.68-10.49,12.74-11.66,22.22,0,0,11-10,19-11.31A30.49,30.49,0,0,0,182.45,203.52Z"/><path class="cls-101" d="M67.5,247.26a160,160,0,0,0-3.75,27.65c-.59,12.64-.91,26.76-1.33,42.24-.11,3.9-.21,7.52-.31,10.9,7.22-92.51,27-124.82,33-131.75A28.68,28.68,0,0,0,84,200.05C77.91,208.32,72.23,226.22,67.5,247.26Z"/><path class="cls-101" d="M237.16,365.39h0c-1-19,.11-37.84.18-55.54-6.52-70.73-19-101.9-26.39-115.23-.66-.27-3-1.86-9.09-2.22C201.84,192.4,229.16,247.39,237.16,365.39Z"/><path class="cls-101" d="M70.43,322.23a9.34,9.34,0,0,0,4.44,8.65l8.6,5.25a7.35,7.35,0,0,0,7.77-.07L102.41,329a9,9,0,0,0,4.17-6.94l2.68-35.19H73Z"/><path class="cls-101" d="M180,290.86v34.93a10.28,10.28,0,0,0,4.35,8.4l7.31,5.16a10.67,10.67,0,0,0,12.9-.46l10.74-8.76A12.94,12.94,0,0,0,220,319.69l-1-28.83Z"/><path class="cls-104" d="M255,311.5c-16.26-2.93-31.06,5.42-39.84,17.84-19.85,28.11,2.5,76.59,39.93,76.49,35.94-.09,47.67-43.7,31.26-73-5.79-10.35-16.47-17.6-27.54-20.5Q256.91,311.83,255,311.5Z"/><ellipse class="cls-104" cx="41.03" cy="356.85" rx="45.11" ry="40.71" transform="translate(-314.22 303.75) rotate(-74.94)"/><path class="cls-2" d="M192.38,294.51s6.83-10.81,8.09-14.5,4-3.89,7.68-6.21,7.9-5.68,9.79-6.73,7.26,4,1.37,11.26S192.38,294.51,192.38,294.51Z"/><path class="cls-105" d="M237.08,346.53a14.54,14.54,0,0,0-2.46.19c-3.19.71-21.87-2.1-47.12-2.1-22.62,0-43.7-6.43-58.43-11.06s-19.9-10.06-33.37-9.85S71.25,332.34,67,339.64a109.15,109.15,0,0,0-5.58,11c-.75,21.06-1.68,35.9-4.26,74.25,8.29.2,17,.17,25.34-.2,28.2-1.26,61.26-18.89,61.26-18.89s59.49,26.06,94.47,22.43C237.43,402.48,237.14,374.05,237.08,346.53Z"/><path class="cls-4" d="M55.17,322.22C44.78,319.7,25.51,317.27,14,340c-7.41,14.64-4,32.31-.66,43A17.14,17.14,0,0,0,27.58,395c12.91,1.59,35.06,2.62,54.92,1.73,28.2-1.26,67.59-24.83,67.59-24.83l25.2-17.52c-7.49-6.09-14.94-12.22-22.15-18.65C137.5,337.65,65.28,324.68,55.17,322.22Z"/><path class="cls-4" d="M272.56,294.22a3.62,3.62,0,0,0,1.61-3.3c0-2.45-2.74-4.28-6.59-5.68s-7.16-2.74-7.16-2.74c3.79-2.59,2-6.66.63-6.94s-6.94-2.46-10-3.3-18.94-1.33-22.73-1.05-8.91,3.44-18.31,8.21-20.49,13.75-24.49,19.29-4.84,15.22-7.08,21.12-11.23,12.9-24.14,15.71c-.33.07-.71.13-1.13.18,7.21,6.43,14.66,12.56,22.15,18.65l41-28.48c7.68,1.16,15.47-6.92,17.16-7.2s4.18-2.92,7.28-4.24c5.63-2.38,13.87-2.28,19.94-3.88a6.93,6.93,0,0,0,5.26-6.32c5-.42,8.7-2.81,8.84-5.82A4.5,4.5,0,0,0,272.56,294.22Z"/><path class="cls-106" d="M151,348.38c-7.51-4.58-16.19-8.87-23.76-14.23-27.26-3.3-64.93-10.2-72-11.93C44.78,319.7,25.51,317.27,14,340c-7.41,14.64-4,32.31-.66,43A17.14,17.14,0,0,0,27.58,395c12.91,1.59,35.06,2.62,54.92,1.73,28.2-1.26,67.59-24.83,67.59-24.83l18.39-12.79Q159.72,353.73,151,348.38Zm-117.62,26c-13.66-7-21.33-14.34-11-30s49.1-7.18,49.1-7.18c11.76,3.48,37.24,18.85,40.94,22S47,381.39,33.33,374.4Z"/><path class="cls-106" d="M151,348.38c-7.51-4.58-16.19-8.87-23.76-14.23-27.26-3.3-64.93-10.2-72-11.93,0,0,18.08,5.3,25.08,8.74a156.66,156.66,0,0,1,35.25,23.41c7.66,6.84,13.1,17.59,6.32,27.29-2.9,4.15-7.41,7-12.38,8.82a3.89,3.89,0,0,1-.18.41c21.36-7.35,40.83-19,40.83-19l18.39-12.79Q159.72,353.73,151,348.38Z"/><path class="cls-107" d="M249.79,310.52c-4,.16-6.95.37-11.41,3-5.43,3.19-9.37,3.05-15.53,2.57-6.85-.54-13.39-1.67-20.29-1.84-4.79-.12-22.6-2.35-18.44-13.26-2.86,5.65-3.75,13.69-5.71,18.85-2.25,5.89-11.23,12.9-24.14,15.71-4.17.91-14.92.1-27.9-1.49,3.38,2,6.72,4.05,10,6.23,10,6.64,19.68,13.73,29.48,20.65l50.4-35c7.68,1.16,15.47-6.92,17.16-7.2s4.18-2.92,7.28-4.24c5.63-2.38,13.87-2.28,19.94-3.88a6.76,6.76,0,0,0,5-4.95C263.32,310.45,254.07,310.35,249.79,310.52Z"/><path class="cls-4" d="M67,311.64c4.25-7.3,15.23-15.72,28.7-15.93s18.64,5.22,33.37,9.85,35.81,11.06,58.43,11.06c25.25,0,43.93,2.81,47.12,2.1s26-.08,37.88,9.33c19.25,15.25,12.75,49.91-4.75,66.34-15.88,14.91-74.1.54-107-20-36.92-23-72-43.76-80-46.35C72.5,325.39,60.86,324,60.86,324A108.25,108.25,0,0,1,67,311.64Z"/><path class="cls-108" d="M272.5,328.05c-9.8-7.76-27.05-9.54-34.57-9.53,24.45,9,28.16,25.64,26.54,35.92-1.5,9.43-9.23,16.09-18.29,18.06-11.33,2.46-24.34-.84-35.06-4.57-11.72-4.08-22.65-10.06-33.49-16-11.27-6.19-22.54-12.51-34.74-16.69-13.38-4.59-27.36-7.16-40.68-11.93-7.07-2.53-22-6.13-21.5-15.91.26-4.77,4.66-8.34,8.83-10,5.66-2.2,11.69-.43,17.52-.26a37.67,37.67,0,0,0-11.36-1.44c-13.47.21-24.45,8.63-28.7,15.93A108.25,108.25,0,0,0,60.86,324s11.64,1.41,19.89,4.07c8,2.59,43,23.35,80,46.35,32.94,20.53,91.16,34.9,107,20C285.25,378,291.75,343.3,272.5,328.05Z"/><path class="cls-109" d="M244.43,280.56a155,155,0,0,0,19,3.14c-1.82-.7-3-1.2-3-1.2a4.55,4.55,0,0,0,2.2-4.73c-1.37,4.12-10.33,2.68-17.71.85-10.74-2.66-18.18,1.48-24.16,4.8l-1.19.66a61,61,0,0,1-11.05,4.77c.55,1.73,7.2-.37,12-3l1.2-.66C227.69,281.85,234.45,278.09,244.43,280.56Z"/><path class="cls-109" d="M261.89,292.79A93,93,0,0,1,274,295.52h0a4.73,4.73,0,0,0-1.12-1.13h0l-.14-.09h0l-.09-.05h0l0,0a3.62,3.62,0,0,0,1.61-3.31l-.3-.13c-1.81,2.07-7.89.57-11.7,0-6.31-.9-19.35-1.64-25.43-.74-5.05.75-26.08,8.42-22,9.28,1.67.35,17.5-6.59,22.26-7.3C242.39,291.26,255,291.81,261.89,292.79Z"/><path class="cls-109" d="M264.27,299.35a9.26,9.26,0,0,0-2.76-.1,16.29,16.29,0,0,1-4.64-.22c-4.43-.91-13.43,1.6-18.4,3.18-5.93,1.89-20.88,8.14-17.65,8.93,1.81.44,12.57-5.21,18.26-7,8.14-2.59,14.47-3.73,17.38-3.13a18.23,18.23,0,0,0,5.18.26,12.14,12.14,0,0,1,2.15,0c3.17.34,1.53,5.29,1.49,5.41a7.23,7.23,0,0,0,.61-2.45c5-.42,8.7-2.81,8.84-5.82C273.5,301.63,266,299.78,264.27,299.35Z"/><path class="cls-110" d="M127.9,104.5c.35.88-1,2.26-3.11,3.07s-4,.76-4.37-.12,1-2.26,3.11-3.08S127.55,103.61,127.9,104.5Z"/><path class="cls-110" d="M179.28,105.74c.35.88-.78,2.16-2.53,2.85s-3.45.53-3.8-.35.79-2.16,2.54-2.85S178.94,104.85,179.28,105.74Z"/></g></g></svg>