<svg xmlns="http://www.w3.org/2000/svg" xmlns:xlink="http://www.w3.org/1999/xlink" viewBox="0 0 784.05 1410"><defs><style>.cls-1{fill:url(#Áåçûìÿííûé_ãðàäèåíò_11);}.cls-2{fill:url(#Áåçûìÿííûé_ãðàäèåíò_487);}.cls-3{fill:url(#Íîâûé_îáðàçåö_ãðàäèåíòà_1);}.cls-4{fill:#2c2c2d;}.cls-5{fill:#333844;}.cls-6{fill:#292d35;}.cls-7{fill:#1c1d1e;}.cls-8{fill:#3d3d3d;}.cls-9{fill:url(#Áåçûìÿííûé_ãðàäèåíò_486);}.cls-10{fill:url(#Áåçûìÿííûé_ãðàäèåíò_486-2);}.cls-11{fill:url(#Áåçûìÿííûé_ãðàäèåíò_7);}.cls-12{fill:url(#Áåçûìÿííûé_ãðàäèåíò_20);}.cls-13{fill:url(#Áåçûìÿííûé_ãðàäèåíò_20-2);}.cls-14{fill:url(#Áåçûìÿííûé_ãðàäèåíò_7-2);}.cls-15{fill:url(#Íîâûé_îáðàçåö_ãðàäèåíòà_1-2);}.cls-16{fill:url(#Áåçûìÿííûé_ãðàäèåíò_2);}.cls-17{fill:#3e1208;}.cls-18{fill:url(#Áåçûìÿííûé_ãðàäèåíò_2-2);}.cls-19{opacity:0.57;}.cls-20{fill:#ff9c78;}.cls-21{fill:#ff9b77;}.cls-22{fill:#ff9a77;}.cls-23{fill:#ff9976;}.cls-24{fill:#ff9876;}.cls-25{fill:#ff9775;}.cls-26{fill:#ff9675;}.cls-27{fill:#ff9574;}.cls-28{fill:#ff9473;}.cls-29{fill:#ff9373;}.cls-30{fill:#ff9272;}.cls-31{fill:#ff9172;}.cls-32{fill:#ff9071;}.cls-33{fill:#ff8f71;}.cls-34{fill:#ff8e70;}.cls-35{fill:#ff8d70;}.cls-36{fill:#ff8c6f;}.cls-37{fill:#ff8b6e;}.cls-38{fill:#ff8a6e;}.cls-39{fill:#ff896d;}.cls-40{fill:#ff886d;}.cls-41{fill:#ff876c;}.cls-42{fill:#ff866c;}.cls-43{fill:#ff856b;}.cls-44{fill:#ff846a;}.cls-45{fill:#ff836a;}.cls-46{fill:#ff8269;}.cls-47{fill:#ff8169;}.cls-48{fill:#ff8068;}.cls-49{fill:#ff7f68;}.cls-50{fill:#ff7e67;}.cls-51{fill:#ff7d66;}.cls-52{fill:#ff7c66;}.cls-53{fill:#ff7b65;}.cls-54{fill:#ff7a65;}.cls-55{fill:#ff7964;}.cls-56{fill:#ff7864;}.cls-57{fill:#ff7763;}.cls-58{fill:#ff7662;}.cls-59{fill:#ff7561;}.cls-60{fill:#ff7461;}.cls-61{fill:#ff7360;}.cls-62{fill:#ff7260;}.cls-63{fill:#ff715f;}.cls-64{fill:#ff705f;}.cls-65{fill:#ff6f5e;}.cls-66{fill:#ff6e5d;}.cls-67{fill:#ff6d5d;}.cls-68{fill:#ff6c5c;}.cls-69{fill:#ff6b5c;}.cls-70{fill:#ff6a5b;}.cls-71{fill:#ff695b;}.cls-72{fill:#ff685a;}.cls-73{fill:#ff6759;}.cls-74{fill:#ff6659;}.cls-75{fill:#ff6558;}.cls-76{fill:#ff6458;}.cls-77{fill:#ff6357;}.cls-78{fill:#ff6257;}.cls-79{fill:#ff6156;}.cls-80{fill:#ff6055;}.cls-81{fill:#ff5f55;}.cls-82{fill:#ff5e54;}.cls-83{fill:#ff5d54;}.cls-84{fill:#ff5c53;}.cls-85{fill:#ff5b53;}.cls-86{fill:#ff5a52;}.cls-87{fill:#ff5952;}.cls-88{fill:#ff5851;}.cls-89{fill:#ff5750;}.cls-90{fill:#ff5650;}.cls-91{fill:#ff554f;}.cls-92{fill:#ff544f;}.cls-93{fill:#ff534e;}.cls-94{fill:#ff524e;}.cls-95{fill:#ff514d;}.cls-96{fill:url(#Áåçûìÿííûé_ãðàäèåíò_2-3);}.cls-97{fill:#d1594c;opacity:0.22;}.cls-98{fill:#7c302a;}.cls-99{fill:url(#Áåçûìÿííûé_ãðàäèåíò_57);}.cls-100{fill:#59352c;}.cls-101,.cls-106,.cls-121{fill:#fff;}.cls-101{opacity:0.12;}.cls-102{fill:#ffba80;}.cls-102,.cls-116{opacity:0.11;}.cls-103{fill:url(#Áåçûìÿííûé_ãðàäèåíò_23);}.cls-104{fill:url(#Áåçûìÿííûé_ãðàäèåíò_23-2);}.cls-105{fill:#f9755c;}.cls-107{fill:url(#Áåçûìÿííûé_ãðàäèåíò_12);}.cls-108{fill:url(#Áåçûìÿííûé_ãðàäèåíò_12-2);}.cls-109{fill:#603f37;}.cls-110{fill:url(#Áåçûìÿííûé_ãðàäèåíò_3);}.cls-111{fill:#f5eeee;}.cls-112{fill:#c7bfb7;opacity:0.41;}.cls-113{fill:#1e1d1d;}.cls-114{fill:url(#Áåçûìÿííûé_ãðàäèåíò_57-2);}.cls-115{fill:url(#Áåçûìÿííûé_ãðàäèåíò_24);}.cls-117{fill:url(#Áåçûìÿííûé_ãðàäèåíò_29);}.cls-118{fill:#eb6954;opacity:0.83;}.cls-119{fill:url(#Áåçûìÿííûé_ãðàäèåíò_57-3);}.cls-120{fill:url(#Áåçûìÿííûé_ãðàäèåíò_57-4);}.cls-121{opacity:0.2;}.cls-122{fill:#f79776;}.cls-123{fill:url(#Áåçûìÿííûé_ãðàäèåíò_440);}.cls-124{fill:url(#Áåçûìÿííûé_ãðàäèåíò_29-2);}.cls-125{fill:url(#Áåçûìÿííûé_ãðàäèåíò_29-3);}.cls-126{fill:url(#Áåçûìÿííûé_ãðàäèåíò_440-2);}.cls-127{fill:url(#Áåçûìÿííûé_ãðàäèåíò_29-4);}.cls-128{fill:url(#Áåçûìÿííûé_ãðàäèåíò_29-5);}.cls-129{fill:url(#Áåçûìÿííûé_ãðàäèåíò_29-6);}.cls-130{fill:url(#Áåçûìÿííûé_ãðàäèåíò_29-7);}.cls-131{fill:url(#Áåçûìÿííûé_ãðàäèåíò_440-3);}.cls-132{fill:url(#Áåçûìÿííûé_ãðàäèåíò_440-4);}.cls-133{fill:url(#Áåçûìÿííûé_ãðàäèåíò_29-8);}.cls-134{fill:url(#Áåçûìÿííûé_ãðàäèåíò_29-9);}.cls-135{fill:url(#Áåçûìÿííûé_ãðàäèåíò_440-5);}.cls-136{fill:url(#Áåçûìÿííûé_ãðàäèåíò_29-10);}.cls-137{fill:url(#Áåçûìÿííûé_ãðàäèåíò_29-11);}.cls-138{fill:url(#Áåçûìÿííûé_ãðàäèåíò_29-12);}.cls-139{fill:url(#Áåçûìÿííûé_ãðàäèåíò_29-13);}.cls-140{fill:url(#Áåçûìÿííûé_ãðàäèåíò_440-6);}.cls-141{fill:url(#Áåçûìÿííûé_ãðàäèåíò_501);}.cls-142{fill:url(#Áåçûìÿííûé_ãðàäèåíò_501-2);}.cls-143{fill:#ebe2d8;opacity:0.4;}.cls-144{fill:#e0d7ce;opacity:0.39;}</style><linearGradient id="Áåçûìÿííûé_ãðàäèåíò_11" x1="392.03" y1="1420.98" x2="392.03" y2="1338.91" gradientUnits="userSpaceOnUse"><stop offset="0" stop-color="#fff"/><stop offset="1" stop-color="#a3b5c4"/></linearGradient><linearGradient id="Áåçûìÿííûé_ãðàäèåíò_487" x1="1755.39" y1="281.02" x2="1755.39" y2="304.82" gradientTransform="matrix(-1, 0, 0, 1, 2153.98, 0)" gradientUnits="userSpaceOnUse"><stop offset="0" stop-color="#d97d67"/><stop offset="1" stop-color="#ff9c78"/></linearGradient><linearGradient id="Íîâûé_îáðàçåö_ãðàäèåíòà_1" x1="397.24" y1="240.2" x2="397.24" y2="390.43" gradientUnits="userSpaceOnUse"><stop offset="0" stop-color="#dcedff"/><stop offset="1" stop-color="#c8d9ed"/></linearGradient><linearGradient id="Áåçûìÿííûé_ãðàäèåíò_486" x1="156.03" y1="1339.59" x2="156.53" y2="1366.68" gradientUnits="userSpaceOnUse"><stop offset="0" stop-color="#5b5b60"/><stop offset="1" stop-color="#2c2c2d"/></linearGradient><linearGradient id="Áåçûìÿííûé_ãðàäèåíò_486-2" x1="626.32" y1="1339.56" x2="626.82" y2="1366.77" xlink:href="#Áåçûìÿííûé_ãðàäèåíò_486"/><linearGradient id="Áåçûìÿííûé_ãðàäèåíò_7" x1="397.79" y1="526.83" x2="397.79" y2="712.43" gradientUnits="userSpaceOnUse"><stop offset="0" stop-color="#b1c9e0"/><stop offset="1" stop-color="#c8d9ed"/></linearGradient><linearGradient id="Áåçûìÿííûé_ãðàäèåíò_20" x1="338.19" y1="718.69" x2="370.03" y2="718.69" gradientUnits="userSpaceOnUse"><stop offset="0" stop-color="#5f6163"/><stop offset="1" stop-color="#444749"/></linearGradient><linearGradient id="Áåçûìÿííûé_ãðàäèåíò_20-2" x1="355.76" y1="717.79" x2="369.79" y2="717.79" xlink:href="#Áåçûìÿííûé_ãðàäèåíò_20"/><linearGradient id="Áåçûìÿííûé_ãðàäèåíò_7-2" x1="398.05" y1="456.43" x2="398.05" y2="735.53" xlink:href="#Áåçûìÿííûé_ãðàäèåíò_7"/><linearGradient id="Íîâûé_îáðàçåö_ãðàäèåíòà_1-2" x1="2260.94" y1="462.54" x2="2259.49" y2="495.83" gradientTransform="matrix(-1, 0, 0, 1, 2850.15, 0)" xlink:href="#Íîâûé_îáðàçåö_ãðàäèåíòà_1"/><linearGradient id="Áåçûìÿííûé_ãðàäèåíò_2" x1="307.16" y1="163.78" x2="314.62" y2="193.08" gradientTransform="matrix(1, 0.01, -0.01, 1, 2.11, 3.57)" gradientUnits="userSpaceOnUse"><stop offset="0" stop-color="#d1594c"/><stop offset="1" stop-color="#ff9c78"/></linearGradient><linearGradient id="Áåçûìÿííûé_ãðàäèåíò_2-2" x1="399.1" y1="78.34" x2="399.89" y2="129.14" xlink:href="#Áåçûìÿííûé_ãðàäèåíò_2"/><linearGradient id="Áåçûìÿííûé_ãðàäèåíò_2-3" x1="509.84" y1="166.99" x2="500.22" y2="198.08" gradientTransform="translate(531.43 -333.55) rotate(72.23)" xlink:href="#Áåçûìÿííûé_ãðàäèåíò_2"/><linearGradient id="Áåçûìÿííûé_ãðàäèåíò_57" x1="-3954.09" y1="373.2" x2="-3954.56" y2="449.45" gradientTransform="translate(4385.55 -213.01) rotate(2.18)" gradientUnits="userSpaceOnUse"><stop offset="0" stop-color="#75483b"/><stop offset="0.35" stop-color="#704538"/><stop offset="0.75" stop-color="#633c30"/><stop offset="1" stop-color="#563428"/></linearGradient><linearGradient id="Áåçûìÿííûé_ãðàäèåíò_23" x1="436.53" y1="149.4" x2="440.75" y2="179.33" gradientUnits="userSpaceOnUse"><stop offset="0" stop-color="#c4664f"/><stop offset="1" stop-color="#ff9172"/></linearGradient><linearGradient id="Áåçûìÿííûé_ãðàäèåíò_23-2" x1="359.98" y1="155.73" x2="359.44" y2="176.11" xlink:href="#Áåçûìÿííûé_ãðàäèåíò_23"/><linearGradient id="Áåçûìÿííûé_ãðàäèåíò_12" x1="363.65" y1="276.18" x2="371.2" y2="256.06" gradientTransform="translate(-10.5 -94.73) rotate(-0.25)" gradientUnits="userSpaceOnUse"><stop offset="0" stop-color="#704a3e"/><stop offset="1"/></linearGradient><linearGradient id="Áåçûìÿííûé_ãðàäèåíò_12-2" x1="451.8" y1="273.3" x2="456.33" y2="260.77" xlink:href="#Áåçûìÿííûé_ãðàäèåíò_12"/><linearGradient id="Áåçûìÿííûé_ãðàäèåíò_3" x1="395.64" y1="244.38" x2="395.64" y2="239.75" gradientUnits="userSpaceOnUse"><stop offset="0" stop-color="#7c302a"/><stop offset="0.21" stop-color="#772f29"/><stop offset="0.45" stop-color="#692b26"/><stop offset="0.7" stop-color="#532421"/><stop offset="0.96" stop-color="#331c1a"/><stop offset="1" stop-color="#2d1a19"/></linearGradient><linearGradient id="Áåçûìÿííûé_ãðàäèåíò_57-2" x1="402.08" y1="309.31" x2="402.84" y2="184.25" gradientTransform="matrix(1, 0, 0, 1, 0, 0)" xlink:href="#Áåçûìÿííûé_ãðàäèåíò_57"/><linearGradient id="Áåçûìÿííûé_ãðàäèåíò_24" x1="390.23" y1="217.86" x2="390.23" y2="227.46" gradientUnits="userSpaceOnUse"><stop offset="0" stop-color="#4c2e25"/><stop offset="0.39" stop-color="#513127"/><stop offset="0.83" stop-color="#5e3a2e"/><stop offset="1" stop-color="#663f32"/></linearGradient><linearGradient id="Áåçûìÿííûé_ãðàäèåíò_29" x1="-3990.49" y1="447.24" x2="-3990.49" y2="433.54" gradientTransform="translate(4381.18 -219.09) rotate(0.17)" gradientUnits="userSpaceOnUse"><stop offset="0" stop-color="#f08a70"/><stop offset="1" stop-color="#ff9c78"/></linearGradient><linearGradient id="Áåçûìÿííûé_ãðàäèåíò_57-3" x1="147.36" y1="778.08" x2="147.51" y2="753.95" gradientTransform="matrix(0.95, 0.09, 0.04, 1.05, 193.72, -667.9)" xlink:href="#Áåçûìÿííûé_ãðàäèåíò_57"/><linearGradient id="Áåçûìÿííûé_ãðàäèåíò_57-4" x1="-554.99" y1="872.96" x2="-554.86" y2="851.99" gradientTransform="matrix(-0.94, 0.19, 0.08, 1.05, -152.71, -648.49)" xlink:href="#Áåçûìÿííûé_ãðàäèåíò_57"/><linearGradient id="Áåçûìÿííûé_ãðàäèåíò_440" x1="280.37" y1="253.16" x2="257.63" y2="272.41" gradientUnits="userSpaceOnUse"><stop offset="0" stop-color="#ffb7a2"/><stop offset="1" stop-color="#ff9c78"/></linearGradient><linearGradient id="Áåçûìÿííûé_ãðàäèåíò_29-2" x1="265.39" y1="282.72" x2="244.65" y2="296.66" gradientTransform="matrix(1, 0, 0, 1, 0, 0)" xlink:href="#Áåçûìÿííûé_ãðàäèåíò_29"/><linearGradient id="Áåçûìÿííûé_ãðàäèåíò_29-3" x1="256.57" y1="51.72" x2="212.14" y2="589.53" gradientTransform="matrix(1, 0, 0, 1, 0, 0)" xlink:href="#Áåçûìÿííûé_ãðàäèåíò_29"/><linearGradient id="Áåçûìÿííûé_ãðàäèåíò_440-2" x1="295.32" y1="245.88" x2="287.5" y2="252.51" xlink:href="#Áåçûìÿííûé_ãðàäèåíò_440"/><linearGradient id="Áåçûìÿííûé_ãðàäèåíò_29-4" x1="280.51" y1="305.21" x2="259.77" y2="319.15" gradientTransform="matrix(1, 0, 0, 1, 0, 0)" xlink:href="#Áåçûìÿííûé_ãðàäèåíò_29"/><linearGradient id="Áåçûìÿííûé_ãðàäèåíò_29-5" x1="264.27" y1="267.21" x2="248.75" y2="279.12" gradientTransform="matrix(1, 0, 0, 1, 0, 0)" xlink:href="#Áåçûìÿííûé_ãðàäèåíò_29"/><linearGradient id="Áåçûìÿííûé_ãðàäèåíò_29-6" x1="243.36" y1="249.95" x2="222.62" y2="263.89" gradientTransform="matrix(1, 0, 0, 1, 0, 0)" xlink:href="#Áåçûìÿííûé_ãðàäèåíò_29"/><linearGradient id="Áåçûìÿííûé_ãðàäèåíò_29-7" x1="253.05" y1="264.35" x2="232.31" y2="278.29" gradientTransform="matrix(1, 0, 0, 1, 0, 0)" xlink:href="#Áåçûìÿííûé_ãðàäèåíò_29"/><linearGradient id="Áåçûìÿííûé_ãðàäèåíò_440-3" x1="180.28" y1="420.49" x2="208.51" y2="435.35" xlink:href="#Áåçûìÿííûé_ãðàäèåíò_440"/><linearGradient id="Áåçûìÿííûé_ãðàäèåíò_440-4" x1="2668.38" y1="253.16" x2="2645.65" y2="272.41" gradientTransform="matrix(-1, 0, 0, 1, 3186.34, 0)" xlink:href="#Áåçûìÿííûé_ãðàäèåíò_440"/><linearGradient id="Áåçûìÿííûé_ãðàäèåíò_29-8" x1="2653.41" y1="282.72" x2="2632.67" y2="296.66" gradientTransform="matrix(-1, 0, 0, 1, 3186.34, 0)" xlink:href="#Áåçûìÿííûé_ãðàäèåíò_29"/><linearGradient id="Áåçûìÿííûé_ãðàäèåíò_29-9" x1="2644.58" y1="51.72" x2="2600.16" y2="589.53" gradientTransform="matrix(-1, 0, 0, 1, 3186.34, 0)" xlink:href="#Áåçûìÿííûé_ãðàäèåíò_29"/><linearGradient id="Áåçûìÿííûé_ãðàäèåíò_440-5" x1="2683.34" y1="245.88" x2="2675.52" y2="252.51" gradientTransform="matrix(-1, 0, 0, 1, 3186.34, 0)" xlink:href="#Áåçûìÿííûé_ãðàäèåíò_440"/><linearGradient id="Áåçûìÿííûé_ãðàäèåíò_29-10" x1="2668.52" y1="305.21" x2="2647.78" y2="319.15" gradientTransform="matrix(-1, 0, 0, 1, 3186.34, 0)" xlink:href="#Áåçûìÿííûé_ãðàäèåíò_29"/><linearGradient id="Áåçûìÿííûé_ãðàäèåíò_29-11" x1="2652.29" y1="267.21" x2="2636.77" y2="279.12" gradientTransform="matrix(-1, 0, 0, 1, 3186.34, 0)" xlink:href="#Áåçûìÿííûé_ãðàäèåíò_29"/><linearGradient id="Áåçûìÿííûé_ãðàäèåíò_29-12" x1="2631.38" y1="249.95" x2="2610.64" y2="263.89" gradientTransform="matrix(-1, 0, 0, 1, 3186.34, 0)" xlink:href="#Áåçûìÿííûé_ãðàäèåíò_29"/><linearGradient id="Áåçûìÿííûé_ãðàäèåíò_29-13" x1="2641.06" y1="264.35" x2="2620.32" y2="278.29" gradientTransform="matrix(-1, 0, 0, 1, 3186.34, 0)" xlink:href="#Áåçûìÿííûé_ãðàäèåíò_29"/><linearGradient id="Áåçûìÿííûé_ãðàäèåíò_440-6" x1="2568.29" y1="420.49" x2="2596.52" y2="435.35" gradientTransform="matrix(-1, 0, 0, 1, 3186.34, 0)" xlink:href="#Áåçûìÿííûé_ãðàäèåíò_440"/><linearGradient id="Áåçûìÿííûé_ãðàäèåíò_501" x1="264.54" y1="984.16" x2="298.12" y2="826.9" gradientUnits="userSpaceOnUse"><stop offset="0" stop-color="#3d434f"/><stop offset="1" stop-color="#333844"/></linearGradient><linearGradient id="Áåçûìÿííûé_ãðàäèåíò_501-2" x1="2661.56" y1="984.16" x2="2695.13" y2="826.9" gradientTransform="matrix(-1, 0, 0, 1, 3180.47, 0)" xlink:href="#Áåçûìÿííûé_ãðàäèåíò_501"/></defs><g id="Layer_2" data-name="Layer 2"><g id="Ñëîé_1" data-name="Ñëîé 1"><path class="cls-1" d="M784.05,1382.58S608.54,1410,392,1410,0,1382.58,0,1382.58s175.52-27.43,392-27.43S784.05,1382.58,784.05,1382.58Z"/><path class="cls-2" d="M329,276.41a208.19,208.19,0,0,1,23.88-4l7.3-57.6c-.48-17.48,10.66-27.56,34.66-27.18h0c23,.38,43,6.5,43.47,24L442.63,276c10.51,1.55,17.71,1,26.58,3.47l-.6,56.58H328Z"/><path class="cls-3" d="M627.25,480.47c-.54-.78-5.09-3.06-5.4-4-22.94-68.63-41.54-144.72-59.8-165.27-21.53-24.22-60.1-33-96.26-40.39h0c-6.62-19.9-24.21-19-24.21-19-2.82,41.13-44.34,69.44-44.34,69.44-1,0-41.56-27.18-42.19-69.44,0,0-18.32-.83-24.94,19.07l-.27.89C298.63,276.27,256,283.85,233.53,307,214.42,326.78,197,406.88,174,475.5c-.3.91-4.86,3.19-5.4,4-13.3,19.41-18.11,44.16-16,60.75,1.25,9.87,33.8,37.77,42.52,37.77,13.67,0,49-30,51.89-42.55-1.79,74.76-4.68,95.48-2,132,.44,5.88,10.72,13.42,10.82,16.37,0,0,87.84,6.41,140.23,6.41,32.14,0,135.47-5,135.47-5,.1-3,12.5-16.21,12.34-22.1-.93-34,1.25-51.9-.54-126.65,2.95,16,36.73,44.81,52,45.22C605,582,640.33,548,642,529.15,643.47,513,640.55,499.89,627.25,480.47Z"/><path class="cls-4" d="M186.83,1318.45c-1.06.53-80.88,44.11-81.78,57.83,0,.56-2.28,1-2.62,1.4l-.11,5.39c42.76,14.38,128.85-2.61,128.85-2.61s.19,3.44,1.05,3.52c17.05,1.74,46-2.19,48-3.8.4-.33,1-5,.84-9.1,0-.38-1.11-1.3-1.11-1.3.93-16.18.9-47.39,1-48.11C283.81,1307.62,193.39,1294.25,186.83,1318.45Z"/><path class="cls-4" d="M596.18,1318.45c1.06.53,80.88,44.11,81.78,57.83,0,.56,2.28,1,2.62,1.4l.11,5.39c-42.76,14.38-128.84-2.61-128.84-2.61s-.2,3.44-1.06,3.52c-17,1.74-46-2.19-48-3.8-.4-.33-1-5-.84-9.1,0-.38,1.11-1.3,1.11-1.3-.92-16.18-.9-47.39-1-48.11C499.2,1307.62,589.62,1294.25,596.18,1318.45Z"/><path class="cls-5" d="M597.09,1021.81c-.83-36-58-276.81-58-276.81H245.69S188.79,985.78,188,1021.81c-.77,33.81-9,267.53-9.48,295.91,0,1.85,5.31,2.45,5.31,2.45s10.49-6.37,36.72-4.27,60.16,28.59,60.16,28.59l12.25-4s27.84-303.73,28.93-311.26S385.37,809,385.37,809h14s63.64,212.28,64.73,219.8,27.73,311.85,27.73,311.85l10.46,3.36s35.72-25.83,61.94-28.11c25.07-2.17,33.49,3.69,33.49,3.69s6.23-2.43,6.2-4.29C603.52,1286.93,597.87,1055.62,597.09,1021.81Z"/><path class="cls-5" d="M248.64,685.14c-4.22,80.14-5.39,117.74-5.39,117.74s83.48,6.87,174,6.12c58.83-.48,134.69,3.16,131.32-20.84-4.31-30.75-12.47-46.63-10.4-101.45l-6-5.44c-14.72,1.51-63,7.17-141.52,6.19-86.3-1.08-124.57-6.66-135.49-7.6C253.48,679.72,248.73,683.5,248.64,685.14Z"/><path class="cls-6" d="M365.85,802l-1,6.36c23.89.81,54.83.17,54.83.17l-.12-6.54Z"/><path class="cls-6" d="M237.48,782.25c6.92-4.56,19.74-13.6,27.68-20.9-.92-1.28-1.84-2.57-2.77-3.85-4.14,3.06-16.67,11.75-23.06,16.17Q238.45,777.74,237.48,782.25Z"/><path class="cls-7" d="M390.61,704.79c-75.32,0-122-3.35-142.55-5.26-2.51,0-4.08,27.13-1.24,28.39,21.92,2,68.62,5.24,143.79,5.24,65.76,0,121.06-3.81,148.13-5.81,2.37.21,1.51-27.8-1.08-27.8C512.47,701.48,458.63,704.79,390.61,704.79Z"/><polygon class="cls-5" points="323.99 742.92 306.86 742.03 310.12 694.64 327.26 695.53 323.99 742.92"/><polygon class="cls-5" points="468.76 741.64 451.27 742.46 449.81 695.92 467.3 695.1 468.76 741.64"/><path class="cls-6" d="M546.68,776.51l-26-15.92c-1.05,2.51-.71,1.72-1.71,4.25,7.59,6.5,20.87,14.58,29,19.63C547.61,781.72,547.15,779.09,546.68,776.51Z"/><path class="cls-8" d="M230,1373.64c-22.83,2.8-48.71,6-70.35,6.35-32.87.55-49-2.59-54.55-4,0,.1,0,.21,0,.31,0,.56-2.28,1-2.62,1.4v.15c2.83.93,16.45,4.75,49.47,4.75,2.48,0,5.08,0,7.79-.07,21.77-.37,47.72-3.56,70.62-6.37,22.14-2.72,41.28-5.06,50.75-4.15l0-.91c0-.38-1.11-1.3-1.11-1.3s0-.28,0-.41C269.83,1368.75,251.29,1371,230,1373.64Z"/><path class="cls-8" d="M553,1373.64c22.83,2.8,48.7,6,70.34,6.35,32.86.55,49-2.6,54.59-4,0,.1,0,.22,0,.32,0,.56,2.28,1,2.62,1.4v.14c-2.83.93-16.49,4.76-49.5,4.76-2.49,0-5.08,0-7.79-.07-21.77-.37-47.71-3.56-70.6-6.37-22.14-2.72-41.28-5.06-50.74-4.15,0-.31,0-.61,0-.91s1.11-1.3,1.11-1.3,0-.28,0-.41C513.17,1368.75,531.71,1371,553,1373.64Z"/><path class="cls-9" d="M202.56,1361.55c-28.3-16.8-53.81-15.11-72-9.14-9,6.14-16.79,12.12-21.33,17,6.31,1.49,17.63,3.12,37.7,3.62C186.81,1374,209.49,1365.67,202.56,1361.55Z"/><path class="cls-10" d="M673.86,1369.48c-4.61-4.94-12.66-11.09-21.9-17.39-18.1-5.71-43.18-7-71,9.46-6.94,4.12,15.75,12.44,55.61,11.45C656.21,1372.51,667.47,1371,673.86,1369.48Z"/><path class="cls-11" d="M465.79,270.84c-1.18,9.29-15.7,55.53-24.9,56.08-6.71.41-25-6.22-35.37-12.24a99.7,99.7,0,0,1-8.28,6.56c-.26,0-3.34-1.93-7.72-5.56-10.6,7.69-31.53,17.84-36.73,14.93-6.2-3.45-18.38-48.7-23.07-58.83l-4.69.69c4.59,13.42,17.7,67.45,26.06,68.52,7.12.91,31.09-10.4,43.38-18L392.4,689.53l6.22,0c-1.67-58.43.4-301.38,1-367.2,11.69,7.19,38.22,19.79,44.57,15.63,7-4.56,23.09-43.31,26.38-66.17Z"/><path class="cls-12" d="M415,704.65s-52-.54-52,.46c0,0-.45,27,0,27.45s52.31.42,52.31.42,0,4.42-.89,5c-3.17,1.93-56.82,1.35-58.29,0s-.5-36.52.63-38.45,56-1.31,57.07-.51S415,704.65,415,704.65Z"/><path class="cls-13" d="M358.18,714.52s-.65,6.22-.23,6.63,13,0,13.3-.24.46-5.34.13-6.15C371.14,714.17,358.66,714.11,358.18,714.52Z"/><path class="cls-14" d="M613,564.65c-14.86,4.67-63.72-45.13-63.72-45.13l3.6-26.83-7.07-2.77-7.6,27L513.42,363.58l-8.27,2.18S525.82,652,518,654.25s-117.14,16.53-121.93,16.07-126.59-11.73-129.8-20S288.53,364,288.53,364H281.9L256.1,514.42l-10.79-27.29L241,490.65s5.11,22.16,4,25.77-41.59,42.65-61.76,40.15c-17.23-2.14-25-48.06-29.6-59.3-7.36,14-8.79,28-7.56,37.77s40.32,43,49,43c13.67,0,49-30,51.89-42.55-1.79,74.76-4.68,95.48-2,132,.44,5.88,10.72,13.42,10.82,16.37,0,0,88.31,5.7,140.7,5.7,61.92,0,135-4.26,135-4.26.1-3,12.5-16.21,12.34-22.1-.93-34,1.25-51.9-.54-126.65,2.95,16,41.12,47.47,56.43,47.88,9.62.26,46-40.8,49.75-59.35,1.56-7.71,1.49-16.75-3.92-25.42C648.5,526.54,624.37,561.07,613,564.65Z"/><path class="cls-15" d="M547.06,487.22l14.34,6.62,72.26-3.41s-26.17-32.92-46.6-31C553.7,462.54,547.06,487.22,547.06,487.22Z"/><path class="cls-16" d="M305.81,171.13c-10.12,3.06-15,17.61-10.87,32.5S310.59,228.1,320.71,225s15-17.61,10.86-32.5S315.92,168.07,305.81,171.13Z"/><path class="cls-17" d="M365.46,37.31s0-.16,0-.45C365.45,37.15,365.46,37.31,365.46,37.31Z"/><path class="cls-18" d="M475,85.33c-4.82-34.95-102.63-53.78-132.72-6.67-9.76,22-21.2,63.13-27.19,104.11,0-.44,0-.7,0-.7s-29.84,103.3,67.37,111.11C476.05,300.7,492,258,489.41,194h0C490.39,158,481.68,112.27,475,85.33Z"/><g class="cls-19"><ellipse class="cls-20" cx="440.17" cy="194.7" rx="43.63" ry="37.21" transform="translate(162.75 588.01) rotate(-78.66)"/><ellipse class="cls-21" cx="440.17" cy="194.68" rx="43.34" ry="36.96" transform="translate(162.76 587.99) rotate(-78.66)"/><ellipse class="cls-22" cx="440.17" cy="194.66" rx="43.06" ry="36.72" transform="translate(162.78 587.98) rotate(-78.66)"/><ellipse class="cls-23" cx="440.17" cy="194.64" rx="42.77" ry="36.47" transform="translate(162.8 587.97) rotate(-78.66)"/><ellipse class="cls-24" cx="440.17" cy="194.63" rx="42.48" ry="36.23" transform="translate(162.82 587.95) rotate(-78.66)"/><ellipse class="cls-25" cx="440.17" cy="194.61" rx="42.2" ry="35.98" transform="translate(162.83 587.93) rotate(-78.66)"/><ellipse class="cls-26" cx="440.17" cy="194.59" rx="41.91" ry="35.74" transform="translate(162.85 587.92) rotate(-78.66)"/><ellipse class="cls-27" cx="440.17" cy="194.57" rx="41.62" ry="35.49" transform="translate(162.87 587.9) rotate(-78.66)"/><ellipse class="cls-28" cx="440.17" cy="194.55" rx="41.33" ry="35.25" transform="translate(162.89 587.89) rotate(-78.66)"/><ellipse class="cls-29" cx="440.17" cy="194.53" rx="41.05" ry="35" transform="translate(162.91 587.87) rotate(-78.66)"/><ellipse class="cls-30" cx="440.17" cy="194.51" rx="40.76" ry="34.76" transform="translate(162.93 587.86) rotate(-78.66)"/><ellipse class="cls-31" cx="440.17" cy="194.5" rx="40.47" ry="34.52" transform="translate(162.95 587.85) rotate(-78.66)"/><ellipse class="cls-32" cx="440.17" cy="194.48" rx="40.19" ry="34.27" transform="translate(162.96 587.83) rotate(-78.66)"/><ellipse class="cls-33" cx="440.17" cy="194.46" rx="39.9" ry="34.03" transform="translate(162.98 587.82) rotate(-78.66)"/><ellipse class="cls-34" cx="440.17" cy="194.44" rx="39.61" ry="33.78" transform="translate(163 587.8) rotate(-78.66)"/><ellipse class="cls-35" cx="440.17" cy="194.42" rx="39.33" ry="33.54" transform="translate(163.02 587.78) rotate(-78.66)"/><ellipse class="cls-36" cx="440.17" cy="194.4" rx="39.04" ry="33.29" transform="translate(163.04 587.77) rotate(-78.66)"/><ellipse class="cls-37" cx="440.17" cy="194.38" rx="38.75" ry="33.05" transform="translate(163.06 587.76) rotate(-78.66)"/><ellipse class="cls-38" cx="440.17" cy="194.37" rx="38.46" ry="32.8" transform="translate(163.07 587.74) rotate(-78.66)"/><ellipse class="cls-39" cx="440.17" cy="194.35" rx="38.18" ry="32.56" transform="translate(163.09 587.72) rotate(-78.66)"/><ellipse class="cls-40" cx="440.17" cy="194.33" rx="37.89" ry="32.31" transform="translate(163.11 587.71) rotate(-78.66)"/><ellipse class="cls-41" cx="440.17" cy="194.31" rx="37.6" ry="32.07" transform="translate(163.13 587.69) rotate(-78.66)"/><ellipse class="cls-42" cx="440.17" cy="194.29" rx="37.32" ry="31.82" transform="translate(163.15 587.68) rotate(-78.66)"/><ellipse class="cls-43" cx="440.17" cy="194.27" rx="37.03" ry="31.58" transform="translate(163.17 587.67) rotate(-78.66)"/><ellipse class="cls-44" cx="440.17" cy="194.25" rx="36.74" ry="31.33" transform="translate(163.18 587.65) rotate(-78.66)"/><ellipse class="cls-45" cx="440.17" cy="194.23" rx="36.46" ry="31.09" transform="translate(163.2 587.64) rotate(-78.66)"/><ellipse class="cls-46" cx="440.17" cy="194.22" rx="36.17" ry="30.84" transform="translate(163.22 587.62) rotate(-78.66)"/><ellipse class="cls-47" cx="440.17" cy="194.2" rx="35.88" ry="30.6" transform="translate(163.24 587.61) rotate(-78.66)"/><ellipse class="cls-48" cx="440.17" cy="194.18" rx="35.59" ry="30.35" transform="translate(163.26 587.59) rotate(-78.66)"/><ellipse class="cls-49" cx="440.17" cy="194.16" rx="35.31" ry="30.11" transform="translate(163.27 587.58) rotate(-78.66)"/><ellipse class="cls-50" cx="440.17" cy="194.14" rx="35.02" ry="29.86" transform="translate(163.29 587.56) rotate(-78.66)"/><ellipse class="cls-51" cx="440.17" cy="194.12" rx="34.73" ry="29.62" transform="translate(163.31 587.54) rotate(-78.66)"/><ellipse class="cls-52" cx="440.17" cy="194.1" rx="34.45" ry="29.37" transform="translate(163.33 587.53) rotate(-78.66)"/><ellipse class="cls-53" cx="440.17" cy="194.09" rx="34.16" ry="29.13" transform="translate(163.35 587.52) rotate(-78.66)"/><ellipse class="cls-54" cx="440.17" cy="194.07" rx="33.87" ry="28.89" transform="translate(163.37 587.5) rotate(-78.66)"/><ellipse class="cls-55" cx="440.17" cy="194.05" rx="33.58" ry="28.64" transform="translate(163.38 587.49) rotate(-78.66)"/><ellipse class="cls-56" cx="440.17" cy="194.03" rx="33.3" ry="28.4" transform="translate(163.4 587.47) rotate(-78.66)"/><ellipse class="cls-57" cx="440.17" cy="194.01" rx="33.01" ry="28.15" transform="translate(163.42 587.46) rotate(-78.66)"/><ellipse class="cls-58" cx="440.17" cy="193.99" rx="32.72" ry="27.91" transform="matrix(0.2, -0.98, 0.98, 0.2, 163.44, 587.44)"/><ellipse class="cls-58" cx="440.17" cy="193.97" rx="32.44" ry="27.66" transform="translate(163.46 587.43) rotate(-78.66)"/><ellipse class="cls-59" cx="440.17" cy="193.96" rx="32.15" ry="27.42" transform="translate(163.48 587.41) rotate(-78.66)"/><ellipse class="cls-60" cx="440.17" cy="193.94" rx="31.86" ry="27.17" transform="translate(163.49 587.4) rotate(-78.66)"/><ellipse class="cls-61" cx="440.17" cy="193.92" rx="31.58" ry="26.93" transform="translate(163.51 587.38) rotate(-78.66)"/><ellipse class="cls-62" cx="440.17" cy="193.9" rx="31.29" ry="26.68" transform="translate(163.53 587.37) rotate(-78.66)"/><ellipse class="cls-63" cx="440.17" cy="193.88" rx="31" ry="26.44" transform="translate(163.55 587.35) rotate(-78.66)"/><ellipse class="cls-64" cx="440.17" cy="193.86" rx="30.71" ry="26.19" transform="translate(163.57 587.34) rotate(-78.66)"/><ellipse class="cls-65" cx="440.17" cy="193.84" rx="30.43" ry="25.95" transform="translate(163.58 587.32) rotate(-78.66)"/><ellipse class="cls-66" cx="440.17" cy="193.83" rx="30.14" ry="25.7" transform="translate(163.6 587.31) rotate(-78.66)"/><ellipse class="cls-67" cx="440.17" cy="193.81" rx="29.85" ry="25.46" transform="translate(163.62 587.29) rotate(-78.66)"/><ellipse class="cls-68" cx="440.17" cy="193.79" rx="29.57" ry="25.21" transform="translate(163.64 587.28) rotate(-78.66)"/><ellipse class="cls-69" cx="440.17" cy="193.77" rx="29.28" ry="24.97" transform="translate(163.66 587.26) rotate(-78.66)"/><ellipse class="cls-70" cx="440.17" cy="193.75" rx="28.99" ry="24.72" transform="translate(163.68 587.25) rotate(-78.66)"/><ellipse class="cls-71" cx="440.17" cy="193.73" rx="28.7" ry="24.48" transform="translate(163.69 587.23) rotate(-78.66)"/><ellipse class="cls-72" cx="440.17" cy="193.71" rx="28.42" ry="24.23" transform="translate(163.71 587.22) rotate(-78.66)"/><ellipse class="cls-73" cx="440.17" cy="193.7" rx="28.13" ry="23.99" transform="translate(163.73 587.2) rotate(-78.66)"/><ellipse class="cls-74" cx="440.17" cy="193.68" rx="27.84" ry="23.74" transform="translate(163.75 587.19) rotate(-78.66)"/><ellipse class="cls-75" cx="440.17" cy="193.66" rx="27.56" ry="23.5" transform="translate(163.77 587.17) rotate(-78.66)"/><ellipse class="cls-76" cx="440.17" cy="193.64" rx="27.27" ry="23.25" transform="translate(163.79 587.16) rotate(-78.66)"/><ellipse class="cls-77" cx="440.17" cy="193.62" rx="26.98" ry="23.01" transform="translate(163.8 587.14) rotate(-78.66)"/><ellipse class="cls-78" cx="440.17" cy="193.6" rx="26.7" ry="22.77" transform="translate(163.82 587.13) rotate(-78.66)"/><ellipse class="cls-79" cx="440.17" cy="193.58" rx="26.41" ry="22.52" transform="translate(163.84 587.11) rotate(-78.66)"/><ellipse class="cls-80" cx="440.17" cy="193.56" rx="26.12" ry="22.28" transform="translate(163.86 587.1) rotate(-78.66)"/><ellipse class="cls-81" cx="440.17" cy="193.55" rx="25.83" ry="22.03" transform="translate(163.88 587.08) rotate(-78.66)"/><ellipse class="cls-82" cx="440.17" cy="193.53" rx="25.55" ry="21.79" transform="translate(163.89 587.07) rotate(-78.66)"/><ellipse class="cls-83" cx="440.17" cy="193.51" rx="25.26" ry="21.54" transform="translate(163.91 587.05) rotate(-78.66)"/><ellipse class="cls-84" cx="440.17" cy="193.49" rx="24.97" ry="21.3" transform="translate(163.93 587.04) rotate(-78.66)"/><ellipse class="cls-85" cx="440.17" cy="193.47" rx="24.69" ry="21.05" transform="translate(163.95 587.02) rotate(-78.66)"/><ellipse class="cls-86" cx="440.17" cy="193.45" rx="24.4" ry="20.81" transform="translate(163.97 587.01) rotate(-78.66)"/><ellipse class="cls-87" cx="440.17" cy="193.43" rx="24.11" ry="20.56" transform="translate(163.99 587) rotate(-78.66)"/><ellipse class="cls-88" cx="440.17" cy="193.42" rx="23.83" ry="20.32" transform="translate(164 586.98) rotate(-78.66)"/><ellipse class="cls-89" cx="440.17" cy="193.4" rx="23.54" ry="20.07" transform="translate(164.02 586.96) rotate(-78.66)"/><ellipse class="cls-90" cx="440.17" cy="193.38" rx="23.25" ry="19.83" transform="translate(164.04 586.95) rotate(-78.66)"/><ellipse class="cls-91" cx="440.17" cy="193.36" rx="22.96" ry="19.58" transform="translate(164.06 586.93) rotate(-78.66)"/><ellipse class="cls-92" cx="440.17" cy="193.34" rx="22.68" ry="19.34" transform="translate(164.08 586.92) rotate(-78.66)"/><ellipse class="cls-93" cx="440.17" cy="193.32" rx="22.39" ry="19.09" transform="matrix(0.2, -0.98, 0.98, 0.2, 164.1, 586.9)"/><ellipse class="cls-94" cx="440.17" cy="193.3" rx="22.1" ry="18.85" transform="translate(164.11 586.89) rotate(-78.66)"/><ellipse class="cls-95" cx="440.17" cy="193.29" rx="21.82" ry="18.6" transform="translate(164.13 586.87) rotate(-78.66)"/></g><ellipse class="cls-96" cx="501.27" cy="203.21" rx="27.97" ry="19.12" transform="translate(148.92 613.59) rotate(-71.42)"/><path class="cls-97" d="M519.11,210.12a39.57,39.57,0,0,0,2.27-10.62,25.11,25.11,0,0,1-10.72,12.44c-9.8,5.92-20,3.66-27.3-2.58a86.17,86.17,0,0,1-.7,9.89c1.74,4.88,4.87,8.61,9.14,10.26C501.65,233.33,513.88,224.65,519.11,210.12Z"/><path class="cls-97" d="M493.62,203.07l9.06,1.54c.29-14.36,11.05-18.86,11.05-18.86C496.61,179.07,493.62,203.07,493.62,203.07Z"/><path class="cls-98" d="M433.45,228.49v.08A.28.28,0,0,0,433.45,228.49Z"/><path class="cls-99" d="M497.16,50.09c-5.77-10.67-13.54-12.69-22.26-10.88,4.44-2.8,3.18-7,3.18-7a9.62,9.62,0,0,0-8.26,2.51c5.94-6.22,2.48-15.33,2.48-15.33C458.44,25,461.08,32.06,461.08,32.06c-5.2-11.61-22-15.58-22-15.58a18.12,18.12,0,0,0,.92,4.88C412.66,2.3,376.42,0,376.42,0a13.46,13.46,0,0,0-1.84,8.77,264.69,264.69,0,0,0-40.52.64c-5.6,27,1.61,43.22,9.72,52.58,2.93,3.42,7.18,9.15,19.38,14.87,0,0,12.91,7.79,33.53,8.71,18.45.82,45-8.18,45-8.18,18.42,0,42.66,57.69,44,103.68.31,10.52,9.73-1.39,9.73-1.39a242.88,242.88,0,0,0,.85-27.89C496.28,151.67,512.32,78.14,497.16,50.09Z"/><path class="cls-100" d="M335.94,49.05c-27.79,7.72-20.66,108.45-20.45,125a22.45,22.45,0,0,1-.28,3.34c-.07.61,2.16.5,2-.12a11.33,11.33,0,0,1,.16-3.24c4.54-30.42,30.73-96.55,46-97C363.44,77,348.79,68.06,335.94,49.05Z"/><path class="cls-101" d="M451.24,43.66c.05,0,.16,0,0,0Z"/><g class="cls-19"><ellipse class="cls-20" cx="356.2" cy="192.07" rx="37.39" ry="42.41" transform="translate(-32.95 81.02) rotate(-12.41)"/><ellipse class="cls-21" cx="356.2" cy="192.07" rx="37.14" ry="42.13" transform="translate(-32.95 81.02) rotate(-12.41)"/><ellipse class="cls-22" cx="356.2" cy="192.07" rx="36.89" ry="41.85" transform="translate(-32.95 81.01) rotate(-12.41)"/><ellipse class="cls-23" cx="356.2" cy="192.07" rx="36.65" ry="41.57" transform="translate(-32.95 81.01) rotate(-12.41)"/><ellipse class="cls-24" cx="356.2" cy="192.07" rx="36.4" ry="41.29" transform="translate(-32.95 81.02) rotate(-12.41)"/><ellipse class="cls-25" cx="356.2" cy="192.07" rx="36.16" ry="41.01" transform="translate(-32.95 81.02) rotate(-12.41)"/><ellipse class="cls-26" cx="356.2" cy="192.07" rx="35.91" ry="40.73" transform="translate(-32.95 81.01) rotate(-12.41)"/><ellipse class="cls-27" cx="356.2" cy="192.07" rx="35.66" ry="40.46" transform="translate(-32.95 81.02) rotate(-12.41)"/><ellipse class="cls-28" cx="356.2" cy="192.07" rx="35.42" ry="40.18" transform="translate(-32.95 81.01) rotate(-12.41)"/><ellipse class="cls-29" cx="356.2" cy="192.07" rx="35.17" ry="39.9" transform="translate(-32.95 81.02) rotate(-12.41)"/><ellipse class="cls-30" cx="356.2" cy="192.07" rx="34.93" ry="39.62" transform="translate(-32.95 81.02) rotate(-12.41)"/><ellipse class="cls-31" cx="356.2" cy="192.07" rx="34.68" ry="39.34" transform="translate(-32.95 81.01) rotate(-12.41)"/><ellipse class="cls-32" cx="356.2" cy="192.07" rx="34.43" ry="39.06" transform="translate(-32.95 81.01) rotate(-12.41)"/><ellipse class="cls-33" cx="356.2" cy="192.07" rx="34.19" ry="38.78" transform="translate(-32.95 81.02) rotate(-12.41)"/><ellipse class="cls-34" cx="356.2" cy="192.07" rx="33.94" ry="38.5" transform="translate(-32.95 81.01) rotate(-12.41)"/><ellipse class="cls-35" cx="356.2" cy="192.07" rx="33.7" ry="38.22" transform="translate(-32.95 81.02) rotate(-12.41)"/><ellipse class="cls-36" cx="356.2" cy="192.07" rx="33.45" ry="37.94" transform="translate(-32.95 81.02) rotate(-12.41)"/><ellipse class="cls-37" cx="356.2" cy="192.07" rx="33.2" ry="37.67" transform="translate(-32.95 81.01) rotate(-12.41)"/><ellipse class="cls-38" cx="356.2" cy="192.07" rx="32.96" ry="37.39" transform="translate(-32.95 81.02) rotate(-12.41)"/><ellipse class="cls-39" cx="356.2" cy="192.07" rx="32.71" ry="37.11" transform="translate(-32.95 81.02) rotate(-12.41)"/><ellipse class="cls-40" cx="356.2" cy="192.07" rx="32.47" ry="36.83" transform="translate(-32.95 81.01) rotate(-12.41)"/><ellipse class="cls-41" cx="356.2" cy="192.07" rx="32.22" ry="36.55" transform="matrix(0.98, -0.21, 0.21, 0.98, -32.95, 81.02)"/><ellipse class="cls-42" cx="356.2" cy="192.07" rx="31.97" ry="36.27" transform="translate(-32.95 81.02) rotate(-12.41)"/><ellipse class="cls-43" cx="356.2" cy="192.07" rx="31.73" ry="35.99" transform="translate(-32.95 81.01) rotate(-12.41)"/><ellipse class="cls-44" cx="356.2" cy="192.07" rx="31.48" ry="35.71" transform="translate(-32.95 81.02) rotate(-12.41)"/><ellipse class="cls-45" cx="356.2" cy="192.07" rx="31.24" ry="35.43" transform="translate(-32.95 81.02) rotate(-12.41)"/><ellipse class="cls-46" cx="356.2" cy="192.07" rx="30.99" ry="35.15" transform="translate(-32.95 81.02) rotate(-12.41)"/><ellipse class="cls-47" cx="356.2" cy="192.07" rx="30.74" ry="34.88" transform="translate(-32.95 81.01) rotate(-12.41)"/><ellipse class="cls-48" cx="356.2" cy="192.07" rx="30.5" ry="34.6" transform="translate(-32.95 81.02) rotate(-12.41)"/><ellipse class="cls-49" cx="356.2" cy="192.07" rx="30.25" ry="34.32" transform="translate(-32.95 81.01) rotate(-12.41)"/><ellipse class="cls-50" cx="356.2" cy="192.07" rx="30.01" ry="34.04" transform="translate(-32.95 81.02) rotate(-12.41)"/><ellipse class="cls-51" cx="356.2" cy="192.07" rx="29.76" ry="33.76" transform="translate(-32.95 81.02) rotate(-12.41)"/><ellipse class="cls-52" cx="356.2" cy="192.07" rx="29.51" ry="33.48" transform="translate(-32.95 81.01) rotate(-12.41)"/><ellipse class="cls-53" cx="356.2" cy="192.07" rx="29.27" ry="33.2" transform="translate(-32.95 81.02) rotate(-12.41)"/><ellipse class="cls-54" cx="356.2" cy="192.07" rx="29.02" ry="32.92" transform="translate(-32.95 81.02) rotate(-12.41)"/><ellipse class="cls-55" cx="356.2" cy="192.07" rx="28.78" ry="32.64" transform="translate(-32.95 81.02) rotate(-12.41)"/><ellipse class="cls-56" cx="356.2" cy="192.07" rx="28.53" ry="32.36" transform="translate(-32.95 81.02) rotate(-12.41)"/><ellipse class="cls-57" cx="356.2" cy="192.07" rx="28.29" ry="32.09" transform="translate(-32.95 81.01) rotate(-12.41)"/><ellipse class="cls-58" cx="356.2" cy="192.07" rx="28.04" ry="31.81" transform="translate(-32.95 81.01) rotate(-12.41)"/><ellipse class="cls-58" cx="356.2" cy="192.07" rx="27.79" ry="31.53" transform="translate(-32.95 81.02) rotate(-12.41)"/><ellipse class="cls-59" cx="356.2" cy="192.07" rx="27.55" ry="31.25" transform="translate(-32.95 81.02) rotate(-12.41)"/><ellipse class="cls-60" cx="356.2" cy="192.07" rx="27.3" ry="30.97" transform="translate(-32.95 81.02) rotate(-12.41)"/><ellipse class="cls-61" cx="356.2" cy="192.07" rx="27.06" ry="30.69" transform="translate(-32.95 81.01) rotate(-12.41)"/><ellipse class="cls-62" cx="356.2" cy="192.07" rx="26.81" ry="30.41" transform="translate(-32.95 81.02) rotate(-12.41)"/><ellipse class="cls-63" cx="356.2" cy="192.07" rx="26.56" ry="30.13" transform="translate(-32.95 81.02) rotate(-12.41)"/><ellipse class="cls-64" cx="356.2" cy="192.07" rx="26.32" ry="29.85" transform="translate(-32.95 81.02) rotate(-12.41)"/><ellipse class="cls-65" cx="356.2" cy="192.07" rx="26.07" ry="29.57" transform="translate(-32.95 81.02) rotate(-12.41)"/><ellipse class="cls-66" cx="356.2" cy="192.07" rx="25.83" ry="29.3" transform="translate(-32.95 81.01) rotate(-12.41)"/><ellipse class="cls-67" cx="356.2" cy="192.07" rx="25.58" ry="29.02" transform="translate(-32.95 81.02) rotate(-12.41)"/><ellipse class="cls-68" cx="356.2" cy="192.07" rx="25.33" ry="28.74" transform="translate(-32.95 81.02) rotate(-12.41)"/><ellipse class="cls-69" cx="356.2" cy="192.07" rx="25.09" ry="28.46" transform="translate(-32.95 81.02) rotate(-12.41)"/><ellipse class="cls-70" cx="356.2" cy="192.07" rx="24.84" ry="28.18" transform="translate(-32.95 81.02) rotate(-12.41)"/><ellipse class="cls-71" cx="356.2" cy="192.07" rx="24.6" ry="27.9" transform="translate(-32.95 81.02) rotate(-12.41)"/><ellipse class="cls-72" cx="356.2" cy="192.07" rx="24.35" ry="27.62" transform="translate(-32.95 81.01) rotate(-12.41)"/><ellipse class="cls-73" cx="356.2" cy="192.07" rx="24.1" ry="27.34" transform="translate(-32.95 81.02) rotate(-12.41)"/><ellipse class="cls-74" cx="356.2" cy="192.07" rx="23.86" ry="27.06" transform="translate(-32.95 81.02) rotate(-12.41)"/><ellipse class="cls-75" cx="356.2" cy="192.07" rx="23.61" ry="26.78" transform="translate(-32.95 81.02) rotate(-12.41)"/><ellipse class="cls-76" cx="356.2" cy="192.07" rx="23.37" ry="26.51" transform="translate(-32.95 81.02) rotate(-12.41)"/><ellipse class="cls-77" cx="356.2" cy="192.07" rx="23.12" ry="26.23" transform="translate(-32.95 81.02) rotate(-12.41)"/><ellipse class="cls-78" cx="356.2" cy="192.07" rx="22.87" ry="25.95" transform="translate(-32.95 81.02) rotate(-12.41)"/><ellipse class="cls-79" cx="356.2" cy="192.07" rx="22.63" ry="25.67" transform="translate(-32.95 81.02) rotate(-12.41)"/><ellipse class="cls-80" cx="356.2" cy="192.07" rx="22.38" ry="25.39" transform="translate(-32.95 81.02) rotate(-12.41)"/><ellipse class="cls-81" cx="356.2" cy="192.07" rx="22.14" ry="25.11" transform="translate(-32.95 81.01) rotate(-12.41)"/><ellipse class="cls-82" cx="356.2" cy="192.07" rx="21.89" ry="24.83" transform="translate(-32.95 81.02) rotate(-12.41)"/><ellipse class="cls-83" cx="356.2" cy="192.07" rx="21.64" ry="24.55" transform="translate(-32.95 81.02) rotate(-12.41)"/><ellipse class="cls-84" cx="356.2" cy="192.07" rx="21.4" ry="24.27" transform="translate(-32.95 81.02) rotate(-12.41)"/><ellipse class="cls-85" cx="356.2" cy="192.07" rx="21.15" ry="23.99" transform="translate(-32.95 81.02) rotate(-12.41)"/><ellipse class="cls-86" cx="356.2" cy="192.07" rx="20.91" ry="23.72" transform="translate(-32.95 81.02) rotate(-12.41)"/><ellipse class="cls-87" cx="356.2" cy="192.07" rx="20.66" ry="23.44" transform="translate(-32.95 81.01) rotate(-12.41)"/><ellipse class="cls-88" cx="356.2" cy="192.07" rx="20.41" ry="23.16" transform="translate(-32.95 81.02) rotate(-12.41)"/><ellipse class="cls-89" cx="356.2" cy="192.07" rx="20.17" ry="22.88" transform="translate(-32.95 81.02) rotate(-12.41)"/><ellipse class="cls-90" cx="356.2" cy="192.07" rx="19.92" ry="22.6" transform="translate(-32.95 81.02) rotate(-12.41)"/><ellipse class="cls-91" cx="356.2" cy="192.07" rx="19.68" ry="22.32" transform="translate(-32.95 81.02) rotate(-12.41)"/><ellipse class="cls-92" cx="356.2" cy="192.07" rx="19.43" ry="22.04" transform="translate(-32.95 81.02) rotate(-12.41)"/><ellipse class="cls-93" cx="356.2" cy="192.07" rx="19.18" ry="21.76" transform="translate(-32.95 81.02) rotate(-12.41)"/><ellipse class="cls-94" cx="356.2" cy="192.07" rx="18.94" ry="21.48" transform="translate(-32.95 81.02) rotate(-12.41)"/><ellipse class="cls-95" cx="356.2" cy="192.07" rx="18.69" ry="21.2" transform="translate(-32.95 81.02) rotate(-12.41)"/></g><path class="cls-101" d="M451.32,43Z"/><path class="cls-102" d="M495.38,47.19a18.88,18.88,0,0,0-9-7.5c-3,.48-6.08,1.12-9.26,1.76-9.48,1.92-19.43,3.12-29.05,1.59-11.18-1.77-20.91-7-30.75-12.3-5-2.67-9.92-5.37-15.05-7.72-11-5-24-10-36.21-9.9C360,13.17,354,14.87,348.39,17a38,38,0,0,0-12.75,8.08,37.61,37.61,0,0,1-3.57,2.61A63.92,63.92,0,0,0,333.26,40c.59-.34,1.12-.65,1.3-.78a37.5,37.5,0,0,1,7.59-4.08,33.34,33.34,0,0,1,10.09-2.31c14.59-.76,28,5.41,41,11.16C398.56,46.32,404,49,409.7,51.58a180.5,180.5,0,0,0,17.93,7.16c10.53,3.49,23.45,4.79,34.32,2,1.47-.37,2.93-.67,4.34-1.07a98.7,98.7,0,0,0,14.79-5.84c4.26-2.07,7.91-4,11.13-5.37C493.32,48,494.37,47.56,495.38,47.19Z"/><path class="cls-101" d="M451,43.66h0Z"/><path class="cls-103" d="M406.5,149.27s.12,14.13,14.21,26l45.09-2.74s5.51-8.84-.63-25.34C461.76,138.07,406.5,149.27,406.5,149.27Z"/><path class="cls-104" d="M337.24,144c-3.14,5.54-5.78,27.14-5.78,27.14l41.79,6c16.4-13.46,14.94-27.57,14.94-27.57S341.74,136.09,337.24,144Z"/><path class="cls-105" d="M358.38,236.69s-5.41,11.43,1.92,16.84,18.33-4.71,35.92-4.71,28.56,10.52,35.88,4,3.51-18.16-5.73-23.39S376.33,218.63,358.38,236.69Z"/><path class="cls-106" d="M447.15,160.75c-18.88-1.66-26.44,14.56-26.44,14.56s5.11,3.17,23.76,2.63c22.11-.62,21.33-5.37,21.33-5.37S466,162.41,447.15,160.75Z"/><path class="cls-106" d="M331.46,171.17s.55,3.66,17.16,6c19.7,2.78,24.63,0,24.63,0a26.39,26.39,0,0,0-9.81-13.83C355.65,157.83,342.1,155.13,331.46,171.17Z"/><path class="cls-107" d="M348.62,177.18a107.4,107.4,0,0,0,15.4,1.23c2.19-7,.45-13.83-4-15.29s-10,3.12-12.39,10.27a20.2,20.2,0,0,0-.8,3.52Z"/><path class="cls-108" d="M444.47,177.94c2.56-.07,4.8-.2,6.78-.37,1.56-7.22-.21-13.9-4.34-15.41-4.49-1.64-10,3.45-12.39,11.38a24.1,24.1,0,0,0-.76,4.27C436.7,178,440.23,178.07,444.47,177.94Z"/><path class="cls-109" d="M353.5,158.79c-12-2.82-23,5-22,12.38,0,0,6.24-8.68,20.23-5.71,16.92,3.59,21.56,11.71,21.56,11.71C376.06,172.4,370.8,162.85,353.5,158.79Z"/><path class="cls-110" d="M360.83,235.07c-2.36,3.09-5.67,9.23,1.08,13.78s21.47-5.93,33.73-6.49,25.62,9.48,32.93,6.34,6.34-13.77-3.3-19.42S374.2,217.57,360.83,235.07Z"/><path class="cls-111" d="M429.27,232.4a19.53,19.53,0,0,0-4-3.12c-9.42-5.51-49.14-11.42-63.45,4.62a28.8,28.8,0,0,1,.68,15.3c7,3.62,21.23-6.3,33.14-6.84,12.26-.56,25.62,9.48,32.93,6.34a3.84,3.84,0,0,0,.35-.18C427.69,243.14,428.36,237.91,429.27,232.4Z"/><path class="cls-112" d="M429.27,232.4a19.53,19.53,0,0,0-4-3.12c-9.42-5.51-49.14-11.42-63.45,4.62a28.8,28.8,0,0,1,.68,15.3,8.88,8.88,0,0,0,4.86.73,6.93,6.93,0,0,1,.13-.88c.73-3.46-.35-6.93,1.51-10.21a11.34,11.34,0,0,1,7.16-5.13c6.89-1.76,14.09,1.24,21,1.29a97.72,97.72,0,0,0,12.07-1c2.62-.3,5.35-.95,7.95-.07,6.65,2.24,6.33,9.62,3.13,14.61,3.18.83,6,1.12,8.24.15a3.84,3.84,0,0,0,.35-.18C427.69,243.14,428.36,237.91,429.27,232.4Z"/><path class="cls-109" d="M444.43,159.35c-20,2.5-26.5,10.88-23.72,16,0,0,7.67-8,24.48-9.27,18.32-1.35,20.61,6.53,20.61,6.53C467.72,165.63,462,157.15,444.43,159.35Z"/><path class="cls-98" d="M434.85,229.94a.37.37,0,0,0,0,.08A.45.45,0,0,1,434.85,229.94Z"/><path class="cls-113" d="M361.1,173.27a4.9,4.9,0,0,1-4.41,4.65,3.78,3.78,0,0,1-4-4.14,4.92,4.92,0,0,1,4.41-4.66A3.78,3.78,0,0,1,361.1,173.27Z"/><path class="cls-113" d="M447.6,173.53a4.62,4.62,0,0,1-4.47,4.29A3.47,3.47,0,0,1,439.2,174a4.91,4.91,0,0,1,4.41-4.66A3.78,3.78,0,0,1,447.6,173.53Z"/><path class="cls-106" d="M354.09,168.72c-1.88.93-3.19,2.75-2.93,4.06s2,1.62,3.89.69,3.19-2.75,2.92-4.06S356,167.79,354.09,168.72Z"/><path class="cls-114" d="M495.39,179.68l-9.78-.11c-1.75,18.79-8.31,33.09-15.92,41.11-11.25,11.84-22.08,13.86-22.08,13.86-.93-39.95-43.27-21.23-54.64-21.23-10,0-49.15-17.69-49.15,20.44,0,0-15.42,0-22.36-24.68-2.91-10.38-3.87-29.28-4.22-34.49l-1.8,0c-12.1,49.51-10.95,126.17,85.83,122.53,93.7-3.52,89.65-67.8,89.65-67.8C485.9,211.75,495.39,179.68,495.39,179.68Zm-99.54,74c-22.79,0-34.05,16.11-41,3.19-5.78-10.71,4.71-24.52,13.9-27.82,7.53-2.7,19.17,2.13,27.47,2.13,12.2,0,20.23-5.35,27.51-2.7,9,3.29,18.79,14.13,16,24.62C434.78,271.27,414.43,253.69,395.85,253.69Z"/><path class="cls-115" d="M393.83,226.56c17.64-2.39,22.05-11.58,23.05-17.28-9.84,1-19.36,4-23.91,4-5.14,0-18.08-4.72-29.38-4C365.24,214.52,371.88,229.53,393.83,226.56Z"/><path class="cls-106" d="M440,168.26c-2,1.24-3.37,3.47-3,5s2.34,1.75,4.38.52,3.36-3.47,3-5S442,167,440,168.26Z"/><path class="cls-116" d="M462.91,65.33c-10.9,8.27-23,13.09-36.19,16.25a2.41,2.41,0,0,0-.43.15c8.83-2.13,15.36-4.34,15.36-4.34a12.52,12.52,0,0,1,6.9,2.43,86.87,86.87,0,0,0,16.93-10.4C467.89,67.53,465.4,63.44,462.91,65.33Z"/><path class="cls-116" d="M402.84,262a21.87,21.87,0,0,0-14.62,1c-5,2.36-6.27,8.72.18,10.61,5.18,1.51,22.24,1.49,19.75-7.45C407.48,263.72,405.08,262.61,402.84,262Z"/><path class="cls-20" d="M384.07,186.92a.43.43,0,0,1,0,.16c-.09.94-1.38.64-2,.72a19.41,19.41,0,0,0-2.28.4,17.05,17.05,0,0,0-4.58,1.74,15,15,0,0,0-6.95,9.21c-5.08,18.25,31.25,29.14,41.27,10.1a20.71,20.71,0,0,0,2-6,27.41,27.41,0,0,0-.13-8.55,4.54,4.54,0,0,0,1.61-2.25,3.25,3.25,0,0,0-1.09-2.89c-.89-.85-2.21-1.66-2.05-2.87.14-1,1.2-1.6,1.33-2.56a2.52,2.52,0,0,0-.89-2,9,9,0,0,0-2.11-1.6c-.32-.17-.69-.36-.79-.72a1.13,1.13,0,0,1,.09-.72c.46-1.21,1.25-2.46.79-3.79-.34-1-.75-2.3-1.76-2.78a12.4,12.4,0,0,0-5.91-.74,83.06,83.06,0,0,0-9.3,1c-1.84.3-4.37,1.62-4.59,3.74a3.62,3.62,0,0,0,1,2.64c.27.32.61.69.53,1.1s-.78.7-1.32.76a6.76,6.76,0,0,0-3.49,1,2.42,2.42,0,0,0-.7,3.24C383.17,185.85,384,186.25,384.07,186.92Z"/><path class="cls-117" d="M367.9,204.25c2.1,15,32.59,22.19,41.63,5a18,18,0,0,0,1.32-3.29A90.56,90.56,0,0,1,367.9,204.25Z"/><path class="cls-118" d="M357.39,182.24c-3.94.06-7.69-.84-11.58-1-2.11-.09-2.71,3-1,3.92,3.94,2.13,8.92,2,13.21,1.28C360.5,186.06,359.73,182.21,357.39,182.24Z"/><path class="cls-118" d="M451.07,181.6a87.82,87.82,0,0,1-11.79,1c-2.44,0-3,4.05-.49,4.37a27.41,27.41,0,0,0,13-1.07C453.93,185.11,453.71,181.27,451.07,181.6Z"/><path class="cls-119" d="M388.19,149.6s.13,13.85-7.16,13.25S351.69,143,335.91,147.66c0,0,1.38-13.12,21-11.91C372,136.68,388.19,149.6,388.19,149.6Z"/><path class="cls-120" d="M406.5,149.27s1,13.93,8.34,13.58,36.52-21.32,50.25-15.8c0,0-2.91-13.58-23.69-11.38C426.4,137.25,406.5,149.27,406.5,149.27Z"/><path class="cls-121" d="M401.27,193.59c0,3.25-5.39,5.88-12,5.88s-12-2.63-12-5.88,6.08-4.52,12.73-4.52S401.27,190.35,401.27,193.59Z"/><path class="cls-122" d="M288.31,243.18c-10-.54-33.59,3.95-34.64,3.69l10,23.28s23.83-2.29,33.8-9.64S297.53,243.67,288.31,243.18Z"/><path class="cls-20" d="M293.26,276.08s1.87-11.94-.75-15.25c-4.67-5.89-9.67-6.09-14.29-5.57,0,0,.1-12.57-5.13-15.48s-9.18-1.31-9.18-1.31-1.51-7.82-9.45-7.85c-11,0-44.25,18.79-48.8,28.58-8.66,18.63,31.22,60.46,26,78.87-3.52,12.43,40.53,27.11,42.42,15.58a36.37,36.37,0,0,1,2.71-8.29s12.79-7.37,14.65-19.25a30.7,30.7,0,0,0-2.37-17.58s9.72-.79,14.44-6.84c3.53-4.53,2.15-17.24.78-21.5C302.21,273.63,293.26,276.08,293.26,276.08Z"/><path class="cls-123" d="M304.31,280.19c-2.1-6.56-11.05-4.11-11.05-4.11s1.87-11.94-.75-15.25c-4.67-5.89-9.56-7.57-14.17-7,0,0,0-11.09-5.25-14s-9.18-1.31-9.18-1.31-1.51-7.82-9.45-7.85c-7.29,0-24.28,8.2-36.28,16.61,7.06,7.69,47.09,56.06,51.17,54.28,4.44-1.93,15-8.1,15-8.1s14.95,1.91,21.38-3.14A41.88,41.88,0,0,0,304.31,280.19Z"/><path class="cls-20" d="M232.13,336.54s-74.54,143.46-81.77,170,24.66,54.13,30.9,55.86,42.89-20,54.21-34.84c6.82-8.93,19.36-60.59,27.14-107.34,5.8-34.86,9.54-65.94,14.2-74.9C278.69,341.75,232.13,336.54,232.13,336.54Z"/><path class="cls-124" d="M293.26,276.08s.32-2,.5-4.65c-18.56-1.71-40.6,7.67-41.6,8.1l1.64,3.81C254.06,283.23,275.23,272.35,293.26,276.08Z"/><path class="cls-125" d="M273.7,354.84a3.8,3.8,0,0,0,.4-1.19,19.58,19.58,0,0,1,.42-2c.24-.86.48-1.67.72-2.41.77-2.23,1.57-3.92,1.57-3.92s12.79-7.37,14.65-19.25a30.7,30.7,0,0,0-2.37-17.58s9.72-.79,14.44-6.84c1.94-2.49,2.39-7.45,2.18-12.11h0c-4.68,4.67-20.35,4.65-20.35,4.65s-34.43,17-39.42,15.69-10-13.22-14.73-15.69-5.2-10.53-9.32-12.48-8.45-9.53-8.81-12.72c-.3-2.67-6.05-4.89-8-8.31-5.88,18.9,30.12,57.77,26.85,76.2l-2.43,4.7c9.32,3,33.77,11,35.2,12.68,1.77,2.13-29.07,150.28-36.51,158.08s-42.89,25.17-45,24.81-16-10.63-19.14-17.36S163,478.36,163,478.36l-2.86,3.72c-4.9,11-8.44,19.67-9.75,24.5-7.22,26.58,24.66,54.13,30.9,55.86s42.89-20,54.21-34.84c6.82-8.93,19.36-60.59,27.14-107.34C267.07,393.42,270.32,368.83,273.7,354.84Z"/><path class="cls-126" d="M288.31,243.18a70.83,70.83,0,0,0-9.79.42c.41,2.63,1.06,6.93,1.54,7.48s11.19,8.48,15.95,10.41c.52-.31,1-.64,1.48-1C307.46,253.16,297.53,243.67,288.31,243.18Z"/><path class="cls-127" d="M285.12,292.28l-.92-.21-.76.46c-.65.39-9.61,6.65-15.87,10l1.36,2.53c4.62-2.47,11.68-6.27,15-8.06,1.37,2.45,2.84,6.62,5.19,11.52a27,27,0,0,0,4.82-1C286.73,292.73,286.18,292.57,285.12,292.28Z"/><path class="cls-128" d="M293.62,264.35h.06a11.72,11.72,0,0,0-.27-1.43,28.42,28.42,0,0,0,3.6-2.09c-2.72-6.76-11.84-9.38-15.71-10.2a25.78,25.78,0,0,0-1.5-7.15c-1.15.1-2.33.22-3.54.35a8.77,8.77,0,0,0-2.54-3.59c3,3.46,3.48,12,3.48,12l-.07,1.87,1.85.26C279.12,254.44,293,256.59,293.62,264.35Z"/><path class="cls-129" d="M269.35,238.34a10,10,0,0,0-5.44.13,11.31,11.31,0,0,0-1.31-3.22c-13.82,3.83-32.49,17.93-33.36,18.59l2.51,3.31c.23-.18,23-17.4,35.7-18.65C268.16,238.43,268.78,238.38,269.35,238.34Z"/><path class="cls-130" d="M242.67,269,240,265.85c.82-.69,20.3-16.76,39.39-15.55l-.26,4.14C261.73,253.34,242.86,268.87,242.67,269Z"/><path class="cls-131" d="M264.7,354.3c-2-3.72-25.32-15.78-32.77-17.38-10.28,19.9-52.46,101.89-71.68,144.85.32,11,1.13,30.67,2.91,34.84,2.45,5.77,15.05,17,20.56,17.66s43.8-19,45.73-24S267,358.55,264.7,354.3Z"/><path class="cls-122" d="M510,243.18c10-.54,33.59,3.95,34.64,3.69l-10,23.28s-23.83-2.29-33.8-9.64S500.79,243.67,510,243.18Z"/><path class="cls-20" d="M505.06,276.08s-1.87-11.94.75-15.25c4.67-5.89,9.67-6.09,14.29-5.57,0,0-.1-12.57,5.13-15.48s9.18-1.31,9.18-1.31,1.51-7.82,9.45-7.85c11,0,44.25,18.79,48.8,28.58,8.66,18.63-31.22,60.46-26,78.87,3.52,12.43-40.53,27.11-42.42,15.58a36.37,36.37,0,0,0-2.71-8.29s-12.79-7.37-14.65-19.25a30.7,30.7,0,0,1,2.37-17.58s-9.72-.79-14.44-6.84c-3.53-4.53-2.14-17.24-.78-21.5C496.11,273.63,505.06,276.08,505.06,276.08Z"/><path class="cls-132" d="M494,280.19c2.1-6.56,11.05-4.11,11.05-4.11s-1.87-11.94.75-15.25c4.67-5.89,9.56-7.57,14.17-7,0,0,0-11.09,5.25-14s9.18-1.31,9.18-1.31,1.51-7.82,9.45-7.85c7.29,0,24.29,8.2,36.28,16.61-7.06,7.69-47.09,56.06-51.17,54.28-4.44-1.93-15-8.1-15-8.1s-15,1.91-21.38-3.14A41.88,41.88,0,0,1,494,280.19Z"/><path class="cls-20" d="M566.19,336.54S640.73,480,648,506.58s-24.66,54.13-30.9,55.86-42.89-20-54.21-34.84C556,518.67,543.49,467,535.71,420.26c-5.8-34.86-9.54-65.94-14.2-74.9C519.63,341.75,566.19,336.54,566.19,336.54Z"/><path class="cls-133" d="M505.06,276.08s-.32-2-.5-4.65c18.56-1.71,40.6,7.67,41.6,8.1l-1.64,3.81C544.26,283.23,523.09,272.35,505.06,276.08Z"/><path class="cls-134" d="M524.62,354.84a3.8,3.8,0,0,1-.4-1.19,19.58,19.58,0,0,0-.42-2c-.24-.86-.48-1.67-.72-2.41-.77-2.23-1.57-3.92-1.57-3.92s-12.79-7.37-14.65-19.25a30.7,30.7,0,0,1,2.37-17.58s-9.72-.79-14.44-6.84c-1.94-2.49-2.39-7.45-2.18-12.11h0c4.68,4.67,20.35,4.65,20.35,4.65s34.43,17,39.42,15.69,10-13.22,14.73-15.69,5.2-10.53,9.32-12.48,8.45-9.53,8.81-12.72c.3-2.67,6-4.89,8-8.31,5.88,18.9-30.12,57.77-26.85,76.2l2.43,4.7c-9.32,3-33.77,11-35.2,12.68-1.77,2.13,29.07,150.28,36.51,158.08s42.89,25.17,45,24.81,16-10.63,19.14-17.36,1.07-41.47,1.07-41.47l2.86,3.72c4.9,11,8.44,19.67,9.75,24.5,7.22,26.58-24.66,54.13-30.9,55.86s-42.89-20-54.21-34.84C556,518.67,543.49,467,535.71,420.26,531.25,393.42,528,368.83,524.62,354.84Z"/><path class="cls-135" d="M510,243.18a70.83,70.83,0,0,1,9.79.42c-.41,2.63-1,6.93-1.54,7.48s-11.19,8.48-15.95,10.41c-.52-.31-1-.64-1.48-1C490.86,253.16,500.79,243.67,510,243.18Z"/><path class="cls-136" d="M513.2,292.28l.92-.21.76.46c.65.39,9.61,6.65,15.87,10l-1.36,2.53c-4.62-2.47-11.68-6.27-15-8.06-1.37,2.45-2.84,6.62-5.19,11.52a27.12,27.12,0,0,1-4.82-1C511.59,292.73,512.14,292.57,513.2,292.28Z"/><path class="cls-137" d="M504.7,264.35h-.06a14,14,0,0,1,.27-1.43,29.14,29.14,0,0,1-3.6-2.09c2.72-6.76,11.84-9.38,15.71-10.2a25.78,25.78,0,0,1,1.5-7.15c1.15.1,2.34.22,3.54.35a8.77,8.77,0,0,1,2.54-3.59c-3,3.46-3.48,12-3.48,12l.07,1.87-1.85.26C519.2,254.44,505.29,256.59,504.7,264.35Z"/><path class="cls-138" d="M529,238.34a10,10,0,0,1,5.44.13,11.31,11.31,0,0,1,1.31-3.22c13.82,3.83,32.49,17.93,33.36,18.59l-2.51,3.31c-.23-.18-23-17.4-35.7-18.65C530.16,238.43,529.54,238.38,529,238.34Z"/><path class="cls-139" d="M555.65,269l2.66-3.18c-.82-.69-20.3-16.76-39.39-15.55l.26,4.14C536.59,253.34,555.46,268.87,555.65,269Z"/><path class="cls-140" d="M533.62,354.3c2-3.72,25.32-15.78,32.77-17.38,10.29,19.9,52.46,101.89,71.68,144.85-.32,11-1.13,30.67-2.91,34.84-2.45,5.77-15,17-20.56,17.66s-43.8-19-45.73-24S531.33,358.55,533.62,354.3Z"/><path class="cls-141" d="M243.25,787.14s-42.44,200.87-42,208.93,24.61,25.5,26.85,25.5,69.53-7.76,74.45-12.24S364.85,817.28,364,814.67C362.93,811.38,243.25,787.14,243.25,787.14Z"/><path class="cls-142" d="M540.2,787.14s42.44,200.87,42,208.93-24.61,25.5-26.85,25.5-69.53-7.76-74.45-12.24-62.3-192.05-61.45-194.66C420.52,811.38,540.2,787.14,540.2,787.14Z"/><path class="cls-5" d="M180.47,1250.83s119.94-3.65,119.91,8.35,2.58,16.52,1.54,20.34-4,6.07-4.63,13.35,2.72,9.06,1.68,15.49-3.87,8.37-4.12,11.11,3.48,5.21,2.38,8.77c-1.22,3.92-3.66,4.27-4,8.46l-64.84-23.82s-50,4.84-49.85.17-2.27-6.25-2.79-11.81,1.83-13,2.69-17.29-1.12-9-.95-14S180.34,1255,180.47,1250.83Z"/><path class="cls-5" d="M602.55,1250.77s-118-3.59-118,8.41S482,1275.7,483,1279.52s4,6.07,4.63,13.35-2.72,9.06-1.68,15.49,3.87,8.37,4.12,11.11-3.49,5.21-2.38,8.77c1.22,3.92,3.55,4.85,3.85,9l64.95-24.39s47.31,5.94,47.19,1.27,4.93-7.35,5.45-12.91-1.83-13-2.7-17.29,1.13-9,1-14S602.68,1254.9,602.55,1250.77Z"/><path class="cls-143" d="M500,194.18s-2.35,1.2-2.36,4.9a7.09,7.09,0,0,0,2.36,5.68l39.53.85s-4.22,9.6,1.89,13.47,12.16,0,12.16,0,11.78,19.11,27.28,13.95,6.7-21.85,6.7-21.85,22.67,7.61,27.6-10.71-18.56-22.3-18.56-22.3,5.4-8.79.71-12.08-8.69,2.59-8.69,2.59-.06-16-15.32-20.12-21.24,17.06-21.24,17.06-5-4.66-10.33-.53c-4.89,3.81.85,11.22.85,11.22s-7.13-2.68-9.81,1.86c-2,3.32,3.62,10.87,3.62,10.87Z"/><path class="cls-144" d="M544.84,193.16a112.08,112.08,0,0,0-24.28,1,1.77,1.77,0,0,0,.39,3.51c7.95-.53,15.86-.74,23.82-1.05C546.72,196.53,546.81,193.31,544.84,193.16Z"/><path class="cls-144" d="M539.18,198.08a29.87,29.87,0,0,0-7.13.21c-1.88.18-2.06,3.34-.07,3.41a29.8,29.8,0,0,0,7.13-.2C540.92,201.11,541.24,198.39,539.18,198.08Z"/><path class="cls-144" d="M571.93,189.17c-1-.19-3.42-1.4-4.35-1.15,2-.54,1.13-3.62-.83-3.42-2.72.27-9.17.87-11.47-1.4-3.46-3.41,2-9.28,4.27-11.37,1.61-1.48-.24-4.26-2-2.83-3.93,3.12-8.77,9.14-6.64,14.59,1.94,4.93,8.17,5.33,13.16,4.9.75,2.94,4.77,4.17,7.35,4.26A1.81,1.81,0,0,0,571.93,189.17Z"/><path class="cls-144" d="M566.61,201a7.17,7.17,0,0,0-5.26,7,1.65,1.65,0,0,0,1.63,1.48,1.71,1.71,0,0,0,1.69-1.41,5.2,5.2,0,0,1,3.16-3.93C569.91,203.46,568.68,200.43,566.61,201Z"/><path class="cls-144" d="M599.23,198.81c-3.1.41-6.78,1.46-9.82.38-4.54-1.6-2.66-6.38-1-9.53.91-1.71-1.82-3.43-2.94-1.81-2.72,3.92-4.46,9.7-.43,13.38s10.46,2.74,15,.92C601.84,201.43,601.23,198.54,599.23,198.81Z"/><path class="cls-143" d="M305.73,193.18s2.36,1.2,2.36,4.9a7.09,7.09,0,0,1-2.36,5.68l-39.52.85s4.21,9.6-1.89,13.47-12.16,0-12.16,0S240.37,237.19,224.87,232s-6.69-21.85-6.69-21.85-22.67,7.61-27.61-10.71,18.56-22.3,18.56-22.3-5.4-8.79-.7-12.08,8.69,2.59,8.69,2.59,0-16,15.32-20.12,21.23,17.06,21.23,17.06,5-4.66,10.34-.53c4.88,3.81-.85,11.22-.85,11.22s7.12-2.68,9.8,1.86c2,3.32-3.61,10.87-3.61,10.87Z"/><path class="cls-144" d="M289.64,194.21a113.85,113.85,0,0,0-18.81-1.09c-1.9.09-2,3.23-.06,3.38,6.11.47,12.23.64,18.33,1.24C291.37,198,291.93,194.49,289.64,194.21Z"/><path class="cls-144" d="M284.39,198.35a16.83,16.83,0,0,0-5.2.36c-1.57.44-1.29,3.13.35,3.22s3.19-.12,4.78-.11C286.28,201.83,286.38,198.43,284.39,198.35Z"/><path class="cls-144" d="M264.43,182.82a1.61,1.61,0,0,0-3.2.35c.21,3.3-.51,6.63-3.55,8.42-2.67,1.57-5.86,1.56-8.83,2-1.87.28-2.16,3.4-.07,3.5,4.26.2,8.9-.32,12.29-3.16S265.14,186.88,264.43,182.82Z"/><path class="cls-144" d="M231.74,182.08c-.64,3.82-6.87,3.33-9.22,1.72-1.45-1-3.76.72-2.43,2.27,3.94,4.62,14,3.12,14.84-3.5A1.61,1.61,0,0,0,231.74,182.08Z"/><path class="cls-144" d="M241.06,203c-2.14-.68-3.64,2.48-1.45,3.26,1.39.49,3.77,1.55,3.09,3.36-.53,1.38-2.06,2.39-3.19,3.23a1.75,1.75,0,0,0,1.64,3c2.66-1.06,5.47-3.72,5.61-6.75S243.68,203.86,241.06,203Z"/></g></g></svg>