<svg id="Ñëîé_1" data-name="Ñëîé 1" xmlns="http://www.w3.org/2000/svg" xmlns:xlink="http://www.w3.org/1999/xlink" viewBox="0 0 500 500"><defs><style>.cls-1,.cls-100,.cls-103,.cls-11{fill:#fff;}.cls-104,.cls-2{fill:#d78c74;}.cls-3{fill:#6d7db3;}.cls-4{fill:#b6bdce;}.cls-5{fill:#3d4041;}.cls-6{fill:#363c42;}.cls-7{fill:#dfe5ea;}.cls-8{fill:#002a3d;opacity:0.08;}.cls-9{fill:#7588bc;}.cls-10{fill:#b0b5c1;}.cls-11{opacity:0.12;}.cls-12{fill:#6c332e;}.cls-13{fill:#381911;}.cls-14{fill:#e5a185;}.cls-15{opacity:0.72;}.cls-16{fill:#e5a084;}.cls-17{fill:#e59f83;}.cls-18{fill:#e49e83;}.cls-19{fill:#e49d82;}.cls-20{fill:#e49c81;}.cls-21{fill:#e49b80;}.cls-22{fill:#e49a80;}.cls-23{fill:#e3997f;}.cls-24{fill:#e3987e;}.cls-25{fill:#e3977d;}.cls-26{fill:#e3967c;}.cls-27{fill:#e2957c;}.cls-28{fill:#e2947b;}.cls-29{fill:#e2937a;}.cls-30{fill:#e29279;}.cls-31{fill:#e29179;}.cls-32{fill:#e19078;}.cls-33{fill:#e18f77;}.cls-34{fill:#e18e76;}.cls-35{fill:#e18d75;}.cls-36{fill:#e18c75;}.cls-37{fill:#e08b74;}.cls-38{fill:#e08a73;}.cls-39{fill:#e08972;}.cls-40{fill:#e08872;}.cls-41{fill:#df8771;}.cls-42{fill:#df8670;}.cls-43{fill:#df856f;}.cls-44{fill:#df846f;}.cls-45{fill:#df836e;}.cls-46{fill:#de826d;}.cls-47{fill:#de816c;}.cls-48{fill:#de806b;}.cls-49{fill:#de7f6b;}.cls-50{fill:#de7e6a;}.cls-51{fill:#dd7d69;}.cls-52{fill:#dd7c68;}.cls-53{fill:#dd7b68;}.cls-54{fill:#dd7a67;}.cls-55{fill:#dd7a66;}.cls-56{fill:#dc7965;}.cls-57{fill:#dc7864;}.cls-58{fill:#dc7764;}.cls-59{fill:#dc7663;}.cls-60{fill:#db7562;}.cls-61{fill:#db7461;}.cls-62{fill:#db7361;}.cls-63{fill:#db7260;}.cls-64{fill:#db715f;}.cls-65{fill:#da705e;}.cls-66{fill:#da6f5d;}.cls-67{fill:#da6e5d;}.cls-68{fill:#da6d5c;}.cls-69{fill:#da6c5b;}.cls-70{fill:#d96b5a;}.cls-71{fill:#d96a5a;}.cls-72{fill:#d96959;}.cls-73{fill:#d96858;}.cls-74{fill:#d86757;}.cls-75{fill:#d86657;}.cls-76{fill:#d86556;}.cls-77{fill:#d86455;}.cls-78{fill:#d86354;}.cls-79{fill:#d76253;}.cls-80{fill:#d76153;}.cls-81{fill:#d76052;}.cls-82{fill:#d75f51;}.cls-83{fill:#d75e50;}.cls-84{fill:#d65d50;}.cls-85{fill:#d65c4f;}.cls-86{fill:#d65b4e;}.cls-87{fill:#d65a4d;}.cls-88{fill:#d5594c;}.cls-89{fill:#d5584c;}.cls-90{fill:#d5574b;}.cls-91{fill:#d5564a;}.cls-92{fill:#d55549;}.cls-93{fill:#d45449;}.cls-94{fill:#d45348;}.cls-95{fill:#d45247;}.cls-96{fill:#4f372d;}.cls-97{fill:#422e26;}.cls-98{fill:#e5912f;opacity:0.11;}.cls-99{fill:url(#Áåçûìÿííûé_ãðàäèåíò_3);}.cls-100{opacity:0.89;}.cls-101{fill:url(#Áåçûìÿííûé_ãðàäèåíò_3-2);}.cls-102{fill:#c3bba5;opacity:0.35;}.cls-103{opacity:0.2;}.cls-104{opacity:0.6;}</style><linearGradient id="Áåçûìÿííûé_ãðàäèåíò_3" x1="218.79" y1="156.98" x2="228.25" y2="134.68" gradientUnits="userSpaceOnUse"><stop offset="0" stop-color="#9b1313"/><stop offset="1"/></linearGradient><linearGradient id="Áåçûìÿííûé_ãðàäèåíò_3-2" x1="272.1" y1="158.24" x2="280.91" y2="131.54" xlink:href="#Áåçûìÿííûé_ãðàäèåíò_3"/></defs><rect class="cls-1" width="500" height="500"/><path class="cls-2" d="M152.2,173.59c-5.68-.3-19.13,2.25-19.72,2.11l5.7,13.26s13.57-1.31,19.25-5.49S157.45,173.88,152.2,173.59Z"/><path class="cls-3" d="M288.06,214.48s-1,26.64,44.21,102.51c52.84,88.71,74.65,56.58,74.65,56.58l8.38-19.67S370,269.69,347.87,243.81,288.06,214.48,288.06,214.48Z"/><path class="cls-4" d="M409.76,327.47S384.44,287.3,379.91,288s-30,45.46-20,71.46,66.06,33.71,59.3-11.84C414.41,315,409.76,327.47,409.76,327.47Z"/><path class="cls-3" d="M155.16,243.81C133,269.69,87.74,353.9,87.74,353.9l8.38,19.67S117.93,405.7,170.76,317c45.19-75.87,45.67-101.15,45.67-101.15S177.3,217.92,155.16,243.81Z"/><polygon class="cls-5" points="283.57 476.97 269.56 500 284.39 500 297.36 476.97 283.57 476.97"/><path class="cls-6" d="M170.79,476.24A121.05,121.05,0,0,0,169.48,500H314.37l.65-27.56Z"/><path class="cls-6" d="M167.11,500h3.41l-3.35-1.14C167.15,499.16,167.13,499.56,167.11,500Z"/><path class="cls-6" d="M314.07,493.64,270.35,500h46.51C316.7,495.75,315.91,493.54,314.07,493.64Z"/><path class="cls-2" d="M204.65,220.88v31.61h93.93l-2.91-34.32C267.5,209.84,231.92,209.48,204.65,220.88Z"/><path class="cls-7" d="M301.4,218c-2.44-.7-4.8,1.65-7.41,1-2.72,16.21-23.27,16.84-45.58,17.2-20.15.32-29.3-4-32.85-19.49-6.68,1.16-23.71,6.58-33.15,12.62V500h127V220.41A49.43,49.43,0,0,0,301.4,218Z"/><path class="cls-3" d="M238.13,243.57c-.86-4.22-13.57-16.42-16.26-28.12-12.09,0-36.19,9.83-43.57,17-15.78,15.42-16,53.27-17.47,108.27-1.57,57.62-1.63,53.54-8.73,159.24h72.58C222.13,412.61,236.93,255.94,238.13,243.57Z"/><path class="cls-3" d="M335.89,267.26c0-5.32,1-41.87-34.49-49.23-2.44-.7-13.67-3.64-16.28-4.32-2.33,13.91-8,11.12-24.6,29.52C259,258.53,247.41,378,248.59,500h90.52C334,435.92,335.75,322,335.89,267.26Z"/><path class="cls-8" d="M215.42,216.12h0s-6.12,27.57,0,39.57c0,0,1.57-17.24,9.16-14.25,5,2,10,9.17,12.77,13.65.38-6,.65-10,.8-11.52-.83-4.09-12.77-15.67-16-27A36.11,36.11,0,0,0,215.42,216.12Z"/><path class="cls-9" d="M212,402.42c3.45-74.19,14.87-161.2,16.45-173l-1-1.52-4.76-.65c-.13.94-13,95.26-16.7,174.91-1.93,41.44-1.86,75.05-1.34,97.86h6C210.17,477.32,210.1,443.81,212,402.42Z"/><path class="cls-9" d="M268.45,402.88c.19-83.22,10-172.08,10.13-173L275,229.5c-.8.67-1.67,1.39-2.59,2.18-1.58,14.88-9.74,95.35-9.91,171.18-.09,41,1.12,74.06,2.38,97.14h6C269.58,477,268.35,444,268.45,402.88Z"/><path class="cls-8" d="M289.35,216.12a33.61,33.61,0,0,0-4.74.17c-2.63,11-8.59,9.77-24.09,26.94-.18,1.85-1,7.75-1.4,14.82,5.1-5.32,16.85-14.93,21.1-16.61,7.58-3,9.15,14.25,9.15,14.25,6.11-12,0-39.56,0-39.57Z"/><polygon class="cls-9" points="172.22 270.82 169.18 277.14 221.46 268.35 220.49 262.43 172.22 270.82"/><path class="cls-9" d="M229.14,203.58s-6.24,2.32-14.49,13.57-.75,34.54-.75,34.54,1.25-5.5,4-14.71c4.05-13.53,20.22,6.59,20.22,6.59a76.65,76.65,0,0,0-4.74-15.35C228.4,217,229.14,203.58,229.14,203.58Z"/><ellipse class="cls-10" cx="222.95" cy="347.59" rx="4.02" ry="3.56"/><ellipse class="cls-10" cx="218.46" cy="401.57" rx="4.02" ry="3.56"/><path class="cls-10" d="M217,440a3.59,3.59,0,1,0,4,3.56A3.82,3.82,0,0,0,217,440Z"/><path class="cls-10" d="M217,483.47a3.59,3.59,0,1,0,4,3.57A3.82,3.82,0,0,0,217,483.47Z"/><path class="cls-10" d="M230.45,257.06a3.59,3.59,0,1,0,4,3.56A3.82,3.82,0,0,0,230.45,257.06Z"/><path class="cls-10" d="M226.43,297.32a3.59,3.59,0,1,0,4,3.56A3.81,3.81,0,0,0,226.43,297.32Z"/><rect class="cls-9" x="293.66" y="244.42" width="6" height="49.55" transform="translate(-26.97 505.28) rotate(-78.33)"/><path class="cls-9" d="M276.7,205.5s.43,4.82-4.57,16.08c-3.29,7.42-10.5,12.74-11.66,22.23,0,0,22.35-20.36,26.4-6.83,2.75,9.21,4,14.71,4,14.71s7.5-23.28-.75-34.54S276.7,205.5,276.7,205.5Z"/><path class="cls-4" d="M123.13,288c-4.53-.67-23.68,20.88-23.68,20.88s-15,2.28-16.38,35.18c-2.25,52.1,50,41.39,60,15.4S127.66,288.65,123.13,288Z"/><path class="cls-11" d="M229.14,203.58a19.33,19.33,0,0,0-4.18,2.6c-6,5.69-5,17.2-2.35,26.17,6.26-.27,15.52,11.22,15.52,11.22a76.65,76.65,0,0,0-4.74-15.35C228.4,217,229.14,203.58,229.14,203.58Z"/><path class="cls-11" d="M276.7,205.5s.43,4.82-4.57,16.08c-3.29,7.42-10.5,12.74-11.66,22.23,0,0,12.94-11.78,20.91-11.45,1.48-9.4,1.56-18.88-4.55-26.84Z"/><path class="cls-9" d="M163,285c-1.16,15.83-1.55,34.5-2.13,55.74-.11,3.91-.21,7.52-.3,10.91,7.21-92.52,26.81-124.38,32.76-131.31a35.64,35.64,0,0,0-10.88,4C175,234.44,168.2,257.92,163,285Z"/><path class="cls-9" d="M335.57,389h0c-1-19,.11-37.84.18-55.54-6.51-70.73-18.91-100.76-26.26-114.09-.66-.27-2.18-1.62-9.21-2.66C300.26,216.71,327.57,271,335.57,389Z"/><path class="cls-9" d="M168.85,345.84a9.31,9.31,0,0,0,4.44,8.65l8.59,5.25a7.35,7.35,0,0,0,7.77-.07l11.17-7.08a9.07,9.07,0,0,0,4.18-6.95l2.68-35.19H171.45Z"/><path class="cls-9" d="M278.37,314.48V349.4a10.28,10.28,0,0,0,4.36,8.4L290,363a10.66,10.66,0,0,0,12.89-.46l10.74-8.76a12.9,12.9,0,0,0,4.74-10.43l-1-28.83Z"/><path class="cls-12" d="M277.79,164.63v0Z"/><ellipse class="cls-2" cx="197.14" cy="155.44" rx="11.29" ry="16.51" transform="translate(-34.57 58.82) rotate(-15.62)"/><path class="cls-13" d="M230.47,61.06s0-.1,0-.27C230.46,61,230.47,61.06,230.47,61.06Z"/><path class="cls-14" d="M303.17,151.73c.07-21.23-3-48.09-7.36-63.9-3.34-20.55-61.35-30.27-78.43-2-5.45,13.1-14.3,37.53-17.25,61.8,0-.26,0-.41,0-.41s-15.79,64.55,41.65,68.56,63.84-26.28,61.39-64Z"/><g class="cls-15"><ellipse class="cls-14" cx="223.24" cy="147.14" rx="31.82" ry="20.66" transform="translate(52.32 352.75) rotate(-83.65)"/><path class="cls-16" d="M228.11,115.94c-11.11-2.43-22.3,9.58-25,26.81s4.14,33.17,15.25,35.6,22.3-9.58,25-26.81S239.23,118.37,228.11,115.94Z"/><ellipse class="cls-17" cx="223.24" cy="147.14" rx="31.42" ry="20.4" transform="translate(52.32 352.75) rotate(-83.65)"/><path class="cls-18" d="M228.05,116.33c-11-2.39-22,9.46-24.67,26.47s4.08,32.76,15.05,35.15,22-9.45,24.68-26.47S239,118.73,228.05,116.33Z"/><ellipse class="cls-19" cx="223.24" cy="147.14" rx="31.03" ry="20.14" transform="translate(52.32 352.75) rotate(-83.65)"/><path class="cls-20" d="M228,116.73c-10.83-2.37-21.74,9.33-24.36,26.13s4,32.33,14.87,34.7,21.74-9.33,24.36-26.13S238.82,119.09,228,116.73Z"/><ellipse class="cls-21" cx="223.24" cy="147.14" rx="30.63" ry="19.88" transform="translate(52.32 352.75) rotate(-83.65)"/><ellipse class="cls-22" cx="223.24" cy="147.14" rx="30.43" ry="19.76" transform="translate(52.32 352.75) rotate(-83.65)"/><path class="cls-23" d="M227.9,117.31c-10.62-2.32-21.32,9.16-23.89,25.63s4,31.71,14.58,34,21.32-9.15,23.89-25.63S238.52,119.63,227.9,117.31Z"/><ellipse class="cls-24" cx="223.24" cy="147.14" rx="30.03" ry="19.5" transform="translate(52.32 352.75) rotate(-83.65)"/><ellipse class="cls-25" cx="223.24" cy="147.14" rx="29.83" ry="19.37" transform="translate(52.32 352.75) rotate(-83.65)"/><ellipse class="cls-26" cx="223.24" cy="147.14" rx="29.63" ry="19.24" transform="translate(52.32 352.75) rotate(-83.65)"/><ellipse class="cls-27" cx="223.24" cy="147.14" rx="29.43" ry="19.11" transform="translate(52.32 352.75) rotate(-83.65)"/><ellipse class="cls-28" cx="223.24" cy="147.14" rx="29.24" ry="18.98" transform="translate(52.32 352.75) rotate(-83.65)"/><path class="cls-29" d="M227.72,118.49c-10.21-2.23-20.48,8.79-22.95,24.62s3.8,30.46,14,32.68,20.48-8.79,22.95-24.61S237.92,120.72,227.72,118.49Z"/><path class="cls-30" d="M227.69,118.69c-10.14-2.22-20.34,8.73-22.79,24.45s3.77,30.24,13.9,32.46,20.34-8.73,22.79-24.45S237.82,120.9,227.69,118.69Z"/><ellipse class="cls-31" cx="223.24" cy="147.14" rx="28.64" ry="18.59" transform="translate(52.32 352.75) rotate(-83.65)"/><path class="cls-32" d="M227.62,119.08c-10-2.18-20.05,8.61-22.47,24.11s3.72,29.83,13.71,32,20.06-8.62,22.48-24.12S237.62,121.26,227.62,119.08Z"/><path class="cls-33" d="M227.59,119.28c-9.92-2.17-19.91,8.55-22.32,23.94S209,172.84,218.89,175s19.92-8.55,22.32-23.94S237.52,121.44,227.59,119.28Z"/><ellipse class="cls-34" cx="223.24" cy="147.14" rx="28.04" ry="18.21" transform="translate(52.32 352.75) rotate(-83.65)"/><ellipse class="cls-35" cx="223.24" cy="147.14" rx="27.84" ry="18.08" transform="translate(52.32 352.75) rotate(-83.65)"/><ellipse class="cls-36" cx="223.24" cy="147.14" rx="27.64" ry="17.95" transform="translate(52.32 352.75) rotate(-83.65)"/><ellipse class="cls-37" cx="223.24" cy="147.14" rx="27.45" ry="17.82" transform="translate(52.32 352.75) rotate(-83.65)"/><path class="cls-38" d="M227.44,120.26c-9.57-2.09-19.21,8.25-21.53,23.1s3.56,28.58,13.14,30.67,19.21-8.25,21.53-23.1S237,122.35,227.44,120.26Z"/><path class="cls-39" d="M227.41,120.45c-9.5-2.07-19.07,8.19-21.38,22.93s3.54,28.38,13.05,30.45,19.07-8.19,21.37-22.93S236.91,122.53,227.41,120.45Z"/><ellipse class="cls-40" cx="223.24" cy="147.14" rx="26.85" ry="17.43" transform="translate(52.32 352.75) rotate(-83.65)"/><ellipse class="cls-41" cx="223.24" cy="147.14" rx="26.65" ry="17.3" transform="translate(52.32 352.75) rotate(-83.65)"/><ellipse class="cls-42" cx="223.24" cy="147.14" rx="26.45" ry="17.17" transform="translate(52.32 352.75) rotate(-83.65)"/><ellipse class="cls-43" cx="223.24" cy="147.14" rx="26.25" ry="17.04" transform="translate(52.32 352.75) rotate(-83.65)"/><ellipse class="cls-44" cx="223.24" cy="147.14" rx="26.05" ry="16.91" transform="translate(52.32 352.75) rotate(-83.65)"/><ellipse class="cls-45" cx="223.24" cy="147.14" rx="25.85" ry="16.79" transform="translate(52.32 352.75) rotate(-83.65)"/><ellipse class="cls-46" cx="223.24" cy="147.14" rx="25.66" ry="16.66" transform="translate(52.32 352.75) rotate(-83.65)"/><ellipse class="cls-47" cx="223.24" cy="147.14" rx="25.46" ry="16.53" transform="translate(52.32 352.75) rotate(-83.65)"/><ellipse class="cls-48" cx="223.24" cy="147.14" rx="25.26" ry="16.4" transform="translate(52.32 352.75) rotate(-83.65)"/><ellipse class="cls-49" cx="223.24" cy="147.14" rx="25.06" ry="16.27" transform="translate(52.32 352.75) rotate(-83.65)"/><ellipse class="cls-50" cx="223.24" cy="147.14" rx="24.86" ry="16.14" transform="translate(52.32 352.75) rotate(-83.65)"/><ellipse class="cls-51" cx="223.24" cy="147.14" rx="24.66" ry="16.01" transform="translate(52.32 352.75) rotate(-83.65)"/><ellipse class="cls-52" cx="223.24" cy="147.14" rx="24.46" ry="15.88" transform="translate(52.32 352.75) rotate(-83.65)"/><ellipse class="cls-53" cx="223.24" cy="147.14" rx="24.26" ry="15.75" transform="translate(52.32 352.75) rotate(-83.65)"/><ellipse class="cls-54" cx="223.24" cy="147.14" rx="24.06" ry="15.62" transform="translate(52.32 352.75) rotate(-83.65)"/><ellipse class="cls-55" cx="223.24" cy="147.14" rx="23.87" ry="15.49" transform="translate(52.32 352.75) rotate(-83.65)"/><ellipse class="cls-56" cx="223.24" cy="147.14" rx="23.67" ry="15.37" transform="translate(52.32 352.75) rotate(-83.65)"/><ellipse class="cls-57" cx="223.24" cy="147.14" rx="23.47" ry="15.24" transform="translate(52.32 352.75) rotate(-83.65)"/><ellipse class="cls-58" cx="223.24" cy="147.14" rx="23.27" ry="15.11" transform="translate(52.32 352.75) rotate(-83.65)"/><ellipse class="cls-59" cx="223.24" cy="147.14" rx="23.07" ry="14.98" transform="translate(52.32 352.75) rotate(-83.65)"/><ellipse class="cls-60" cx="223.24" cy="147.14" rx="22.87" ry="14.85" transform="translate(52.32 352.75) rotate(-83.65)"/><ellipse class="cls-61" cx="223.24" cy="147.14" rx="22.67" ry="14.72" transform="translate(52.32 352.75) rotate(-83.65)"/><ellipse class="cls-62" cx="223.24" cy="147.14" rx="22.47" ry="14.59" transform="matrix(0.11, -0.99, 0.99, 0.11, 52.32, 352.75)"/><ellipse class="cls-63" cx="223.24" cy="147.14" rx="22.27" ry="14.46" transform="translate(52.32 352.75) rotate(-83.65)"/><ellipse class="cls-64" cx="223.24" cy="147.14" rx="22.08" ry="14.33" transform="translate(52.32 352.75) rotate(-83.65)"/><ellipse class="cls-65" cx="223.24" cy="147.14" rx="21.88" ry="14.2" transform="translate(52.32 352.75) rotate(-83.65)"/><path class="cls-66" d="M226.58,125.75c-7.61-1.66-15.29,6.57-17.13,18.38s2.84,22.74,10.45,24.4S235.19,162,237,150.16,234.2,127.42,226.58,125.75Z"/><ellipse class="cls-67" cx="223.24" cy="147.14" rx="21.48" ry="13.94" transform="translate(52.32 352.75) rotate(-83.65)"/><path class="cls-68" d="M226.52,126.14c-7.48-1.63-15,6.45-16.82,18s2.79,22.32,10.27,23.95,15-6.44,16.81-18S234,127.78,226.52,126.14Z"/><ellipse class="cls-69" cx="223.24" cy="147.14" rx="21.08" ry="13.69" transform="translate(52.32 352.75) rotate(-83.65)"/><ellipse class="cls-70" cx="223.24" cy="147.14" rx="20.88" ry="13.56" transform="translate(52.32 352.75) rotate(-83.65)"/><ellipse class="cls-71" cx="223.24" cy="147.14" rx="20.68" ry="13.43" transform="matrix(0.11, -0.99, 0.99, 0.11, 52.32, 352.75)"/><ellipse class="cls-72" cx="223.24" cy="147.14" rx="20.48" ry="13.3" transform="translate(52.32 352.75) rotate(-83.65)"/><ellipse class="cls-73" cx="223.24" cy="147.14" rx="20.29" ry="13.17" transform="translate(52.32 352.75) rotate(-83.65)"/><path class="cls-74" d="M226.34,127.32c-7.06-1.54-14.17,6.08-15.88,17s2.63,21.07,9.69,22.61,14.17-6.08,15.87-17S233.4,128.86,226.34,127.32Z"/><ellipse class="cls-75" cx="223.24" cy="147.14" rx="19.89" ry="12.91" transform="translate(52.32 352.75) rotate(-83.65)"/><path class="cls-76" d="M226.28,127.71c-6.92-1.51-13.89,6-15.56,16.7s2.57,20.65,9.49,22.16,13.89-6,15.56-16.69S233.2,129.23,226.28,127.71Z"/><ellipse class="cls-77" cx="223.24" cy="147.14" rx="19.49" ry="12.65" transform="translate(52.32 352.75) rotate(-83.65)"/><ellipse class="cls-78" cx="223.24" cy="147.14" rx="19.29" ry="12.52" transform="translate(52.32 352.75) rotate(-83.65)"/><ellipse class="cls-79" cx="223.24" cy="147.14" rx="19.09" ry="12.4" transform="translate(52.32 352.75) rotate(-83.65)"/><ellipse class="cls-80" cx="223.24" cy="147.14" rx="18.89" ry="12.27" transform="translate(52.32 352.75) rotate(-83.65)"/><path class="cls-81" d="M226.12,128.7c-6.57-1.44-13.18,5.66-14.77,15.84s2.45,19.61,9,21.05,13.19-5.66,14.78-15.85S232.69,130.13,226.12,128.7Z"/><ellipse class="cls-82" cx="223.24" cy="147.14" rx="18.5" ry="12.01" transform="translate(52.32 352.75) rotate(-83.65)"/><path class="cls-83" d="M226.06,129.09c-6.43-1.41-12.9,5.54-14.46,15.51s2.4,19.19,8.83,20.6,12.9-5.54,14.46-15.51S232.49,130.49,226.06,129.09Z"/><path class="cls-84" d="M226,129.28c-6.36-1.38-12.76,5.49-14.3,15.35s2.37,19,8.73,20.37,12.76-5.48,14.3-15.34S232.39,130.67,226,129.28Z"/><path class="cls-85" d="M226,129.48c-6.29-1.37-12.62,5.42-14.14,15.18s2.34,18.77,8.63,20.14,12.62-5.42,14.14-15.17S232.29,130.85,226,129.48Z"/><path class="cls-86" d="M226,129.68c-6.22-1.36-12.48,5.36-14,15s2.32,18.57,8.54,19.93,12.48-5.36,14-15S232.19,131,226,129.68Z"/><path class="cls-87" d="M225.94,129.87c-6.15-1.34-12.34,5.3-13.83,14.84s2.29,18.36,8.44,19.7,12.34-5.3,13.83-14.84S232.09,131.22,225.94,129.87Z"/><path class="cls-88" d="M225.91,130.07c-6.08-1.33-12.2,5.24-13.68,14.67s2.27,18.15,8.35,19.48,12.2-5.24,13.67-14.67S232,131.4,225.91,130.07Z"/><ellipse class="cls-89" cx="223.24" cy="147.14" rx="17.1" ry="11.1" transform="translate(52.32 352.75) rotate(-83.65)"/><ellipse class="cls-90" cx="223.24" cy="147.14" rx="16.91" ry="10.98" transform="translate(52.32 352.75) rotate(-83.65)"/><path class="cls-91" d="M225.82,130.66c-5.87-1.28-11.78,5.06-13.21,14.16s2.19,17.53,8.06,18.81,11.78-5.06,13.2-14.17S231.69,131.94,225.82,130.66Z"/><path class="cls-92" d="M225.79,130.85c-5.8-1.26-11.64,5-13,14s2.16,17.31,8,18.58,11.64-5,13.05-14S231.59,132.12,225.79,130.85Z"/><ellipse class="cls-93" cx="223.24" cy="147.14" rx="16.31" ry="10.59" transform="translate(52.32 352.75) rotate(-83.65)"/><ellipse class="cls-94" cx="223.24" cy="147.14" rx="16.11" ry="10.46" transform="translate(52.32 352.75) rotate(-83.65)"/><path class="cls-95" d="M225.69,131.44c-5.59-1.22-11.22,4.82-12.57,13.49s2.08,16.69,7.67,17.91S232,158,233.37,149.35,231.29,132.66,225.69,131.44Z"/></g><g class="cls-15"><path class="cls-14" d="M277.63,116.73c-11.67-.66-20.92,13-20.65,30.57s9.94,32.3,21.61,33,20.91-13,20.65-30.56S289.3,117.4,277.63,116.73Z"/><path class="cls-16" d="M277.63,116.93c-11.59-.66-20.78,12.94-20.52,30.37s9.88,32.11,21.47,32.77,20.79-12.93,20.53-30.37S289.23,117.59,277.63,116.93Z"/><ellipse class="cls-17" cx="278.11" cy="148.5" rx="20.8" ry="31.44" transform="translate(-9.91 20.28) rotate(-4.1)"/><ellipse class="cls-18" cx="278.11" cy="148.5" rx="20.67" ry="31.24" transform="translate(-9.91 20.28) rotate(-4.1)"/><ellipse class="cls-19" cx="278.11" cy="148.5" rx="20.54" ry="31.04" transform="translate(-9.91 20.28) rotate(-4.1)"/><ellipse class="cls-20" cx="278.11" cy="148.5" rx="20.41" ry="30.84" transform="translate(-9.91 20.28) rotate(-4.1)"/><ellipse class="cls-21" cx="278.11" cy="148.5" rx="20.28" ry="30.64" transform="matrix(1, -0.07, 0.07, 1, -9.91, 20.28)"/><ellipse class="cls-22" cx="278.11" cy="148.5" rx="20.15" ry="30.44" transform="translate(-9.91 20.28) rotate(-4.1)"/><ellipse class="cls-23" cx="278.11" cy="148.5" rx="20.01" ry="30.25" transform="translate(-9.91 20.28) rotate(-4.1)"/><ellipse class="cls-24" cx="278.11" cy="148.5" rx="19.88" ry="30.05" transform="translate(-9.91 20.28) rotate(-4.1)"/><ellipse class="cls-25" cx="278.11" cy="148.5" rx="19.75" ry="29.85" transform="translate(-9.91 20.28) rotate(-4.1)"/><ellipse class="cls-26" cx="278.11" cy="148.5" rx="19.62" ry="29.65" transform="translate(-9.91 20.28) rotate(-4.1)"/><path class="cls-27" d="M277.67,119.12c-10.8-.62-19.35,12-19.11,28.27s9.19,29.88,20,30.5,19.35-12,19.1-28.27S288.46,119.73,277.67,119.12Z"/><ellipse class="cls-28" cx="278.11" cy="148.5" rx="19.36" ry="29.25" transform="translate(-9.91 20.28) rotate(-4.1)"/><ellipse class="cls-29" cx="278.11" cy="148.5" rx="19.22" ry="29.05" transform="translate(-9.91 20.28) rotate(-4.1)"/><ellipse class="cls-30" cx="278.11" cy="148.5" rx="19.09" ry="28.85" transform="translate(-9.91 20.28) rotate(-4.1)"/><ellipse class="cls-31" cx="278.11" cy="148.5" rx="18.96" ry="28.65" transform="translate(-9.91 20.28) rotate(-4.1)"/><ellipse class="cls-32" cx="278.11" cy="148.5" rx="18.83" ry="28.45" transform="translate(-9.91 20.28) rotate(-4.1)"/><ellipse class="cls-33" cx="278.11" cy="148.5" rx="18.7" ry="28.26" transform="translate(-9.91 20.28) rotate(-4.1)"/><ellipse class="cls-34" cx="278.11" cy="148.5" rx="18.57" ry="28.06" transform="translate(-9.91 20.28) rotate(-4.1)"/><path class="cls-35" d="M277.69,120.7c-10.21-.58-18.3,11.39-18.07,26.75s8.69,28.27,18.91,28.85,18.3-11.39,18.07-26.74S287.9,121.29,277.69,120.7Z"/><path class="cls-36" d="M277.69,120.9c-10.14-.58-18.17,11.31-17.94,26.55s8.63,28.07,18.77,28.65,18.17-11.31,18-26.55S287.83,121.48,277.69,120.9Z"/><path class="cls-37" d="M277.7,121.1c-10.07-.57-18.05,11.23-17.82,26.36s8.57,27.87,18.64,28.44,18-11.23,17.81-26.36S287.76,121.68,277.7,121.1Z"/><ellipse class="cls-38" cx="278.11" cy="148.5" rx="18.04" ry="27.26" transform="translate(-9.91 20.28) rotate(-4.1)"/><ellipse class="cls-39" cx="278.11" cy="148.5" rx="17.91" ry="27.06" transform="translate(-9.91 20.28) rotate(-4.1)"/><ellipse class="cls-40" cx="278.11" cy="148.5" rx="17.78" ry="26.86" transform="translate(-9.91 20.28) rotate(-4.1)"/><ellipse class="cls-41" cx="278.11" cy="148.5" rx="17.64" ry="26.66" transform="translate(-9.91 20.28) rotate(-4.1)"/><ellipse class="cls-42" cx="278.11" cy="148.5" rx="17.51" ry="26.46" transform="translate(-9.91 20.28) rotate(-4.1)"/><ellipse class="cls-43" cx="278.11" cy="148.5" rx="17.38" ry="26.27" transform="matrix(1, -0.07, 0.07, 1, -9.91, 20.28)"/><ellipse class="cls-44" cx="278.11" cy="148.5" rx="17.25" ry="26.07" transform="translate(-9.91 20.28) rotate(-4.1)"/><ellipse class="cls-45" cx="278.11" cy="148.5" rx="17.12" ry="25.87" transform="translate(-9.91 20.28) rotate(-4.1)"/><path class="cls-46" d="M277.72,122.89c-9.41-.54-16.86,10.49-16.65,24.64s8,26.05,17.42,26.58,16.87-10.49,16.65-24.64S287.13,123.43,277.72,122.89Z"/><ellipse class="cls-47" cx="278.11" cy="148.5" rx="16.85" ry="25.47" transform="translate(-9.91 20.28) rotate(-4.1)"/><ellipse class="cls-48" cx="278.11" cy="148.5" rx="16.72" ry="25.27" transform="matrix(1, -0.07, 0.07, 1, -9.91, 20.28)"/><ellipse class="cls-49" cx="278.11" cy="148.5" rx="16.59" ry="25.07" transform="translate(-9.91 20.28) rotate(-4.1)"/><ellipse class="cls-50" cx="278.11" cy="148.5" rx="16.46" ry="24.87" transform="translate(-9.91 20.28) rotate(-4.1)"/><ellipse class="cls-51" cx="278.11" cy="148.5" rx="16.33" ry="24.67" transform="matrix(1, -0.07, 0.07, 1, -9.91, 20.28)"/><ellipse class="cls-52" cx="278.11" cy="148.5" rx="16.2" ry="24.47" transform="translate(-9.91 20.28) rotate(-4.1)"/><ellipse class="cls-53" cx="278.11" cy="148.5" rx="16.06" ry="24.28" transform="translate(-9.91 20.28) rotate(-4.1)"/><path class="cls-54" d="M277.75,124.48c-8.83-.51-15.82,9.84-15.62,23.11s7.51,24.43,16.34,24.94,15.82-9.85,15.62-23.12S286.57,125,277.75,124.48Z"/><ellipse class="cls-55" cx="278.11" cy="148.5" rx="15.8" ry="23.88" transform="translate(-9.91 20.28) rotate(-4.1)"/><ellipse class="cls-56" cx="278.11" cy="148.5" rx="15.67" ry="23.68" transform="translate(-9.91 20.28) rotate(-4.1)"/><ellipse class="cls-57" cx="278.11" cy="148.5" rx="15.54" ry="23.48" transform="translate(-9.91 20.28) rotate(-4.1)"/><ellipse class="cls-58" cx="278.11" cy="148.5" rx="15.41" ry="23.28" transform="translate(-9.91 20.28) rotate(-4.1)"/><ellipse class="cls-59" cx="278.11" cy="148.5" rx="15.27" ry="23.08" transform="translate(-9.91 20.28) rotate(-4.1)"/><ellipse class="cls-60" cx="278.11" cy="148.5" rx="15.14" ry="22.88" transform="matrix(1, -0.07, 0.07, 1, -9.91, 20.28)"/><ellipse class="cls-61" cx="278.11" cy="148.5" rx="15.01" ry="22.68" transform="translate(-9.91 20.28) rotate(-4.1)"/><ellipse class="cls-62" cx="278.11" cy="148.5" rx="14.88" ry="22.48" transform="translate(-9.91 20.28) rotate(-4.1)"/><ellipse class="cls-63" cx="278.11" cy="148.5" rx="14.75" ry="22.29" transform="translate(-9.91 20.28) rotate(-4.1)"/><ellipse class="cls-64" cx="278.11" cy="148.5" rx="14.62" ry="22.09" transform="translate(-9.91 20.28) rotate(-4.1)"/><ellipse class="cls-65" cx="278.11" cy="148.5" rx="14.48" ry="21.89" transform="translate(-9.91 20.28) rotate(-4.1)"/><ellipse class="cls-66" cx="278.11" cy="148.5" rx="14.35" ry="21.69" transform="translate(-9.91 20.28) rotate(-4.1)"/><ellipse class="cls-67" cx="278.11" cy="148.5" rx="14.22" ry="21.49" transform="translate(-9.91 20.28) rotate(-4.1)"/><path class="cls-68" d="M277.79,127.26c-7.81-.45-14,8.7-13.81,20.44s6.64,21.6,14.45,22.05,14-8.71,13.81-20.44S285.59,127.7,277.79,127.26Z"/><ellipse class="cls-69" cx="278.11" cy="148.5" rx="13.96" ry="21.09" transform="translate(-9.91 20.28) rotate(-4.1)"/><path class="cls-70" d="M277.79,127.65c-7.65-.43-13.72,8.55-13.55,20.06s6.52,21.2,14.18,21.64,13.73-8.54,13.55-20.06S285.45,128.09,277.79,127.65Z"/><ellipse class="cls-71" cx="278.11" cy="148.5" rx="13.69" ry="20.69" transform="translate(-9.91 20.28) rotate(-4.1)"/><ellipse class="cls-72" cx="278.11" cy="148.5" rx="13.56" ry="20.5" transform="translate(-9.91 20.28) rotate(-4.1)"/><ellipse class="cls-73" cx="278.11" cy="148.5" rx="13.43" ry="20.3" transform="translate(-9.91 20.28) rotate(-4.1)"/><path class="cls-74" d="M277.81,128.45c-7.37-.42-13.21,8.21-13,19.29s6.27,20.4,13.64,20.82,13.2-8.22,13-19.3S285.17,128.87,277.81,128.45Z"/><ellipse class="cls-75" cx="278.11" cy="148.5" rx="13.17" ry="19.9" transform="translate(-9.91 20.28) rotate(-4.1)"/><path class="cls-76" d="M277.81,128.85c-7.22-.42-12.94,8.05-12.78,18.91s6.15,20,13.37,20.4,13-8.06,12.78-18.91S285,129.26,277.81,128.85Z"/><ellipse class="cls-77" cx="278.11" cy="148.5" rx="12.9" ry="19.5" transform="translate(-9.91 20.28) rotate(-4.1)"/><ellipse class="cls-78" cx="278.11" cy="148.5" rx="12.77" ry="19.3" transform="translate(-9.91 20.28) rotate(-4.1)"/><ellipse class="cls-79" cx="278.11" cy="148.5" rx="12.64" ry="19.1" transform="translate(-9.91 20.28) rotate(-4.1)"/><ellipse class="cls-80" cx="278.11" cy="148.5" rx="12.51" ry="18.9" transform="translate(-9.91 20.28) rotate(-4.1)"/><path class="cls-81" d="M277.83,129.84c-6.86-.39-12.29,7.65-12.14,17.95s5.84,19,12.7,19.38,12.29-7.65,12.13-18S284.68,130.23,277.83,129.84Z"/><ellipse class="cls-82" cx="278.11" cy="148.5" rx="12.25" ry="18.51" transform="translate(-9.91 20.28) rotate(-4.1)"/><ellipse class="cls-83" cx="278.11" cy="148.5" rx="12.11" ry="18.31" transform="translate(-9.91 20.28) rotate(-4.1)"/><path class="cls-84" d="M277.84,130.43c-6.64-.38-11.9,7.41-11.75,17.39s5.65,18.37,12.29,18.75,11.9-7.4,11.75-17.38S284.47,130.81,277.84,130.43Z"/><path class="cls-85" d="M277.84,130.63c-6.57-.37-11.77,7.32-11.62,17.19s5.59,18.18,12.16,18.55,11.76-7.32,11.61-17.19S284.4,131,277.84,130.63Z"/><ellipse class="cls-86" cx="278.11" cy="148.5" rx="11.72" ry="17.71" transform="translate(-9.91 20.28) rotate(-4.1)"/><ellipse class="cls-87" cx="278.11" cy="148.5" rx="11.59" ry="17.51" transform="translate(-9.91 20.28) rotate(-4.1)"/><ellipse class="cls-88" cx="278.11" cy="148.5" rx="11.46" ry="17.31" transform="translate(-9.91 20.28) rotate(-4.1)"/><path class="cls-89" d="M277.85,131.43c-6.27-.36-11.24,7-11.1,16.42s5.34,17.37,11.61,17.73,11.25-7,11.11-16.43S284.12,131.78,277.85,131.43Z"/><ellipse class="cls-90" cx="278.11" cy="148.5" rx="11.19" ry="16.91" transform="translate(-9.91 20.28) rotate(-4.1)"/><ellipse class="cls-91" cx="278.11" cy="148.5" rx="11.06" ry="16.71" transform="translate(-9.91 20.28) rotate(-4.1)"/><path class="cls-92" d="M277.86,132c-6.05-.34-10.85,6.75-10.71,15.86s5.15,16.76,11.21,17.1,10.85-6.75,10.71-15.85S283.91,132.37,277.86,132Z"/><ellipse class="cls-93" cx="278.11" cy="148.5" rx="10.8" ry="16.32" transform="translate(-9.91 20.28) rotate(-4.1)"/><path class="cls-94" d="M277.87,132.42c-5.91-.34-10.59,6.59-10.46,15.47s5,16.36,10.94,16.69,10.59-6.59,10.46-15.47S283.77,132.76,277.87,132.42Z"/><path class="cls-95" d="M277.87,132.62c-5.84-.34-10.46,6.51-10.33,15.28s5,16.15,10.81,16.49,10.46-6.51,10.32-15.29S283.7,133,277.87,132.62Z"/></g><path class="cls-14" d="M315.52,141.33c-5.87-2.11-13,3.19-15.85,11.84s-.45,17.38,5.42,19.49,13-3.19,15.84-11.84S321.39,143.45,315.52,141.33Z"/><path class="cls-2" d="M316.14,161.76c-5.7,3.63-11.76,2.45-16.15-1.14.1,7.28-1.47,21.1-11.94,35.17-8.4,11.3-26.53,15-40,14.5-32.12-1.23-40.55-11.06-47.14-24.32,4.51,14.54,15.6,28,40.86,29.77,46.8,3.27,59.71-16.23,61.57-44a8,8,0,0,0,1.74.9c5.87,2.11,13-3.19,15.84-11.84a23.43,23.43,0,0,0,1.2-6.58A14.53,14.53,0,0,1,316.14,161.76Z"/><path class="cls-2" d="M305.79,157l5.37.77c0-8.47,6.25-11.28,6.25-11.28C307.21,142.82,305.79,157,305.79,157Z"/><path class="cls-12" d="M270.63,172.89v0A.06.06,0,0,0,270.63,172.89Z"/><path class="cls-96" d="M255.36,59c-59.5,3.95-50.85,69.9-50.85,69.9,3.54-19.61,15.8-43.93,25.17-44.42A35.73,35.73,0,0,0,250,91.34c10.9.22,26-7.72,26-7.72,10.87-.25,23.31,33.41,24.76,60.54.34,6.2,5.73-1,5.73-1S313.67,55.09,255.36,59Z"/><path class="cls-96" d="M286.46,64.09C268.87,37.24,211.54,45,211.54,45,206,75.5,227.28,82.37,227.28,82.37s49.63-8.85,57.15-3.55,22.17,47.91,22.17,47.91,12.69-44.47,3.34-60.82C303.07,53.9,286.46,64.09,286.46,64.09Z"/><path class="cls-96" d="M233.72,38.84c.2,4,3.68,8.14,3.68,8.14s60.12,40.84,49.06,17.11S233.72,38.84,233.72,38.84Z"/><path class="cls-96" d="M296.21,55.92C292.82,56.44,292,58,292,58c2.43-4.44.76-10.5.76-10.5-6.61,3.78-6,9.06-6,9.06-3.23-6.79-13.2-8.89-13.2-8.89.32,5.6,6.3,11.32,6.62,11.5l5.17,7.88,10.73-1.69-1.06-4.78A5.89,5.89,0,0,0,296.21,55.92Z"/><path class="cls-97" d="M213.14,68.22c-17.48,5.32-12.42,75-12.42,75,3.55-19.61,19.59-58.27,29-58.76A61.66,61.66,0,0,1,213.14,68.22Z"/><path class="cls-11" d="M281.18,63.58h0Z"/><path class="cls-11" d="M281.19,63.58Z"/><path class="cls-98" d="M303.17,60.51c-2.15.34-4.41.87-6.74,1.4C290.87,63.18,285,64,279.31,63.26c-6.63-.89-12.44-3.85-18.32-6.82-3-1.5-5.94-3-9-4.34-6.55-2.81-14.28-5.57-21.51-5.33a30.39,30.39,0,0,0-10.38,2.56,22.19,22.19,0,0,0-7.4,5,20.11,20.11,0,0,0-2,2.35,37.23,37.23,0,0,0,.87,6.55l.71-.56a21.43,21.43,0,0,1,4.42-2.52,19.69,19.69,0,0,1,5.93-1.51c8.59-.66,16.58,2.79,24.34,6,3.18,1.31,6.41,2.84,9.84,4.26a108.63,108.63,0,0,0,10.68,4c6.26,1.91,13.91,2.49,20.29.72.86-.24,1.71-.44,2.54-.7A58.17,58.17,0,0,0,299,69.19c2.48-1.28,4.61-2.45,6.49-3.33A23.22,23.22,0,0,1,309,64.45,10.61,10.61,0,0,0,303.17,60.51Z"/><path class="cls-11" d="M281.05,63.59h0Z"/><path class="cls-1" d="M278.28,135.06c-10.07.47-15.78,10.88-15.78,10.88s2.42,7.93,14.25,6.51,14.26-6,14.26-6S290,134.51,278.28,135.06Z"/><path class="cls-1" d="M208.19,143.31s-.91,5.54,9.55,7.72c12.85,2.66,15.95-3.6,15.95-3.6S216.12,122.36,208.19,143.31Z"/><path class="cls-99" d="M225.56,139c-2.74-.87-6.08,2-7.45,6.32a11.25,11.25,0,0,0-.36,5.71,24.51,24.51,0,0,0,8.85.42,11.57,11.57,0,0,0,1.43-3C229.41,144.1,228.3,139.86,225.56,139Z"/><path class="cls-100" d="M217,147.44v2.95s8.08-1.19,7.28-4.71S217,147.44,217,147.44Z"/><path class="cls-101" d="M278.33,139c-2.74-.87-6.07,2-7.45,6.32a10.3,10.3,0,0,0,.07,7,19.29,19.29,0,0,0,5.8.1c.76-.09,1.47-.2,2.15-.31a12,12,0,0,0,1.91-3.69C282.18,144.1,281.07,139.86,278.33,139Z"/><path class="cls-100" d="M269,147.44v2.95s8.08-1.19,7.28-4.71S269,147.44,269,147.44Z"/><path class="cls-97" d="M220.93,133.68c-10.22-2.18-12.74,9.63-12.74,9.63s1.85-6.93,10.77-6c7.22.72,14.73,10.15,14.73,10.15S232,136,220.93,133.68Z"/><path class="cls-97" d="M277.82,134.44c-13.28.91-15.32,11.5-15.32,11.5a19.93,19.93,0,0,1,16.42-6.7c11.56.83,12.09,7.65,12.09,7.65S290.87,133.54,277.82,134.44Z"/><path class="cls-97" d="M217,115.2l-2,4.48c12.93-.33,17.39,9.42,20.24,15.93l5.65-8.06C233,112.47,217,115.2,217,115.2Z"/><path class="cls-97" d="M259.94,126.69l4.22,9.35s5.48-16.73,23.16-15.44l-1-2.35S272.42,111,259.94,126.69Z"/><path class="cls-12" d="M243.16,176.27c-14.87-2-17.58,5-17.58,5-5.35,11.8,8.44,3.76,21.84,9.93s28.68-8.17,21.25-17.13S256.48,178.11,243.16,176.27Z"/><path class="cls-1" d="M265.43,171.4c-5.84-2.68-11,6.43-22.27,4.87-6.5-.89-10.64,0-13.28,1.2a41.82,41.82,0,0,1-1.2,10.84c4.41.36,11.63-.36,18.74,2.91a17.33,17.33,0,0,0,18.54-3c-.06-.24-.14-.49-.2-.73C264.42,182,264.92,176.78,265.43,171.4Z"/><path class="cls-102" d="M243.16,176.27c-6.5-.89-10.64,0-13.28,1.2a33.54,33.54,0,0,1-.11,3.87c6.9-1.9,15-1.92,21.38-1.37A56.66,56.66,0,0,1,265,182.83a65.24,65.24,0,0,1,.4-11.43C259.59,168.72,254.46,177.83,243.16,176.27Z"/><path class="cls-96" d="M300.72,143.19a43.44,43.44,0,0,1-3.81,14.73c-1.38,2.88-3,6-5.56,7.93-3.1,2.35-7,2.1-10.64,1.13-4-1.07-7.71-3.09-11.59-4.56-7.06-2.69-14.72-2.45-22-.79a69.11,69.11,0,0,0-7.21,2.09c-6.23,2.14-12.46,4.41-18.83,6.09-3.48.92-7.67,1.47-11-.4-3.79-2.11-5.4-6.68-6.76-10.53a46,46,0,0,1-2.57-15.69c-7.19,29.22-11.32,75.94,50.15,75S304,171,304,171c-2.94-10.36,2.48-27.77,2.48-27.77Zm-30.08,45.72c-6.35,9.33-19,7.79-28.78,4.35-3.87-1.36-8.07-1.45-12.19-1.51-2.92,0-5.76-.74-7.2-3.5-3.15-6.07,3.4-12.38,8.54-14.42,5.34-2.12,11.25-.28,16.79-1.3,5-.93,9.61-4.74,14.83-4.53s10.3,3.73,11.17,9.17C274.44,181.23,272.91,185.58,270.64,188.91Z"/><path class="cls-14" d="M242.73,151.82s-8.43-6.18-11.46,4.58,18.42,17.23,24.36,6-9.38-32.29-9.38-32.29S249.24,143.05,242.73,151.82Z"/><path class="cls-103" d="M242.73,151.82s-8.19-5.82-11.24,3.86a77.67,77.67,0,0,0,13.4,2.08c2.71-6.45,3.58-13.45,3.84-21l-1.83-.51C247.06,140.75,246.48,146.78,242.73,151.82Z"/><path class="cls-2" d="M231.05,159.41c1.23,8.84,19.22,13.13,24.58,3a11.24,11.24,0,0,0,.78-1.94A53.5,53.5,0,0,1,231.05,159.41Z"/><path class="cls-14" d="M155,192.33s1.07-6.8-.43-8.68c-2.65-3.36-5.5-3.47-8.13-3.17,0,0,0-7.17-2.93-8.82a6.51,6.51,0,0,0-5.23-.75s-.85-4.45-5.38-4.47c-6.27,0-25.2,10.7-27.79,16.28-4.93,10.61,17.78,34.43,14.82,44.92-2.46,8.69,24.69,4.54,24.69,4.54s8.3-4.58,9.36-11.35a17.55,17.55,0,0,0-1.35-10s5.53-.44,8.22-3.89c2-2.58,1.22-9.82.45-12.25C160.12,190.94,155,192.33,155,192.33Z"/><path class="cls-14" d="M121.57,217.79C120.13,242.5,89,300.88,86,332.46c-1.48,15.65.46,25.67,4.8,32.08.37,4.16,1.71,10.55,6.41,12.46s10.15-.32,13.31-2.06c13.28.91,29.16-12.13,34.87-30.91,6-19.64-1.19-123.34-1.19-123.34S121.9,212.09,121.57,217.79Z"/><path class="cls-104" d="M161,193.89c1.88,3.17-14.61,11.26-16.68,11.72-2.92.66-6.22.35-8.55-1.55a20.28,20.28,0,0,0-3.14-2.67c-2.12-1.08-5.1-.4-6.67-2.18-.89-1-1-2.5-1.94-3.47-2.1-2.24-6.71-.3-8.43-2.84-.76-1.12-.57-2.72-1.44-3.76a4.57,4.57,0,0,0-1.53-1.06c-1.56-.8-3.63-1.45-4.94-2.61-.6-.53-2.38-3.15-1.71-4a6.58,6.58,0,0,0-.8,1.27c-4.93,10.61,17.78,34.43,14.82,44.92a.13.13,0,0,0,0,.06c-6.69,28-31.3,76.85-33.94,104.76-1.48,15.65.46,25.67,4.8,32.08.37,4.16,1.71,10.55,6.41,12.46s10.15-.32,13.31-2.06c13.28.91,29.16-12.13,34.87-30.91,4.76-15.64,1.18-84.58-.47-112,1.41-.83,8.13-5.13,9.08-11.18a17.55,17.55,0,0,0-1.35-10s5.53-.44,8.22-3.89c2-2.58,1.22-9.82.45-12.25A4,4,0,0,0,161,193.89ZM136.21,344c-10.16,22.63-25.4,16.83-29.89,0s18.23-109,27-108.14,7.71,8.29,7.29,15.8C139.27,275.1,146.37,321.4,136.21,344Z"/><path class="cls-2" d="M351.63,173.59c-5.25.29-10.91,5.69-5.23,9.88S365.65,189,365.65,189l5.71-13.26C370.76,175.84,357.31,173.29,351.63,173.59Z"/><path class="cls-14" d="M398.71,182.72c-2.59-5.58-21.52-16.3-27.8-16.28-4.52,0-5.38,4.47-5.38,4.47a6.51,6.51,0,0,0-5.23.75c-3,1.65-2.93,8.82-2.93,8.82-2.62-.3-5.47-.19-8.13,3.17-1.49,1.88-.43,8.68-.43,8.68s-5.1-1.39-6.29,2.34c-.78,2.43-1.57,9.67.44,12.25,2.69,3.45,8.22,3.89,8.22,3.89a17.5,17.5,0,0,0-1.34,10c1.05,6.77,9.35,11.35,9.35,11.35s27.15,4.15,24.7-4.54C380.92,217.15,403.64,193.33,398.71,182.72Z"/><path class="cls-14" d="M382.27,217.79c-.33-5.7-22.63,2.9-22.63,2.9s-7.18,103.7-1.2,123.34c5.72,18.78,21.59,31.82,34.87,30.91,3.17,1.74,8.6,4,13.32,2.06s6-8.3,6.4-12.46c4.34-6.41,6.29-16.43,4.81-32.08C414.85,300.88,383.7,242.5,382.27,217.79Z"/><path class="cls-104" d="M383.9,227.7a.13.13,0,0,1,0-.06c-3-10.49,19.75-34.31,14.82-44.92a6.67,6.67,0,0,0-.81-1.27c.67.87-1.11,3.49-1.7,4-1.32,1.16-3.38,1.81-4.95,2.61a4.67,4.67,0,0,0-1.53,1.06c-.86,1-.67,2.64-1.43,3.76-1.73,2.54-6.34.6-8.44,2.84-.91,1-1.05,2.47-1.93,3.47-1.58,1.78-4.55,1.1-6.67,2.18-1.23.63-2.07,1.8-3.14,2.67-2.33,1.9-5.63,2.21-8.56,1.55-2.06-.46-18.56-8.55-16.67-11.72a3.5,3.5,0,0,0-.36.78c-.78,2.43-1.57,9.67.44,12.25,2.69,3.45,8.22,3.89,8.22,3.89a17.5,17.5,0,0,0-1.34,10c.94,6,7.67,10.35,9.08,11.18-1.66,27.44-5.24,96.38-.48,112,5.72,18.78,21.59,31.82,34.87,30.91,3.17,1.74,8.6,4,13.32,2.06s6-8.3,6.4-12.46c4.34-6.41,6.29-16.43,4.81-32.08C415.19,304.55,390.58,255.74,383.9,227.7ZM397.51,344c-4.48,16.83-19.73,22.63-29.89,0s-3.05-68.93-4.36-92.34c-.42-7.51-1.44-14.93,7.29-15.8S402,327.2,397.51,344Z"/></svg>